<svg width="52" height="52" viewBox="0 0 52 52" fill="none" xmlns="http://www.w3.org/2000/svg">
<circle cx="26" cy="26" r="26" fill="#E1F3D7"/>
<path d="M21.9 8V11.4H32.1V8H35.5V11.4H42.3C42.7509 11.4 43.1833 11.5791 43.5021 11.8979C43.8209 12.2167 44 12.6491 44 13.1V40.3C44 40.7509 43.8209 41.1833 43.5021 41.5021C43.1833 41.8209 42.7509 42 42.3 42H11.7C11.2491 42 10.8167 41.8209 10.4979 41.5021C10.1791 41.1833 10 40.7509 10 40.3V13.1C10 12.6491 10.1791 12.2167 10.4979 11.8979C10.8167 11.5791 11.2491 11.4 11.7 11.4H18.5V8H21.9ZM40.6 23.3H13.4V38.6H40.6V23.3ZM32.1612 25.2312L34.565 27.635L26.15 36.05L20.1388 30.0388L22.546 27.635L26.1517 31.2424L32.1629 25.2312H32.1612ZM18.5 14.8H13.4V19.9H40.6V14.8H35.5V16.5H32.1V14.8H21.9V16.5H18.5V14.8Z" fill="#72E128"/>
</svg>
