
<svg width="25" height="22" viewBox="0 0 25 22" fill="none" xmlns="http://www.w3.org/2000/svg">
<path d="M7.71275 10.0833L11.6689 1.83331C12.4558 1.83331 13.2105 2.12304 13.767 2.63877C14.3234 3.15449 14.636 3.85397 14.636 4.58331V8.24998H20.2339C20.5207 8.24697 20.8047 8.30177 21.0663 8.4106C21.3279 8.51942 21.5608 8.67965 21.749 8.8802C21.9372 9.08075 22.076 9.31682 22.156 9.57204C22.2359 9.82727 22.255 10.0956 22.212 10.3583L20.8471 18.6083C20.7756 19.0455 20.536 19.444 20.1725 19.7303C19.809 20.0167 19.3461 20.1716 18.8691 20.1666H7.71275M7.71275 10.0833V20.1666M7.71275 10.0833H4.74565C4.22103 10.0833 3.7179 10.2765 3.34694 10.6203C2.97598 10.9641 2.76758 11.4304 2.76758 11.9166V18.3333C2.76758 18.8195 2.97598 19.2859 3.34694 19.6297C3.7179 19.9735 4.22103 20.1666 4.74565 20.1666H7.71275" stroke="#72E128" stroke-width="2" stroke-linecap="round" stroke-linejoin="round"/>
</svg>
