
<svg width="20" height="19" viewBox="0 0 20 19" fill="none" xmlns="http://www.w3.org/2000/svg">
<path d="M9.13367 3.01324H3.41436C2.98097 3.01324 2.56534 3.1854 2.25889 3.49185C1.95244 3.7983 1.78027 4.21394 1.78027 4.64733V16.0859C1.78027 16.5193 1.95244 16.935 2.25889 17.2414C2.56534 17.5479 2.98097 17.72 3.41436 17.72H14.853C15.2864 17.72 15.702 17.5479 16.0084 17.2414C16.3149 16.935 16.4871 16.5193 16.4871 16.0859V10.3666M15.2615 1.78768C15.5865 1.46264 16.0274 1.28003 16.4871 1.28003C16.9467 1.28003 17.3876 1.46264 17.7126 1.78768C18.0377 2.11272 18.2203 2.55356 18.2203 3.01324C18.2203 3.47292 18.0377 3.91377 17.7126 4.23881L9.95071 12.0007L6.68254 12.8178L7.49958 9.54959L15.2615 1.78768Z" stroke="#26C6F9" stroke-width="2" stroke-linecap="round" stroke-linejoin="round"/>
</svg>
