<svg width="52" height="52" viewBox="0 0 52 52" fill="none" xmlns="http://www.w3.org/2000/svg">
<circle cx="26" cy="26" r="26" fill="#D5EFF9"/>
<path d="M26.5 44.3332C26.0625 44.3332 25.6875 44.2109 25.375 43.9665C25.0625 43.7221 24.8281 43.4012 24.6719 43.004C24.0781 41.2929 23.3281 39.6887 22.4219 38.1915C21.5469 36.6943 20.3125 34.9373 18.7188 32.9207C17.125 30.904 15.8281 28.979 14.8281 27.1457C13.8594 25.3123 13.375 23.0971 13.375 20.4998C13.375 16.9248 14.6406 13.8998 17.1719 11.4248C19.7344 8.91928 22.8438 7.6665 26.5 7.6665C30.1563 7.6665 33.25 8.91928 35.7813 11.4248C38.3438 13.8998 39.625 16.9248 39.625 20.4998C39.625 23.2804 39.0781 25.6026 37.9844 27.4665C36.9219 29.2998 35.6875 31.1179 34.2813 32.9207C32.5938 35.1207 31.3125 36.954 30.4375 38.4207C29.5938 39.8568 28.8906 41.3846 28.3281 43.004C28.1719 43.4318 27.9219 43.7679 27.5781 44.0123C27.2656 44.2262 26.9063 44.3332 26.5 44.3332ZM26.5 37.779C27.0313 36.7401 27.625 35.7165 28.2813 34.7082C28.9688 33.6998 29.9688 32.3554 31.2813 30.6748C32.625 28.9637 33.7187 27.3901 34.5625 25.954C35.4375 24.4873 35.875 22.6693 35.875 20.4998C35.875 17.9637 34.9531 15.8096 33.1094 14.0373C31.2969 12.2346 29.0938 11.3332 26.5 11.3332C23.9062 11.3332 21.6875 12.2346 19.8438 14.0373C18.0313 15.8096 17.125 17.9637 17.125 20.4998C17.125 22.6693 17.5469 24.4873 18.3906 25.954C19.2656 27.3901 20.375 28.9637 21.7188 30.6748C23.0313 32.3554 24.0156 33.6998 24.6719 34.7082C25.3594 35.7165 25.9688 36.7401 26.5 37.779ZM26.5 25.0832C27.8125 25.0832 28.9219 24.6401 29.8281 23.754C30.7344 22.8679 31.1875 21.7832 31.1875 20.4998C31.1875 19.2165 30.7344 18.1318 29.8281 17.2457C28.9219 16.3596 27.8125 15.9165 26.5 15.9165C25.1875 15.9165 24.0781 16.3596 23.1719 17.2457C22.2656 18.1318 21.8125 19.2165 21.8125 20.4998C21.8125 21.7832 22.2656 22.8679 23.1719 23.754C24.0781 24.6401 25.1875 25.0832 26.5 25.0832Z" fill="#35C0ED"/>
</svg>
