
<svg width="22" height="22" viewBox="0 0 22 22" fill="none" xmlns="http://www.w3.org/2000/svg">
<path d="M9.1665 13.453V13.3962C9.1665 11.0972 11.0145 9.16302 13.5234 8.59927C13.1898 6.4891 10.9623 4.76668 8.15817 4.76668C5.11484 4.76668 2.74984 6.79527 2.74984 9.14835C2.74984 10.0366 3.07984 10.89 3.70317 11.6215C3.7325 11.6564 3.77925 11.7077 3.8425 11.7728C4.38141 12.3266 4.70681 13.0534 4.761 13.8243C5.41559 13.4459 6.17998 13.3029 6.92709 13.4191C7.07925 13.4429 7.20392 13.4613 7.29834 13.4741C7.91899 13.5547 8.54792 13.5473 9.1665 13.4521V13.453ZM9.58542 15.2414C8.75151 15.3846 7.9008 15.4016 7.06184 15.2918C6.92287 15.273 6.78414 15.2526 6.64567 15.2304C6.30309 15.1771 5.95265 15.2459 5.65567 15.4248L3.91034 16.4771C3.77592 16.5599 3.61851 16.5975 3.46117 16.5843C3.36601 16.5772 3.27321 16.5513 3.18808 16.5081C3.10295 16.465 3.02718 16.4055 2.96509 16.333C2.90301 16.2606 2.85585 16.1766 2.8263 16.0858C2.79675 15.9951 2.78541 15.8994 2.79292 15.8043L2.93042 14.1717C2.94755 13.9669 2.92049 13.7608 2.85106 13.5674C2.78164 13.374 2.67146 13.1977 2.528 13.0506C2.45181 12.9729 2.37813 12.8928 2.30709 12.8104C1.43259 11.7838 0.916504 10.5169 0.916504 9.14743C0.916504 5.71543 4.15875 2.93335 8.15817 2.93335C11.8798 2.93335 14.9443 5.34143 15.354 8.44068C18.445 8.58093 20.8998 10.7461 20.8998 13.3962C20.8998 14.4898 20.4818 15.5009 19.7733 16.3204C19.7265 16.3754 19.6669 16.4395 19.5945 16.5128C19.4786 16.6295 19.3895 16.7699 19.3331 16.9244C19.2768 17.0788 19.2546 17.2437 19.2682 17.4075L19.3791 18.7119C19.3847 18.7884 19.3751 18.8652 19.351 18.938C19.3268 19.0108 19.2885 19.0781 19.2382 19.136C19.188 19.1939 19.1268 19.2414 19.0581 19.2755C18.9895 19.3097 18.9148 19.33 18.8383 19.3353C18.7109 19.3457 18.5835 19.3155 18.4743 19.2491L17.0599 18.4085C16.8188 18.2658 16.5357 18.2111 16.2588 18.2536C16.124 18.2747 16.0113 18.2903 15.9214 18.3022C15.6318 18.3388 15.3348 18.359 15.0332 18.359C12.5637 18.359 10.4517 17.0684 9.58542 15.2414ZM15.981 16.4423C16.4983 16.3626 17.0274 16.4176 17.5173 16.6018C17.6459 16.0819 17.9122 15.6062 18.2883 15.2249C18.3341 15.1791 18.368 15.1424 18.3854 15.1223C18.8337 14.6044 19.0665 14.0104 19.0665 13.3962C19.0665 11.7425 17.3221 10.2667 15.0332 10.2667C12.7443 10.2667 10.9998 11.7425 10.9998 13.3962C10.9998 15.0499 12.7443 16.5257 15.0332 16.5257C15.2541 16.5257 15.4732 16.511 15.6877 16.4835C15.761 16.4743 15.86 16.4606 15.981 16.4414V16.4423Z" fill="#262B43" fill-opacity="0.9"/>
</svg>
