
<svg width="14" height="15" viewBox="0 0 14 15" fill="none" xmlns="http://www.w3.org/2000/svg">
<g clip-path="url(#clip0_484_5752)">
<path d="M8.77917 3.125C9.34893 3.2441 9.87256 3.54266 10.283 3.98246C10.6935 4.42226 10.9722 4.98329 11.0833 5.59375M8.77917 0.625C9.96291 0.765898 11.0668 1.33386 11.9095 2.23563C12.7522 3.1374 13.2837 4.31938 13.4167 5.5875M12.8333 10.575V12.45C12.834 12.6241 12.8007 12.7964 12.7356 12.9558C12.6705 13.1153 12.5751 13.2585 12.4554 13.3762C12.3357 13.4938 12.1943 13.5834 12.0404 13.6392C11.8865 13.695 11.7235 13.7157 11.5617 13.7C9.76666 13.491 8.04242 12.8338 6.5275 11.7813C5.11807 10.8217 3.92311 9.54136 3.0275 8.03125C2.04166 6.40075 1.42814 4.54437 1.23667 2.6125C1.22209 2.43967 1.24126 2.26548 1.29296 2.10102C1.34466 1.93656 1.42775 1.78543 1.53695 1.65726C1.64615 1.5291 1.77905 1.42669 1.92721 1.35658C2.07537 1.28646 2.23553 1.25016 2.3975 1.25H4.1475C4.4306 1.24701 4.70505 1.35442 4.9197 1.55221C5.13435 1.74999 5.27455 2.02465 5.31417 2.325C5.38803 2.92504 5.52501 3.5142 5.7225 4.08125C5.80099 4.30495 5.81797 4.54807 5.77145 4.7818C5.72492 5.01553 5.61684 5.23007 5.46 5.4L4.71917 6.19375C5.54958 7.75847 6.75877 9.05403 8.21917 9.94375L8.96 9.15C9.1186 8.98196 9.31884 8.86616 9.53699 8.81631C9.75514 8.76646 9.98205 8.78466 10.1908 8.86875C10.7201 9.08034 11.27 9.22711 11.83 9.30625C12.1134 9.34908 12.3722 9.502 12.5571 9.73593C12.7421 9.96986 12.8404 10.2685 12.8333 10.575Z" stroke="#3C4156" stroke-linecap="round" stroke-linejoin="round"/>
</g>
<defs>
<clipPath id="clip0_484_5752">
<rect width="14" height="15" fill="white"/>
</clipPath>
</defs>
</svg>
