
<svg width="25" height="24" viewBox="0 0 25 24" fill="none" xmlns="http://www.w3.org/2000/svg">
<path d="M19.6582 3H18.6582V1H16.6582V3H8.6582V1H6.6582V3H5.6582C4.5482 3 3.6582 3.89 3.6582 5V19C3.6582 19.5304 3.86892 20.0391 4.24399 20.4142C4.61906 20.7893 5.12777 21 5.6582 21H19.6582C20.7582 21 21.6582 20.1 21.6582 19V5C21.6582 4.46957 21.4475 3.96086 21.0724 3.58579C20.6973 3.21071 20.1886 3 19.6582 3ZM19.6582 19H5.6582V8H19.6582V19ZM12.6582 10V12H16.6582V15H12.6582V17L8.6582 13.5L12.6582 10Z" fill="#FDB528"/>
</svg>
