
<svg width="12" height="16" viewBox="0 0 12 16" fill="none" xmlns="http://www.w3.org/2000/svg">
<path fill-rule="evenodd" clip-rule="evenodd" d="M3.91634 2.16667C3.91634 2.60869 3.74075 3.03262 3.42819 3.34518C3.11562 3.65774 2.6917 3.83333 2.24967 3.83333C1.80765 3.83333 1.38372 3.65774 1.07116 3.34518C0.758602 3.03262 0.583008 2.60869 0.583008 2.16667C0.583008 1.72464 0.758602 1.30072 1.07116 0.988155C1.38372 0.675595 1.80765 0.5 2.24967 0.5C2.6917 0.5 3.11562 0.675595 3.42819 0.988155C3.74075 1.30072 3.91634 1.72464 3.91634 2.16667ZM2.24967 9.66667C2.6917 9.66667 3.11562 9.49107 3.42819 9.17851C3.74075 8.86595 3.91634 8.44203 3.91634 8C3.91634 7.55797 3.74075 7.13405 3.42819 6.82149C3.11562 6.50893 2.6917 6.33333 2.24967 6.33333C1.80765 6.33333 1.38372 6.50893 1.07116 6.82149C0.758602 7.13405 0.583008 7.55797 0.583008 8C0.583008 8.44203 0.758602 8.86595 1.07116 9.17851C1.38372 9.49107 1.80765 9.66667 2.24967 9.66667ZM2.24967 15.5C2.6917 15.5 3.11562 15.3244 3.42819 15.0118C3.74075 14.6993 3.91634 14.2754 3.91634 13.8333C3.91634 13.3913 3.74075 12.9674 3.42819 12.6548C3.11562 12.3423 2.6917 12.1667 2.24967 12.1667C1.80765 12.1667 1.38372 12.3423 1.07116 12.6548C0.758602 12.9674 0.583008 13.3913 0.583008 13.8333C0.583008 14.2754 0.758602 14.6993 1.07116 15.0118C1.38372 15.3244 1.80765 15.5 2.24967 15.5ZM11.4163 2.16667C11.4163 2.60869 11.2407 3.03262 10.9282 3.34518C10.6156 3.65774 10.1917 3.83333 9.74967 3.83333C9.30765 3.83333 8.88372 3.65774 8.57116 3.34518C8.2586 3.03262 8.08301 2.60869 8.08301 2.16667C8.08301 1.72464 8.2586 1.30072 8.57116 0.988155C8.88372 0.675595 9.30765 0.5 9.74967 0.5C10.1917 0.5 10.6156 0.675595 10.9282 0.988155C11.2407 1.30072 11.4163 1.72464 11.4163 2.16667ZM9.74967 9.66667C10.1917 9.66667 10.6156 9.49107 10.9282 9.17851C11.2407 8.86595 11.4163 8.44203 11.4163 8C11.4163 7.55797 11.2407 7.13405 10.9282 6.82149C10.6156 6.50893 10.1917 6.33333 9.74967 6.33333C9.30765 6.33333 8.88372 6.50893 8.57116 6.82149C8.2586 7.13405 8.08301 7.55797 8.08301 8C8.08301 8.44203 8.2586 8.86595 8.57116 9.17851C8.88372 9.49107 9.30765 9.66667 9.74967 9.66667ZM9.74967 15.5C10.1917 15.5 10.6156 15.3244 10.9282 15.0118C11.2407 14.6993 11.4163 14.2754 11.4163 13.8333C11.4163 13.3913 11.2407 12.9674 10.9282 12.6548C10.6156 12.3423 10.1917 12.1667 9.74967 12.1667C9.30765 12.1667 8.88372 12.3423 8.57116 12.6548C8.2586 12.9674 8.08301 13.3913 8.08301 13.8333C8.08301 14.2754 8.2586 14.6993 8.57116 15.0118C8.88372 15.3244 9.30765 15.5 9.74967 15.5Z" fill="#696969"/>
</svg>
