<svg width="52" height="52" viewBox="0 0 52 52" fill="none" xmlns="http://www.w3.org/2000/svg">
<circle cx="26" cy="26" r="26" fill="#0B2952" fill-opacity="0.13"/>
<path d="M25.9998 46.8332C14.4936 46.8332 5.1665 37.5061 5.1665 25.9998C5.1665 14.4936 14.4936 5.1665 25.9998 5.1665C37.5061 5.1665 46.8332 14.4936 46.8332 25.9998C46.8332 37.5061 37.5061 46.8332 25.9998 46.8332ZM25.9998 42.6665C30.4201 42.6665 34.6593 40.9106 37.785 37.785C40.9106 34.6593 42.6665 30.4201 42.6665 25.9998C42.6665 21.5796 40.9106 17.3403 37.785 14.2147C34.6593 11.0891 30.4201 9.33317 25.9998 9.33317C21.5796 9.33317 17.3403 11.0891 14.2147 14.2147C11.0891 17.3403 9.33317 21.5796 9.33317 25.9998C9.33317 30.4201 11.0891 34.6593 14.2147 37.785C17.3403 40.9106 21.5796 42.6665 25.9998 42.6665ZM28.0832 25.9998H36.4165V30.1665H23.9165V15.5832H28.0832V25.9998Z" fill="#0B2952"/>
</svg>
