
<svg width="20" height="22" viewBox="0 0 20 22" fill="none" xmlns="http://www.w3.org/2000/svg">
<path d="M17.2873 19.7793H14.4263C14.1561 19.7793 13.9297 19.6878 13.7473 19.5047C13.5648 19.3216 13.4732 19.0952 13.4726 18.8257C13.472 18.5561 13.5635 18.3297 13.7473 18.1466C13.931 17.9635 14.1573 17.872 14.4263 17.872H17.2873V8.33519H3.93581V11.1962C3.93581 11.4664 3.84426 11.6931 3.66115 11.8762C3.47805 12.0593 3.25171 12.1505 2.98213 12.1499C2.71256 12.1493 2.48622 12.0577 2.30312 11.8752C2.12001 11.6928 2.02846 11.4664 2.02846 11.1962V4.52047C2.02846 3.99595 2.21538 3.54708 2.58922 3.17387C2.96306 2.80067 3.41193 2.61375 3.93581 2.61311H4.88949V1.65943C4.88949 1.38922 4.98105 1.16288 5.16415 0.980413C5.34726 0.797942 5.5736 0.706389 5.84317 0.705753C6.11275 0.705117 6.3394 0.79667 6.52315 0.980413C6.70689 1.16415 6.79812 1.39049 6.79685 1.65943V2.61311H14.4263V1.65943C14.4263 1.38922 14.5178 1.16288 14.7009 0.980413C14.8841 0.797942 15.1104 0.706389 15.38 0.705753C15.6495 0.705117 15.8762 0.79667 16.0599 0.980413C16.2437 1.16415 16.3349 1.39049 16.3336 1.65943V2.61311H17.2873C17.8118 2.61311 18.261 2.80003 18.6349 3.17387C19.0087 3.54772 19.1953 3.99658 19.1947 4.52047V17.872C19.1947 18.3965 19.0081 18.8457 18.6349 19.2195C18.2617 19.5934 17.8125 19.78 17.2873 19.7793ZM7.91743 17.872H1.07478C0.804567 17.872 0.578227 17.7804 0.395757 17.5973C0.213286 17.4142 0.121733 17.1879 0.121097 16.9183C0.120461 16.6487 0.212014 16.4224 0.395757 16.2393C0.579499 16.0562 0.805839 15.9646 1.07478 15.9646H7.91743L6.12928 14.1526C5.95443 13.9778 5.8632 13.7594 5.85557 13.4975C5.84794 13.2355 5.93918 13.0089 6.12928 12.8175C6.30412 12.6426 6.52664 12.5552 6.79685 12.5552C7.06706 12.5552 7.28959 12.6426 7.46443 12.8175L10.8977 16.2507C11.0884 16.4415 11.1838 16.664 11.1838 16.9183C11.1838 17.1726 11.0884 17.3951 10.8977 17.5859L7.46443 21.0191C7.28959 21.194 7.07119 21.2855 6.80925 21.2938C6.5473 21.302 6.32065 21.2105 6.12928 21.0191C5.95443 20.8443 5.86701 20.6218 5.86701 20.3515C5.86701 20.0813 5.95443 19.8588 6.12928 19.684L7.91743 17.872Z" fill="#26C6F9"/>
</svg>
