
<svg width="15" height="12" viewBox="0 0 15 12" fill="none" xmlns="http://www.w3.org/2000/svg">
<path d="M10.5333 10.1223V11.5557H0.5V10.1223C0.5 10.1223 0.5 7.25567 5.51665 7.25567C10.5333 7.25567 10.5333 10.1223 10.5333 10.1223ZM8.02498 3.31402C8.02498 2.81792 7.87787 2.33296 7.60225 1.92047C7.32663 1.50797 6.93489 1.18647 6.47655 0.996626C6.01821 0.806776 5.51387 0.757103 5.0273 0.853887C4.54074 0.950672 4.0938 1.18957 3.743 1.54036C3.3922 1.89116 3.15331 2.3381 3.05652 2.82467C2.95974 3.31124 3.00941 3.81558 3.19926 4.27391C3.38911 4.73225 3.71061 5.124 4.1231 5.39962C4.53559 5.67523 5.02055 5.82234 5.51665 5.82234C6.1819 5.82234 6.81991 5.55807 7.29031 5.08767C7.76071 4.61727 8.02498 3.97927 8.02498 3.31402ZM10.4903 7.25567C10.9309 7.59663 11.2914 8.02998 11.5464 8.52525C11.8015 9.02052 11.9449 9.56567 11.9666 10.1223V11.5557H14.8333V10.1223C14.8333 10.1223 14.8333 7.52084 10.4903 7.25567ZM9.81664 0.80569C9.32342 0.803396 8.84111 0.950837 8.43348 1.22852C8.86881 1.83678 9.10289 2.56602 9.10289 3.31402C9.10289 4.06201 8.86881 4.79125 8.43348 5.39951C8.84111 5.6772 9.32342 5.82464 9.81664 5.82234C10.4819 5.82234 11.1199 5.55807 11.5903 5.08767C12.0607 4.61727 12.325 3.97927 12.325 3.31402C12.325 2.64877 12.0607 2.01077 11.5903 1.54036C11.1199 1.06996 10.4819 0.80569 9.81664 0.80569Z" fill="#26C6F9"/>
</svg>
