
<svg width="14" height="15" viewBox="0 0 14 15" fill="none" xmlns="http://www.w3.org/2000/svg">
<path d="M7.25012 6.80566C8.04578 6.80566 8.80885 6.48959 9.37147 5.92698C9.93409 5.36438 10.2502 4.60131 10.2502 3.80566C10.2502 3.01001 9.93409 2.24695 9.37147 1.68434C8.80885 1.12173 8.04578 0.805664 7.25012 0.805664C6.45445 0.805664 5.69138 1.12173 5.12876 1.68434C4.56614 2.24695 4.25006 3.01001 4.25006 3.80566C4.25006 4.60131 4.56614 5.36438 5.12876 5.92698C5.69138 6.48959 6.45445 6.80566 7.25012 6.80566ZM2.00003 11.1384C2.00003 9.99091 2.92704 9.06091 4.07306 9.05566L4.14806 9.09316C5.08538 9.56177 6.11893 9.80571 7.16686 9.80566H7.33412C7.68412 9.80566 8.03113 9.77866 8.37513 9.72466V8.93041C8.37513 8.65966 8.43814 8.39791 8.55139 8.16241C8.15262 8.25753 7.74408 8.3056 7.33412 8.30566H7.16686C6.35194 8.30561 5.54822 8.11585 4.81932 7.75141L4.73532 7.70941C4.53275 7.60807 4.30932 7.55543 4.08281 7.55566C3.13259 7.55566 2.22129 7.93313 1.54938 8.60503C0.877474 9.27692 0.5 10.1882 0.5 11.1384V14.3057H8.48989C8.4149 14.1059 8.37605 13.8943 8.37513 13.6809V12.8057H2.00003V11.1384ZM12.5602 10.4627C12.635 10.397 12.6807 10.3044 12.6871 10.2051C12.6936 10.1058 12.6603 10.008 12.5947 9.93316C12.5291 9.85837 12.4364 9.81272 12.3371 9.80625C12.2378 9.79978 12.14 9.83302 12.0652 9.89866L11.5169 10.3787L11.4434 10.3104C11.3703 10.2452 11.2745 10.2112 11.1767 10.2157C11.0788 10.2202 10.9865 10.2629 10.9197 10.3345C10.8529 10.4062 10.8167 10.5011 10.819 10.5991C10.8213 10.697 10.8618 10.7902 10.9319 10.8587L11.2514 11.1564C11.3939 11.2884 11.6122 11.2914 11.7577 11.1639L12.5602 10.4627ZM12.5602 11.9627C12.635 11.897 12.6807 11.8044 12.6871 11.7051C12.6936 11.6058 12.6603 11.508 12.5947 11.4332C12.5291 11.3584 12.4364 11.3127 12.3371 11.3063C12.2378 11.2998 12.14 11.333 12.0652 11.3987L11.5169 11.8787L11.4434 11.8104C11.3706 11.7426 11.2739 11.7065 11.1744 11.71C11.075 11.7135 10.981 11.7564 10.9132 11.8292C10.8453 11.902 10.8092 11.9987 10.8127 12.0982C10.8162 12.1976 10.8591 12.2916 10.9319 12.3594L11.2514 12.6564C11.3939 12.7884 11.6122 12.7914 11.7577 12.6639L12.5602 11.9627Z" fill="#26C6F9"/>
<path fill-rule="evenodd" clip-rule="evenodd" d="M10.925 7.55566C11.0742 7.55566 11.2173 7.61493 11.3228 7.72042C11.4283 7.82591 11.4875 7.96898 11.4875 8.11816V8.30566H12.086V8.11816C12.086 7.96898 12.1453 7.82591 12.2508 7.72042C12.3563 7.61493 12.4994 7.55566 12.6486 7.55566C12.7977 7.55566 12.9408 7.61493 13.0463 7.72042C13.1518 7.82591 13.2111 7.96898 13.2111 8.11816V8.30566H13.6251C13.7245 8.30566 13.8199 8.34517 13.8902 8.4155C13.9606 8.48582 14.0001 8.58121 14.0001 8.68066V13.9307C14.0001 14.0301 13.9606 14.1255 13.8902 14.1958C13.8199 14.2662 13.7245 14.3057 13.6251 14.3057H9.87501C9.77555 14.3057 9.68016 14.2662 9.60984 14.1958C9.53951 14.1255 9.5 14.0301 9.5 13.9307V8.68066C9.5 8.58121 9.53951 8.48582 9.60984 8.4155C9.68016 8.34517 9.77555 8.30566 9.87501 8.30566H10.3625V8.11816C10.3625 7.96898 10.4218 7.82591 10.5273 7.72042C10.6328 7.61493 10.7758 7.55566 10.925 7.55566ZM10.625 9.43066V13.1807H12.8751V9.43066H10.625Z" fill="#26C6F9"/>
</svg>
