<svg width="20" height="18" viewBox="0 0 20 18" fill="none" xmlns="http://www.w3.org/2000/svg">
<path d="M10.4042 0.0610075L16.8692 2.03358C17.24 2.14543 17.5 2.55215 17.5 3.01987V4.00514H18.3333C19.25 4.00514 20 4.92025 20 6.03872V9.0891C20 10.7739 18.8808 12.1395 17.5 12.1395H17.1492C16.7033 13.5121 15.8558 14.6672 14.7358 15.3505L10.745 17.7857C10.2758 18.0714 9.72417 18.0714 9.255 17.7857L5.26333 15.3505C4.145 14.6672 3.2975 13.5121 2.85167 12.1395H2.5C1.11917 12.1395 0 10.7739 0 9.0891V6.03872C0 4.91517 0.745833 4.00514 1.66667 4.00514H2.5V3.01885C2.5 2.55316 2.76 2.14645 3.13083 2.03257L9.59583 0.0610075C9.86083 -0.0203358 10.1392 -0.0203358 10.4042 0.0610075ZM10 2.03358L4.16667 3.81297V9.89338C4.16667 11.4348 4.88 12.8421 6.00917 13.5325L10 15.9667L13.9908 13.5325C15.12 12.8431 15.8333 11.4348 15.8333 9.89439V3.81398L10 2.0346V2.03358ZM2.5 6.03872H1.66667V9.0891C1.66667 9.65037 2.04 10.1059 2.5 10.1059V6.03872ZM18.3333 6.03872H17.5V10.1059C17.96 10.1059 18.3333 9.65037 18.3333 9.0891V6.03872Z" fill="#3B72ED"/>
</svg>
