<svg width="24" height="20" viewBox="0 0 24 20" fill="none" xmlns="http://www.w3.org/2000/svg">
<path d="M23.1111 20H0.888916V17.7778H2.00003V1.11111C2.00003 0.816426 2.11709 0.533811 2.32546 0.325437C2.53384 0.117063 2.81645 0 3.11114 0H18.6667C18.9614 0 19.244 0.117063 19.4524 0.325437C19.6607 0.533811 19.7778 0.816426 19.7778 1.11111V6.66667H22V17.7778H23.1111V20ZM17.5556 17.7778H19.7778V8.88889H13.1111V17.7778H15.3334V11.1111H17.5556V17.7778ZM17.5556 6.66667V2.22222H4.22225V17.7778H10.8889V6.66667H17.5556ZM6.44447 8.88889H8.66669V11.1111H6.44447V8.88889ZM6.44447 13.3333H8.66669V15.5556H6.44447V13.3333ZM6.44447 4.44444H8.66669V6.66667H6.44447V4.44444Z" fill="#3B72ED"/>
</svg>
