<svg width="20" height="20" viewBox="0 0 20 20" fill="none" xmlns="http://www.w3.org/2000/svg">
<path d="M0.978244 15.002C0.555515 14.2709 0.226909 13.4894 0.000244141 12.676C0.493551 12.4251 0.907839 12.0426 1.19727 11.5709C1.48671 11.0991 1.64001 10.5565 1.64022 10.0031C1.64042 9.44963 1.48753 8.90691 1.19845 8.43496C0.909365 7.96301 0.495364 7.58023 0.00224423 7.32896C0.45428 5.69445 1.31497 4.20191 2.50324 2.99196C2.96734 3.29368 3.50586 3.46112 4.05922 3.47574C4.61258 3.49036 5.1592 3.35159 5.63857 3.07479C6.11795 2.79799 6.5114 2.39396 6.77537 1.9074C7.03934 1.42084 7.16355 0.870735 7.13424 0.317959C8.77635 -0.106419 10.4995 -0.10573 12.1412 0.319959C12.1122 0.872724 12.2366 1.42275 12.5008 1.90917C12.765 2.39559 13.1586 2.79943 13.6381 3.07602C14.1175 3.35261 14.6642 3.49115 15.2175 3.47631C15.7708 3.46147 16.3093 3.29384 16.7732 2.99196C17.3522 3.58196 17.8662 4.25296 18.2982 5.00196C18.7312 5.75096 19.0552 6.53196 19.2762 7.32796C18.7829 7.57886 18.3687 7.96133 18.0792 8.43306C17.7898 8.9048 17.6365 9.4474 17.6363 10.0008C17.6361 10.5543 17.789 11.097 18.078 11.569C18.3671 12.0409 18.7811 12.4237 19.2742 12.675C18.8222 14.3095 17.9615 15.802 16.7732 17.012C16.3092 16.7102 15.7706 16.5428 15.2173 16.5282C14.6639 16.5136 14.1173 16.6523 13.6379 16.9291C13.1585 17.2059 12.7651 17.61 12.5011 18.0965C12.2371 18.5831 12.1129 19.1332 12.1422 19.686C10.5001 20.1103 8.77701 20.1096 7.13524 19.684C7.16429 19.1312 7.03984 18.5812 6.77566 18.0948C6.51149 17.6083 6.11789 17.2045 5.63842 16.9279C5.15894 16.6513 4.6123 16.5128 4.05897 16.5276C3.50564 16.5424 2.96721 16.7101 2.50324 17.012C1.91223 16.4089 1.39984 15.7335 0.978244 15.002ZM6.63824 15.198C7.70387 15.8126 8.50509 16.799 8.88824 17.968C9.38724 18.015 9.88824 18.016 10.3872 17.969C10.7706 16.7998 11.5722 15.8134 12.6382 15.199C13.7035 14.5826 14.9588 14.3814 16.1632 14.634C16.4532 14.226 16.7032 13.791 16.9112 13.336C16.0907 12.4194 15.6374 11.2322 15.6382 10.002C15.6382 8.74196 16.1082 7.56496 16.9112 6.66796C16.7018 6.21311 16.4507 5.77859 16.1612 5.36996C14.9575 5.62227 13.703 5.42144 12.6382 4.80596C11.5726 4.19133 10.7714 3.20494 10.3882 2.03596C9.88925 1.98896 9.38824 1.98796 8.88924 2.03496C8.50584 3.20411 7.70425 4.19052 6.63824 4.80496C5.57303 5.42127 4.31772 5.62248 3.11324 5.36996C2.82381 5.77824 2.57338 6.21282 2.36524 6.66796C3.18581 7.58452 3.63913 8.77175 3.63824 10.002C3.63824 11.262 3.16824 12.439 2.36524 13.336C2.57472 13.7908 2.82578 14.2253 3.11524 14.634C4.31896 14.3816 5.57345 14.5825 6.63824 15.198ZM9.63824 13.002C8.8426 13.002 8.07953 12.6859 7.51692 12.1233C6.95431 11.5607 6.63824 10.7976 6.63824 10.002C6.63824 9.20631 6.95431 8.44325 7.51692 7.88064C8.07953 7.31803 8.8426 7.00196 9.63824 7.00196C10.4339 7.00196 11.197 7.31803 11.7596 7.88064C12.3222 8.44325 12.6382 9.20631 12.6382 10.002C12.6382 10.7976 12.3222 11.5607 11.7596 12.1233C11.197 12.6859 10.4339 13.002 9.63824 13.002ZM9.63824 11.002C9.90346 11.002 10.1578 10.8966 10.3454 10.7091C10.5329 10.5215 10.6382 10.2672 10.6382 10.002C10.6382 9.73674 10.5329 9.48239 10.3454 9.29485C10.1578 9.10732 9.90346 9.00196 9.63824 9.00196C9.37303 9.00196 9.11867 9.10732 8.93114 9.29485C8.7436 9.48239 8.63824 9.73674 8.63824 10.002C8.63824 10.2672 8.7436 10.5215 8.93114 10.7091C9.11867 10.8966 9.37303 11.002 9.63824 11.002Z" fill="#3B72ED"/>
</svg>
