<svg width="20" height="19" viewBox="0 0 20 19" fill="none" xmlns="http://www.w3.org/2000/svg">
<path d="M-0.000244141 18.8807V16.8807H1.99976V2.71574C1.99972 2.48155 2.08188 2.25477 2.23192 2.07494C2.38195 1.89512 2.59034 1.77366 2.82076 1.73174L12.2928 0.00974003C12.3792 -0.00592174 12.468 -0.0024222 12.5529 0.0199916C12.6378 0.0424053 12.7168 0.0831867 12.7842 0.139456C12.8516 0.195726 12.9059 0.266112 12.9431 0.345645C12.9804 0.425177 12.9997 0.511917 12.9998 0.59974V1.87974L16.9998 1.88074C17.265 1.88074 17.5193 1.9861 17.7069 2.17363C17.8944 2.36117 17.9998 2.61552 17.9998 2.88074V16.8807H19.9998V18.8807H15.9998V3.88074H12.9998V18.8807H-0.000244141ZM10.9998 2.27774L3.99976 3.54974V16.8807H10.9998V2.27774ZM9.99976 8.88074V10.8807H7.99976V8.88074H9.99976Z" fill="#3B72ED"/>
</svg>
