
<svg width="14" height="15" viewBox="0 0 14 15" fill="none" xmlns="http://www.w3.org/2000/svg">
<path d="M6.5 1.89453C7.22918 1.89453 7.93402 2.14302 8.45898 2.6543C8.98791 3.16956 9.2958 3.91338 9.2959 4.82715C9.2959 5.95148 8.79882 7.07331 8.12891 7.81738C8.09317 7.95318 8.09719 8.02668 8.10352 8.05957C8.79301 8.29286 9.53158 8.6267 10.1143 9.02441C10.414 9.22899 10.6912 9.46299 10.8975 9.72461C11.1028 9.98517 11.2637 10.307 11.2637 10.6738V10.9883C11.2637 11.462 11.0265 11.8283 10.6963 12.0859C10.3811 12.3318 9.96744 12.4937 9.53516 12.6055C8.66636 12.8301 7.55182 12.8945 6.5127 12.8945C5.47488 12.8945 4.35437 12.8298 3.47949 12.6055C3.04427 12.4939 2.62719 12.333 2.30957 12.0879C1.97723 11.8314 1.73633 11.4646 1.73633 10.9883V10.6738C1.73633 10.3105 1.89974 9.99268 2.10156 9.7373C2.30497 9.47995 2.57692 9.24716 2.87012 9.04297C3.45235 8.63755 4.18923 8.29242 4.85645 8.0498C4.8583 8.04871 4.86201 8.04706 4.86621 8.04395C4.87742 8.03561 4.88705 8.02588 4.89355 8.01562C4.89844 8.00784 4.90612 7.99321 4.9082 7.96387C4.90984 7.94081 4.90496 7.90039 4.8877 7.83691C4.20746 7.09208 3.70996 5.95926 3.70996 4.82715C3.71006 3.91404 4.0154 3.16985 4.54297 2.6543C5.06669 2.1426 5.77055 1.89462 6.5 1.89453Z" stroke="#696969"/>
</svg>
