<svg width="48" height="48" viewBox="0 0 48 48" fill="none" xmlns="http://www.w3.org/2000/svg">
<rect width="48" height="48" rx="6" fill="#26C6F9" fill-opacity="0.24"/>
<path d="M21.8355 22.6151C22.6956 24.0346 23.9471 25.2102 25.4582 26.0182L26.2685 24.9521C26.3988 24.7807 26.5915 24.6601 26.8101 24.6131C27.0287 24.5662 27.258 24.5961 27.4547 24.6972C28.7511 25.3628 30.1829 25.7631 31.6558 25.8718C31.8856 25.8889 32.1002 25.9868 32.2567 26.1459C32.4131 26.305 32.5 26.5137 32.5 26.7303V30.5726C32.5 30.7858 32.4159 30.9914 32.2638 31.1497C32.1118 31.308 31.9026 31.4076 31.6768 31.4294C31.191 31.4767 30.7015 31.5 30.2083 31.5C22.3617 31.5 16 25.5239 16 18.1528C16 17.6895 16.0248 17.2297 16.0752 16.7733C16.0983 16.5612 16.2044 16.3647 16.3729 16.2219C16.5414 16.079 16.7603 16 16.9873 16H21.0774C21.308 16 21.5302 16.0816 21.6995 16.2286C21.8689 16.3756 21.9731 16.5771 21.9913 16.7931C22.107 18.1767 22.5332 19.5217 23.2417 20.7396C23.3493 20.9243 23.3812 21.1397 23.3312 21.3451C23.2812 21.5504 23.1528 21.7314 22.9703 21.8538L21.8355 22.6151ZM19.5237 22.0493L21.2653 20.8808C20.7711 19.8785 20.4324 18.8148 20.2597 17.7222H17.8425C17.837 17.8652 17.8342 18.009 17.8342 18.1528C17.8333 24.5732 23.3737 29.7778 30.2083 29.7778C30.3614 29.7778 30.5145 29.7752 30.6667 29.7692V27.4984C29.5036 27.3362 28.3712 27.0181 27.3043 26.5538L26.0604 28.1899C25.5596 28.0071 25.0732 27.7913 24.6048 27.5441L24.5516 27.5156C22.7536 26.5544 21.2647 25.1557 20.2414 23.4667L20.2112 23.4167C19.948 22.9767 19.7183 22.5198 19.5237 22.0493Z" fill="#26C6F9"/>
</svg>
