<svg width="48" height="48" viewBox="0 0 48 48" fill="none" xmlns="http://www.w3.org/2000/svg">
<rect width="48" height="48" rx="6" fill="#26C6F9" fill-opacity="0.24"/>
<path d="M19.5885 17.4888C19.7521 17.4889 19.9126 17.5327 20.0534 17.6157C20.1943 17.6987 20.3104 17.8179 20.3897 17.9609L21.5113 19.9803C21.5835 20.1105 21.623 20.2565 21.6262 20.4054C21.6294 20.5543 21.5962 20.7018 21.5296 20.8351L20.4493 22.9956C20.4493 22.9956 20.7623 24.6049 22.0723 25.9152C23.3826 27.2251 24.9863 27.5331 24.9863 27.5331L27.1469 26.4529C27.2802 26.3861 27.4278 26.3529 27.5768 26.3561C27.7258 26.3593 27.8718 26.3988 28.0022 26.4712L30.028 27.5978C30.1707 27.6772 30.2896 27.7934 30.3724 27.9343C30.4552 28.0751 30.4988 28.2356 30.4987 28.3989V30.7241C30.4987 31.9084 29.3987 32.7636 28.2767 32.3851C25.9722 31.6077 22.3954 30.1269 20.1275 27.8599C17.8606 25.5926 16.3802 22.0153 15.6024 19.7108C15.2238 18.5888 16.0791 17.4888 17.2634 17.4888H19.5885Z" stroke="#26C6F9" stroke-width="1.5" stroke-linejoin="round"/>
<path d="M30.875 19.8748H25.375V15.2915H30.875V16.6665L33.1667 15.7498V19.4165L30.875 18.4998V19.8748Z" stroke="#26C6F9" stroke-width="1.5" stroke-linecap="round" stroke-linejoin="round"/>
</svg>
