<svg width="48" height="48" viewBox="0 0 48 48" fill="none" xmlns="http://www.w3.org/2000/svg">
<rect width="48" height="48" rx="6" fill="#26C6F9" fill-opacity="0.24"/>
<path d="M23.5004 32C23.3137 32 23.1537 31.9467 23.0204 31.84C22.8871 31.7333 22.7871 31.5933 22.7204 31.42C22.4671 30.6733 22.1471 29.9733 21.7604 29.32C21.3871 28.6667 20.8604 27.9 20.1804 27.02C19.5004 26.14 18.9471 25.3 18.5204 24.5C18.1071 23.7 17.9004 22.7333 17.9004 21.6C17.9004 20.04 18.4404 18.72 19.5204 17.64C20.6137 16.5467 21.9404 16 23.5004 16C25.0604 16 26.3804 16.5467 27.4604 17.64C28.5537 18.72 29.1004 20.04 29.1004 21.6C29.1004 22.8133 28.8671 23.8267 28.4004 24.64C27.9471 25.44 27.4204 26.2333 26.8204 27.02C26.1004 27.98 25.5537 28.78 25.1804 29.42C24.8204 30.0467 24.5204 30.7133 24.2804 31.42C24.2137 31.6067 24.1071 31.7533 23.9604 31.86C23.8271 31.9533 23.6737 32 23.5004 32ZM23.5004 29.14C23.7271 28.6867 23.9804 28.24 24.2604 27.8C24.5537 27.36 24.9804 26.7733 25.5404 26.04C26.1137 25.2933 26.5804 24.6067 26.9404 23.98C27.3137 23.34 27.5004 22.5467 27.5004 21.6C27.5004 20.4933 27.1071 19.5533 26.3204 18.78C25.5471 17.9933 24.6071 17.6 23.5004 17.6C22.3937 17.6 21.4471 17.9933 20.6604 18.78C19.8871 19.5533 19.5004 20.4933 19.5004 21.6C19.5004 22.5467 19.6804 23.34 20.0404 23.98C20.4137 24.6067 20.8871 25.2933 21.4604 26.04C22.0204 26.7733 22.4404 27.36 22.7204 27.8C23.0137 28.24 23.2737 28.6867 23.5004 29.14ZM23.5004 23.6C24.0604 23.6 24.5337 23.4067 24.9204 23.02C25.3071 22.6333 25.5004 22.16 25.5004 21.6C25.5004 21.04 25.3071 20.5667 24.9204 20.18C24.5337 19.7933 24.0604 19.6 23.5004 19.6C22.9404 19.6 22.4671 19.7933 22.0804 20.18C21.6937 20.5667 21.5004 21.04 21.5004 21.6C21.5004 22.16 21.6937 22.6333 22.0804 23.02C22.4671 23.4067 22.9404 23.6 23.5004 23.6Z" fill="#26C6F9"/>
</svg>
