<svg width="48" height="48" viewBox="0 0 48 48" fill="none" xmlns="http://www.w3.org/2000/svg">
<rect width="48" height="48" rx="6" fill="#26C6F9" fill-opacity="0.24"/>
<path d="M23.7501 22.8057C24.5458 22.8057 25.3089 22.4896 25.8715 21.927C26.4341 21.3644 26.7502 20.6013 26.7502 19.8057C26.7502 19.01 26.4341 18.247 25.8715 17.6843C25.3089 17.1217 24.5458 16.8057 23.7501 16.8057C22.9545 16.8057 22.1914 17.1217 21.6288 17.6843C21.0661 18.247 20.7501 19.01 20.7501 19.8057C20.7501 20.6013 21.0661 21.3644 21.6288 21.927C22.1914 22.4896 22.9545 22.8057 23.7501 22.8057ZM18.5 27.1384C18.5 25.9909 19.427 25.0609 20.5731 25.0557L20.6481 25.0932C21.5854 25.5618 22.6189 25.8057 23.6669 25.8057H23.8341C24.1841 25.8057 24.5311 25.7787 24.8751 25.7247V24.9304C24.8751 24.6597 24.9381 24.3979 25.0514 24.1624C24.6526 24.2575 24.2441 24.3056 23.8341 24.3057H23.6669C22.8519 24.3056 22.0482 24.1159 21.3193 23.7514L21.2353 23.7094C21.0328 23.6081 20.8093 23.5554 20.5828 23.5557C19.6326 23.5557 18.7213 23.9331 18.0494 24.605C17.3775 25.2769 17 26.1882 17 27.1384V30.3057H24.9899C24.9149 30.1059 24.876 29.8943 24.8751 29.6809V28.8057H18.5V27.1384ZM29.0602 26.4627C29.135 26.397 29.1807 26.3044 29.1871 26.2051C29.1936 26.1058 29.1603 26.008 29.0947 25.9332C29.0291 25.8584 28.9364 25.8127 28.8371 25.8063C28.7378 25.7998 28.64 25.833 28.5652 25.8987L28.0169 26.3787L27.9434 26.3104C27.8703 26.2452 27.7745 26.2112 27.6767 26.2157C27.5788 26.2202 27.4865 26.2629 27.4197 26.3345C27.3529 26.4062 27.3167 26.5011 27.319 26.5991C27.3213 26.697 27.3618 26.7902 27.4319 26.8587L27.7514 27.1564C27.8939 27.2884 28.1122 27.2914 28.2577 27.1639L29.0602 26.4627ZM29.0602 27.9627C29.135 27.897 29.1807 27.8044 29.1871 27.7051C29.1936 27.6058 29.1603 27.508 29.0947 27.4332C29.0291 27.3584 28.9364 27.3127 28.8371 27.3063C28.7378 27.2998 28.64 27.333 28.5652 27.3987L28.0169 27.8787L27.9434 27.8104C27.8706 27.7426 27.7739 27.7065 27.6744 27.71C27.575 27.7135 27.481 27.7564 27.4132 27.8292C27.3453 27.902 27.3092 27.9987 27.3127 28.0982C27.3162 28.1976 27.3591 28.2916 27.4319 28.3594L27.7514 28.6564C27.8939 28.7884 28.1122 28.7914 28.2577 28.6639L29.0602 27.9627Z" fill="#26C6F9"/>
<path fill-rule="evenodd" clip-rule="evenodd" d="M27.425 23.5557C27.5742 23.5557 27.7173 23.6149 27.8228 23.7204C27.9283 23.8259 27.9875 23.969 27.9875 24.1182V24.3057H28.586V24.1182C28.586 23.969 28.6453 23.8259 28.7508 23.7204C28.8563 23.6149 28.9994 23.5557 29.1486 23.5557C29.2977 23.5557 29.4408 23.6149 29.5463 23.7204C29.6518 23.8259 29.7111 23.969 29.7111 24.1182V24.3057H30.1251C30.2245 24.3057 30.3199 24.3452 30.3902 24.4155C30.4606 24.4858 30.5001 24.5812 30.5001 24.6807V29.9307C30.5001 30.0301 30.4606 30.1255 30.3902 30.1958C30.3199 30.2662 30.2245 30.3057 30.1251 30.3057H26.375C26.2755 30.3057 26.1802 30.2662 26.1098 30.1958C26.0395 30.1255 26 30.0301 26 29.9307V24.6807C26 24.5812 26.0395 24.4858 26.1098 24.4155C26.1802 24.3452 26.2755 24.3057 26.375 24.3057H26.8625V24.1182C26.8625 23.969 26.9218 23.8259 27.0273 23.7204C27.1328 23.6149 27.2758 23.5557 27.425 23.5557ZM27.125 25.4307V29.1807H29.3751V25.4307H27.125Z" fill="#26C6F9"/>
</svg>
