
<svg width="184" height="184" viewBox="0 0 184 184" fill="none" xmlns="http://www.w3.org/2000/svg">
<g clip-path="url(#clip0_59_1117)">
<g opacity="0.9">
<path d="M47.6014 153.631C47.6014 153.631 48.3739 75.7999 23.5097 26.8191C21.8384 23.5295 17.3661 23.4769 15.6304 26.7421C4.02373 48.5788 -24.3949 116.564 47.6014 153.631Z" fill="#39AFD3"/>
<path opacity="0.5" d="M41.7538 147.092C41.8853 147.312 41.5914 147.531 41.4356 147.332C35.676 139.987 14.7725 105.801 17.4412 49.0979C17.4412 49.0616 17.4556 49.0268 17.4813 49.0012C17.5069 48.9755 17.5417 48.9611 17.578 48.9611C17.6142 48.9611 17.649 48.9755 17.6747 49.0012C17.7003 49.0268 17.7147 49.0616 17.7147 49.0979C18.1888 62.52 21.3039 112.377 41.7538 147.092Z" fill="white"/>
</g>
<g opacity="0.92">
<path d="M53.7056 122.75C53.7056 122.75 69.9087 52.6697 56.0811 3.20008C55.1514 -0.12566 50.9231 -1.11779 48.6285 1.46188C33.2866 18.711 -7.15543 74.0492 53.7056 122.75Z" fill="#66B8D0"/>
<path opacity="0.5" d="M49.4611 115.611C49.4784 115.657 49.4774 115.707 49.4582 115.753C49.439 115.798 49.4031 115.834 49.3581 115.853C49.313 115.872 49.2622 115.873 49.2164 115.856C49.1705 115.839 49.1331 115.804 49.112 115.76C45.1164 107.911 32.1034 72.6334 45.9028 22.0223C45.9063 22.005 45.9133 21.9886 45.9232 21.974C45.9331 21.9594 45.9458 21.9469 45.9606 21.9372C45.9753 21.9275 45.9918 21.9209 46.0091 21.9176C46.0265 21.9143 46.0443 21.9144 46.0615 21.918C46.0788 21.9216 46.0952 21.9285 46.1098 21.9384C46.1244 21.9484 46.1369 21.9611 46.1465 21.9758C46.1562 21.9906 46.1629 22.0071 46.1662 22.0244C46.1695 22.0418 46.1693 22.0596 46.1658 22.0769C43.9421 34.293 36.9846 79.9494 49.4611 115.611Z" fill="white"/>
</g>
<path d="M0.11891 138.043C17.1577 195.619 151.644 200.268 175.911 145.333C177.574 141.568 174.636 137.43 170.242 137.346L3.39254 134.172C1.18075 134.13 -0.465597 136.068 0.11891 138.043Z" fill="#A8E8FD" fill-opacity="0.5"/>
<path d="M176.297 87.5561H140.523V156.593H176.297V87.5561Z" fill="#93E5FF"/>
<path d="M181.09 93.5221H138.82V64.1174L172.038 62.4134L182.755 90.9128C182.885 91.1927 182.942 91.5007 182.921 91.8085C182.9 92.1163 182.803 92.4139 182.637 92.6739C182.471 92.9339 182.242 93.1479 181.972 93.2961C181.701 93.4443 181.398 93.5221 181.09 93.5221Z" fill="url(#paint0_linear_59_1117)"/>
<path d="M172.038 62.8391L140.523 64.5411V61.1318L169.972 59.4271C170.52 59.4271 171.045 59.6449 171.433 60.0326C171.82 60.4203 172.038 60.9461 172.038 61.4943L172.038 62.8391Z" fill="#1B4073"/>
<g opacity="0.89">
<path d="M168.663 106.307H148.369C148.328 106.307 148.295 106.34 148.295 106.38V137.768C148.295 137.809 148.328 137.842 148.369 137.842H168.663C168.704 137.842 168.737 137.809 168.737 137.768V106.38C168.737 106.34 168.704 106.307 168.663 106.307Z" fill="white"/>
<path d="M157.681 108.011H149.826C149.804 108.011 149.786 108.03 149.786 108.052V136.096C149.786 136.119 149.804 136.137 149.826 136.137H157.681C157.704 136.137 157.722 136.119 157.722 136.096V108.052C157.722 108.03 157.704 108.011 157.681 108.011Z" fill="#1F4E8D"/>
<path d="M167.206 108.011H159.351C159.328 108.011 159.31 108.03 159.31 108.052V136.096C159.31 136.119 159.328 136.137 159.351 136.137H167.206C167.228 136.137 167.247 136.119 167.247 136.096V108.052C167.247 108.03 167.228 108.011 167.206 108.011Z" fill="#1F4E8D"/>
</g>
<path d="M51.0098 156.592H16.326C16.0377 156.592 15.7613 156.478 15.5575 156.274C15.3536 156.07 15.2391 155.793 15.2391 155.505L15.2391 87.5555H51.0098L51.0098 156.592Z" fill="#93E5FF"/>
<path d="M10.4453 93.5221H52.7139V64.1174L19.4956 62.4134L8.77857 90.9128C8.6489 91.1928 8.5918 91.501 8.61256 91.8089C8.63333 92.1168 8.73128 92.4145 8.89737 92.6745C9.06346 92.9345 9.29235 93.1484 9.56289 93.2966C9.83343 93.4447 10.1369 93.5223 10.4453 93.5221Z" fill="url(#paint1_linear_59_1117)"/>
<path d="M19.4956 62.8391L51.0103 64.5411V61.1318L21.5614 59.4271C21.0135 59.4271 20.4881 59.6449 20.1007 60.0326C19.7133 60.4203 19.4956 60.9461 19.4956 61.4943V62.8391Z" fill="#1B4073"/>
<g opacity="0.89">
<path d="M22.8695 137.842H43.1642C43.2048 137.842 43.2378 137.809 43.2378 137.768L43.2378 106.38C43.2378 106.34 43.2048 106.307 43.1642 106.307H22.8695C22.8288 106.307 22.7958 106.34 22.7958 106.38L22.7958 137.768C22.7958 137.809 22.8288 137.842 22.8695 137.842Z" fill="white"/>
<path d="M33.8518 136.137H41.7068C41.7293 136.137 41.7476 136.119 41.7476 136.096V108.052C41.7476 108.03 41.7293 108.011 41.7068 108.011H33.8518C33.8293 108.011 33.811 108.03 33.811 108.052V136.096C33.811 136.119 33.8293 136.137 33.8518 136.137Z" fill="#1F4E8D"/>
<path d="M24.3279 136.137H32.1829C32.2054 136.137 32.2236 136.119 32.2236 136.096V108.052C32.2236 108.03 32.2054 108.011 32.1829 108.011H24.3279C24.3053 108.011 24.2871 108.03 24.2871 108.052L24.2871 136.096C24.2871 136.119 24.3053 136.137 24.3279 136.137Z" fill="#1F4E8D"/>
</g>
<path d="M145.586 77.9677H46.1851V156.593H145.586V77.9677Z" fill="#65D9FF"/>
<path d="M143.235 39.8273H46.1319L35.3741 76.8197C35.2498 77.2472 35.2207 77.6969 35.2888 78.1369C35.357 78.5769 35.5208 78.9966 35.7686 79.3665L36.8745 81.0251C37.1708 81.4632 37.5703 81.8217 38.0378 82.0689C38.5052 82.316 39.0263 82.4442 39.5551 82.4422H149.494C150.1 82.4458 150.696 82.2769 151.21 81.9552C151.725 81.6336 152.138 81.1723 152.4 80.625L153.464 78.3638C153.778 77.6974 153.84 76.9394 153.637 76.2309L143.235 39.8273Z" fill="url(#paint2_linear_59_1117)"/>
<path d="M143.453 39.8273H45.8711V38.1503C45.8752 37.8414 46.0006 37.5465 46.2202 37.3294C46.4398 37.1122 46.736 36.9902 47.0447 36.9897L142.244 35.5831C142.4 35.5788 142.555 35.6056 142.701 35.6618C142.846 35.718 142.979 35.8025 143.091 35.9105C143.204 36.0184 143.294 36.1477 143.356 36.2907C143.418 36.4338 143.451 36.5877 143.453 36.7437V39.8273Z" fill="#1B4073"/>
<path opacity="0.7" d="M102.577 107.535H84.5121C84.1183 107.535 83.7406 107.378 83.4621 107.099C83.1836 106.821 83.027 106.443 83.0269 106.049V104.75C83.0269 104.374 83.1694 104.012 83.4256 103.737C83.6818 103.462 84.0327 103.294 84.4076 103.268L102.472 102.012C102.675 101.998 102.879 102.026 103.071 102.094C103.263 102.162 103.439 102.269 103.588 102.408C103.737 102.547 103.856 102.715 103.937 102.902C104.019 103.089 104.061 103.291 104.061 103.495V106.049C104.06 106.442 103.904 106.82 103.626 107.099C103.348 107.377 102.971 107.534 102.577 107.535Z" fill="white"/>
<path opacity="0.9" d="M120.767 89.2937H120.57C115.376 89.2937 110.826 92.9741 110.826 98.1755V107.538H120.77L120.767 89.2937Z" fill="#1F4E8D"/>
<path opacity="0.9" d="M110.823 110.299V137.842C110.823 138.769 111.911 140.21 112.838 140.21H120.767V110.299H110.823Z" fill="#1F4E8D"/>
<path opacity="0.9" d="M123.482 89.2937H122.977V107.535H132.92V98.1722C132.92 92.9741 128.678 89.2937 123.482 89.2937Z" fill="#1F4E8D"/>
<path opacity="0.9" d="M122.977 140.207H131.211C132.138 140.207 132.92 138.769 132.92 137.839V110.299H122.977V140.207Z" fill="#1F4E8D"/>
<path opacity="0.9" d="M65.9998 89.2937H65.8026C60.6084 89.2937 56.0586 92.9741 56.0586 98.1755V107.538H66.0024L65.9998 89.2937Z" fill="#1F4E8D"/>
<path opacity="0.9" d="M56.0557 110.299V137.842C56.0557 138.769 57.1438 140.21 58.0709 140.21H65.9995V110.299H56.0557Z" fill="#1F4E8D"/>
<path opacity="0.9" d="M68.7146 89.2937H68.209V107.535H78.1528V98.1722C78.1528 92.9741 73.9101 89.2937 68.7146 89.2937Z" fill="#1F4E8D"/>
<path opacity="0.9" d="M68.209 140.207H76.4434C77.3704 140.207 78.1528 138.769 78.1528 137.839V110.299H68.209V140.207Z" fill="#1F4E8D"/>
<path opacity="0.7" d="M49.3677 44.9966L49.4858 45.0191L49.5972 45.065L49.6978 45.1314L49.7837 45.2164L49.8511 45.316L49.8979 45.4273L49.9224 45.5455L49.9233 45.6666C49.9196 45.7065 49.9114 45.7462 49.8999 45.7847L49.8989 45.7838L41.2212 75.2632C41.1498 75.5059 41.1364 75.7623 41.1812 76.0113C41.2259 76.2601 41.3277 76.4953 41.479 76.6978C41.6303 76.9004 41.8274 77.065 42.0532 77.1783C42.279 77.2915 42.5283 77.35 42.7808 77.3502H73.1694C73.2918 77.3502 73.411 77.3868 73.5112 77.4537L73.605 77.5308L73.6821 77.6246C73.7488 77.7247 73.7846 77.8433 73.7847 77.9654C73.7847 78.0942 73.7432 78.2183 73.6694 78.3218V78.5826H42.7817C42.3373 78.5827 41.8988 78.479 41.5015 78.2799C41.1042 78.0807 40.7586 77.7921 40.4927 77.4361C40.2268 77.0801 40.0476 76.6665 39.9692 76.2291C39.8909 75.7914 39.9156 75.341 40.0415 74.9146L48.7202 45.4351V45.4332C48.7432 45.3559 48.7817 45.2839 48.8325 45.2213L48.9175 45.1353C48.9483 45.1097 48.9817 45.0871 49.0171 45.0679L49.1284 45.0211C49.1668 45.0092 49.2064 45.0008 49.2466 44.9966H49.3677Z" fill="white" stroke="white"/>
<path d="M78.3437 151.361H108.749C108.804 151.361 108.857 151.383 108.896 151.422C108.935 151.461 108.957 151.514 108.957 151.57V156.593H78.1353V151.57C78.1353 151.514 78.1572 151.461 78.1963 151.422C78.2354 151.383 78.2884 151.361 78.3437 151.361Z" fill="#2563B7"/>
<path d="M83.2609 110.299H103.828C103.89 110.299 103.949 110.323 103.993 110.367C104.037 110.411 104.062 110.471 104.062 110.533V151.361H83.0269V110.532C83.027 110.47 83.0518 110.411 83.0956 110.367C83.1395 110.323 83.199 110.299 83.2609 110.299Z" fill="#1F4E8D"/>
<path opacity="0.7" d="M90.6242 140.323H87.4492C86.9401 140.322 86.4521 140.12 86.0922 139.759C85.7323 139.399 85.5298 138.911 85.5293 138.401V114.914C85.5298 114.405 85.7323 113.916 86.0922 113.556C86.4521 113.196 86.9401 112.993 87.4492 112.993H90.6242C91.1332 112.993 91.6212 113.196 91.9811 113.556C92.3411 113.916 92.5435 114.405 92.544 114.914V138.401C92.5435 138.911 92.3411 139.399 91.9811 139.759C91.6212 140.12 91.1332 140.322 90.6242 140.323ZM87.4492 113.227C87.0012 113.227 86.5717 113.405 86.2549 113.722C85.9381 114.039 85.7599 114.469 85.7594 114.917V138.405C85.7601 138.853 85.9384 139.283 86.2551 139.599C86.5719 139.916 87.0013 140.094 87.4492 140.095H90.6242C91.0719 140.094 91.5012 139.916 91.8178 139.599C92.1344 139.282 92.3126 138.853 92.3133 138.405V114.917C92.3127 114.469 92.1346 114.04 91.818 113.723C91.5014 113.406 91.072 113.227 90.6242 113.227H87.4492Z" fill="white"/>
<path opacity="0.7" d="M99.4831 140.323H96.3081C95.799 140.322 95.311 140.12 94.9511 139.759C94.5911 139.399 94.3887 138.911 94.3882 138.401V114.914C94.3887 114.405 94.5911 113.916 94.9511 113.556C95.311 113.196 95.799 112.993 96.3081 112.993H99.4831C99.9921 112.993 100.48 113.196 100.84 113.556C101.2 113.916 101.402 114.405 101.403 114.914V138.401C101.402 138.911 101.2 139.399 100.84 139.759C100.48 140.12 99.9921 140.322 99.4831 140.323ZM96.3081 113.227C95.8602 113.227 95.4309 113.406 95.1142 113.723C94.7976 114.04 94.6195 114.469 94.619 114.917V138.405C94.6197 138.853 94.7978 139.282 95.1145 139.599C95.4311 139.916 95.8603 140.094 96.3081 140.095H99.4831C99.9309 140.094 100.36 139.916 100.677 139.599C100.994 139.283 101.172 138.853 101.173 138.405V114.917C101.172 114.469 100.994 114.039 100.677 113.722C100.361 113.405 99.9311 113.227 99.4831 113.227H96.3081Z" fill="white"/>
<path opacity="0.7" d="M90.6242 148.241H87.4492C86.9401 148.24 86.4521 148.037 86.0922 147.677C85.7323 147.317 85.5298 146.829 85.5293 146.319V143.618C85.5298 143.109 85.7323 142.62 86.0922 142.26C86.4521 141.9 86.9401 141.697 87.4492 141.697H90.6242C91.1332 141.697 91.6212 141.9 91.9811 142.26C92.3411 142.62 92.5435 143.109 92.544 143.618V146.319C92.5435 146.829 92.3411 147.317 91.9811 147.677C91.6212 148.037 91.1332 148.24 90.6242 148.241ZM87.4492 141.925C87.0012 141.925 86.5717 142.103 86.2549 142.42C85.9381 142.737 85.7599 143.167 85.7594 143.615V146.319C85.7601 146.768 85.9384 147.197 86.2551 147.514C86.5719 147.831 87.0013 148.009 87.4492 148.01H90.6242C91.0719 148.009 91.5012 147.831 91.8178 147.514C92.1344 147.197 92.3126 146.767 92.3133 146.319V143.618C92.3127 143.17 92.1346 142.74 91.818 142.423C91.5014 142.106 91.072 141.928 90.6242 141.927L87.4492 141.925Z" fill="white"/>
<path opacity="0.7" d="M99.4831 148.241H96.3081C95.799 148.24 95.311 148.037 94.9511 147.677C94.5911 147.317 94.3887 146.829 94.3882 146.319V143.618C94.3887 143.109 94.5911 142.62 94.9511 142.26C95.311 141.9 95.799 141.697 96.3081 141.697H99.4831C99.9921 141.697 100.48 141.9 100.84 142.26C101.2 142.62 101.402 143.109 101.403 143.618V146.319C101.402 146.829 101.2 147.317 100.84 147.677C100.48 148.037 99.9921 148.24 99.4831 148.241ZM96.3081 141.925C95.8602 141.925 95.4309 142.104 95.1142 142.421C94.7976 142.738 94.6195 143.167 94.619 143.615V146.319C94.6197 146.767 94.7978 147.197 95.1145 147.514C95.4311 147.831 95.8603 148.009 96.3081 148.01H99.4831C99.9309 148.009 100.36 147.831 100.677 147.514C100.994 147.197 101.172 146.768 101.173 146.319V143.618C101.172 143.17 100.994 142.74 100.677 142.423C100.361 142.106 99.9311 141.928 99.4831 141.927L96.3081 141.925Z" fill="white"/>
<path opacity="0.7" d="M133.78 141.927H109.848C109.188 141.927 108.555 141.664 108.088 141.197C107.622 140.73 107.359 140.097 107.358 139.436V97.9676C107.358 91.4095 112.69 86.0745 119.244 86.0745H124.387C130.941 86.0745 136.273 91.4095 136.273 97.9676V139.436C136.272 140.097 136.009 140.731 135.542 141.198C135.074 141.665 134.441 141.927 133.78 141.927ZM119.241 86.3048C112.814 86.3048 107.586 91.5365 107.586 97.9676V139.436C107.586 140.036 107.825 140.61 108.248 141.034C108.671 141.458 109.245 141.696 109.844 141.697H133.777C134.376 141.696 134.95 141.458 135.373 141.034C135.797 140.61 136.035 140.036 136.035 139.436V97.9676C136.035 91.5365 130.807 86.3048 124.381 86.3048H119.241Z" fill="white"/>
<path opacity="0.7" d="M79.0242 141.927H55.0877C54.4278 141.926 53.7953 141.664 53.3287 141.197C52.8622 140.73 52.5998 140.097 52.5991 139.436V97.9676C52.5991 91.4095 57.9307 86.0745 64.4845 86.0745H69.6274C76.1812 86.0745 81.5128 91.4095 81.5128 97.9676V139.436C81.5121 140.097 81.2497 140.73 80.7832 141.197C80.3167 141.664 79.6841 141.926 79.0242 141.927ZM64.4845 86.3048C58.0576 86.3048 52.8292 91.5365 52.8292 97.9676V139.436C52.8298 140.036 53.0679 140.61 53.4913 141.034C53.9147 141.458 54.4888 141.696 55.0877 141.697H79.0242C79.6231 141.696 80.1973 141.458 80.6207 141.034C81.0441 140.61 81.2822 140.036 81.2827 139.436V97.9676C81.2827 91.5365 76.0543 86.3048 69.6274 86.3048H64.4845Z" fill="white"/>
<path opacity="0.7" d="M117.971 43.65C123.837 43.6594 130.963 43.7075 136.27 43.7496L136.269 43.7506C137.197 43.7552 138.099 44.0564 138.842 44.6129C139.585 45.1693 140.129 45.9501 140.395 46.8394L147.144 69.1607C147.172 69.253 147.18 69.3508 147.164 69.4459C147.152 69.5174 147.128 69.5863 147.092 69.649L147.053 69.7096C146.995 69.7874 146.919 69.8508 146.833 69.8941C146.747 69.9373 146.651 69.9591 146.555 69.9586L146.058 69.9566V69.6988C146.019 69.6447 145.988 69.5845 145.969 69.5201V69.5191L139.217 47.193L139.216 47.192C139.026 46.5545 138.636 45.995 138.104 45.5963C137.571 45.1975 136.925 44.9804 136.261 44.9771H136.259C127.422 44.9074 120.3 44.8737 115.33 44.8765C112.845 44.878 110.9 44.8887 109.549 44.9078C108.873 44.9174 108.348 44.9292 107.98 44.943C107.796 44.9499 107.655 44.957 107.556 44.9644C107.506 44.9682 107.471 44.9714 107.448 44.9742C107.415 44.9784 107.433 44.9787 107.468 44.9674L107.467 44.9664C107.321 45.0139 107.163 45.0065 107.022 44.9439C106.881 44.8805 106.768 44.7661 106.707 44.6236L106.701 44.6099C106.642 44.4602 106.644 44.2931 106.707 44.1451L106.765 44.0406C106.832 43.9421 106.926 43.8649 107.038 43.8189L107.037 43.818C107.125 43.7819 107.224 43.7695 107.266 43.7642C107.329 43.7562 107.406 43.7497 107.492 43.7437C107.665 43.7317 107.897 43.7217 108.18 43.7125C108.747 43.6941 109.536 43.6795 110.496 43.6695C112.418 43.6495 115.038 43.6453 117.971 43.65Z" fill="white" stroke="white"/>
</g>
<defs>
<linearGradient id="paint0_linear_59_1117" x1="170.651" y1="62.4358" x2="115.573" y2="137.535" gradientUnits="userSpaceOnUse">
<stop offset="0.115155" stop-color="#1F4E8D"/>
<stop offset="1" stop-color="#35C0ED"/>
</linearGradient>
<linearGradient id="paint1_linear_59_1117" x1="21.2037" y1="83.9495" x2="110.957" y2="20.1537" gradientUnits="userSpaceOnUse">
<stop stop-color="#1F4E8D"/>
<stop offset="1" stop-color="#35C0ED"/>
</linearGradient>
<linearGradient id="paint2_linear_59_1117" x1="107.401" y1="40.7418" x2="148.275" y2="-57.8256" gradientUnits="userSpaceOnUse">
<stop stop-color="#1F4E8D"/>
<stop offset="1" stop-color="#35C0ED"/>
</linearGradient>
<clipPath id="clip0_59_1117">
<rect width="184" height="184" fill="white"/>
</clipPath>
</defs>
</svg>
