
<svg width="205" height="205" viewBox="0 0 205 205" fill="none" xmlns="http://www.w3.org/2000/svg">
<mask id="mask0_3238_24712" style="mask-type:luminance" maskUnits="userSpaceOnUse" x="0" y="0" width="205" height="205">
<path d="M205 0H0V205H205V0Z" fill="white"/>
</mask>
<g mask="url(#mask0_3238_24712)">
<g style="mix-blend-mode:multiply" opacity="0.2">
<path d="M133.945 94.8371L136.988 93.0799C138.064 92.4584 138.849 91.435 139.171 90.2349C139.492 89.0347 139.324 87.756 138.702 86.68C138.081 85.6043 137.058 84.8193 135.858 84.4977C134.658 84.176 133.38 84.3441 132.304 84.9648L129.26 86.722C128.184 87.3435 127.399 88.3668 127.078 89.567C126.756 90.7671 126.924 92.0458 127.546 93.1219C128.167 94.1979 129.19 94.983 130.39 95.3047C131.591 95.6263 132.869 95.4581 133.945 94.8371Z" fill="#212529"/>
<path d="M138.702 100.106C138.081 99.0301 137.058 98.2451 135.858 97.9234C134.658 97.6018 133.379 97.7699 132.303 98.3906L129.259 100.148C128.184 100.769 127.399 101.792 127.078 102.992C126.756 104.192 126.924 105.471 127.545 106.547C128.166 107.623 129.19 108.408 130.39 108.73C131.59 109.051 132.869 108.883 133.945 108.262L136.988 106.505C138.063 105.883 138.848 104.86 139.17 103.66C139.491 102.46 139.323 101.182 138.702 100.106Z" fill="#212529"/>
<path d="M138.703 111.783C138.082 110.707 137.059 109.923 135.859 109.601C134.659 109.28 133.38 109.448 132.304 110.069L129.261 111.826C128.815 112.084 128.416 112.414 128.077 112.802L120.138 117.282L108.095 97.8449L137.252 75.0147C138.165 74.3001 138.768 73.262 138.938 72.115C139.107 70.9681 138.829 69.7999 138.161 68.8519C137.494 67.904 136.488 67.2488 135.351 67.0217C134.214 66.7946 133.033 67.013 132.053 67.6318L79.0971 101.041L77.177 87.2415L77.1545 87.0755L81.931 75.4384C82.3055 74.5366 82.5138 73.5745 82.546 72.5986C82.5519 72.3956 82.5509 72.1925 82.546 71.9914C82.5402 71.8567 82.5304 71.722 82.5177 71.5892C82.4669 71.0571 82.3636 70.5313 82.2093 70.0195C82.1712 69.8917 82.1292 69.7657 82.0853 69.6408C81.9965 69.3902 81.8951 69.1442 81.7817 68.9038C81.5845 68.4818 81.3509 68.0777 81.0837 67.6962C81.0076 67.5869 80.9285 67.4785 80.8465 67.3731C80.1553 66.4809 79.2846 65.7437 78.2908 65.2089L78.1132 65.1161C78.0517 65.0849 77.9902 65.0546 77.9277 65.0253L77.8545 64.9902C77.6626 64.8717 77.453 64.7847 77.2336 64.7325C76.3365 64.5099 74.2152 68.1111 72.7431 71.067L66.9729 79.2035L65.2616 81.6157L65.2401 81.646L59.8984 98.7137L56.7951 125.461L53.2808 128.745L49.9969 125.461L43.6517 131.807L41.7823 129.936L22.4023 148.868L51.444 181.473L44.8546 152.24L70.9294 175.987L79.3861 167.531L77.5157 165.661L81.9886 161.188L83.8561 159.319L79.0727 154.536L79.0464 154.509L80.8475 152.24L105.093 141.193L133.037 120.345C133.355 120.244 133.662 120.108 133.951 119.941L136.994 118.184C138.07 117.562 138.855 116.539 139.176 115.339C139.498 114.139 139.329 112.86 138.708 111.784L138.703 111.783Z" fill="#212529"/>
</g>
<path d="M54.8391 123.511L57.9424 96.7634L63.2763 79.6947L75.2718 62.7812C76.2966 63.1582 77.2349 63.7378 78.0306 64.4856C78.8262 65.2334 79.463 66.134 79.9027 67.1335C80.3423 68.133 80.576 69.2109 80.5896 70.3027C80.6032 71.3946 80.3965 72.478 79.9819 73.4881L75.2054 85.1233L77.1451 99.0887L130.1 65.6796C131.107 65.0449 132.323 64.8324 133.484 65.0882C134.646 65.3441 135.66 66.0476 136.307 67.0462C136.921 67.9938 137.157 69.1366 136.971 70.2499C136.785 71.3632 136.188 72.3665 135.3 73.0625L106.143 95.8887L118.186 115.326L128.622 109.437L133.186 116.82L103.136 139.239L78.8905 150.287L67.6409 164.458L40.0977 137.304L54.8391 123.511Z" fill="#EFCFB3"/>
<path d="M75.014 70.4854C75.014 70.4854 78.8026 63.6521 75.2717 62.7794C74.3746 62.5568 72.2533 66.158 70.7812 69.1139L75.014 70.4854Z" fill="#F5E0CD"/>
<path d="M81.9033 157.368L48.0469 123.512L41.6619 129.897L75.5183 163.753L81.9033 157.368Z" fill="white"/>
<path d="M77.429 165.579L39.832 127.982L16.9552 150.859L54.5522 188.456L77.429 165.579Z" fill="#0B2952"/>
<path d="M81.9 157.367L75.5597 163.709L75.5148 163.753L72.5999 160.838L70.7305 158.967L70.7744 158.923L77.1148 152.582L81.9 157.367Z" fill="#E5E5E5"/>
<path d="M72.6461 160.795L77.4304 165.58L54.8124 188.698L49.3945 183.28L72.6012 160.839" fill="#1F4E8D"/>
<path d="M70.7747 158.925L70.7305 158.969L72.6004 160.839L72.6446 160.795L70.7747 158.925Z" fill="black"/>
<path d="M80.4961 123.511L120.641 126.179L133.185 116.82L128.621 109.438L118.185 115.326L80.4961 123.511Z" fill="#DFB28B"/>
<path d="M77.1445 99.089L80.4958 123.511V96.9863L77.1445 99.089Z" fill="#DFB28B"/>
<g style="mix-blend-mode:multiply" opacity="0.2">
<path d="M121.965 31.1445H86.6218C81.927 31.1445 78.1211 34.9504 78.1211 39.6452V118.347C78.1211 123.041 81.927 126.847 86.6218 126.847H121.965C126.66 126.847 130.465 123.041 130.465 118.347V39.6452C130.465 34.9504 126.66 31.1445 121.965 31.1445Z" fill="#212529"/>
</g>
<path d="M120.988 30.1699H85.6452C80.9504 30.1699 77.1445 33.9758 77.1445 38.6706V117.372C77.1445 122.067 80.9504 125.873 85.6452 125.873H120.988C125.683 125.873 129.489 122.067 129.489 117.372V38.6706C129.489 33.9758 125.683 30.1699 120.988 30.1699Z" fill="#1F4E8D"/>
<path d="M126.953 117.656V38.3865C126.953 35.2487 124.409 32.7051 121.272 32.7051H85.3596C82.2218 32.7051 79.6782 35.2487 79.6782 38.3865V117.656C79.6782 120.794 82.2218 123.338 85.3596 123.338H121.272C124.409 123.338 126.953 120.794 126.953 117.656Z" fill="white"/>
<path d="M136.751 84.7299C137.372 85.806 137.541 87.0847 137.219 88.2848C136.898 89.485 136.113 90.5083 135.037 91.1298L131.994 92.887C130.918 93.5074 129.64 93.6753 128.44 93.3537C127.241 93.0321 126.218 92.2473 125.596 91.1718C124.975 90.0958 124.807 88.8171 125.128 87.6169C125.45 86.4168 126.235 85.3934 127.311 84.7719L130.354 83.0148C131.43 82.3946 132.708 82.2269 133.908 82.5485C135.107 82.8701 136.13 83.6547 136.751 84.7299Z" fill="#EFCFB3"/>
<path d="M128.256 85.4785C129.537 86.4859 131.388 89.6976 131.673 91.404C131.148 91.9302 127.992 93.8445 126.167 90.6865C124.119 87.138 128.256 85.4785 128.256 85.4785Z" fill="#F5E0CD"/>
<path d="M136.753 98.1546C137.374 99.2306 137.542 100.509 137.22 101.709C136.899 102.909 136.114 103.932 135.039 104.554L131.996 106.311C130.92 106.932 129.641 107.1 128.441 106.778C127.241 106.457 126.217 105.672 125.596 104.596C124.975 103.52 124.807 102.241 125.128 101.041C125.45 99.8413 126.235 98.8181 127.31 98.1966L130.354 96.4394C131.43 95.8187 132.709 95.6506 133.908 95.9723C135.108 96.2939 136.131 97.0789 136.753 98.1546Z" fill="#EFCFB3"/>
<path d="M128.647 98.832C129.929 99.8404 131.78 103.052 132.064 104.758C131.539 105.285 128.383 107.198 126.557 104.04C124.51 100.492 128.647 98.832 128.647 98.832Z" fill="#F5E0CD"/>
<path d="M136.753 109.83C137.374 110.906 137.543 112.185 137.221 113.385C136.9 114.585 136.115 115.609 135.039 116.23L131.996 117.987C130.92 118.609 129.641 118.777 128.441 118.455C127.241 118.133 126.218 117.348 125.596 116.272C124.975 115.196 124.807 113.918 125.128 112.717C125.45 111.517 126.235 110.494 127.311 109.872L130.354 108.115C131.43 107.494 132.709 107.326 133.909 107.648C135.109 107.97 136.132 108.755 136.753 109.83Z" fill="#EFCFB3"/>
<path d="M128.647 110.551C129.929 111.558 131.78 114.77 132.064 116.476C131.539 117.002 128.383 118.917 126.557 115.759C124.51 112.21 128.647 110.551 128.647 110.551Z" fill="#F5E0CD"/>
<path d="M75.2044 85.1233L79.9809 73.4862C80.3956 72.476 80.6023 71.3926 80.5886 70.3008C80.575 69.2089 80.3414 68.131 79.9017 67.1315C79.462 66.1321 78.8253 65.2315 78.0296 64.4837C77.2339 63.7359 76.2956 63.1562 75.2708 62.7793L63.2969 79.6674L75.2396 85.3791L75.2044 85.1233Z" fill="#EFCFB3"/>
<path d="M75.014 70.4854C75.014 70.4854 78.8026 63.6521 75.2717 62.7794C74.3746 62.5568 72.2533 66.158 70.7812 69.1139L75.014 70.4854Z" fill="#F5E0CD"/>
<g style="mix-blend-mode:multiply" opacity="0.2">
<path d="M205.597 177.879L203.227 179.114L196.069 168.837C194.304 169.725 192.556 170.644 190.826 171.594L186.106 164.817L179.363 143.101L162.106 119.998C161.414 119.082 160.4 118.463 159.269 118.266C158.138 118.068 156.974 118.307 156.012 118.934C155.051 119.562 154.363 120.53 154.087 121.645C153.812 122.759 153.969 123.937 154.528 124.94L155.992 127.575L151.014 121.868C150.102 121.001 148.914 120.482 147.659 120.404C146.403 120.326 145.16 120.693 144.149 121.441C143.137 122.189 142.421 123.269 142.127 124.492C141.833 125.715 141.979 127.003 142.541 128.129L144.955 132.968L140.002 127.553C139.161 126.636 138.017 126.053 136.78 125.914C135.543 125.775 134.297 126.089 133.274 126.796L133.262 126.805C132.26 127.503 131.539 128.534 131.227 129.714C130.915 130.894 131.032 132.147 131.558 133.248L134.538 139.485L109.779 109.831C108.996 108.9 107.886 108.306 106.678 108.172C105.469 108.037 104.255 108.373 103.287 109.108C102.319 109.844 101.672 110.924 101.478 112.125C101.285 113.325 101.561 114.554 102.248 115.557C109.985 126.783 133.096 160.289 134.132 161.789C132.516 161.661 128.679 161.187 126.434 160.383H126.429C126.015 160.248 125.619 160.063 125.25 159.831C123.711 158.801 118.557 155.547 114.34 152.9C112.674 151.856 110.69 151.441 108.746 151.729C106.801 152.017 105.022 152.989 103.73 154.47C103.585 154.637 103.462 154.821 103.363 155.019C103.156 155.197 102.981 155.408 102.846 155.645C102.075 156.97 104.669 159 108.136 161.71L125.479 176.646C129.549 180.043 134.435 182.32 139.654 183.252L157.54 186.683L161.318 192.106C159.756 193.461 158.215 194.846 156.695 196.259L163.858 206.534L161.878 208.328L216.669 286.993L260.388 256.541L205.597 177.879Z" fill="#212529"/>
</g>
<path d="M178.189 148.129L183.371 164.822L190.819 175.516L161.338 196.054L154.813 186.688L136.919 183.252C131.698 182.32 126.812 180.042 122.741 176.643L101.257 158.144C100.998 157.921 100.785 157.648 100.631 157.343C100.477 157.037 100.385 156.704 100.361 156.362C100.336 156.021 100.379 155.678 100.488 155.353C100.596 155.029 100.768 154.729 100.993 154.47C102.285 152.987 104.065 152.014 106.011 151.726C107.958 151.438 109.943 151.854 111.61 152.9C115.827 155.549 120.981 158.803 122.52 159.831C122.889 160.063 123.285 160.248 123.699 160.383H123.704C125.949 161.187 129.786 161.661 131.401 161.789C130.364 160.289 107.254 126.779 99.5178 115.557C98.8301 114.554 98.5544 113.325 98.7478 112.125C98.9413 110.924 99.589 109.844 100.557 109.108C101.525 108.373 102.739 108.037 103.947 108.172C105.155 108.306 106.266 108.9 107.048 109.831L131.807 139.485L128.828 133.248C128.302 132.147 128.185 130.894 128.497 129.714C128.809 128.534 129.53 127.503 130.531 126.805L130.543 126.796C131.567 126.089 132.812 125.775 134.049 125.914C135.286 126.053 136.431 126.636 137.272 127.553L142.224 132.968L139.81 128.129C139.249 127.003 139.102 125.715 139.396 124.492C139.691 123.269 140.406 122.189 141.418 121.441C142.43 120.693 143.673 120.326 144.928 120.404C146.184 120.482 147.372 121.001 148.283 121.868L153.262 127.575L151.798 124.94C151.239 123.937 151.081 122.759 151.357 121.645C151.632 120.53 152.32 119.562 153.282 118.934C154.244 118.307 155.407 118.068 156.538 118.266C157.669 118.463 158.683 119.082 159.376 119.998L173.477 138.884C175.562 141.675 177.156 144.802 178.189 148.129Z" fill="#EFCFB3"/>
<path d="M131.408 161.79L133.854 165.305L123.711 160.389C125.955 161.188 129.796 161.663 131.408 161.79Z" fill="#DFB28B"/>
<path d="M107.394 112.94C106.777 114.451 104.034 116.526 102.335 116.775C101.597 116.098 98.4768 112.103 101.17 110.056C104.198 107.755 107.394 112.94 107.394 112.94Z" fill="#F5E0CD"/>
<path d="M100.117 155.644C99.3449 156.971 101.945 159.003 105.416 161.716C106.241 160.935 108.186 157.567 108.218 156.388C108.219 156.388 101.939 152.489 100.117 155.644Z" fill="#F5E0CD"/>
<path d="M200.584 179.243L161.213 206.665L153.965 196.258C165.723 185.298 178.979 176.065 193.335 168.836L200.584 179.243Z" fill="white"/>
<path d="M257.655 256.543L213.936 286.996L159.145 208.33L162.877 204.948C173.611 195.218 185.548 186.903 198.396 180.207L202.863 177.879L257.655 256.543Z" fill="#0B2952"/>
<path d="M95.3203 73.172L97.2414 71.2499L100.63 74.6383L109.391 65.877L111.312 67.7981L100.63 78.4815L95.3203 73.172Z" fill="white"/>
<path fill-rule="evenodd" clip-rule="evenodd" d="M101.895 78.5313L104.725 80.4663L107.453 78.5843L113.568 84.6173C113.406 84.6699 113.236 84.6966 113.056 84.6973H96.3897C96.1697 84.6973 95.9597 84.6543 95.7667 84.5773L101.895 78.5313ZM114.723 73.5733V83.0303C114.723 83.2773 114.669 83.5113 114.573 83.7223L108.579 77.8083L114.723 73.5733ZM94.7227 73.6263L100.765 77.7583L94.8287 83.6163C94.7591 83.4287 94.7232 83.2303 94.7227 83.0303V73.6263ZM113.056 69.6973C113.976 69.6973 114.723 70.4433 114.723 71.3643V71.9503L104.721 78.8453L94.7227 72.0073V71.3643C94.7227 70.4443 95.4687 69.6973 96.3897 69.6973H113.056Z" fill="#35C0ED"/>
<path d="M90.0352 90.0039H91.189L93.159 95.3837L95.1289 90.0039H96.2828L93.7915 96.5785H92.5469L90.0352 90.0039Z" fill="#35C0ED"/>
<path d="M96.7849 96.0276C96.3293 95.6059 96.1016 94.973 96.1016 94.1289C96.1016 93.3324 96.3023 92.7141 96.7039 92.2742C97.1054 91.8342 97.7009 91.6146 98.4903 91.6152C99.2062 91.6152 99.7541 91.8023 100.134 92.1765C100.514 92.5508 100.704 93.0535 100.704 93.6848V94.5829H97.1627C97.2167 95.0456 97.3833 95.3671 97.6625 95.5473C97.9417 95.7276 98.3806 95.8177 98.9794 95.8177C99.2313 95.8172 99.4826 95.7934 99.7301 95.7465C99.9613 95.7059 100.188 95.6445 100.409 95.563V96.38C99.9803 96.5701 99.4291 96.6654 98.7548 96.6661C97.8977 96.6647 97.2411 96.4519 96.7849 96.0276ZM99.7242 93.8536V93.5159C99.7242 93.1697 99.6292 92.9061 99.4392 92.7252C99.2439 92.5446 98.9423 92.4548 98.5196 92.4548C98.0159 92.4548 97.6638 92.5638 97.4633 92.7818C97.2629 92.9998 97.1627 93.3577 97.1627 93.8556L99.7242 93.8536Z" fill="#35C0ED"/>
<path d="M101.785 91.7236H102.806L102.867 92.2849C103.128 92.1207 103.405 91.984 103.694 91.8769C104 91.7577 104.319 91.6719 104.643 91.6211V92.4684C104.322 92.5309 104.004 92.6147 103.694 92.7193C103.415 92.8039 103.148 92.9219 102.898 93.0707V96.5626H101.785V91.7236Z" fill="#35C0ED"/>
<path d="M106.266 92.5702H105.531L105.629 91.7229H107.375V96.5619H106.266V92.5702ZM106.175 89.793H107.389V90.7125H106.175V89.793Z" fill="#35C0ED"/>
<path d="M108.974 92.5907H108.27V91.7228H108.974V91.1303C108.974 90.6402 109.112 90.2498 109.388 89.9589C109.664 89.668 110.061 89.5215 110.577 89.5196C110.915 89.5178 111.25 89.5766 111.567 89.6933V90.4889C111.361 90.4151 111.143 90.3772 110.924 90.3767C110.605 90.3767 110.383 90.4333 110.261 90.5455C110.139 90.6578 110.076 90.854 110.076 91.141V91.7267H111.346L111.295 92.5946H110.076V96.5657H108.974V92.5907Z" fill="#35C0ED"/>
<path d="M111.74 98.2163V97.3894C111.941 97.4577 112.151 97.4907 112.363 97.4871C112.535 97.4934 112.706 97.46 112.863 97.3894C112.999 97.3192 113.115 97.2158 113.2 97.0888C113.326 96.899 113.438 96.701 113.537 96.4962L111.383 91.7188H112.537L114.088 95.3121L115.66 91.7188H116.804L114.834 96.2824C114.541 96.9762 114.236 97.4949 113.92 97.8385C113.763 98.0088 113.57 98.1431 113.356 98.232C113.142 98.321 112.911 98.3626 112.679 98.3539C112.361 98.3634 112.043 98.3168 111.74 98.2163Z" fill="#35C0ED"/>
</g>
</svg>
