
<svg width="113" height="203" viewBox="0 0 113 203" fill="none" xmlns="http://www.w3.org/2000/svg">
<path d="M111.597 5.18115H0.59668V202.067H111.597V5.18115Z" fill="url(#paint0_linear_59_1626)"/>
<path d="M111.597 5.18115H0.59668V19.2444H111.597V5.18115Z" fill="#1F4E8D"/>
<path d="M24.7423 124.015H11.0977V149.574H24.7423V124.015Z" fill="#0B2952"/>
<path d="M23.9345 125.234H11.9102V148.568H23.9345V125.234Z" fill="#A8E8FD"/>
<path d="M18.2717 124.509H17.4121V149.235H18.2717V124.509Z" fill="#0B2952"/>
<path d="M24.114 136.26H11.7109V137.048H24.114V136.26Z" fill="#0B2952"/>
<path d="M24.114 130.392H11.7109V130.84H24.114V130.392Z" fill="#0B2952"/>
<path d="M24.114 142.923H11.7109V143.37H24.114V142.923Z" fill="#0B2952"/>
<path d="M24.741 149.655H11.3564V150.391H24.741V149.655Z" fill="#A8E8FD"/>
<path d="M24.2638 171.693H10.6191V197.253H24.2638V171.693Z" fill="#0B2952"/>
<path d="M23.4511 172.917H11.4268V196.251H23.4511V172.917Z" fill="#A8E8FD"/>
<path d="M17.7932 172.188H16.9336V196.913H17.7932V172.188Z" fill="#0B2952"/>
<path d="M23.6354 183.939H11.2324V184.726H23.6354V183.939Z" fill="#0B2952"/>
<path d="M23.6354 178.071H11.2324V178.518H23.6354V178.071Z" fill="#0B2952"/>
<path d="M23.6354 190.601H11.2324V191.048H23.6354V190.601Z" fill="#0B2952"/>
<path d="M24.2625 197.333H10.8779V198.069H24.2625V197.333Z" fill="#A8E8FD"/>
<path d="M102.276 171.384H88.6309V196.943H102.276V171.384Z" fill="#0B2952"/>
<path d="M101.463 172.607H89.4385V195.942H101.463V172.607Z" fill="#A8E8FD"/>
<path d="M95.8049 171.878H94.9453V196.604H95.8049V171.878Z" fill="#0B2952"/>
<path d="M101.647 183.629H89.2441V184.417H101.647V183.629Z" fill="#0B2952"/>
<path d="M101.647 177.761H89.2441V178.209H101.647V177.761Z" fill="#0B2952"/>
<path d="M101.647 190.291H89.2441V190.739H101.647V190.291Z" fill="#0B2952"/>
<path d="M102.274 197.023H88.8896V197.76H102.274V197.023Z" fill="#A8E8FD"/>
<path d="M64.0002 122.801H50.3555V148.361H64.0002V122.801Z" fill="#0B2952"/>
<path d="M63.1924 124.02H51.168V147.354H63.1924V124.02Z" fill="#A8E8FD"/>
<path d="M57.5295 123.296H56.6699V148.021H57.5295V123.296Z" fill="#0B2952"/>
<path d="M63.3718 135.047H50.9688V135.834H63.3718V135.047Z" fill="#0B2952"/>
<path d="M63.3718 129.179H50.9688V129.626H63.3718V129.179Z" fill="#0B2952"/>
<path d="M63.3718 141.709H50.9688V142.156H63.3718V141.709Z" fill="#0B2952"/>
<path d="M63.9988 148.441H50.6143V149.177H63.9988V148.441Z" fill="#A8E8FD"/>
<path d="M103.552 124.08H89.9072V149.639H103.552V124.08Z" fill="#0B2952"/>
<path d="M102.744 125.298H90.7197V148.633H102.744V125.298Z" fill="#A8E8FD"/>
<path d="M97.0813 124.574H96.2217V149.3H97.0813V124.574Z" fill="#0B2952"/>
<path d="M102.924 136.325H90.5205V137.113H102.924V136.325Z" fill="#0B2952"/>
<path d="M102.924 130.457H90.5205V130.905H102.924V130.457Z" fill="#0B2952"/>
<path d="M102.924 142.987H90.5205V143.435H102.924V142.987Z" fill="#0B2952"/>
<path d="M103.551 149.719H90.166V150.456H103.551V149.719Z" fill="#A8E8FD"/>
<path d="M25.999 51.2292H11.999V27.009C16.7281 22.9936 21.746 23.0026 25.999 27.009V51.2292Z" fill="#0B2952"/>
<path d="M25.1647 50.2784H12.8281V28.1665C16.6757 24.3653 21.4129 24.4978 25.1647 28.1665V50.2784Z" fill="#A8E8FD"/>
<path d="M19.3552 25.0404H18.4736V50.9101H19.3552V25.0404Z" fill="#0B2952"/>
<path d="M25.3558 38.2046H12.6299V38.9511H25.3558V38.2046Z" fill="#0B2952"/>
<path d="M25.3558 32.2389H12.6299V32.6634H25.3558V32.2389Z" fill="#0B2952"/>
<path d="M25.3558 44.7231H12.6299V45.1476H25.3558V44.7231Z" fill="#0B2952"/>
<path d="M25.997 51.303H12.2646V52.0008H25.997V51.303Z" fill="#A8E8FD"/>
<path d="M62.999 51.2292H48.999V27.009C53.7281 22.9936 58.746 23.0026 62.999 27.009V51.2292Z" fill="#0B2952"/>
<path d="M62.1647 50.2784H49.8281V28.1665C53.6757 24.3653 58.4129 24.4978 62.1647 28.1665V50.2784Z" fill="#A8E8FD"/>
<path d="M56.3552 25.0404H55.4736V50.9101H56.3552V25.0404Z" fill="#0B2952"/>
<path d="M62.3558 38.2046H49.6299V38.9511H62.3558V38.2046Z" fill="#0B2952"/>
<path d="M62.3558 32.2389H49.6299V32.6634H62.3558V32.2389Z" fill="#0B2952"/>
<path d="M62.3558 44.7231H49.6299V45.1476H62.3558V44.7231Z" fill="#0B2952"/>
<path d="M62.997 51.303H49.2646V52.0008H62.997V51.303Z" fill="#A8E8FD"/>
<path d="M103.999 51.2292H89.999V27.009C94.7281 22.9936 99.746 23.0026 103.999 27.009V51.2292Z" fill="#0B2952"/>
<path d="M103.165 50.2784H90.8281V28.1665C94.6757 24.3653 99.4129 24.4978 103.165 28.1665V50.2784Z" fill="#A8E8FD"/>
<path d="M97.3552 25.0404H96.4736V50.9101H97.3552V25.0404Z" fill="#0B2952"/>
<path d="M103.356 38.2046H90.6299V38.9511H103.356V38.2046Z" fill="#0B2952"/>
<path d="M103.356 32.2389H90.6299V32.6634H103.356V32.2389Z" fill="#0B2952"/>
<path d="M103.356 44.7231H90.6299V45.1476H103.356V44.7231Z" fill="#0B2952"/>
<path d="M103.997 51.303H90.2646V52.0008H103.997V51.303Z" fill="#A8E8FD"/>
<path d="M65.9912 160.001H45.999V200.613H65.9912V160.001Z" fill="#0B2952"/>
<path d="M55.3232 161.433H46.8916V168.095H55.3232V161.433Z" fill="#CEF3FF"/>
<path d="M64.6816 161.433H56.8936V168.095H64.6816V161.433Z" fill="#CEF3FF"/>
<path d="M64.6828 168.956H46.8916V199.899H64.6828V168.956Z" fill="#1F4E8D"/>
<path d="M60.7862 172.632H50.8184V187.364H60.7862V172.632Z" fill="#0B2952"/>
<path d="M60.1466 173.22H51.4648V186.919H60.1466V173.22Z" fill="#CEF3FF"/>
<path d="M56.2879 172.894H55.6807V187.219H56.2879V172.894Z" fill="#0B2952"/>
<path d="M60.575 176.907H51.1074V177.516H60.575V176.907Z" fill="#0B2952"/>
<path d="M60.5369 182.138H51.0693V182.747H60.5369V182.138Z" fill="#0B2952"/>
<path d="M63.7257 75.8022H50.0811V101.361H63.7257V75.8022Z" fill="#0B2952"/>
<path d="M62.9179 77.0208H50.8936V100.355H62.9179V77.0208Z" fill="#A8E8FD"/>
<path d="M57.2551 76.2967H56.3955V101.022H57.2551V76.2967Z" fill="#0B2952"/>
<path d="M63.0974 88.0477H50.6943V88.8353H63.0974V88.0477Z" fill="#0B2952"/>
<path d="M63.0974 82.1797H50.6943V82.6272H63.0974V82.1797Z" fill="#0B2952"/>
<path d="M63.0974 94.7098H50.6943V95.1573H63.0974V94.7098Z" fill="#0B2952"/>
<path d="M63.7244 101.442H50.3398V102.178H63.7244V101.442Z" fill="#A8E8FD"/>
<path d="M103.552 74.2191H89.9072V99.7784H103.552V74.2191Z" fill="#0B2952"/>
<path d="M102.744 75.4377H90.7197V98.7722H102.744V75.4377Z" fill="#A8E8FD"/>
<path d="M97.0813 74.7135H96.2217V99.4391H97.0813V74.7135Z" fill="#0B2952"/>
<path d="M102.924 86.4646H90.5205V87.2522H102.924V86.4646Z" fill="#0B2952"/>
<path d="M102.924 80.5965H90.5205V81.0441H102.924V80.5965Z" fill="#0B2952"/>
<path d="M102.924 93.1267H90.5205V93.5742H102.924V93.1267Z" fill="#0B2952"/>
<path d="M103.551 99.8587H90.166V100.595H103.551V99.8587Z" fill="#A8E8FD"/>
<path d="M24.7423 75.8022H11.0977V101.361H24.7423V75.8022Z" fill="#0B2952"/>
<path d="M23.9345 77.0208H11.9102V100.355H23.9345V77.0208Z" fill="#A8E8FD"/>
<path d="M18.2717 76.2967H17.4121V101.022H18.2717V76.2967Z" fill="#0B2952"/>
<path d="M24.114 88.0477H11.7109V88.8353H24.114V88.0477Z" fill="#0B2952"/>
<path d="M24.114 82.1797H11.7109V82.6272H24.114V82.1797Z" fill="#0B2952"/>
<path d="M24.114 94.7098H11.7109V95.1573H24.114V94.7098Z" fill="#0B2952"/>
<path d="M24.741 101.442H11.3564V102.178H24.741V101.442Z" fill="#A8E8FD"/>
<path d="M111.999 56.0008H-0.000976562V59.0008H111.999V56.0008Z" fill="#0B2952"/>
<path d="M111.999 12.0008H-0.000976562V15.0008H111.999V12.0008Z" fill="#285EA8"/>
<path d="M112.999 6.00082H0.999023V9.00082H112.999V6.00082Z" fill="#285EA8"/>
<path d="M111.999 112.001H-0.000976562V115.001H111.999V112.001Z" fill="#0B2952"/>
<defs>
<linearGradient id="paint0_linear_59_1626" x1="310.216" y1="106.656" x2="-84.9207" y2="100.459" gradientUnits="userSpaceOnUse">
<stop stop-color="#3ACFFF"/>
<stop offset="0.956731" stop-color="#7EE0FF"/>
</linearGradient>
</defs>
</svg>
