
<svg width="112" height="202" viewBox="0 0 112 202" fill="none" xmlns="http://www.w3.org/2000/svg">
<path d="M111.5 5.11392H0.5V202H111.5V5.11392Z" fill="url(#paint0_linear_59_1180)"/>
<path d="M111.5 5.11392H0.5V19.1772H111.5V5.11392Z" fill="#1F4E8D"/>
<path d="M24.6457 123.948H11.001V149.507H24.6457V123.948Z" fill="#0B2952"/>
<path d="M23.8379 125.166H11.8135V148.501H23.8379V125.166Z" fill="#A8E8FD"/>
<path d="M18.175 124.442H17.3154V149.168H18.175V124.442Z" fill="#0B2952"/>
<path d="M24.0173 136.193H11.6143V136.981H24.0173V136.193Z" fill="#0B2952"/>
<path d="M24.0173 130.325H11.6143V130.773H24.0173V130.325Z" fill="#0B2952"/>
<path d="M24.0173 142.855H11.6143V143.303H24.0173V142.855Z" fill="#0B2952"/>
<path d="M24.6443 149.587H11.2598V150.324H24.6443V149.587Z" fill="#A8E8FD"/>
<path d="M24.1672 171.626H10.5225V197.185H24.1672V171.626Z" fill="#0B2952"/>
<path d="M23.3545 172.85H11.3301V196.184H23.3545V172.85Z" fill="#A8E8FD"/>
<path d="M17.6965 172.12H16.8369V196.846H17.6965V172.12Z" fill="#0B2952"/>
<path d="M23.5388 183.872H11.1357V184.659H23.5388V183.872Z" fill="#0B2952"/>
<path d="M23.5388 178.004H11.1357V178.451H23.5388V178.004Z" fill="#0B2952"/>
<path d="M23.5388 190.534H11.1357V190.981H23.5388V190.534Z" fill="#0B2952"/>
<path d="M24.1658 197.266H10.7812V198.002H24.1658V197.266Z" fill="#A8E8FD"/>
<path d="M102.179 171.316H88.5342V196.876H102.179V171.316Z" fill="#0B2952"/>
<path d="M101.366 172.54H89.3418V195.874H101.366V172.54Z" fill="#A8E8FD"/>
<path d="M95.7082 171.811H94.8486V196.536H95.7082V171.811Z" fill="#0B2952"/>
<path d="M101.55 183.562H89.1475V184.35H101.55V183.562Z" fill="#0B2952"/>
<path d="M101.55 177.694H89.1475V178.141H101.55V177.694Z" fill="#0B2952"/>
<path d="M101.55 190.224H89.1475V190.672H101.55V190.224Z" fill="#0B2952"/>
<path d="M102.178 196.956H88.793V197.692H102.178V196.956Z" fill="#A8E8FD"/>
<path d="M63.9035 122.734H50.2588V148.293H63.9035V122.734Z" fill="#0B2952"/>
<path d="M63.0957 123.953H51.0713V147.287H63.0957V123.953Z" fill="#A8E8FD"/>
<path d="M57.4329 123.229H56.5732V147.954H57.4329V123.229Z" fill="#0B2952"/>
<path d="M63.2751 134.98H50.8721V135.767H63.2751V134.98Z" fill="#0B2952"/>
<path d="M63.2751 129.112H50.8721V129.559H63.2751V129.112Z" fill="#0B2952"/>
<path d="M63.2751 141.642H50.8721V142.089H63.2751V141.642Z" fill="#0B2952"/>
<path d="M63.9022 148.374H50.5176V149.11H63.9022V148.374Z" fill="#A8E8FD"/>
<path d="M103.455 124.013H89.8105V149.572H103.455V124.013Z" fill="#0B2952"/>
<path d="M102.647 125.231H90.623V148.566H102.647V125.231Z" fill="#A8E8FD"/>
<path d="M96.9846 124.507H96.125V149.233H96.9846V124.507Z" fill="#0B2952"/>
<path d="M102.827 136.258H90.4238V137.046H102.827V136.258Z" fill="#0B2952"/>
<path d="M102.827 130.39H90.4238V130.838H102.827V130.39Z" fill="#0B2952"/>
<path d="M102.827 142.92H90.4238V143.368H102.827V142.92Z" fill="#0B2952"/>
<path d="M103.454 149.652H90.0693V150.389H103.454V149.652Z" fill="#A8E8FD"/>
<path d="M20.038 45.2468H8.5V23.6788C12.3975 20.1031 16.5329 20.1111 20.038 23.6788V45.2468Z" fill="#0B2952"/>
<path d="M19.3527 44.3994H9.18555V24.7089C12.3565 21.3239 16.2606 21.4419 19.3527 24.7089V44.3994Z" fill="#A8E8FD"/>
<path d="M14.5644 21.924H13.8379V44.9609H14.5644V21.924Z" fill="#0B2952"/>
<path d="M19.5055 33.6478H9.01758V34.3125H19.5055V33.6478Z" fill="#0B2952"/>
<path d="M19.5055 28.3358H9.01758V28.7139H19.5055V28.3358Z" fill="#0B2952"/>
<path d="M19.5055 39.4528H9.01758V39.8308H19.5055V39.4528Z" fill="#0B2952"/>
<path d="M20.0372 45.3135H8.71973V45.9349H20.0372V45.3135Z" fill="#A8E8FD"/>
<path d="M63.04 46.245H51.502V24.677C55.3994 21.1013 59.5349 21.1093 63.04 24.677V46.245Z" fill="#0B2952"/>
<path d="M62.3546 45.3976H52.1875V25.7071C55.3584 22.3221 59.2626 22.4401 62.3546 25.7071V45.3976Z" fill="#A8E8FD"/>
<path d="M57.5664 22.9223H56.8398V45.9591H57.5664V22.9223Z" fill="#0B2952"/>
<path d="M62.5085 34.6461H52.0205V35.3108H62.5085V34.6461Z" fill="#0B2952"/>
<path d="M62.5085 29.3341H52.0205V29.7122H62.5085V29.3341Z" fill="#0B2952"/>
<path d="M62.5085 40.451H52.0205V40.829H62.5085V40.451Z" fill="#0B2952"/>
<path d="M63.0391 46.3117H51.7217V46.9331H63.0391V46.3117Z" fill="#A8E8FD"/>
<path d="M101.04 45.245H89.502V23.677C93.3994 20.1013 97.5349 20.1093 101.04 23.677V45.245Z" fill="#0B2952"/>
<path d="M100.355 44.3976H90.1875V24.7071C93.3584 21.3221 97.2626 21.4401 100.355 24.7071V44.3976Z" fill="#A8E8FD"/>
<path d="M95.5664 21.9223H94.8398V44.9591H95.5664V21.9223Z" fill="#0B2952"/>
<path d="M100.508 33.6461H90.0205V34.3108H100.508V33.6461Z" fill="#0B2952"/>
<path d="M100.508 28.3341H90.0205V28.7122H100.508V28.3341Z" fill="#0B2952"/>
<path d="M100.508 39.451H90.0205V39.829H100.508V39.451Z" fill="#0B2952"/>
<path d="M101.039 45.3117H89.7217V45.9331H101.039V45.3117Z" fill="#A8E8FD"/>
<path d="M65.4482 167.481H48.9824V200.833H65.4482V167.481Z" fill="#1F4E8D"/>
<path d="M64.3742 168.7H49.7207V200.244H64.3742V168.7Z" fill="#0B2952"/>
<path d="M73.8418 166.12L79.0936 163.228L84.6079 150.861L89.4778 156.094L96.8073 159.049L89.4068 157.246L84.6079 153.269C84.6079 153.269 85.5811 167.535 85.3239 167.213C85.0668 166.89 84.0725 153.634 84.0725 153.634L79.6935 164.093L81.7099 169.512L80.2941 182.823L81.086 169.512L79.0936 164.929L73.8418 166.12Z" fill="#0B2952"/>
<path d="M11.9824 159.885L13.1495 159.423L14.3749 157.448L15.4571 158.284L17.0859 158.756L15.4413 158.468L14.3749 157.833C14.3749 157.833 14.5912 160.111 14.534 160.059C14.4769 160.008 14.2559 157.891 14.2559 157.891L13.2828 159.561L13.7309 160.426L13.4163 162.552L13.5923 160.426L13.1495 159.695L11.9824 159.885Z" fill="#0B2952"/>
<path d="M63.6291 75.735H49.9844V101.294H63.6291V75.735Z" fill="#0B2952"/>
<path d="M62.8213 76.9536H50.7969V100.288H62.8213V76.9536Z" fill="#A8E8FD"/>
<path d="M57.1584 76.2294H56.2988V100.955H57.1584V76.2294Z" fill="#0B2952"/>
<path d="M63.0007 87.9805H50.5977V88.7681H63.0007V87.9805Z" fill="#0B2952"/>
<path d="M63.0007 82.1124H50.5977V82.56H63.0007V82.1124Z" fill="#0B2952"/>
<path d="M63.0007 94.6426H50.5977V95.0901H63.0007V94.6426Z" fill="#0B2952"/>
<path d="M63.6277 101.375H50.2432V102.111H63.6277V101.375Z" fill="#A8E8FD"/>
<path d="M103.455 74.1519H89.8105V99.7111H103.455V74.1519Z" fill="#0B2952"/>
<path d="M102.647 75.3705H90.623V98.7049H102.647V75.3705Z" fill="#A8E8FD"/>
<path d="M96.9846 74.6463H96.125V99.3719H96.9846V74.6463Z" fill="#0B2952"/>
<path d="M102.827 86.3974H90.4238V87.185H102.827V86.3974Z" fill="#0B2952"/>
<path d="M102.827 80.5293H90.4238V80.9768H102.827V80.5293Z" fill="#0B2952"/>
<path d="M102.827 93.0594H90.4238V93.5069H102.827V93.0594Z" fill="#0B2952"/>
<path d="M103.454 99.7914H90.0693V100.528H103.454V99.7914Z" fill="#A8E8FD"/>
<path d="M24.6457 75.735H11.001V101.294H24.6457V75.735Z" fill="#0B2952"/>
<path d="M23.8379 76.9536H11.8135V100.288H23.8379V76.9536Z" fill="#CDE3EA"/>
<path d="M18.175 76.2294H17.3154V100.955H18.175V76.2294Z" fill="#0B2952"/>
<path d="M24.0173 87.9805H11.6143V88.7681H24.0173V87.9805Z" fill="#0B2952"/>
<path d="M24.0173 82.1124H11.6143V82.56H24.0173V82.1124Z" fill="#0B2952"/>
<path d="M24.0173 94.6426H11.6143V95.0901H24.0173V94.6426Z" fill="#0B2952"/>
<path d="M24.6443 101.375H11.2598V102.111H24.6443V101.375Z" fill="#A8E8FD"/>
<path d="M91 84.4365L92.1671 83.9746L93.3925 82L94.4747 82.8357L96.1034 83.3074L94.4589 83.0195L93.3925 82.3845C93.3925 82.3845 93.6087 84.6625 93.5516 84.611C93.4944 84.5595 93.2735 82.4428 93.2735 82.4428L92.3004 84.1128L92.7485 84.9781L92.4338 87.1034L92.6098 84.9781L92.1671 84.2464L91 84.4365Z" fill="#0B2952"/>
<path d="M19 91.4365L20.1671 90.9746L21.3925 89L22.4747 89.8357L24.1034 90.3074L22.4589 90.0195L21.3925 89.3845C21.3925 89.3845 21.6087 91.6625 21.5516 91.611C21.4944 91.5595 21.2735 89.4428 21.2735 89.4428L20.3004 91.1128L20.7485 91.9781L20.4338 94.1034L20.6098 91.9781L20.1671 91.2464L19 91.4365Z" fill="#0B2952"/>
<defs>
<linearGradient id="paint0_linear_59_1180" x1="310.12" y1="106.589" x2="-85.0174" y2="100.392" gradientUnits="userSpaceOnUse">
<stop stop-color="#3ACFFF"/>
<stop offset="0.956731" stop-color="#7EE0FF"/>
</linearGradient>
</defs>
</svg>
