
<svg width="166" height="178" viewBox="0 0 166 178" fill="none" xmlns="http://www.w3.org/2000/svg">
<path d="M162.719 171.145H56.7273C56.0279 171.145 55.3572 170.867 54.8626 170.373C54.368 169.879 54.0902 169.208 54.0902 168.509V26.597C54.1056 23.3468 53.3752 20.258 55.6992 20.2941L162.538 16.6608C162.899 16.636 163.261 16.6855 163.602 16.8064C163.942 16.9273 164.255 17.1169 164.519 17.3635C164.783 17.6102 164.994 17.9085 165.138 18.24C165.282 18.5715 165.357 18.9291 165.357 19.2905V168.509C165.357 169.208 165.079 169.879 164.584 170.373C164.09 170.867 163.419 171.145 162.719 171.145Z" fill="#35C0ED"/>
<path d="M158.082 166.89H61.2514C59.8 166.89 58.6189 165.689 58.6189 164.209V31.8978C58.6189 31.2806 58.5969 30.674 58.5722 30.0868C58.5014 28.396 58.4387 26.9354 59.1277 26.2294C59.4067 25.9431 59.7953 25.7977 60.28 25.7977H60.3154L157.908 22.41C158.264 22.3846 158.621 22.4334 158.957 22.5534C159.293 22.6733 159.6 22.8617 159.859 23.1066C160.129 23.3605 160.345 23.667 160.492 24.0073C160.639 24.3476 160.714 24.7144 160.714 25.085V164.209C160.714 165.687 159.534 166.89 158.082 166.89ZM60.2887 26.2434C59.9135 26.2434 59.6411 26.3408 59.4468 26.5403C58.8933 27.1082 58.9508 28.4801 59.0168 30.0682C59.0416 30.66 59.0676 31.2692 59.0643 31.8991V164.209C59.0643 165.442 60.045 166.444 61.2507 166.444H158.082C159.287 166.444 160.269 165.444 160.269 164.209V25.085C160.269 24.7755 160.206 24.4691 160.083 24.1849C159.96 23.9007 159.78 23.6447 159.555 23.4329C159.339 23.2295 159.083 23.0731 158.804 22.9737C158.524 22.8742 158.227 22.8338 157.932 22.8551L60.3201 26.2434H60.2887Z" fill="white"/>
<path d="M155.008 36.7761H117.869V37.1351H155.008V36.7761Z" fill="white"/>
<path d="M155.008 34.1258H117.869V34.4847H155.008V34.1258Z" fill="white"/>
<path d="M155.167 31.2786H118.028V31.6375H155.167V31.2786Z" fill="white"/>
<path d="M155.008 39.4192H117.869V39.7782H155.008V39.4192Z" fill="white"/>
<path d="M107.898 58.9533H101.985V58.5075H107.898C108.003 58.5065 108.103 58.4644 108.177 58.3903C108.251 58.3162 108.294 58.216 108.295 58.1112V42.3384H108.741V58.1112C108.74 58.3344 108.652 58.5485 108.494 58.7064C108.336 58.8643 108.121 58.9531 107.898 58.9533Z" fill="white"/>
<path d="M109.764 42.5613H101.985V42.1156H109.764C109.807 42.1156 109.849 42.1049 109.887 42.0844C109.924 42.0639 109.956 42.0342 109.979 41.9981C110.002 41.9621 110.016 41.9208 110.018 41.8781C110.021 41.8354 110.013 41.7927 109.995 41.7539L107.201 34.3313L107.618 34.1745L110.406 41.5811C110.453 41.686 110.473 41.801 110.464 41.9156C110.455 42.0302 110.418 42.1407 110.355 42.237C110.292 42.3365 110.205 42.4185 110.101 42.4752C109.998 42.5319 109.882 42.5615 109.764 42.5613Z" fill="white"/>
<path d="M98.7009 34.8211L98.6895 34.3753L107.205 34.1465L107.186 34.013C107.186 33.8642 106.975 33.6981 106.673 33.6981L97.4304 33.8642L97.4224 33.4185L106.669 33.2543C107.203 33.2543 107.619 33.5773 107.632 33.9937L107.73 34.5768L98.7009 34.8211Z" fill="white"/>
<g opacity="0.89">
<path d="M106.516 53.9688H101.985V53.7486H106.44V45.7728H101.985V45.5499H106.516C106.555 45.5499 106.592 45.5653 106.62 45.5927C106.647 45.6201 106.663 45.6572 106.663 45.6961V53.822C106.663 53.8609 106.647 53.8981 106.62 53.9256C106.592 53.9531 106.555 53.9686 106.516 53.9688Z" fill="white"/>
<g opacity="0.9">
<path d="M103.665 53.4697H101.985C101.97 53.4697 101.956 53.4638 101.946 53.4534C101.936 53.4431 101.93 53.429 101.93 53.4143C101.93 53.3995 101.936 53.3854 101.946 53.3749C101.956 53.3644 101.97 53.3584 101.985 53.3582H103.629V46.1598H101.985C101.97 46.1598 101.956 46.154 101.946 46.1436C101.936 46.1332 101.93 46.1191 101.93 46.1044C101.93 46.0897 101.936 46.0755 101.946 46.065C101.956 46.0545 101.97 46.0486 101.985 46.0484H103.665C103.675 46.0484 103.685 46.0503 103.694 46.0541C103.703 46.0579 103.711 46.0635 103.718 46.0705C103.725 46.0775 103.731 46.0858 103.735 46.0949C103.738 46.1041 103.74 46.1139 103.74 46.1238V53.3969C103.74 53.4165 103.732 53.4351 103.717 53.4487C103.703 53.4623 103.684 53.4698 103.665 53.4697Z" fill="white"/>
<path d="M106.022 53.4697H104.235C104.183 53.4697 104.134 53.4491 104.097 53.4126C104.061 53.3761 104.04 53.3265 104.04 53.2748V46.2432C104.04 46.1915 104.061 46.142 104.097 46.1054C104.134 46.0689 104.183 46.0484 104.235 46.0484H106.022C106.073 46.0484 106.123 46.0689 106.159 46.1054C106.196 46.142 106.217 46.1915 106.217 46.2432V53.2748C106.217 53.3265 106.196 53.3761 106.159 53.4126C106.123 53.4491 106.073 53.4697 106.022 53.4697ZM104.235 46.1598C104.213 46.1598 104.192 46.1686 104.176 46.1842C104.16 46.1999 104.152 46.2211 104.152 46.2432V53.2748C104.152 53.2969 104.16 53.3182 104.176 53.3338C104.192 53.3494 104.213 53.3582 104.235 53.3582H106.022C106.044 53.3582 106.065 53.3494 106.081 53.3338C106.096 53.3182 106.105 53.2969 106.105 53.2748V46.2432C106.105 46.2211 106.096 46.1999 106.081 46.1842C106.065 46.1686 106.044 46.1598 106.022 46.1598H104.235Z" fill="white"/>
</g>
</g>
<path d="M76.2067 58.9533H70.3315C70.1581 58.9529 69.9919 58.8839 69.8693 58.7613C69.7466 58.6388 69.6776 58.4727 69.6772 58.2993V42.3384H70.1232V58.2993C70.1232 58.3545 70.1452 58.4075 70.1842 58.4465C70.2233 58.4856 70.2763 58.5075 70.3315 58.5075H76.2067V58.9533Z" fill="white"/>
<path d="M76.1204 42.5613H68.6516C68.5339 42.5612 68.4182 42.5315 68.3151 42.4749C68.2119 42.4184 68.1246 42.3368 68.0613 42.2377C67.998 42.1386 67.9607 42.0252 67.9528 41.9078C67.9448 41.7905 67.9666 41.6731 68.016 41.5664L70.798 34.1751L71.2146 34.332L68.4266 41.7386C68.4056 41.779 68.3954 41.8241 68.3972 41.8697C68.3989 41.9152 68.4125 41.9595 68.4366 41.9981C68.4594 42.0344 68.4911 42.0643 68.5288 42.0848C68.5664 42.1054 68.6087 42.116 68.6516 42.1156H76.1204V42.5613Z" fill="white"/>
<path d="M79.6637 34.6462L70.7842 34.5855V34.015C70.7842 33.5893 71.2308 33.2557 71.8003 33.2557H80.9041V33.7007H71.7997C71.4732 33.7007 71.2295 33.8669 71.2295 34.015V34.1425L79.667 34.2005L79.6637 34.6462Z" fill="white"/>
<g opacity="0.89">
<path d="M76.1207 53.9688H71.9006C71.8618 53.9686 71.8246 53.953 71.7972 53.9255C71.7698 53.898 71.7544 53.8608 71.7544 53.822V45.6961C71.7544 45.6573 71.7698 45.6201 71.7972 45.5927C71.8246 45.5653 71.8618 45.5499 71.9006 45.5499H76.1207V45.7728H71.9774V53.7486H76.1207V53.9688Z" fill="white"/>
<path d="M76.1205 53.4697H74.7512C74.7413 53.4697 74.7314 53.4679 74.7223 53.4641C74.7131 53.4603 74.7047 53.4548 74.6977 53.4478C74.6907 53.4408 74.6851 53.4324 74.6813 53.4232C74.6776 53.414 74.6757 53.4042 74.6758 53.3943V46.1211C74.6758 46.1112 74.6777 46.1014 74.6815 46.0923C74.6853 46.0831 74.6909 46.0748 74.6979 46.0678C74.7049 46.0608 74.7132 46.0552 74.7224 46.0515C74.7315 46.0477 74.7413 46.0457 74.7512 46.0457H76.1205C76.1353 46.0459 76.1494 46.0519 76.1598 46.0624C76.1701 46.0729 76.1759 46.087 76.1759 46.1018C76.1759 46.1165 76.1701 46.1305 76.1597 46.1409C76.1493 46.1513 76.1352 46.1571 76.1205 46.1571H74.7853V53.3556H76.1205C76.1353 53.3557 76.1494 53.3617 76.1598 53.3722C76.1701 53.3827 76.1759 53.3969 76.1759 53.4116C76.1763 53.4191 76.1751 53.4266 76.1725 53.4336C76.1699 53.4407 76.1659 53.4471 76.1607 53.4525C76.1555 53.4579 76.1493 53.4623 76.1424 53.4652C76.1355 53.4682 76.128 53.4697 76.1205 53.4697Z" fill="white"/>
<path d="M74.1793 53.4697H72.3927C72.341 53.4697 72.2914 53.4491 72.2549 53.4126C72.2183 53.3761 72.1978 53.3265 72.1978 53.2748V46.2432C72.1978 46.1915 72.2183 46.142 72.2549 46.1054C72.2914 46.0689 72.341 46.0484 72.3927 46.0484H74.1793C74.231 46.0484 74.2806 46.0689 74.3171 46.1054C74.3537 46.142 74.3742 46.1915 74.3742 46.2432V53.2748C74.3742 53.3265 74.3537 53.3761 74.3171 53.4126C74.2806 53.4491 74.231 53.4697 74.1793 53.4697ZM72.3927 46.1598C72.3706 46.1598 72.3493 46.1686 72.3337 46.1842C72.318 46.1999 72.3093 46.2211 72.3093 46.2432V53.2748C72.3093 53.2969 72.318 53.3182 72.3337 53.3338C72.3493 53.3494 72.3706 53.3582 72.3927 53.3582H74.1793C74.2014 53.3582 74.2226 53.3494 74.2383 53.3338C74.2539 53.3182 74.2627 53.2969 74.2627 53.2748V46.2432C74.2627 46.2211 74.2539 46.1999 74.2383 46.1842C74.2226 46.1686 74.2014 46.1598 74.1793 46.1598H72.3927Z" fill="white"/>
</g>
<path d="M101.367 59.7452H92.4873V59.2995H101.367C101.472 59.2993 101.572 59.2575 101.646 59.1834C101.72 59.1092 101.762 59.0086 101.762 58.9038V39.5913H102.208V58.9038C102.208 59.1268 102.119 59.3406 101.961 59.4983C101.804 59.6561 101.59 59.7449 101.367 59.7452Z" fill="white"/>
<path d="M84.4692 59.7452H76.9917C76.7016 59.7449 76.4235 59.6296 76.2183 59.4245C76.0132 59.2195 75.8978 58.9416 75.8975 58.6516V39.4785H76.3434V58.6516C76.3438 58.8233 76.4122 58.9879 76.5337 59.1094C76.6552 59.2308 76.8199 59.2992 76.9917 59.2995H84.4692V59.7452Z" fill="white"/>
<path d="M92.5953 58.5235H92.3723V57.4699L84.5611 57.4819L84.5731 58.5235H84.3501V57.4699C84.3503 57.414 84.3726 57.3605 84.4121 57.321C84.4516 57.2815 84.5052 57.2592 84.5611 57.2591H92.381C92.437 57.2591 92.4906 57.2813 92.5302 57.3208C92.5697 57.3604 92.592 57.414 92.592 57.4699L92.5953 58.5235Z" fill="white"/>
<path d="M92.5954 59.8947H84.3535V59.13C84.3537 58.9132 84.44 58.7053 84.5935 58.552C84.747 58.3987 84.9551 58.3126 85.172 58.3126H91.7776C91.9944 58.3128 92.2023 58.399 92.3557 58.5522C92.509 58.7055 92.5952 58.9133 92.5954 59.13V59.8947ZM84.5765 59.6719H92.3724V59.13C92.3722 58.9724 92.3095 58.8213 92.198 58.7098C92.0865 58.5984 91.9353 58.5357 91.7776 58.5355H85.172C85.0143 58.5357 84.863 58.5984 84.7514 58.7098C84.6397 58.8212 84.5769 58.9724 84.5765 59.13V59.6719Z" fill="white"/>
<path d="M91.3229 57.4852H85.626V47.4917C85.6265 47.2519 85.7221 47.0222 85.8918 46.8527C86.0614 46.6832 86.2914 46.5879 86.5313 46.5875H90.4176C90.6574 46.5879 90.8874 46.6832 91.0571 46.8527C91.2268 47.0222 91.3223 47.2519 91.3229 47.4917V57.4852ZM85.8483 57.2624H91.0992V47.4917C91.099 47.3109 91.0271 47.1377 90.8991 47.0099C90.7712 46.8822 90.5977 46.8104 90.4169 46.8104H86.5306C86.3498 46.8106 86.1765 46.8824 86.0486 47.0101C85.9207 47.1378 85.8486 47.311 85.8483 47.4917V57.2624Z" fill="white"/>
<path d="M90.8252 46.0918H86.1265C85.9944 46.0916 85.8679 46.0391 85.7745 45.9458C85.6811 45.8525 85.6286 45.7259 85.6284 45.594V45.2603C85.6289 45.1344 85.6769 45.0133 85.7628 44.9212C85.8486 44.829 85.9661 44.7726 86.0917 44.7632L90.7925 44.4369C90.8607 44.433 90.929 44.4428 90.9933 44.4657C91.0577 44.4887 91.1167 44.5243 91.1671 44.5704C91.2168 44.6171 91.2565 44.6734 91.2837 44.7359C91.3109 44.7984 91.3251 44.8659 91.3253 44.9341V45.6013C91.3232 45.7324 91.2695 45.8573 91.1759 45.9491C91.0824 46.0409 90.9564 46.0921 90.8252 46.0918ZM90.8252 44.6558H90.8052L86.1051 44.9821C86.0356 44.987 85.9705 45.018 85.923 45.0689C85.8754 45.1197 85.8489 45.1867 85.8487 45.2563V45.59C85.8489 45.6628 85.8779 45.7327 85.9295 45.7842C85.981 45.8357 86.0509 45.8647 86.1238 45.8649H90.8246C90.8975 45.8647 90.9673 45.8357 91.0189 45.7842C91.0704 45.7327 91.0995 45.6628 91.0996 45.59V44.9227C91.0996 44.85 91.0707 44.7802 91.0193 44.7288C90.9678 44.6774 90.898 44.6485 90.8252 44.6485V44.6558Z" fill="white"/>
<path d="M80.9542 41.3642H79.0915C79.0768 41.364 79.0627 41.3581 79.0523 41.3476C79.0419 41.3371 79.0361 41.3229 79.0361 41.3082V39.7027C79.0361 38.8173 79.862 38.124 80.9168 38.124H80.9542C80.969 38.1242 80.9831 38.1302 80.9935 38.1406C81.0038 38.1511 81.0096 38.1653 81.0096 38.1801V41.3082C81.0096 41.3229 81.0038 41.3371 80.9935 41.3476C80.9831 41.3581 80.969 41.364 80.9542 41.3642ZM79.1476 41.2528H80.8981V38.2354C79.9147 38.2434 79.1476 38.8853 79.1476 39.7034V41.2528Z" fill="white"/>
<path d="M80.9542 46.9678H79.4688C79.2638 46.9678 79.0361 46.6929 79.0361 46.5061V41.7826C79.0361 41.7678 79.0419 41.7537 79.0523 41.7432C79.0627 41.7327 79.0768 41.7267 79.0915 41.7265H80.9542C80.969 41.7267 80.9831 41.7327 80.9935 41.7432C81.0038 41.7537 81.0096 41.7678 81.0096 41.7826V46.9118C81.0096 46.9265 81.0038 46.9407 80.9935 46.9512C80.9831 46.9617 80.969 46.9677 80.9542 46.9678ZM79.1476 41.8379V46.5088C79.1476 46.6422 79.3299 46.8591 79.4688 46.8591H80.8981V41.8379H79.1476Z" fill="white"/>
<path d="M83.2301 41.3642H81.3674C81.3527 41.364 81.3386 41.3581 81.3282 41.3476C81.3178 41.3371 81.312 41.3229 81.312 41.3082V38.1801C81.312 38.1653 81.3178 38.1511 81.3282 38.1406C81.3386 38.1302 81.3527 38.1242 81.3674 38.124H81.4622C82.5017 38.124 83.2862 38.8033 83.2862 39.7027V41.3082C83.286 41.323 83.28 41.3371 83.2696 41.3476C83.2591 41.3581 83.2449 41.3641 83.2301 41.3642ZM81.4235 41.2528H83.1747V39.7027C83.1747 38.866 82.4403 38.2348 81.4622 38.2348H81.4235V41.2528Z" fill="white"/>
<path d="M82.9103 46.9678H81.3674C81.3527 46.9677 81.3386 46.9617 81.3282 46.9512C81.3178 46.9407 81.312 46.9265 81.312 46.9118V41.7826C81.312 41.7678 81.3178 41.7537 81.3282 41.7432C81.3386 41.7327 81.3527 41.7267 81.3674 41.7265H83.2301C83.2449 41.7267 83.2591 41.7326 83.2696 41.7431C83.28 41.7536 83.286 41.7677 83.2862 41.7826V46.5061C83.2862 46.6876 83.1219 46.9678 82.9103 46.9678ZM81.4235 46.8564H82.9103C83.0438 46.8564 83.1774 46.6382 83.1774 46.5061V41.8353H81.4262L81.4235 46.8564Z" fill="white"/>
<path d="M83.3938 47.3182H78.91C78.5916 47.3182 78.3325 47.0766 78.3325 46.7797V39.6694C78.3325 38.483 79.3814 37.5181 80.6692 37.5181H81.6319C82.9211 37.5181 83.9687 38.483 83.9687 39.6694V46.781C83.9713 47.076 83.7123 47.3182 83.3938 47.3182ZM80.6706 37.7763C79.5282 37.7763 78.6009 38.6238 78.6009 39.6654V46.777C78.6057 46.8548 78.6412 46.9275 78.6994 46.9793C78.7577 47.0311 78.8342 47.0577 78.912 47.0533H83.3958C83.4737 47.0577 83.5501 47.0311 83.6084 46.9793C83.6667 46.9275 83.7021 46.8548 83.7069 46.777V39.6694C83.7069 38.6278 82.7776 37.7803 81.6373 37.7803L80.6706 37.7763Z" fill="white"/>
<path d="M96.8551 33.3664C96.8405 33.3665 96.826 33.3637 96.8125 33.3582C96.799 33.3527 96.7867 33.3445 96.7763 33.3342C96.766 33.3239 96.7578 33.3117 96.7522 33.2982C96.7465 33.2847 96.7437 33.2703 96.7437 33.2557V30.3377C96.7437 30.3231 96.7465 30.3086 96.7521 30.2951C96.7577 30.2816 96.766 30.2693 96.7763 30.2589C96.7867 30.2486 96.799 30.2404 96.8125 30.2348C96.826 30.2292 96.8405 30.2263 96.8551 30.2263C96.8698 30.2263 96.8843 30.2292 96.8978 30.2348C96.9113 30.2404 96.9236 30.2486 96.934 30.2589C96.9443 30.2693 96.9526 30.2816 96.9582 30.2951C96.9638 30.3086 96.9666 30.3231 96.9666 30.3377V33.2557C96.9666 33.2703 96.9637 33.2847 96.9581 33.2982C96.9525 33.3117 96.9443 33.3239 96.9339 33.3342C96.9236 33.3445 96.9113 33.3527 96.8978 33.3582C96.8842 33.3637 96.8698 33.3665 96.8551 33.3664Z" fill="white"/>
<path d="M94.716 31.6796C94.6864 31.6796 94.6581 31.6679 94.6371 31.647C94.6162 31.6261 94.6045 31.5977 94.6045 31.5682V30.3377C94.6045 30.3082 94.6162 30.2798 94.6371 30.2589C94.6581 30.238 94.6864 30.2263 94.716 30.2263C94.7456 30.2263 94.7739 30.238 94.7948 30.2589C94.8157 30.2798 94.8275 30.3082 94.8275 30.3377V31.5682C94.8275 31.5977 94.8157 31.6261 94.7948 31.647C94.7739 31.6679 94.7456 31.6796 94.716 31.6796Z" fill="white"/>
<path d="M97.5605 30.4492H94.1022C94.0726 30.4492 94.0443 30.4374 94.0234 30.4165C94.0025 30.3956 93.9907 30.3673 93.9907 30.3377V30.3057C93.9911 30.0014 94.1121 29.7096 94.3274 29.4943C94.5427 29.2791 94.8345 29.1579 95.139 29.1574H96.5217C96.8264 29.1577 97.1185 29.2788 97.334 29.4941C97.5495 29.7093 97.6708 30.0012 97.6714 30.3057V30.3377C97.6714 30.3672 97.6597 30.3954 97.6389 30.4163C97.6182 30.4372 97.59 30.449 97.5605 30.4492ZM94.217 30.2263H97.4457C97.4254 29.9955 97.3193 29.7807 97.1484 29.6241C96.9775 29.4675 96.7542 29.3805 96.5224 29.3802H95.139C94.9074 29.3807 94.6843 29.4678 94.5137 29.6243C94.343 29.7809 94.2372 29.9957 94.217 30.2263Z" fill="white"/>
<path d="M75.3275 40.3093C75.3078 40.3092 75.2883 40.3065 75.2694 40.3013C75.236 40.292 75.2052 40.2752 75.1795 40.252C75.1538 40.2289 75.1338 40.2 75.1212 40.1678L74.5871 38.8733C74.5101 38.6858 74.4971 38.4782 74.5501 38.2825C74.6031 38.0869 74.7191 37.9142 74.8801 37.791L88.915 27.0768C88.9536 27.0481 89.0005 27.0326 89.0486 27.0326C89.0967 27.0326 89.1435 27.0481 89.1821 27.0768L103.685 38.1186C103.718 38.1441 103.744 38.1785 103.758 38.2178C103.773 38.2571 103.776 38.2998 103.768 38.3408L103.586 39.2336C103.55 39.4054 103.472 39.5654 103.358 39.6985C103.244 39.8316 103.097 39.9334 102.933 39.9943C102.768 40.0552 102.591 40.0732 102.418 40.0466C102.244 40.02 102.08 39.9496 101.942 39.8422L89.0519 29.8473L75.463 40.2632C75.4241 40.293 75.3765 40.3092 75.3275 40.3093ZM89.0532 27.5372L75.1532 38.1467C75.0701 38.2102 75.0103 38.2994 74.9829 38.4003C74.9555 38.5012 74.9621 38.6084 75.0016 38.7052L75.4229 39.7308L88.9177 29.3882C88.9566 29.3581 89.0044 29.3417 89.0536 29.3417C89.1028 29.3417 89.1506 29.3581 89.1894 29.3882L102.216 39.4899C102.295 39.5514 102.388 39.5917 102.487 39.6071C102.585 39.6225 102.686 39.6125 102.78 39.5779C102.873 39.5434 102.957 39.4854 103.022 39.4096C103.087 39.3338 103.131 39.2427 103.151 39.1449L103.305 38.3882L89.0532 27.5372Z" fill="white"/>
<path d="M84.0637 56.0072H78.5371V49.0143H84.0637V56.0072ZM78.7601 55.7844H83.8408V49.2372H78.7601V55.7844Z" fill="white"/>
<path d="M81.1514 55.4902H79.0818C79.067 55.49 79.0529 55.484 79.0426 55.4735C79.0322 55.463 79.0264 55.4489 79.0264 55.4341V49.5869C79.0264 49.5722 79.0322 49.5581 79.0426 49.5477C79.053 49.5373 79.0671 49.5315 79.0818 49.5315H81.1514C81.1661 49.5315 81.1802 49.5373 81.1906 49.5477C81.201 49.5581 81.2068 49.5722 81.2068 49.5869V55.4341C81.2068 55.4489 81.201 55.463 81.1907 55.4735C81.1803 55.484 81.1662 55.49 81.1514 55.4902ZM79.1372 55.3787H81.0954V49.6403H79.1372V55.3787Z" fill="white"/>
<path d="M83.5137 55.5101H81.4441C81.4293 55.51 81.4152 55.504 81.4049 55.4935C81.3945 55.483 81.3887 55.4688 81.3887 55.4541V49.6069C81.3887 49.5922 81.3945 49.5781 81.4049 49.5677C81.4153 49.5573 81.4294 49.5515 81.4441 49.5515H83.5137C83.5284 49.5515 83.5425 49.5573 83.5529 49.5677C83.5633 49.5781 83.5691 49.5922 83.5691 49.6069V55.4541C83.5691 55.4688 83.5633 55.483 83.553 55.4935C83.5426 55.504 83.5285 55.51 83.5137 55.5101ZM81.4995 55.3987H83.4557V49.6603H81.4995V55.3987Z" fill="white"/>
<path d="M95.7708 41.3008H93.9081C93.8934 41.3008 93.8792 41.295 93.8687 41.2846C93.8582 41.2743 93.8522 41.2602 93.8521 41.2454V39.6393C93.8521 38.7545 94.6786 38.0613 95.7334 38.0613H95.7708C95.7855 38.0613 95.7996 38.0671 95.81 38.0775C95.8204 38.0879 95.8262 38.1019 95.8262 38.1166V41.2454C95.8262 41.2601 95.8204 41.2742 95.81 41.2846C95.7996 41.295 95.7855 41.3008 95.7708 41.3008ZM93.9635 41.1894H95.7147V38.1727C94.7313 38.1807 93.9635 38.8219 93.9635 39.6407V41.1894Z" fill="white"/>
<path d="M95.7708 46.9045H94.2853C94.0804 46.9045 93.8521 46.6296 93.8521 46.4434V41.7192C93.8522 41.7045 93.8582 41.6904 93.8687 41.68C93.8792 41.6696 93.8934 41.6638 93.9081 41.6638H95.7708C95.7855 41.6638 95.7996 41.6697 95.81 41.6801C95.8204 41.6904 95.8262 41.7045 95.8262 41.7192V46.8491C95.8262 46.8638 95.8204 46.8779 95.81 46.8883C95.7996 46.8987 95.7855 46.9045 95.7708 46.9045ZM93.9635 41.7753V46.4461C93.9635 46.5755 94.1465 46.7957 94.2853 46.7957H95.7147V41.7779L93.9635 41.7753Z" fill="white"/>
<path d="M98.047 41.3008H96.185C96.1702 41.3008 96.1561 41.295 96.1456 41.2846C96.1351 41.2743 96.1291 41.2602 96.1289 41.2454V38.1166C96.1291 38.1019 96.1351 38.0878 96.1456 38.0774C96.1561 38.0671 96.1702 38.0613 96.185 38.0613H96.2791C97.3186 38.0613 98.1031 38.7399 98.1031 39.6393V41.2454C98.1029 41.2602 98.0969 41.2743 98.0864 41.2846C98.0759 41.295 98.0618 41.3008 98.047 41.3008ZM96.2404 41.1894H97.9916V39.6393C97.9916 38.8032 97.2572 38.1714 96.2791 38.1714H96.2404V41.1894Z" fill="white"/>
<path d="M97.7265 46.9045H96.185C96.1702 46.9045 96.1561 46.8987 96.1456 46.8883C96.1351 46.878 96.1291 46.8639 96.1289 46.8491V41.7192C96.1291 41.7045 96.1351 41.6904 96.1456 41.68C96.1561 41.6696 96.1702 41.6638 96.185 41.6638H98.047C98.0618 41.6638 98.0759 41.6696 98.0864 41.68C98.0969 41.6904 98.1029 41.7045 98.1031 41.7192V46.4434C98.1031 46.6249 97.9435 46.9045 97.7265 46.9045ZM96.2404 46.7931H97.7265C97.8601 46.7931 97.9936 46.5749 97.9936 46.4434V41.7726H96.2424L96.2404 46.7931Z" fill="white"/>
<path d="M98.2105 47.2555H93.7274C93.4089 47.2555 93.1499 47.0139 93.1499 46.717V39.6026C93.1499 38.4162 94.1987 37.4514 95.4866 37.4514H96.45C97.7392 37.4514 98.7867 38.4162 98.7867 39.6026V46.715C98.788 47.0139 98.5283 47.2555 98.2105 47.2555ZM95.4873 37.7136C94.345 37.7136 93.4176 38.561 93.4176 39.6026V46.715C93.4226 46.7927 93.4581 46.8653 93.5163 46.917C93.5746 46.9688 93.6509 46.9954 93.7287 46.9912H98.2105C98.2885 46.9956 98.365 46.969 98.4234 46.9173C98.4818 46.8655 98.5173 46.7928 98.5223 46.715V39.6026C98.5223 38.561 97.593 37.7136 96.4527 37.7136H95.4873Z" fill="white"/>
<path d="M98.8777 55.9439H93.3511V48.9517H98.8777V55.9439ZM93.5741 55.721H98.6547V49.1745H93.5741V55.721Z" fill="white"/>
<path d="M95.9683 55.4267H93.8987C93.884 55.4267 93.8699 55.4209 93.8595 55.4105C93.8491 55.4001 93.8433 55.3861 93.8433 55.3714V49.5241C93.8433 49.5094 93.8491 49.4952 93.8595 49.4848C93.8698 49.4743 93.8839 49.4683 93.8987 49.4681H95.9683C95.9831 49.4683 95.9972 49.4743 96.0076 49.4848C96.0179 49.4952 96.0237 49.5094 96.0237 49.5241V55.3714C96.0237 55.3861 96.0179 55.4001 96.0075 55.4105C95.9971 55.4209 95.983 55.4267 95.9683 55.4267ZM93.9541 55.3153H95.9122V49.5769H93.9541V55.3153Z" fill="white"/>
<path d="M98.3306 55.4468H96.261C96.2463 55.4468 96.2322 55.4409 96.2218 55.4305C96.2114 55.4202 96.2056 55.4061 96.2056 55.3914V49.5448C96.2056 49.5302 96.2114 49.5161 96.2218 49.5057C96.2322 49.4953 96.2463 49.4895 96.261 49.4895H98.3306C98.3453 49.4895 98.3594 49.4953 98.3698 49.5057C98.3802 49.5161 98.386 49.5302 98.386 49.5448V55.3927C98.3857 55.4072 98.3797 55.4209 98.3693 55.431C98.359 55.4411 98.3451 55.4468 98.3306 55.4468ZM96.3164 55.3353H98.2772V49.5969H96.3191L96.3164 55.3353Z" fill="white"/>
<path d="M70.0859 72.4739L70.1199 75.2644H78.6315L78.6596 77.5524L78.7831 87.568L78.7878 87.8349L78.8966 96.6975L78.9006 96.8236L78.9674 102.005H70.4578L70.6314 116.043H72.0661L71.8905 103.565H80.4001L80.0509 78.3265L79.9908 73.9279H71.4819L71.4739 73.3213L71.3838 67.0204H143.082L142.741 97.2713L142.726 98.5912L142.615 108.629L142.608 109.207V109.474L142.521 117.156V117.408L142.432 125.4H143.882L144.049 108.343V108.09L144.134 99.3172V99.0649L144.138 98.4751L144.457 65.6839H70.0024L70.0859 72.4739ZM71.0526 149.644L71.2215 163.056H143.507L143.674 146.789H142.194L142.021 161.719H72.707L72.5334 149.464H71.0473L71.0526 149.644Z" fill="white"/>
<path d="M71.038 149.752L71.0553 149.757L72.5288 149.653V149.411L72.0715 116.041H70.6367L71.038 149.752ZM71.8391 149.425V149.459L71.034 149.534L71.1461 149.423L70.8544 116.264H71.8558L71.8391 149.425Z" fill="white"/>
<path d="M144.143 98.6606L144.462 65.6833H118.886L118.877 66.4586V66.6968V67.1979L118.827 97.3581L118.876 97.8679V98.1228L118.775 98.6566L144.143 98.6606ZM143.082 67.0205L142.741 97.1012H120.215V97.2227L120.22 89.8495L120.215 89.6092V89.359L120.246 67.0205H143.082Z" fill="white"/>
<path d="M134.891 74.4337C135.552 75.0182 136.473 75.3418 137.415 75.3418C139.345 75.3418 141.015 73.9686 141.03 72.2858L141.171 67.2359V66.5753H134.014L133.931 67.1205L133.813 72.2777V72.3652C133.813 73.1432 134.262 73.8758 134.891 74.4337ZM134.283 66.7982H140.759V67.1131L140.71 72.235C140.704 73.0111 140.334 73.7384 139.743 74.2495C139.104 74.7933 138.291 75.0904 137.451 75.0869C136.583 75.0869 135.772 74.796 135.167 74.2595C134.561 73.723 134.243 73.0304 134.247 72.2811L134.284 67.1118L134.283 66.7982Z" fill="white"/>
<path d="M122.097 87.7076C122.758 88.3007 123.652 88.6284 124.602 88.6284C126.524 88.6284 128.099 87.2632 128.107 85.593L128.186 71.0661C128.192 70.2413 127.831 69.4793 127.174 68.9015C126.517 68.3236 125.632 67.9953 124.69 67.9953C122.754 67.9953 121.169 69.3692 121.165 71.0647L121.106 85.5917V85.627C121.106 86.4071 121.47 87.1464 122.097 87.7076ZM121.448 71.0641C121.452 69.5027 122.909 68.2355 124.694 68.2355C125.562 68.2355 126.43 68.5318 127.035 69.0683C127.623 69.5881 128.017 70.2727 128.017 71.0033V71.0621L127.884 85.589C127.875 87.1237 126.401 88.3801 124.63 88.3801C123.754 88.3801 122.924 88.0792 122.316 87.5347C121.732 87.0123 121.407 86.3237 121.409 85.593L121.448 71.0641Z" fill="white"/>
<path d="M128.909 89.9708V89.5992L129.158 67.0331L129.286 66.1289H119.446L119.414 67.0331L119.323 89.5992V89.9708H128.909ZM119.717 66.3498H129.012V67.2172L128.879 89.7453H119.662L119.715 67.2172L119.717 66.3498Z" fill="white"/>
<path d="M111.051 79.0524H117.07L117.065 82.2666L116.788 82.2593L116.793 79.2753H111.327L111.329 85.9599H116.781L116.787 82.8792L117.064 82.8832L117.059 86.1828H111.05L111.051 79.0524Z" fill="white"/>
<path d="M141.296 159.491L141.345 154.588H135.998L135.956 159.491H141.296ZM136.294 154.811H141.044L140.999 159.268H136.259L136.294 154.811Z" fill="white"/>
<path d="M117.019 159.491L117.028 154.588H111.681V159.491H117.019ZM111.964 154.811H116.728L116.72 159.268H111.964V154.811Z" fill="white"/>
<path d="M135.381 159.491L135.552 137.763V137.429H117.985V137.844L117.718 151.83L117.467 159.489L135.381 159.491ZM117.984 151.554L118.208 137.647V137.877H135.152V137.653L135.09 151.866L135.084 159.273H117.772L117.884 151.866L117.984 151.554Z" fill="white"/>
<path d="M134.343 158.375L134.382 153.696H126.785L126.759 158.375H134.343ZM127.079 154.141H134.08L134.046 158.152H127.055L127.079 154.141Z" fill="white"/>
<path d="M135.417 151.469L135.526 137.566V137.433H117.985V137.847L117.485 151.471L135.417 151.469ZM117.81 137.877H135.235L135.124 151.469H117.785L117.81 137.877Z" fill="white"/>
<path d="M126.08 158.375L126.103 153.696H118.506L118.494 158.375H126.08ZM118.803 154.141H125.804L125.783 158.152H118.791L118.803 154.141Z" fill="white"/>
<path d="M143.208 162.833L143.369 146.79H141.889L141.72 161.496H111.043L110.932 129.987L110.85 127.867V117.158L110.984 110.248H142.296L142.214 117.304V117.481L142.125 125.399H143.577L143.737 108.91H109.56L109.316 129.451L109.066 161.88V162.83L143.208 162.833Z" fill="white"/>
<path d="M91.148 66.977L91.1955 74.3729H110.308L110.405 97.3601V97.992H119.624L119.691 97.4115L119.772 89.6092V89.5992L119.765 67.0331L119.706 66.1289H91.144L91.148 66.977ZM119.429 66.3518V67.0251L119.347 97.224V97.7691H110.628V97.3601L110.584 74.1507H91.4672L91.4198 66.979L91.4158 66.3518H119.429Z" fill="white"/>
<path d="M98.2678 73.705H104.957L104.947 67.6883H98.2397L98.2678 73.705ZM104.677 68.134L104.686 73.4821H98.5435L98.5155 68.134H104.677Z" fill="white"/>
<path d="M103.312 70.2726C103.579 70.2726 103.87 70.1832 104.056 70.0157C104.241 69.8482 104.385 69.64 104.385 69.4105V69.4025C104.385 68.9241 103.868 68.5351 103.323 68.5351C103.072 68.5314 102.83 68.6225 102.643 68.79C102.557 68.8654 102.489 68.9586 102.443 69.0631C102.397 69.1676 102.374 69.2809 102.376 69.3952V69.4058C102.379 69.8843 102.767 70.2726 103.312 70.2726ZM102.741 68.9601C102.875 68.8407 103.153 68.7759 103.346 68.7759C103.747 68.7759 104.162 69.0575 104.162 69.4045V69.4105C104.162 69.5753 103.992 69.7301 103.859 69.8469C103.7 69.9692 103.504 70.0345 103.303 70.0324C102.907 70.0324 102.558 69.7508 102.558 69.4025C102.553 69.32 102.567 69.2375 102.599 69.1612C102.631 69.0849 102.679 69.0169 102.741 68.9621V68.9601Z" fill="white"/>
<path d="M103.317 73.0325C103.567 73.036 103.808 72.9441 103.993 72.7756C104.079 72.6989 104.148 72.6047 104.195 72.4993C104.242 72.394 104.266 72.2798 104.266 72.1644C104.266 71.6859 103.812 71.2969 103.264 71.2969C103.021 71.2944 102.787 71.3865 102.611 71.5538C102.429 71.7166 102.377 71.9295 102.377 72.1543V72.165C102.379 72.6441 102.77 73.0325 103.317 73.0325ZM102.748 71.726C102.882 71.6045 103.157 71.5398 103.349 71.5398C103.745 71.5398 104.162 71.8221 104.162 72.1664V72.1724C104.162 72.3352 103.995 72.49 103.862 72.6067C103.704 72.7292 103.508 72.7946 103.308 72.7922C102.912 72.7922 102.566 72.5107 102.566 72.1644C102.56 72.082 102.574 71.9995 102.606 71.9233C102.638 71.8472 102.687 71.7796 102.75 71.726H102.748Z" fill="white"/>
<path d="M100.23 70.2727C100.497 70.2727 100.657 70.1813 100.843 70.0158C101.029 69.8503 101.044 69.6421 101.044 69.4153V69.4032C101.044 68.9248 100.688 68.5358 100.14 68.5358C99.8962 68.533 99.6604 68.6243 99.4819 68.7907C99.3971 68.866 99.3294 68.9585 99.2833 69.0621C99.2373 69.1656 99.2139 69.2779 99.2149 69.3912C99.2149 69.3952 99.2242 69.3999 99.2242 69.4039C99.2269 69.8843 99.6855 70.2727 100.23 70.2727ZM99.7176 68.9602C99.8511 68.8407 99.8571 68.776 100.051 68.776C100.452 68.776 100.598 69.0576 100.598 69.4066V69.4146C100.598 69.5781 100.7 69.7322 100.567 69.847C100.434 69.9617 100.341 70.0325 100.148 70.0325C99.7476 70.0325 99.4699 69.7489 99.4679 69.4026C99.4659 69.2351 99.5827 69.079 99.7176 68.9622V68.9602Z" fill="white"/>
<path d="M100.246 73.0325C100.504 73.0363 100.755 72.9449 100.95 72.7756C101.038 72.6997 101.109 72.606 101.158 72.5006C101.207 72.3953 101.233 72.2806 101.235 72.1644C101.235 71.6859 100.785 71.2969 100.24 71.2969C99.9831 71.294 99.7341 71.3854 99.5402 71.5538C99.4529 71.6279 99.3826 71.7199 99.3338 71.8235C99.2851 71.9271 99.2592 72.0399 99.2578 72.1543V72.167C99.2578 72.6441 99.7005 73.0325 100.246 73.0325ZM99.7285 71.726C99.862 71.6045 99.862 71.5398 100.056 71.5398C100.452 71.5398 100.596 71.8221 100.596 72.1684V72.1744C100.596 72.3372 100.704 72.492 100.572 72.6068C100.44 72.7215 100.348 72.7923 100.155 72.7923C99.7545 72.7923 99.4801 72.5107 99.4775 72.1644C99.4788 72.0035 99.5956 71.8427 99.7285 71.726Z" fill="white"/>
<path d="M68.6955 87.5787C68.7623 92.4924 73.2908 96.5868 78.9003 96.8377C79.0845 96.8457 79.2708 96.8784 79.4564 96.8784H79.6019L79.5038 87.2971H68.6929L68.6955 87.5787ZM79.2254 87.5193L79.3175 96.5514C79.1767 96.5514 79.0351 96.4633 78.8963 96.4566C73.4885 96.2024 69.1228 92.1988 68.9773 87.5193H79.2254Z" fill="white"/>
<path d="M143.327 108.688C143.569 108.688 143.809 108.527 144.046 108.512C149.559 108.188 153.982 104.242 154.048 99.4086V99.3292H143.278L143.18 108.688H143.327ZM143.558 99.5521H153.764C153.618 104.008 149.357 107.889 144.048 108.212C143.855 108.222 143.661 108.289 143.466 108.291L143.558 99.5521Z" fill="white"/>
<path d="M110.034 127.85H110.18C110.458 127.85 110.693 127.865 110.964 127.844C116.392 127.479 120.66 123.569 120.66 118.825V119.158H110.032L110.034 127.85ZM120.453 119.383C120.359 123.617 116.221 127.451 111.006 127.812C110.781 127.827 110.554 127.945 110.325 127.945L110.321 119.383H120.453Z" fill="white"/>
<path d="M130.881 98.0101C130.907 98.0354 131.088 97.9921 131.127 97.9921H141.623C141.698 97.9921 141.76 97.9921 141.76 97.9253L141.766 97.3301L141.848 88.8526C141.848 88.8366 141.844 88.8209 141.837 88.8066C141.83 88.7922 141.82 88.7797 141.807 88.7698C141.778 88.7456 141.742 88.7327 141.704 88.7338C136.065 88.7338 131.264 92.5312 130.866 97.3575C130.849 97.5577 130.692 97.7685 130.692 97.9747V97.9794C130.692 98.0141 130.853 97.9881 130.881 98.0101ZM141.567 88.9894L141.484 97.3208L141.48 97.7712H131.265C131.267 97.6207 131.276 97.4704 131.293 97.3208C131.687 92.672 136.144 89.0541 141.567 88.9894Z" fill="white"/>
<path d="M128.909 97.3207V89.9708H119.323V97.3207H128.909ZM128.877 90.191L128.832 97.0985H119.641L119.659 90.191H128.877Z" fill="white"/>
<path d="M121.651 96.6555L121.661 93.8503L121.941 93.8436L121.933 96.4326H127.913L127.945 90.8623H121.952L121.943 93.3919L121.663 93.4346L121.673 90.6394H128.226L128.193 96.6555H121.651Z" fill="white"/>
<path d="M123.877 93.9657C123.982 94.0578 124.203 94.1099 124.35 94.1099C124.65 94.1099 124.935 93.897 124.937 93.6361C124.939 93.5743 124.928 93.5128 124.905 93.4554C124.882 93.398 124.848 93.3459 124.804 93.3025C124.699 93.2084 124.403 93.1563 124.258 93.1563C123.959 93.1563 123.559 93.3692 123.559 93.6321V93.6381C123.559 93.7616 123.78 93.8763 123.877 93.9657ZM124.437 93.4086C124.47 93.4081 124.502 93.4141 124.533 93.4264C124.563 93.4387 124.591 93.4569 124.614 93.48C124.634 93.4987 124.65 93.5218 124.66 93.5474C124.67 93.573 124.675 93.6006 124.673 93.6281V93.6321C124.671 93.6636 124.663 93.6945 124.65 93.723C124.636 93.7515 124.617 93.7769 124.593 93.7979C124.57 93.8189 124.542 93.835 124.512 93.8452C124.482 93.8555 124.451 93.8597 124.419 93.8576C124.352 93.8595 124.286 93.8357 124.235 93.7909C124.213 93.7722 124.195 93.7487 124.184 93.7222C124.172 93.6958 124.167 93.667 124.168 93.6381C124.167 93.5113 124.29 93.4086 124.437 93.4086Z" fill="white"/>
<path d="M122.973 93.9845L122.977 93.3172H120.419V93.9845H122.973ZM120.66 93.5388H122.667V93.7616H120.66V93.5388Z" fill="white"/>
<path d="M113.995 82.8545C114.1 82.9459 114.093 82.9959 114.24 82.9959C114.539 82.9959 114.641 82.7831 114.641 82.5202C114.641 82.3947 114.774 82.276 114.675 82.1866C114.568 82.0927 114.431 82.0414 114.289 82.0424C113.99 82.0424 113.75 82.2573 113.75 82.5182C113.75 82.6456 113.9 82.7644 113.995 82.8545ZM114.476 82.2907C114.546 82.2881 114.615 82.3119 114.669 82.3574C114.692 82.3772 114.71 82.4015 114.723 82.4289C114.736 82.4562 114.743 82.486 114.744 82.5162C114.738 82.5821 114.707 82.6432 114.657 82.6865C114.607 82.7298 114.543 82.7518 114.477 82.7477C114.406 82.7487 114.337 82.7235 114.284 82.677C114.261 82.6573 114.243 82.633 114.23 82.6056C114.217 82.5782 114.21 82.5484 114.21 82.5182C114.215 82.4529 114.246 82.3925 114.296 82.3499C114.346 82.3073 114.41 82.286 114.476 82.2907Z" fill="white"/>
<path d="M118.506 82.8411V81.9497H115.944V82.8411H118.506ZM115.982 82.3954H118.23V82.6183H115.984L115.982 82.3954Z" fill="white"/>
<path d="M110.272 117.377H142.975L143.058 109.579H110.269L110.272 117.377ZM142.769 109.802L142.69 117.154H110.561L110.557 109.802H142.769Z" fill="white"/>
<path d="M95.0856 156.523C95.0933 156.544 95.103 156.564 95.1143 156.584L95.2238 156.851L95.2859 157.005L95.396 156.715L95.4481 156.542C95.5275 156.323 95.7031 156.151 95.9068 156.151H103.9C104.061 156.151 104.209 156.275 104.301 156.423C104.326 156.467 104.347 156.514 104.361 156.563V156.574C104.368 156.593 104.374 156.616 104.38 156.635L104.517 157.003L104.684 156.582C104.693 156.564 104.699 156.544 104.703 156.524C104.734 156.428 104.749 156.328 104.748 156.228V149.689C104.748 149.177 104.368 148.795 103.901 148.795H95.9088C95.7771 148.799 95.6476 148.829 95.5279 148.884C95.4082 148.939 95.3007 149.018 95.2118 149.115C95.0958 149.268 95.0294 149.452 95.0215 149.644V156.23C95.0277 156.33 95.0493 156.429 95.0856 156.523ZM95.5115 149.168C95.6236 149.079 95.7608 149.026 95.9041 149.018H103.9C104.181 149.018 104.385 149.327 104.385 149.659V156.072C104.385 156.02 104.261 155.98 104.185 155.951C104.173 155.943 104.161 155.937 104.147 155.934C104.133 155.928 104.118 155.923 104.103 155.92C104.082 155.913 104.06 156.037 104.036 156.033C103.991 156.024 103.948 156.149 103.903 156.149H95.9108C95.7225 156.149 95.4668 156.087 95.3253 156.202L95.2445 149.655V149.647C95.2445 149.473 95.394 149.281 95.5115 149.167V149.168Z" fill="white"/>
<path d="M85.8051 156.525C85.8091 156.545 85.8652 156.564 85.8718 156.585L86.0054 156.852L86.0775 157.005L86.193 156.707L86.2451 156.537C86.3238 156.324 86.5068 156.147 86.7057 156.147H94.5544C94.6785 156.147 94.794 156.238 94.8882 156.334C94.9075 156.359 94.9247 156.385 94.9396 156.413C94.9736 156.463 95.001 156.516 95.021 156.573C95.0277 156.591 95.0337 156.613 95.0404 156.634L95.0684 156.711L95.1726 156.992L95.2327 156.846L95.3422 156.579C95.3502 156.561 95.2754 156.54 95.2834 156.519C95.3135 156.429 95.2487 156.331 95.2487 156.222V149.645C95.2487 149.44 95.2614 149.283 95.1566 149.131C95.0023 148.907 94.8348 148.794 94.5557 148.794H86.7084C86.6068 148.789 86.5052 148.804 86.4094 148.838C86.3136 148.873 86.2256 148.926 86.1502 148.994C86.1055 149.036 85.9653 149.067 85.9313 149.118C85.8244 149.272 85.6582 149.444 85.6582 149.638V156.232C85.6589 156.333 85.775 156.431 85.8051 156.525ZM86.231 149.168C86.2924 149.107 86.5568 149.018 86.6984 149.018H94.549C94.8248 149.018 95.0164 149.318 95.0164 149.645V156.072C95.0164 156.068 95.023 156.061 95.0164 156.057C94.9619 156.012 94.9009 155.977 94.8354 155.951C94.8239 155.943 94.811 155.937 94.7974 155.934C94.7829 155.928 94.7679 155.923 94.7527 155.92C94.7313 155.913 94.7093 156.037 94.6859 156.033C94.6412 156.024 94.5978 156.148 94.5524 156.148H86.7111C86.6169 156.148 86.5268 156.037 86.444 156.068C86.4226 156.076 86.4013 156.021 86.3772 156.032C86.3365 156.05 86.1349 156.041 86.0982 156.066C86.0788 156.078 85.8812 156.061 85.8812 156.076V149.647C85.8812 149.465 86.1109 149.281 86.231 149.167V149.168Z" fill="white"/>
<path d="M76.3912 156.233C76.3912 156.335 76.4533 156.433 76.4834 156.527C76.488 156.548 76.5201 156.567 76.5268 156.586L76.703 157.003L76.8693 156.536C76.9487 156.318 77.1296 156.146 77.3286 156.146H85.3502C85.5258 156.146 85.688 156.291 85.7801 156.467C85.7928 156.489 85.8035 156.534 85.8148 156.56L85.8636 156.701L85.9684 156.987L86.0285 156.846L86.1373 156.579C86.146 156.558 85.9911 156.538 85.9971 156.517C86.0271 156.425 85.8809 156.325 85.8809 156.223V149.645C85.8809 149.441 85.9757 149.283 85.8709 149.131C85.7174 148.907 85.6306 148.794 85.3548 148.794H77.3373C77.1296 148.794 76.8359 148.843 76.6823 148.994C76.5047 149.164 76.2944 149.373 76.2944 149.629V149.665L76.3912 156.233ZM77.0141 149.166C77.0951 149.078 77.2071 149.025 77.3266 149.018H85.3462C85.6219 149.018 85.6579 149.314 85.6579 149.636V156.07C85.435 156.034 85.668 156.003 85.6186 155.98C85.6012 155.972 85.6339 155.963 85.6152 155.955C85.5965 155.947 85.6012 155.94 85.5818 155.934C85.5712 155.928 85.5597 155.923 85.5478 155.92C85.5264 155.913 85.5111 156.037 85.4877 156.033C85.445 156.024 85.4062 156.149 85.3588 156.149H77.3413C77.2411 156.149 77.145 156.039 77.0549 156.074C77.0375 156.081 77.0208 156.023 77.0055 156.032C76.9901 156.04 76.9627 156.018 76.9434 156.032C76.9039 156.048 76.8661 156.069 76.8305 156.092L76.8259 149.652C76.823 149.472 76.8906 149.298 77.0141 149.167V149.166Z" fill="white"/>
<path d="M95.2118 159.157C95.2918 159.265 95.3969 159.352 95.518 159.41C95.6391 159.468 95.7725 159.496 95.9068 159.491H103.902C103.993 159.496 104.084 159.481 104.169 159.448C104.253 159.414 104.329 159.361 104.391 159.295C104.575 159.119 104.608 158.909 104.608 158.631V156.821C104.608 156.717 104.665 156.615 104.635 156.523C104.631 156.504 104.658 156.485 104.651 156.466C104.601 156.314 104.511 156.177 104.39 156.072C104.33 156.021 104.262 155.98 104.189 155.951C104.178 155.943 104.165 155.937 104.151 155.934C104.137 155.928 104.122 155.923 104.107 155.92C104.085 155.913 104.063 156.037 104.04 156.033C103.995 156.024 103.951 156.148 103.906 156.148H95.9108C95.7225 156.148 95.5449 156.087 95.404 156.202C95.3373 156.254 95.2799 156.253 95.2305 156.326C95.1871 156.378 95.1511 156.436 95.1236 156.498C95.1176 156.517 95.1109 156.52 95.1043 156.539C95.0787 156.598 95.0588 156.66 95.0448 156.723C95.0448 156.754 95.0215 156.778 95.0215 156.808V158.646C95.0215 158.85 95.1049 159.004 95.2118 159.157ZM95.9068 156.148H103.9C104.061 156.148 104.209 156.273 104.301 156.421C104.326 156.465 104.347 156.512 104.361 156.561V156.572C104.368 156.591 104.361 156.614 104.37 156.633C104.381 156.696 104.385 156.759 104.382 156.823V158.637C104.388 158.814 104.324 158.985 104.205 159.115C104.167 159.16 104.121 159.196 104.069 159.222C104.017 159.249 103.96 159.264 103.902 159.268H95.9108C95.635 159.268 95.2431 158.965 95.2431 158.637V156.819C95.2431 156.736 95.3379 156.613 95.368 156.54C95.4126 156.431 95.4866 156.337 95.5818 156.268C95.6769 156.199 95.7894 156.157 95.9068 156.148Z" fill="white"/>
<path d="M95.0598 156.808C95.0598 156.778 95.0598 156.746 95.0644 156.715L95.0364 156.64C95.0499 156.695 95.0578 156.751 95.0598 156.808ZM85.9299 159.157C86.0842 159.38 86.4287 159.491 86.7044 159.491H94.553C94.7607 159.491 94.9596 159.445 95.1152 159.295C95.1579 159.253 95.1152 159.225 95.1512 159.175C95.2627 159.016 95.2447 158.836 95.2447 158.637V156.819C95.2447 156.784 95.3221 156.748 95.3181 156.713C95.3115 156.646 95.3388 156.58 95.3181 156.521C95.3115 156.502 95.3255 156.485 95.3181 156.466C95.2941 156.394 95.2606 156.325 95.2186 156.262C95.1747 156.19 95.1187 156.127 95.0531 156.074C95.0478 156.068 95.042 156.062 95.0357 156.057C94.9786 156.012 94.9149 155.976 94.8468 155.951C94.8339 155.943 94.8196 155.937 94.8047 155.934C94.7896 155.928 94.774 155.923 94.758 155.92C94.7366 155.913 94.7133 156.037 94.6912 156.033C94.6465 156.024 94.6018 156.148 94.5577 156.148H86.7111C86.6169 156.148 86.5268 156.037 86.444 156.068C86.4226 156.076 86.4013 156.021 86.3772 156.032C86.3365 156.05 86.1349 156.041 86.0982 156.066C86.0768 156.078 85.8812 156.061 85.8812 156.074C85.8812 156.126 85.9186 156.187 85.8712 156.258C85.8238 156.329 85.8712 156.391 85.8431 156.466C85.8365 156.485 85.8685 156.504 85.8645 156.523C85.8451 156.584 85.7517 156.646 85.743 156.711C85.743 156.738 85.6582 156.767 85.6582 156.796V158.652C85.6589 158.854 85.8251 159.006 85.9299 159.157ZM86.7044 156.148H94.553C94.6772 156.148 94.7927 156.239 94.8868 156.335C94.9057 156.361 94.9229 156.387 94.9382 156.415C94.9722 156.464 94.9996 156.518 95.0197 156.574C95.0264 156.593 95.0137 156.614 95.0197 156.635C95.028 156.692 95.0296 156.751 95.0244 156.808V158.646C95.0322 158.819 94.9716 158.989 94.8555 159.118C94.8191 159.162 94.774 159.198 94.7232 159.223C94.6723 159.249 94.6166 159.264 94.5597 159.268H86.7131C86.4327 159.268 85.8812 158.961 85.8812 158.629V156.819C85.8812 156.734 86.0574 156.613 86.0855 156.538C86.1643 156.325 86.5054 156.148 86.7044 156.148Z" fill="white"/>
<path d="M77.3306 159.491H85.3502C85.5578 159.491 85.7588 159.445 85.915 159.295C85.9577 159.253 85.8349 159.224 85.8689 159.174C85.9804 159.012 85.8809 158.829 85.8809 158.629V156.819C85.8809 156.782 86.0398 156.744 86.0358 156.708C86.0291 156.642 86.0972 156.579 86.0779 156.518C86.0719 156.499 86.1059 156.481 86.0992 156.464C86.0712 156.389 85.9557 156.322 85.913 156.26C85.8636 156.186 85.6579 156.122 85.6579 156.072C85.435 156.036 85.668 156.005 85.6186 155.982C85.6012 155.974 85.6339 155.965 85.6152 155.957C85.5965 155.949 85.6012 155.942 85.5818 155.936C85.5712 155.93 85.5597 155.925 85.5478 155.922C85.5264 155.915 85.5111 156.039 85.4877 156.035C85.445 156.026 85.4062 156.15 85.3588 156.15H77.3413C77.2411 156.15 77.145 156.041 77.0549 156.076C77.0375 156.083 77.0208 156.025 77.0055 156.034C76.9901 156.042 76.9627 156.02 76.9434 156.034C76.9039 156.05 76.8661 156.071 76.8305 156.094C76.7038 156.194 76.6074 156.327 76.5521 156.479C76.5435 156.498 76.4413 156.513 76.4353 156.533C76.4093 156.617 76.2944 156.701 76.2944 156.792V158.64C76.2944 159.146 76.8666 159.491 77.3306 159.491ZM77.3306 156.148H85.3522C85.5278 156.148 85.69 156.294 85.7821 156.469C85.7948 156.494 85.7053 156.536 85.7154 156.567C85.7407 156.629 85.6593 156.721 85.6593 156.798V158.654C85.6593 158.827 85.6873 159.007 85.5738 159.121C85.5117 159.181 85.5071 159.271 85.3602 159.271H77.3413C77.0615 159.271 76.8325 158.981 76.8325 158.649V156.83C76.8319 156.733 76.847 156.638 76.8773 156.546C76.9541 156.325 77.1296 156.148 77.3286 156.148H77.3306Z" fill="white"/>
<path d="M110.307 98.6606L110.308 97.324H119.478L119.489 98.6606H110.307Z" fill="white"/>
<path d="M92.3476 115.618L92.3563 112.898L92.361 111.668L87.303 111.735L87.271 115.684L92.3476 115.618ZM87.5487 112.726L87.5554 111.964L92.106 111.904L92.102 112.905L92.0933 115.389L87.5274 115.45L87.5467 112.961L87.5487 112.726Z" fill="white"/>
<path d="M87.5468 112.958L92.102 112.902L92.3564 112.898L92.3611 111.668L87.3031 111.735L87.2944 112.963L87.5468 112.958ZM87.5555 111.964L92.106 111.904L92.102 112.666L87.5488 112.726L87.5555 111.964Z" fill="white"/>
<path d="M97.0826 123.724L100.07 123.657L101.422 123.617L101.375 118.905L97.4485 118.981L97.0532 118.991L97.0826 123.724ZM97.6114 119.223L100.032 119.179L100.949 119.16L100.815 123.4V123.413L100.148 123.427L99.9781 123.431L97.2909 123.479V119.227L97.6114 119.223Z" fill="white"/>
<path d="M100.032 119.179L100.057 122.269L100.068 123.431V123.657L101.42 123.617L101.373 118.905L100.025 118.938L100.032 119.179ZM100.818 123.4V123.413L100.209 123.427L100.373 122.544V119.177L100.992 119.16L100.818 123.4Z" fill="white"/>
<path d="M97.1215 130.374L100.126 130.322L101.488 130.299L101.439 125.511L100.083 125.534L97.0908 125.586L97.1215 130.374ZM100.088 125.77L100.346 125.766L101.187 125.751L101.229 130.06L100.385 130.075L100.127 130.079L97.3779 130.129L97.3525 125.82L100.088 125.77Z" fill="white"/>
<path d="M100.087 125.771L100.126 130.08V130.322L101.488 130.299L101.439 125.511L100.083 125.534L100.087 125.771ZM101.186 125.753L101.229 130.061L100.385 130.076L100.346 125.767L101.186 125.753Z" fill="white"/>
<path d="M97.1579 136.873L100.184 136.818L101.554 136.794L101.508 131.944L100.141 131.97L97.1299 132.022L97.1579 136.873ZM100.143 132.209L100.404 132.205L101.25 132.19L101.294 136.554L100.443 136.568L100.182 136.572L97.4163 136.622L97.3909 132.259L100.143 132.209Z" fill="white"/>
<path d="M100.036 132.209L100.128 136.572L100.157 136.818L101.541 136.794L101.394 131.944L99.9248 131.967L100.036 132.209ZM100.37 136.57L100.366 132.207L101.234 132.192L101.251 136.556L100.37 136.57Z" fill="white"/>
<path d="M78.3254 137L82.7732 137.051L82.7371 132.307H78.3101L78.3254 137ZM82.4781 132.529L82.5101 136.763H78.5865L78.5691 132.529H82.4781Z" fill="white"/>
<path d="M78.3258 137L79.7111 136.945V136.674L79.6918 132.456V132.307H78.3145L78.3258 137ZM79.4314 132.529L79.4508 136.763H78.5868L78.5695 132.529H79.4314Z" fill="white"/>
<path d="M78.3043 130.079H82.7213L82.6846 125.369L79.6562 125.399H78.2876L78.3043 130.079ZM82.4296 125.622L82.4616 129.856H78.5627L78.546 125.622H82.4296Z" fill="white"/>
<path d="M78.3041 130.079H79.6788V129.913L79.6621 125.648V125.399H78.2935L78.3041 130.079ZM79.4011 125.622L79.4204 129.856H78.5625L78.5458 125.622H79.4011Z" fill="white"/>
<path d="M78.2828 123.839H79.6501L82.6738 123.865L82.637 119.285L79.6287 119.383H78.2681L78.2828 123.839ZM79.63 119.607L82.382 119.529L82.414 123.674L79.6467 123.618H78.5391L78.5244 119.607H79.63Z" fill="white"/>
<path d="M78.1621 119.191L78.283 123.839H79.6503V123.629L79.5274 119.441L79.4193 119.219L78.1621 119.191ZM79.3926 123.617H78.5393L78.5246 119.606H79.3732L79.3926 123.617Z" fill="white"/>
<path d="M92.3952 144.876V143.568L92.3905 140.693L87.1877 140.783L87.177 143.657L87.1724 144.966L92.3952 144.876ZM87.4468 141.026L92.1302 140.945V143.573V144.634L87.4294 144.715V143.903V143.655L87.4468 141.026Z" fill="white"/>
<path d="M92.3952 144.876V143.568L92.1342 143.572L87.4401 143.653L87.177 143.657L87.1724 144.966L92.3952 144.876ZM87.4354 143.902L92.1322 143.82V144.632L87.4314 144.714L87.4354 143.902Z" fill="white"/>
<path d="M84.2923 134.299C84.3157 137.029 86.9375 139.263 90.1347 139.263C91.7644 139.263 93.3253 138.67 94.4182 137.637C95.389 136.72 95.9217 135.529 95.9151 134.291L95.8536 121.977C95.8403 119.2 93.2058 116.95 89.9832 116.95C88.3642 116.95 86.8093 117.534 85.7104 118.557C84.7496 119.452 84.2089 120.607 84.1748 121.827C84.1748 121.879 84.1748 121.933 84.1748 121.985L84.2923 134.299ZM85.9474 118.77C86.9782 117.808 88.4476 117.256 89.9765 117.256C93.0216 117.256 95.4511 119.371 95.4651 121.983V134.297V134.378C95.4651 135.503 95.0091 136.58 94.1231 137.416C93.095 138.387 91.6489 138.944 90.1107 138.944C87.0957 138.944 84.6361 136.85 84.6114 134.288L84.5006 121.975C84.4926 120.778 85.0087 119.645 85.9474 118.77Z" fill="white"/>
<path d="M70.5239 21.708L29.1155 0.894135L8.13525 22.8497L9.56064 22.9031L29.4326 1.76825L69.9084 22.3419L70.5239 21.708Z" fill="#0B2952"/>
<path d="M15.6533 23.0272L15.5605 27.7834L16.4011 27.7868L16.4939 23.0312L15.6533 23.0272Z" fill="#0B2952"/>
<path d="M8.00879 27.3424L23.66 27.4084L23.62 27.8195L8.00879 27.7534V27.3424Z" fill="#0B2952"/>
<path d="M8.00879 22.7376L23.4631 22.8043L23.6273 23.2154L8.00879 23.148V22.7376Z" fill="#0B2952"/>
<path d="M8.06374 27.7527H8.51172V22.7423H8.06374V27.7527Z" fill="#0B2952"/>
<path d="M23.2181 96.8276H35.4824V95.361H23.2181V96.8276Z" fill="#0B2952"/>
<path d="M23.2261 114.396H35.4551V113.37H23.2261V114.396Z" fill="#0B2952"/>
<path d="M23.2261 105.318H35.4551V104.292H23.2261V105.318Z" fill="#0B2952"/>
<path d="M23.2261 123.327H35.4551V122.3H23.2261V123.327Z" fill="url(#paint0_linear_59_3021)"/>
<path d="M23.2261 132.258H35.4551V131.232H23.2261V132.258Z" fill="url(#paint1_linear_59_3021)"/>
<path d="M23.2261 140.913H35.4551V139.887H23.2261V140.913Z" fill="url(#paint2_linear_59_3021)"/>
<path d="M23.2261 149.844H35.4551V148.817H23.2261V149.844Z" fill="url(#paint3_linear_59_3021)"/>
<path d="M34.9064 104.808L35.4546 103.999L23.398 95.8434L22.8498 96.6529L34.9064 104.808Z" fill="#0B2952"/>
<path d="M34.7614 122.762L35.3096 121.952L23.253 113.797L22.7048 114.606L34.7614 122.762Z" fill="#0B2952"/>
<path d="M34.9059 140.714L35.4541 139.904L23.3975 131.749L22.8493 132.558L34.9059 140.714Z" fill="url(#paint4_linear_59_3021)"/>
<path d="M35.257 140.666L34.6318 139.914L23.4355 149.214L24.0607 149.966L35.257 140.666Z" fill="url(#paint5_linear_59_3021)"/>
<path d="M35.068 122.447L34.4429 121.695L23.2466 130.995L23.8717 131.747L35.068 122.447Z" fill="url(#paint6_linear_59_3021)"/>
<path d="M35.0675 104.585L34.4424 103.833L23.2461 113.134L23.8712 113.885L35.0675 104.585Z" fill="#0B2952"/>
<path d="M34.9054 158.062L35.4536 157.252L23.397 149.097L22.8488 149.907L34.9054 158.062Z" fill="url(#paint7_linear_59_3021)"/>
<path d="M34.3989 157.063H35.4551L35.4551 95.3604H34.3989L34.3989 157.063Z" fill="#0B2952"/>
<path d="M22.561 157.121H23.6172L23.6172 95.4177H22.561L22.561 157.121Z" fill="#0B2952"/>
<path d="M23.3335 22.494H35.5625V21.4678H23.3335V22.494Z" fill="#0B2952"/>
<path d="M23.3335 31.5495H35.5625V30.5232H23.3335V31.5495Z" fill="#0B2952"/>
<path d="M23.3335 40.4801H35.5625V39.4538H23.3335V40.4801Z" fill="#0B2952"/>
<path d="M23.3335 49.1351H35.5625V48.1089H23.3335V49.1351Z" fill="#0B2952"/>
<path d="M23.3335 58.0664H35.5625V57.0402H23.3335V58.0664Z" fill="#0B2952"/>
<path d="M34.8698 30.9815L35.418 30.172L23.3614 22.0166L22.8132 22.8262L34.8698 30.9815Z" fill="#0B2952"/>
<path d="M35.0143 48.935L35.5625 48.1254L23.5059 39.9701L22.9577 40.7796L35.0143 48.935Z" fill="#0B2952"/>
<path d="M35.3615 48.8857L34.7363 48.1339L23.54 57.434L24.1652 58.1858L35.3615 48.8857Z" fill="#0B2952"/>
<path d="M35.1735 30.6679L34.5483 29.9161L23.352 39.2162L23.9772 39.968L35.1735 30.6679Z" fill="#0B2952"/>
<path d="M35.0138 66.2832L35.562 65.4737L23.5054 57.3183L22.9572 58.1278L35.0138 66.2832Z" fill="#0B2952"/>
<path d="M34.5058 65.3035H35.562L35.562 21.3944H34.5058L34.5058 65.3035Z" fill="#0B2952"/>
<path d="M22.6689 65.3442H23.7251L23.7251 21.4351H22.6689L22.6689 65.3442Z" fill="#0B2952"/>
<path d="M85.0767 22.1017L84.9839 29.2414L86.185 29.2487L86.2784 22.1097L85.0767 22.1017Z" fill="#0B2952"/>
<path d="M79.114 29.1867L78.4551 28.8631L85.2262 21.8889L85.8851 22.2125L79.114 29.1867Z" fill="#0B2952"/>
<path d="M64.4114 29.0058L63.7524 28.6822L70.5235 21.708L71.1825 22.031L64.4114 29.0058Z" fill="#0B2952"/>
<path d="M49.7078 28.9925L49.0488 28.6689L55.8199 21.6947L56.4789 22.0183L49.7078 28.9925Z" fill="#0B2952"/>
<path d="M49.705 28.5101L49.0848 28.8704L41.5532 22.3019L42.1734 21.9422L49.705 28.5101Z" fill="url(#paint8_linear_59_3021)"/>
<path d="M64.6273 28.4994L64.0071 28.8591L56.2266 22.0844L57.0958 21.9309L64.6273 28.4994Z" fill="#0B2952"/>
<path d="M79.2565 28.5955L78.6357 28.9551L70.7129 22.1017L71.725 22.0276L79.2565 28.5955Z" fill="#0B2952"/>
<path d="M35.4993 28.8991L34.8403 28.5755L41.6114 21.6012L42.2704 21.9249L35.4993 28.8991Z" fill="url(#paint9_linear_59_3021)"/>
<path d="M35.6589 28.2852L35.6509 28.8998L86.1858 29.2334L86.1938 28.6182L35.6589 28.2852Z" fill="#0B2952"/>
<path d="M35.3942 21.3911L35.3862 22.0056L86.2282 22.3419L86.2362 21.7274L35.3942 21.3911Z" fill="#0B2952"/>
<path d="M21.9957 65.8834H36.6855V64.7144H21.9957V65.8834Z" fill="#0B2952"/>
<path d="M22.7535 76.0578H36.6855V74.8887H22.7535V76.0578Z" fill="#0B2952"/>
<path d="M22.7535 85.9193H36.6855V84.7503H22.7535V85.9193Z" fill="#0B2952"/>
<path d="M22.7535 96.0943H36.6855V94.9252H22.7535V96.0943Z" fill="#0B2952"/>
<path d="M36.0597 85.692L36.6846 84.7692L22.9488 75.478L22.3239 76.4009L36.0597 85.692Z" fill="#0B2952"/>
<path d="M35.7408 84.7776L36.4531 85.6344L24.2382 95.7801L22.9844 95.373L35.7408 84.7776Z" fill="#0B2952"/>
<path d="M35.033 65.885L34.3203 65.028L22.7743 74.6186L23.487 75.4756L35.033 65.885Z" fill="#0B2952"/>
<path d="M35.482 96.0649H36.6851L36.6851 64.7143H35.482L35.482 96.0649Z" fill="#0B2952"/>
<path d="M21.9957 96.0943H23.1987L23.1987 64.7437H21.9957L21.9957 96.0943Z" fill="#0B2952"/>
<path d="M16.5173 158.05H41.3892V156.094H16.5173V158.05Z" fill="url(#paint10_linear_59_3021)"/>
<path d="M13.9242 159.571H43.7812V157.615H13.9242V159.571Z" fill="url(#paint11_linear_59_3021)"/>
<path d="M12.2129 164.33H45.394V159.05H12.2129V164.33Z" fill="url(#paint12_linear_59_3021)"/>
<path d="M42.5316 172.662C45.9334 171.254 47.5488 167.356 46.1398 163.956C44.7307 160.556 40.8308 158.942 37.429 160.35C34.0272 161.758 32.4118 165.656 33.8209 169.056C35.2299 172.456 39.1299 174.071 42.5316 172.662Z" fill="url(#paint13_linear_59_3021)"/>
<path d="M43.8086 170.332C45.9229 168.219 45.9229 164.793 43.8086 162.68C41.6944 160.567 38.2666 160.567 36.1524 162.68C34.0381 164.793 34.0381 168.219 36.1524 170.332C38.2666 172.445 41.6944 172.445 43.8086 170.332Z" fill="url(#paint14_linear_59_3021)"/>
<path d="M35.4324 168.604C35.3865 168.604 35.3417 168.59 35.3034 168.565C35.2652 168.539 35.2353 168.503 35.2175 168.461C34.8114 167.496 34.7166 166.429 34.9463 165.408C35.176 164.387 35.7187 163.464 36.4989 162.766C37.279 162.068 38.2576 161.631 39.2982 161.515C40.3387 161.4 41.3894 161.612 42.3037 162.122C42.3576 162.152 42.3973 162.203 42.414 162.262C42.4307 162.322 42.4231 162.385 42.3928 162.439C42.3625 162.493 42.3121 162.533 42.2525 162.549C42.193 162.566 42.1293 162.558 42.0754 162.528C41.2457 162.065 40.2923 161.873 39.348 161.978C38.4037 162.083 37.5157 162.48 36.808 163.113C36.1002 163.747 35.6079 164.585 35.3999 165.512C35.1918 166.438 35.2784 167.406 35.6474 168.281C35.6594 168.31 35.6657 168.34 35.6659 168.37C35.6662 168.401 35.6603 168.432 35.6488 168.46C35.6373 168.488 35.6202 168.514 35.5987 168.536C35.5771 168.558 35.5515 168.575 35.5232 168.587C35.4944 168.599 35.4635 168.604 35.4324 168.604Z" fill="white"/>
<path d="M37.5488 166.506C37.5488 166.996 37.6944 167.476 37.9673 167.884C38.2401 168.292 38.6279 168.61 39.0816 168.798C39.5353 168.986 40.0345 169.035 40.5161 168.939C40.9978 168.844 41.4402 168.607 41.7874 168.26C42.1347 167.913 42.3711 167.471 42.467 166.99C42.5628 166.508 42.5136 166.009 42.3257 165.556C42.1377 165.103 41.8195 164.715 41.4112 164.442C41.0029 164.17 40.5228 164.024 40.0317 164.024C39.7057 164.024 39.3828 164.088 39.0816 164.213C38.7803 164.338 38.5066 164.52 38.2761 164.751C38.0455 164.981 37.8626 165.255 37.7378 165.556C37.6131 165.857 37.5488 166.18 37.5488 166.506Z" fill="url(#paint15_linear_59_3021)"/>
<path d="M20.0766 172.794C23.5013 171.443 25.1812 167.572 23.8287 164.149C22.4762 160.727 18.6036 159.048 15.1789 160.399C11.7543 161.751 10.0744 165.622 11.4269 169.044C12.7793 172.467 16.652 174.146 20.0766 172.794Z" fill="url(#paint16_linear_59_3021)"/>
<path d="M21.4615 170.418C23.5757 168.305 23.5757 164.879 21.4615 162.766C19.3472 160.653 15.9194 160.653 13.8052 162.766C11.691 164.879 11.691 168.305 13.8052 170.418C15.9194 172.531 19.3472 172.531 21.4615 170.418Z" fill="url(#paint17_linear_59_3021)"/>
<path d="M13.0875 168.69C13.0418 168.69 12.997 168.676 12.9589 168.651C12.9208 168.626 12.891 168.59 12.8732 168.548C12.4668 167.583 12.3718 166.516 12.6013 165.495C12.8309 164.474 13.3736 163.55 14.1537 162.852C14.9339 162.154 15.9125 161.717 16.9532 161.602C17.9938 161.486 19.0446 161.698 19.9588 162.209C19.987 162.223 20.012 162.243 20.0323 162.267C20.0526 162.291 20.0678 162.319 20.077 162.349C20.0862 162.379 20.0892 162.411 20.0859 162.442C20.0825 162.473 20.0728 162.504 20.0574 162.531C20.0419 162.559 20.0211 162.583 19.9961 162.602C19.9711 162.621 19.9425 162.635 19.9119 162.643C19.8814 162.651 19.8496 162.653 19.8184 162.648C19.7872 162.643 19.7573 162.632 19.7305 162.616C18.9009 162.153 17.9475 161.961 17.0034 162.065C16.0592 162.17 15.1714 162.567 14.4636 163.2C13.7559 163.834 13.2636 164.672 13.0555 165.598C12.8473 166.525 12.9337 167.493 13.3025 168.368C13.3145 168.396 13.3208 168.427 13.321 168.457C13.3213 168.488 13.3154 168.518 13.3039 168.547C13.2924 168.575 13.2753 168.601 13.2538 168.623C13.2322 168.644 13.2066 168.662 13.1783 168.674C13.1495 168.685 13.1186 168.691 13.0875 168.69Z" fill="white"/>
<path d="M15.2026 166.592C15.2025 167.083 15.3481 167.563 15.6209 167.971C15.8937 168.379 16.2815 168.698 16.7353 168.886C17.1891 169.074 17.6885 169.123 18.1703 169.027C18.6521 168.931 19.0947 168.695 19.4421 168.348C19.7895 168.001 20.0261 167.559 20.122 167.077C20.2179 166.596 20.1688 166.096 19.9808 165.643C19.7929 165.189 19.4745 164.802 19.0661 164.529C18.6577 164.256 18.1775 164.11 17.6862 164.11C17.0276 164.11 16.396 164.372 15.9303 164.837C15.4646 165.303 15.2028 165.934 15.2026 166.592Z" fill="url(#paint18_linear_59_3021)"/>
<path d="M19.303 72.6855H39.6116C39.6592 72.6855 39.6978 72.647 39.6978 72.5994V72.0089C39.6978 71.9614 39.6592 71.9228 39.6116 71.9228H19.303C19.2554 71.9228 19.2169 71.9614 19.2169 72.0089V72.5994C19.2169 72.647 19.2554 72.6855 19.303 72.6855Z" fill="#1F4E8D"/>
<path d="M19.5483 81.4826H39.2407V80.7199H19.5483V81.4826Z" fill="#1F4E8D"/>
<path d="M38.4767 81.3439H39.2397V71.9228H38.4767V81.3439Z" fill="#1F4E8D"/>
<path d="M36.8344 81.3439H37.2163V71.9228H36.8344V81.3439Z" fill="#1F4E8D"/>
<path d="M34.9404 81.3439H35.3223V71.9228H34.9404V81.3439Z" fill="#1F4E8D"/>
<path d="M33.0463 81.3439H33.4282V71.9228H33.0463V81.3439Z" fill="#1F4E8D"/>
<path d="M31.1518 81.3439H31.5337V71.9228H31.1518V81.3439Z" fill="#1F4E8D"/>
<path d="M29.1289 81.3439H29.5107V71.9228H29.1289V81.3439Z" fill="#1F4E8D"/>
<path d="M27.2348 81.3439H27.6167V71.9228H27.2348V81.3439Z" fill="#1F4E8D"/>
<path d="M25.102 81.3439H25.4839V71.9228H25.102V81.3439Z" fill="#1F4E8D"/>
<path d="M23.2075 81.3439H23.5894V71.9228H23.2075V81.3439Z" fill="#1F4E8D"/>
<path d="M21.33 81.3439H21.7119V71.9228H21.33V81.3439Z" fill="#1F4E8D"/>
<path d="M19.5484 81.3439H20.3115V71.9228H19.5484V81.3439Z" fill="#1F4E8D"/>
<path d="M34.7539 21.697L35.0342 21.2831L25.5928 14.8967L25.3125 15.3106L34.7539 21.697Z" fill="#0B2952"/>
<path d="M32.9565 14.5433L33.2368 14.1294L26.675 9.69082L26.3947 10.1047L32.9565 14.5433Z" fill="#0B2952"/>
<path d="M31.2183 9.49055L31.4985 9.07666L27.6476 6.47177L27.3673 6.88567L31.2183 9.49055Z" fill="#0B2952"/>
<path d="M32.9302 13.9576L32.6084 13.575L23.4926 21.2334L23.8144 21.6159L32.9302 13.9576Z" fill="#0B2952"/>
<path d="M31.4166 9.38049L31.063 9.02709L24.7375 15.3491L25.0911 15.7025L31.4166 9.38049Z" fill="#0B2952"/>
<path d="M30.1743 4.76644L29.8452 4.43758L27.4248 6.85663L27.7539 7.18549L30.1743 4.76644Z" fill="#0B2952"/>
<path d="M35.5617 21.4678L29.1151 0.894135L22.6685 21.6947H23.9783L29.1151 3.82942L34.5062 21.3944L35.5617 21.4678Z" fill="#0B2952"/>
<path d="M28.947 3.3143C29.7737 3.3143 30.4438 2.64451 30.4438 1.8183C30.4438 0.992078 29.7737 0.322296 28.947 0.322296C28.1203 0.322296 27.4502 0.992078 27.4502 1.8183C27.4502 2.64451 28.1203 3.3143 28.947 3.3143Z" fill="#1F4E8D"/>
<path d="M29.1475 33.4945H51.6619V29.6171C51.6619 28.0725 51.3575 26.5431 50.7661 25.1161C50.1747 23.6891 49.3078 22.3926 48.215 21.3004C47.1222 20.2083 45.8249 19.342 44.3971 18.751C42.9693 18.16 41.439 17.8558 39.8936 17.8559H33.3368C32.7867 17.8558 32.2418 17.9641 31.7335 18.1745C31.2252 18.3848 30.7633 18.6933 30.3743 19.0821C29.9853 19.4709 29.6767 19.9325 29.4662 20.4406C29.2557 20.9486 29.1474 21.4931 29.1475 22.043V33.4945Z" fill="#1F4E8D"/>
<path d="M38.691 33.3237L38.5428 20.5276C38.5404 20.3185 38.4962 20.1119 38.4127 19.9201C38.3291 19.7283 38.208 19.5552 38.0564 19.4109C37.9048 19.2667 37.7258 19.1543 37.53 19.0803C37.3342 19.0063 37.1256 18.9723 36.9164 18.9803L31.986 19.1644C31.65 19.177 31.332 19.3193 31.0987 19.5613C30.8654 19.8033 30.735 20.1262 30.7349 20.4623V33.3237H38.691Z" fill="#2762B0"/>
<path d="M31.8184 28.2866H37.2328V21.4578C37.2331 21.2351 37.1481 21.0207 36.9953 20.8586C36.8425 20.6964 36.6334 20.5988 36.411 20.5857L33.4734 20.4115C32.5734 20.3582 31.821 21.279 31.821 22.4387L31.8184 28.2866Z" fill="#1F4E8D"/>
<path d="M51.6617 28.6195H44.7184C44.4431 28.6204 44.1784 28.5133 43.9813 28.3211C43.7843 28.1289 43.6707 27.867 43.6649 27.5919L43.4419 17.936C46.9363 18.3784 52.0617 21.2529 51.6617 28.6195Z" fill="#2762B0"/>
<path d="M38.4326 81.4826H20.2671V84.903H38.4326V81.4826Z" fill="#2762B0"/>
<path d="M61.753 29.5797H61.2148V48.4572H61.753V29.5797Z" fill="#0B2952"/>
<path d="M63.9976 29.1079V48.1749H64.5357V29.1079H63.9976Z" fill="#0B2952"/>
<path d="M61.4241 51.4952L60.7652 47.9007C60.7329 47.7245 60.7398 47.5433 60.7852 47.3701C60.8307 47.1968 60.9136 47.0356 61.0283 46.8979C61.1429 46.7602 61.2863 46.6493 61.4485 46.5731C61.6107 46.4968 61.7877 46.4571 61.9669 46.4567H63.6046C63.801 46.4568 63.9953 46.4974 64.1753 46.5761C64.3553 46.6547 64.517 46.7697 64.6504 46.9138C64.7838 47.0579 64.886 47.2281 64.9505 47.4135C65.015 47.5989 65.0405 47.7957 65.0253 47.9914L64.7369 51.6887C64.7171 51.93 64.6464 52.1644 64.5293 52.3764C64.4123 52.5883 64.2516 52.7731 64.0579 52.9185C63.4624 53.3702 62.6212 54.3084 62.4382 56.072C62.3047 57.3398 62.8388 58.5041 63.9738 59.1127C64.5947 59.4463 65.4239 59.6912 66.1282 59.5244C66.5195 59.4256 67.9128 58.8985 68.0083 58.5015C69.4103 55.3073 71.0126 58.3347 68.8428 60.177C68.1478 60.8089 67.0202 61.2839 66.1216 61.4294C61.4481 62.1861 56.9169 57.209 60.914 53.1834C61.1287 52.9638 61.2872 52.6957 61.376 52.4018C61.4648 52.1079 61.4813 51.7969 61.4241 51.4952Z" fill="#0B2952"/>
<path d="M64.7936 47.7132C65.2006 46.7313 64.734 45.6056 63.7516 45.1989C62.7691 44.7922 61.6428 45.2585 61.2359 46.2404C60.8289 47.2223 61.2955 48.348 62.2779 48.7547C63.2603 49.1614 64.3867 48.6952 64.7936 47.7132Z" fill="#1F4E8D"/>
<path d="M64.1613 46.9765C64.1615 47.2026 64.0945 47.4237 63.9689 47.6117C63.8433 47.7998 63.6648 47.9464 63.4558 48.033C63.2468 48.1196 63.0169 48.1424 62.795 48.0983C62.5731 48.0543 62.3692 47.9455 62.2092 47.7857C62.0492 47.6258 61.9402 47.4222 61.896 47.2004C61.8519 46.9787 61.8745 46.7488 61.961 46.5399C62.0476 46.331 62.1941 46.1525 62.3822 46.0269C62.5703 45.9012 62.7915 45.8342 63.0177 45.8342C63.3209 45.8342 63.6117 45.9545 63.8261 46.1687C64.0406 46.3829 64.1612 46.6735 64.1613 46.9765Z" fill="#91B3FA"/>
<path d="M64.5814 30.6905C65.3917 29.8806 65.3917 28.5675 64.5814 27.7576C63.7711 26.9478 62.4573 26.9477 61.6469 27.7576C60.8366 28.5675 60.8366 29.8806 61.6469 30.6905C62.4573 31.5004 63.7711 31.5004 64.5814 30.6905Z" fill="#1F4E8D"/>
<path d="M63.9855 30.0951C64.4668 29.614 64.4668 28.8341 63.9855 28.3531C63.5042 27.872 62.7239 27.872 62.2426 28.3531C61.7613 28.8341 61.7613 29.614 62.2426 30.0951C62.7239 30.5761 63.5042 30.5761 63.9855 30.0951Z" fill="#91B3FA"/>
<path d="M99.5769 134.329H78.3677V175.21H99.5769V134.329Z" fill="#93E5FF"/>
<path d="M102.416 137.862H77.3574L72.7734 119.44H97.0538L103.407 136.317C103.484 136.483 103.518 136.666 103.506 136.848C103.493 137.031 103.435 137.207 103.336 137.361C103.237 137.515 103.101 137.642 102.94 137.73C102.78 137.817 102.599 137.863 102.416 137.862Z" fill="url(#paint19_linear_59_3021)"/>
<path d="M97.0511 119.693L71.4556 120.702V118.684L95.3734 117.672C96.3001 117.672 97.0511 118.22 97.0511 118.896V119.693Z" fill="#0B2952"/>
<g opacity="0.89">
<path d="M95.0198 145.433H83.0499C83.0086 145.433 82.9751 145.466 82.9751 145.508V164.032C82.9751 164.073 83.0086 164.107 83.0499 164.107H95.0198C95.0611 164.107 95.0946 164.073 95.0946 164.032V145.508C95.0946 145.466 95.0611 145.433 95.0198 145.433Z" fill="white"/>
<path d="M88.5229 146.442H83.9003C83.8774 146.442 83.8589 146.46 83.8589 146.483V163.055C83.8589 163.078 83.8774 163.097 83.9003 163.097H88.5229C88.5458 163.097 88.5643 163.078 88.5643 163.055V146.483C88.5643 146.46 88.5458 146.442 88.5229 146.442Z" fill="#1F4E8D"/>
<path d="M94.1699 146.442H89.5473C89.5244 146.442 89.5059 146.46 89.5059 146.483V163.055C89.5059 163.078 89.5244 163.097 89.5473 163.097H94.1699C94.1928 163.097 94.2113 163.078 94.2113 163.055V146.483C94.2113 146.46 94.1928 146.442 94.1699 146.442Z" fill="#1F4E8D"/>
</g>
<path d="M25.2983 175.21H4.76872C4.58847 175.21 4.4156 175.139 4.28814 175.011C4.16068 174.884 4.08907 174.711 4.08907 174.531L4.08907 134.329H25.2983L25.2983 175.21Z" fill="#93E5FF"/>
<path d="M1.24852 137.862H26.3067L33.8736 119.575L6.61292 119.441L0.260426 136.318C0.183609 136.483 0.149812 136.666 0.16215 136.848C0.174489 137.03 0.232567 137.207 0.331026 137.36C0.429485 137.514 0.565151 137.641 0.725504 137.729C0.885856 137.816 1.06573 137.862 1.24852 137.862Z" fill="url(#paint20_linear_59_3021)"/>
<path d="M6.61133 119.693L36.2287 119.81L36.9357 118.161L8.42127 117.672C7.41983 117.672 6.614 118.22 6.614 118.896L6.61133 119.693Z" fill="#0B2952"/>
<g opacity="0.89">
<path d="M8.64572 164.107H20.6157C20.657 164.107 20.6904 164.073 20.6904 164.032L20.6904 145.508C20.6904 145.466 20.657 145.433 20.6157 145.433H8.64572C8.60442 145.433 8.57095 145.466 8.57095 145.508L8.57095 164.032C8.57095 164.073 8.60442 164.107 8.64572 164.107Z" fill="white"/>
<path d="M15.1426 163.097H19.7652C19.7881 163.097 19.8066 163.079 19.8066 163.056L19.8066 146.484C19.8066 146.461 19.7881 146.443 19.7652 146.443H15.1426C15.1197 146.443 15.1012 146.461 15.1012 146.484L15.1012 163.056C15.1012 163.079 15.1197 163.097 15.1426 163.097Z" fill="#1F4E8D"/>
<path d="M9.49561 163.097H14.1183C14.1411 163.097 14.1597 163.079 14.1597 163.056L14.1597 146.484C14.1597 146.461 14.1411 146.443 14.1183 146.443H9.49561C9.47275 146.443 9.45422 146.461 9.45422 146.484L9.45422 163.056C9.45422 163.079 9.47275 163.097 9.49561 163.097Z" fill="#1F4E8D"/>
</g>
<path d="M51.8328 108.76C51.8328 108.76 23.0794 130.456 22.3677 130.456V175.527C22.3677 175.722 22.4062 175.916 22.481 176.096C22.5558 176.277 22.6654 176.441 22.8036 176.579C22.9418 176.717 23.1058 176.826 23.2864 176.901C23.4669 176.976 23.6604 177.014 23.8558 177.014H79.9807C80.3304 177.014 80.6658 176.875 80.9131 176.628C81.1604 176.381 81.2993 176.046 81.2993 175.696V130.456L51.8328 108.76Z" fill="#65D9FF"/>
<path d="M41.5915 172.112H59.4399C59.4961 172.112 59.5499 172.134 59.5896 172.174C59.6293 172.214 59.6516 172.268 59.6516 172.324V175.21H41.3799V172.324C41.3799 172.268 41.4022 172.214 41.4419 172.174C41.4816 172.134 41.5354 172.112 41.5915 172.112Z" fill="#1F4E8D"/>
<path d="M41.5915 174.569H59.4399C59.4961 174.569 59.5499 174.591 59.5896 174.631C59.6293 174.671 59.6516 174.724 59.6516 174.781V177.667H41.3799V174.781C41.3799 174.724 41.4022 174.671 41.4419 174.631C41.4816 174.591 41.5354 174.569 41.5915 174.569Z" fill="#31A9DA"/>
<path d="M44.5175 147.796H56.5134C56.5765 147.796 56.6369 147.821 56.6815 147.866C56.7261 147.91 56.7511 147.971 56.7511 148.034V172.112H44.2798V148.034C44.2798 147.971 44.3048 147.91 44.3494 147.866C44.394 147.821 44.4544 147.796 44.5175 147.796Z" fill="#0B2952"/>
<path opacity="0.89" d="M55.8705 146.16H45.1604C45.0448 146.16 44.9302 146.137 44.8234 146.093C44.7166 146.048 44.6195 145.984 44.5377 145.902C44.4559 145.82 44.3911 145.723 44.3468 145.616C44.3026 145.51 44.2798 145.395 44.2798 145.28V144.511C44.2798 144.288 44.3644 144.073 44.5166 143.91C44.6687 143.747 44.8771 143.648 45.0996 143.633L55.8091 142.889C55.9296 142.881 56.0506 142.897 56.1645 142.938C56.2784 142.978 56.3828 143.041 56.4711 143.124C56.5595 143.206 56.6299 143.306 56.6781 143.417C56.7263 143.527 56.7511 143.647 56.7511 143.768V145.28C56.7511 145.395 56.7283 145.51 56.6841 145.616C56.6398 145.723 56.575 145.82 56.4932 145.902C56.4114 145.984 56.3143 146.048 56.2075 146.093C56.1007 146.137 55.9861 146.16 55.8705 146.16Z" fill="white"/>
<path opacity="0.9" d="M66.6559 135.358H66.5377C63.4573 135.358 60.7607 137.537 60.7607 140.616V146.16H66.6559V135.358Z" fill="#1F4E8D"/>
<path opacity="0.9" d="M60.7607 147.796V164.106C60.7607 164.655 61.4063 165.507 61.9558 165.507H66.6559V147.796H60.7607Z" fill="#1F4E8D"/>
<path opacity="0.9" d="M68.2654 135.358H67.9663V146.16H73.8608V140.616C73.8608 137.537 71.3458 135.358 68.2654 135.358Z" fill="#1F4E8D"/>
<path opacity="0.9" d="M67.9663 165.507H72.8473C73.3975 165.507 73.8608 164.655 73.8608 164.106V147.796H67.9663V165.507Z" fill="#1F4E8D"/>
<path opacity="0.9" d="M34.1847 135.358H34.0665C30.9861 135.358 28.2896 137.537 28.2896 140.616V146.16H34.1847V135.358Z" fill="#1F4E8D"/>
<path opacity="0.9" d="M28.2896 147.796V164.106C28.2896 164.655 28.9351 165.508 29.4846 165.508H34.1847V147.796H28.2896Z" fill="#1F4E8D"/>
<path opacity="0.9" d="M35.7942 135.358H35.4951V146.16H41.3896V140.616C41.3896 137.537 38.8747 135.358 35.7942 135.358Z" fill="#1F4E8D"/>
<path opacity="0.9" d="M35.4951 165.507H40.3762C40.9263 165.507 41.3896 164.655 41.3896 164.106V147.796H35.4951V165.507Z" fill="#1F4E8D"/>
<path d="M48.7836 165.576H46.9016C46.6009 165.574 46.313 165.455 46.1004 165.242C45.8878 165.03 45.7678 164.742 45.7666 164.441V150.531C45.767 150.23 45.8865 149.941 46.0992 149.728C46.3119 149.515 46.6004 149.394 46.9016 149.393H48.7836C49.0848 149.394 49.3733 149.515 49.586 149.728C49.7986 149.941 49.9182 150.23 49.9186 150.531V164.438C49.9182 164.739 49.7986 165.028 49.586 165.241C49.3733 165.454 49.0848 165.574 48.7836 165.576ZM46.9016 149.529C46.636 149.529 46.3813 149.635 46.1934 149.823C46.0056 150.01 45.9001 150.265 45.9001 150.53V164.437C45.9001 164.703 46.0056 164.957 46.1934 165.145C46.3813 165.333 46.636 165.438 46.9016 165.438H48.7836C49.0492 165.438 49.3039 165.333 49.4917 165.145C49.6796 164.957 49.7851 164.703 49.7851 164.437V150.531C49.7851 150.265 49.6796 150.011 49.4917 149.823C49.3039 149.636 49.0492 149.53 48.7836 149.53L46.9016 149.529Z" fill="white"/>
<path d="M54.036 165.576H52.1539C51.8527 165.575 51.5639 165.456 51.3506 165.243C51.1373 165.031 51.0169 164.742 51.0156 164.441V150.531C51.016 150.229 51.136 149.94 51.3494 149.727C51.5628 149.514 51.8521 149.394 52.1539 149.393H54.036C54.3378 149.394 54.6271 149.514 54.8405 149.727C55.0539 149.94 55.1739 150.229 55.1743 150.531V164.438C55.1739 164.74 55.0539 165.029 54.8405 165.242C54.6271 165.455 54.3378 165.575 54.036 165.576ZM52.1539 149.529C51.8883 149.529 51.6336 149.635 51.4458 149.823C51.258 150.01 51.1525 150.265 51.1525 150.53V164.437C51.1525 164.703 51.258 164.957 51.4458 165.145C51.6336 165.333 51.8883 165.438 52.1539 165.438H54.036C54.3016 165.438 54.5563 165.333 54.7441 165.145C54.9319 164.957 55.0374 164.703 55.0374 164.437V150.531C55.0374 150.265 54.9319 150.011 54.7441 149.823C54.5563 149.636 54.3016 149.53 54.036 149.53L52.1539 149.529Z" fill="white"/>
<path d="M48.7836 170.264H46.9016C46.6004 170.263 46.3119 170.142 46.0992 169.929C45.8865 169.716 45.767 169.427 45.7666 169.126V167.525C45.767 167.224 45.8865 166.935 46.0992 166.722C46.3119 166.509 46.6004 166.388 46.9016 166.387H48.7836C49.0848 166.388 49.3733 166.509 49.586 166.722C49.7986 166.935 49.9182 167.224 49.9186 167.525V169.126C49.9182 169.427 49.7986 169.716 49.586 169.929C49.3733 170.142 49.0848 170.263 48.7836 170.264ZM46.9016 166.527C46.636 166.527 46.3813 166.633 46.1934 166.82C46.0056 167.008 45.9001 167.263 45.9001 167.528V169.129C45.9001 169.395 46.0056 169.649 46.1934 169.837C46.3813 170.025 46.636 170.13 46.9016 170.13H48.7836C49.0492 170.13 49.3039 170.025 49.4917 169.837C49.6796 169.649 49.7851 169.395 49.7851 169.129V167.528C49.7851 167.263 49.6796 167.008 49.4917 166.82C49.3039 166.633 49.0492 166.527 48.7836 166.527H46.9016Z" fill="white"/>
<path d="M54.036 170.264H52.1539C51.8521 170.263 51.5628 170.143 51.3494 169.93C51.136 169.717 51.016 169.428 51.0156 169.126V167.525C51.016 167.223 51.136 166.934 51.3494 166.721C51.5628 166.507 51.8521 166.387 52.1539 166.387H54.036C54.3378 166.387 54.6271 166.507 54.8405 166.721C55.0539 166.934 55.1739 167.223 55.1743 167.525V169.126C55.1739 169.428 55.0539 169.717 54.8405 169.93C54.6271 170.143 54.3378 170.263 54.036 170.264ZM52.1539 166.527C51.8883 166.527 51.6336 166.633 51.4458 166.82C51.258 167.008 51.1525 167.263 51.1525 167.528V169.129C51.1525 169.395 51.258 169.649 51.4458 169.837C51.6336 170.025 51.8883 170.13 52.1539 170.13H54.036C54.3016 170.13 54.5563 170.025 54.7441 169.837C54.9319 169.649 55.0374 169.395 55.0374 169.129V167.528C55.0374 167.263 54.9319 167.008 54.7441 166.82C54.5563 166.633 54.3016 166.527 54.036 166.527H52.1539Z" fill="white"/>
<path d="M74.3697 166.526H60.1786C59.7873 166.525 59.4122 166.37 59.1356 166.093C58.859 165.816 58.7035 165.441 58.7031 165.05V140.493C58.7052 138.625 59.4483 136.835 60.7692 135.515C62.0901 134.195 63.8811 133.452 65.7493 133.45H68.799C70.6671 133.452 72.4579 134.195 73.7787 135.515C75.0995 136.836 75.8424 138.625 75.8445 140.493V165.048C75.8449 165.439 75.6897 165.815 75.4132 166.092C75.1367 166.369 74.7613 166.525 74.3697 166.526ZM72.0597 134.407C71.0575 133.868 69.937 133.587 68.799 133.588H65.7493C63.9177 133.59 62.1617 134.319 60.8665 135.613C59.5712 136.907 58.8425 138.662 58.84 140.493V165.048C58.8403 165.402 58.981 165.742 59.2312 165.992C59.4814 166.243 59.8209 166.385 60.1753 166.386H74.3664C74.7208 166.385 75.0602 166.243 75.3104 165.992C75.5606 165.742 75.7013 165.402 75.7016 165.048V140.493C75.7009 139.243 75.3613 138.017 74.7188 136.945C74.0763 135.873 73.155 134.995 72.053 134.405L72.0597 134.407Z" fill="white"/>
<path d="M41.9064 166.526H27.7152C27.3235 166.525 26.948 166.369 26.6713 166.092C26.3946 165.815 26.2394 165.439 26.2397 165.048V140.493C26.2419 138.625 26.9849 136.835 28.3058 135.515C29.6268 134.195 31.4177 133.452 33.2859 133.45H36.3356C38.2039 133.452 39.995 134.194 41.3159 135.515C42.6369 136.835 43.3799 138.625 43.3818 140.493V165.048C43.3822 165.439 43.2269 165.815 42.9503 166.092C42.6736 166.369 42.2981 166.525 41.9064 166.526ZM33.2859 133.588C31.4544 133.591 29.6985 134.319 28.4033 135.613C27.1081 136.907 26.3793 138.662 26.3766 140.493V165.048C26.377 165.403 26.5181 165.743 26.769 165.994C27.02 166.245 27.3602 166.386 27.7152 166.386H41.9064C42.2614 166.386 42.6019 166.245 42.853 165.994C43.1041 165.743 43.2453 165.403 43.2456 165.048V140.493C43.2435 138.662 42.5148 136.906 41.2194 135.611C39.924 134.317 38.1676 133.588 36.3356 133.586L33.2859 133.588Z" fill="white"/>
<path d="M69.6102 109.234H64.7358V117.166H69.6102V109.234Z" fill="#1F4E8D"/>
<path d="M63.7443 108.084H70.5969C70.7612 108.084 70.9188 108.149 71.0349 108.265C71.1511 108.381 71.2164 108.539 71.2164 108.703V110.52H63.3384V108.491C63.3384 108.383 63.3811 108.28 63.4572 108.203C63.5333 108.127 63.6365 108.084 63.7443 108.084Z" fill="#0B2952"/>
<path d="M20.5605 132.73L51.8329 108.76L81.5197 131.773C81.7672 131.966 82.0599 132.092 82.3699 132.14C82.6799 132.188 82.997 132.156 83.2912 132.047C83.5854 131.938 83.8469 131.756 84.0509 131.518C84.255 131.28 84.3948 130.994 84.4573 130.686L84.8738 128.651L51.8376 103.496L19.8582 127.907C19.5799 128.12 19.3795 128.418 19.2879 128.756C19.1963 129.093 19.2186 129.452 19.3514 129.776L20.5605 132.73Z" fill="#0B2952"/>
<defs>
<linearGradient id="paint0_linear_59_3021" x1="48.7195" y1="250.523" x2="7.7073" y2="-20.0528" gradientUnits="userSpaceOnUse">
<stop stop-color="#4F52FF"/>
<stop offset="1" stop-color="#4042E2"/>
</linearGradient>
<linearGradient id="paint1_linear_59_3021" x1="47.395" y1="250.727" x2="6.38132" y2="-19.8535" gradientUnits="userSpaceOnUse">
<stop stop-color="#4F52FF"/>
<stop offset="1" stop-color="#4042E2"/>
</linearGradient>
<linearGradient id="paint2_linear_59_3021" x1="46.1111" y1="250.921" x2="5.09746" y2="-19.6589" gradientUnits="userSpaceOnUse">
<stop stop-color="#4F52FF"/>
<stop offset="1" stop-color="#4042E2"/>
</linearGradient>
<linearGradient id="paint3_linear_59_3021" x1="44.7865" y1="251.12" x2="3.77428" y2="-19.4567" gradientUnits="userSpaceOnUse">
<stop stop-color="#4F52FF"/>
<stop offset="1" stop-color="#4042E2"/>
</linearGradient>
<linearGradient id="paint4_linear_59_3021" x1="45.9664" y1="251.017" x2="5.29196" y2="-19.9585" gradientUnits="userSpaceOnUse">
<stop stop-color="#4F52FF"/>
<stop offset="1" stop-color="#4042E2"/>
</linearGradient>
<linearGradient id="paint5_linear_59_3021" x1="45.2592" y1="251.368" x2="4.20619" y2="-19.5491" gradientUnits="userSpaceOnUse">
<stop stop-color="#4F52FF"/>
<stop offset="1" stop-color="#4042E2"/>
</linearGradient>
<linearGradient id="paint6_linear_59_3021" x1="47.7806" y1="250.986" x2="6.72738" y2="-19.9316" gradientUnits="userSpaceOnUse">
<stop stop-color="#4F52FF"/>
<stop offset="1" stop-color="#4042E2"/>
</linearGradient>
<linearGradient id="paint7_linear_59_3021" x1="43.3885" y1="251.403" x2="2.71406" y2="-19.571" gradientUnits="userSpaceOnUse">
<stop stop-color="#4F52FF"/>
<stop offset="1" stop-color="#4042E2"/>
</linearGradient>
<linearGradient id="paint8_linear_59_3021" x1="79.0907" y1="245.921" x2="38.0777" y2="-24.6573" gradientUnits="userSpaceOnUse">
<stop stop-color="#4F52FF"/>
<stop offset="1" stop-color="#4042E2"/>
</linearGradient>
<linearGradient id="paint9_linear_59_3021" x1="72.1989" y1="246.965" x2="31.186" y2="-23.6124" gradientUnits="userSpaceOnUse">
<stop stop-color="#4F52FF"/>
<stop offset="1" stop-color="#4042E2"/>
</linearGradient>
<linearGradient id="paint10_linear_59_3021" x1="28.2956" y1="141.025" x2="29.0339" y2="159.06" gradientUnits="userSpaceOnUse">
<stop stop-color="#FDF53F"/>
<stop offset="0.45" stop-color="#EDA150"/>
<stop offset="0.82" stop-color="#E05E5E"/>
<stop offset="1" stop-color="#D93C65"/>
</linearGradient>
<linearGradient id="paint11_linear_59_3021" x1="42.9354" y1="251.4" x2="1.92289" y2="-19.1761" gradientUnits="userSpaceOnUse">
<stop stop-color="#4F52FF"/>
<stop offset="1" stop-color="#4042E2"/>
</linearGradient>
<linearGradient id="paint12_linear_59_3021" x1="42.4278" y1="251.477" x2="1.41493" y2="-19.0995" gradientUnits="userSpaceOnUse">
<stop stop-color="#4F52FF"/>
<stop offset="1" stop-color="#4042E2"/>
</linearGradient>
<linearGradient id="paint13_linear_59_3021" x1="48.2631" y1="165.895" x2="34.9914" y2="165.908" gradientUnits="userSpaceOnUse">
<stop stop-color="#09005D"/>
<stop offset="1" stop-color="#1A0F91"/>
</linearGradient>
<linearGradient id="paint14_linear_59_3021" x1="38.6943" y1="158.813" x2="38.6943" y2="181.79" gradientUnits="userSpaceOnUse">
<stop stop-color="#5AB6FF"/>
<stop offset="1" stop-color="#2F68E3"/>
</linearGradient>
<linearGradient id="paint15_linear_59_3021" x1="37.5849" y1="162.499" x2="44.3566" y2="173.599" gradientUnits="userSpaceOnUse">
<stop stop-color="#09005D"/>
<stop offset="1" stop-color="#1A0F91"/>
</linearGradient>
<linearGradient id="paint16_linear_59_3021" x1="23.5016" y1="165.952" x2="10.1564" y2="165.918" gradientUnits="userSpaceOnUse">
<stop stop-color="#09005D"/>
<stop offset="1" stop-color="#1A0F91"/>
</linearGradient>
<linearGradient id="paint17_linear_59_3021" x1="16.2557" y1="158.9" x2="16.2557" y2="181.877" gradientUnits="userSpaceOnUse">
<stop stop-color="#5AB6FF"/>
<stop offset="1" stop-color="#2F68E3"/>
</linearGradient>
<linearGradient id="paint18_linear_59_3021" x1="15.2394" y1="162.586" x2="22.0104" y2="173.686" gradientUnits="userSpaceOnUse">
<stop stop-color="#09005D"/>
<stop offset="1" stop-color="#1A0F91"/>
</linearGradient>
<linearGradient id="paint19_linear_59_3021" x1="-6.05428" y1="181.771" x2="125.899" y2="106.956" gradientUnits="userSpaceOnUse">
<stop stop-color="#1F4E8D"/>
<stop offset="1" stop-color="#35C0ED"/>
</linearGradient>
<linearGradient id="paint20_linear_59_3021" x1="4.24885" y1="144.925" x2="20.2893" y2="123.526" gradientUnits="userSpaceOnUse">
<stop stop-color="#1F4E8D"/>
<stop offset="1" stop-color="#35C0ED"/>
</linearGradient>
</defs>
</svg>
