
<svg width="114" height="135" viewBox="0 0 114 135" fill="none" xmlns="http://www.w3.org/2000/svg">
<path d="M112 3.41772H1V135H112V3.41772Z" fill="url(#paint0_linear_59_1975)"/>
<path d="M112 3.41772H1V12.8165H112V3.41772Z" fill="#1F4E8D"/>
<path d="M25.1457 82.8364H11.501V99.918H25.1457V82.8364Z" fill="#0B2952"/>
<path d="M24.3379 83.6507H12.3135V99.2456H24.3379V83.6507Z" fill="#A8E8FD"/>
<path d="M18.675 83.1668H17.8154V99.6913H18.675V83.1668Z" fill="#0B2952"/>
<path d="M24.5168 91.0202H12.1138V91.5466H24.5168V91.0202Z" fill="#0B2952"/>
<path d="M24.5168 87.0985H12.1138V87.3976H24.5168V87.0985Z" fill="#0B2952"/>
<path d="M24.5168 95.4726H12.1138V95.7717H24.5168V95.4726Z" fill="#0B2952"/>
<path d="M25.1448 99.9717H11.7603V100.464H25.1448V99.9717Z" fill="#A8E8FD"/>
<path d="M24.6672 114.701H11.0225V131.782H24.6672V114.701Z" fill="#0B2952"/>
<path d="M23.8545 115.518H11.8301V131.113H23.8545V115.518Z" fill="#A8E8FD"/>
<path d="M18.1965 115.031H17.3369V131.556H18.1965V115.031Z" fill="#0B2952"/>
<path d="M24.0383 122.884H11.6353V123.411H24.0383V122.884Z" fill="#0B2952"/>
<path d="M24.0383 118.963H11.6353V119.262H24.0383V118.963Z" fill="#0B2952"/>
<path d="M24.0383 127.337H11.6353V127.636H24.0383V127.337Z" fill="#0B2952"/>
<path d="M24.6663 131.836H11.2817V132.328H24.6663V131.836Z" fill="#A8E8FD"/>
<path d="M102.679 114.494H89.0347V131.575H102.679V114.494Z" fill="#0B2952"/>
<path d="M101.867 115.311H89.8423V130.906H101.867V115.311Z" fill="#A8E8FD"/>
<path d="M96.2087 114.824H95.3491V131.349H96.2087V114.824Z" fill="#0B2952"/>
<path d="M102.05 122.678H89.6475V123.204H102.05V122.678Z" fill="#0B2952"/>
<path d="M102.05 118.756H89.6475V119.055H102.05V118.756Z" fill="#0B2952"/>
<path d="M102.05 127.13H89.6475V127.429H102.05V127.13Z" fill="#0B2952"/>
<path d="M102.679 131.629H89.2939V132.121H102.679V131.629Z" fill="#A8E8FD"/>
<path d="M64.4035 82.0253H50.7588V99.107H64.4035V82.0253Z" fill="#0B2952"/>
<path d="M63.5957 82.8397H51.5713V98.4345H63.5957V82.8397Z" fill="#A8E8FD"/>
<path d="M57.9329 82.3557H57.0732V98.8803H57.9329V82.3557Z" fill="#0B2952"/>
<path d="M63.7746 90.2092H51.3716V90.7355H63.7746V90.2092Z" fill="#0B2952"/>
<path d="M63.7746 86.2875H51.3716V86.5865H63.7746V86.2875Z" fill="#0B2952"/>
<path d="M63.7746 94.6615H51.3716V94.9606H63.7746V94.6615Z" fill="#0B2952"/>
<path d="M64.4026 99.1607H51.0181V99.6528H64.4026V99.1607Z" fill="#A8E8FD"/>
<path d="M103.955 82.8797H90.3105V99.9614H103.955V82.8797Z" fill="#0B2952"/>
<path d="M103.147 83.6941H91.123V99.2889H103.147V83.6941Z" fill="#A8E8FD"/>
<path d="M97.4846 83.2102H96.625V99.7347H97.4846V83.2102Z" fill="#0B2952"/>
<path d="M103.326 91.0636H90.9233V91.59H103.326V91.0636Z" fill="#0B2952"/>
<path d="M103.326 87.1419H90.9233V87.441H103.326V87.1419Z" fill="#0B2952"/>
<path d="M103.326 95.516H90.9233V95.815H103.326V95.516Z" fill="#0B2952"/>
<path d="M103.954 100.015H90.5698V100.507H103.954V100.015Z" fill="#A8E8FD"/>
<path d="M26.4023 34.1924H12.4023V18.0056C17.1315 15.3221 22.1493 15.3281 26.4023 18.0056V34.1924Z" fill="#0B2952"/>
<path d="M25.5685 33.5569H13.2319V18.7792C17.0795 16.2388 21.8167 16.3274 25.5685 18.7792V33.5569Z" fill="#A8E8FD"/>
<path d="M19.7585 16.69H18.877V33.9792H19.7585V16.69Z" fill="#0B2952"/>
<path d="M25.7586 25.4879H13.0327V25.9867H25.7586V25.4879Z" fill="#0B2952"/>
<path d="M25.7586 21.5008H13.0327V21.7846H25.7586V21.5008Z" fill="#0B2952"/>
<path d="M25.7586 29.8443H13.0327V30.128H25.7586V29.8443Z" fill="#0B2952"/>
<path d="M26.4003 34.2417H12.668V34.7081H26.4003V34.2417Z" fill="#A8E8FD"/>
<path d="M63.4023 34.1924H49.4023V18.0056C54.1315 15.3221 59.1493 15.3281 63.4023 18.0056V34.1924Z" fill="#0B2952"/>
<path d="M62.5685 33.5569H50.2319V18.7792C54.0795 16.2388 58.8167 16.3274 62.5685 18.7792V33.5569Z" fill="#A8E8FD"/>
<path d="M56.7585 16.69H55.877V33.9792H56.7585V16.69Z" fill="#0B2952"/>
<path d="M62.7586 25.4879H50.0327V25.9867H62.7586V25.4879Z" fill="#0B2952"/>
<path d="M62.7586 21.5008H50.0327V21.7846H62.7586V21.5008Z" fill="#0B2952"/>
<path d="M62.7586 29.8443H50.0327V30.128H62.7586V29.8443Z" fill="#0B2952"/>
<path d="M63.4003 34.2417H49.668V34.7081H63.4003V34.2417Z" fill="#A8E8FD"/>
<path d="M104.402 34.1924H90.4023V18.0056C95.1315 15.3221 100.149 15.3281 104.402 18.0056V34.1924Z" fill="#0B2952"/>
<path d="M103.569 33.5569H91.2319V18.7792C95.0795 16.2388 99.8167 16.3274 103.569 18.7792V33.5569Z" fill="#A8E8FD"/>
<path d="M97.7585 16.69H96.877V33.9792H97.7585V16.69Z" fill="#0B2952"/>
<path d="M103.759 25.4879H91.0327V25.9867H103.759V25.4879Z" fill="#0B2952"/>
<path d="M103.759 21.5008H91.0327V21.7846H103.759V21.5008Z" fill="#0B2952"/>
<path d="M103.759 29.8443H91.0327V30.128H103.759V29.8443Z" fill="#0B2952"/>
<path d="M104.4 34.2417H90.668V34.7081H104.4V34.2417Z" fill="#A8E8FD"/>
<path d="M66.3945 106.887H46.4023V134.028H66.3945V106.887Z" fill="#0B2952"/>
<path d="M55.7261 107.844H47.2944V112.296H55.7261V107.844Z" fill="#CEF3FF"/>
<path d="M65.085 107.844H57.2969V112.296H65.085V107.844Z" fill="#CEF3FF"/>
<path d="M65.0857 112.871H47.2944V133.551H65.0857V112.871Z" fill="#1F4E8D"/>
<path d="M61.1895 115.328H51.2217V125.174H61.1895V115.328Z" fill="#0B2952"/>
<path d="M60.5499 115.721H51.8682V124.876H60.5499V115.721Z" fill="#CEF3FF"/>
<path d="M56.6912 115.503H56.084V125.077H56.6912V115.503Z" fill="#0B2952"/>
<path d="M60.9778 118.185H51.5103V118.592H60.9778V118.185Z" fill="#0B2952"/>
<path d="M60.9407 121.681H51.4731V122.088H60.9407V121.681Z" fill="#0B2952"/>
<path d="M64.1291 50.615H50.4844V67.6966H64.1291V50.615Z" fill="#0B2952"/>
<path d="M63.3213 51.4294H51.2969V67.0242H63.3213V51.4294Z" fill="#A8E8FD"/>
<path d="M57.6584 50.9454H56.7988V67.4699H57.6584V50.9454Z" fill="#0B2952"/>
<path d="M63.5002 58.7988H51.0972V59.3252H63.5002V58.7988Z" fill="#0B2952"/>
<path d="M63.5002 54.8771H51.0972V55.1762H63.5002V54.8771Z" fill="#0B2952"/>
<path d="M63.5002 63.2512H51.0972V63.5503H63.5002V63.2512Z" fill="#0B2952"/>
<path d="M64.1282 67.7503H50.7437V68.2425H64.1282V67.7503Z" fill="#A8E8FD"/>
<path d="M103.955 49.557H90.3105V66.6386H103.955V49.557Z" fill="#0B2952"/>
<path d="M103.147 50.3713H91.123V65.9662H103.147V50.3713Z" fill="#A8E8FD"/>
<path d="M97.4846 49.8874H96.625V66.4119H97.4846V49.8874Z" fill="#0B2952"/>
<path d="M103.326 57.7408H90.9233V58.2672H103.326V57.7408Z" fill="#0B2952"/>
<path d="M103.326 53.8191H90.9233V54.1182H103.326V53.8191Z" fill="#0B2952"/>
<path d="M103.326 62.1932H90.9233V62.4923H103.326V62.1932Z" fill="#0B2952"/>
<path d="M103.954 66.6923H90.5698V67.1845H103.954V66.6923Z" fill="#A8E8FD"/>
<path d="M25.1457 50.615H11.501V67.6966H25.1457V50.615Z" fill="#0B2952"/>
<path d="M24.3379 51.4294H12.3135V67.0242H24.3379V51.4294Z" fill="#A8E8FD"/>
<path d="M18.675 50.9454H17.8154V67.4699H18.675V50.9454Z" fill="#0B2952"/>
<path d="M24.5168 58.7988H12.1138V59.3252H24.5168V58.7988Z" fill="#0B2952"/>
<path d="M24.5168 54.8771H12.1138V55.1762H24.5168V54.8771Z" fill="#0B2952"/>
<path d="M24.5168 63.2512H12.1138V63.5503H24.5168V63.2512Z" fill="#0B2952"/>
<path d="M25.1448 67.7503H11.7603V68.2425H25.1448V67.7503Z" fill="#A8E8FD"/>
<path d="M112.402 37.3814H0.402344V39.3863H112.402V37.3814Z" fill="#0B2952"/>
<path d="M112.402 7.97542H0.402344V9.98037H112.402V7.97542Z" fill="#285EA8"/>
<path d="M113.402 3.96552H1.40234V5.97047H113.402V3.96552Z" fill="#285EA8"/>
<path d="M112.402 74.8071H0.402344V76.8121H112.402V74.8071Z" fill="#0B2952"/>
<defs>
<linearGradient id="paint0_linear_59_1975" x1="310.62" y1="71.2352" x2="-84.397" y2="61.9651" gradientUnits="userSpaceOnUse">
<stop stop-color="#3ACFFF"/>
<stop offset="0.956731" stop-color="#7EE0FF"/>
</linearGradient>
</defs>
</svg>
