
<svg width="112" height="202" viewBox="0 0 112 202" fill="none" xmlns="http://www.w3.org/2000/svg">
<path d="M111.5 5.11392H0.5V202H111.5V5.11392Z" fill="url(#paint0_linear_59_537)"/>
<path d="M111.5 5.11392H0.5V19.1772H111.5V5.11392Z" fill="#1F4E8D"/>
<path d="M24.6457 123.948H11.001V149.507H24.6457V123.948Z" fill="#0B2952"/>
<path d="M23.8379 125.166H11.8135V148.501H23.8379V125.166Z" fill="#A8E8FD"/>
<path d="M18.175 124.442H17.3154V149.168H18.175V124.442Z" fill="#0B2952"/>
<path d="M24.0173 136.193H11.6143V136.981H24.0173V136.193Z" fill="#0B2952"/>
<path d="M24.0173 130.325H11.6143V130.773H24.0173V130.325Z" fill="#0B2952"/>
<path d="M24.0173 142.855H11.6143V143.303H24.0173V142.855Z" fill="#0B2952"/>
<path d="M24.6443 149.587H11.2598V150.324H24.6443V149.587Z" fill="#A8E8FD"/>
<path d="M24.1672 171.626H10.5225V197.185H24.1672V171.626Z" fill="#0B2952"/>
<path d="M23.3545 172.85H11.3301V196.184H23.3545V172.85Z" fill="#A8E8FD"/>
<path d="M17.6965 172.12H16.8369V196.846H17.6965V172.12Z" fill="#0B2952"/>
<path d="M23.5388 183.872H11.1357V184.659H23.5388V183.872Z" fill="#0B2952"/>
<path d="M23.5388 178.004H11.1357V178.451H23.5388V178.004Z" fill="#0B2952"/>
<path d="M23.5388 190.534H11.1357V190.981H23.5388V190.534Z" fill="#0B2952"/>
<path d="M24.1658 197.266H10.7812V198.002H24.1658V197.266Z" fill="#A8E8FD"/>
<path d="M102.179 171.316H88.5342V196.876H102.179V171.316Z" fill="#0B2952"/>
<path d="M101.366 172.54H89.3418V195.874H101.366V172.54Z" fill="#A8E8FD"/>
<path d="M95.7082 171.811H94.8486V196.536H95.7082V171.811Z" fill="#0B2952"/>
<path d="M101.55 183.562H89.1475V184.35H101.55V183.562Z" fill="#0B2952"/>
<path d="M101.55 177.694H89.1475V178.141H101.55V177.694Z" fill="#0B2952"/>
<path d="M101.55 190.224H89.1475V190.672H101.55V190.224Z" fill="#0B2952"/>
<path d="M102.178 196.956H88.793V197.692H102.178V196.956Z" fill="#A8E8FD"/>
<path d="M63.9035 122.734H50.2588V148.293H63.9035V122.734Z" fill="#0B2952"/>
<path d="M63.0957 123.953H51.0713V147.287H63.0957V123.953Z" fill="#A8E8FD"/>
<path d="M57.4329 123.229H56.5732V147.954H57.4329V123.229Z" fill="#0B2952"/>
<path d="M63.2751 134.98H50.8721V135.767H63.2751V134.98Z" fill="#0B2952"/>
<path d="M63.2751 129.112H50.8721V129.559H63.2751V129.112Z" fill="#0B2952"/>
<path d="M63.2751 141.642H50.8721V142.089H63.2751V141.642Z" fill="#0B2952"/>
<path d="M63.9022 148.374H50.5176V149.11H63.9022V148.374Z" fill="#A8E8FD"/>
<path d="M103.455 124.013H89.8105V149.572H103.455V124.013Z" fill="#0B2952"/>
<path d="M102.647 125.231H90.623V148.566H102.647V125.231Z" fill="#A8E8FD"/>
<path d="M96.9846 124.507H96.125V149.233H96.9846V124.507Z" fill="#0B2952"/>
<path d="M102.827 136.258H90.4238V137.046H102.827V136.258Z" fill="#0B2952"/>
<path d="M102.827 130.39H90.4238V130.838H102.827V130.39Z" fill="#0B2952"/>
<path d="M102.827 142.92H90.4238V143.368H102.827V142.92Z" fill="#0B2952"/>
<path d="M103.454 149.652H90.0693V150.389H103.454V149.652Z" fill="#A8E8FD"/>
<path d="M25 52.2284H11V28.0082C15.7291 23.9928 20.747 24.0018 25 28.0082V52.2284Z" fill="#0B2952"/>
<path d="M24.1657 51.2775H11.8291V29.1657C15.6766 25.3644 20.4139 25.497 24.1657 29.1657V51.2775Z" fill="#A8E8FD"/>
<path d="M18.3562 26.0396H17.4746V51.9093H18.3562V26.0396Z" fill="#0B2952"/>
<path d="M24.3567 39.2038H11.6309V39.9503H24.3567V39.2038Z" fill="#0B2952"/>
<path d="M24.3567 33.238H11.6309V33.6626H24.3567V33.238Z" fill="#0B2952"/>
<path d="M24.3567 45.7223H11.6309V46.1468H24.3567V45.7223Z" fill="#0B2952"/>
<path d="M24.998 52.3022H11.2656V53H24.998V52.3022Z" fill="#A8E8FD"/>
<path d="M64 52.2284H50V28.0082C54.7291 23.9928 59.747 24.0018 64 28.0082V52.2284Z" fill="#0B2952"/>
<path d="M63.1657 51.2775H50.8291V29.1657C54.6766 25.3644 59.4139 25.497 63.1657 29.1657V51.2775Z" fill="#A8E8FD"/>
<path d="M57.3562 26.0396H56.4746V51.9093H57.3562V26.0396Z" fill="#0B2952"/>
<path d="M63.3567 39.2038H50.6309V39.9503H63.3567V39.2038Z" fill="#0B2952"/>
<path d="M63.3567 33.238H50.6309V33.6626H63.3567V33.238Z" fill="#0B2952"/>
<path d="M63.3567 45.7223H50.6309V46.1468H63.3567V45.7223Z" fill="#0B2952"/>
<path d="M63.998 52.3022H50.2656V53H63.998V52.3022Z" fill="#A8E8FD"/>
<path d="M103 52.2284H89V28.0082C93.7291 23.9928 98.747 24.0018 103 28.0082V52.2284Z" fill="#0B2952"/>
<path d="M102.166 51.2775H89.8291V29.1657C93.6766 25.3644 98.4139 25.497 102.166 29.1657V51.2775Z" fill="#A8E8FD"/>
<path d="M96.3562 26.0396H95.4746V51.9093H96.3562V26.0396Z" fill="#0B2952"/>
<path d="M102.357 39.2038H89.6309V39.9503H102.357V39.2038Z" fill="#0B2952"/>
<path d="M102.357 33.238H89.6309V33.6626H102.357V33.238Z" fill="#0B2952"/>
<path d="M102.357 45.7223H89.6309V46.1468H102.357V45.7223Z" fill="#0B2952"/>
<path d="M102.998 52.3022H89.2656V53H102.998V52.3022Z" fill="#A8E8FD"/>
<path d="M65.4482 167.481H48.9824V200.833H65.4482V167.481Z" fill="#1F4E8D"/>
<path d="M64.3742 168.7H49.7207V200.244H64.3742V168.7Z" fill="#0B2952"/>
<path d="M63.6291 75.735H49.9844V101.294H63.6291V75.735Z" fill="#0B2952"/>
<path d="M62.8213 76.9536H50.7969V100.288H62.8213V76.9536Z" fill="#A8E8FD"/>
<path d="M57.1584 76.2294H56.2988V100.955H57.1584V76.2294Z" fill="#0B2952"/>
<path d="M63.0007 87.9805H50.5977V88.7681H63.0007V87.9805Z" fill="#0B2952"/>
<path d="M63.0007 82.1124H50.5977V82.56H63.0007V82.1124Z" fill="#0B2952"/>
<path d="M63.0007 94.6426H50.5977V95.0901H63.0007V94.6426Z" fill="#0B2952"/>
<path d="M63.6277 101.375H50.2432V102.111H63.6277V101.375Z" fill="#A8E8FD"/>
<path d="M103.455 74.1519H89.8105V99.7111H103.455V74.1519Z" fill="#0B2952"/>
<path d="M102.647 75.3705H90.623V98.7049H102.647V75.3705Z" fill="#A8E8FD"/>
<path d="M96.9846 74.6463H96.125V99.3719H96.9846V74.6463Z" fill="#0B2952"/>
<path d="M102.827 86.3974H90.4238V87.185H102.827V86.3974Z" fill="#0B2952"/>
<path d="M102.827 80.5293H90.4238V80.9768H102.827V80.5293Z" fill="#0B2952"/>
<path d="M102.827 93.0594H90.4238V93.5069H102.827V93.0594Z" fill="#0B2952"/>
<path d="M103.454 99.7914H90.0693V100.528H103.454V99.7914Z" fill="#A8E8FD"/>
<path d="M24.6457 75.735H11.001V101.294H24.6457V75.735Z" fill="#0B2952"/>
<path d="M23.8379 76.9536H11.8135V100.288H23.8379V76.9536Z" fill="#A8E8FD"/>
<path d="M18.175 76.2294H17.3154V100.955H18.175V76.2294Z" fill="#0B2952"/>
<path d="M24.0173 87.9805H11.6143V88.7681H24.0173V87.9805Z" fill="#0B2952"/>
<path d="M24.0173 82.1124H11.6143V82.56H24.0173V82.1124Z" fill="#0B2952"/>
<path d="M24.0173 94.6426H11.6143V95.0901H24.0173V94.6426Z" fill="#0B2952"/>
<path d="M24.6443 101.375H11.2598V102.111H24.6443V101.375Z" fill="#A8E8FD"/>
<defs>
<linearGradient id="paint0_linear_59_537" x1="310.12" y1="106.589" x2="-85.0174" y2="100.392" gradientUnits="userSpaceOnUse">
<stop stop-color="#3ACFFF"/>
<stop offset="0.956731" stop-color="#7EE0FF"/>
</linearGradient>
</defs>
</svg>
