
<svg width="184" height="146" viewBox="0 0 184 146" fill="none" xmlns="http://www.w3.org/2000/svg">
<path d="M89.839 127.146C134.729 127.146 171.12 120.012 171.12 111.211C171.12 102.411 134.729 95.2761 89.839 95.2761C44.9488 95.2761 8.55811 102.411 8.55811 111.211C8.55811 120.012 44.9488 127.146 89.839 127.146Z" fill="#A8E8FD" fill-opacity="0.3"/>
<path d="M163.195 121.477H19.7132C19.3305 121.48 18.9512 121.406 18.597 121.261C18.2428 121.117 17.9208 120.903 17.6495 120.633C17.3783 120.363 17.1631 120.042 17.0164 119.689C16.8698 119.336 16.7945 118.957 16.795 118.574V117.356H166.094V118.574C166.095 118.955 166.02 119.332 165.875 119.685C165.729 120.037 165.516 120.357 165.246 120.626C164.977 120.896 164.657 121.11 164.305 121.256C163.953 121.402 163.576 121.477 163.195 121.477Z" fill="#0B2952"/>
<path d="M150.518 94.6255H32.371L16.795 117.36H166.094L150.518 94.6255Z" fill="white"/>
<path d="M148.486 19.6793H34.4063C33.8826 19.6793 33.3804 19.8873 33.0101 20.2577C32.6398 20.628 32.4318 21.1303 32.4318 21.654V94.6255H150.457V21.654C150.458 21.3949 150.407 21.1382 150.308 20.8986C150.21 20.659 150.064 20.4413 149.881 20.2579C149.698 20.0745 149.481 19.9289 149.242 19.8297C149.002 19.7304 148.746 19.6793 148.486 19.6793Z" fill="#0B2952"/>
<path d="M146.847 25.8889H36.0424V88.8115H146.847V25.8889Z" fill="#A8E8FD"/>
<path d="M163.195 121.762H19.7131C19.2931 121.764 18.8769 121.683 18.4883 121.524C18.0998 121.365 17.7465 121.13 17.4488 120.834C17.1512 120.538 16.915 120.185 16.7538 119.798C16.5926 119.41 16.5096 118.994 16.5096 118.574V117.356C16.5096 117.281 16.5397 117.208 16.5932 117.155C16.6467 117.101 16.7193 117.071 16.795 117.071H166.094C166.17 117.071 166.242 117.101 166.296 117.155C166.349 117.208 166.379 117.281 166.379 117.356V118.574C166.38 118.992 166.298 119.407 166.138 119.794C165.978 120.181 165.744 120.532 165.448 120.828C165.152 121.124 164.801 121.359 164.415 121.52C164.028 121.68 163.614 121.762 163.195 121.762ZM17.0994 117.645V118.574C17.0994 119.268 17.3746 119.933 17.8647 120.424C18.3547 120.914 19.0195 121.191 19.7131 121.192H163.195C163.889 121.191 164.553 120.914 165.043 120.424C165.533 119.933 165.809 119.268 165.809 118.574V117.642L17.0994 117.645Z" fill="#0B2952"/>
<path d="M166.094 117.645H16.795C16.7435 117.644 16.6931 117.63 16.649 117.603C16.6049 117.576 16.5687 117.538 16.5439 117.493C16.5171 117.448 16.5029 117.397 16.5029 117.345C16.5029 117.293 16.5171 117.241 16.5439 117.196L32.116 94.4657C32.1421 94.4271 32.1772 94.3954 32.2184 94.3736C32.2595 94.3517 32.3053 94.3402 32.3519 94.3401H150.518C150.565 94.3398 150.611 94.3512 150.652 94.3731C150.693 94.395 150.728 94.4268 150.754 94.4657L166.33 117.196C166.359 117.24 166.375 117.29 166.378 117.342C166.38 117.393 166.369 117.445 166.345 117.491C166.321 117.537 166.285 117.575 166.241 117.603C166.197 117.63 166.146 117.645 166.094 117.645ZM17.3353 117.075H165.554L150.37 94.9108H32.5231L17.3353 117.075Z" fill="#0B2952"/>
<path d="M150.461 94.9108H32.4318C32.3565 94.9099 32.2844 94.8795 32.2311 94.8262C32.1778 94.7729 32.1475 94.7008 32.1465 94.6255V21.654C32.1465 21.0546 32.3846 20.4797 32.8084 20.0558C33.2322 19.632 33.807 19.3939 34.4064 19.3939H148.487C149.084 19.3998 149.655 19.6398 150.078 20.0624C150.501 20.485 150.741 21.0564 150.746 21.654V94.6255C150.745 94.7008 150.715 94.7729 150.662 94.8262C150.608 94.8795 150.536 94.9099 150.461 94.9108ZM32.7172 94.3401H150.176V21.6654C150.175 21.2177 149.996 20.7886 149.68 20.4719C149.363 20.1553 148.934 19.977 148.487 19.976H34.4064C33.9584 19.976 33.5287 20.154 33.2119 20.4708C32.8951 20.7877 32.7172 21.2174 32.7172 21.6654V94.3401Z" fill="#0B2952"/>
<path d="M146.847 89.0969H36.0423C35.9669 89.0959 35.8949 89.0655 35.8416 89.0122C35.7883 88.9589 35.7579 88.8869 35.757 88.8115V25.8889C35.7579 25.8136 35.7883 25.7416 35.8416 25.6882C35.8949 25.6349 35.9669 25.6046 36.0423 25.6036H146.847C146.922 25.6046 146.994 25.6349 147.047 25.6882C147.101 25.7416 147.131 25.8136 147.132 25.8889V88.8115C147.131 88.8869 147.101 88.9589 147.047 89.0122C146.994 89.0655 146.922 89.0959 146.847 89.0969ZM36.3276 88.5147H146.561V26.1743H36.3276V88.5147Z" fill="#0B2952"/>
<path d="M121.797 91.4179H61.0879V94.1765H121.797V91.4179Z" fill="white"/>
<path d="M86.2931 22.7156C86.2931 23.0836 86.184 23.4433 85.9796 23.7493C85.7752 24.0553 85.4846 24.2938 85.1447 24.4346C84.8047 24.5754 84.4306 24.6123 84.0697 24.5405C83.7089 24.4687 83.3774 24.2915 83.1172 24.0313C82.857 23.7711 82.6798 23.4395 82.608 23.0786C82.5362 22.7177 82.5731 22.3436 82.7139 22.0036C82.8547 21.6636 83.0932 21.373 83.3991 21.1686C83.705 20.9641 84.0647 20.855 84.4327 20.855C84.9261 20.855 85.3993 21.051 85.7482 21.3999C86.0971 21.7489 86.2931 22.2221 86.2931 22.7156Z" fill="#67A4E9"/>
<path d="M112.853 115.804H70.0362C69.9844 115.804 69.9335 115.79 69.8892 115.763C69.8449 115.736 69.8089 115.698 69.7851 115.652C69.759 115.607 69.7452 115.557 69.7452 115.505C69.7452 115.454 69.759 115.403 69.7851 115.359L74.2517 108.841C74.2777 108.802 74.3129 108.771 74.354 108.749C74.3951 108.727 74.441 108.715 74.4875 108.715H108.371C108.418 108.715 108.464 108.726 108.505 108.748C108.546 108.77 108.581 108.802 108.607 108.841L113.074 115.359C113.103 115.401 113.121 115.451 113.124 115.502C113.128 115.554 113.117 115.606 113.093 115.652C113.069 115.696 113.035 115.733 112.993 115.76C112.951 115.786 112.903 115.802 112.853 115.804ZM70.5802 115.233H112.313L108.238 109.286H74.6549L70.5802 115.233Z" fill="#29275F"/>
<path d="M47.8669 100.721H39.961C39.9113 100.72 39.8626 100.707 39.8194 100.682C39.7762 100.658 39.7399 100.623 39.7137 100.58C39.6894 100.537 39.6766 100.488 39.6766 100.438C39.6766 100.388 39.6894 100.339 39.7137 100.295L41.7378 96.6878C41.7626 96.6432 41.7991 96.6062 41.8433 96.5807C41.8875 96.5552 41.9378 96.5423 41.9889 96.5432H49.5752C49.6231 96.5435 49.6702 96.5558 49.7121 96.5791C49.754 96.6024 49.7893 96.6358 49.8149 96.6764C49.8382 96.7183 49.8504 96.7654 49.8504 96.8133C49.8504 96.8613 49.8382 96.9084 49.8149 96.9503L48.099 100.557C48.078 100.603 48.0455 100.641 48.0048 100.67C47.964 100.699 47.9165 100.716 47.8669 100.721ZM40.4594 100.15H47.6881L49.1339 97.1063H42.1601L40.4594 100.15Z" fill="#29275F"/>
<path d="M61.4912 100.721H53.5929C53.546 100.72 53.4999 100.708 53.4587 100.686C53.4176 100.663 53.3826 100.631 53.357 100.592C53.3305 100.553 53.3141 100.508 53.3095 100.462C53.3048 100.415 53.312 100.368 53.3304 100.325L54.8218 96.7182C54.8435 96.6664 54.8799 96.6222 54.9266 96.5911C54.9733 96.56 55.0282 96.5433 55.0843 96.5432H62.6706C62.7159 96.5427 62.7607 96.5532 62.8011 96.5737C62.8415 96.5942 62.8763 96.6242 62.9027 96.6611C62.9289 96.6975 62.9464 96.7394 62.9536 96.7836C62.9609 96.8279 62.9578 96.8732 62.9445 96.916L61.7613 100.523C61.7429 100.58 61.7068 100.63 61.6583 100.666C61.6098 100.701 61.5513 100.721 61.4912 100.721ZM54.0228 100.15H61.2819L62.2787 97.1063H55.2745L54.0228 100.15Z" fill="#29275F"/>
<path d="M75.1229 100.721H67.2284C67.184 100.721 67.1402 100.711 67.1006 100.691C67.0609 100.671 67.0265 100.643 67.0001 100.607C66.9735 100.572 66.9552 100.532 66.9466 100.489C66.938 100.446 66.9394 100.402 66.9507 100.36L67.9094 96.7524C67.9254 96.6921 67.961 96.6388 68.0106 96.601C68.0602 96.5631 68.1209 96.5428 68.1833 96.5432H75.7697C75.8116 96.5437 75.853 96.5531 75.891 96.5709C75.929 96.5886 75.9629 96.6141 75.9903 96.6459C76.0169 96.6777 76.0362 96.715 76.0467 96.7551C76.0572 96.7953 76.0588 96.8372 76.0512 96.878L75.4044 100.485C75.3921 100.551 75.3573 100.61 75.3059 100.653C75.2546 100.697 75.1899 100.72 75.1229 100.721ZM67.5974 100.15H74.8794L75.4234 97.1063H68.4116L67.5974 100.15Z" fill="#29275F"/>
<path d="M88.7547 100.721H80.8602C80.82 100.72 80.7804 100.711 80.7439 100.694C80.7074 100.677 80.6748 100.653 80.648 100.623C80.6213 100.593 80.601 100.558 80.5884 100.52C80.5758 100.482 80.5712 100.441 80.5748 100.401L80.9971 96.7943C81.0063 96.7251 81.0403 96.6615 81.0927 96.6153C81.1452 96.5691 81.2126 96.5435 81.2825 96.5432H88.8688C88.9072 96.543 88.9452 96.5507 88.9806 96.5657C89.0159 96.5808 89.0478 96.6029 89.0742 96.6307C89.1011 96.6576 89.122 96.6897 89.1358 96.7251C89.1495 96.7604 89.1558 96.7983 89.1541 96.8362L89.04 100.443C89.0395 100.48 89.0317 100.517 89.0171 100.551C89.0025 100.585 88.9814 100.615 88.9549 100.641C88.9284 100.667 88.897 100.687 88.8627 100.701C88.8283 100.715 88.7916 100.722 88.7547 100.721ZM81.1798 100.15H88.4807L88.5758 97.1063H81.5374L81.1798 100.15Z" fill="#29275F"/>
<path d="M102.39 100.721H94.492C94.4182 100.719 94.3478 100.69 94.2949 100.638C94.242 100.587 94.2105 100.517 94.2066 100.443L94.0963 96.8362C94.0947 96.7979 94.101 96.7597 94.1147 96.724C94.1284 96.6883 94.1492 96.6557 94.1759 96.6283C94.2026 96.6008 94.2347 96.5792 94.27 96.5645C94.3054 96.5499 94.3434 96.5426 94.3817 96.5432H101.968C102.038 96.5428 102.105 96.5682 102.157 96.6146C102.209 96.661 102.242 96.725 102.25 96.7943L102.672 100.401C102.677 100.442 102.674 100.482 102.662 100.521C102.65 100.56 102.63 100.595 102.603 100.626C102.548 100.684 102.471 100.718 102.39 100.721ZM94.7811 100.15H102.078L101.724 97.1063H94.6632L94.7811 100.15Z" fill="#29275F"/>
<path d="M116.022 100.721H108.128C108.06 100.722 107.995 100.699 107.943 100.655C107.891 100.612 107.857 100.552 107.846 100.485L107.218 96.8856C107.211 96.8449 107.213 96.803 107.224 96.763C107.234 96.723 107.253 96.6858 107.28 96.6539C107.306 96.6221 107.339 96.5964 107.377 96.5785C107.414 96.5607 107.455 96.5513 107.496 96.5508H115.082C115.145 96.5508 115.206 96.5713 115.256 96.609C115.306 96.6468 115.343 96.6998 115.36 96.7601L116.315 100.367C116.327 100.409 116.329 100.454 116.32 100.497C116.312 100.54 116.293 100.58 116.266 100.614C116.237 100.651 116.2 100.68 116.157 100.699C116.115 100.717 116.068 100.725 116.022 100.721ZM108.36 100.15H115.645L114.843 97.1063H107.819L108.36 100.15Z" fill="#29275F"/>
<path d="M129.665 100.721H121.759C121.699 100.721 121.64 100.702 121.592 100.667C121.543 100.631 121.507 100.581 121.489 100.523L120.306 96.916C120.292 96.8733 120.288 96.8278 120.296 96.7834C120.303 96.739 120.321 96.697 120.348 96.6611C120.373 96.6243 120.408 96.5943 120.447 96.5737C120.487 96.5532 120.531 96.5427 120.576 96.5432H128.162C128.219 96.5425 128.275 96.5589 128.322 96.59C128.37 96.6212 128.407 96.6658 128.429 96.7182L129.92 100.325C129.938 100.368 129.945 100.415 129.94 100.462C129.935 100.508 129.919 100.553 129.894 100.592C129.868 100.629 129.834 100.661 129.795 100.683C129.755 100.706 129.711 100.719 129.665 100.721ZM121.976 100.15H129.239L127.984 97.1063H120.983L121.976 100.15Z" fill="#29275F"/>
<path d="M143.289 100.721H135.391C135.337 100.721 135.284 100.705 135.238 100.676C135.193 100.647 135.156 100.606 135.132 100.557L133.417 96.9503C133.396 96.9068 133.387 96.8588 133.39 96.8108C133.394 96.7629 133.409 96.7166 133.436 96.6764C133.461 96.6353 133.496 96.6015 133.538 96.5781C133.58 96.5548 133.627 96.5427 133.675 96.5432H141.262C141.312 96.5425 141.362 96.5556 141.405 96.5811C141.449 96.6066 141.485 96.6435 141.509 96.6878L143.537 100.295C143.562 100.338 143.575 100.387 143.575 100.438C143.575 100.488 143.562 100.537 143.537 100.58C143.511 100.623 143.475 100.658 143.432 100.683C143.388 100.708 143.339 100.721 143.289 100.721ZM135.574 100.15H142.802L141.098 97.1063H134.128L135.574 100.15Z" fill="#29275F"/>
<path d="M39.3105 105.778H31.416C31.3663 105.778 31.3173 105.766 31.274 105.741C31.2307 105.717 31.1947 105.681 31.1696 105.639C31.1444 105.596 31.1311 105.547 31.131 105.497C31.1308 105.447 31.1439 105.399 31.1687 105.355L33.1927 101.748C33.218 101.704 33.2545 101.667 33.2985 101.641C33.3426 101.615 33.3927 101.601 33.4438 101.6H41.0188C41.0665 101.601 41.1134 101.614 41.1551 101.637C41.1969 101.66 41.2324 101.693 41.2584 101.733C41.2818 101.776 41.294 101.823 41.294 101.872C41.294 101.921 41.2818 101.968 41.2584 102.011L39.5692 105.637C39.5433 105.682 39.5054 105.719 39.4597 105.744C39.4141 105.769 39.3624 105.781 39.3105 105.778ZM31.8878 105.207H39.1165L40.5622 102.163H33.6113L31.8878 105.207Z" fill="#29275F"/>
<path d="M52.9461 105.778H45.0478C45.0017 105.775 44.9571 105.76 44.9179 105.735C44.8788 105.711 44.8463 105.677 44.8233 105.637C44.7977 105.598 44.782 105.553 44.7773 105.507C44.7727 105.461 44.7793 105.414 44.7967 105.371L46.2881 101.764C46.3096 101.711 46.3459 101.667 46.3926 101.635C46.4392 101.603 46.4941 101.586 46.5506 101.585H54.1369C54.1821 101.585 54.2265 101.596 54.2668 101.616C54.307 101.637 54.342 101.666 54.369 101.703C54.395 101.74 54.4123 101.782 54.4196 101.827C54.4268 101.872 54.4238 101.918 54.4108 101.961L53.2276 105.569C53.2113 105.63 53.1745 105.684 53.1234 105.722C53.0723 105.76 53.0098 105.78 52.9461 105.778ZM45.4777 105.207H52.7368L53.7336 102.163H46.7256L45.4777 105.207Z" fill="#29275F"/>
<path d="M66.5778 105.778H58.6833C58.6393 105.779 58.5956 105.769 58.5559 105.75C58.5162 105.731 58.4816 105.703 58.4551 105.667C58.4284 105.633 58.4101 105.592 58.4015 105.55C58.393 105.507 58.3944 105.462 58.4056 105.42L59.3644 101.813C59.3797 101.752 59.415 101.698 59.4646 101.659C59.5142 101.621 59.5754 101.6 59.6383 101.6H67.2246C67.2666 101.601 67.3079 101.61 67.346 101.628C67.384 101.645 67.4179 101.671 67.4453 101.703C67.4718 101.735 67.4909 101.773 67.5014 101.814C67.5119 101.855 67.5135 101.897 67.5062 101.939L66.8594 105.546C66.8463 105.611 66.8111 105.67 66.7598 105.712C66.7086 105.754 66.6443 105.777 66.5778 105.778ZM59.0524 105.207H66.3382L66.886 102.163H59.859L59.0524 105.207Z" fill="#29275F"/>
<path d="M80.2059 105.778H72.3152C72.275 105.778 72.2352 105.769 72.1985 105.753C72.1618 105.737 72.1289 105.713 72.1021 105.683C72.0755 105.653 72.0557 105.618 72.0439 105.58C72.032 105.542 72.0286 105.502 72.0336 105.462L72.4521 101.855C72.4605 101.785 72.4941 101.72 72.5466 101.673C72.5992 101.627 72.667 101.6 72.7375 101.6H80.3238C80.4011 101.601 80.4748 101.633 80.5293 101.687C80.556 101.715 80.5769 101.748 80.5906 101.784C80.6043 101.82 80.6106 101.858 80.6092 101.897L80.495 105.504C80.494 105.541 80.4858 105.577 80.4707 105.611C80.4556 105.645 80.4341 105.675 80.4072 105.701C80.3804 105.726 80.3487 105.746 80.3142 105.759C80.2797 105.773 80.2428 105.779 80.2059 105.778ZM72.631 105.207H79.9319L80.0271 102.163H72.9772L72.631 105.207Z" fill="#29275F"/>
<path d="M93.8452 105.778H85.9469C85.8734 105.777 85.8031 105.748 85.7501 105.697C85.6971 105.646 85.6654 105.577 85.6616 105.504L85.5512 101.897C85.5498 101.858 85.5561 101.82 85.5698 101.784C85.5835 101.748 85.6044 101.715 85.6311 101.687C85.6579 101.66 85.6898 101.638 85.7251 101.623C85.7603 101.608 85.7982 101.6 85.8366 101.6H93.4229C93.4929 101.601 93.5603 101.627 93.6122 101.674C93.6642 101.721 93.697 101.785 93.7044 101.855L94.1267 105.462C94.1318 105.502 94.1284 105.542 94.1165 105.58C94.1047 105.618 94.0848 105.653 94.0583 105.683C94.0312 105.712 93.9983 105.736 93.9616 105.752C93.925 105.769 93.8853 105.777 93.8452 105.778ZM86.2361 105.207H93.5218L93.168 102.163H86.1295L86.2361 105.207Z" fill="#29275F"/>
<path d="M107.477 105.778H99.5825C99.5157 105.779 99.4506 105.756 99.3991 105.714C99.3475 105.671 99.3127 105.612 99.301 105.546L98.6542 101.939C98.6468 101.897 98.6485 101.855 98.659 101.814C98.6695 101.773 98.6886 101.735 98.7151 101.703C98.742 101.67 98.7757 101.644 98.8139 101.627C98.852 101.609 98.8937 101.6 98.9357 101.6H106.522C106.585 101.6 106.646 101.622 106.695 101.66C106.745 101.699 106.78 101.752 106.796 101.813L107.751 105.42C107.762 105.462 107.763 105.506 107.755 105.549C107.746 105.591 107.728 105.631 107.701 105.666C107.675 105.7 107.641 105.728 107.602 105.748C107.563 105.767 107.52 105.777 107.477 105.778ZM99.8184 105.207H107.104L106.301 102.163H99.2743L99.8184 105.207Z" fill="#29275F"/>
<path d="M121.109 105.778H113.214C113.154 105.778 113.096 105.76 113.047 105.725C112.999 105.69 112.963 105.641 112.944 105.584L111.761 101.977C111.748 101.933 111.745 101.887 111.752 101.842C111.759 101.798 111.777 101.755 111.803 101.718C111.829 101.682 111.863 101.652 111.903 101.632C111.943 101.611 111.986 101.6 112.031 101.6H119.617C119.674 101.6 119.73 101.617 119.778 101.649C119.825 101.681 119.862 101.726 119.884 101.779L121.375 105.386C121.39 105.429 121.395 105.475 121.389 105.52C121.383 105.565 121.366 105.607 121.34 105.645C121.314 105.682 121.279 105.712 121.239 105.734C121.199 105.755 121.154 105.766 121.109 105.766V105.778ZM113.42 105.207H120.683L119.427 102.163H112.427L113.42 105.207Z" fill="#29275F"/>
<path d="M134.744 105.778H126.846C126.792 105.778 126.739 105.764 126.694 105.735C126.648 105.707 126.611 105.666 126.587 105.618L124.872 102.011C124.851 101.967 124.842 101.918 124.845 101.87C124.849 101.821 124.864 101.774 124.891 101.733C124.916 101.693 124.951 101.659 124.993 101.636C125.035 101.613 125.082 101.6 125.13 101.6H132.709C132.76 101.601 132.81 101.615 132.854 101.641C132.898 101.667 132.935 101.704 132.96 101.748L134.984 105.355C135.009 105.398 135.022 105.447 135.022 105.496C135.022 105.546 135.009 105.594 134.984 105.637C134.96 105.679 134.925 105.714 134.883 105.739C134.841 105.764 134.793 105.777 134.744 105.778ZM127.029 105.207H134.257L132.553 102.163H125.583L127.029 105.207Z" fill="#29275F"/>
<path d="M148.095 105.778H140.196C140.144 105.781 140.093 105.769 140.047 105.744C140.001 105.719 139.964 105.682 139.938 105.637L138.218 102.03C138.197 101.986 138.189 101.937 138.192 101.889C138.195 101.84 138.211 101.793 138.237 101.752C138.263 101.712 138.298 101.679 138.34 101.656C138.382 101.633 138.429 101.62 138.477 101.619H146.063C146.114 101.62 146.164 101.634 146.208 101.66C146.252 101.686 146.289 101.723 146.314 101.767L148.338 105.375C148.363 105.417 148.376 105.466 148.376 105.515C148.376 105.565 148.363 105.613 148.338 105.656C148.311 105.695 148.275 105.727 148.232 105.748C148.189 105.77 148.142 105.78 148.095 105.778ZM140.379 105.207H147.608L145.899 102.163H138.933L140.379 105.207Z" fill="#29275F"/>
<path d="M117.354 8.20349H65.5354C61.8898 8.20349 58.9344 11.1591 58.9344 14.8051V76.0877C58.9344 79.7337 61.8898 82.6893 65.5354 82.6893H117.354C120.999 82.6893 123.955 79.7337 123.955 76.0877V14.8051C123.955 11.1591 120.999 8.20349 117.354 8.20349Z" fill="white"/>
<path d="M103.794 11.9171C103.794 12.24 103.699 12.5556 103.519 12.824C103.34 13.0924 103.085 13.3016 102.787 13.4252C102.488 13.5487 102.16 13.5811 101.844 13.5181C101.527 13.4551 101.236 13.2996 101.008 13.0713C100.78 12.8431 100.624 12.5522 100.561 12.2356C100.498 11.9189 100.531 11.5907 100.654 11.2925C100.778 10.9942 100.987 10.7392 101.255 10.5599C101.524 10.3805 101.839 10.2848 102.162 10.2848C102.376 10.2848 102.589 10.327 102.787 10.409C102.985 10.4911 103.165 10.6113 103.316 10.7629C103.468 10.9145 103.588 11.0944 103.67 11.2925C103.752 11.4905 103.794 11.7028 103.794 11.9171Z" fill="#1F4E8D"/>
<path d="M110.985 11.9171C110.985 12.24 110.889 12.5556 110.71 12.824C110.53 13.0924 110.275 13.3016 109.977 13.4252C109.679 13.5487 109.351 13.5811 109.034 13.5181C108.718 13.4551 108.427 13.2996 108.199 13.0713C107.97 12.8431 107.815 12.5522 107.752 12.2356C107.689 11.9189 107.721 11.5907 107.845 11.2925C107.968 10.9942 108.177 10.7392 108.446 10.5599C108.714 10.3805 109.03 10.2848 109.353 10.2848C109.567 10.2848 109.779 10.327 109.977 10.409C110.175 10.4911 110.355 10.6113 110.507 10.7629C110.658 10.9145 110.779 11.0944 110.861 11.2925C110.943 11.4905 110.985 11.7028 110.985 11.9171Z" fill="#35C0ED"/>
<path d="M118.16 11.9171C118.16 12.24 118.064 12.5556 117.885 12.824C117.706 13.0924 117.451 13.3016 117.153 13.4252C116.854 13.5487 116.526 13.5811 116.21 13.5181C115.893 13.4551 115.602 13.2996 115.374 13.0713C115.146 12.8431 114.99 12.5522 114.927 12.2356C114.864 11.9189 114.897 11.5907 115.02 11.2925C115.144 10.9942 115.353 10.7392 115.621 10.5599C115.89 10.3805 116.205 10.2848 116.528 10.2848C116.742 10.2848 116.955 10.327 117.153 10.409C117.351 10.4911 117.531 10.6113 117.682 10.7629C117.834 10.9145 117.954 11.0944 118.036 11.2925C118.118 11.4905 118.16 11.7028 118.16 11.9171Z" fill="#A8E8FD"/>
<path d="M117.354 82.9747H65.5391C63.7127 82.9737 61.9614 82.2479 60.6696 80.9566C59.3778 79.6654 58.6511 77.9143 58.649 76.0877V14.8051C58.6511 12.9785 59.3778 11.2273 60.6696 9.93612C61.9614 8.64489 63.7127 7.9191 65.5391 7.91809H117.354C119.179 7.92011 120.93 8.64634 122.221 9.93746C123.512 11.2286 124.238 12.9791 124.24 14.8051V76.0877C124.238 77.9136 123.512 79.6642 122.221 80.9553C120.93 82.2464 119.179 82.9727 117.354 82.9747ZM65.5391 8.48883C63.8644 8.49085 62.2588 9.15683 61.0742 10.3408C59.8896 11.5248 59.2228 13.1302 59.2197 14.8051V76.0877C59.2228 77.7626 59.8896 79.368 61.0742 80.5519C62.2588 81.7359 63.8644 82.4019 65.5391 82.4039H117.354C119.028 82.4019 120.633 81.7358 121.817 80.5517C123.001 79.3676 123.667 77.7622 123.669 76.0877V14.8051C123.667 13.1305 123.001 11.5251 121.817 10.341C120.633 9.15695 119.028 8.49085 117.354 8.48883H65.5391Z" fill="#0B2952"/>
<path d="M123.958 15.079H58.9344C58.8587 15.079 58.7861 15.049 58.7326 14.9955C58.6791 14.9419 58.649 14.8694 58.649 14.7937C58.649 14.718 58.6791 14.6454 58.7326 14.5919C58.7861 14.5384 58.8587 14.5083 58.9344 14.5083H123.958C124.034 14.5083 124.107 14.5384 124.16 14.5919C124.214 14.6454 124.244 14.718 124.244 14.7937C124.244 14.8694 124.214 14.9419 124.16 14.9955C124.107 15.049 124.034 15.079 123.958 15.079Z" fill="#29275F"/>
<path d="M81.3472 23.1342L74.2859 20.1435L67.2246 23.1342V6.47986H81.3472V23.1342Z" fill="#0B2952"/>
<path d="M80.1564 27.0494H63.7777V44.7425H80.1564V27.0494Z" fill="#35C0ED"/>
<path d="M119.111 27.0494H82.4163V28.5524H119.111V27.0494Z" fill="#A8E8FD" fill-opacity="0.58"/>
<path d="M119.111 31.0751H82.4163V32.578H119.111V31.0751Z" fill="#A8E8FD" fill-opacity="0.58"/>
<path d="M119.111 35.0969H82.4163V36.5999H119.111V35.0969Z" fill="#A8E8FD" fill-opacity="0.58"/>
<path d="M119.111 39.1226H82.4163V40.6255H119.111V39.1226Z" fill="#A8E8FD" fill-opacity="0.58"/>
<path d="M103.623 43.1482H82.4163V44.6512H103.623V43.1482Z" fill="#A8E8FD" fill-opacity="0.58"/>
<path d="M119.115 50.9636H63.7777V52.4666H119.115V50.9636Z" fill="#A8E8FD" fill-opacity="0.58"/>
<path d="M119.115 54.9893H63.7777V56.4922H119.115V54.9893Z" fill="#A8E8FD" fill-opacity="0.58"/>
<path d="M119.115 59.0149H63.7777V60.5178H119.115V59.0149Z" fill="#A8E8FD" fill-opacity="0.58"/>
<path d="M119.115 63.0405H63.7777V64.5435H119.115V63.0405Z" fill="#A8E8FD" fill-opacity="0.58"/>
<path d="M103.627 67.0662H63.7777V68.5691H103.627V67.0662Z" fill="#A8E8FD" fill-opacity="0.58"/>
<path d="M118.887 19.6793H93.4077V23.8799H118.887V19.6793Z" fill="#35C0ED"/>
<path d="M93.0235 78.8654C92.9799 78.8643 92.9371 78.8539 92.8979 78.8349L87.0541 76.0573C86.9855 76.0245 86.9327 75.9658 86.9074 75.8941C86.882 75.8224 86.8862 75.7435 86.919 75.6749C86.9518 75.6063 87.0105 75.5535 87.0822 75.5282C87.1539 75.5028 87.2328 75.507 87.3014 75.5398L93.0082 78.2604L98.7151 75.5398C98.7837 75.5075 98.8623 75.5038 98.9337 75.5295C99.005 75.5552 99.0633 75.6082 99.0956 75.6768C99.1278 75.7454 99.1316 75.8241 99.1059 75.8954C99.0802 75.9668 99.0272 76.025 98.9586 76.0573L93.1414 78.8349C93.1049 78.8538 93.0646 78.8642 93.0235 78.8654Z" fill="#29275F"/>
<path d="M104.901 50.6779C105.444 50.7614 106.356 51.0318 107.509 51.4347C108.65 51.8335 109.994 52.3494 111.385 52.9073L111.386 52.9083C113.662 53.815 116.041 54.8267 117.852 55.6124C118.758 56.0051 119.521 56.3415 120.057 56.5792C120.326 56.6981 120.538 56.792 120.682 56.8566C120.755 56.8888 120.81 56.9141 120.848 56.9308C120.866 56.9391 120.88 56.9451 120.89 56.9493C120.894 56.9515 120.898 56.9532 120.9 56.9542C120.901 56.9547 120.903 56.9549 120.903 56.9552V56.9562L121.203 57.09L121.445 56.8693C122.282 56.1073 123.445 55.9205 124.47 55.9513C124.974 55.9664 125.423 56.0339 125.746 56.0978C125.907 56.1296 126.035 56.1604 126.122 56.1827C126.165 56.1939 126.198 56.2031 126.22 56.2091C126.23 56.212 126.237 56.2146 126.242 56.2159L126.247 56.2169L126.444 56.2775L126.627 56.1808L126.646 56.171C126.661 56.1634 126.685 56.152 126.717 56.1368C126.779 56.1065 126.873 56.062 126.993 56.0099C127.235 55.9053 127.582 55.7684 127.999 55.6417C128.839 55.3862 129.927 55.1827 130.993 55.339C131.176 55.3659 131.523 55.5117 132.039 55.8243C132.536 56.1254 133.136 56.5469 133.806 57.0626C135.144 58.093 136.738 59.4754 138.315 60.9552C139.892 62.4345 141.447 64.0053 142.709 65.4093C143.983 66.8268 144.922 68.0358 145.308 68.8019C145.486 69.155 145.72 69.9485 145.991 71.1329C146.257 72.2967 146.548 73.7846 146.85 75.4835C147.456 78.8803 148.108 83.1013 148.707 87.2228C149.306 91.3433 149.852 95.3605 150.249 98.3478C150.447 99.8413 150.609 101.078 150.721 101.941C150.776 102.372 150.819 102.71 150.849 102.94C150.863 103.054 150.874 103.142 150.882 103.201C150.885 103.231 150.889 103.254 150.891 103.269C150.891 103.276 150.892 103.282 150.892 103.285C150.893 103.287 150.893 103.289 150.893 103.29V103.291L150.904 103.379L150.945 103.458L163.149 127.091L136.12 131.84L130.731 111.086L130.699 110.961L130.61 110.867L130.609 110.866C130.608 110.865 130.607 110.863 130.604 110.86C130.6 110.856 130.593 110.849 130.584 110.84C130.566 110.821 130.541 110.793 130.507 110.757C130.438 110.684 130.336 110.575 130.205 110.435C129.943 110.153 129.563 109.742 129.094 109.228C128.154 108.199 126.856 106.754 125.42 105.09C122.542 101.756 119.129 97.5632 116.936 94.0812C114.715 90.5533 113.189 88.2255 112.164 86.4816C111.268 84.9574 110.785 83.9285 110.561 82.9904L110.481 82.5919C110.146 80.5309 107.731 65.6244 107.218 62.4474L107.217 62.4435C107.201 62.3528 107.207 62.2598 107.234 62.172C107.261 62.0841 107.309 62.0039 107.373 61.9376L107.391 61.9191L107.406 61.8995C107.414 61.889 107.424 61.8799 107.435 61.8722L107.443 61.8663L107.452 61.8605C107.922 61.505 108.686 61.1228 109.637 61.3448C110.597 61.5691 111.891 62.4412 113.337 64.9347C116.673 70.6932 117.166 78.0029 117.238 79.7159L117.244 79.8419L117.307 79.9493L118.514 81.9855L121.808 87.5402L125.91 94.4767L126.088 94.7775L126.432 94.714L126.433 94.713C126.434 94.7129 126.435 94.7132 126.436 94.713C126.439 94.7124 126.444 94.7111 126.449 94.7101C126.459 94.7081 126.474 94.7051 126.492 94.7013C126.529 94.6937 126.581 94.6825 126.647 94.6671C126.781 94.6362 126.972 94.5891 127.21 94.5206C127.685 94.3838 128.348 94.1631 129.106 93.8282C130.621 93.1597 132.538 92.0249 134.103 90.1642L134.332 89.8927L134.151 89.588L130.034 82.6437L126.739 77.088L125.516 75.0148V74.9728L125.424 74.8429L116.574 62.3898L116.494 62.2765L116.367 62.2208H116.366L116.354 62.215C116.346 62.2113 116.334 62.2065 116.317 62.1993C116.284 62.185 116.235 62.1638 116.172 62.1359C116.045 62.0801 115.858 61.9974 115.621 61.8927C115.146 61.6832 114.467 61.3836 113.655 61.0206C112.031 60.2945 109.87 59.3174 107.726 58.3146C105.752 57.3909 104.411 55.2741 103.948 53.421C103.716 52.4908 103.725 51.7095 103.916 51.2218C104.008 50.9873 104.132 50.8433 104.268 50.7618C104.403 50.6818 104.601 50.6319 104.901 50.6779Z" fill="white" stroke="#0B2952"/>
<path d="M109.44 52.7481C109.378 53.3462 109.187 53.9237 108.881 54.4414C108.702 54.715 108.432 54.9171 108.119 55.0124C107.806 55.1076 107.47 55.09 107.169 54.9626L104.125 53.7184C103.841 53.5999 103.603 53.3922 103.447 53.1265C103.291 52.8609 103.226 52.5518 103.262 52.2459C103.311 51.6934 103.487 51.1596 103.775 50.6859C103.948 50.4273 104.203 50.234 104.499 50.1368C104.795 50.0396 105.114 50.044 105.407 50.1494L108.493 51.23C108.802 51.3346 109.065 51.543 109.238 51.8197C109.41 52.0965 109.482 52.4246 109.44 52.7481Z" fill="#AFD4EF"/>
<path d="M110.703 67.0015C109.9 67.6597 108.645 67.6978 107.979 67.6673C107.853 67.6611 107.732 67.6115 107.638 67.527C107.544 67.4425 107.482 67.3281 107.462 67.2031L106.754 62.8312C106.739 62.7324 106.75 62.6314 106.787 62.5384C106.824 62.4455 106.885 62.364 106.963 62.3023C107.65 61.8113 108.496 61.5955 109.334 61.6974C109.43 61.706 109.522 61.7392 109.601 61.7939C109.68 61.8485 109.744 61.9228 109.786 62.0094C110.33 63.1813 110.768 65.6469 110.905 66.484C110.919 66.5803 110.908 66.6788 110.873 66.7695C110.837 66.8603 110.779 66.9402 110.703 67.0015Z" fill="#AFD4EF"/>
<path d="M126.31 77.3548C123.308 80.92 118.925 81.7305 118.925 81.7305L117.719 79.6948C117.647 77.9712 117.152 70.5629 113.751 64.6843C110.795 59.5856 108.196 60.6548 107.131 61.4615C107.079 61.4976 107.033 61.5412 106.994 61.5909L98.1329 46.626C98.4377 47.0828 98.7883 47.5073 99.1792 47.893L99.2629 47.9767C99.4014 48.1161 99.5516 48.2434 99.7118 48.3572C99.7575 48.3948 99.8058 48.4292 99.8564 48.4599C99.942 48.5204 100.032 48.5739 100.127 48.6197C100.189 48.6536 100.254 48.6829 100.321 48.7073L100.518 48.7796L100.705 48.8176C100.768 48.8234 100.832 48.8234 100.895 48.8176C101.115 48.8179 101.331 48.7573 101.519 48.6426C102.314 48.1746 102.478 47.2614 102.447 46.4852C102.449 46.4611 102.449 46.4369 102.447 46.4129C102.443 46.2778 102.43 46.1431 102.409 46.0095C102.409 45.9867 102.409 45.9677 102.409 45.9487C102.409 45.9296 102.39 45.8345 102.386 45.7851C102.353 45.5796 102.307 45.3763 102.249 45.1763C102.269 45.1952 102.287 45.2155 102.303 45.2371L102.348 45.2866C102.367 45.2866 102.386 45.3323 102.409 45.3513L102.683 45.6138C102.728 45.6598 102.776 45.7018 102.828 45.7394C102.885 45.793 102.946 45.8425 103.01 45.8878L103.06 45.9296C103.133 45.9885 103.209 46.0431 103.288 46.0933L103.345 46.1351C103.476 46.2181 103.612 46.2931 103.752 46.3596C103.822 46.3956 103.895 46.4261 103.969 46.4509C104.041 46.4814 104.118 46.5004 104.19 46.5232C104.26 46.5466 104.333 46.5607 104.407 46.5651C104.606 46.5989 104.81 46.5885 105.004 46.5346C105.065 46.5214 105.125 46.5023 105.183 46.4776C105.246 46.4497 105.307 46.4179 105.365 46.3824C105.522 46.2897 105.653 46.1588 105.746 46.0019C105.772 45.9679 105.794 45.9309 105.811 45.8916C105.846 45.818 105.875 45.7417 105.898 45.6633C105.903 45.6459 105.903 45.6274 105.898 45.61C105.924 45.5454 105.94 45.4775 105.948 45.4084C105.963 45.3305 105.973 45.2517 105.978 45.1725C105.98 45.1586 105.98 45.1445 105.978 45.1306C105.99 44.9558 105.99 44.7804 105.978 44.6055C105.978 44.537 105.978 44.4685 105.978 44.4039C105.96 44.1839 105.928 43.9653 105.883 43.7494C105.876 43.6769 105.86 43.6054 105.837 43.5363C105.818 43.4374 105.799 43.3385 105.776 43.2433C105.753 43.1482 105.727 43.0531 105.7 42.9618C105.586 42.5508 105.48 42.2579 105.449 42.1818L111.536 52.4551C108.748 51.3365 106.13 50.3776 104.943 50.195C101.816 49.7156 103.189 56.7548 107.481 58.779C111.772 60.8032 116.132 62.6905 116.132 62.6905L124.982 75.1441V75.1631L126.31 77.3548Z" fill="#E6AC4B"/>
<path d="M129.604 82.91C126.603 86.4829 122.22 87.2857 122.22 87.2857L118.925 81.7305C118.925 81.7305 123.308 80.92 126.31 77.3548L129.604 82.91Z" fill="#C7C7C7"/>
<path d="M133.721 89.8541C130.719 93.4231 126.34 94.2336 126.34 94.2336L122.22 87.2857C122.22 87.2857 126.603 86.4829 129.604 82.91L133.721 89.8541Z" fill="white"/>
<path d="M106.001 44.5903C106.012 44.7651 106.012 44.9406 106.001 45.1154C106.003 45.1293 106.003 45.1434 106.001 45.1572C105.996 45.2365 105.986 45.3153 105.97 45.3932C105.972 45.4147 105.972 45.4363 105.97 45.4578C105.972 45.4794 105.972 45.501 105.97 45.5225C105.965 45.5471 105.957 45.5713 105.948 45.5948C105.949 45.6125 105.949 45.6304 105.948 45.6481C105.925 45.7265 105.895 45.8028 105.86 45.8764C105.843 45.9157 105.821 45.9527 105.795 45.9867C105.703 46.1436 105.572 46.2745 105.415 46.3672C105.356 46.4027 105.295 46.4344 105.232 46.4623C105.175 46.4871 105.115 46.5062 105.054 46.5194C104.859 46.5733 104.655 46.5837 104.456 46.5499C104.383 46.5407 104.311 46.5267 104.239 46.508C104.167 46.4852 104.091 46.4662 104.019 46.4357C103.944 46.4109 103.872 46.3804 103.802 46.3444C103.662 46.2779 103.526 46.2029 103.395 46.1199L103.338 46.078C103.259 46.0279 103.182 45.9732 103.109 45.9144L103.06 45.8726C102.996 45.8273 102.935 45.7777 102.877 45.7242C102.828 45.6861 102.778 45.6405 102.733 45.5986L102.459 45.3361C102.44 45.3128 102.42 45.2912 102.398 45.2714L102.352 45.2219C102.336 45.2003 102.318 45.18 102.299 45.1611C102.357 45.3611 102.402 45.5644 102.436 45.7698C102.436 45.8193 102.436 45.8726 102.459 45.9335C102.482 45.9943 102.459 45.9715 102.459 45.9943C102.48 46.1279 102.493 46.2626 102.497 46.3977C102.499 46.4217 102.499 46.4459 102.497 46.47C102.527 47.2309 102.364 48.1594 101.569 48.6274C101.381 48.7421 101.165 48.8027 100.945 48.8024C100.881 48.8082 100.818 48.8082 100.754 48.8024L100.568 48.7643L100.37 48.6921C100.303 48.6677 100.239 48.6384 100.176 48.6045C100.082 48.5587 99.9915 48.5052 99.9059 48.4447C99.8554 48.414 99.8071 48.3796 99.7614 48.342C99.6012 48.2282 99.451 48.1009 99.3124 47.9615L99.2287 47.8778C98.8378 47.4921 98.4872 47.0676 98.1825 46.6107L98.1178 46.5118L96.6835 39.1568C97.4938 38.7193 98.6885 37.9088 99.2516 36.7483L105.502 42.1361C105.533 42.2122 105.639 42.5166 105.754 42.9161C105.78 43.0074 105.803 43.0988 105.83 43.1977C105.856 43.2966 105.872 43.3917 105.891 43.4907C105.914 43.5597 105.929 43.6312 105.936 43.7038C105.982 43.9197 106.013 44.1383 106.031 44.3582C105.989 44.4571 105.993 44.5294 106.001 44.5903Z" fill="white"/>
<path d="M99.202 36.7673C98.639 37.9088 97.4443 38.7383 96.634 39.1758L96.1241 36.558L97.3112 35.1312L99.202 36.7673Z" fill="#1F4E8D"/>
<path d="M122.22 87.5711C122.171 87.5718 122.122 87.5595 122.079 87.5355C122.037 87.5114 122.001 87.4764 121.976 87.4341L117.491 79.8394C117.467 79.7989 117.454 79.7531 117.453 79.7063C117.361 77.6554 116.821 70.5249 113.519 64.8251C112.248 62.6334 110.932 61.4006 109.6 61.119C109.201 61.0441 108.79 61.0563 108.396 61.1548C108.002 61.2534 107.634 61.4358 107.317 61.6898C107.285 61.7126 107.255 61.7394 107.23 61.7697C107.2 61.8047 107.162 61.8325 107.12 61.8509C107.078 61.8694 107.032 61.878 106.986 61.8762C106.94 61.8718 106.896 61.8567 106.857 61.8323C106.818 61.8078 106.786 61.7747 106.762 61.7354L97.8857 46.7744C97.8654 46.7426 97.8516 46.7072 97.8451 46.6702C97.8385 46.6331 97.8393 46.5951 97.8475 46.5584C97.8556 46.5216 97.8709 46.4868 97.8924 46.456C97.914 46.4252 97.9414 46.3989 97.9732 46.3786C98.0049 46.3584 98.0403 46.3446 98.0773 46.3381C98.1144 46.3315 98.1524 46.3323 98.1891 46.3404C98.2259 46.3486 98.2606 46.3639 98.2915 46.3854C98.3223 46.407 98.3486 46.4344 98.3688 46.4662C98.6643 46.9052 99.002 47.3142 99.3771 47.6875L99.4646 47.7751C99.5924 47.8974 99.7298 48.0094 99.8755 48.1099C99.905 48.1394 99.9383 48.165 99.9744 48.186L100.02 48.2164C100.093 48.2653 100.17 48.3098 100.248 48.3496C100.305 48.3797 100.363 48.4063 100.423 48.4295C100.479 48.4543 100.536 48.4747 100.595 48.4904L100.731 48.5208H100.751C100.968 48.553 101.189 48.51 101.378 48.3991C101.938 48.068 102.2 47.4288 102.166 46.4966C102.164 46.4713 102.164 46.4458 102.166 46.4205C102.161 46.2931 102.15 46.1661 102.132 46.04C102.132 46.04 102.132 46.0096 102.132 45.9943V45.9639C102.132 45.9106 102.113 45.8688 102.109 45.8345V45.8041C102.081 45.6266 102.042 45.4512 101.991 45.279C101.989 45.2562 101.989 45.2333 101.991 45.2105C101.978 45.1503 101.985 45.0876 102.01 45.0314C102.035 44.9753 102.078 44.9288 102.132 44.8985C102.187 44.8698 102.25 44.8595 102.311 44.8691C102.373 44.8787 102.43 44.9076 102.474 44.9518C102.498 44.9757 102.521 45.0012 102.542 45.0279L102.573 45.0621C102.601 45.0871 102.627 45.1152 102.649 45.1458L102.896 45.3741C102.936 45.4169 102.979 45.4564 103.026 45.4921L103.079 45.5377L103.193 45.6291L103.231 45.6595C103.303 45.7185 103.377 45.7732 103.456 45.8231L103.535 45.8802C103.657 45.9563 103.783 46.021 103.889 46.0742H103.927C103.975 46.099 104.025 46.1206 104.076 46.1389C104.156 46.1694 104.216 46.1846 104.277 46.2036C104.331 46.222 104.388 46.2335 104.445 46.2379C104.611 46.2751 104.784 46.2751 104.951 46.2379C104.999 46.2267 105.046 46.2114 105.092 46.1922C105.143 46.1693 105.193 46.1426 105.24 46.1123C105.355 46.0427 105.452 45.9461 105.521 45.8307L105.563 45.7622C105.563 45.7622 105.563 45.7622 105.563 45.7394C105.593 45.6779 105.619 45.6143 105.639 45.5492C105.639 45.5492 105.658 45.4807 105.658 45.4769C105.658 45.4731 105.658 45.4388 105.658 45.4198V45.3855V45.3475V45.3094C105.675 45.2533 105.688 45.1961 105.696 45.1382C105.696 45.1382 105.696 45.1078 105.696 45.0926C105.706 44.9316 105.706 44.7703 105.696 44.6093V44.4115C105.679 44.2032 105.65 43.9961 105.609 43.7913C105.599 43.7257 105.585 43.6609 105.567 43.5972C105.544 43.4831 105.525 43.3917 105.502 43.3004L105.43 43.0227C105.32 42.6422 105.217 42.3454 105.187 42.2617C105.161 42.1947 105.161 42.1206 105.187 42.0538C105.213 41.987 105.263 41.9323 105.327 41.9002C105.36 41.8821 105.395 41.8707 105.432 41.8665C105.468 41.8622 105.505 41.8653 105.541 41.8756C105.576 41.8859 105.609 41.9031 105.638 41.9263C105.667 41.9494 105.69 41.9781 105.708 42.0105L111.795 52.2839C111.826 52.3354 111.84 52.3954 111.835 52.4553C111.83 52.5152 111.806 52.572 111.767 52.6176C111.728 52.6631 111.675 52.6951 111.617 52.709C111.558 52.7229 111.497 52.7179 111.441 52.6949C108.169 51.3784 105.913 50.6021 104.913 50.4499C104.777 50.4159 104.635 50.4099 104.497 50.4325C104.358 50.455 104.226 50.5056 104.107 50.5811C103.989 50.6566 103.888 50.7555 103.809 50.8716C103.73 50.9878 103.676 51.1188 103.65 51.2566C103.083 53.1096 104.635 57.0896 107.614 58.486C111.852 60.4874 116.212 62.3785 116.254 62.3937C116.302 62.4158 116.344 62.4498 116.376 62.4926L125.225 74.9463L125.256 74.9843L129.844 82.7312C129.874 82.7821 129.887 82.841 129.882 82.8997C129.876 82.9584 129.852 83.0139 129.814 83.0584C127.839 85.3162 125.194 86.8839 122.265 87.5331L122.22 87.5711ZM118.004 79.6111L122.36 86.9661C123.213 86.7645 126.717 85.7904 129.254 82.8796L124.769 75.3115L115.969 62.9226C115.375 62.6639 111.327 60.8984 107.382 59.0377C104.049 57.4625 102.493 53.1477 103.113 51.1196C103.159 50.9153 103.244 50.722 103.364 50.5508C103.484 50.3796 103.637 50.2337 103.814 50.1217C103.991 50.0096 104.188 49.9336 104.394 49.8978C104.6 49.8621 104.811 49.8674 105.015 49.9134C105.993 50.0618 107.968 50.7239 110.893 51.8806L106.233 44.0348C106.233 44.1375 106.26 44.2517 106.267 44.3658V44.5713C106.283 44.7612 106.283 44.9521 106.267 45.142C106.269 45.1623 106.269 45.1827 106.267 45.2029C106.263 45.2847 106.253 45.3661 106.237 45.4464V45.4883C106.237 45.5263 106.237 45.5644 106.21 45.6024L106.187 45.6823C106.162 45.7749 106.128 45.8652 106.088 45.9525C106.09 45.9651 106.09 45.9779 106.088 45.9905C106.064 46.0413 106.034 46.0897 106.001 46.1351C105.889 46.3273 105.729 46.4872 105.537 46.5993C105.466 46.6426 105.392 46.6807 105.316 46.7135C105.246 46.7427 105.173 46.7668 105.099 46.7858C104.867 46.8474 104.625 46.8591 104.388 46.82C104.295 46.8146 104.204 46.7953 104.118 46.7629C104.038 46.7454 103.961 46.7212 103.885 46.6906C103.818 46.6665 103.752 46.6385 103.688 46.6069C103.527 46.5315 103.37 46.4464 103.22 46.352L103.14 46.2949C103.058 46.243 102.979 46.1858 102.904 46.1237L102.854 46.0857L102.733 45.9905C102.75 46.1167 102.76 46.2437 102.763 46.371C102.767 46.4052 102.767 46.4396 102.763 46.4738C102.805 47.6152 102.436 48.4409 101.694 48.8785C101.397 49.0541 101.05 49.1239 100.709 49.0764H100.682C100.609 49.0656 100.536 49.0503 100.465 49.0307C100.387 49.0093 100.311 48.9826 100.237 48.9508C100.158 48.9229 100.082 48.8885 100.009 48.8481C99.9068 48.7985 99.8088 48.7412 99.7157 48.6768H99.6928L107.066 61.1571C107.439 60.8787 107.866 60.6817 108.319 60.5788C108.773 60.4759 109.243 60.4694 109.699 60.5597C111.194 60.8603 112.64 62.1997 113.998 64.5397C117.327 70.2852 117.905 77.4385 118.004 79.6111Z" fill="#0B2952"/>
<path d="M126.34 94.5189C126.29 94.5184 126.241 94.5052 126.198 94.4806C126.155 94.456 126.119 94.4207 126.093 94.3781L121.976 87.4341C121.955 87.3931 121.943 87.3473 121.943 87.3009C121.943 87.2545 121.955 87.2088 121.976 87.1678C121.995 87.1259 122.024 87.0894 122.061 87.0615C122.097 87.0336 122.14 87.0152 122.185 87.0079C122.227 87.0079 126.504 86.1747 129.414 82.7274C129.443 82.6919 129.479 82.664 129.521 82.6461C129.563 82.6282 129.609 82.6208 129.654 82.6246C129.7 82.6291 129.744 82.6441 129.783 82.6686C129.822 82.693 129.854 82.7262 129.878 82.7654L133.991 89.7095C134.021 89.7609 134.034 89.82 134.029 89.8791C134.024 89.9382 134.002 89.9945 133.964 90.0405C131.99 92.2961 129.347 93.8625 126.42 94.5113L126.34 94.5189ZM122.665 87.4798L126.469 93.9101C127.322 93.7085 130.826 92.7306 133.359 89.8236L129.555 83.397C127.698 85.3913 125.306 86.8086 122.665 87.4798Z" fill="#0B2952"/>
<path d="M100.907 49.1068C100.834 49.1105 100.762 49.1105 100.69 49.1068H100.663C100.59 49.096 100.518 49.0807 100.446 49.0611C100.368 49.0397 100.292 49.013 100.218 48.9812C100.139 48.9533 100.063 48.9189 99.9897 48.8785C99.8878 48.8289 99.7899 48.7716 99.6967 48.7072L99.6549 48.6768C99.608 48.6472 99.5635 48.6142 99.5217 48.5779C99.3605 48.4638 99.209 48.3366 99.069 48.1974L98.9776 48.1061C98.5757 47.7074 98.2138 47.2703 97.8971 46.801C97.8783 46.7675 97.8567 46.7357 97.8325 46.7058C97.8102 46.6724 97.7947 46.6349 97.7868 46.5955L95.8465 36.6227C95.838 36.5807 95.8391 36.5374 95.8496 36.4959C95.8601 36.4544 95.8799 36.4158 95.9074 36.383L97.0906 34.9561C97.1412 34.8981 97.2119 34.8614 97.2884 34.8534C97.3644 34.8485 97.4393 34.8731 97.4977 34.9219L105.639 41.9458C105.681 41.9852 105.711 42.0352 105.727 42.0904C105.826 42.3496 105.911 42.6138 105.982 42.8818C106.009 42.9732 106.035 43.0683 106.058 43.171C106.081 43.2738 106.104 43.3727 106.126 43.4754C106.148 43.5501 106.163 43.6265 106.172 43.7037C106.219 43.9258 106.251 44.1508 106.267 44.3772V44.5827C106.281 44.7714 106.281 44.9609 106.267 45.1496C106.269 45.1698 106.269 45.1902 106.267 45.2105C106.263 45.2923 106.253 45.3737 106.237 45.454V45.4959C106.237 45.5339 106.237 45.572 106.21 45.61L106.187 45.6899C106.162 45.7825 106.129 45.8728 106.088 45.9601C106.09 45.9727 106.09 45.9855 106.088 45.9981C106.064 46.0489 106.034 46.0973 106.001 46.1427C105.889 46.3349 105.729 46.4948 105.537 46.6069C105.466 46.6501 105.392 46.6883 105.316 46.721C105.246 46.7503 105.173 46.7744 105.099 46.7933C104.867 46.855 104.625 46.8666 104.388 46.8276C104.304 46.8159 104.222 46.7994 104.14 46.7781C104.054 46.7578 103.968 46.7311 103.886 46.6982C103.818 46.6741 103.752 46.6461 103.688 46.6145C103.527 46.5391 103.37 46.454 103.22 46.3596L103.14 46.3025C103.058 46.2506 102.979 46.1934 102.904 46.1313L102.855 46.0932L102.733 45.9981C102.75 46.1243 102.76 46.2513 102.763 46.3786C102.767 46.4127 102.767 46.4472 102.763 46.4813C102.805 47.6228 102.436 48.4485 101.694 48.8861C101.457 49.0301 101.184 49.1064 100.907 49.1068ZM100.732 48.5208H100.751C100.968 48.5529 101.189 48.51 101.378 48.399C101.938 48.068 102.2 47.4288 102.166 46.4966C102.164 46.4712 102.164 46.4458 102.166 46.4205C102.161 46.2931 102.15 46.1661 102.132 46.04C102.132 46.04 102.132 46.0095 102.132 45.9943V45.9639C102.132 45.9106 102.113 45.8687 102.109 45.8345V45.8041C102.081 45.6266 102.042 45.4511 101.991 45.279C101.989 45.2562 101.989 45.2333 101.991 45.2105C101.978 45.1503 101.985 45.0875 102.01 45.0314C102.035 44.9753 102.078 44.9287 102.132 44.8985C102.187 44.8698 102.25 44.8595 102.312 44.869C102.373 44.8786 102.43 44.9076 102.474 44.9517C102.498 44.9757 102.521 45.0011 102.543 45.0278L102.573 45.0621C102.601 45.0871 102.627 45.1151 102.649 45.1458L102.896 45.3741C102.937 45.4156 102.981 45.4549 103.026 45.492L103.079 45.5377L103.193 45.629L103.231 45.6595C103.303 45.7185 103.378 45.7731 103.456 45.8231L103.536 45.8802C103.657 45.9563 103.783 46.0209 103.889 46.0742H103.927C103.975 46.0989 104.025 46.1206 104.076 46.1389C104.156 46.1693 104.217 46.1845 104.277 46.2036C104.338 46.2226 104.407 46.234 104.468 46.2416C104.628 46.2686 104.793 46.2608 104.951 46.2188C104.999 46.2076 105.046 46.1923 105.092 46.1731C105.143 46.1503 105.193 46.1236 105.24 46.0932C105.355 46.0236 105.452 45.927 105.522 45.8117L105.563 45.7432C105.563 45.7432 105.563 45.7432 105.563 45.7203C105.593 45.6588 105.619 45.5953 105.639 45.5301C105.639 45.5301 105.658 45.4616 105.658 45.4578C105.658 45.454 105.658 45.4198 105.658 45.4007V45.3665V45.3284V45.2904C105.674 45.2404 105.687 45.1896 105.697 45.1382C105.697 45.1382 105.697 45.1077 105.697 45.0925C105.706 44.9316 105.706 44.7702 105.697 44.6093V44.4114C105.679 44.2032 105.65 43.9961 105.609 43.7912C105.599 43.7257 105.585 43.6609 105.567 43.5972C105.544 43.483 105.525 43.3917 105.502 43.3004L105.43 43.0226C105.339 42.6916 105.248 42.4329 105.206 42.3187L97.3417 35.5345L96.4286 36.6341L98.3309 46.4167C98.3452 46.4358 98.358 46.4562 98.3689 46.4775C98.6653 46.9113 99.0015 47.3164 99.3733 47.6875L99.4608 47.775C99.5887 47.8974 99.7261 48.0093 99.8717 48.1099C99.9013 48.1394 99.9345 48.1649 99.9706 48.186L100.016 48.2164C100.09 48.2652 100.166 48.3097 100.245 48.3496C100.301 48.3796 100.36 48.4063 100.42 48.4295C100.475 48.4543 100.532 48.4746 100.591 48.4904L100.732 48.5208Z" fill="#0B2952"/>
<path d="M104.962 50.4651C104.909 50.4649 104.857 50.4498 104.812 50.4215C104.767 50.3933 104.731 50.353 104.707 50.3053L102.425 45.7165C102.393 45.6487 102.388 45.5711 102.412 45.5001C102.436 45.4291 102.487 45.3703 102.554 45.336C102.622 45.3031 102.7 45.2981 102.771 45.3224C102.842 45.3466 102.901 45.398 102.934 45.4654L105.217 50.0542C105.25 50.1218 105.255 50.1998 105.231 50.2711C105.207 50.3423 105.155 50.4011 105.088 50.4347C105.049 50.4542 105.006 50.4646 104.962 50.4651Z" fill="#0B2952"/>
<path d="M123.266 80.2351C123.217 80.2344 123.169 80.2214 123.127 80.1975C123.084 80.1736 123.048 80.1394 123.023 80.0981L117.35 70.8978C117.315 70.834 117.305 70.7594 117.323 70.6889C117.341 70.6184 117.384 70.5571 117.445 70.5173C117.508 70.4811 117.583 70.4705 117.653 70.4874C117.724 70.5044 117.786 70.5477 117.825 70.6086L123.498 79.809C123.533 79.8723 123.543 79.9465 123.527 80.017C123.51 80.0875 123.467 80.149 123.407 80.1895C123.364 80.2156 123.316 80.2313 123.266 80.2351Z" fill="#0B2952"/>
<path d="M133.721 71.0348C133.68 71.0346 133.639 71.0257 133.602 71.0087C133.564 70.9916 133.531 70.9668 133.504 70.9358L120.881 56.7015C120.856 56.6735 120.836 56.6409 120.824 56.6055C120.812 56.57 120.806 56.5325 120.808 56.4951C120.811 56.4576 120.82 56.421 120.836 56.3872C120.853 56.3534 120.875 56.3231 120.903 56.2982C120.931 56.2732 120.964 56.2539 120.999 56.2416C121.035 56.2292 121.072 56.2239 121.11 56.226C121.147 56.2282 121.184 56.2376 121.218 56.2539C121.251 56.2702 121.282 56.293 121.307 56.321L133.934 70.5591C133.983 70.6165 134.008 70.6909 134.003 70.7662C133.998 70.8416 133.964 70.912 133.907 70.9625C133.856 71.0077 133.79 71.0333 133.721 71.0348Z" fill="#29275F"/>
<path d="M138.233 66.8265C138.161 66.8254 138.092 66.7984 138.039 66.7504L126.188 55.9709C126.156 55.9471 126.13 55.917 126.11 55.8825C126.091 55.8479 126.079 55.8097 126.075 55.7703C126.071 55.7308 126.076 55.691 126.088 55.6534C126.101 55.6158 126.121 55.5811 126.147 55.5517C126.174 55.5223 126.206 55.4987 126.242 55.4824C126.278 55.4662 126.317 55.4576 126.357 55.4573C126.397 55.457 126.436 55.465 126.472 55.4807C126.509 55.4964 126.541 55.5195 126.568 55.5486L138.416 66.3242C138.444 66.3494 138.466 66.3799 138.482 66.4138C138.498 66.4477 138.507 66.4845 138.509 66.5219C138.511 66.5594 138.505 66.5968 138.492 66.6321C138.48 66.6674 138.46 66.6998 138.435 66.7275C138.41 66.7572 138.379 66.7813 138.344 66.7983C138.31 66.8153 138.272 66.8249 138.233 66.8265Z" fill="#29275F"/>
<path d="M130.228 111.497C130.162 111.496 130.099 111.474 130.047 111.432C129.996 111.391 129.961 111.333 129.947 111.268C129.933 111.194 129.948 111.118 129.989 111.055C130.031 110.992 130.094 110.947 130.167 110.93C132.046 110.537 133.896 110.023 135.707 109.389C135.742 109.375 135.779 109.369 135.817 109.37C135.854 109.371 135.891 109.379 135.925 109.394C135.96 109.409 135.991 109.431 136.016 109.458C136.042 109.485 136.063 109.517 136.076 109.552C136.089 109.587 136.096 109.625 136.095 109.662C136.094 109.7 136.086 109.736 136.071 109.771C136.055 109.805 136.034 109.836 136.006 109.862C135.979 109.888 135.947 109.908 135.912 109.921C134.074 110.569 132.194 111.092 130.285 111.489L130.228 111.497Z" fill="#29275F"/>
</svg>
