
<svg width="154" height="164" viewBox="0 0 154 164" fill="none" xmlns="http://www.w3.org/2000/svg">
<path d="M90.1104 4.55961H73.7485V162.423H90.1104V4.55961Z" fill="url(#paint0_linear_59_2728)"/>
<path d="M82.3897 8.50995H6.51636V162.423H82.3897V8.50995Z" fill="url(#paint1_linear_59_2728)"/>
<path d="M82.3897 8.50995H6.51636V19.549H82.3897V8.50995Z" fill="#1F4E8D"/>
<path d="M71.9709 63.2752H61.2764V83.267H71.9709V63.2752Z" fill="url(#paint2_linear_59_2728)"/>
<path d="M71.3366 64.23H61.9121V82.4817H71.3366V64.23Z" fill="#91B3FA"/>
<path d="M66.8993 63.6626H66.2256V83.0024H66.8993V63.6626Z" fill="url(#paint3_linear_59_2728)"/>
<path d="M71.4786 72.8514H61.7573V73.4675H71.4786V72.8514Z" fill="url(#paint4_linear_59_2728)"/>
<path d="M71.4786 68.2636H61.7573V68.6136H71.4786V68.2636Z" fill="url(#paint5_linear_59_2728)"/>
<path d="M71.4786 78.0648H61.7573V78.4148H71.4786V78.0648Z" fill="url(#paint6_linear_59_2728)"/>
<path d="M71.9721 83.3286H61.4814V83.9046H71.9721V83.3286Z" fill="url(#paint7_linear_59_2728)"/>
<path d="M25.4398 100.948H14.7454V120.94H25.4398V100.948Z" fill="#0B2952"/>
<path d="M24.8049 101.903H15.3804V120.155H24.8049V101.903Z" fill="#A8E8FD"/>
<path d="M20.3674 101.336H19.6936V120.676H20.3674V101.336Z" fill="#0B2952"/>
<path d="M24.9474 110.525H15.2261V111.141H24.9474V110.525Z" fill="#0B2952"/>
<path d="M24.9474 105.938H15.2261V106.288H24.9474V105.938Z" fill="#0B2952"/>
<path d="M24.9474 115.738H15.2261V116.088H24.9474V115.738Z" fill="#0B2952"/>
<path d="M25.4398 121.002H14.9492V121.578H25.4398V121.002Z" fill="#A8E8FD"/>
<path d="M25.0651 138.243H14.3706V158.235H25.0651V138.243Z" fill="#0B2952"/>
<path d="M24.4301 139.198H15.0056V157.449H24.4301V139.198Z" fill="#A8E8FD"/>
<path d="M19.9926 138.63H19.3188V157.97H19.9926V138.63Z" fill="#0B2952"/>
<path d="M24.5726 147.819H14.8513V148.435H24.5726V147.819Z" fill="#0B2952"/>
<path d="M24.5726 143.232H14.8513V143.582H24.5726V143.232Z" fill="#0B2952"/>
<path d="M24.5726 153.032H14.8513V153.382H24.5726V153.032Z" fill="#0B2952"/>
<path d="M25.0651 158.297H14.5745V158.873H25.0651V158.297Z" fill="#A8E8FD"/>
<path d="M73.2716 138.307H62.5771V158.298H73.2716V138.307Z" fill="url(#paint8_linear_59_2728)"/>
<path d="M72.6364 139.261H63.2119V157.513H72.6364V139.261Z" fill="#91B3FA"/>
<path d="M68.1991 138.694H67.5254V158.034H68.1991V138.694Z" fill="url(#paint9_linear_59_2728)"/>
<path d="M72.7789 147.882H63.0576V148.498H72.7789V147.882Z" fill="url(#paint10_linear_59_2728)"/>
<path d="M72.7789 143.295H63.0576V143.646H72.7789V143.295Z" fill="url(#paint11_linear_59_2728)"/>
<path d="M72.7789 153.096H63.0576V153.446H72.7789V153.096Z" fill="url(#paint12_linear_59_2728)"/>
<path d="M73.2714 158.361H62.7808V158.937H73.2714V158.361Z" fill="url(#paint13_linear_59_2728)"/>
<path d="M48.9943 100.948H38.2998V120.94H48.9943V100.948Z" fill="#0B2952"/>
<path d="M48.3591 101.903H38.9346V120.155H48.3591V101.903Z" fill="#A8E8FD"/>
<path d="M43.9218 101.336H43.248V120.676H43.9218V101.336Z" fill="#0B2952"/>
<path d="M48.5016 110.525H38.7803V111.141H48.5016V110.525Z" fill="#0B2952"/>
<path d="M48.5016 105.938H38.7803V106.288H48.5016V105.938Z" fill="#0B2952"/>
<path d="M48.5016 115.738H38.7803V116.088H48.5016V115.738Z" fill="#0B2952"/>
<path d="M48.9945 121.002H38.5039V121.578H48.9945V121.002Z" fill="#A8E8FD"/>
<path d="M71.9709 100.985H61.2764V120.977H71.9709V100.985Z" fill="url(#paint14_linear_59_2728)"/>
<path d="M71.3366 101.939H61.9121V120.191H71.3366V101.939Z" fill="#91B3FA"/>
<path d="M66.8993 101.372H66.2256V120.712H66.8993V101.372Z" fill="url(#paint15_linear_59_2728)"/>
<path d="M71.4786 110.562H61.7573V111.178H71.4786V110.562Z" fill="url(#paint16_linear_59_2728)"/>
<path d="M71.4786 105.974H61.7573V106.324H71.4786V105.974Z" fill="url(#paint17_linear_59_2728)"/>
<path d="M71.4786 115.774H61.7573V116.124H71.4786V115.774Z" fill="url(#paint18_linear_59_2728)"/>
<path d="M71.9721 121.039H61.4814V121.615H71.9721V121.039Z" fill="url(#paint19_linear_59_2728)"/>
<path d="M26.0431 50.3795H14.5051V28.8115C18.4026 25.2358 22.538 25.2438 26.0431 28.8115V50.3795Z" fill="#0B2952"/>
<path d="M25.3573 49.5321H15.1902V29.8416C18.3611 26.4566 22.2653 26.5746 25.3573 29.8416V49.5321Z" fill="#A8E8FD"/>
<path d="M20.5696 27.0567H19.843V50.0936H20.5696V27.0567Z" fill="#0B2952"/>
<path d="M25.5111 38.7805H15.0232V39.4452H25.5111V38.7805Z" fill="#0B2952"/>
<path d="M25.5111 33.4685H15.0232V33.8466H25.5111V33.4685Z" fill="#0B2952"/>
<path d="M25.5111 44.5855H15.0232V44.9635H25.5111V44.5855Z" fill="#0B2952"/>
<path d="M26.0423 50.4462H14.7249V51.0676H26.0423V50.4462Z" fill="#A8E8FD"/>
<path d="M49.196 50.3114H37.658V28.7434C41.5554 25.1677 45.6909 25.1757 49.196 28.7434V50.3114Z" fill="#0B2952"/>
<path d="M48.5104 49.464H38.3433V29.7735C41.5142 26.3885 45.4183 26.5065 48.5104 29.7735V49.464Z" fill="#A8E8FD"/>
<path d="M43.7227 26.9887H42.9961V50.0255H43.7227V26.9887Z" fill="#0B2952"/>
<path d="M48.6642 38.7125H38.1763V39.3772H48.6642V38.7125Z" fill="#0B2952"/>
<path d="M48.6642 33.4005H38.1763V33.7786H48.6642V33.4005Z" fill="#0B2952"/>
<path d="M48.6642 44.5174H38.1763V44.8954H48.6642V44.5174Z" fill="#0B2952"/>
<path d="M49.1954 50.3781H37.8779V50.9995H49.1954V50.3781Z" fill="#A8E8FD"/>
<path d="M72.35 50.3633H60.812V28.7953C64.7095 25.2196 68.8449 25.2276 72.35 28.7953V50.3633Z" fill="url(#paint20_linear_59_2728)"/>
<path d="M71.6647 49.5158H61.4976V29.8253C64.6685 26.4403 68.5726 26.5583 71.6647 29.8253V49.5158Z" fill="#91B3FA"/>
<path d="M66.8765 27.0406H66.1499V50.0774H66.8765V27.0406Z" fill="url(#paint21_linear_59_2728)"/>
<path d="M71.818 38.7645H61.3301V39.4293H71.818V38.7645Z" fill="url(#paint22_linear_59_2728)"/>
<path d="M71.818 33.4524H61.3301V33.8304H71.818V33.4524Z" fill="url(#paint23_linear_59_2728)"/>
<path d="M71.818 44.5695H61.3301V44.9476H71.818V44.5695Z" fill="url(#paint24_linear_59_2728)"/>
<path d="M72.3497 50.43H61.0322V51.0514H72.3497V50.43Z" fill="url(#paint25_linear_59_2728)"/>
<path d="M49.2266 136.336H36.321V162.423H49.2266V136.336Z" fill="#1F4E8D"/>
<path d="M48.3834 137.29H36.8982V161.963H48.3834V137.29Z" fill="#0B2952"/>
<path d="M82.3906 10.8742L80.1094 4.55961H82.902L83.1326 10.6388V19.4643L82.3906 19.549V10.8742Z" fill="url(#paint26_linear_59_2728)"/>
<path d="M6.51636 61.5847L17.7924 59.2998L29.6318 49.5322L40.0877 53.6659L55.8246 55.9995L39.9353 54.5753L29.6318 51.4344C29.6318 51.4344 31.7213 62.7021 31.1692 62.4474C30.6171 62.1927 28.4822 51.7224 28.4822 51.7224L19.0804 59.9832L23.4096 64.2636L20.3697 74.7766L22.0702 64.2636L17.7924 60.6439L6.51636 61.5847Z" fill="#0B2952"/>
<path d="M33.4281 111.986L35.815 123.423L45.8411 125.466L51.6328 122.007L45.6172 126.071L34.5885 124.236L27.0455 129.078L33.2276 141.902C33.2276 141.902 32.0686 151.99 32.1181 151.593C32.1675 151.197 31.7364 141.787 31.7364 141.787L26.7722 142.694L31.1282 140.324C31.1282 140.324 25.7809 128.872 25.4781 128.497C25.1753 128.123 14.5571 131.079 14.8578 130.323C15.1586 129.568 25.1078 126.923 25.1078 126.923L34.4575 122.923L33.4281 111.986Z" fill="#0B2952"/>
<path d="M48.9943 63.2383H38.2998V83.2302H48.9943V63.2383Z" fill="#0B2952"/>
<path d="M48.3591 64.1931H38.9346V82.4449H48.3591V64.1931Z" fill="#A8E8FD"/>
<path d="M43.9218 63.6259H43.248V82.9657H43.9218V63.6259Z" fill="#0B2952"/>
<path d="M48.5016 72.8148H38.7803V73.4308H48.5016V72.8148Z" fill="#0B2952"/>
<path d="M48.5016 68.2276H38.7803V68.5777H48.5016V68.2276Z" fill="#0B2952"/>
<path d="M48.5016 78.0278H38.7803V78.3778H48.5016V78.0278Z" fill="#0B2952"/>
<path d="M48.9945 83.2923H38.5039V83.8684H48.9945V83.2923Z" fill="#A8E8FD"/>
<path d="M80.1096 4.56314L55.5524 4.71982L46.4995 6.75135L42.0506 6.40331L35.3398 7.71744L30.5447 6.40331L23.4823 7.71744L16.2461 7.3634C16.2461 7.3634 15.0758 6.40198 13.372 4.99718L0.408936 5.07785L6.53153 10.8744H82.3902L80.1096 4.56314Z" fill="#2F6EC2"/>
<path d="M25.4398 63.2383H14.7454V83.2302H25.4398V63.2383Z" fill="#0B2952"/>
<path d="M24.8049 64.1931H15.3804V82.4449H24.8049V64.1931Z" fill="#A8E8FD"/>
<path d="M20.3674 63.6259H19.6936V82.9657H20.3674V63.6259Z" fill="#0B2952"/>
<path d="M24.9474 72.8148H15.2261V73.4308H24.9474V72.8148Z" fill="#0B2952"/>
<path d="M24.9474 68.2276H15.2261V68.5777H24.9474V68.2276Z" fill="#0B2952"/>
<path d="M24.9474 78.0278H15.2261V78.3778H24.9474V78.0278Z" fill="#0B2952"/>
<path d="M25.4398 83.2923H14.9492V83.8684H25.4398V83.2923Z" fill="#A8E8FD"/>
<path d="M145.443 0.97541H128.647V163.025H145.443V0.97541Z" fill="url(#paint27_linear_59_2728)"/>
<path d="M137.517 5.02967H59.6313V163.025H137.517V5.02967Z" fill="#93E5FF"/>
<path d="M137.517 5.02967H59.6313V16.3614H137.517V5.02967Z" fill="#1F4E8D"/>
<path d="M137.517 88.4264H59.6313V90.7153H137.517V88.4264Z" fill="#0B2952"/>
<path d="M137.517 52.3668H59.6313V54.8684H137.517V52.3668Z" fill="#0B2952"/>
<path d="M79.0567 61.2099H68.0781V81.7319H79.0567V61.2099Z" fill="#0B2952"/>
<path d="M78.405 62.1899H68.7305V80.9257H78.405V62.1899Z" fill="#CEF3FF"/>
<path d="M73.8495 61.607H73.1577V81.4596H73.8495V61.607Z" fill="#0B2952"/>
<path d="M78.5511 71.04H68.5718V71.672H78.5511V71.04Z" fill="#0B2952"/>
<path d="M78.5511 66.3309H68.5718V66.6903H78.5511V66.3309Z" fill="#0B2952"/>
<path d="M78.5511 76.3913H68.5718V76.7506H78.5511V76.3913Z" fill="#0B2952"/>
<path d="M79.0568 81.7952H68.2881V82.3866H79.0568V81.7952Z" fill="#1F4E8D"/>
<path d="M79.2666 81.0982H67.79V82.1116H79.2666V81.0982Z" fill="#52D4FF"/>
<path d="M79.2954 60.1962H67.8188V61.2096H79.2954V60.1962Z" fill="#52D4FF"/>
<path d="M103.236 61.21H92.2573V81.732H103.236V61.21Z" fill="#0B2952"/>
<path d="M102.584 62.1901H92.9097V80.9258H102.584V62.1901Z" fill="#CEF3FF"/>
<path d="M98.0287 61.6072H97.3369V81.4598H98.0287V61.6072Z" fill="#0B2952"/>
<path d="M102.73 71.0401H92.7505V71.6722H102.73V71.0401Z" fill="#0B2952"/>
<path d="M102.73 66.3311H92.7505V66.6905H102.73V66.3311Z" fill="#0B2952"/>
<path d="M102.73 76.3914H92.7505V76.7508H102.73V76.3914Z" fill="#0B2952"/>
<path d="M103.236 81.7953H92.4673V82.3867H103.236V81.7953Z" fill="#1F4E8D"/>
<path d="M103.446 81.0984H91.9692V82.1118H103.446V81.0984Z" fill="#52D4FF"/>
<path d="M103.475 60.1964H91.998V61.2098H103.475V60.1964Z" fill="#52D4FF"/>
<path d="M126.809 61.7543H115.83V82.2762H126.809V61.7543Z" fill="#0B2952"/>
<path d="M126.157 62.7343H116.482V81.4701H126.157V62.7343Z" fill="#CEF3FF"/>
<path d="M121.601 62.1514H120.91V82.004H121.601V62.1514Z" fill="#0B2952"/>
<path d="M126.303 71.5844H116.323V72.2164H126.303V71.5844Z" fill="#0B2952"/>
<path d="M126.303 66.8753H116.323V67.2347H126.303V66.8753Z" fill="#0B2952"/>
<path d="M126.303 76.9356H116.323V77.295H126.303V76.9356Z" fill="#0B2952"/>
<path d="M126.809 82.3395H116.04V82.9309H126.809V82.3395Z" fill="#1F4E8D"/>
<path d="M127.019 81.6426H115.542V82.656H127.019V81.6426Z" fill="#52D4FF"/>
<path d="M127.047 60.7406H115.571V61.7541H127.047V60.7406Z" fill="#52D4FF"/>
<path d="M127.061 60.2343H115.585V61.2477H127.061V60.2343Z" fill="white"/>
<path d="M137.517 127.136H59.6313V135.325H137.517V127.136Z" fill="white"/>
<path d="M79.0573 120.505H68.2886V121.097H79.0573V120.505Z" fill="url(#paint28_linear_59_2728)"/>
<path d="M79.2666 119.808H67.79V120.821H79.2666V119.808Z" fill="white"/>
<path d="M79.0718 99.5928H68.0933V120.115H79.0718V99.5928Z" fill="#0B2952"/>
<path d="M78.4201 100.573H68.7456V119.309H78.4201V100.573Z" fill="#CEF3FF"/>
<path d="M73.8646 99.99H73.1729V119.843H73.8646V99.99Z" fill="#0B2952"/>
<path d="M78.5657 109.423H68.5864V110.055H78.5657V109.423Z" fill="#0B2952"/>
<path d="M78.5657 104.714H68.5864V105.073H78.5657V104.714Z" fill="#0B2952"/>
<path d="M78.5657 114.774H68.5864V115.134H78.5657V114.774Z" fill="#0B2952"/>
<path d="M79.0719 120.178H68.3032V120.769H79.0719V120.178Z" fill="#1F4E8D"/>
<path d="M79.2817 119.481H67.8052V120.495H79.2817V119.481Z" fill="#52D4FF"/>
<path d="M79.3105 98.5792H67.834V99.5926H79.3105V98.5792Z" fill="#52D4FF"/>
<path d="M78.6719 138.204H67.6934V158.725H78.6719V138.204Z" fill="#0B2952"/>
<path d="M78.0202 139.184H68.3457V157.919H78.0202V139.184Z" fill="#CEF3FF"/>
<path d="M73.4647 138.601H72.7729V158.453H73.4647V138.601Z" fill="#0B2952"/>
<path d="M78.1658 148.034H68.1865V148.666H78.1658V148.034Z" fill="#0B2952"/>
<path d="M78.1658 143.325H68.1865V143.684H78.1658V143.325Z" fill="#0B2952"/>
<path d="M78.1658 153.385H68.1865V153.744H78.1658V153.385Z" fill="#0B2952"/>
<path d="M78.672 158.789H67.9033V159.38H78.672V158.789Z" fill="#1F4E8D"/>
<path d="M78.8818 158.092H67.4053V159.105H78.8818V158.092Z" fill="#52D4FF"/>
<path d="M78.9106 137.19H67.4341V138.203H78.9106V137.19Z" fill="#52D4FF"/>
<path d="M128.156 138.269H117.178V158.791H128.156V138.269Z" fill="#0B2952"/>
<path d="M127.505 139.249H117.83V157.984H127.505V139.249Z" fill="#CEF3FF"/>
<path d="M122.949 138.666H122.257V158.518H122.949V138.666Z" fill="#0B2952"/>
<path d="M127.65 148.099H117.671V148.731H127.65V148.099Z" fill="#0B2952"/>
<path d="M127.65 143.39H117.671V143.749H127.65V143.39Z" fill="#0B2952"/>
<path d="M127.65 153.45H117.671V153.809H127.65V153.45Z" fill="#0B2952"/>
<path d="M128.156 158.854H117.388V159.445H128.156V158.854Z" fill="#1F4E8D"/>
<path d="M128.366 158.157H116.89V159.17H128.366V158.157Z" fill="#52D4FF"/>
<path d="M128.395 137.255H116.918V138.268H128.395V137.255Z" fill="#52D4FF"/>
<path d="M102.73 115.101H92.751V115.461H102.73V115.101Z" fill="url(#paint29_linear_59_2728)"/>
<path d="M103.236 99.9202H92.2573V120.442H103.236V99.9202Z" fill="#0B2952"/>
<path d="M102.584 100.9H92.9097V119.636H102.584V100.9Z" fill="#CEF3FF"/>
<path d="M98.0287 100.317H97.3369V120.17H98.0287V100.317Z" fill="#0B2952"/>
<path d="M102.73 109.75H92.7505V110.382H102.73V109.75Z" fill="#0B2952"/>
<path d="M102.73 105.041H92.7505V105.401H102.73V105.041Z" fill="#0B2952"/>
<path d="M102.73 115.102H92.7505V115.461H102.73V115.102Z" fill="#0B2952"/>
<path d="M103.236 120.505H92.4673V121.097H103.236V120.505Z" fill="#1F4E8D"/>
<path d="M103.446 119.808H91.9692V120.822H103.446V119.808Z" fill="#52D4FF"/>
<path d="M103.475 98.9065H91.998V99.9199H103.475V98.9065Z" fill="#52D4FF"/>
<path d="M126.822 99.9576H115.844V120.48H126.822V99.9576Z" fill="url(#paint30_linear_59_2728)"/>
<path d="M126.823 99.9575H115.844V120.479H126.823V99.9575Z" fill="#0B2952"/>
<path d="M126.171 100.938H116.497V119.673H126.171V100.938Z" fill="#CEF3FF"/>
<path d="M121.616 100.355H120.924V120.207H121.616V100.355Z" fill="#0B2952"/>
<path d="M126.317 109.788H116.337V110.42H126.317V109.788Z" fill="#0B2952"/>
<path d="M126.317 105.079H116.337V105.438H126.317V105.079Z" fill="#0B2952"/>
<path d="M126.317 115.139H116.337V115.498H126.317V115.139Z" fill="#0B2952"/>
<path d="M126.823 120.543H116.054V121.134H126.823V120.543Z" fill="#1F4E8D"/>
<path d="M127.033 119.846H115.556V120.859H127.033V119.846Z" fill="#52D4FF"/>
<path d="M127.061 98.9438H115.585V99.9573H127.061V98.9438Z" fill="#52D4FF"/>
<path d="M79.676 48.0099H67.8325V25.8698C71.8329 22.1988 76.0786 22.2075 79.676 25.8698V48.0099Z" fill="#0B2952"/>
<path d="M78.9728 47.1398H68.5356V26.9272C71.7908 23.4522 75.7985 23.5723 78.9728 26.9272V47.1398Z" fill="#CEF3FF"/>
<path d="M74.058 24.0684H73.312V47.7166H74.058V24.0684Z" fill="#0B2952"/>
<path d="M79.1303 36.1034H68.3643V36.7854H79.1303V36.1034Z" fill="#0B2952"/>
<path d="M79.1303 30.6502H68.3643V31.0382H79.1303V30.6502Z" fill="#0B2952"/>
<path d="M79.1303 42.062H68.3643V42.45H79.1303V42.062Z" fill="#0B2952"/>
<path d="M79.6761 48.0779H68.0586V48.716H79.6761V48.0779Z" fill="#1F4E8D"/>
<path d="M79.9025 47.3258H67.521V48.4192H79.9025V47.3258Z" fill="#52D4FF"/>
<path d="M103.443 47.941H91.5991V25.8009C95.5995 22.1299 99.8452 22.1386 103.443 25.8009V47.941Z" fill="#0B2952"/>
<path d="M102.739 47.0709H92.3022V26.8583C95.5574 23.3833 99.5651 23.5033 102.739 26.8583V47.0709Z" fill="#CEF3FF"/>
<path d="M97.8246 23.9994H97.0786V47.6476H97.8246V23.9994Z" fill="#0B2952"/>
<path d="M102.897 36.0344H92.1313V36.7165H102.897V36.0344Z" fill="#0B2952"/>
<path d="M102.897 30.5813H92.1313V30.9693H102.897V30.5813Z" fill="#0B2952"/>
<path d="M102.897 41.993H92.1313V42.3811H102.897V41.993Z" fill="#0B2952"/>
<path d="M103.443 48.009H91.8252V48.647H103.443V48.009Z" fill="#1F4E8D"/>
<path d="M103.669 47.2568H91.2876V48.3503H103.669V47.2568Z" fill="#52D4FF"/>
<path d="M127.211 47.9945H115.367V25.8544C119.368 22.1834 123.613 22.192 127.211 25.8544V47.9945Z" fill="#0B2952"/>
<path d="M126.507 47.1243H116.07V26.9118C119.325 23.4368 123.333 23.5568 126.507 26.9118V47.1243Z" fill="#CEF3FF"/>
<path d="M121.593 24.0529H120.847V47.7011H121.593V24.0529Z" fill="#0B2952"/>
<path d="M126.665 36.0879H115.899V36.7699H126.665V36.0879Z" fill="#0B2952"/>
<path d="M126.665 30.6348H115.899V31.0228H126.665V30.6348Z" fill="#0B2952"/>
<path d="M126.665 42.0465H115.899V42.4346H126.665V42.0465Z" fill="#0B2952"/>
<path d="M127.211 48.0624H115.593V48.7005H127.211V48.0624Z" fill="#1F4E8D"/>
<path d="M127.437 47.3103H115.056V48.4037H127.437V47.3103Z" fill="#52D4FF"/>
<path d="M136.888 127.604H59.9717V134.9H136.888V127.604Z" fill="#0B2952"/>
<path d="M103.475 136.246H90.2271V163.025H103.475V136.246Z" fill="#0B2952"/>
<path d="M96.4065 137.19H90.8193V141.583H96.4065V137.19Z" fill="#CEF3FF"/>
<path d="M102.609 137.19H97.4478V141.583H102.609V137.19Z" fill="#CEF3FF"/>
<path d="M102.609 142.15H90.8193V162.553H102.609V142.15Z" fill="#1F4E8D"/>
<path d="M100.028 144.573H93.4229V154.287H100.028V144.573Z" fill="#0B2952"/>
<path d="M99.6021 144.959H93.8491V153.992H99.6021V144.959Z" fill="#CEF3FF"/>
<path d="M97.0454 144.748H96.6431V154.193H97.0454V144.748Z" fill="#0B2952"/>
<path d="M99.886 147.392H93.6123V147.793H99.886V147.392Z" fill="#0B2952"/>
<path d="M99.8625 150.84H93.5889V151.241H99.8625V150.84Z" fill="#0B2952"/>
<path d="M59.6478 7.45736L53.3628 1.50613L135.176 0.97541L137.517 7.45736H59.6478Z" fill="#2F6EC2"/>
<path d="M137.517 7.45736L135.176 0.97541H138.042L138.279 7.21533V16.2749L137.517 16.3615V7.45736Z" fill="#2F6EC2"/>
<path opacity="0.51" d="M55.165 3.21286L135.815 2.74282L136.347 4.21629L56.5881 4.55966L55.165 3.21286Z" fill="#1F4E8D"/>
<path opacity="0.3" d="M137.517 8.66834H59.6313V9.78978H137.517V8.66834Z" fill="#1F4E8D"/>
<path d="M137.517 16.3617H59.6313V17.4412H137.517V16.3617Z" fill="#2F6EC2"/>
<path opacity="0.96" d="M53.3628 1.50613L135.176 0.97541L135.368 1.50613L53.9269 2.04084L53.3628 1.50613Z" fill="#1F4E8D"/>
<path d="M112.722 60.6097C119.673 61.8252 126.854 62.1432 133.798 60.7197C136.944 60.0744 140.007 59.0748 142.928 57.7401C147.447 55.6733 152.783 53.3057 153.464 47.7205C153.843 44.5989 151.596 43.0727 148.846 42.534C147.918 42.3527 146.975 42.234 146.053 42.5007C145.184 42.7501 145.337 43.0881 145.401 43.9108C145.469 44.766 145.536 45.6217 145.602 46.4777C145.719 47.9745 143.48 48.6853 142.408 49.306C139.875 50.785 137.185 51.9774 134.387 52.861C127.689 54.9492 120.562 55.0252 113.642 54.2291C111.358 53.9664 109.542 56.1073 110.166 58.3135C110.333 58.8972 110.661 59.4222 111.113 59.8283C111.565 60.2345 112.123 60.5053 112.722 60.6097Z" fill="#1F4E8D"/>
<path d="M118.382 67.4716L104.089 57.4487C103.99 57.3788 103.911 57.2845 103.859 57.1749C103.807 57.0654 103.784 56.9443 103.793 56.8235C103.802 56.7027 103.842 56.5863 103.91 56.4855C103.977 56.3848 104.07 56.3031 104.178 56.2485L119.2 48.7245C119.327 48.6608 119.47 48.6316 119.612 48.6397C119.754 48.6479 119.892 48.6931 120.012 48.771C120.131 48.8488 120.228 48.9565 120.293 49.0834C120.357 49.2102 120.388 49.3518 120.38 49.4939C118.576 55.7398 118.369 61.527 119.487 66.9362C119.48 67.061 119.44 67.1817 119.371 67.2859C119.301 67.39 119.205 67.4737 119.093 67.5284C118.98 67.583 118.855 67.6065 118.73 67.5966C118.605 67.5866 118.485 67.5434 118.382 67.4716Z" fill="#1F4E8D"/>
<path d="M95.5903 120.358C89.0807 123.07 82.1453 124.962 75.0569 125.097C71.8451 125.159 68.6367 124.857 65.4933 124.197C60.6287 123.174 54.9004 122.037 53.0035 116.739C51.9427 113.777 53.7982 111.795 56.3616 110.665C57.5647 110.136 58.8828 109.672 60.1668 109.945C59.7657 111.14 59.344 113.5 60.2944 114.492C60.9722 115.2 63.1947 115.559 64.1371 115.856C66.9352 116.742 69.8237 117.313 72.7488 117.561C79.743 118.125 86.7118 116.633 93.2856 114.336C95.4552 113.578 97.6971 115.269 97.5754 117.556C97.5422 118.162 97.3383 118.746 96.9871 119.242C96.636 119.737 96.1518 120.124 95.5903 120.358Z" fill="#1F4E8D"/>
<path d="M91.1383 128.267L102.867 115.349C102.949 115.26 103.005 115.15 103.032 115.032C103.059 114.913 103.054 114.79 103.018 114.674C102.983 114.558 102.918 114.453 102.83 114.369C102.741 114.286 102.633 114.227 102.515 114.197L86.2001 110.16C86.0616 110.125 85.9166 110.128 85.7794 110.167C85.6422 110.206 85.5178 110.28 85.4184 110.382C85.319 110.485 85.2482 110.611 85.2131 110.749C85.178 110.887 85.1797 111.031 85.2182 111.168C88.3597 116.865 89.8382 122.465 89.9432 127.986C89.977 128.106 90.0425 128.216 90.133 128.302C90.2235 128.389 90.3356 128.45 90.4576 128.478C90.5797 128.507 90.7072 128.502 90.8269 128.465C90.9466 128.428 91.0541 128.359 91.1383 128.267Z" fill="#1F4E8D"/>
<defs>
<linearGradient id="paint0_linear_59_2728" x1="25.9074" y1="76.155" x2="120.765" y2="88.6397" gradientUnits="userSpaceOnUse">
<stop stop-color="#FF928E"/>
<stop offset="1" stop-color="#FE7062"/>
</linearGradient>
<linearGradient id="paint1_linear_59_2728" x1="218.155" y1="87.8368" x2="-51.9542" y2="84.1325" gradientUnits="userSpaceOnUse">
<stop stop-color="#3ACFFF"/>
<stop offset="0.956731" stop-color="#7EE0FF"/>
</linearGradient>
<linearGradient id="paint2_linear_59_2728" x1="57.8615" y1="89.9263" x2="71.171" y2="64.5018" gradientUnits="userSpaceOnUse">
<stop stop-color="#E1473D"/>
<stop offset="1" stop-color="#E9605A"/>
</linearGradient>
<linearGradient id="paint3_linear_59_2728" x1="57.8377" y1="89.9137" x2="71.1479" y2="64.489" gradientUnits="userSpaceOnUse">
<stop stop-color="#E1473D"/>
<stop offset="1" stop-color="#E9605A"/>
</linearGradient>
<linearGradient id="paint4_linear_59_2728" x1="57.8111" y1="89.8997" x2="71.1206" y2="64.4752" gradientUnits="userSpaceOnUse">
<stop stop-color="#E1473D"/>
<stop offset="1" stop-color="#E9605A"/>
</linearGradient>
<linearGradient id="paint5_linear_59_2728" x1="55.8633" y1="88.8802" x2="69.1735" y2="63.4556" gradientUnits="userSpaceOnUse">
<stop stop-color="#E1473D"/>
<stop offset="1" stop-color="#E9605A"/>
</linearGradient>
<linearGradient id="paint6_linear_59_2728" x1="59.9065" y1="90.9967" x2="73.2161" y2="65.5721" gradientUnits="userSpaceOnUse">
<stop stop-color="#E1473D"/>
<stop offset="1" stop-color="#E9605A"/>
</linearGradient>
<linearGradient id="paint7_linear_59_2728" x1="68.5712" y1="76.5452" x2="66.0851" y2="86.1252" gradientUnits="userSpaceOnUse">
<stop stop-color="#FF928E"/>
<stop offset="1" stop-color="#FE7062"/>
</linearGradient>
<linearGradient id="paint8_linear_59_2728" x1="59.1616" y1="164.958" x2="72.4711" y2="139.533" gradientUnits="userSpaceOnUse">
<stop stop-color="#E1473D"/>
<stop offset="1" stop-color="#E9605A"/>
</linearGradient>
<linearGradient id="paint9_linear_59_2728" x1="59.1383" y1="164.945" x2="72.4479" y2="139.521" gradientUnits="userSpaceOnUse">
<stop stop-color="#E1473D"/>
<stop offset="1" stop-color="#E9605A"/>
</linearGradient>
<linearGradient id="paint10_linear_59_2728" x1="59.1107" y1="164.931" x2="72.4202" y2="139.506" gradientUnits="userSpaceOnUse">
<stop stop-color="#E1473D"/>
<stop offset="1" stop-color="#E9605A"/>
</linearGradient>
<linearGradient id="paint11_linear_59_2728" x1="57.1636" y1="163.911" x2="70.4732" y2="138.487" gradientUnits="userSpaceOnUse">
<stop stop-color="#E1473D"/>
<stop offset="1" stop-color="#E9605A"/>
</linearGradient>
<linearGradient id="paint12_linear_59_2728" x1="61.2061" y1="166.028" x2="74.5157" y2="140.603" gradientUnits="userSpaceOnUse">
<stop stop-color="#E1473D"/>
<stop offset="1" stop-color="#E9605A"/>
</linearGradient>
<linearGradient id="paint13_linear_59_2728" x1="69.8712" y1="151.577" x2="67.3845" y2="161.156" gradientUnits="userSpaceOnUse">
<stop stop-color="#FF928E"/>
<stop offset="1" stop-color="#FE7062"/>
</linearGradient>
<linearGradient id="paint14_linear_59_2728" x1="57.8615" y1="127.636" x2="71.171" y2="102.212" gradientUnits="userSpaceOnUse">
<stop stop-color="#E1473D"/>
<stop offset="1" stop-color="#E9605A"/>
</linearGradient>
<linearGradient id="paint15_linear_59_2728" x1="57.8377" y1="127.624" x2="71.1479" y2="102.2" gradientUnits="userSpaceOnUse">
<stop stop-color="#E1473D"/>
<stop offset="1" stop-color="#E9605A"/>
</linearGradient>
<linearGradient id="paint16_linear_59_2728" x1="57.8111" y1="127.61" x2="71.1206" y2="102.185" gradientUnits="userSpaceOnUse">
<stop stop-color="#E1473D"/>
<stop offset="1" stop-color="#E9605A"/>
</linearGradient>
<linearGradient id="paint17_linear_59_2728" x1="55.8633" y1="126.591" x2="69.1735" y2="101.165" gradientUnits="userSpaceOnUse">
<stop stop-color="#E1473D"/>
<stop offset="1" stop-color="#E9605A"/>
</linearGradient>
<linearGradient id="paint18_linear_59_2728" x1="59.9065" y1="128.707" x2="73.2161" y2="103.282" gradientUnits="userSpaceOnUse">
<stop stop-color="#E1473D"/>
<stop offset="1" stop-color="#E9605A"/>
</linearGradient>
<linearGradient id="paint19_linear_59_2728" x1="68.5712" y1="114.256" x2="66.0851" y2="123.835" gradientUnits="userSpaceOnUse">
<stop stop-color="#FF928E"/>
<stop offset="1" stop-color="#FE7062"/>
</linearGradient>
<linearGradient id="paint20_linear_59_2728" x1="57.0475" y1="57.6987" x2="71.71" y2="29.6898" gradientUnits="userSpaceOnUse">
<stop stop-color="#E1473D"/>
<stop offset="1" stop-color="#E9605A"/>
</linearGradient>
<linearGradient id="paint21_linear_59_2728" x1="56.1392" y1="58.2775" x2="71.9667" y2="28.0426" gradientUnits="userSpaceOnUse">
<stop stop-color="#E1473D"/>
<stop offset="1" stop-color="#E9605A"/>
</linearGradient>
<linearGradient id="paint22_linear_59_2728" x1="57.0723" y1="57.157" x2="71.4312" y2="29.7274" gradientUnits="userSpaceOnUse">
<stop stop-color="#E1473D"/>
<stop offset="1" stop-color="#E9605A"/>
</linearGradient>
<linearGradient id="paint23_linear_59_2728" x1="54.9715" y1="55.6937" x2="69.3303" y2="28.2649" gradientUnits="userSpaceOnUse">
<stop stop-color="#E1473D"/>
<stop offset="1" stop-color="#E9605A"/>
</linearGradient>
<linearGradient id="paint24_linear_59_2728" x1="59.3329" y1="58.521" x2="73.6919" y2="31.0919" gradientUnits="userSpaceOnUse">
<stop stop-color="#E1473D"/>
<stop offset="1" stop-color="#E9605A"/>
</linearGradient>
<linearGradient id="paint25_linear_59_2728" x1="68.6815" y1="43.112" x2="65.9984" y2="53.4469" gradientUnits="userSpaceOnUse">
<stop stop-color="#FF928E"/>
<stop offset="1" stop-color="#FE7062"/>
</linearGradient>
<linearGradient id="paint26_linear_59_2728" x1="74.1138" y1="10.9369" x2="86.8451" y2="12.6126" gradientUnits="userSpaceOnUse">
<stop stop-color="#FF928E"/>
<stop offset="1" stop-color="#FE7062"/>
</linearGradient>
<linearGradient id="paint27_linear_59_2728" x1="137.045" y1="0.97541" x2="136.173" y2="76.8152" gradientUnits="userSpaceOnUse">
<stop stop-color="#195CB8"/>
<stop offset="1" stop-color="#0B2952"/>
</linearGradient>
<linearGradient id="paint28_linear_59_2728" x1="75.5668" y1="113.542" x2="73.0142" y2="123.376" gradientUnits="userSpaceOnUse">
<stop stop-color="#FF928E"/>
<stop offset="1" stop-color="#FE7062"/>
</linearGradient>
<linearGradient id="paint29_linear_59_2728" x1="90.8514" y1="128.377" x2="104.514" y2="102.277" gradientUnits="userSpaceOnUse">
<stop stop-color="#E1473D"/>
<stop offset="1" stop-color="#E9605A"/>
</linearGradient>
<linearGradient id="paint30_linear_59_2728" x1="112.338" y1="127.316" x2="126" y2="101.217" gradientUnits="userSpaceOnUse">
<stop stop-color="#E1473D"/>
<stop offset="1" stop-color="#E9605A"/>
</linearGradient>
</defs>
</svg>
