
<svg width="37" height="38" viewBox="0 0 37 38" fill="none" xmlns="http://www.w3.org/2000/svg">
<path opacity="0.1" fill-rule="evenodd" clip-rule="evenodd" d="M18.5 36.5C28.165 36.5 36 28.665 36 19C36 9.33502 28.165 1.5 18.5 1.5C8.83502 1.5 1 9.33502 1 19C1 28.665 8.83502 36.5 18.5 36.5Z" stroke="#262B43" stroke-opacity="0.9" stroke-width="1.5"/>
<path d="M14.4835 15.4671C15.3029 15.4671 15.9671 14.8029 15.9671 13.9835C15.9671 13.1642 15.3029 12.5 14.4835 12.5C13.6642 12.5 13 13.1642 13 13.9835C13 14.8029 13.6642 15.4671 14.4835 15.4671Z" fill="#262B43" fill-opacity="0.9"/>
<path d="M15.7198 16.458H13.2473C13.1108 16.458 13 16.5688 13 16.7053V24.123C13 24.2595 13.1108 24.3703 13.2473 24.3703H15.7198C15.8563 24.3703 15.9671 24.2595 15.9671 24.123V16.7053C15.9671 16.5688 15.8563 16.458 15.7198 16.458Z" fill="#262B43" fill-opacity="0.9"/>
<path d="M23.0876 16.0466C22.0308 15.6847 20.7089 16.0026 19.9162 16.5728C19.889 16.4665 19.7921 16.3874 19.6769 16.3874H17.2043C17.0678 16.3874 16.957 16.4981 16.957 16.6346V24.0524C16.957 24.1889 17.0678 24.2996 17.2043 24.2996H19.6769C19.8134 24.2996 19.9241 24.1889 19.9241 24.0524V18.7215C20.3237 18.3773 20.8385 18.2675 21.2598 18.4465C21.6683 18.6191 21.9022 19.0404 21.9022 19.6017V24.0524C21.9022 24.1889 22.013 24.2996 22.1495 24.2996H24.622C24.7585 24.2996 24.8693 24.1889 24.8693 24.0524V19.1037C24.8411 17.0718 23.8852 16.3196 23.0876 16.0466Z" fill="#262B43" fill-opacity="0.9"/>
</svg>
