
<svg width="97" height="69" viewBox="0 0 97 69" fill="none" xmlns="http://www.w3.org/2000/svg">
<g clip-path="url(#clip0_1599_32909)">
<path d="M31.5119 17.5686H1.19336C0.947008 17.5686 0.706698 17.4915 0.505416 17.3479C0.304134 17.2043 0.151745 17.0012 0.0691651 16.7666C-0.0134151 16.5319 -0.0221386 16.2772 0.0441903 16.0373C0.110519 15.7974 0.248651 15.5842 0.439626 15.4269L15.5984 2.93275C15.8114 2.75715 16.0778 2.66125 16.3526 2.66125C16.6275 2.66125 16.8939 2.75715 17.1069 2.93275L32.2661 15.4269C32.4571 15.5842 32.5953 15.7975 32.6616 16.0374C32.7279 16.2773 32.7192 16.5321 32.6365 16.7668C32.5539 17.0015 32.4014 17.2045 32.2001 17.3481C31.9987 17.4917 31.7583 17.5687 31.5119 17.5686ZM4.54581 15.1556H28.1595L16.3526 5.42444L4.54581 15.1556Z" fill="#0B2952"/>
<path d="M6.06862 8.94358C5.75212 8.94358 5.44858 8.81647 5.22478 8.59021C5.00097 8.36394 4.87524 8.05706 4.87524 7.73708V1.20651C4.87524 0.886521 5.00097 0.579638 5.22478 0.353374C5.44858 0.127111 5.75212 0 6.06862 0H11.2121C11.5286 0 11.8321 0.127111 12.0559 0.353374C12.2797 0.579638 12.4055 0.886521 12.4055 1.20651V3.17986C12.4055 3.49985 12.2797 3.80673 12.0559 4.03299C11.8321 4.25926 11.5286 4.38637 11.2121 4.38637C10.8956 4.38637 10.5921 4.25926 10.3682 4.03299C10.1444 3.80673 10.0187 3.49985 10.0187 3.17986V2.41493H7.262V7.73901C7.2615 8.05866 7.13554 8.36504 6.9118 8.59089C6.68805 8.81674 6.3848 8.94358 6.06862 8.94358Z" fill="#0B2952"/>
<path d="M12.467 32.6669H7.01942C6.72824 32.6669 6.44898 32.55 6.24308 32.3418C6.03718 32.1336 5.92151 31.8513 5.92151 31.5569V23.7798C5.92151 23.4854 6.03718 23.2031 6.24308 22.9949C6.44898 22.7867 6.72824 22.6698 7.01942 22.6698H12.467C12.7581 22.6698 13.0374 22.7867 13.2433 22.9949C13.4492 23.2031 13.5649 23.4854 13.5649 23.7798V31.5569C13.5649 31.8513 13.4492 32.1336 13.2433 32.3418C13.0374 32.55 12.7581 32.6669 12.467 32.6669ZM8.11733 30.4469H11.3691V24.8898H8.11733V30.4469Z" fill="#0B2952"/>
<path d="M25.0447 32.6669H19.5967C19.3055 32.6669 19.0262 32.55 18.8204 32.3418C18.6145 32.1336 18.4988 31.8513 18.4988 31.5569V23.7798C18.4988 23.4854 18.6145 23.2031 18.8204 22.9949C19.0262 22.7867 19.3055 22.6698 19.5967 22.6698H25.0447C25.3359 22.6698 25.6152 22.7867 25.8211 22.9949C26.0269 23.2031 26.1426 23.4854 26.1426 23.7798V31.5569C26.1426 31.8513 26.0269 32.1336 25.8211 32.3418C25.6152 32.55 25.3359 32.6669 25.0447 32.6669ZM20.6946 30.4469H23.9468V24.8898H20.6946V30.4469Z" fill="#0B2952"/>
<path d="M12.467 48.1473H7.01942C6.72824 48.1473 6.44898 48.0303 6.24308 47.8222C6.03718 47.614 5.92151 47.3317 5.92151 47.0373V39.2621C5.92151 38.9677 6.03718 38.6854 6.24308 38.4772C6.44898 38.269 6.72824 38.1521 7.01942 38.1521H12.467C12.7581 38.1521 13.0374 38.269 13.2433 38.4772C13.4492 38.6854 13.5649 38.9677 13.5649 39.2621V47.0373C13.5649 47.3317 13.4492 47.614 13.2433 47.8222C13.0374 48.0303 12.7581 48.1473 12.467 48.1473ZM8.11733 45.9273H11.3691V40.3721H8.11733V45.9273Z" fill="#0B2952"/>
<path d="M25.0447 48.1473H19.5967C19.3055 48.1473 19.0262 48.0303 18.8204 47.8222C18.6145 47.614 18.4988 47.3317 18.4988 47.0373V39.2621C18.4988 38.9677 18.6145 38.6854 18.8204 38.4772C19.0262 38.269 19.3055 38.1521 19.5967 38.1521H25.0447C25.3359 38.1521 25.6152 38.269 25.8211 38.4772C26.0269 38.6854 26.1426 38.9677 26.1426 39.2621V47.0373C26.1426 47.3317 26.0269 47.614 25.8211 47.8222C25.6152 48.0303 25.3359 48.1473 25.0447 48.1473ZM20.6946 45.9273H23.9468V40.3721H20.6946V45.9273Z" fill="#0B2952"/>
<path d="M12.467 63.8203H7.01942C6.72824 63.8203 6.44898 63.7033 6.24308 63.4952C6.03718 63.287 5.92151 63.0047 5.92151 62.7103V54.9355C5.92151 54.6412 6.03718 54.3588 6.24308 54.1507C6.44898 53.9425 6.72824 53.8256 7.01942 53.8256H12.467C12.7581 53.8256 13.0374 53.9425 13.2433 54.1507C13.4492 54.3588 13.5649 54.6412 13.5649 54.9355V62.7103C13.5649 63.0047 13.4492 63.287 13.2433 63.4952C13.0374 63.7033 12.7581 63.8203 12.467 63.8203ZM8.11733 61.6003H11.3691V56.0455H8.11733V61.6003Z" fill="#0B2952"/>
<path d="M31.5897 69.0015H25.0447C24.7535 69.0015 24.4743 68.8845 24.2684 68.6764C24.0625 68.4682 23.9468 68.1859 23.9468 67.8915V56.0455H20.6946V67.8915C20.6946 68.1859 20.5789 68.4682 20.373 68.6764C20.1671 68.8845 19.8879 69.0015 19.5967 69.0015C19.3055 69.0015 19.0262 68.8845 18.8204 68.6764C18.6145 68.4682 18.4988 68.1859 18.4988 67.8915V54.9355C18.4988 54.6412 18.6145 54.3588 18.8204 54.1507C19.0262 53.9425 19.3055 53.8256 19.5967 53.8256H25.0447C25.3359 53.8256 25.6151 53.9425 25.821 54.1507C26.0269 54.3588 26.1426 54.6412 26.1426 54.9355V66.7815H30.4918V20.1327C30.4918 19.8383 30.6074 19.556 30.8133 19.3478C31.0192 19.1397 31.2985 19.0227 31.5897 19.0227C31.8809 19.0227 32.1601 19.1397 32.366 19.3478C32.5719 19.556 32.6876 19.8383 32.6876 20.1327V67.8915C32.6876 68.1859 32.5719 68.4682 32.366 68.6764C32.1601 68.8845 31.8809 69.0015 31.5897 69.0015Z" fill="#0B2952"/>
<path d="M15.6968 69.0015H1.51039C1.2192 69.0015 0.939943 68.8845 0.734044 68.6764C0.528146 68.4682 0.412476 68.1859 0.412476 67.8915V20.1327C0.412476 19.8383 0.528146 19.556 0.734044 19.3478C0.939943 19.1397 1.2192 19.0227 1.51039 19.0227C1.80157 19.0227 2.08083 19.1397 2.28672 19.3478C2.49262 19.556 2.6083 19.8383 2.6083 20.1327V66.7815H15.6968C15.988 66.7815 16.2673 66.8984 16.4732 67.1066C16.6791 67.3148 16.7947 67.5971 16.7947 67.8915C16.7947 68.1859 16.6791 68.4682 16.4732 68.6764C16.2673 68.8845 15.988 69.0015 15.6968 69.0015Z" fill="#0B2952"/>
<path d="M43.197 6.20294H39.9162V5.18514C39.9162 4.70961 39.8743 4.40702 39.7906 4.27736C39.7069 4.1477 39.5671 4.08335 39.371 4.08432C39.2746 4.07987 39.1787 4.10199 39.0937 4.14832C39.0087 4.19464 38.9378 4.26342 38.8884 4.34733C38.7793 4.523 38.7247 4.78892 38.7247 5.14508C38.7247 5.60355 38.7861 5.94877 38.909 6.18074C39.0258 6.41271 39.3585 6.69263 39.9071 7.02047C41.4795 7.96445 42.4698 8.73886 42.8781 9.34372C43.2864 9.94858 43.4907 10.9241 43.4911 12.2702C43.4911 13.2489 43.3778 13.9701 43.1512 14.4337C42.9246 14.8973 42.4864 15.2855 41.8366 15.5983C41.1874 15.9119 40.4322 16.0688 39.571 16.0688C38.6256 16.0688 37.8185 15.8878 37.1499 15.5259C36.4813 15.1639 36.0436 14.703 35.8367 14.1432C35.6302 13.5834 35.5268 12.7889 35.5264 11.7596V10.8601H38.8073V12.5313C38.8073 13.0461 38.8534 13.377 38.9457 13.524C39.038 13.6711 39.2016 13.7446 39.4364 13.7446C39.6713 13.7446 39.8463 13.6513 39.9615 13.4647C40.0767 13.2781 40.134 13.0009 40.1334 12.6331C40.1334 11.8249 40.0244 11.2962 39.8064 11.0468C39.5836 10.7981 39.0326 10.3824 38.1533 9.79978C37.275 9.21197 36.6932 8.78502 36.4081 8.51895C36.123 8.25287 35.8865 7.8853 35.6988 7.41621C35.5113 6.94679 35.4176 6.34724 35.4176 5.61755C35.4176 4.56547 35.5505 3.79636 35.8162 3.31022C36.0819 2.82408 36.5115 2.44379 37.105 2.16935C37.6979 1.89459 38.4139 1.75737 39.2531 1.75769C40.17 1.75769 40.9517 1.90762 41.5984 2.20748C42.245 2.50734 42.6729 2.88473 42.882 3.33966C43.092 3.79524 43.1969 4.56868 43.1965 5.66001L43.197 6.20294Z" fill="#0B2952"/>
<path d="M50.7049 2.04626L52.725 15.7807H49.1148L48.9238 13.3121H47.6603L47.4479 15.7807H43.7957L45.5977 2.04626H50.7049ZM48.8327 10.8779C48.6541 9.32198 48.4748 7.39897 48.2947 5.10886C47.9348 7.73904 47.7088 9.66206 47.6169 10.8779H48.8327Z" fill="#0B2952"/>
<path d="M61.347 2.04626L59.5493 15.7807H54.1829L52.1422 2.04626H55.8656C56.2987 5.82955 56.6078 9.03081 56.7931 11.6501C56.9754 9.00346 57.169 6.65383 57.374 4.60116L57.6193 2.04723L61.347 2.04626Z" fill="#0B2952"/>
<path d="M61.9427 2.04626H67.8333V4.79468H65.4752V7.40074H67.682V10.0136H65.4752V13.0332H68.0681V15.784H61.9427V2.04626Z" fill="#0B2952"/>
<path d="M46.6125 19.5647V33.2991H43.5245L43.5202 24.0268L42.291 33.2991H40.1009L38.8045 24.2387L38.8002 33.2991H35.7126V19.5647H40.2833C40.4189 20.3903 40.5587 21.3635 40.7029 22.4844L41.2041 25.978L42.0156 19.5647H46.6125Z" fill="#0B2952"/>
<path d="M55.5572 19.5647L52.9795 28.3278V33.2986H49.7072V28.3278L47.225 19.5647H50.471C50.9786 22.2454 51.265 24.0495 51.3302 24.9771C51.5266 23.5116 51.8547 21.7075 52.3145 19.5647H55.5572Z" fill="#0B2952"/>
<path d="M43.197 41.2398H39.9162V40.222C39.9162 39.7465 39.8743 39.4439 39.7906 39.3142C39.7069 39.1846 39.5671 39.1202 39.371 39.1212C39.2746 39.1167 39.1787 39.1389 39.0937 39.1852C39.0087 39.2315 38.9378 39.3003 38.8884 39.3842C38.7793 39.5599 38.7247 39.8258 38.7247 40.1819C38.7247 40.6404 38.7861 40.9856 38.909 41.2176C39.0258 41.4496 39.3585 41.7295 39.9071 42.0573C41.4795 43.0013 42.4698 43.7757 42.8781 44.3806C43.2864 44.9854 43.4907 45.961 43.4911 47.3071C43.4911 48.2858 43.3778 49.007 43.1512 49.4706C42.9246 49.9342 42.4864 50.3224 41.8366 50.6351C41.1874 50.9488 40.4322 51.1057 39.571 51.1057C38.6256 51.1057 37.8185 50.9247 37.1499 50.5627C36.4813 50.2008 36.0436 49.7399 35.8367 49.1801C35.6302 48.6202 35.5268 47.8257 35.5264 46.7965V45.8969H38.8073V47.5682C38.8073 48.083 38.8534 48.4139 38.9457 48.5609C39.038 48.7079 39.2016 48.7814 39.4364 48.7814C39.6713 48.7814 39.8463 48.6881 39.9615 48.5015C40.0767 48.3149 40.134 48.0377 40.1334 47.67C40.1334 46.8618 40.0244 46.333 39.8064 46.0837C39.5836 45.835 39.0326 45.4193 38.1533 44.8366C37.275 44.2488 36.6932 43.8219 36.4081 43.5558C36.123 43.2897 35.8865 42.9222 35.6988 42.4531C35.5113 41.9837 35.4176 41.3841 35.4176 40.6544C35.4176 39.6023 35.5505 38.8332 35.8162 38.3471C36.0819 37.8609 36.5115 37.4807 37.105 37.2062C37.6979 36.9315 38.4139 36.7942 39.2531 36.7946C40.17 36.7946 40.9517 36.9445 41.5984 37.2443C42.245 37.5442 42.6729 37.9216 42.882 38.3765C43.092 38.8321 43.1969 39.6055 43.1965 40.6969L43.197 41.2398Z" fill="#0B2952"/>
<path d="M44.2893 37.0831H50.1798V39.8315H47.8217V42.4376H50.0285V45.0504H47.8217V48.0701H50.4147V50.8209H44.2893V37.0831Z" fill="#0B2952"/>
<path d="M51.1206 37.0831H53.621C55.2879 37.0831 56.4165 37.1475 57.0068 37.2762C57.5972 37.4049 58.0782 37.7372 58.4499 38.2732C58.8222 38.8076 59.0082 39.6602 59.0079 40.831C59.0079 41.9001 58.8765 42.6184 58.6136 42.9858C58.3507 43.3533 57.8333 43.5738 57.0613 43.6475C57.7614 43.8232 58.2312 44.0579 58.4709 44.3516C58.7105 44.6454 58.8602 44.9154 58.9201 45.1619C58.9789 45.408 59.0082 46.0853 59.0079 47.1937V50.8161H55.7275V46.2521C55.7275 45.5166 55.6702 45.0614 55.5557 44.8863C55.4411 44.7113 55.1404 44.6236 54.6535 44.6233V50.8175H51.1211L51.1206 37.0831ZM54.653 39.4329V42.4868C55.0502 42.4868 55.3285 42.4317 55.4879 42.3213C55.6473 42.2109 55.7269 41.8533 55.7266 41.2485V40.4932C55.7266 40.0579 55.6497 39.7723 55.496 39.6366C55.3423 39.5008 55.0613 39.4329 54.653 39.4329Z" fill="#0B2952"/>
<path d="M68.4658 37.0831L66.668 50.8175H61.3021L59.26 37.0831H62.9857C63.4185 40.8664 63.7276 44.0677 63.9128 46.6869C64.0951 44.0403 64.2889 41.6907 64.4942 39.638L64.7391 37.0841L68.4658 37.0831Z" fill="#0B2952"/>
<path d="M72.285 37.0831V50.8175H68.7526V37.0831H72.285Z" fill="#0B2952"/>
<path d="M81.642 43.0635H78.1096V40.678C78.1096 39.9841 78.0719 39.551 77.9965 39.3789C77.921 39.2068 77.7538 39.1202 77.4948 39.1192C77.2039 39.1192 77.0193 39.2238 76.941 39.4329C76.8627 39.6421 76.8236 40.0944 76.8236 40.79V47.1695C76.8236 47.8368 76.8627 48.2723 76.941 48.4759C77.0193 48.6796 77.1955 48.7814 77.4695 48.7814C77.7323 48.7814 77.9043 48.6794 77.9855 48.4755C78.0666 48.2715 78.1072 47.7924 78.1072 47.0383V45.311H81.6396V45.8462C81.6396 47.2673 81.5403 48.2755 81.3418 48.8707C81.1432 49.4659 80.704 49.987 80.0243 50.4339C79.3445 50.8811 78.5068 51.1047 77.511 51.1047C76.4761 51.1047 75.6231 50.9153 74.9519 50.5367C74.2808 50.158 73.8352 49.6334 73.6153 48.9629C73.4012 48.2934 73.2941 47.2852 73.2941 45.9384V41.9261C73.2941 40.9361 73.3276 40.1938 73.3948 39.6993C73.4619 39.2048 73.6619 38.7283 73.9948 38.2699C74.3274 37.8114 74.7888 37.4509 75.3791 37.1883C75.9695 36.9258 76.6476 36.7942 77.4136 36.7936C78.4542 36.7936 79.3135 36.9969 79.9913 37.4036C80.6692 37.8103 81.1139 38.3172 81.3255 38.9243C81.5381 39.5314 81.6444 40.476 81.6444 41.7581L81.642 43.0635Z" fill="#0B2952"/>
<path d="M82.5996 37.0831H88.4901V39.8315H86.132V42.4376H88.3388V45.0504H86.132V48.0701H88.725V50.8209H82.5996V37.0831Z" fill="#0B2952"/>
<path d="M43.9608 60.5821H40.4284V58.1966C40.4284 57.5026 40.3905 57.0696 40.3148 56.8974C40.239 56.7253 40.0726 56.6392 39.8154 56.6392C39.5246 56.6392 39.34 56.7438 39.2617 56.9529C39.1834 57.1621 39.1443 57.6144 39.1443 58.31V64.6895C39.1443 65.3568 39.1834 65.7923 39.2617 65.9959C39.34 66.1996 39.5163 66.3014 39.7906 66.3014C40.0532 66.3014 40.2252 66.1994 40.3066 65.9955C40.3881 65.7915 40.4287 65.3124 40.4284 64.5583V62.8296H43.9608V63.3648C43.9608 64.7859 43.8615 65.7941 43.6629 66.3893C43.4643 66.9845 43.0252 67.5055 42.3454 67.9524C41.6657 68.3996 40.8279 68.6232 39.8322 68.6232C38.7973 68.6232 37.9442 68.4339 37.2731 68.0552C36.6019 67.6765 36.1564 67.1519 35.9365 66.4814C35.7185 65.8113 35.6095 64.8031 35.6095 63.457V59.4446C35.6095 58.4546 35.6431 57.7124 35.7102 57.2179C35.7774 56.7234 35.9772 56.2469 36.3098 55.7884C36.643 55.3299 37.1044 54.9694 37.6941 54.7069C38.2838 54.4444 38.9621 54.3128 39.729 54.3121C40.769 54.3121 41.6283 54.5155 42.3067 54.9221C42.9852 55.3288 43.4308 55.8357 43.6433 56.4428C43.8556 57.0499 43.9619 57.9945 43.9622 59.2767L43.9608 60.5821Z" fill="#0B2952"/>
<path d="M53.041 54.6017V68.3361H49.5086V62.5675H48.4517V68.3361H44.9193V54.6017H48.4517V59.5136H49.5086V54.6017H53.041Z" fill="#0B2952"/>
<path d="M60.2562 54.6017L62.2764 68.3361H58.6662L58.4752 65.8676H57.2117L56.9993 68.3361H53.347L55.1491 54.6017H60.2562ZM58.3841 63.4333C58.2052 61.8774 58.0259 59.9544 57.8461 57.6643C57.4862 60.2945 57.2601 62.2175 57.1678 63.4333H58.3841Z" fill="#0B2952"/>
<path d="M62.5671 54.6017H65.0675C66.7344 54.6017 67.863 54.666 68.4534 54.7947C69.0437 54.9234 69.5247 55.2558 69.8964 55.7918C70.2687 56.3262 70.4548 57.1788 70.4544 58.3496C70.4544 59.4187 70.323 60.137 70.0601 60.5044C69.7973 60.8718 69.2798 61.0924 68.5078 61.166C69.2079 61.3417 69.6778 61.5764 69.9174 61.8702C70.157 62.1639 70.3068 62.434 70.3666 62.6804C70.4255 62.9266 70.4548 63.6038 70.4544 64.7122V68.3346H67.1736V63.7707C67.1736 63.0352 67.1163 62.5799 67.0017 62.4049C66.8872 62.2299 66.5864 62.1422 66.0995 62.1419V68.3361H62.5671V54.6017ZM66.0995 56.9515V60.0054C66.4967 60.0054 66.775 59.9502 66.9344 59.8399C67.0939 59.7295 67.1734 59.3719 67.1731 58.767V58.0118C67.1731 57.5764 67.0963 57.2909 66.9425 57.1551C66.7888 57.0194 66.5078 56.9515 66.0995 56.9515Z" fill="#0B2952"/>
<path d="M79.6186 59.6573H76.0861V58.4103C76.0861 57.6246 76.0526 57.1327 75.9854 56.9345C75.9183 56.7363 75.7592 56.6374 75.5081 56.6377C75.2898 56.6377 75.1415 56.7225 75.0632 56.892C74.9849 57.0616 74.9458 57.497 74.9458 58.1984V64.7898C74.9458 65.4066 74.9849 65.8125 75.0632 66.0074C75.1415 66.2024 75.298 66.2999 75.5329 66.2999C75.7903 66.2999 75.9654 66.1895 76.058 65.9688C76.1506 65.7481 76.1967 65.3184 76.1964 64.6798V63.051H75.4833V60.9637H79.62V68.336H77.3993L77.0728 67.352C76.8322 67.776 76.5285 68.094 76.1616 68.3061C75.7946 68.5181 75.3623 68.6241 74.8646 68.6241C74.2812 68.6265 73.7071 68.4756 73.1986 68.1864C72.6809 67.8968 72.2875 67.5363 72.0186 67.1049C71.7576 66.6958 71.5857 66.2351 71.5145 65.7536C71.4477 65.2816 71.4143 64.5738 71.4143 63.6301V59.5478C71.4143 58.2357 71.4842 57.2828 71.6239 56.6888C71.7636 56.0949 72.1649 55.5505 72.8277 55.0557C73.4906 54.5612 74.348 54.3138 75.3997 54.3135C76.4346 54.3135 77.2939 54.5284 77.9774 54.9582C78.661 55.3881 79.1057 55.8985 79.3116 56.4895C79.5185 57.0809 79.6219 57.9391 79.6219 59.0642L79.6186 59.6573Z" fill="#0B2952"/>
<path d="M80.6769 54.6017H86.5674V57.3501H84.2098V59.9562H86.4166V62.569H84.2098V65.5886H86.8032V68.3394H80.6769V54.6017Z" fill="#0B2952"/>
<path d="M92.455 68.5812C94.7437 68.5812 96.5989 66.7055 96.5989 64.3917C96.5989 62.078 94.7437 60.2023 92.455 60.2023C90.1664 60.2023 88.3112 62.078 88.3112 64.3917C88.3112 66.7055 90.1664 68.5812 92.455 68.5812Z" fill="#0B2952"/>
<path d="M90.3695 65.9428V63.6364H89.4725V63.2064H91.7676V63.6364H90.8707V65.9428H90.3695Z" fill="white"/>
<path d="M92.0784 65.9428V63.2064H92.4922L93.6756 65.2044H93.4589L94.6227 63.2064H95.0365L95.0442 65.9428H94.5606V63.9612H94.6561L93.677 65.6344H93.4488L92.4435 63.9612H92.5595V65.9428H92.0784Z" fill="white"/>
</g>
<defs>
<clipPath id="clip0_1599_32909">
<rect width="96.5989" height="69.002" fill="white"/>
</clipPath>
</defs>
</svg>
