
<svg width="177" height="198" viewBox="0 0 177 198" fill="none" xmlns="http://www.w3.org/2000/svg">
<path d="M177 83.757H112V196.82H177V83.757Z" fill="url(#paint0_linear_59_3375)"/>
<path d="M177 83.757H112V91.833H177V83.757Z" fill="#1F4E8D"/>
<path d="M126.14 151.998H118.149V166.676H126.14V151.998Z" fill="#0B2952"/>
<path d="M125.666 152.698H118.625V166.098H125.666V152.698Z" fill="#A8E8FD"/>
<path d="M122.35 152.282H121.847V166.481H122.35V152.282Z" fill="#0B2952"/>
<path d="M125.772 159.03H118.509V159.483H125.772V159.03Z" fill="#0B2952"/>
<path d="M125.772 155.66H118.509V155.917H125.772V155.66Z" fill="#0B2952"/>
<path d="M125.772 162.856H118.509V163.113H125.772V162.856Z" fill="#0B2952"/>
<path d="M126.139 166.722H118.301V167.145H126.139V166.722Z" fill="#A8E8FD"/>
<path d="M125.859 179.378H117.869V194.055H125.859V179.378Z" fill="#0B2952"/>
<path d="M125.383 180.081H118.342V193.481H125.383V180.081Z" fill="#A8E8FD"/>
<path d="M122.07 179.662H121.566V193.861H122.07V179.662Z" fill="#0B2952"/>
<path d="M125.491 186.41H118.228V186.862H125.491V186.41Z" fill="#0B2952"/>
<path d="M125.491 183.04H118.228V183.297H125.491V183.04Z" fill="#0B2952"/>
<path d="M125.491 190.236H118.228V190.493H125.491V190.236Z" fill="#0B2952"/>
<path d="M125.858 194.102H118.021V194.524H125.858V194.102Z" fill="#A8E8FD"/>
<path d="M171.542 179.2H163.552V193.878H171.542V179.2Z" fill="#0B2952"/>
<path d="M171.066 179.903H164.024V193.303H171.066V179.903Z" fill="#A8E8FD"/>
<path d="M167.752 179.484H167.249V193.683H167.752V179.484Z" fill="#0B2952"/>
<path d="M171.174 186.232H163.911V186.684H171.174V186.232Z" fill="#0B2952"/>
<path d="M171.174 182.862H163.911V183.119H171.174V182.862Z" fill="#0B2952"/>
<path d="M171.174 190.058H163.911V190.315H171.174V190.058Z" fill="#0B2952"/>
<path d="M171.541 193.924H163.703V194.347H171.541V193.924Z" fill="#A8E8FD"/>
<path d="M149.128 151.301H141.138V165.979H149.128V151.301Z" fill="#0B2952"/>
<path d="M148.655 152.001H141.613V165.401H148.655V152.001Z" fill="#A8E8FD"/>
<path d="M145.338 151.585H144.835V165.784H145.338V151.585Z" fill="#0B2952"/>
<path d="M148.76 158.333H141.497V158.786H148.76V158.333Z" fill="#0B2952"/>
<path d="M148.76 154.964H141.497V155.221H148.76V154.964Z" fill="#0B2952"/>
<path d="M148.76 162.159H141.497V162.416H148.76V162.159Z" fill="#0B2952"/>
<path d="M149.127 166.025H141.289V166.448H149.127V166.025Z" fill="#A8E8FD"/>
<path d="M172.289 152.035H164.299V166.713H172.289V152.035Z" fill="#0B2952"/>
<path d="M171.816 152.735H164.774V166.135H171.816V152.735Z" fill="#A8E8FD"/>
<path d="M168.499 152.319H167.996V166.518H168.499V152.319Z" fill="#0B2952"/>
<path d="M171.921 159.068H164.658V159.52H171.921V159.068Z" fill="#0B2952"/>
<path d="M171.921 155.698H164.658V155.955H171.921V155.698Z" fill="#0B2952"/>
<path d="M171.921 162.893H164.658V163.15H171.921V162.893Z" fill="#0B2952"/>
<path d="M172.288 166.759H164.45V167.182H172.288V166.759Z" fill="#A8E8FD"/>
<path d="M126.875 110.2H118.677V96.2918C121.446 93.986 124.384 93.9911 126.875 96.2918V110.2Z" fill="#0B2952"/>
<path d="M126.386 109.654H119.162V96.9565C121.415 94.7736 124.189 94.8497 126.386 96.9565V109.654Z" fill="#A8E8FD"/>
<path d="M122.984 95.1614H122.468V110.017H122.984V95.1614Z" fill="#0B2952"/>
<path d="M126.498 102.721H119.046V103.15H126.498V102.721Z" fill="#0B2952"/>
<path d="M126.498 99.2951H119.046V99.5389H126.498V99.2951Z" fill="#0B2952"/>
<path d="M126.498 106.464H119.046V106.708H126.498V106.464Z" fill="#0B2952"/>
<path d="M126.874 110.243H118.832V110.644H126.874V110.243Z" fill="#A8E8FD"/>
<path d="M148.542 110.2H140.344V96.2918C143.113 93.986 146.051 93.9911 148.542 96.2918V110.2Z" fill="#0B2952"/>
<path d="M148.053 109.654H140.829V96.9565C143.082 94.7736 145.856 94.8497 148.053 96.9565V109.654Z" fill="#A8E8FD"/>
<path d="M144.651 95.1614H144.135V110.017H144.651V95.1614Z" fill="#0B2952"/>
<path d="M148.165 102.721H140.713V103.15H148.165V102.721Z" fill="#0B2952"/>
<path d="M148.165 99.2951H140.713V99.5389H148.165V99.2951Z" fill="#0B2952"/>
<path d="M148.165 106.464H140.713V106.708H148.165V106.464Z" fill="#0B2952"/>
<path d="M148.54 110.243H140.499V110.644H148.54V110.243Z" fill="#A8E8FD"/>
<path d="M172.551 110.2H164.353V96.2918C167.122 93.986 170.06 93.9911 172.551 96.2918V110.2Z" fill="#0B2952"/>
<path d="M172.062 109.654H164.838V96.9565C167.091 94.7736 169.865 94.8497 172.062 96.9565V109.654Z" fill="#A8E8FD"/>
<path d="M168.66 95.1614H168.144V110.017H168.66V95.1614Z" fill="#0B2952"/>
<path d="M172.174 102.721H164.722V103.15H172.174V102.721Z" fill="#0B2952"/>
<path d="M172.174 99.2951H164.722V99.5389H172.174V99.2951Z" fill="#0B2952"/>
<path d="M172.174 106.464H164.722V106.708H172.174V106.464Z" fill="#0B2952"/>
<path d="M172.549 110.243H164.508V110.644H172.549V110.243Z" fill="#A8E8FD"/>
<path d="M150.294 172.664H138.587V195.985H150.294V172.664Z" fill="#0B2952"/>
<path d="M144.047 173.486H139.109V177.312H144.047V173.486Z" fill="#CEF3FF"/>
<path d="M149.527 173.486H144.967V177.312H149.527V173.486Z" fill="#CEF3FF"/>
<path d="M149.528 177.806H139.109V195.575H149.528V177.806Z" fill="#1F4E8D"/>
<path d="M147.246 179.917H141.409V188.377H147.246V179.917Z" fill="#0B2952"/>
<path d="M146.872 180.255H141.788V188.121H146.872V180.255Z" fill="#CEF3FF"/>
<path d="M144.612 180.068H144.257V188.293H144.612V180.068Z" fill="#0B2952"/>
<path d="M147.122 182.372H141.578V182.721H147.122V182.372Z" fill="#0B2952"/>
<path d="M147.101 185.376H141.557V185.725H147.101V185.376Z" fill="#0B2952"/>
<path d="M148.968 124.312H140.978V138.989H148.968V124.312Z" fill="#0B2952"/>
<path d="M148.494 125.011H141.453V138.411H148.494V125.011Z" fill="#A8E8FD"/>
<path d="M145.178 124.596H144.675V138.794H145.178V124.596Z" fill="#0B2952"/>
<path d="M148.6 131.344H141.337V131.796H148.6V131.344Z" fill="#0B2952"/>
<path d="M148.6 127.974H141.337V128.231H148.6V127.974Z" fill="#0B2952"/>
<path d="M148.6 135.17H141.337V135.426H148.6V135.17Z" fill="#0B2952"/>
<path d="M148.967 139.035H141.129V139.458H148.967V139.035Z" fill="#A8E8FD"/>
<path d="M172.289 123.403H164.299V138.08H172.289V123.403Z" fill="#0B2952"/>
<path d="M171.816 124.102H164.774V137.502H171.816V124.102Z" fill="#A8E8FD"/>
<path d="M168.499 123.687H167.996V137.885H168.499V123.687Z" fill="#0B2952"/>
<path d="M171.921 130.435H164.658V130.887H171.921V130.435Z" fill="#0B2952"/>
<path d="M171.921 127.065H164.658V127.322H171.921V127.065Z" fill="#0B2952"/>
<path d="M171.921 134.26H164.658V134.517H171.921V134.26Z" fill="#0B2952"/>
<path d="M172.288 138.126H164.45V138.549H172.288V138.126Z" fill="#A8E8FD"/>
<path d="M126.14 124.312H118.149V138.989H126.14V124.312Z" fill="#0B2952"/>
<path d="M125.666 125.011H118.625V138.411H125.666V125.011Z" fill="#A8E8FD"/>
<path d="M122.35 124.596H121.847V138.794H122.35V124.596Z" fill="#0B2952"/>
<path d="M125.772 131.344H118.509V131.796H125.772V131.344Z" fill="#0B2952"/>
<path d="M125.772 127.974H118.509V128.231H125.772V127.974Z" fill="#0B2952"/>
<path d="M125.772 135.17H118.509V135.426H125.772V135.17Z" fill="#0B2952"/>
<path d="M126.139 139.035H118.301V139.458H126.139V139.035Z" fill="#A8E8FD"/>
<path d="M65 84.7568H0V197.82H65V84.7568Z" fill="url(#paint1_linear_59_3375)"/>
<path d="M65 84.7568H0V92.8328H65V84.7568Z" fill="#1F4E8D"/>
<path d="M14.1395 152.998H6.14941V167.676H14.1395V152.998Z" fill="#0B2952"/>
<path d="M13.6663 153.698H6.625V167.098H13.6663V153.698Z" fill="#A8E8FD"/>
<path d="M10.3501 153.282H9.84668V167.481H10.3501V153.282Z" fill="#0B2952"/>
<path d="M13.7718 160.03H6.50879V160.482H13.7718V160.03Z" fill="#0B2952"/>
<path d="M13.7718 156.66H6.50879V156.917H13.7718V156.66Z" fill="#0B2952"/>
<path d="M13.7718 163.856H6.50879V164.113H13.7718V163.856Z" fill="#0B2952"/>
<path d="M14.1386 167.722H6.30078V168.145H14.1386V167.722Z" fill="#A8E8FD"/>
<path d="M13.8593 180.378H5.86914V195.056H13.8593V180.378Z" fill="#0B2952"/>
<path d="M13.3831 181.081H6.3418V194.481H13.3831V181.081Z" fill="#A8E8FD"/>
<path d="M10.0698 180.662H9.56641V194.861H10.0698V180.662Z" fill="#0B2952"/>
<path d="M13.4906 187.41H6.22754V187.862H13.4906V187.41Z" fill="#0B2952"/>
<path d="M13.4906 184.04H6.22754V184.297H13.4906V184.04Z" fill="#0B2952"/>
<path d="M13.4906 191.236H6.22754V191.493H13.4906V191.236Z" fill="#0B2952"/>
<path d="M13.8583 195.102H6.02051V195.525H13.8583V195.102Z" fill="#A8E8FD"/>
<path d="M59.5419 180.2H51.5518V194.878H59.5419V180.2Z" fill="#0B2952"/>
<path d="M59.0657 180.903H52.0244V194.303H59.0657V180.903Z" fill="#A8E8FD"/>
<path d="M55.7524 180.484H55.249V194.683H55.7524V180.484Z" fill="#0B2952"/>
<path d="M59.1742 187.232H51.9111V187.685H59.1742V187.232Z" fill="#0B2952"/>
<path d="M59.1742 183.862H51.9111V184.119H59.1742V183.862Z" fill="#0B2952"/>
<path d="M59.1742 191.058H51.9111V191.315H59.1742V191.058Z" fill="#0B2952"/>
<path d="M59.5409 194.924H51.7031V195.347H59.5409V194.924Z" fill="#A8E8FD"/>
<path d="M37.1278 152.301H29.1377V166.979H37.1278V152.301Z" fill="#0B2952"/>
<path d="M36.6546 153.001H29.6133V166.401H36.6546V153.001Z" fill="#A8E8FD"/>
<path d="M33.3383 152.585H32.835V166.784H33.3383V152.585Z" fill="#0B2952"/>
<path d="M36.7601 159.333H29.4971V159.786H36.7601V159.333Z" fill="#0B2952"/>
<path d="M36.7601 155.964H29.4971V156.221H36.7601V155.964Z" fill="#0B2952"/>
<path d="M36.7601 163.159H29.4971V163.416H36.7601V163.159Z" fill="#0B2952"/>
<path d="M37.1269 167.025H29.2891V167.448H37.1269V167.025Z" fill="#A8E8FD"/>
<path d="M60.289 153.036H52.2988V167.713H60.289V153.036Z" fill="#0B2952"/>
<path d="M59.8157 153.735H52.7744V167.135H59.8157V153.735Z" fill="#A8E8FD"/>
<path d="M56.4995 153.32H55.9961V167.518H56.4995V153.32Z" fill="#0B2952"/>
<path d="M59.9212 160.068H52.6582V160.52H59.9212V160.068Z" fill="#0B2952"/>
<path d="M59.9212 156.698H52.6582V156.955H59.9212V156.698Z" fill="#0B2952"/>
<path d="M59.9212 163.893H52.6582V164.15H59.9212V163.893Z" fill="#0B2952"/>
<path d="M60.288 167.759H52.4502V168.182H60.288V167.759Z" fill="#A8E8FD"/>
<path d="M14.8759 111.201H6.67773V97.2919C9.44704 94.9861 12.3854 94.9912 14.8759 97.2919V111.201Z" fill="#0B2952"/>
<path d="M14.3872 110.655H7.16309V97.9566C9.41614 95.7737 12.1902 95.8498 14.3872 97.9566V110.655Z" fill="#A8E8FD"/>
<path d="M10.985 96.1615H10.4688V111.017H10.985V96.1615Z" fill="#0B2952"/>
<path d="M14.499 103.721H7.04688V104.15H14.499V103.721Z" fill="#0B2952"/>
<path d="M14.499 100.295H7.04688V100.539H14.499V100.295Z" fill="#0B2952"/>
<path d="M14.499 107.464H7.04688V107.708H14.499V107.464Z" fill="#0B2952"/>
<path d="M14.8745 111.243H6.83301V111.644H14.8745V111.243Z" fill="#A8E8FD"/>
<path d="M36.5419 111.201H28.3438V97.2919C31.1131 94.9861 34.0514 94.9912 36.5419 97.2919V111.201Z" fill="#0B2952"/>
<path d="M36.0532 110.655H28.8291V97.9566C31.0822 95.7737 33.8562 95.8498 36.0532 97.9566V110.655Z" fill="#A8E8FD"/>
<path d="M32.651 96.1615H32.1348V111.017H32.651V96.1615Z" fill="#0B2952"/>
<path d="M36.165 103.721H28.7129V104.15H36.165V103.721Z" fill="#0B2952"/>
<path d="M36.165 100.295H28.7129V100.539H36.165V100.295Z" fill="#0B2952"/>
<path d="M36.165 107.464H28.7129V107.708H36.165V107.464Z" fill="#0B2952"/>
<path d="M36.5405 111.243H28.499V111.644H36.5405V111.243Z" fill="#A8E8FD"/>
<path d="M60.5507 111.201H52.3525V97.2919C55.1218 94.9861 58.0602 94.9912 60.5507 97.2919V111.201Z" fill="#0B2952"/>
<path d="M60.062 110.655H52.8379V97.9566C55.0909 95.7737 57.865 95.8498 60.062 97.9566V110.655Z" fill="#A8E8FD"/>
<path d="M56.6598 96.1615H56.1436V111.017H56.6598V96.1615Z" fill="#0B2952"/>
<path d="M60.1738 103.721H52.7217V104.15H60.1738V103.721Z" fill="#0B2952"/>
<path d="M60.1738 100.295H52.7217V100.539H60.1738V100.295Z" fill="#0B2952"/>
<path d="M60.1738 107.464H52.7217V107.708H60.1738V107.464Z" fill="#0B2952"/>
<path d="M60.5493 111.243H52.5078V111.644H60.5493V111.243Z" fill="#A8E8FD"/>
<path d="M38.2941 173.664H26.5869V196.985H38.2941V173.664Z" fill="#0B2952"/>
<path d="M32.0468 174.486H27.1094V178.312H32.0468V174.486Z" fill="#CEF3FF"/>
<path d="M37.5274 174.486H32.9668V178.312H37.5274V174.486Z" fill="#CEF3FF"/>
<path d="M37.5277 178.806H27.1094V196.575H37.5277V178.806Z" fill="#1F4E8D"/>
<path d="M35.2462 180.917H29.4092V189.377H35.2462V180.917Z" fill="#0B2952"/>
<path d="M34.872 181.255H29.7881V189.121H34.872V181.255Z" fill="#CEF3FF"/>
<path d="M32.6124 181.067H32.2568V189.293H32.6124V181.067Z" fill="#0B2952"/>
<path d="M35.1222 183.372H29.5781V183.721H35.1222V183.372Z" fill="#0B2952"/>
<path d="M35.1007 186.376H29.5566V186.725H35.1007V186.376Z" fill="#0B2952"/>
<path d="M36.9677 125.312H28.9775V139.989H36.9677V125.312Z" fill="#0B2952"/>
<path d="M36.4944 126.011H29.4531V139.411H36.4944V126.011Z" fill="#A8E8FD"/>
<path d="M33.1782 125.595H32.6748V139.794H33.1782V125.595Z" fill="#0B2952"/>
<path d="M36.5999 132.344H29.3369V132.796H36.5999V132.344Z" fill="#0B2952"/>
<path d="M36.5999 128.974H29.3369V129.231H36.5999V128.974Z" fill="#0B2952"/>
<path d="M36.5999 136.169H29.3369V136.426H36.5999V136.169Z" fill="#0B2952"/>
<path d="M36.9667 140.035H29.1289V140.458H36.9667V140.035Z" fill="#A8E8FD"/>
<path d="M60.289 124.403H52.2988V139.08H60.289V124.403Z" fill="#0B2952"/>
<path d="M59.8157 125.103H52.7744V138.503H59.8157V125.103Z" fill="#A8E8FD"/>
<path d="M56.4995 124.687H55.9961V138.886H56.4995V124.687Z" fill="#0B2952"/>
<path d="M59.9212 131.435H52.6582V131.887H59.9212V131.435Z" fill="#0B2952"/>
<path d="M59.9212 128.065H52.6582V128.322H59.9212V128.065Z" fill="#0B2952"/>
<path d="M59.9212 135.261H52.6582V135.518H59.9212V135.261Z" fill="#0B2952"/>
<path d="M60.288 139.127H52.4502V139.549H60.288V139.127Z" fill="#A8E8FD"/>
<path d="M14.1395 125.312H6.14941V139.989H14.1395V125.312Z" fill="#0B2952"/>
<path d="M13.6663 126.011H6.625V139.411H13.6663V126.011Z" fill="#A8E8FD"/>
<path d="M10.3501 125.595H9.84668V139.794H10.3501V125.595Z" fill="#0B2952"/>
<path d="M13.7718 132.344H6.50879V132.796H13.7718V132.344Z" fill="#0B2952"/>
<path d="M13.7718 128.974H6.50879V129.231H13.7718V128.974Z" fill="#0B2952"/>
<path d="M13.7718 136.169H6.50879V136.426H13.7718V136.169Z" fill="#0B2952"/>
<path d="M14.1386 140.035H6.30078V140.458H14.1386V140.035Z" fill="#A8E8FD"/>
<path d="M143.598 0H32.5977V196.886H143.598V0Z" fill="url(#paint2_linear_59_3375)"/>
<path d="M143.598 0.000488281H32.5977V14.0638H143.598V0.000488281Z" fill="#1F4E8D"/>
<path d="M56.7433 118.834H43.0986V144.394H56.7433V118.834Z" fill="#0B2952"/>
<path d="M55.9355 120.053H43.9111V143.388H55.9355V120.053Z" fill="#A8E8FD"/>
<path d="M50.2727 119.329H49.4131V144.054H50.2727V119.329Z" fill="#0B2952"/>
<path d="M56.1149 131.08H43.7119V131.868H56.1149V131.08Z" fill="#0B2952"/>
<path d="M56.1149 125.212H43.7119V125.659H56.1149V125.212Z" fill="#0B2952"/>
<path d="M56.1149 137.742H43.7119V138.19H56.1149V137.742Z" fill="#0B2952"/>
<path d="M56.742 144.474H43.3574V145.21H56.742V144.474Z" fill="#A8E8FD"/>
<path d="M56.2648 166.513H42.6201V192.072H56.2648V166.513Z" fill="#0B2952"/>
<path d="M55.4521 167.736H43.4277V191.071H55.4521V167.736Z" fill="#A8E8FD"/>
<path d="M49.7942 167.007H48.9346V191.733H49.7942V167.007Z" fill="#0B2952"/>
<path d="M55.6364 178.758H43.2334V179.546H55.6364V178.758Z" fill="#0B2952"/>
<path d="M55.6364 172.89H43.2334V173.338H55.6364V172.89Z" fill="#0B2952"/>
<path d="M55.6364 185.42H43.2334V185.868H55.6364V185.42Z" fill="#0B2952"/>
<path d="M56.2635 192.152H42.8789V192.889H56.2635V192.152Z" fill="#A8E8FD"/>
<path d="M134.277 166.203H120.632V191.762H134.277V166.203Z" fill="#0B2952"/>
<path d="M133.464 167.427H121.439V190.761H133.464V167.427Z" fill="#A8E8FD"/>
<path d="M127.806 166.698H126.946V191.423H127.806V166.698Z" fill="#0B2952"/>
<path d="M133.648 178.449H121.245V179.236H133.648V178.449Z" fill="#0B2952"/>
<path d="M133.648 172.581H121.245V173.028H133.648V172.581Z" fill="#0B2952"/>
<path d="M133.648 185.111H121.245V185.558H133.648V185.111Z" fill="#0B2952"/>
<path d="M134.276 191.843H120.892V192.579H134.276V191.843Z" fill="#A8E8FD"/>
<path d="M96.0011 117.621H82.3564V143.18H96.0011V117.621Z" fill="#0B2952"/>
<path d="M95.1933 118.84H83.1689V142.174H95.1933V118.84Z" fill="#A8E8FD"/>
<path d="M89.5305 118.116H88.6709V142.841H89.5305V118.116Z" fill="#0B2952"/>
<path d="M95.3728 129.867H82.9697V130.654H95.3728V129.867Z" fill="#0B2952"/>
<path d="M95.3728 123.999H82.9697V124.446H95.3728V123.999Z" fill="#0B2952"/>
<path d="M95.3728 136.529H82.9697V136.976H95.3728V136.529Z" fill="#0B2952"/>
<path d="M95.9998 143.261H82.6152V143.997H95.9998V143.261Z" fill="#A8E8FD"/>
<path d="M135.553 118.899H121.908V144.459H135.553V118.899Z" fill="#0B2952"/>
<path d="M134.745 120.118H122.721V143.452H134.745V120.118Z" fill="#A8E8FD"/>
<path d="M129.082 119.394H128.223V144.119H129.082V119.394Z" fill="#0B2952"/>
<path d="M134.925 131.145H122.521V131.932H134.925V131.145Z" fill="#0B2952"/>
<path d="M134.925 125.277H122.521V125.724H134.925V125.277Z" fill="#0B2952"/>
<path d="M134.925 137.807H122.521V138.254H134.925V137.807Z" fill="#0B2952"/>
<path d="M135.552 144.539H122.167V145.275H135.552V144.539Z" fill="#A8E8FD"/>
<path d="M58 46.0487H44V21.8285C48.7291 17.8131 53.747 17.8221 58 21.8285V46.0487Z" fill="#0B2952"/>
<path d="M57.1657 45.0978H44.8291V22.986C48.6766 19.1848 53.4139 19.3173 57.1657 22.986V45.0978Z" fill="#A8E8FD"/>
<path d="M51.3562 19.8599H50.4746V45.7296H51.3562V19.8599Z" fill="#0B2952"/>
<path d="M57.3567 33.0241H44.6309V33.7706H57.3567V33.0241Z" fill="#0B2952"/>
<path d="M57.3567 27.0583H44.6309V27.4829H57.3567V27.0583Z" fill="#0B2952"/>
<path d="M57.3567 39.5426H44.6309V39.9671H57.3567V39.5426Z" fill="#0B2952"/>
<path d="M57.998 46.1225H44.2656V46.8203H57.998V46.1225Z" fill="#A8E8FD"/>
<path d="M95 46.0487H81V21.8285C85.7291 17.8131 90.747 17.8221 95 21.8285V46.0487Z" fill="#0B2952"/>
<path d="M94.1657 45.0978H81.8291V22.986C85.6766 19.1848 90.4139 19.3173 94.1657 22.986V45.0978Z" fill="#A8E8FD"/>
<path d="M88.3562 19.8599H87.4746V45.7296H88.3562V19.8599Z" fill="#0B2952"/>
<path d="M94.3567 33.0241H81.6309V33.7706H94.3567V33.0241Z" fill="#0B2952"/>
<path d="M94.3567 27.0583H81.6309V27.4829H94.3567V27.0583Z" fill="#0B2952"/>
<path d="M94.3567 39.5426H81.6309V39.9671H94.3567V39.5426Z" fill="#0B2952"/>
<path d="M94.998 46.1225H81.2656V46.8203H94.998V46.1225Z" fill="#A8E8FD"/>
<path d="M136 46.0487H122V21.8285C126.729 17.8131 131.747 17.8221 136 21.8285V46.0487Z" fill="#0B2952"/>
<path d="M135.166 45.0978H122.829V22.986C126.677 19.1848 131.414 19.3173 135.166 22.986V45.0978Z" fill="#A8E8FD"/>
<path d="M129.356 19.8599H128.475V45.7296H129.356V19.8599Z" fill="#0B2952"/>
<path d="M135.357 33.0241H122.631V33.7706H135.357V33.0241Z" fill="#0B2952"/>
<path d="M135.357 27.0583H122.631V27.4829H135.357V27.0583Z" fill="#0B2952"/>
<path d="M135.357 39.5426H122.631V39.9671H135.357V39.5426Z" fill="#0B2952"/>
<path d="M135.998 46.1225H122.266V46.8203H135.998V46.1225Z" fill="#A8E8FD"/>
<path d="M97.9922 154.821H78V195.432H97.9922V154.821Z" fill="#0B2952"/>
<path d="M87.3242 156.253H78.8926V162.915H87.3242V156.253Z" fill="#CEF3FF"/>
<path d="M96.6826 156.253H88.8945V162.915H96.6826V156.253Z" fill="#CEF3FF"/>
<path d="M96.6838 163.776H78.8926V194.718H96.6838V163.776Z" fill="#1F4E8D"/>
<path d="M92.7872 167.452H82.8193V182.184H92.7872V167.452Z" fill="#0B2952"/>
<path d="M92.1476 168.04H83.4658V181.738H92.1476V168.04Z" fill="#CEF3FF"/>
<path d="M88.2889 167.714H87.6816V182.038H88.2889V167.714Z" fill="#0B2952"/>
<path d="M92.576 171.727H83.1084V172.335H92.576V171.727Z" fill="#0B2952"/>
<path d="M92.5379 176.958H83.0703V177.566H92.5379V176.958Z" fill="#0B2952"/>
<path d="M95.7267 70.6216H82.082V96.1808H95.7267V70.6216Z" fill="#0B2952"/>
<path d="M94.9189 71.8401H82.8945V95.1746H94.9189V71.8401Z" fill="#A8E8FD"/>
<path d="M89.2561 71.116H88.3965V95.8416H89.2561V71.116Z" fill="#0B2952"/>
<path d="M95.0983 82.867H82.6953V83.6547H95.0983V82.867Z" fill="#0B2952"/>
<path d="M95.0983 76.999H82.6953V77.4465H95.0983V76.999Z" fill="#0B2952"/>
<path d="M95.0983 89.5291H82.6953V89.9766H95.0983V89.5291Z" fill="#0B2952"/>
<path d="M95.7254 96.2611H82.3408V96.9976H95.7254V96.2611Z" fill="#A8E8FD"/>
<path d="M135.553 69.0386H121.908V94.5978H135.553V69.0386Z" fill="#0B2952"/>
<path d="M134.745 70.2571H122.721V93.5916H134.745V70.2571Z" fill="#A8E8FD"/>
<path d="M129.082 69.533H128.223V94.2586H129.082V69.533Z" fill="#0B2952"/>
<path d="M134.925 81.284H122.521V82.0716H134.925V81.284Z" fill="#0B2952"/>
<path d="M134.925 75.416H122.521V75.8635H134.925V75.416Z" fill="#0B2952"/>
<path d="M134.925 87.9461H122.521V88.3936H134.925V87.9461Z" fill="#0B2952"/>
<path d="M135.552 94.6781H122.167V95.4146H135.552V94.6781Z" fill="#A8E8FD"/>
<path d="M56.7433 70.6216H43.0986V96.1808H56.7433V70.6216Z" fill="#0B2952"/>
<path d="M55.9355 71.8401H43.9111V95.1746H55.9355V71.8401Z" fill="#A8E8FD"/>
<path d="M50.2727 71.116H49.4131V95.8416H50.2727V71.116Z" fill="#0B2952"/>
<path d="M56.1149 82.867H43.7119V83.6547H56.1149V82.867Z" fill="#0B2952"/>
<path d="M56.1149 76.999H43.7119V77.4465H56.1149V76.999Z" fill="#0B2952"/>
<path d="M56.1149 89.5291H43.7119V89.9766H56.1149V89.5291Z" fill="#0B2952"/>
<path d="M56.742 96.2611H43.3574V96.9976H56.742V96.2611Z" fill="#A8E8FD"/>
<path d="M144 50.8203H32V53.8203H144V50.8203Z" fill="#0B2952"/>
<path d="M144 6.82031H32V9.82031H144V6.82031Z" fill="#285EA8"/>
<path d="M145 0.820312H33V3.82031H145V0.820312Z" fill="#285EA8"/>
<path d="M144 106.82H32V109.82H144V106.82Z" fill="#0B2952"/>
<defs>
<linearGradient id="paint0_linear_59_3375" x1="293.309" y1="142.03" x2="61.9245" y2="138.329" gradientUnits="userSpaceOnUse">
<stop stop-color="#1F4E8D"/>
<stop offset="0.956731" stop-color="#7EE0FF"/>
</linearGradient>
<linearGradient id="paint1_linear_59_3375" x1="181.309" y1="143.03" x2="-50.0755" y2="139.329" gradientUnits="userSpaceOnUse">
<stop stop-color="#1F4E8D"/>
<stop offset="0.956731" stop-color="#7EE0FF"/>
</linearGradient>
<linearGradient id="paint2_linear_59_3375" x1="342.217" y1="101.475" x2="-52.9197" y2="95.2778" gradientUnits="userSpaceOnUse">
<stop stop-color="#3ACFFF"/>
<stop offset="0.956731" stop-color="#7EE0FF"/>
</linearGradient>
</defs>
</svg>
