
<svg width="199" height="204" viewBox="0 0 199 204" fill="none" xmlns="http://www.w3.org/2000/svg">
<g clip-path="url(#clip0_2766_23144)">
<path d="M28.0702 193.751H184.631C191.348 184.821 194.483 173.696 193.417 162.567C192.447 153.2 188.503 144.124 189.157 134.733C189.642 127.613 192.728 121.628 195.34 115.231C197.826 109.131 198.606 101.817 198.912 95.2887C199.493 82.9706 197.114 70.3517 192.389 58.6355C186.778 44.7158 177.852 32.0677 166.634 22.72C150.595 9.32932 130.504 -0.139756 109.624 0.0155546C88.7437 0.170865 67.3885 11.2658 58.3609 30.1069C53.0791 41.1339 52.1099 54.0732 45.4567 64.3286C38.7018 74.7392 27.1204 80.8303 18.3206 89.6053C3.89966 103.991 -2.32227 125.7 0.745086 145.857C3.58469 164.421 13.8577 181.462 28.0702 193.751Z" fill="#26C6F9" fill-opacity="0.4"/>
<path d="M177.574 14.3418H132.586V87.323H177.574V14.3418Z" fill="white"/>
<path d="M177.574 53.7321V51.252H132.586V57.9157C147.248 54.0404 162.45 52.6266 177.574 53.7321Z" fill="#E8DFD9"/>
<path d="M132.586 57.9153V87.3223H177.574V53.7316C162.45 52.6262 147.248 54.0399 132.586 57.9153Z" fill="white"/>
<path d="M141.386 14.3418H132.586V87.323H141.386V14.3418Z" fill="#BCAFA6"/>
<path d="M167.023 16.0801H142.184V18.8902H167.023V16.0801Z" fill="#0B2952"/>
<path d="M152.603 63.3477H139.117V63.7359H152.603V63.3477Z" fill="#0B2952"/>
<path d="M152.603 57.6738H139.117V58.6008H152.603V57.6738Z" fill="#0B2952"/>
<path d="M152.603 66.3613H139.117V66.7496H152.603V66.3613Z" fill="#0B2952"/>
<path d="M152.603 69.3711H139.117V69.7594H152.603V69.3711Z" fill="#0B2952"/>
<path d="M152.603 72.3848H139.117V72.773H152.603V72.3848Z" fill="#0B2952"/>
<path d="M152.603 75.3926H139.117V75.7809H152.603V75.3926Z" fill="#0B2952"/>
<path d="M152.603 78.4082H139.117V78.7965H152.603V78.4082Z" fill="#0B2952"/>
<path d="M152.603 81.416H139.117V81.8043H152.603V81.416Z" fill="#0B2952"/>
<path d="M173.702 57.6738H157.59V83.6203H173.702V57.6738Z" fill="#EFEAE9"/>
<path d="M173.81 83.7418H157.461V57.5332H173.81V83.7418ZM157.698 83.4991H173.568V57.7759H157.703L157.698 83.4991Z" fill="#0B2952"/>
<path d="M172.688 58.5996H158.602V68.8258H172.688V58.5996Z" fill="#35C0ED"/>
<path d="M165.418 76.8789H157.582V77.1216H165.418V76.8789Z" fill="#0B2952"/>
<path d="M173.695 72.6504H165.418V72.8931H173.695V72.6504Z" fill="#0B2952"/>
<path d="M164.347 69.4434H157.582V69.686H164.347V69.4434Z" fill="#0B2952"/>
<path d="M162.544 62.7695H157.582V63.0122H162.544V62.7695Z" fill="#0B2952"/>
<path d="M173.699 60.1582H166.688V60.4009H173.699V60.1582Z" fill="#0B2952"/>
<path d="M165.539 72.7734H165.297V77.0008H165.539V72.7734Z" fill="#0B2952"/>
<path d="M166.809 57.6738H166.566V68.1718H166.809V57.6738Z" fill="#0B2952"/>
<path d="M173.697 65.1094H169.559V65.352H173.697V65.1094Z" fill="#0B2952"/>
<path d="M163.004 57.6738H162.762V60.2801H163.004V57.6738Z" fill="#0B2952"/>
<path d="M163.004 64.8086H162.762V69.4776H163.004V64.8086Z" fill="#0B2952"/>
<path d="M168.09 72.495H165.953C165.953 72.2167 166.008 71.9411 166.114 71.6841C166.221 71.427 166.377 71.1935 166.574 70.997C166.77 70.8004 167.004 70.6447 167.261 70.5386C167.518 70.4325 167.793 70.3783 168.071 70.3789L168.09 72.495Z" fill="white"/>
<path d="M167.027 65.488V63.3477C167.588 63.3489 168.125 63.573 168.522 63.9706C168.918 64.3682 169.14 64.9069 169.14 65.4686L167.027 65.488Z" fill="white"/>
<path d="M162.844 63.3477V65.488H162.82C162.263 65.4829 161.731 65.2577 161.339 64.8614C160.946 64.4651 160.727 63.9298 160.727 63.3719V63.3477H162.844Z" fill="white"/>
<path d="M162.844 62.4198H160.727C160.727 61.8581 160.949 61.3194 161.345 60.9218C161.741 60.5241 162.279 60.3001 162.839 60.2988H162.864L162.844 62.4198Z" fill="white"/>
<path d="M166.689 73.7246V77.7141H158.602V82.2861H165.953H172.688V77.7141V73.7246H166.689Z" fill="#35C0ED"/>
<path d="M174.714 36.8279V35.037L165.841 29.5234L156.988 35.037V36.8279H174.714Z" fill="#0B2952"/>
<path d="M173.771 49.3215H157.926V35.5717L165.839 30.6406L173.771 35.5717V49.3215Z" fill="#35C0ED"/>
<path d="M162.427 32.7656L157.926 35.5709V49.3207H162.427V32.7656Z" fill="#0B2952"/>
<path d="M173.216 36.4297H160.516V37.4538H173.216V36.4297Z" fill="#0B2952"/>
<path d="M162.256 27.9216V26.1307L153.388 20.6172L144.535 26.1307V27.9216H162.256Z" fill="#0B2952"/>
<path d="M161.313 49.3204H145.473V26.6645L153.386 21.7383L161.313 26.6645V49.3204Z" fill="#35C0ED"/>
<path d="M174.219 48.1699H145.184V49.325H174.219V48.1699Z" fill="#0B2952"/>
<path d="M162.053 35.5273H144.734V36.9494H162.053V35.5273Z" fill="#0B2952"/>
<path d="M155.31 30.8824H151.477V25.3932L153.391 24.1992L155.31 25.3932V30.8824Z" fill="#E8DFD9"/>
<path d="M154.933 30.4942H151.855V25.864L153.392 24.8594L154.933 25.864V30.4942Z" fill="#0B2952"/>
<path d="M167.351 35.6091V33.3328L165.806 32.3281L164.27 33.3328V35.6091H167.351Z" fill="#0B2952"/>
<path d="M150.64 36.3906H149.535V48.2524H150.64V36.3906Z" fill="#0B2952"/>
<path d="M157.234 36.3906H156.129V48.2524H157.234V36.3906Z" fill="#0B2952"/>
<path d="M149.011 37.8574H146.555V44.3707H149.011V37.8574Z" fill="#E8DFD9"/>
<path d="M148.644 38.2637H146.934V42.0105H148.644V38.2637Z" fill="#0B2952"/>
<path d="M148.644 42.4766H146.934V43.9569H148.644V42.4766Z" fill="#0B2952"/>
<path d="M153.547 38.7441H151.09V48.252H153.547V38.7441Z" fill="#E8DFD9"/>
<path d="M153.179 39.1523H151.469V42.8992H153.179V39.1523Z" fill="#0B2952"/>
<path d="M153.179 43.3652H151.469V47.8401H153.179V43.3652Z" fill="#0B2952"/>
<path d="M156.008 38.7441H153.551V48.252H156.008V38.7441Z" fill="#E8DFD9"/>
<path d="M155.636 39.1523H153.926V42.8992H155.636V39.1523Z" fill="#0B2952"/>
<path d="M155.636 43.3652H153.926V47.8401H155.636V43.3652Z" fill="#0B2952"/>
<path d="M160.515 37.8574H158.059V44.3707H160.515V37.8574Z" fill="#E8DFD9"/>
<path d="M160.14 38.2637H158.43V42.0105H160.14V38.2637Z" fill="#0B2952"/>
<path d="M160.14 42.4766H158.43V43.9569H160.14V42.4766Z" fill="#0B2952"/>
<path d="M164.57 37.8574H162.113V44.3707H164.57V37.8574Z" fill="#E8DFD9"/>
<path d="M164.199 38.2637H162.488V42.0105H164.199V38.2637Z" fill="#0B2952"/>
<path d="M164.199 42.4766H162.488V43.9569H164.199V42.4766Z" fill="#0B2952"/>
<path d="M168.176 37.8574H165.719V44.3707H168.176V37.8574Z" fill="#E8DFD9"/>
<path d="M167.804 38.2637H166.094V42.0105H167.804V38.2637Z" fill="#0B2952"/>
<path d="M167.804 42.4766H166.094V43.9569H167.804V42.4766Z" fill="#0B2952"/>
<path d="M171.781 37.8574H169.324V44.3707H171.781V37.8574Z" fill="#E8DFD9"/>
<path d="M171.41 38.2637H169.699V42.0105H171.41V38.2637Z" fill="#0B2952"/>
<path d="M171.41 42.4766H169.699V43.9569H171.41V42.4766Z" fill="#0B2952"/>
<path d="M149.011 27.3496H146.555V33.8629H149.011V27.3496Z" fill="#E8DFD9"/>
<path d="M148.644 27.7578H146.934V31.5047H148.644V27.7578Z" fill="#0B2952"/>
<path d="M148.644 31.9688H146.934V33.449H148.644V31.9688Z" fill="#0B2952"/>
<path d="M160.515 27.3496H158.059V33.8629H160.515V27.3496Z" fill="#E8DFD9"/>
<path d="M160.14 27.7578H158.43V31.5047H160.14V27.7578Z" fill="#0B2952"/>
<path d="M160.14 31.9688H158.43V33.449H160.14V31.9688Z" fill="#0B2952"/>
<path d="M177.816 87.5662H132.344V14.0996H177.816V87.5662ZM132.828 87.0809H177.332V14.585H132.828V87.0809Z" fill="#0B2952"/>
<path d="M138.156 3.33008H93.168V76.3113H138.156V3.33008Z" fill="white"/>
<path d="M138.152 42.7203V40.2402H93.1641V46.8992C107.827 43.0283 123.028 41.6162 138.152 42.7203Z" fill="#E8DFD9"/>
<path d="M93.1641 46.8983V76.3102H138.152V42.7195C123.028 41.6153 107.827 43.0274 93.1641 46.8983Z" fill="white"/>
<path d="M101.861 3.33008H93.168V76.3113H101.861V3.33008Z" fill="#BCAFA6"/>
<path d="M127.609 5.06641H102.77V7.87655H127.609V5.06641Z" fill="#0B2952"/>
<path d="M113.181 52.334H99.6953V52.7223H113.181V52.334Z" fill="#0B2952"/>
<path d="M113.181 46.6602H99.6953V47.5872H113.181V46.6602Z" fill="#0B2952"/>
<path d="M113.181 55.3496H99.6953V55.7379H113.181V55.3496Z" fill="#0B2952"/>
<path d="M113.181 58.3574H99.6953V58.7457H113.181V58.3574Z" fill="#0B2952"/>
<path d="M113.181 61.3711H99.6953V61.7594H113.181V61.3711Z" fill="#0B2952"/>
<path d="M113.181 64.3809H99.6953V64.7691H113.181V64.3809Z" fill="#0B2952"/>
<path d="M113.181 67.3945H99.6953V67.7828H113.181V67.3945Z" fill="#0B2952"/>
<path d="M113.181 70.4043H99.6953V70.7926H113.181V70.4043Z" fill="#0B2952"/>
<path d="M134.28 46.6602H118.168V72.6067H134.28V46.6602Z" fill="#EFEAE9"/>
<path d="M134.401 72.7281H118.047V46.5195H134.401V72.7281ZM118.289 72.4855H134.159V46.7622H118.289V72.4855Z" fill="#0B2952"/>
<path d="M133.266 47.5879H119.18V57.8141H133.266V47.5879Z" fill="#35C0ED"/>
<path d="M126.004 65.8652H118.168V66.1079H126.004V65.8652Z" fill="#0B2952"/>
<path d="M134.28 61.6387H126.004V61.8813H134.28V61.6387Z" fill="#0B2952"/>
<path d="M124.933 58.4297H118.168V58.6724H124.933V58.4297Z" fill="#0B2952"/>
<path d="M123.13 51.7578H118.168V52.0005H123.13V51.7578Z" fill="#0B2952"/>
<path d="M134.281 49.1465H127.27V49.3892H134.281V49.1465Z" fill="#0B2952"/>
<path d="M126.125 61.7598H125.883V65.9871H126.125V61.7598Z" fill="#0B2952"/>
<path d="M127.391 46.6602H127.148V57.1582H127.391V46.6602Z" fill="#0B2952"/>
<path d="M134.279 54.0957H130.141V54.3384H134.279V54.0957Z" fill="#0B2952"/>
<path d="M123.586 46.6602H123.344V49.2665H123.586V46.6602Z" fill="#0B2952"/>
<path d="M123.586 53.7949H123.344V58.4639H123.586V53.7949Z" fill="#0B2952"/>
<path d="M128.668 61.4794H126.531C126.533 60.9177 126.756 60.3795 127.153 59.9828C127.55 59.5861 128.088 59.3633 128.649 59.3633L128.668 61.4794Z" fill="white"/>
<path d="M127.602 54.4744V52.334C128.163 52.334 128.702 52.5574 129.099 52.9552C129.496 53.353 129.719 53.8924 129.719 54.4549L127.602 54.4744Z" fill="white"/>
<path d="M123.414 52.334V54.4744C123.136 54.475 122.861 54.4206 122.603 54.3142C122.346 54.2079 122.112 54.0516 121.916 53.8546C121.719 53.6575 121.563 53.4234 121.457 53.1658C121.351 52.9082 121.296 52.6321 121.297 52.3534L123.414 52.334Z" fill="white"/>
<path d="M123.414 51.4081H121.277C121.277 50.8456 121.5 50.3061 121.898 49.9083C122.295 49.5106 122.833 49.2871 123.395 49.2871L123.414 51.4081Z" fill="white"/>
<path d="M127.267 62.7109V66.7005H119.18V71.2676H126.536H133.266V66.7005V62.7109H127.267Z" fill="#35C0ED"/>
<path d="M138.394 76.5719H92.9219V3.08594H138.394V76.5719ZM93.4064 76.0866H137.91V3.57128H93.4064V76.0866Z" fill="#0B2952"/>
<path d="M127.551 18.541H103.512V39.0031H127.551V18.541Z" fill="#35C0ED"/>
<path d="M124.896 18.541H106.172V39.0031H124.896V18.541Z" fill="#0B2952"/>
<path d="M128.249 17.8066H102.809V18.5347H128.249V17.8066Z" fill="#E8DFD9"/>
<path d="M104.465 17.812L115.528 10.9492L126.595 17.812H104.465Z" fill="#0B2952"/>
<path d="M123.731 15.541H107.328V38.9977H123.731V15.541Z" fill="#35C0ED"/>
<path d="M107.301 14.473L115.529 9.36719L123.762 14.473H107.301Z" fill="#0B2952"/>
<path d="M124.594 14.4727H106.461V15.5404H124.594V14.4727Z" fill="#E8DFD9"/>
<path d="M117.844 30.7812H113.09V38.8283H117.844V30.7812Z" fill="#E8DFD9"/>
<path d="M117.844 17.4668H113.09V25.5138H117.844V17.4668Z" fill="#E8DFD9"/>
<path d="M114.844 18.0254H113.613V20.0444H114.844V18.0254Z" fill="#0B2952"/>
<path d="M117.305 18.0254H116.074V20.0444H117.305V18.0254Z" fill="#0B2952"/>
<path d="M114.844 20.4238H113.613V22.4429H114.844V20.4238Z" fill="#0B2952"/>
<path d="M117.305 20.4238H116.074V22.4429H117.305V20.4238Z" fill="#0B2952"/>
<path d="M114.844 22.8203H113.613V24.8393H114.844V22.8203Z" fill="#0B2952"/>
<path d="M117.305 22.8203H116.074V24.8393H117.305V22.8203Z" fill="#0B2952"/>
<path d="M109.483 22.8203H109.188V25.4509H109.483V22.8203Z" fill="#0B2952"/>
<path d="M110.585 22.8203H110.289V25.4509H110.585V22.8203Z" fill="#0B2952"/>
<path d="M111.69 22.8203H111.395V25.4509H111.69V22.8203Z" fill="#0B2952"/>
<path d="M112.796 22.8203H112.5V25.4509H112.796V22.8203Z" fill="#0B2952"/>
<path d="M113.893 22.8203H113.598V25.4509H113.893V22.8203Z" fill="#0B2952"/>
<path d="M114.999 22.8203H114.703V25.4509H114.999V22.8203Z" fill="#0B2952"/>
<path d="M116.1 22.8203H115.805V25.4509H116.1V22.8203Z" fill="#0B2952"/>
<path d="M117.206 22.8203H116.91V25.4509H117.206V22.8203Z" fill="#0B2952"/>
<path d="M118.307 22.8203H118.012V25.4509H118.307V22.8203Z" fill="#0B2952"/>
<path d="M119.409 22.8203H119.113V25.4509H119.409V22.8203Z" fill="#0B2952"/>
<path d="M120.514 22.8203H120.219V25.4509H120.514V22.8203Z" fill="#0B2952"/>
<path d="M121.62 22.8203H121.324V25.4509H121.62V22.8203Z" fill="#0B2952"/>
<path d="M121.617 22.6992H109.188V22.9565H121.617V22.6992Z" fill="#0B2952"/>
<path d="M121.617 24.8535H109.188V25.1107H121.617V24.8535Z" fill="#0B2952"/>
<path d="M121.675 17.5898H118.535V22.2443H121.675V17.5898Z" fill="#E8DFD9"/>
<path d="M119.976 17.875H118.789V19.0641H119.976V17.875Z" fill="#0B2952"/>
<path d="M121.422 17.875H120.234V19.0641H121.422V17.875Z" fill="#0B2952"/>
<path d="M119.976 19.3223H118.789V20.5114H119.976V19.3223Z" fill="#0B2952"/>
<path d="M121.422 19.3223H120.234V20.5114H121.422V19.3223Z" fill="#0B2952"/>
<path d="M119.976 20.7676H118.789V21.9567H119.976V20.7676Z" fill="#0B2952"/>
<path d="M121.422 20.7676H120.234V21.9567H121.422V20.7676Z" fill="#0B2952"/>
<path d="M112.515 17.5898H109.375V22.2443H112.515V17.5898Z" fill="#E8DFD9"/>
<path d="M110.812 17.875H109.625V19.0641H110.812V17.875Z" fill="#0B2952"/>
<path d="M112.258 17.875H111.07V19.0641H112.258V17.875Z" fill="#0B2952"/>
<path d="M110.812 19.3223H109.625V20.5114H110.812V19.3223Z" fill="#0B2952"/>
<path d="M112.258 19.3223H111.07V20.5114H112.258V19.3223Z" fill="#0B2952"/>
<path d="M110.812 20.7676H109.625V21.9567H110.812V20.7676Z" fill="#0B2952"/>
<path d="M112.258 20.7676H111.07V21.9567H112.258V20.7676Z" fill="#0B2952"/>
<path d="M121.675 31.9512H118.535V36.6056H121.675V31.9512Z" fill="#E8DFD9"/>
<path d="M119.976 32.2363H118.789V33.4254H119.976V32.2363Z" fill="#0B2952"/>
<path d="M121.422 32.2363H120.234V33.4254H121.422V32.2363Z" fill="#0B2952"/>
<path d="M119.976 33.6836H118.789V34.8727H119.976V33.6836Z" fill="#0B2952"/>
<path d="M121.422 33.6836H120.234V34.8727H121.422V33.6836Z" fill="#0B2952"/>
<path d="M119.976 35.1289H118.789V36.318H119.976V35.1289Z" fill="#0B2952"/>
<path d="M121.422 35.1289H120.234V36.318H121.422V35.1289Z" fill="#0B2952"/>
<path d="M112.515 31.9512H109.375V36.6056H112.515V31.9512Z" fill="#E8DFD9"/>
<path d="M110.812 32.2363H109.625V33.4254H110.812V32.2363Z" fill="#0B2952"/>
<path d="M112.258 32.2363H111.07V33.4254H112.258V32.2363Z" fill="#0B2952"/>
<path d="M110.812 33.6836H109.625V34.8727H110.812V33.6836Z" fill="#0B2952"/>
<path d="M112.258 33.6836H111.07V34.8727H112.258V33.6836Z" fill="#0B2952"/>
<path d="M110.812 35.1289H109.625V36.318H110.812V35.1289Z" fill="#0B2952"/>
<path d="M112.258 35.1289H111.07V36.318H112.258V35.1289Z" fill="#0B2952"/>
<path d="M105.723 19.8418H104.027V24.4963H105.723V19.8418Z" fill="#E8DFD9"/>
<path d="M105.468 20.127H104.281V21.316H105.468V20.127Z" fill="#0B2952"/>
<path d="M105.468 21.5742H104.281V22.7633H105.468V21.5742Z" fill="#0B2952"/>
<path d="M105.468 23.0195H104.281V24.2086H105.468V23.0195Z" fill="#0B2952"/>
<path d="M105.723 29.0625H104.027V33.717H105.723V29.0625Z" fill="#E8DFD9"/>
<path d="M105.468 29.3496H104.281V30.5387H105.468V29.3496Z" fill="#0B2952"/>
<path d="M105.468 30.7949H104.281V31.984H105.468V30.7949Z" fill="#0B2952"/>
<path d="M105.468 32.2363H104.281V33.4254H105.468V32.2363Z" fill="#0B2952"/>
<path d="M126.977 19.8418H125.281V24.4963H126.977V19.8418Z" fill="#E8DFD9"/>
<path d="M126.722 20.127H125.535V21.316H126.722V20.127Z" fill="#0B2952"/>
<path d="M126.722 21.5742H125.535V22.7633H126.722V21.5742Z" fill="#0B2952"/>
<path d="M126.722 23.0195H125.535V24.2086H126.722V23.0195Z" fill="#0B2952"/>
<path d="M126.977 29.0625H125.281V33.717H126.977V29.0625Z" fill="#E8DFD9"/>
<path d="M126.722 29.3496H125.535V30.5387H126.722V29.3496Z" fill="#0B2952"/>
<path d="M126.722 30.7949H125.535V31.984H126.722V30.7949Z" fill="#0B2952"/>
<path d="M126.722 32.2363H125.535V33.4254H126.722V32.2363Z" fill="#0B2952"/>
<path d="M122.821 25.3984H108.312V26.1653H122.821V25.3984Z" fill="#E8DFD9"/>
<path d="M109.755 29.9648H108.863V38.9728H109.755V29.9648Z" fill="#0B2952"/>
<path d="M122.161 29.9648H121.27V38.9728H122.161V29.9648Z" fill="#0B2952"/>
<path d="M122.821 29.5332H108.312V30.3H122.821V29.5332Z" fill="#E8DFD9"/>
<path d="M114.844 31.3672H113.613V33.3862H114.844V31.3672Z" fill="#0B2952"/>
<path d="M117.305 31.3672H116.074V33.3862H117.305V31.3672Z" fill="#0B2952"/>
<path d="M114.844 33.7656H113.613V35.7847H114.844V33.7656Z" fill="#0B2952"/>
<path d="M117.305 33.7656H116.074V35.7847H117.305V33.7656Z" fill="#0B2952"/>
<path d="M114.844 36.1621H113.613V38.1811H114.844V36.1621Z" fill="#0B2952"/>
<path d="M117.305 36.1621H116.074V38.1811H117.305V36.1621Z" fill="#0B2952"/>
<path d="M100.371 16.9141H55.3828V89.8953H100.371V16.9141Z" fill="white"/>
<path d="M100.367 56.3053V53.8301H55.3789V60.489C70.041 56.6141 85.243 55.2004 100.367 56.3053Z" fill="#E8DFD9"/>
<path d="M55.3789 60.4893V89.8963H100.367V56.3056C85.243 55.2006 70.041 56.6143 55.3789 60.4893Z" fill="white"/>
<path d="M89.8197 18.6523H64.9805V21.4625H89.8197V18.6523Z" fill="#0B2952"/>
<path d="M75.3958 65.9238H61.9102V66.3121H75.3958V65.9238Z" fill="#0B2952"/>
<path d="M75.3958 60.25H61.9102V61.177H75.3958V60.25Z" fill="#0B2952"/>
<path d="M75.3958 68.9336H61.9102V69.3219H75.3958V68.9336Z" fill="#0B2952"/>
<path d="M75.3958 71.9473H61.9102V72.3355H75.3958V71.9473Z" fill="#0B2952"/>
<path d="M75.3958 74.957H61.9102V75.3453H75.3958V74.957Z" fill="#0B2952"/>
<path d="M75.3958 77.9707H61.9102V78.359H75.3958V77.9707Z" fill="#0B2952"/>
<path d="M75.3958 80.9805H61.9102V81.3687H75.3958V80.9805Z" fill="#0B2952"/>
<path d="M75.3958 83.9883H61.9102V84.3766H75.3958V83.9883Z" fill="#0B2952"/>
<path d="M96.4949 60.25H80.3828V86.1965H96.4949V60.25Z" fill="#EFEAE9"/>
<path d="M96.6161 86.3141H80.2617V60.1055H96.6161V86.3141ZM80.504 86.0714H96.3738V60.3481H80.504V86.0714Z" fill="#0B2952"/>
<path d="M95.4811 61.1777H81.3945V71.4039H95.4811V61.1777Z" fill="#35C0ED"/>
<path d="M88.2184 79.4512H80.3828V79.6938H88.2184V79.4512Z" fill="#0B2952"/>
<path d="M96.4962 75.2227H88.2148V75.4653H96.4962V75.2227Z" fill="#0B2952"/>
<path d="M87.1475 72.0195H80.3828V72.2622H87.1475V72.0195Z" fill="#0B2952"/>
<path d="M85.3448 65.3418H80.3828V65.5845H85.3448V65.3418Z" fill="#0B2952"/>
<path d="M96.4923 62.7363H89.4805V62.979H96.4923V62.7363Z" fill="#0B2952"/>
<path d="M88.336 75.3457H88.0938V79.573H88.336V75.3457Z" fill="#0B2952"/>
<path d="M89.6017 60.25H89.3594V70.748H89.6017V60.25Z" fill="#0B2952"/>
<path d="M96.4937 67.6816H92.3555V67.9243H96.4937V67.6816Z" fill="#0B2952"/>
<path d="M85.797 60.25H85.5547V62.8563H85.797V60.25Z" fill="#0B2952"/>
<path d="M85.797 67.3809H85.5547V72.0499H85.797V67.3809Z" fill="#0B2952"/>
<path d="M90.8831 75.0682H88.7461C88.7461 74.5057 88.9692 73.9662 89.3663 73.5685C89.7635 73.1707 90.3021 72.9473 90.8637 72.9473L90.8831 75.0682Z" fill="white"/>
<path d="M89.8164 68.0642V65.9238C90.3772 65.9238 90.9151 66.1466 91.3121 66.5433C91.709 66.94 91.9327 67.4783 91.934 68.0399V68.0642H89.8164Z" fill="white"/>
<path d="M85.6176 65.9238V68.0642C85.056 68.0642 84.5173 67.8407 84.1202 67.443C83.7231 67.0452 83.5 66.5058 83.5 65.9432L85.6176 65.9238Z" fill="white"/>
<path d="M85.6174 64.9978H83.4805V64.9735C83.4805 64.6952 83.5353 64.4197 83.6418 64.1626C83.7482 63.9056 83.9043 63.6721 84.101 63.4755C84.2977 63.2789 84.5312 63.1232 84.7881 63.0171C85.0449 62.9111 85.3202 62.8568 85.5981 62.8574L85.6174 64.9978Z" fill="white"/>
<path d="M89.4821 76.2969V80.2864H81.3945V84.8584H88.7504H95.4811V80.2864V76.2969H89.4821Z" fill="#35C0ED"/>
<path d="M100.609 90.1627H55.1367V16.6719H100.609V90.1627ZM55.6213 89.6774H100.125V17.1572H55.6213V89.6774Z" fill="#0B2952"/>
<path d="M79.1888 36.2754H63.9102V51.3939H79.1888V36.2754Z" fill="#35C0ED"/>
<path d="M79.1877 36.2754H76.7891V51.3939H79.1877V36.2754Z" fill="#0B2952"/>
<path d="M63.8828 35.8863L79.3068 27.5918L79.2147 35.8863H63.8828Z" fill="#0B2952"/>
<path d="M79.9929 35.8867H63.1055V36.8817H79.9929V35.8867Z" fill="#E8DFD9"/>
<path d="M93.1419 29.5469H77.8633V51.3922H93.1419V29.5469Z" fill="#35C0ED"/>
<path d="M93.1384 38.4102H76.0039V39.1624H93.1384V38.4102Z" fill="#E8DFD9"/>
<path d="M77.832 28.5533L85.498 23.7969L93.164 28.5533H77.832Z" fill="#0B2952"/>
<path d="M93.946 28.5527H77.0586V29.5477H93.946V28.5527Z" fill="#E8DFD9"/>
<path d="M82.2479 31.1211H78.6523V35.8047H82.2479V31.1211Z" fill="#E8DFD9"/>
<path d="M80.2515 31.6016H79.1758V33.2614H80.2515V31.6016Z" fill="#0B2952"/>
<path d="M81.7281 31.6016H80.6523V33.2614H81.7281V31.6016Z" fill="#0B2952"/>
<path d="M80.2515 33.6641H79.1758V35.3239H80.2515V33.6641Z" fill="#0B2952"/>
<path d="M81.7281 33.6641H80.6523V35.3239H81.7281V33.6641Z" fill="#0B2952"/>
<path d="M69.2362 37.9297H65.6406V42.6133H69.2362V37.9297Z" fill="#E8DFD9"/>
<path d="M67.2398 38.4102H66.1641V40.07H67.2398V38.4102Z" fill="#0B2952"/>
<path d="M68.7164 38.4102H67.6406V40.07H68.7164V38.4102Z" fill="#0B2952"/>
<path d="M67.2398 40.4688H66.1641V42.1286H67.2398V40.4688Z" fill="#0B2952"/>
<path d="M68.7164 40.4688H67.6406V42.1286H68.7164V40.4688Z" fill="#0B2952"/>
<path d="M76.0057 37.9297H72.4102V42.6133H76.0057V37.9297Z" fill="#E8DFD9"/>
<path d="M74.0093 38.4102H72.9336V40.07H74.0093V38.4102Z" fill="#0B2952"/>
<path d="M75.482 38.4102H74.4062V40.07H75.482V38.4102Z" fill="#0B2952"/>
<path d="M74.0093 40.4688H72.9336V42.1286H74.0093V40.4688Z" fill="#0B2952"/>
<path d="M75.482 40.4688H74.4062V42.1286H75.482V40.4688Z" fill="#0B2952"/>
<path d="M92.1502 31.1211H88.5547V35.8047H92.1502V31.1211Z" fill="#E8DFD9"/>
<path d="M90.1539 31.6016H89.0781V33.2614H90.1539V31.6016Z" fill="#0B2952"/>
<path d="M91.6265 31.6016H90.5508V33.2614H91.6265V31.6016Z" fill="#0B2952"/>
<path d="M90.1539 33.6641H89.0781V35.3239H90.1539V33.6641Z" fill="#0B2952"/>
<path d="M91.6265 33.6641H90.5508V35.3239H91.6265V33.6641Z" fill="#0B2952"/>
<path d="M87.3455 31.1211H83.75V38.4886H87.3455V31.1211Z" fill="#E8DFD9"/>
<path d="M85.3492 31.6016H84.2734V33.2614H85.3492V31.6016Z" fill="#0B2952"/>
<path d="M86.8218 31.6016H85.7461V33.2614H86.8218V31.6016Z" fill="#0B2952"/>
<path d="M85.3492 36.3477H84.2734V38.0075H85.3492V36.3477Z" fill="#0B2952"/>
<path d="M86.8218 36.3477H85.7461V38.0075H86.8218V36.3477Z" fill="#0B2952"/>
<path d="M82.2479 42.7539H78.6523V47.4375H82.2479V42.7539Z" fill="#E8DFD9"/>
<path d="M80.2515 43.2344H79.1758V44.8943H80.2515V43.2344Z" fill="#0B2952"/>
<path d="M81.7281 43.2344H80.6523V44.8943H81.7281V43.2344Z" fill="#0B2952"/>
<path d="M80.2515 45.2969H79.1758V46.9568H80.2515V45.2969Z" fill="#0B2952"/>
<path d="M81.7281 45.2969H80.6523V46.9568H81.7281V45.2969Z" fill="#0B2952"/>
<path d="M92.1502 42.7539H88.5547V47.4375H92.1502V42.7539Z" fill="#E8DFD9"/>
<path d="M90.1539 43.2344H89.0781V44.8943H90.1539V43.2344Z" fill="#0B2952"/>
<path d="M91.6265 43.2344H90.5508V44.8943H91.6265V43.2344Z" fill="#0B2952"/>
<path d="M90.1539 45.2969H89.0781V46.9568H90.1539V45.2969Z" fill="#0B2952"/>
<path d="M91.6265 45.2969H90.5508V46.9568H91.6265V45.2969Z" fill="#0B2952"/>
<path d="M87.3455 42.7539H83.75V50.1214H87.3455V42.7539Z" fill="#E8DFD9"/>
<path d="M85.3492 43.2344H84.2734V44.8943H85.3492V43.2344Z" fill="#0B2952"/>
<path d="M86.8218 43.2344H85.7461V44.8943H86.8218V43.2344Z" fill="#0B2952"/>
<path d="M85.3492 47.9805H84.2734V49.6403H85.3492V47.9805Z" fill="#0B2952"/>
<path d="M86.8218 47.9805H85.7461V49.6403H86.8218V47.9805Z" fill="#0B2952"/>
<path d="M76.0924 44.3848H65.7031V51.3106H76.0924V44.3848Z" fill="#0B2952"/>
<path d="M75.8826 45.293H66.0312V45.424H75.8826V45.293Z" fill="#E8DFD9"/>
<path d="M75.8826 46.0879H66.0312V46.2189H75.8826V46.0879Z" fill="#E8DFD9"/>
<path d="M75.8826 46.8789H66.0312V47.01H75.8826V46.8789Z" fill="#E8DFD9"/>
<path d="M75.8826 47.6699H66.0312V47.801H75.8826V47.6699Z" fill="#E8DFD9"/>
<path d="M75.8826 48.4609H66.0312V48.592H75.8826V48.4609Z" fill="#E8DFD9"/>
<path d="M75.8826 49.252H66.0312V49.383H75.8826V49.252Z" fill="#E8DFD9"/>
<path d="M75.8826 50.043H66.0312V50.174H75.8826V50.043Z" fill="#E8DFD9"/>
<path d="M75.8826 50.8359H66.0312V50.967H75.8826V50.8359Z" fill="#E8DFD9"/>
<path d="M77.7925 42.957H62.543V43.986H77.7925V42.957Z" fill="#E8DFD9"/>
<path d="M90.0395 41.3359H81.0312V42.0494H90.0395V41.3359Z" fill="#0B2952"/>
<path d="M83.2829 41.6523H82.7305V51.3884H83.2829V41.6523Z" fill="#0B2952"/>
<path d="M88.2204 41.6523H87.668V51.3884H88.2204V41.6523Z" fill="#0B2952"/>
<path d="M78.3904 36.4297H78.2305V38.8613H78.3904V36.4297Z" fill="#E8DFD9"/>
<path d="M79.4958 36.4297H79.3359V38.8613H79.4958V36.4297Z" fill="#E8DFD9"/>
<path d="M80.5974 36.4297H80.4375V38.8613H80.5974V36.4297Z" fill="#E8DFD9"/>
<path d="M81.7029 36.4297H81.543V38.8613H81.7029V36.4297Z" fill="#E8DFD9"/>
<path d="M82.8122 36.4297H82.6523V38.8613H82.8122V36.4297Z" fill="#E8DFD9"/>
<path d="M83.9177 36.4297H83.7578V38.8613H83.9177V36.4297Z" fill="#E8DFD9"/>
<path d="M85.0232 36.4297H84.8633V38.8613H85.0232V36.4297Z" fill="#E8DFD9"/>
<path d="M86.1326 36.4297H85.9727V38.8613H86.1326V36.4297Z" fill="#E8DFD9"/>
<path d="M87.238 36.4297H87.0781V38.8613H87.238V36.4297Z" fill="#E8DFD9"/>
<path d="M88.3435 36.4297H88.1836V38.8613H88.3435V36.4297Z" fill="#E8DFD9"/>
<path d="M89.449 36.4297H89.2891V38.8613H89.449V36.4297Z" fill="#E8DFD9"/>
<path d="M90.5583 36.4297H90.3984V38.8613H90.5583V36.4297Z" fill="#E8DFD9"/>
<path d="M91.6638 36.4297H91.5039V38.8613H91.6638V36.4297Z" fill="#E8DFD9"/>
<path d="M92.7654 36.4297H92.6055V38.8613H92.7654V36.4297Z" fill="#E8DFD9"/>
<path d="M93.1112 36.2461H77.6484V36.4839H93.1112V36.2461Z" fill="#E8DFD9"/>
<path d="M104.354 204.006C150.964 204.006 188.748 200.173 188.748 195.444C188.748 190.716 150.964 186.883 104.354 186.883C57.7452 186.883 19.9609 190.716 19.9609 195.444C19.9609 200.173 57.7452 204.006 104.354 204.006Z" fill="#EFEAE9"/>
<path d="M154.571 83.7617H70.8125V111.402H154.571V83.7617Z" fill="#EFEAE9"/>
<path d="M154.813 111.643H70.5703V83.5176H154.813V111.643ZM71.0549 111.158H154.329V84.0029H71.0549V111.158Z" fill="#0B2952"/>
<path d="M147.663 87.2891H77.7148V110.372H147.663V87.2891Z" fill="white"/>
<path d="M154.571 107.834H70.8125V111.401H154.571V107.834Z" fill="#0B2952"/>
<path d="M121.182 196.152C150.575 196.152 174.402 195.066 174.402 193.726C174.402 192.385 150.575 191.299 121.182 191.299C91.7887 191.299 67.9609 192.385 67.9609 193.726C67.9609 195.066 91.7887 196.152 121.182 196.152Z" fill="#0B2952"/>
<path d="M154.571 111.158H70.8125V193.361H154.571V111.158Z" fill="#7BDFFF"/>
<path d="M154.571 111.158H70.8125V119.802H154.571V111.158Z" fill="#0B2952"/>
<path d="M160.015 110.43H65.3633V112.128H160.015V110.43Z" fill="white"/>
<path d="M160.015 112.037H65.3633V113.736H160.015V112.037Z" fill="#0B2952"/>
<path d="M96.3175 94.4295H97.718L90.5947 86.0137H87.76L85.4001 88.8044H84.1499H82.5653V92.1484L80.6367 94.4295H82.042V100.074H81.4653V100.817H82.042V109.402H84.8719H93.4828H96.3175V100.817H96.8166V100.074H96.3175V94.4295Z" fill="white"/>
<path d="M93.4828 94.4295H94.8832L87.76 86.0137L84.1499 90.2798V88.8044H82.5653V92.1484L80.6367 94.4295H82.042V100.074H81.4653V100.817H82.042V109.402H93.4828V100.817H93.9867V100.074H93.4828V94.4295Z" fill="#35C0ED"/>
<path d="M83.9638 94.8027H82.8008V95.9676H83.9638V94.8027Z" fill="white"/>
<path d="M85.3466 94.8027H84.1836V95.9676H85.3466V94.8027Z" fill="white"/>
<path d="M83.9638 96.1816H82.8008V97.3465H83.9638V96.1816Z" fill="white"/>
<path d="M85.3466 96.1816H84.1836V97.3465H85.3466V96.1816Z" fill="white"/>
<path d="M87.5927 94.8027H86.4297V95.9676H87.5927V94.8027Z" fill="white"/>
<path d="M88.9794 94.8027H87.8164V95.9676H88.9794V94.8027Z" fill="white"/>
<path d="M87.5927 96.1816H86.4297V97.3465H87.5927V96.1816Z" fill="white"/>
<path d="M88.9794 96.1816H87.8164V97.3465H88.9794V96.1816Z" fill="white"/>
<path d="M91.2216 94.8027H90.0586V95.9676H91.2216V94.8027Z" fill="white"/>
<path d="M92.6083 94.8027H91.4453V95.9676H92.6083V94.8027Z" fill="white"/>
<path d="M91.2216 96.1816H90.0586V97.3465H91.2216V96.1816Z" fill="white"/>
<path d="M92.6083 96.1816H91.4453V97.3465H92.6083V96.1816Z" fill="white"/>
<path d="M84.5792 103.664H83.4453C83.4453 103.516 83.4744 103.37 83.531 103.234C83.5875 103.098 83.6704 102.974 83.7749 102.87C83.8793 102.765 84.0033 102.683 84.1397 102.627C84.276 102.571 84.4221 102.542 84.5695 102.543L84.5792 103.664Z" fill="white"/>
<path d="M85.9308 103.665H84.7969V102.529C84.9441 102.529 85.0899 102.557 85.226 102.613C85.3621 102.669 85.4857 102.752 85.5898 102.856C85.6939 102.96 85.7763 103.084 85.8323 103.221C85.8884 103.357 85.9169 103.503 85.9162 103.65L85.9308 103.665Z" fill="white"/>
<path d="M84.5831 103.873H83.4492V105.009H84.5831V103.873Z" fill="white"/>
<path d="M85.9347 103.873H84.8008V105.009H85.9347V103.873Z" fill="white"/>
<path d="M90.6397 103.664H89.4961C89.4961 103.367 89.614 103.082 89.824 102.871C90.0339 102.661 90.3186 102.543 90.6155 102.543L90.6397 103.664Z" fill="white"/>
<path d="M91.9933 103.665H90.8594V102.529C91.0068 102.529 91.1529 102.557 91.2892 102.613C91.4256 102.669 91.5496 102.752 91.654 102.856C91.7585 102.96 91.8414 103.084 91.8979 103.22C91.9545 103.357 91.9836 103.503 91.9836 103.65L91.9933 103.665Z" fill="white"/>
<path d="M90.6378 103.873H89.5039V105.009H90.6378V103.873Z" fill="white"/>
<path d="M91.9933 103.873H90.8594V105.009H91.9933V103.873Z" fill="white"/>
<path d="M105.472 96.1897H106.514L101.227 89.9434H99.8072L97.5054 93.1127V92.0158H96.3279V94.5007L94.8984 96.1897H95.9403V99.5726H95.3879V100.281H95.9403V109.318H105.472V100.281H106.179V99.5726H105.472V96.1897Z" fill="white"/>
<path d="M104.052 96.1897H105.094L99.8072 89.9434L97.1226 93.1127V92.0158H95.95V94.5007L94.5156 96.1897H95.5575V99.5726H95.0099V100.281H95.5575V109.318H104.052V100.281H104.76V99.5726H104.052V96.1897Z" fill="#35C0ED"/>
<path d="M99.4299 93.7207H98.4414V94.7108H99.4299V93.7207Z" fill="white"/>
<path d="M100.614 93.7207H99.625V94.7108H100.614V93.7207Z" fill="white"/>
<path d="M99.4299 94.8945H98.4414V95.8846H99.4299V94.8945Z" fill="white"/>
<path d="M100.614 94.8945H99.625V95.8846H100.614V94.8945Z" fill="white"/>
<path d="M98.0042 101.543H97.0156V102.533H98.0042V101.543Z" fill="white"/>
<path d="M99.1878 101.543H98.1992V102.533H99.1878V101.543Z" fill="white"/>
<path d="M98.0042 102.713H97.0156V103.703H98.0042V102.713Z" fill="white"/>
<path d="M99.1878 102.713H98.1992V103.703H99.1878V102.713Z" fill="white"/>
<path d="M101.746 101.543H100.758V102.533H101.746V101.543Z" fill="white"/>
<path d="M102.922 101.543H101.934V102.533H102.922V101.543Z" fill="white"/>
<path d="M101.746 102.713H100.758V103.703H101.746V102.713Z" fill="white"/>
<path d="M102.922 102.713H101.934V103.703H102.922V102.713Z" fill="white"/>
<path d="M114.506 106.387H113.934V107.129H114.506V109.401H128.781V107.129H129.285V106.387H128.781V100.742H130.182L123.063 92.3262H120.229L117.869 95.1169H116.614H115.034V98.4658L113.105 100.742H114.506V106.387Z" fill="white"/>
<path d="M114.506 106.387H113.934V107.129H114.506V109.401H125.952V107.129H126.451V106.387H125.952V100.742H127.352L120.229 92.3262L116.614 96.5972V95.1169H115.034V98.4658L113.105 100.742H114.506V106.387Z" fill="#35C0ED"/>
<path d="M117.044 104.45H115.91C115.91 104.303 115.938 104.156 115.994 104.02C116.05 103.883 116.132 103.759 116.236 103.654C116.34 103.55 116.464 103.467 116.6 103.41C116.736 103.353 116.882 103.324 117.03 103.324L117.044 104.45Z" fill="white"/>
<path d="M118.396 104.45H117.262V103.314C117.56 103.314 117.846 103.433 118.057 103.644C118.267 103.855 118.386 104.142 118.386 104.44L118.396 104.45Z" fill="white"/>
<path d="M117.044 104.66H115.91V105.796H117.044V104.66Z" fill="white"/>
<path d="M118.396 104.66H117.262V105.796H118.396V104.66Z" fill="white"/>
<path d="M123.1 104.45H121.961C121.961 104.152 122.079 103.865 122.29 103.654C122.501 103.443 122.787 103.324 123.085 103.324L123.1 104.45Z" fill="white"/>
<path d="M124.454 104.45H123.32V103.314C123.468 103.314 123.614 103.344 123.75 103.4C123.886 103.457 124.01 103.54 124.114 103.645C124.218 103.749 124.3 103.873 124.356 104.01C124.412 104.146 124.44 104.293 124.44 104.44L124.454 104.45Z" fill="white"/>
<path d="M123.107 104.66H121.973V105.796H123.107V104.66Z" fill="white"/>
<path d="M124.458 104.66H123.324V105.796H124.458V104.66Z" fill="white"/>
<path d="M130.699 105.605H129.923V106.6H130.699V109.401H144.165V106.6H145.158V105.605H144.165V100.829H145.633L138.166 92.0059H136.16L132.908 96.4807V94.9276H131.251V98.4367L129.23 100.829H130.699V105.605Z" fill="white"/>
<path d="M130.16 105.605H129.384V106.6H130.16V109.401H142.158V106.6H143.151V105.605H142.158V100.829H143.626L136.159 92.0059L132.369 96.4807V94.9276H130.712V98.4367L128.691 100.829H130.16V105.605Z" fill="#35C0ED"/>
<path d="M133.622 102.533H132.227V103.931H133.622V102.533Z" fill="white"/>
<path d="M135.282 102.533H133.887V103.931H135.282V102.533Z" fill="white"/>
<path d="M133.622 104.189H132.227V105.587H133.622V104.189Z" fill="white"/>
<path d="M135.282 104.189H133.887V105.587H135.282V104.189Z" fill="white"/>
<path d="M138.899 102.533H137.504V103.931H138.899V102.533Z" fill="white"/>
<path d="M140.56 102.533H139.164V103.931H140.56V102.533Z" fill="white"/>
<path d="M138.899 104.189H137.504V105.587H138.899V104.189Z" fill="white"/>
<path d="M140.56 104.189H139.164V105.587H140.56V104.189Z" fill="white"/>
<path d="M91.2753 85.8193L73.3789 103.744L73.7216 104.087L91.6179 86.1625L91.2753 85.8193Z" fill="white"/>
<path d="M94.401 86.5708L86.4688 94.5156L86.8114 94.8588L94.7436 86.914L94.401 86.5708Z" fill="white"/>
<path d="M141.267 84.3132L119.098 106.518L119.44 106.861L141.609 84.6563L141.267 84.3132Z" fill="white"/>
<path d="M145.212 85.0244L132 98.2578L132.343 98.601L145.555 85.3676L145.212 85.0244Z" fill="white"/>
<path d="M152.243 95.3892L145.891 101.752L146.233 102.095L152.586 95.7324L152.243 95.3892Z" fill="white"/>
<path d="M59.2936 188.265C56.8707 186.994 56.7835 187.154 54.821 185.086C54.821 185.086 53.7162 184.082 53.7065 184.072C52.2528 182.553 51.8699 180.543 51.7682 178.282C50.3871 148.71 53.9972 139.765 51.6761 137.367C49.3889 137.726 47.0436 137.275 44.8049 138.372C44.2263 138.669 43.7098 139.074 43.2833 139.566C41.946 141.023 41.1355 142.888 40.9816 144.861C40.5358 149.292 41.5049 157.223 42.7115 161.455C44.3861 167.115 45.761 172.86 46.8304 178.665C47.1326 180.185 47.1178 181.752 46.7868 183.266C46.4707 184.439 46.2694 185.641 46.1859 186.853C46.1859 188.576 46.5542 189.183 47.9788 189.571C49.6554 190.022 50.1642 189.571 51.1722 189.833C52.1801 190.095 52.6259 190.488 53.6241 191.046C56.0034 192.4 57.0161 191.624 59.6716 190.998C60.9072 190.707 61.857 189.619 60.7086 189.013L59.2936 188.265Z" fill="#FF998B"/>
<path d="M50.2474 144.657C50.8809 144.01 51.596 143.449 52.3747 142.987C52.554 139.886 52.4764 138.212 51.6527 137.367C49.3655 137.726 47.0201 137.275 44.7814 138.372C44.2028 138.669 43.6864 139.074 43.2599 139.566C41.9226 141.023 41.1121 142.888 40.9581 144.861C40.5123 149.292 41.4815 157.223 42.6881 161.455C43.0369 162.683 43.3422 163.789 43.6281 164.818C44.8541 157.567 44.355 149.467 50.2474 144.657Z" fill="#0B2952"/>
<path d="M60.7017 189.012L59.2916 188.265C58.5792 187.891 58.0704 187.639 57.6537 187.415C57.2356 188.071 56.6409 188.594 55.9383 188.925C51.8097 188.318 48.2336 188.439 46.3341 185.377C46.1446 185.814 46.0552 186.289 46.0724 186.765C46.0724 188.483 46.3971 189.245 47.8217 189.633C49.4983 190.085 50.1719 189.697 51.175 189.973C52.0519 190.24 52.8823 190.641 53.6366 191.162C56.0207 192.516 57.0286 191.72 59.6598 191.099C60.9052 190.803 61.8743 189.619 60.7017 189.012Z" fill="#0B2952"/>
<path d="M41.4948 189.531C41.4948 189.531 41.0102 185.449 40.6322 183.969C41.0635 167.496 45.2696 141.569 43.8159 136.57C39.7018 136.862 36.4455 138.604 32.3363 138.259C30.9311 153.951 35.1323 172.957 35.8446 185.119C35.4909 187.362 35.3019 188.517 34.2068 190.4C33.8579 190.997 33.4169 191.506 33.0971 192.128C32.8534 192.752 32.7782 193.43 32.879 194.093C32.9728 195.447 33.3864 196.76 34.0856 197.923C34.6623 198.893 35.5006 198.816 36.431 198.738C37.6308 198.7 38.7739 198.218 39.6388 197.384C40.9813 196.021 41.7424 194.188 41.7613 192.273C41.7256 191.355 41.6366 190.439 41.4948 189.531Z" fill="#FF998B"/>
<path d="M43.8831 145.428C44.1836 141.22 44.2369 138.017 43.8153 136.57C39.7013 136.862 36.4449 138.604 32.3357 138.259C32.1419 140.424 32.0547 142.657 32.0547 144.928C35.9019 146.033 39.9566 146.204 43.8831 145.428Z" fill="#0B2952"/>
<path d="M34.6142 194.128C33.4561 193.749 33.5191 192.337 33.7565 191.095C33.5145 191.424 33.2944 191.77 33.0975 192.128C32.8538 192.753 32.7786 193.431 32.8795 194.094C32.9732 195.448 33.3868 196.761 34.086 197.923C34.6627 198.894 35.501 198.816 36.4314 198.739C37.6312 198.701 38.7743 198.218 39.6393 197.385C40.9818 196.021 41.7428 194.189 41.7617 192.274C41.726 191.356 41.637 190.44 41.4952 189.532V189.299C40.6375 193.453 39.3679 195.264 34.6142 194.128Z" fill="#0B2952"/>
<path d="M53.835 140.483C54.9544 130.043 54.6152 120.176 54.3923 109.591C45.4747 109.979 36.5519 108.954 27.9539 106.553C26.3209 112.503 27.5275 118.973 29.0006 124.996C30.4737 131.019 32.223 137.129 31.6221 143.361C40.2912 146.395 50.4236 141.74 53.835 140.483Z" fill="#1F4E8D"/>
<path d="M27.9563 106.553C27.1311 109.845 26.9452 113.266 27.4087 116.628C36.0002 116.905 45.6432 117.022 54.5158 114.91C54.477 113.153 54.4334 111.382 54.3995 109.572C45.4814 109.967 36.5569 108.948 27.9563 106.553Z" fill="#0B2952"/>
<path d="M62.6992 78.6977C61.5427 75.9312 60.3862 73.1631 59.2297 70.3934C57.4707 66.1855 56.5015 63.3899 54.069 59.5314L52.843 59.4004C51.0937 59.4441 49.1069 61.6136 48.8549 63.3511C48.603 65.0886 49.1651 66.831 49.7175 68.4957C50.5962 71.136 51.4749 73.7763 52.3536 76.4166C52.9005 78.242 53.6109 80.0142 54.476 81.7117C55.3482 83.4168 56.6663 84.8527 58.2896 85.8662C59.3266 86.4729 60.6059 86.8369 61.7301 86.4001C63.082 85.8808 63.8137 84.3325 63.8186 82.8765C63.8234 81.4205 63.2565 80.0372 62.6992 78.6977Z" fill="#35C0ED"/>
<path d="M51.7819 59.668C51.0544 60.027 50.416 60.5439 49.913 61.1811C49.4101 61.8184 49.0553 62.5599 48.8745 63.3517C48.6225 65.0893 49.1846 66.8317 49.737 68.4964C50.6157 71.1367 51.4944 73.7769 52.3731 76.4172C52.974 78.2227 53.5167 80.0816 54.4955 81.7123C55.4757 83.3393 56.7726 84.7522 58.3091 85.8669C58.7966 86.2282 59.3644 86.4655 59.9637 86.5585C60.563 86.6515 61.1758 86.5973 61.7496 86.4007L61.8465 86.3522C61.5897 85.9494 61.362 85.5368 61.1197 85.1097C56.2982 77.417 60.1941 68.7682 51.7819 59.668Z" fill="#86D9F4"/>
<path d="M60.3346 86.3178C61.832 86.5605 63.3196 85.6674 64.2451 84.4686C65.1707 83.2698 65.6407 81.7895 66.1447 80.3578C67.8079 75.6161 69.9615 71.0614 72.5701 66.7681C71.3878 64.5064 69.0473 64.7637 67.4821 63.793C64.6812 67.8504 62.2632 71.971 59.5932 76.1207C58.4932 77.8291 57.3787 79.6492 57.2479 81.6828C57.117 83.7164 58.3333 85.9878 60.3346 86.3178Z" fill="#35C0ED"/>
<path d="M71.7113 66.4919C71.6414 66.2905 71.5046 66.1192 71.3237 66.0066C70.1985 65.1682 68.8949 64.6018 67.5149 64.3516C67.456 65.218 67.5719 66.0874 67.8558 66.9079C68.1397 67.7284 68.5858 68.4833 69.1673 69.1274C69.6861 69.0771 70.1711 68.8471 70.5387 68.477C70.8977 68.1049 71.2131 67.6929 71.4788 67.2491C71.5672 67.1455 71.6335 67.0249 71.6735 66.8947C71.7135 66.7644 71.7264 66.6274 71.7113 66.4919Z" fill="#0B2952"/>
<path d="M78.8361 60.6678C78.7872 60.6111 78.7244 60.5682 78.6538 60.5435C78.5832 60.5188 78.5073 60.5131 78.4339 60.5271C78.2852 60.5586 78.1439 60.6179 78.0171 60.7018L75.7929 61.9588L75.6863 61.852C76.6022 61.226 77.5132 60.5901 78.3806 59.9107C78.4836 59.8333 78.5736 59.7399 78.6471 59.634C78.6855 59.5823 78.7083 59.5207 78.7126 59.4563C78.7169 59.392 78.7026 59.3278 78.6714 59.2715C78.6402 59.2151 78.5934 59.169 78.5367 59.1386C78.4799 59.1082 78.4156 59.0948 78.3515 59.1001C78.2123 59.1191 78.0786 59.1671 77.959 59.2409C76.8492 59.8064 75.7718 60.4335 74.7317 61.1192L74.6203 61.0512L77.7312 58.7361C77.9008 58.6099 78.085 58.4304 78.022 58.2508C77.9971 58.1885 77.9544 58.135 77.8992 58.097C77.844 58.059 77.7788 58.0382 77.7118 58.0372C77.5781 58.0402 77.4463 58.0699 77.3242 58.1246C75.8373 58.7461 74.4287 59.5411 73.1278 60.4931H73.0357C74.0049 59.7068 75.1533 59.037 76.0885 58.2168C76.1806 58.1343 76.0061 57.7606 75.9286 57.6635C75.8511 57.5665 75.7299 57.6198 75.6379 57.6635C74.6313 58.1097 73.6774 58.6665 72.7934 59.3234C72.3052 59.7188 71.7849 60.0728 71.2379 60.3815C71.0354 60.3872 70.8328 60.3759 70.6322 60.3475C70.2106 60.2747 70.0071 60.2892 69.8327 59.8961C69.6992 59.5672 69.6253 59.2172 69.6146 58.8623C69.5807 58.4886 68.9798 57.2413 68.6067 57.2267C68.2336 57.2122 68.064 58.2605 68.0882 58.6488C68.1711 59.1291 68.3093 59.5981 68.5001 60.0466C68.7791 60.7802 68.8081 61.5856 68.5825 62.3374C68.3248 63.215 68.1782 64.1216 68.1464 65.0359C68.1332 65.494 68.2382 65.9477 68.4513 66.3532C68.6644 66.7588 68.9782 67.1024 69.3626 67.351C69.5716 67.4782 69.8209 67.5215 70.0604 67.4723C70.2656 67.3993 70.4501 67.2778 70.5983 67.118C70.9811 66.7589 71.3833 66.4143 71.7904 66.0794C73.4217 65.3825 74.9227 64.4125 76.229 63.211C77.1023 62.7201 77.9154 62.1288 78.6519 61.4492C78.7574 61.3562 78.8445 61.2443 78.9087 61.1192C78.9418 61.045 78.9525 60.9628 78.9396 60.8826C78.9267 60.8025 78.8907 60.7278 78.8361 60.6678Z" fill="#FF998B"/>
<path d="M28.2607 58.2218C29.1814 57.0133 30.6836 56.4066 32.1373 55.9698C38.4133 54.1094 45.1355 54.4519 51.1907 56.9405C52.281 57.3918 53.3955 57.9597 54.0013 58.9741C54.8396 60.3864 54.418 62.1725 54.5101 63.8275C54.7281 67.6132 57.2043 71.0494 56.0801 74.6701C55.3145 77.1259 53.4391 78.7907 52.1502 81.0136C51.0647 82.8821 50.8758 85.1535 51.1326 87.323C51.3894 89.4925 52.0533 91.5407 52.5863 93.6325C54.1418 99.6945 55.799 103.679 55.6876 111.556C45.8946 113.385 35.8786 113.69 25.9929 112.459C25.0237 105.223 29.4624 97.6851 30.5043 90.4632C31.8465 81.1592 26.962 72.0201 27.1122 62.6044C27.1462 61.0416 27.34 59.4303 28.2607 58.2218Z" fill="#26C6F9"/>
<path d="M40.6901 66.4436C40.7483 67.5114 42.2601 67.9531 42.2601 69.0208C42.2601 69.9915 41.0536 70.4332 40.884 71.365C40.6707 72.5299 42.1632 73.3501 42.1342 74.5343C42.1099 75.6118 40.8694 76.2233 40.6804 77.2862C40.4769 78.5384 41.8483 79.5528 41.7707 80.8244C41.6932 82.096 40.1522 82.9356 40.2492 84.2218C40.3025 84.8819 40.7773 85.3866 41.1892 85.872C41.6011 86.3573 42.0033 86.9786 41.8579 87.6241C41.7659 88.0318 41.4606 88.3667 41.4024 88.784C41.3918 89.1218 41.5086 89.4512 41.7295 89.7066C41.9504 89.962 42.2592 90.1248 42.5945 90.1624C43.2371 90.1785 43.879 90.11 44.5037 89.9586C46.3414 80.2345 45.828 70.211 43.0064 60.7263C42.5606 59.246 41.9694 57.6638 40.7386 56.8824C40.4102 56.6435 40.001 56.5441 39.5998 56.6057C39.3968 56.6558 39.2153 56.7702 39.0826 56.9321C38.9498 57.0939 38.8729 57.2944 38.8633 57.5036C38.8633 58.0957 39.4448 58.4452 39.9197 58.7121C40.3945 58.979 40.9324 59.4741 40.7773 60.0419C40.6223 60.6098 39.9439 60.7554 39.8082 61.2893C39.6725 61.8232 40.128 62.3667 40.5932 62.6482C41.0584 62.9297 41.6254 63.2161 41.7368 63.7888C41.9161 64.7643 40.6417 65.4535 40.6901 66.4436Z" fill="#EFEAE9"/>
<path d="M52.9366 70.8452C52.612 72.2575 54.6811 73.301 54.5309 74.7279C54.434 75.6064 53.5278 76.2179 53.3776 77.0867C53.1353 78.4554 54.8313 79.6202 54.5696 80.9695C54.3661 82.0227 53.0529 82.6536 53.019 83.7311C52.9899 84.6532 53.9494 85.5123 53.6005 86.3665C53.3291 87.0363 52.4424 87.1819 51.9432 87.7012C51.6542 88.0528 51.4458 88.4637 51.3327 88.9048C51.2143 89.3477 50.9662 89.745 50.6204 90.0454C50.4423 90.1851 50.2165 90.2492 49.9917 90.2237C49.7669 90.1983 49.5611 90.0855 49.4186 89.9095C51.1582 84.5707 51.4684 78.8048 50.8287 73.2088C50.1891 67.6128 48.6288 62.1672 46.6953 56.8818C46.831 56.3673 47.5821 56.2509 48.0182 56.5615C48.4184 56.9189 48.6779 57.4077 48.7499 57.9399C48.8182 58.4723 49.0144 58.9803 49.3217 59.4202C49.7384 59.9055 50.4895 60.1627 50.5864 60.7937C50.6688 61.347 50.1649 61.8517 50.1988 62.4099C50.2715 63.4971 52.0935 63.5893 52.4327 64.6279C52.7089 65.4773 51.7785 66.3751 52.0353 67.2342C52.2921 68.0933 53.4503 68.3602 53.5278 69.1999C53.5811 69.8065 53.0675 70.2628 52.9366 70.8452Z" fill="#EFEAE9"/>
<path d="M40.7656 56.4839C42.2985 59.0773 43.3155 61.9434 43.7603 64.9241C44.2933 68.5302 43.9784 72.2042 43.6585 75.8346C43.1933 81.1443 42.7298 86.4539 42.2678 91.7636L50.0549 91.9432C51.8791 86.0588 52.5064 79.8677 51.8997 73.7362C51.2929 67.6047 49.4644 61.6573 46.5224 56.2461L40.7656 56.4839Z" fill="white"/>
<path d="M29.1068 107.849C35.8182 104.748 44.6132 106.815 52.3276 107.33C52.3276 103.199 53.3597 98.545 50.777 94.9292C47.1669 89.2458 39.9419 87.1637 36.3318 81.4948C33.7539 76.8404 38.3961 72.1908 35.8182 67.5412C34.9659 65.8256 33.7763 64.3002 32.3207 63.0567C30.8651 61.8132 29.1736 60.8771 27.3478 60.3047C27.1991 61.0462 27.1228 61.8004 27.1201 62.5567C26.9553 71.953 31.8398 81.1114 30.5121 90.4155C29.5429 97.1084 25.6663 104.073 25.8796 110.8C26.5833 109.473 27.7234 108.43 29.1068 107.849Z" fill="#86D9F4"/>
<path d="M37.1621 55.0337C37.3124 54.825 37.6467 54.8444 37.8163 54.6649C37.9165 54.544 37.9759 54.3945 37.9859 54.2378C37.9965 54.0836 38.0465 53.9349 38.1313 53.8058C38.1762 53.7428 38.2439 53.6999 38.32 53.6863C38.3961 53.6726 38.4744 53.6894 38.5383 53.733C39.2015 54.2906 40.0104 54.6461 40.8691 54.7571C42.7545 55.1158 44.6973 55.0294 46.5435 54.5047C46.7 54.4523 46.8632 54.4228 47.0281 54.4173C47.1122 54.4173 47.1948 54.4393 47.2679 54.481C47.3409 54.5227 47.4019 54.5827 47.4448 54.6551C47.5611 54.8784 47.4206 55.1405 47.5272 55.3929C47.595 55.5385 47.7549 55.6307 47.8179 55.7812C47.8474 55.8629 47.8544 55.9511 47.8382 56.0364C47.822 56.1218 47.7832 56.2013 47.7259 56.2665C47.614 56.3877 47.4788 56.4851 47.3285 56.5528C45.492 57.5235 43.3065 57.5915 41.2471 57.3197C40.4139 57.2273 39.5981 57.0165 38.8242 56.6936C38.3383 56.478 37.8849 56.1954 37.4771 55.854C37.3531 55.7591 37.2493 55.6402 37.1718 55.5045C37.1276 55.4343 37.1034 55.3534 37.1017 55.2705C37.1 55.1875 37.1209 55.1057 37.1621 55.0337Z" fill="white"/>
<path d="M38.1782 35.0226C37.6963 34.5147 37.0973 34.1331 36.4337 33.9112C36.0504 33.8457 35.6577 33.8606 35.2805 33.9549C33.4052 34.3383 31.5783 35.5808 31.0695 37.4251C30.5849 39.1917 31.3554 41.0894 31.0307 42.8901C30.8321 43.9918 30.236 44.9722 29.7951 46.0011C29.3541 47.0301 29.0634 48.2143 29.4898 49.2481C29.9162 50.2819 30.9144 50.8885 31.7915 51.5583C32.6686 52.2281 33.5311 53.1697 33.4294 54.2665C33.3664 54.9654 32.9109 55.6546 33.129 56.3244C33.3376 56.7776 33.6999 57.1422 34.1514 57.3533C35.8086 58.324 37.6743 59.1394 39.6029 59.0375C41.5315 58.9356 43.4795 57.727 43.964 55.8536C44.5794 53.4512 42.6702 51.0972 42.6751 48.6171C42.6751 46.0448 44.7442 43.686 44.3081 41.1525C44.0561 39.6965 42.9949 38.4831 41.8174 37.5804C40.6398 36.6777 39.3218 35.9739 38.1782 35.0226Z" fill="#0B2952"/>
<path d="M51.0839 106.644L31.793 106.183L37.1087 76.0234L56.3996 76.4845L51.0839 106.644Z" fill="#0B2952"/>
<path d="M52.8905 104.578L33.6675 104.685L33.3477 103.996L38.6344 73.8945L58.027 74.4236L58.2499 75.0254L52.8905 104.578Z" fill="white"/>
<path d="M52.955 105.16L33.6641 104.699L38.9798 74.5352L58.2707 75.0011L52.955 105.16Z" fill="#7EADAF"/>
<path d="M35.0938 96.5636C39.6862 100.019 44.694 102.882 49.9992 105.086L52.9503 105.159L54.123 98.4661C47.8228 96.0207 41.8853 92.7256 36.4748 88.6719L35.0938 96.5636Z" fill="#0B2952"/>
<path d="M32.4936 38.7401C32.0145 40.3033 31.9693 41.9677 32.3628 43.5547C32.5562 44.3654 32.9971 45.0955 33.6242 45.6436C34.2512 46.1916 35.0333 46.5302 35.8614 46.6123C34.9975 43.2396 34.5628 39.771 34.5676 36.2891C33.4725 36.5269 32.8328 37.6723 32.4936 38.7401Z" fill="#576B88"/>
<path d="M47.2569 55.6698C46.6714 53.2854 46.3464 50.8444 46.2878 48.3896C44.273 48.6483 42.2265 48.483 40.2791 47.9043C40.0368 50.5639 39.2447 53.144 37.9531 55.4805C41.2482 56.8686 44.3834 57.1598 47.2569 55.6698Z" fill="#FF998B"/>
<path d="M40.9648 48.0547C41.1587 51.3502 43.7608 53.1265 46.8718 53.8788C46.4824 52.0684 46.2826 50.2221 46.2758 48.3702C44.5016 48.6071 42.6986 48.5 40.9648 48.0547Z" fill="#0B2952"/>
<path d="M44.8253 35.5344C45.2817 34.5298 46.116 33.7465 47.1464 33.3552C47.6811 33.1105 48.2643 32.9908 48.8519 33.0051C49.4396 33.0193 50.0163 33.1673 50.5384 33.4377C51.8371 34.2046 52.3459 35.9373 51.9922 37.4079C51.5714 38.8719 50.6743 40.1531 49.4433 41.0479C49.1752 41.2907 48.8528 41.4655 48.5032 41.5576C48.194 41.5754 47.8846 41.527 47.5955 41.4157C47.3064 41.3044 47.0443 41.1327 46.8266 40.912C46.0135 40.2813 45.3636 39.464 44.9319 38.529C44.5057 37.5834 44.4674 36.508 44.8253 35.5344Z" fill="#0B2952"/>
<path d="M45.948 34.037C46.9791 34.1096 47.977 34.4328 48.8554 34.9785C49.7034 35.5658 50.3721 37.7062 50.2607 38.7303C50.1492 39.7543 49.873 40.1863 49.9166 40.6231C49.9447 41.1218 50.0927 41.6063 50.3479 42.0355C51.1135 43.4915 50.8567 45.263 50.2268 46.7724C49.5968 48.2818 48.647 49.6262 47.9832 51.1405C45.1548 51.3258 42.3558 50.4735 40.1088 48.7429C39.0062 47.868 38.1162 46.7538 37.506 45.4843C36.8957 44.2148 36.5812 42.8232 36.586 41.4142C36.6242 40.0044 37.0467 38.632 37.8078 37.4455C38.5688 36.2589 39.6393 35.3034 40.9035 34.6825C42.4964 34.0168 44.2391 33.7938 45.948 34.037Z" fill="#FF998B"/>
<path d="M43.562 40.0789C43.5191 40.0795 43.4774 40.0646 43.4445 40.037C43.4116 40.0094 43.3897 39.9709 43.3827 39.9285C43.3778 39.9045 43.3776 39.8799 43.3823 39.8559C43.3869 39.8319 43.3963 39.8091 43.4098 39.7888C43.4234 39.7685 43.4408 39.7511 43.4611 39.7376C43.4814 39.724 43.5042 39.7147 43.5281 39.7101L45.8201 39.2587C45.8689 39.2501 45.9191 39.2611 45.9599 39.2893C46.0006 39.3174 46.0288 39.3604 46.0382 39.4091C46.0468 39.4573 46.0365 39.507 46.0094 39.5477C45.9823 39.5884 45.9405 39.617 45.8928 39.6275L43.6008 40.0789H43.562Z" fill="#0B2952"/>
<path d="M39.2612 31.5661C37.3229 32.1388 35.2199 33.0221 34.367 34.8616C31.5323 40.9187 32.8309 43.1125 34.1538 44.4763C34.1916 44.8951 34.3153 45.3016 34.5172 45.6702C35.4573 47.3592 38.5683 47.898 39.7846 49.3977C40.7537 48.5435 39.7313 47.1651 40.1092 45.942C40.4387 44.8548 40.7925 42.8746 41.5242 42.001C43.5158 41.0303 45.0277 39.8801 45.8853 37.8222C46.2443 36.7928 46.6834 35.7931 47.1985 34.8325C47.78 33.9152 48.7346 33.1338 49.8201 33.1289C49.4906 29.7509 42.7889 30.5129 39.2612 31.5661Z" fill="#0B2952"/>
<path d="M40.4285 42.114C40.052 41.8413 39.7408 41.4882 39.5175 41.0802C39.343 40.7987 39.2364 40.4978 38.873 40.4492C38.6278 40.4513 38.3878 40.5202 38.1786 40.6484C37.9695 40.7767 37.7991 40.9595 37.6858 41.1772C37.4695 41.6674 37.3494 42.1947 37.332 42.7303C37.332 43.5457 37.7439 44.2155 37.9814 44.9872C38.0524 45.3656 38.2508 45.7082 38.5435 45.9579C38.9602 46.3122 40.4042 46.0404 40.7822 45.6375L40.4285 42.114Z" fill="#FF998B"/>
<path d="M48.0997 46.3995C47.9099 46.3961 47.7205 46.3798 47.5328 46.351C47.5087 46.3486 47.4854 46.3414 47.4642 46.3298C47.443 46.3181 47.4243 46.3023 47.4094 46.2832C47.3945 46.2642 47.3835 46.2423 47.3772 46.2189C47.371 46.1956 47.3695 46.1711 47.3729 46.1472C47.3752 46.1224 47.3826 46.0984 47.3945 46.0766C47.4063 46.0548 47.4225 46.0356 47.4419 46.0202C47.4614 46.0048 47.4838 45.9935 47.5077 45.9869C47.5316 45.9804 47.5566 45.9788 47.5812 45.9821C47.8697 46.033 48.1649 46.033 48.4535 45.9821C48.5753 45.9585 48.6889 45.9035 48.7832 45.8227C48.8774 45.7419 48.9492 45.638 48.9913 45.5211C49.0136 45.2804 48.9629 45.0385 48.846 44.827L48.2499 43.4147C48.0213 42.9422 47.8708 42.4357 47.8041 41.915C47.7726 41.6333 47.8109 41.3481 47.9157 41.0848C48.0206 40.8215 48.1886 40.5882 48.405 40.4055C48.445 40.3839 48.4914 40.3774 48.5358 40.3873C48.5801 40.3972 48.6195 40.4228 48.6466 40.4593C48.6736 40.4959 48.6867 40.541 48.6832 40.5864C48.6798 40.6318 48.6602 40.6744 48.6279 40.7065C48.464 40.8536 48.3376 41.0378 48.2592 41.2438C48.1808 41.4498 48.1527 41.6716 48.1772 41.8907C48.2402 42.3698 48.381 42.8354 48.594 43.2691L49.19 44.6814C49.3453 44.9656 49.4016 45.2935 49.3499 45.6133C49.293 45.7969 49.1878 45.9617 49.0455 46.0907C48.9031 46.2196 48.7288 46.3078 48.5407 46.3462C48.3962 46.3808 48.2483 46.3987 48.0997 46.3995Z" fill="#0B2952"/>
<path d="M48.6284 47.2832C48.6459 47.4204 48.6242 47.5598 48.5659 47.6852C48.5075 47.8106 48.415 47.9169 48.2989 47.9918C48.0655 48.1396 47.7874 48.1998 47.5139 48.1617C47.2938 48.136 47.0812 48.066 46.8888 47.9559C46.6965 47.8458 46.5283 47.6979 46.3945 47.521C47.147 47.5587 47.9007 47.4784 48.6284 47.2832Z" fill="white"/>
<path d="M44.4309 41.4431C44.3597 41.5949 44.3233 41.7607 44.3243 41.9285C44.3226 42.0098 44.3459 42.0897 44.391 42.1574C44.436 42.2251 44.5007 42.2773 44.5763 42.307C44.6471 42.3236 44.7212 42.3196 44.7898 42.2956C44.8585 42.2715 44.9189 42.2283 44.9639 42.1711C45.0549 42.0585 45.121 41.9278 45.1578 41.7877C45.2166 41.6331 45.2365 41.4665 45.2159 41.3024C45.2038 41.2226 45.1668 41.1486 45.1102 41.0911C45.0537 41.0336 44.9804 40.9954 44.9009 40.982C44.649 40.9578 44.5036 41.2199 44.4309 41.4431Z" fill="#0B2952"/>
<path d="M48.9357 41.1422C48.8654 41.2946 48.8275 41.4598 48.8242 41.6276C48.8249 41.709 48.8497 41.7884 48.8954 41.8558C48.9411 41.9232 49.0057 41.9755 49.081 42.0061C49.1519 42.0227 49.2259 42.0187 49.2946 41.9947C49.3633 41.9706 49.4236 41.9274 49.4687 41.8702C49.5597 41.7576 49.6257 41.6269 49.6625 41.4868C49.7213 41.3323 49.7413 41.1656 49.7207 41.0015C49.709 40.9207 49.6715 40.8458 49.6139 40.7881C49.5562 40.7304 49.4815 40.6929 49.4009 40.6812C49.1634 40.6569 49.0229 40.9384 48.9357 41.1422Z" fill="#0B2952"/>
<path d="M49.9991 39.852C49.9738 39.8593 49.9469 39.8593 49.9216 39.852C49.7089 39.7497 49.4817 39.6809 49.248 39.6482C49.1123 39.6482 48.9621 39.5948 48.7392 39.5365C48.7155 39.5303 48.6934 39.5195 48.6739 39.5046C48.6545 39.4898 48.6382 39.4712 48.626 39.4499C48.6139 39.4287 48.606 39.4053 48.603 39.381C48.6 39.3567 48.6018 39.332 48.6084 39.3084C48.614 39.2843 48.6244 39.2615 48.6391 39.2415C48.6537 39.2215 48.6722 39.2047 48.6934 39.192C48.7147 39.1793 48.7383 39.1711 48.7628 39.1677C48.7873 39.1644 48.8122 39.166 48.8361 39.1725C49.0445 39.2308 49.185 39.255 49.3207 39.2793C49.5858 39.3196 49.8436 39.3981 50.0863 39.5123C50.1308 39.5334 50.1654 39.571 50.1826 39.6173C50.1998 39.6635 50.1983 39.7146 50.1784 39.7598C50.1598 39.7901 50.1333 39.8148 50.1016 39.8311C50.07 39.8473 50.0345 39.8546 49.9991 39.852Z" fill="#0B2952"/>
<path d="M46.3694 94.3259C46.7207 94.5737 47.1201 94.745 47.5416 94.8286C47.9631 94.9122 48.3974 94.9063 48.8165 94.8113C49.6694 94.6802 50.4786 94.3696 51.3266 94.2288C52.2151 94.038 53.1411 94.1331 53.9724 94.5006C54.0481 94.5647 54.1048 94.6484 54.1365 94.7425C54.1681 94.8366 54.1733 94.9376 54.1517 95.0345C53.8944 95.2109 53.6117 95.3467 53.3134 95.4373C52.8288 95.5975 52.4702 95.3403 51.9905 95.5004C51.8256 95.593 51.7008 95.7433 51.6399 95.9225C51.5791 96.1017 51.5866 96.2971 51.661 96.4711C51.7324 96.5954 51.8458 96.6901 51.9808 96.7381C52.4664 96.9708 52.9871 97.1216 53.5217 97.1846C53.9239 97.2283 54.7913 97.0924 55.0675 97.3884C55.3437 97.6845 55.242 98.4902 55.1644 98.9367C55.0142 99.8491 55.0094 100.485 54.36 101.135C53.4878 102.009 51.564 102.242 50.372 101.931C48.2059 101.373 46.3307 99.9899 44.7461 98.4319C45.2888 97.0681 45.8267 95.6946 46.3694 94.3259Z" fill="#FF998B"/>
<path d="M44.27 99.7427C38.1402 95.9619 31.6711 93.142 26.7187 88.0071C25.8413 87.1733 25.0802 86.2248 24.4558 85.1873C23.9131 84.168 23.8501 82.7605 23.7435 81.6151C23.4818 78.8147 24.0051 76.2084 24.228 73.4565C24.4461 70.5784 24.6399 67.6857 25.3377 64.8756C25.924 62.5217 26.5443 59.828 28.2888 58.0419C29.5438 56.7606 30.6826 57.0276 31.8552 58.3865C33.246 59.9979 33.6385 62.2256 33.7935 64.3466C34.1704 68.7203 33.8911 73.126 32.9649 77.4169C32.679 78.7273 32.3398 80.1008 32.7275 81.3822C33.0764 82.5179 33.9486 83.4109 34.8111 84.2263C38.6529 87.8885 42.907 91.0906 47.4876 93.7681C46.1162 95.5008 45.6462 98.0295 44.27 99.7427Z" fill="#35C0ED"/>
<path d="M32.4237 80.8204H32.38C32.3558 80.8147 32.333 80.8043 32.3128 80.7897C32.2927 80.7752 32.2756 80.7568 32.2625 80.7356C32.2495 80.7144 32.2407 80.6908 32.2368 80.6662C32.2328 80.6416 32.2338 80.6165 32.2395 80.5923C33.4316 75.6078 34.4153 70.2011 33.5285 64.4303C33.5244 64.4061 33.5251 64.3812 33.5307 64.3573C33.5363 64.3333 33.5466 64.3107 33.5611 64.2908C33.5755 64.2709 33.5938 64.2541 33.6148 64.2414C33.6359 64.2287 33.6592 64.2203 33.6835 64.2168C33.7323 64.2097 33.7818 64.222 33.8217 64.2511C33.8615 64.2801 33.8884 64.3235 33.8968 64.3721C34.7932 70.1962 33.8047 75.6612 32.6029 80.6797C32.5932 80.7199 32.5702 80.7556 32.5376 80.7811C32.5051 80.8067 32.465 80.8205 32.4237 80.8204Z" fill="#0B2952"/>
<path d="M47.3823 93.9522C47.3455 93.9529 47.3096 93.9409 47.2806 93.9182C46.4084 93.3261 45.5119 92.7291 44.6057 92.1273C40.3415 89.2977 35.927 86.376 32.976 82.4689C32.9546 82.4294 32.9479 82.3835 32.9572 82.3395C32.9665 82.2955 32.9912 82.2563 33.0268 82.2288C33.0623 82.2013 33.1065 82.1875 33.1514 82.1897C33.1962 82.1919 33.2388 82.21 33.2716 82.2408C36.179 86.0993 40.5886 89.0065 44.8238 91.8167C45.7348 92.4185 46.6313 93.0155 47.5035 93.6125C47.5376 93.6343 47.5636 93.6667 47.5775 93.7048C47.5913 93.7429 47.5922 93.7845 47.5801 93.8232C47.568 93.8619 47.5434 93.8955 47.5103 93.9188C47.4772 93.9421 47.4373 93.9539 47.3969 93.9522H47.3823Z" fill="#0B2952"/>
<path d="M44.2385 99.8698C44.2007 99.8688 44.1641 99.8564 44.1334 99.8343C44.1027 99.8122 44.0793 99.7814 44.0663 99.7459C44.0533 99.7104 44.0511 99.6717 44.0603 99.635C44.0694 99.5982 44.0893 99.5651 44.1174 99.5398C44.9363 98.836 45.3434 97.7925 45.7213 96.6957L45.7601 96.584C46.0477 95.4937 46.5704 94.4799 47.2913 93.6137C47.3275 93.5867 47.3721 93.5735 47.4171 93.5766C47.4621 93.5797 47.5045 93.5987 47.5367 93.6304C47.5689 93.662 47.5887 93.7042 47.5926 93.7492C47.5965 93.7942 47.5842 93.8391 47.5579 93.8758C46.8262 94.6329 46.4627 95.691 46.1041 96.7102L46.0702 96.817C45.6874 97.9187 45.2416 99.0593 44.3548 99.8213C44.3237 99.8518 44.2821 99.8692 44.2385 99.8698Z" fill="#0B2952"/>
<path d="M42.0466 98.6504C42.0179 98.6573 41.9881 98.6573 41.9594 98.6504C41.9375 98.6392 41.9181 98.6237 41.9024 98.6048C41.8866 98.586 41.8747 98.5641 41.8675 98.5406C41.8603 98.5171 41.8578 98.4924 41.8603 98.4679C41.8628 98.4434 41.8701 98.4197 41.8819 98.3981C42.7369 96.7665 43.4596 95.0688 44.0431 93.3214C44.0596 93.2747 44.0937 93.2364 44.1381 93.2146C44.1824 93.1928 44.2336 93.1893 44.2805 93.2049C44.304 93.2125 44.3256 93.2248 44.3443 93.241C44.3629 93.2572 44.3781 93.2769 44.3889 93.2991C44.3997 93.3213 44.406 93.3454 44.4074 93.3701C44.4087 93.3948 44.4051 93.4195 44.3968 93.4427C43.8073 95.2073 43.0765 96.9213 42.2114 98.5679C42.1932 98.5946 42.1685 98.6162 42.1397 98.6307C42.1109 98.6451 42.0788 98.6519 42.0466 98.6504Z" fill="#0B2952"/>
<path d="M101.41 134.984C108.034 131.414 115.321 129.247 122.816 128.617C130.312 127.986 137.857 128.906 144.983 131.32C144.75 150.33 145.801 169.334 148.128 188.202C134.424 187.173 122.208 190.144 109.507 195.424C109.023 187.795 104.715 179.728 102.723 172.341C99.5543 160.552 97.8777 148.424 96.1914 136.334L101.41 134.984Z" fill="#86D9F4"/>
<path d="M109.517 195.404C107.346 177.336 105.172 159.277 102.995 141.225C102.849 140.026 102.69 138.798 102.026 137.774C100.906 136.095 98.7112 135.556 96.6954 135.348C89.2253 134.522 81.6901 136.159 75.2336 140.012C75.8409 141.092 76.4256 142.184 76.9877 143.288L74.875 145.714L78.6111 154.63L81.7559 154.252C87.1202 168.788 89.5673 184.489 91.932 199.903C97.3189 196.936 103.37 195.388 109.517 195.404Z" fill="#86D9F4"/>
<path d="M110.494 193.304C108.352 175.516 105.163 159.014 102.997 141.226C102.852 140.028 102.692 138.8 102.028 137.776C100.909 136.096 98.7136 135.558 96.6977 135.349C89.9516 134.608 83.1369 135.871 77.1016 138.979C86.2261 156.845 91.6727 177.564 93.1458 197.803C98.3792 195.051 105.003 192.853 110.494 193.304Z" fill="#0B2952"/>
<path d="M141.437 130.242C127.977 126.686 113.671 128.38 101.411 134.983L96.207 136.313C97.8837 148.403 99.57 160.532 102.739 172.321C104.445 178.664 109.252 186.818 110.139 193.302C112.925 192.114 115.816 191.188 118.774 190.536C127.733 188.667 136.155 186.323 144.941 186.445C140.591 168.046 139.407 149.039 141.437 130.242Z" fill="#0B2952"/>
<path d="M110.334 193.094C108.395 183.261 106.457 156.694 102.14 139.109C101.873 138.008 100.763 136.358 101.224 135.324C101.684 134.29 102.711 133.712 103.695 133.203C115.108 127.338 127.899 124.697 140.697 125.564C139.243 145.259 137.848 165.323 142.427 184.533C131.35 185.212 120.51 188.731 110.334 193.094Z" fill="white"/>
<path d="M136.119 126.703C132.012 129.556 128.758 133.475 126.707 138.04C124.657 142.605 123.887 147.643 124.479 152.613C125.072 157.584 127.006 162.299 130.072 166.251C133.139 170.204 137.223 173.245 141.885 175.048C137.876 159.252 135.937 143.001 136.119 126.703Z" fill="#0B2952"/>
<path d="M122.449 152.2C122.982 149.521 122.449 146.861 121.383 145.245C116.692 140.547 114.008 133.844 116.052 128.258C111.794 129.506 107.663 131.155 103.715 133.184C102.746 133.694 101.695 134.291 101.244 135.305C100.793 136.319 101.893 137.989 102.16 139.091C106.468 156.675 108.459 183.257 110.354 193.076C111.811 192.451 113.284 191.846 114.773 191.26C113.866 186.489 113.398 181.644 113.378 176.787C113.877 167.711 120.288 160.756 122.449 152.2Z" fill="#EFEAE9"/>
<path d="M100.844 136.164C92.9944 132.991 84.2253 132.974 76.3633 136.115C80.5015 140.1 82.5998 145.71 84.3927 151.161C89.1082 165.519 92.6143 180.247 94.874 195.191C99.6816 192.893 105.087 192.16 110.332 193.095L100.844 136.164Z" fill="white"/>
<path d="M98.2506 141.74H98.2167C93.3225 140.609 91.2922 140.769 86.1508 141.478C86.119 141.482 86.0867 141.48 86.0557 141.471C86.0247 141.463 85.9957 141.448 85.9703 141.429C85.9448 141.409 85.9235 141.385 85.9075 141.357C85.8915 141.329 85.8812 141.298 85.877 141.266C85.8729 141.235 85.8751 141.202 85.8834 141.171C85.8918 141.14 85.9062 141.111 85.9257 141.086C85.9453 141.06 85.9697 141.039 85.9975 141.023C86.0253 141.007 86.056 140.996 86.0878 140.992C91.0741 140.332 93.2934 140.109 98.3282 141.264C98.3924 141.272 98.451 141.305 98.491 141.356C98.531 141.407 98.5491 141.471 98.5414 141.536C98.5337 141.6 98.5007 141.659 98.4499 141.699C98.399 141.739 98.3343 141.757 98.27 141.749L98.2506 141.74Z" fill="#0B2952"/>
<path d="M98.8367 145.24H98.7833C93.8843 144.119 91.8879 144.391 87.0664 145.051C87.0028 145.059 86.9385 145.042 86.8876 145.003C86.8367 144.964 86.8034 144.906 86.795 144.842C86.7867 144.779 86.804 144.714 86.8431 144.663C86.8821 144.612 86.9398 144.579 87.0034 144.571C91.7425 143.92 93.9085 143.624 98.89 144.769C98.9542 144.777 99.013 144.809 99.0535 144.859C99.0939 144.91 99.1127 144.974 99.1056 145.039C99.0985 145.103 99.0662 145.162 99.0158 145.203C98.9653 145.243 98.9009 145.262 98.8367 145.255V145.24Z" fill="#0B2952"/>
<path d="M99.424 148.739H99.3707C94.7187 147.676 92.8241 147.943 88.2255 148.588L87.9929 148.622C87.9293 148.631 87.865 148.613 87.8141 148.574C87.7632 148.535 87.7299 148.477 87.7215 148.414C87.7167 148.382 87.7182 148.351 87.7259 148.32C87.7336 148.289 87.7473 148.26 87.7662 148.235C87.7852 148.21 87.809 148.188 87.8363 148.172C87.8635 148.156 87.8937 148.146 87.925 148.142L88.1576 148.108C92.669 147.472 94.7284 147.181 99.4676 148.268C99.4988 148.275 99.5284 148.288 99.5546 148.306C99.5808 148.325 99.6031 148.348 99.6202 148.375C99.6373 148.402 99.6489 148.433 99.6543 148.464C99.6597 148.496 99.6589 148.528 99.6517 148.559C99.6375 148.609 99.6078 148.654 99.5669 148.686C99.526 148.718 99.476 148.737 99.424 148.739Z" fill="#0B2952"/>
<path d="M100.011 152.234H99.9574C95.5381 151.225 93.658 151.496 89.5391 152.098L88.9431 152.185C88.8796 152.194 88.8154 152.177 88.7639 152.139C88.7124 152.101 88.6776 152.045 88.6668 151.982C88.662 151.95 88.6635 151.918 88.6711 151.887C88.6787 151.856 88.6924 151.827 88.7113 151.801C88.7302 151.775 88.754 151.754 88.7813 151.737C88.8086 151.721 88.8389 151.71 88.8704 151.705L89.4712 151.618C93.6483 151.011 95.5575 150.729 100.064 151.763C100.095 151.77 100.125 151.782 100.151 151.8C100.177 151.818 100.199 151.841 100.216 151.868C100.234 151.894 100.245 151.924 100.251 151.955C100.256 151.987 100.255 152.019 100.248 152.05C100.235 152.103 100.205 152.15 100.161 152.183C100.118 152.217 100.065 152.235 100.011 152.234Z" fill="#0B2952"/>
<path d="M89.8419 155.753C89.8101 155.755 89.7781 155.751 89.7479 155.741C89.7176 155.731 89.6897 155.715 89.6656 155.694C89.6415 155.673 89.6218 155.647 89.6076 155.619C89.5933 155.59 89.5849 155.559 89.5826 155.527C89.5804 155.495 89.5845 155.463 89.5946 155.433C89.6047 155.403 89.6207 155.375 89.6416 155.35C89.6625 155.326 89.688 155.307 89.7165 155.292C89.7451 155.278 89.7761 155.27 89.8079 155.267L90.7141 155.131C94.4792 154.559 96.3642 154.272 100.653 155.248C100.684 155.255 100.713 155.268 100.739 155.286C100.765 155.305 100.787 155.328 100.804 155.355C100.821 155.383 100.832 155.413 100.837 155.444C100.841 155.476 100.84 155.508 100.832 155.539C100.818 155.601 100.78 155.656 100.727 155.69C100.673 155.725 100.608 155.737 100.546 155.724C96.3449 154.753 94.4889 155.049 90.7868 155.607L89.8806 155.748L89.8419 155.753Z" fill="#0B2952"/>
<path d="M90.7755 159.324C90.7436 159.327 90.7117 159.323 90.6815 159.312C90.6512 159.302 90.6233 159.286 90.5992 159.265C90.5751 159.244 90.5554 159.219 90.5412 159.19C90.5269 159.162 90.5184 159.131 90.5162 159.099C90.514 159.067 90.5181 159.035 90.5282 159.005C90.5383 158.974 90.5543 158.946 90.5752 158.922C90.5961 158.898 90.6216 158.878 90.6501 158.864C90.6787 158.85 90.7097 158.841 90.7416 158.839L91.8997 158.659C95.3983 158.101 97.1525 157.825 101.237 158.752C101.3 158.767 101.353 158.806 101.387 158.86C101.421 158.915 101.431 158.98 101.417 159.043C101.411 159.074 101.398 159.104 101.38 159.131C101.361 159.157 101.338 159.179 101.311 159.196C101.283 159.213 101.253 159.224 101.221 159.229C101.189 159.233 101.157 159.231 101.126 159.222C97.1379 158.32 95.4128 158.591 91.9724 159.14L90.8142 159.319L90.7755 159.324Z" fill="#0B2952"/>
<path d="M91.7117 162.892C91.6474 162.897 91.5837 162.876 91.5347 162.834C91.4856 162.793 91.4551 162.733 91.45 162.668C91.4449 162.604 91.4655 162.54 91.5073 162.491C91.5491 162.442 91.6086 162.412 91.6729 162.406L93.0394 162.183C96.194 161.654 97.9336 161.363 101.82 162.246C101.851 162.253 101.88 162.265 101.907 162.283C101.933 162.301 101.955 162.324 101.972 162.35C101.989 162.377 102.001 162.407 102.007 162.438C102.012 162.47 102.011 162.502 102.004 162.533C101.997 162.564 101.984 162.593 101.966 162.62C101.947 162.646 101.924 162.668 101.897 162.685C101.87 162.703 101.84 162.714 101.808 162.72C101.777 162.725 101.744 162.724 101.713 162.717C97.9191 161.858 96.2134 162.144 93.1169 162.659L91.7504 162.887L91.7117 162.892Z" fill="#0B2952"/>
<path d="M92.6453 166.464C92.581 166.469 92.5173 166.449 92.4683 166.407C92.4192 166.365 92.3887 166.305 92.3836 166.241C92.3784 166.177 92.399 166.113 92.4408 166.064C92.4826 166.015 92.5422 165.984 92.6065 165.979C93.1589 165.892 93.6629 165.799 94.1377 165.717C96.9822 165.231 98.6976 164.911 102.405 165.746C102.469 165.76 102.525 165.799 102.56 165.855C102.596 165.91 102.608 165.978 102.594 166.042C102.579 166.106 102.54 166.162 102.485 166.198C102.429 166.233 102.362 166.245 102.298 166.231C98.6879 165.416 97.0985 165.697 94.2201 166.231L92.684 166.493L92.6453 166.464Z" fill="#0B2952"/>
<path d="M93.5815 170.031C93.5497 170.034 93.5176 170.031 93.4871 170.021C93.4566 170.012 93.4283 169.996 93.4038 169.976C93.3792 169.955 93.359 169.93 93.3442 169.902C93.3294 169.874 93.3202 169.843 93.3174 169.811C93.3145 169.779 93.318 169.747 93.3275 169.716C93.337 169.686 93.3525 169.657 93.3729 169.633C93.3934 169.608 93.4185 169.588 93.4468 169.573C93.4751 169.558 93.506 169.549 93.5379 169.546C94.1436 169.444 94.6912 169.342 95.1951 169.245C97.8506 168.76 99.4545 168.444 102.992 169.245C103.023 169.252 103.053 169.265 103.079 169.284C103.105 169.302 103.127 169.325 103.145 169.352C103.162 169.379 103.173 169.41 103.179 169.441C103.184 169.473 103.183 169.505 103.176 169.536C103.161 169.599 103.122 169.653 103.068 169.688C103.014 169.722 102.948 169.734 102.885 169.721C99.4448 168.944 97.8797 169.236 95.2872 169.721C94.8026 169.818 94.2308 169.92 93.6202 170.027L93.5815 170.031Z" fill="#0B2952"/>
<path d="M94.5151 173.603C94.4833 173.605 94.4512 173.602 94.4207 173.592C94.3902 173.583 94.3619 173.567 94.3374 173.547C94.3128 173.526 94.2926 173.501 94.2778 173.473C94.2629 173.445 94.2538 173.414 94.251 173.382C94.2481 173.35 94.2515 173.318 94.2611 173.287C94.2706 173.257 94.286 173.228 94.3065 173.204C94.327 173.179 94.3521 173.159 94.3804 173.144C94.4087 173.129 94.4396 173.12 94.4715 173.117C95.1159 173.001 95.6877 172.889 96.2159 172.782C98.6146 172.297 100.199 171.982 103.577 172.739C103.608 172.745 103.637 172.757 103.663 172.775C103.689 172.793 103.712 172.816 103.729 172.843C103.746 172.87 103.758 172.899 103.763 172.931C103.769 172.962 103.768 172.994 103.761 173.025C103.754 173.056 103.741 173.086 103.723 173.112C103.704 173.138 103.681 173.161 103.654 173.178C103.627 173.195 103.597 173.207 103.565 173.212C103.533 173.217 103.501 173.217 103.47 173.209C100.189 172.477 98.7309 172.768 96.3128 173.258C95.7798 173.365 95.2032 173.476 94.5538 173.593L94.5151 173.603Z" fill="#0B2952"/>
<path d="M95.45 177.175C95.3928 177.175 95.3375 177.155 95.2933 177.119C95.2491 177.083 95.2189 177.032 95.2077 176.976C95.2014 176.944 95.2016 176.911 95.2083 176.88C95.2149 176.848 95.2279 176.818 95.2464 176.791C95.265 176.764 95.2887 176.741 95.3162 176.724C95.3436 176.707 95.3743 176.695 95.4064 176.69C96.0751 176.568 96.6663 176.442 97.209 176.321C99.4526 175.836 100.931 175.52 104.158 176.238C104.22 176.253 104.274 176.292 104.309 176.347C104.343 176.401 104.355 176.467 104.342 176.53C104.336 176.561 104.323 176.59 104.305 176.616C104.287 176.643 104.264 176.665 104.238 176.682C104.211 176.699 104.181 176.711 104.15 176.717C104.119 176.722 104.087 176.721 104.056 176.714C100.931 176.02 99.4913 176.331 97.3107 176.797C96.7632 176.918 96.172 177.044 95.4936 177.17L95.45 177.175Z" fill="#0B2952"/>
<path d="M96.3828 180.742C96.3272 180.741 96.2735 180.721 96.2304 180.686C96.1873 180.651 96.1573 180.602 96.1453 180.547C96.139 180.516 96.139 180.483 96.1454 180.452C96.1518 180.42 96.1643 180.39 96.1824 180.364C96.2004 180.337 96.2236 180.314 96.2505 180.297C96.2774 180.279 96.3076 180.267 96.3392 180.261C97.0321 180.13 97.6427 179.984 98.1806 179.863C100.201 179.378 101.66 179.053 104.747 179.737C104.778 179.744 104.807 179.757 104.834 179.775C104.86 179.794 104.882 179.817 104.899 179.844C104.916 179.871 104.928 179.901 104.933 179.933C104.939 179.964 104.938 179.997 104.931 180.028C104.924 180.059 104.912 180.089 104.894 180.115C104.876 180.141 104.853 180.163 104.827 180.181C104.8 180.198 104.77 180.21 104.739 180.215C104.708 180.22 104.676 180.22 104.645 180.213C101.665 179.552 100.322 179.863 98.2872 180.334C97.7444 180.46 97.129 180.601 96.4312 180.737L96.3828 180.742Z" fill="#0B2952"/>
<path d="M97.3163 184.319C97.26 184.318 97.2058 184.298 97.1626 184.262C97.1195 184.225 97.0899 184.175 97.0789 184.12C97.0726 184.089 97.0727 184.057 97.0791 184.025C97.0855 183.994 97.0981 183.965 97.1162 183.938C97.1343 183.912 97.1575 183.89 97.1843 183.873C97.2112 183.855 97.2413 183.844 97.2727 183.839C97.9705 183.698 98.5811 183.543 99.1189 183.407C101.014 182.921 102.375 182.586 105.331 183.242C105.362 183.248 105.392 183.261 105.418 183.278C105.444 183.296 105.466 183.319 105.484 183.346C105.501 183.373 105.512 183.403 105.518 183.434C105.523 183.465 105.522 183.497 105.515 183.528C105.501 183.592 105.463 183.647 105.409 183.682C105.354 183.718 105.288 183.73 105.225 183.717C102.385 183.086 101.135 183.402 99.2401 183.878C98.6925 184.013 98.0771 184.169 97.3648 184.314L97.3163 184.319Z" fill="#0B2952"/>
<path d="M98.2542 187.882C98.199 187.882 98.1454 187.863 98.1022 187.829C98.059 187.794 98.0288 187.746 98.0167 187.692C98.0037 187.629 98.0163 187.562 98.0516 187.508C98.087 187.453 98.1423 187.415 98.2057 187.401C98.9035 187.255 99.485 187.095 100.042 186.945C101.938 186.293 103.983 186.221 105.92 186.736C105.951 186.742 105.981 186.755 106.007 186.773C106.033 186.791 106.055 186.814 106.072 186.84C106.09 186.867 106.101 186.897 106.107 186.928C106.112 186.96 106.111 186.992 106.104 187.023C106.097 187.054 106.084 187.083 106.066 187.11C106.048 187.136 106.024 187.158 105.997 187.175C105.97 187.193 105.94 187.204 105.909 187.21C105.877 187.215 105.845 187.214 105.814 187.207C103.953 186.715 101.989 186.786 100.168 187.411C99.6303 187.561 99.0198 187.726 98.3074 187.896L98.2542 187.882Z" fill="#0B2952"/>
<path d="M110.724 143.148C110.428 143.15 110.141 143.043 109.918 142.848C109.695 142.654 109.551 142.384 109.512 142.09C109.399 141.302 109.013 140.579 108.422 140.047C107.414 139.135 105.999 138.771 104.88 138.557C104.574 138.494 104.264 138.441 103.954 138.392C102.677 138.243 101.433 137.886 100.271 137.334C99.8143 137.093 99.4371 136.723 99.1858 136.271C99.0417 136.029 98.9499 135.759 98.9165 135.479C98.8831 135.199 98.9089 134.915 98.992 134.645C99.3215 133.563 100.446 132.903 100.887 132.67C102.089 132.066 103.418 131.758 104.763 131.772C107.297 131.828 109.748 132.686 111.765 134.223C113.83 135.776 114.852 137.747 114.498 139.494C114.226 140.614 113.543 141.592 112.584 142.231C112.169 142.527 111.73 142.786 111.271 143.008C111.102 143.096 110.914 143.144 110.724 143.148ZM104.744 132.277C103.473 132.264 102.218 132.553 101.081 133.121C100.331 133.449 99.7384 134.057 99.4281 134.815C99.3665 135.022 99.3484 135.239 99.3751 135.453C99.4018 135.667 99.4727 135.873 99.5832 136.058C99.7999 136.425 100.118 136.721 100.499 136.912C101.616 137.436 102.811 137.776 104.036 137.916L104.972 138.081C106.154 138.31 107.651 138.698 108.746 139.688C109.421 140.302 109.862 141.133 109.992 142.037C110.017 142.213 110.104 142.374 110.239 142.49C110.374 142.607 110.546 142.67 110.724 142.668C110.833 142.667 110.94 142.643 111.039 142.595C111.474 142.387 111.891 142.142 112.284 141.862C113.138 141.296 113.752 140.43 114.004 139.436C114.489 137.125 112.172 135.189 111.455 134.65C109.526 133.167 107.176 132.336 104.744 132.277Z" fill="#0B2952"/>
<path d="M109.19 139.182C106.915 139.448 104.804 140.504 103.224 142.167C101.645 143.829 100.697 145.993 100.545 148.283C100.393 150.573 101.047 152.844 102.392 154.701C103.738 156.558 105.69 157.885 107.911 158.45V184.843C107.911 185.191 108.035 185.526 108.26 185.79L109.36 187.081C109.461 187.201 109.588 187.297 109.73 187.363C109.872 187.429 110.027 187.463 110.184 187.463C110.34 187.463 110.495 187.429 110.638 187.363C110.78 187.297 110.906 187.201 111.007 187.081L112.103 185.79C112.328 185.526 112.451 185.191 112.451 184.843V182.077H111.206V180.068H112.451V178.612H111.206V176.607H112.451V172.239H111.206V170.23H112.451V168.405H111.206V166.362H112.451V158.499C114.852 157.903 116.939 156.421 118.295 154.349C119.651 152.277 120.175 149.769 119.763 147.326C119.351 144.884 118.032 142.687 116.072 141.177C114.111 139.667 111.653 138.954 109.19 139.182ZM113.551 146.021H107.073C106.861 146.033 106.649 146.001 106.449 145.928C106.25 145.855 106.068 145.742 105.914 145.596C105.759 145.45 105.637 145.274 105.553 145.079C105.469 144.883 105.425 144.673 105.425 144.46C105.425 144.248 105.469 144.038 105.553 143.842C105.637 143.647 105.759 143.471 105.914 143.325C106.068 143.179 106.25 143.066 106.449 142.993C106.649 142.92 106.861 142.888 107.073 142.9H113.571C113.969 142.922 114.344 143.096 114.618 143.387C114.892 143.677 115.044 144.061 115.044 144.46C115.044 144.86 114.892 145.244 114.618 145.534C114.344 145.824 113.969 145.999 113.571 146.021H113.551Z" fill="#0B2952"/>
<path d="M106.266 142.473C105.981 142.505 105.71 142.612 105.48 142.784C105.251 142.956 105.071 143.185 104.959 143.45C104.848 143.714 104.808 144.004 104.846 144.288C104.883 144.573 104.995 144.842 105.171 145.069C105.023 144.585 105.07 144.063 105.301 143.613C105.533 143.165 105.862 142.775 106.266 142.473Z" fill="#F6E1CA"/>
<path d="M119.161 148.846C119.048 150.771 118.367 152.618 117.204 154.155C116.041 155.691 114.449 156.847 112.629 157.475C114.799 157.056 116.719 155.804 117.98 153.985C119.24 152.167 119.741 149.927 119.374 147.744L119.161 148.846Z" fill="#F6E1CA"/>
<path d="M111.93 159.066H111.566V165.9H111.93V159.066Z" fill="#EFEAE9"/>
<path d="M111.93 172.574H111.566V176.093H111.93V172.574Z" fill="#EFEAE9"/>
<path d="M111.93 182.484H111.566V184.911H111.93V182.484Z" fill="#EFEAE9"/>
<path d="M178.613 151.419C182.021 136.587 172.779 121.796 157.971 118.383C143.162 114.969 128.395 124.226 124.987 139.058C121.579 153.89 130.821 168.681 145.63 172.094C160.438 175.508 175.206 166.251 178.613 151.419Z" fill="#446B9F"/>
<path d="M151.521 133.066L151.468 133.11C149.78 134.395 147.719 135.09 145.599 135.09H140.754C138.613 135.091 136.56 135.943 135.045 137.459L134.27 138.235C132.759 139.751 131.91 141.805 131.91 143.948V147.957C131.911 149.634 132.575 151.243 133.756 152.431L138.437 157.139C139.169 157.871 139.58 158.865 139.581 159.901V159.959C139.581 160.472 139.682 160.98 139.878 161.454C140.074 161.928 140.361 162.359 140.723 162.722C141.086 163.085 141.516 163.372 141.989 163.569C142.462 163.765 142.97 163.866 143.482 163.866H147.673C148.708 163.866 149.699 163.454 150.431 162.721L153.488 159.658C154.466 158.678 155.792 158.126 157.176 158.124H157.219C157.905 158.125 158.584 157.99 159.218 157.728C159.851 157.466 160.427 157.081 160.912 156.596L163.994 153.509C164.478 153.024 164.862 152.448 165.124 151.814C165.386 151.18 165.52 150.501 165.52 149.815V145.345C165.52 144.632 165.661 143.926 165.933 143.267C166.206 142.609 166.606 142.01 167.11 141.506L167.139 141.477C167.642 140.973 168.042 140.375 168.315 139.716C168.588 139.057 168.728 138.351 168.728 137.638V136.512C168.728 135.073 168.157 133.693 167.141 132.675C166.125 131.658 164.747 131.086 163.311 131.086H157.37C155.257 131.09 153.203 131.785 151.521 133.066Z" fill="#EFEAE9"/>
<path d="M147.988 153.306C147.988 155.077 144.785 158.489 144.785 158.489C144.785 158.489 141.582 155.092 141.582 153.306C141.582 152.455 141.919 151.639 142.52 151.037C143.121 150.436 143.936 150.098 144.785 150.098C145.635 150.098 146.449 150.436 147.05 151.037C147.651 151.639 147.988 152.455 147.988 153.306Z" fill="#35C0ED"/>
<path d="M144.786 155.258C144.403 155.258 144.028 155.144 143.709 154.931C143.39 154.717 143.142 154.414 142.995 154.059C142.848 153.705 142.81 153.314 142.885 152.938C142.96 152.561 143.144 152.215 143.415 151.944C143.686 151.672 144.032 151.487 144.408 151.412C144.784 151.337 145.174 151.376 145.528 151.523C145.882 151.67 146.185 151.919 146.398 152.238C146.611 152.557 146.724 152.932 146.724 153.316C146.724 153.831 146.52 154.325 146.157 154.689C145.793 155.053 145.3 155.258 144.786 155.258ZM144.786 151.511C144.43 151.51 144.082 151.615 143.785 151.812C143.489 152.01 143.258 152.291 143.121 152.62C142.984 152.949 142.948 153.312 143.018 153.662C143.087 154.011 143.258 154.333 143.51 154.585C143.762 154.837 144.082 155.008 144.432 155.078C144.781 155.147 145.143 155.111 145.471 154.974C145.8 154.837 146.081 154.606 146.278 154.309C146.475 154.012 146.58 153.663 146.579 153.307C146.579 152.83 146.39 152.374 146.054 152.037C145.718 151.7 145.261 151.511 144.786 151.511Z" fill="#EFEAE9"/>
<path d="M144.083 134.446C144.083 136.218 140.885 139.625 140.885 139.625C140.885 139.625 137.682 136.227 137.682 134.446C137.665 134.015 137.736 133.584 137.889 133.181C138.042 132.777 138.275 132.409 138.574 132.097C138.873 131.786 139.232 131.539 139.628 131.37C140.025 131.2 140.452 131.113 140.883 131.113C141.314 131.113 141.741 131.2 142.137 131.37C142.534 131.539 142.892 131.786 143.191 132.097C143.49 132.409 143.723 132.777 143.876 133.181C144.03 133.584 144.1 134.015 144.083 134.446Z" fill="#35C0ED"/>
<path d="M140.884 136.396C140.5 136.396 140.126 136.283 139.807 136.069C139.488 135.856 139.24 135.553 139.093 135.198C138.946 134.843 138.908 134.453 138.983 134.076C139.057 133.7 139.242 133.354 139.513 133.082C139.784 132.811 140.129 132.626 140.505 132.551C140.881 132.476 141.271 132.515 141.625 132.661C141.98 132.808 142.282 133.057 142.495 133.376C142.708 133.696 142.822 134.071 142.822 134.455C142.822 134.97 142.618 135.464 142.254 135.828C141.891 136.192 141.398 136.396 140.884 136.396ZM140.884 132.645C140.528 132.644 140.18 132.749 139.884 132.946C139.587 133.143 139.356 133.424 139.219 133.753C139.082 134.082 139.046 134.444 139.115 134.794C139.184 135.143 139.355 135.465 139.606 135.717C139.857 135.969 140.177 136.141 140.526 136.211C140.875 136.281 141.237 136.246 141.566 136.109C141.894 135.973 142.175 135.742 142.373 135.446C142.571 135.15 142.677 134.802 142.677 134.445C142.677 133.969 142.488 133.511 142.152 133.174C141.816 132.836 141.36 132.646 140.884 132.645Z" fill="#EFEAE9"/>
<path d="M159.544 139.891C159.544 141.658 156.346 145.07 156.346 145.07C156.346 145.07 153.143 141.673 153.143 139.891C153.126 139.46 153.197 139.03 153.35 138.626C153.503 138.222 153.736 137.854 154.035 137.543C154.334 137.232 154.693 136.984 155.089 136.815C155.486 136.646 155.913 136.559 156.344 136.559C156.775 136.559 157.201 136.646 157.598 136.815C157.995 136.984 158.353 137.232 158.652 137.543C158.951 137.854 159.184 138.222 159.337 138.626C159.491 139.03 159.561 139.46 159.544 139.891Z" fill="#35C0ED"/>
<path d="M156.368 141.842C155.985 141.842 155.61 141.728 155.291 141.515C154.972 141.301 154.724 140.998 154.577 140.643C154.431 140.289 154.392 139.898 154.467 139.522C154.542 139.145 154.726 138.799 154.997 138.528C155.268 138.256 155.614 138.071 155.99 137.996C156.366 137.921 156.756 137.96 157.11 138.107C157.464 138.254 157.767 138.503 157.98 138.822C158.193 139.141 158.306 139.516 158.306 139.9C158.306 140.415 158.102 140.909 157.739 141.273C157.375 141.637 156.882 141.842 156.368 141.842ZM156.368 138.09C156.012 138.089 155.664 138.194 155.368 138.391C155.072 138.588 154.84 138.869 154.704 139.198C154.567 139.527 154.53 139.889 154.599 140.239C154.668 140.589 154.839 140.91 155.09 141.162C155.341 141.414 155.662 141.586 156.011 141.656C156.359 141.726 156.721 141.691 157.05 141.555C157.379 141.419 157.66 141.188 157.858 140.892C158.055 140.595 158.161 140.247 158.161 139.891C158.161 139.414 157.972 138.957 157.636 138.619C157.3 138.282 156.844 138.091 156.368 138.09Z" fill="#EFEAE9"/>
<path d="M161.215 85.9145L154.243 121.051C153.865 122.957 155.101 124.809 157.004 125.188L181.671 130.098C183.574 130.477 185.424 129.238 185.802 127.332L192.773 92.1962C193.152 90.2901 191.916 88.4378 190.013 88.059L165.345 83.1492C163.442 82.7704 161.593 84.0085 161.215 85.9145Z" fill="#0B2952"/>
<path d="M160.027 85.6802L153.056 120.816C152.678 122.722 153.914 124.575 155.817 124.953L180.484 129.863C182.387 130.242 184.236 129.004 184.614 127.098L191.586 91.9618C191.964 90.0557 190.728 88.2035 188.825 87.8247L164.158 82.9148C162.255 82.536 160.406 83.7741 160.027 85.6802Z" fill="#1F4E8D"/>
<path d="M161.105 97.9847L160.476 101.155C160.373 101.676 160.71 102.182 161.23 102.285L164.994 103.034C165.514 103.138 166.019 102.8 166.122 102.279L166.751 99.1086C166.855 98.588 166.517 98.0822 165.997 97.9787L162.233 97.2295C161.713 97.126 161.208 97.4642 161.105 97.9847Z" fill="#0B2952"/>
<path d="M167.937 99.348L167.308 102.518C167.205 103.039 167.542 103.545 168.062 103.648L171.826 104.398C172.346 104.501 172.851 104.163 172.954 103.642L173.583 100.472C173.687 99.9513 173.349 99.4455 172.829 99.342L169.065 98.5928C168.546 98.4893 168.04 98.8274 167.937 99.348Z" fill="#0B2952"/>
<path d="M174.765 100.7L174.136 103.87C174.033 104.391 174.371 104.896 174.89 105L178.654 105.749C179.174 105.853 179.679 105.514 179.783 104.994L180.412 101.823C180.515 101.303 180.177 100.797 179.658 100.694L175.893 99.9443C175.374 99.8409 174.869 100.179 174.765 100.7Z" fill="#0B2952"/>
<path d="M181.593 102.063L180.964 105.233C180.861 105.754 181.199 106.26 181.718 106.363L185.483 107.112C186.002 107.216 186.507 106.878 186.611 106.357L187.24 103.187C187.343 102.666 187.005 102.16 186.486 102.057L182.721 101.308C182.202 101.204 181.697 101.542 181.593 102.063Z" fill="#0B2952"/>
<path d="M159.737 103.834L159.124 107.002C159.023 107.522 159.362 108.025 159.882 108.126L163.643 108.856C164.162 108.957 164.665 108.617 164.765 108.097L165.378 104.929C165.479 104.409 165.14 103.906 164.621 103.805L160.859 103.075C160.34 102.974 159.838 103.314 159.737 103.834Z" fill="#0B2952"/>
<path d="M166.726 105.44L166.097 108.61C165.994 109.131 166.331 109.637 166.851 109.74L170.615 110.489C171.135 110.593 171.64 110.255 171.743 109.734L172.373 106.564C172.476 106.043 172.138 105.537 171.619 105.434L167.854 104.685C167.335 104.581 166.83 104.919 166.726 105.44Z" fill="#0B2952"/>
<path d="M173.554 106.801L172.925 109.972C172.822 110.492 173.16 110.998 173.679 111.101L177.444 111.851C177.963 111.954 178.468 111.616 178.572 111.095L179.201 107.925C179.304 107.404 178.966 106.899 178.447 106.795L174.682 106.046C174.163 105.942 173.658 106.281 173.554 106.801Z" fill="#0B2952"/>
<path d="M180.382 108.162L179.753 111.333C179.65 111.853 179.988 112.359 180.507 112.463L184.272 113.212C184.791 113.315 185.296 112.977 185.4 112.457L186.029 109.286C186.132 108.766 185.795 108.26 185.275 108.156L181.511 107.407C180.991 107.304 180.486 107.642 180.382 108.162Z" fill="#0B2952"/>
<path d="M158.687 110.178L158.058 113.348C157.955 113.869 158.292 114.375 158.812 114.478L162.576 115.228C163.096 115.331 163.601 114.993 163.704 114.472L164.333 111.302C164.437 110.781 164.099 110.276 163.579 110.172L159.815 109.423C159.296 109.319 158.79 109.658 158.687 110.178Z" fill="#0B2952"/>
<path d="M165.515 111.536L164.886 114.706C164.783 115.226 165.121 115.732 165.64 115.836L169.404 116.585C169.924 116.688 170.429 116.35 170.533 115.83L171.162 112.659C171.265 112.139 170.927 111.633 170.408 111.53L166.643 110.78C166.124 110.677 165.619 111.015 165.515 111.536Z" fill="#0B2952"/>
<path d="M172.343 112.897L171.714 116.067C171.611 116.588 171.949 117.094 172.468 117.197L176.233 117.946C176.752 118.05 177.257 117.712 177.361 117.191L177.99 114.021C178.093 113.5 177.755 112.994 177.236 112.891L173.471 112.142C172.952 112.038 172.447 112.376 172.343 112.897Z" fill="#0B2952"/>
<path d="M163.317 116.468L160.652 115.934L158.612 115.527C158.362 115.479 158.104 115.532 157.893 115.674C157.681 115.815 157.534 116.035 157.483 116.284L156.853 119.453C156.806 119.703 156.858 119.962 157 120.173C157.141 120.385 157.36 120.532 157.609 120.584L159.649 120.992L162.314 121.521L168.202 122.681C168.451 122.728 168.708 122.676 168.919 122.535C169.13 122.395 169.278 122.177 169.331 121.928L169.961 118.759C170.008 118.509 169.955 118.25 169.814 118.039C169.672 117.827 169.453 117.68 169.205 117.628L163.317 116.468Z" fill="#0B2952"/>
<path d="M171.132 118.998L170.503 122.169C170.4 122.689 170.738 123.195 171.257 123.299L175.022 124.048C175.541 124.151 176.046 123.813 176.15 123.293L176.779 120.122C176.882 119.602 176.544 119.096 176.025 118.992L172.261 118.243C171.741 118.14 171.236 118.478 171.132 118.998Z" fill="#0B2952"/>
<path d="M180.307 113.513C180.058 113.466 179.8 113.518 179.589 113.659C179.378 113.799 179.23 114.017 179.178 114.265L178.872 115.809L178.364 118.376L177.341 123.531C177.294 123.781 177.347 124.039 177.488 124.251C177.629 124.463 177.848 124.61 178.097 124.662L181.862 125.414C182.111 125.46 182.368 125.406 182.578 125.265C182.788 125.123 182.935 124.905 182.986 124.657L183.989 119.502L184.503 116.935L184.808 115.391C184.856 115.141 184.803 114.883 184.661 114.671C184.52 114.46 184.301 114.312 184.052 114.261L180.307 113.513Z" fill="#0B2952"/>
<path d="M189.849 100.748L191.594 91.9635C191.775 91.049 191.586 90.0999 191.069 89.3246C190.552 88.5493 189.749 88.0112 188.837 87.8284L164.162 82.9167C163.248 82.7354 162.3 82.925 161.526 83.4438C160.752 83.9625 160.215 84.768 160.034 85.6832L158.289 94.4679L189.849 100.748Z" fill="#0B2952"/>
<path d="M160.754 97.3499L160.125 100.52C160.021 101.041 160.359 101.547 160.879 101.65L164.643 102.399C165.162 102.503 165.668 102.165 165.771 101.644L166.4 98.4738C166.503 97.9533 166.166 97.4474 165.646 97.344L161.882 96.5947C161.362 96.4913 160.857 96.8294 160.754 97.3499Z" fill="white"/>
<path d="M167.578 98.7074L166.949 101.878C166.845 102.398 167.183 102.904 167.703 103.008L171.467 103.757C171.987 103.86 172.492 103.522 172.595 103.002L173.224 99.8312C173.327 99.3107 172.99 98.8048 172.47 98.7014L168.706 97.9521C168.186 97.8487 167.681 98.1868 167.578 98.7074Z" fill="white"/>
<path d="M174.41 100.063L173.781 103.233C173.677 103.754 174.015 104.26 174.535 104.363L178.299 105.112C178.819 105.216 179.324 104.878 179.427 104.357L180.056 101.187C180.159 100.666 179.822 100.16 179.302 100.057L175.538 99.3076C175.018 99.2042 174.513 99.5423 174.41 100.063Z" fill="white"/>
<path d="M181.242 101.426L180.613 104.597C180.51 105.117 180.847 105.623 181.367 105.726L185.131 106.476C185.651 106.579 186.156 106.241 186.259 105.72L186.888 102.55C186.991 102.029 186.654 101.524 186.134 101.42L182.37 100.671C181.85 100.567 181.345 100.906 181.242 101.426Z" fill="white"/>
<path d="M159.273 103.35L158.644 106.52C158.541 107.041 158.878 107.547 159.398 107.65L163.162 108.399C163.682 108.503 164.187 108.165 164.29 107.644L164.919 104.474C165.023 103.953 164.685 103.447 164.165 103.344L160.401 102.595C159.881 102.491 159.376 102.829 159.273 103.35Z" fill="white"/>
<path d="M166.375 104.803L165.746 107.973C165.642 108.494 165.98 109 166.5 109.103L170.264 109.853C170.784 109.956 171.289 109.618 171.392 109.097L172.021 105.927C172.124 105.406 171.787 104.901 171.267 104.797L167.503 104.048C166.983 103.944 166.478 104.283 166.375 104.803Z" fill="white"/>
<path d="M173.203 106.16L172.574 109.331C172.47 109.851 172.808 110.357 173.328 110.461L177.092 111.21C177.612 111.313 178.117 110.975 178.22 110.455L178.849 107.284C178.952 106.764 178.615 106.258 178.095 106.155L174.331 105.405C173.811 105.302 173.306 105.64 173.203 106.16Z" fill="white"/>
<path d="M180.031 107.528L179.402 110.698C179.299 111.219 179.636 111.724 180.156 111.828L183.92 112.577C184.44 112.681 184.945 112.343 185.048 111.822L185.677 108.652C185.781 108.131 185.443 107.625 184.923 107.522L181.159 106.772C180.639 106.669 180.134 107.007 180.031 107.528Z" fill="white"/>
<path d="M158.336 109.543L157.707 112.714C157.603 113.234 157.941 113.74 158.461 113.844L162.225 114.593C162.745 114.696 163.25 114.358 163.353 113.838L163.982 110.667C164.085 110.147 163.748 109.641 163.228 109.537L159.464 108.788C158.944 108.685 158.439 109.023 158.336 109.543Z" fill="white"/>
<path d="M165.164 110.899L164.535 114.069C164.431 114.59 164.769 115.096 165.289 115.199L169.053 115.948C169.573 116.052 170.078 115.714 170.181 115.193L170.81 112.023C170.913 111.502 170.576 110.996 170.056 110.893L166.292 110.144C165.772 110.04 165.267 110.378 165.164 110.899Z" fill="white"/>
<path d="M171.988 112.262L171.359 115.432C171.256 115.953 171.593 116.459 172.113 116.562L175.877 117.312C176.397 117.415 176.902 117.077 177.005 116.556L177.634 113.386C177.738 112.865 177.4 112.36 176.88 112.256L173.116 111.507C172.596 111.403 172.091 111.741 171.988 112.262Z" fill="white"/>
<path d="M162.962 115.828L160.296 115.299L158.256 114.915C158.007 114.868 157.748 114.921 157.537 115.063C157.326 115.204 157.179 115.423 157.127 115.672L156.497 118.842C156.45 119.092 156.503 119.351 156.644 119.562C156.786 119.774 157.004 119.921 157.253 119.973L159.293 120.375L161.958 120.909L167.846 122.079C168.095 122.126 168.353 122.074 168.564 121.934C168.775 121.793 168.923 121.575 168.975 121.327L169.605 118.157C169.652 117.907 169.599 117.649 169.458 117.437C169.317 117.226 169.098 117.078 168.849 117.027L162.962 115.828Z" fill="white"/>
<path d="M170.777 118.358L170.148 121.528C170.045 122.049 170.382 122.555 170.902 122.658L174.666 123.407C175.186 123.511 175.691 123.173 175.794 122.652L176.423 119.482C176.527 118.961 176.189 118.455 175.669 118.352L171.905 117.603C171.385 117.499 170.88 117.837 170.777 118.358Z" fill="white"/>
<path d="M179.95 112.872C179.701 112.825 179.442 112.878 179.231 113.02C179.02 113.161 178.873 113.38 178.821 113.63L178.516 115.173L178.031 117.74L177.009 122.895C176.962 123.145 177.015 123.404 177.156 123.615C177.297 123.827 177.516 123.974 177.765 124.026L181.525 124.778C181.775 124.825 182.033 124.772 182.244 124.631C182.456 124.489 182.603 124.27 182.654 124.021L183.677 118.866L184.19 116.299L184.496 114.756C184.543 114.505 184.49 114.247 184.349 114.035C184.207 113.824 183.989 113.676 183.74 113.625L179.95 112.872Z" fill="white"/>
<path d="M162.761 86.3878L161.352 93.4902L187.544 98.7038L188.953 91.6014L162.761 86.3878Z" fill="white"/>
</g>
<defs>
<clipPath id="clip0_2766_23144">
<rect width="199" height="204" fill="white"/>
</clipPath>
</defs>
</svg>
