<svg width="22" height="22" viewBox="0 0 22 22" fill="none" xmlns="http://www.w3.org/2000/svg">
<path d="M11 2.5C6.325 2.5 2.5 6.325 2.5 11C2.5 15.675 6.325 19.5 11 19.5C15.675 19.5 19.5 15.675 19.5 11C19.5 6.325 15.675 2.5 11 2.5ZM11 17.8C7.26 17.8 4.2 14.74 4.2 11C4.2 7.26 7.26 4.2 11 4.2C14.74 4.2 17.8 7.26 17.8 11C17.8 14.74 14.74 17.8 11 17.8Z" fill="#35C0ED"/>
<path d="M12.1901 8.02501C12.5301 8.28001 13.1251 8.19501 13.3801 7.85501C13.6351 7.51501 13.5501 6.92001 13.2101 6.66501C10.9151 4.96501 8.19515 6.24001 7.17515 8.87501H6.75015C6.24015 8.87501 5.90015 9.21501 5.90015 9.72501C5.90015 10.15 6.24015 10.575 6.75015 10.575V11.425C6.24015 11.425 5.90015 11.85 5.90015 12.275C5.90015 12.785 6.24015 13.125 6.75015 13.125H7.17515C8.19515 15.845 11.0001 17.035 13.2101 15.335C13.5501 15.08 13.6351 14.485 13.3801 14.145C13.1251 13.805 12.5301 13.72 12.1901 13.975C11.0001 14.825 9.72515 14.315 9.04515 13.125H10.1501C10.6601 13.125 11.0001 12.785 11.0001 12.275C11.0001 11.765 10.6601 11.425 10.1501 11.425H8.45015C8.45015 11 8.45015 11 8.45015 10.575H10.1501C10.6601 10.575 11.0001 10.235 11.0001 9.72501C11.0001 9.21501 10.6601 8.87501 10.1501 8.87501H9.04515C9.72515 7.68501 11.0001 7.17501 12.1901 8.02501Z" fill="#35C0ED"/>
</svg>
