
<svg width="111" height="202" viewBox="0 0 111 202" fill="none" xmlns="http://www.w3.org/2000/svg">
<path d="M111 5.11392H0V202H111V5.11392Z" fill="url(#paint0_linear_59_2189)"/>
<path d="M111 5.11392H0V19.1772H111V5.11392Z" fill="#1F4E8D"/>
<path d="M24.1457 123.948H10.501V149.507H24.1457V123.948Z" fill="#0B2952"/>
<path d="M23.3379 125.166H11.3135V148.501H23.3379V125.166Z" fill="#A8E8FD"/>
<path d="M17.675 124.442H16.8154V149.168H17.675V124.442Z" fill="#0B2952"/>
<path d="M23.5173 136.193H11.1143V136.981H23.5173V136.193Z" fill="#0B2952"/>
<path d="M23.5173 130.325H11.1143V130.773H23.5173V130.325Z" fill="#0B2952"/>
<path d="M23.5173 142.855H11.1143V143.303H23.5173V142.855Z" fill="#0B2952"/>
<path d="M24.1443 149.587H10.7598V150.324H24.1443V149.587Z" fill="#A8E8FD"/>
<path d="M23.6672 171.626H10.0225V197.185H23.6672V171.626Z" fill="#0B2952"/>
<path d="M22.8545 172.85H10.8301V196.184H22.8545V172.85Z" fill="#A8E8FD"/>
<path d="M17.1965 172.12H16.3369V196.846H17.1965V172.12Z" fill="#0B2952"/>
<path d="M23.0388 183.872H10.6357V184.659H23.0388V183.872Z" fill="#0B2952"/>
<path d="M23.0388 178.004H10.6357V178.451H23.0388V178.004Z" fill="#0B2952"/>
<path d="M23.0388 190.534H10.6357V190.981H23.0388V190.534Z" fill="#0B2952"/>
<path d="M23.6658 197.266H10.2812V198.002H23.6658V197.266Z" fill="#A8E8FD"/>
<path d="M101.679 171.316H88.0342V196.876H101.679V171.316Z" fill="#0B2952"/>
<path d="M100.866 172.54H88.8418V195.874H100.866V172.54Z" fill="#A8E8FD"/>
<path d="M95.2082 171.811H94.3486V196.536H95.2082V171.811Z" fill="#0B2952"/>
<path d="M101.05 183.562H88.6475V184.35H101.05V183.562Z" fill="#0B2952"/>
<path d="M101.05 177.694H88.6475V178.141H101.05V177.694Z" fill="#0B2952"/>
<path d="M101.05 190.224H88.6475V190.672H101.05V190.224Z" fill="#0B2952"/>
<path d="M101.678 196.956H88.293V197.692H101.678V196.956Z" fill="#A8E8FD"/>
<path d="M63.4035 122.734H49.7588V148.293H63.4035V122.734Z" fill="#0B2952"/>
<path d="M62.5957 123.953H50.5713V147.287H62.5957V123.953Z" fill="#A8E8FD"/>
<path d="M56.9329 123.229H56.0732V147.954H56.9329V123.229Z" fill="#0B2952"/>
<path d="M62.7751 134.98H50.3721V135.767H62.7751V134.98Z" fill="#0B2952"/>
<path d="M62.7751 129.112H50.3721V129.559H62.7751V129.112Z" fill="#0B2952"/>
<path d="M62.7751 141.642H50.3721V142.089H62.7751V141.642Z" fill="#0B2952"/>
<path d="M63.4022 148.374H50.0176V149.11H63.4022V148.374Z" fill="#A8E8FD"/>
<path d="M102.955 124.013H89.3105V149.572H102.955V124.013Z" fill="#0B2952"/>
<path d="M102.147 125.231H90.123V148.566H102.147V125.231Z" fill="#A8E8FD"/>
<path d="M96.4846 124.507H95.625V149.233H96.4846V124.507Z" fill="#0B2952"/>
<path d="M102.327 136.258H89.9238V137.046H102.327V136.258Z" fill="#0B2952"/>
<path d="M102.327 130.39H89.9238V130.838H102.327V130.39Z" fill="#0B2952"/>
<path d="M102.327 142.92H89.9238V143.368H102.327V142.92Z" fill="#0B2952"/>
<path d="M102.954 149.652H89.5693V150.389H102.954V149.652Z" fill="#A8E8FD"/>
<path d="M19.538 45.2468H8V23.6788C11.8975 20.1031 16.0329 20.1111 19.538 23.6788V45.2468Z" fill="#0B2952"/>
<path d="M18.8527 44.3994H8.68555V24.7089C11.8565 21.3239 15.7606 21.4419 18.8527 24.7089V44.3994Z" fill="#A8E8FD"/>
<path d="M14.0644 21.924H13.3379V44.9609H14.0644V21.924Z" fill="#0B2952"/>
<path d="M19.0055 33.6478H8.51758V34.3125H19.0055V33.6478Z" fill="#0B2952"/>
<path d="M19.0055 28.3358H8.51758V28.7139H19.0055V28.3358Z" fill="#0B2952"/>
<path d="M19.0055 39.4528H8.51758V39.8308H19.0055V39.4528Z" fill="#0B2952"/>
<path d="M19.5372 45.3135H8.21973V45.9349H19.5372V45.3135Z" fill="#A8E8FD"/>
<path d="M62.54 46.245H51.002V24.677C54.8994 21.1013 59.0349 21.1093 62.54 24.677V46.245Z" fill="#0B2952"/>
<path d="M61.8546 45.3976H51.6875V25.7071C54.8584 22.3221 58.7626 22.4401 61.8546 25.7071V45.3976Z" fill="#A8E8FD"/>
<path d="M57.0664 22.9223H56.3398V45.9591H57.0664V22.9223Z" fill="#0B2952"/>
<path d="M62.0085 34.6461H51.5205V35.3108H62.0085V34.6461Z" fill="#0B2952"/>
<path d="M62.0085 29.3341H51.5205V29.7122H62.0085V29.3341Z" fill="#0B2952"/>
<path d="M62.0085 40.451H51.5205V40.829H62.0085V40.451Z" fill="#0B2952"/>
<path d="M62.5391 46.3117H51.2217V46.9331H62.5391V46.3117Z" fill="#A8E8FD"/>
<path d="M100.54 45.245H89.002V23.677C92.8994 20.1013 97.0349 20.1093 100.54 23.677V45.245Z" fill="#0B2952"/>
<path d="M99.8546 44.3976H89.6875V24.7071C92.8584 21.3221 96.7626 21.4401 99.8546 24.7071V44.3976Z" fill="#A8E8FD"/>
<path d="M95.0664 21.9223H94.3398V44.9591H95.0664V21.9223Z" fill="#0B2952"/>
<path d="M100.008 33.6461H89.5205V34.3108H100.008V33.6461Z" fill="#0B2952"/>
<path d="M100.008 28.3341H89.5205V28.7122H100.008V28.3341Z" fill="#0B2952"/>
<path d="M100.008 39.451H89.5205V39.829H100.008V39.451Z" fill="#0B2952"/>
<path d="M100.539 45.3117H89.2217V45.9331H100.539V45.3117Z" fill="#A8E8FD"/>
<path d="M64.9482 167.481H48.4824V200.833H64.9482V167.481Z" fill="#1F4E8D"/>
<path d="M63.8742 168.7H49.2207V200.244H63.8742V168.7Z" fill="#0B2952"/>
<path d="M0 73.6197L14.3866 70.6985L29.4921 58.2108L42.8324 63.4957L62.9105 66.4791L42.638 64.6584L29.4921 60.6427C29.4921 60.6427 32.158 75.0483 31.4536 74.7227C30.7492 74.3971 28.0253 61.011 28.0253 61.011L16.03 71.5722L21.5535 77.0446L17.675 90.4853L19.8445 77.0446L14.3866 72.417L0 73.6197Z" fill="#0B2952"/>
<path d="M73.3418 166.12L78.5936 163.228L84.1079 150.861L88.9778 156.094L96.3073 159.049L88.9068 157.246L84.1079 153.269C84.1079 153.269 85.0811 167.535 84.8239 167.213C84.5668 166.89 83.5725 153.634 83.5725 153.634L79.1935 164.093L81.2099 169.512L79.7941 182.823L80.586 169.512L78.5936 164.929L73.3418 166.12Z" fill="#0B2952"/>
<path d="M35.7246 108.885L36.8917 108.423L38.1171 106.448L39.1993 107.284L40.8281 107.756L39.1835 107.468L38.1171 106.833C38.1171 106.833 38.3333 109.111 38.2762 109.059C38.2191 109.008 37.9981 106.891 37.9981 106.891L37.025 108.561L37.4731 109.426L37.1584 111.552L37.3344 109.426L36.8917 108.695L35.7246 108.885Z" fill="#0B2952"/>
<path d="M11.4824 159.885L12.6495 159.423L13.8749 157.448L14.9571 158.284L16.5859 158.756L14.9413 158.468L13.8749 157.833C13.8749 157.833 14.0912 160.111 14.034 160.059C13.9769 160.008 13.7559 157.891 13.7559 157.891L12.7828 159.561L13.2309 160.426L12.9163 162.552L13.0923 160.426L12.6495 159.695L11.4824 159.885Z" fill="#0B2952"/>
<path d="M63.1291 75.735H49.4844V101.294H63.1291V75.735Z" fill="#0B2952"/>
<path d="M62.3213 76.9536H50.2969V100.288H62.3213V76.9536Z" fill="#A8E8FD"/>
<path d="M56.6584 76.2294H55.7988V100.955H56.6584V76.2294Z" fill="#0B2952"/>
<path d="M62.5007 87.9805H50.0977V88.7681H62.5007V87.9805Z" fill="#0B2952"/>
<path d="M62.5007 82.1124H50.0977V82.56H62.5007V82.1124Z" fill="#0B2952"/>
<path d="M62.5007 94.6426H50.0977V95.0901H62.5007V94.6426Z" fill="#0B2952"/>
<path d="M63.1277 101.375H49.7432V102.111H63.1277V101.375Z" fill="#A8E8FD"/>
<path d="M102.955 74.1519H89.3105V99.7111H102.955V74.1519Z" fill="#0B2952"/>
<path d="M102.147 75.3705H90.123V98.7049H102.147V75.3705Z" fill="#A8E8FD"/>
<path d="M96.4846 74.6463H95.625V99.3719H96.4846V74.6463Z" fill="#0B2952"/>
<path d="M102.327 86.3974H89.9238V87.185H102.327V86.3974Z" fill="#0B2952"/>
<path d="M102.327 80.5293H89.9238V80.9768H102.327V80.5293Z" fill="#0B2952"/>
<path d="M102.327 93.0594H89.9238V93.5069H102.327V93.0594Z" fill="#0B2952"/>
<path d="M102.954 99.7914H89.5693V100.528H102.954V99.7914Z" fill="#A8E8FD"/>
<path d="M109.825 0L73.721 0.200312L60.4115 2.79758L53.8707 2.35262L44.0045 4.03271L36.9547 2.35262L26.5716 4.03271L15.933 3.58008C15.933 3.58008 14.2123 2.35092 11.7074 0.554914L0 2.55696L0.000177386 8.06883L111 8.94937L109.825 0Z" fill="#2F6EC2"/>
<path d="M24.1457 75.735H10.501V101.294H24.1457V75.735Z" fill="#0B2952"/>
<path d="M23.3379 76.9536H11.3135V100.288H23.3379V76.9536Z" fill="#CDE3EA"/>
<path d="M17.675 76.2294H16.8154V100.955H17.675V76.2294Z" fill="#0B2952"/>
<path d="M23.5173 87.9805H11.1143V88.7681H23.5173V87.9805Z" fill="#0B2952"/>
<path d="M23.5173 82.1124H11.1143V82.56H23.5173V82.1124Z" fill="#0B2952"/>
<path d="M23.5173 94.6426H11.1143V95.0901H23.5173V94.6426Z" fill="#0B2952"/>
<path d="M24.1443 101.375H10.7598V102.111H24.1443V101.375Z" fill="#A8E8FD"/>
<path d="M34.5263 135.519L37.5717 150.141L50.3636 152.754L57.753 148.331L50.0779 153.527L36.0068 151.181L26.383 157.371L34.2705 173.766C34.2705 173.766 32.7918 186.664 32.8549 186.157C32.918 185.65 32.3679 173.62 32.3679 173.62L26.0342 174.779L31.5919 171.749C31.5919 171.749 24.7695 157.108 24.3832 156.629C23.9969 156.15 10.4494 159.929 10.8332 158.963C11.217 157.998 23.9108 154.616 23.9108 154.616L35.8397 149.502L34.5263 135.519Z" fill="#0B2952"/>
<path d="M79.7217 88.8848L80.8888 88.4229L82.1142 86.4483L83.1963 87.284L84.8251 87.7557L83.1806 87.4678L82.1142 86.8328C82.1142 86.8328 82.3304 89.1107 82.2733 89.0592C82.2161 89.0077 81.9952 86.891 81.9952 86.891L81.0221 88.5611L81.4701 89.4264L81.1555 91.5517L81.3315 89.4264L80.8888 88.6946L79.7217 88.8848Z" fill="#0B2952"/>
<path d="M45.2734 34.5861L59.6601 31.6649L74.7656 19.1772L88.1058 24.4621L96.3079 26.8481L87.9114 25.6248L74.7656 21.6091C74.7656 21.6091 77.4314 36.0147 76.727 35.6891C76.0226 35.3635 73.2988 21.9774 73.2988 21.9774L61.3034 32.5386L66.8269 38.011L62.9484 51.4517L65.1179 38.011L59.6601 33.3833L45.2734 34.5861Z" fill="#0B2952"/>
<defs>
<linearGradient id="paint0_linear_59_2189" x1="309.62" y1="106.589" x2="-85.5174" y2="100.392" gradientUnits="userSpaceOnUse">
<stop stop-color="#3ACFFF"/>
<stop offset="0.956731" stop-color="#7EE0FF"/>
</linearGradient>
</defs>
</svg>
