
<svg width="50" height="45" viewBox="0 0 50 45" fill="none" xmlns="http://www.w3.org/2000/svg">
<path d="M2.5 0H47.5C48.163 0 48.7989 0.263392 49.2678 0.732233C49.7366 1.20107 50 1.83696 50 2.5V42.5C50 43.163 49.7366 43.7989 49.2678 44.2678C48.7989 44.7366 48.163 45 47.5 45H2.5C1.83696 45 1.20107 44.7366 0.732233 44.2678C0.263392 43.7989 0 43.163 0 42.5V2.5C0 1.83696 0.263392 1.20107 0.732233 0.732233C1.20107 0.263392 1.83696 0 2.5 0ZM5 5V40H45V5H5ZM17.5 25H15V20H17.5V17.5C17.4988 15.4682 18.2048 13.4993 19.4968 11.9311C20.7888 10.3629 22.5863 9.2933 24.5808 8.90569C26.5753 8.51808 28.6425 8.83667 30.4278 9.8068C32.2131 10.7769 33.6051 12.3381 34.365 14.2225L29.4 15.4625C28.9617 14.7806 28.3141 14.2591 27.5543 13.9764C26.7946 13.6937 25.9636 13.665 25.1862 13.8946C24.4087 14.1242 23.7267 14.5997 23.2423 15.2497C22.758 15.8998 22.4976 16.6894 22.5 17.5V20H30V25H22.5V30H35V35H15V30H17.5V25Z" fill="#35C0ED" fill-opacity="0.24"/>
</svg>
