
<svg width="79" height="56" viewBox="0 0 79 56" fill="none" xmlns="http://www.w3.org/2000/svg">
<g clip-path="url(#clip0_107_34379)">
<path d="M25.7708 14.2574H0.975851C0.774377 14.2574 0.577848 14.195 0.413237 14.0788C0.248626 13.9627 0.124 13.7984 0.0564644 13.6086C-0.0110709 13.4188 -0.0182051 13.2127 0.0360397 13.0187C0.0902844 12.8246 0.20325 12.6521 0.359433 12.5249L12.7565 2.41817C12.9307 2.27612 13.1486 2.19855 13.3733 2.19855C13.5981 2.19855 13.816 2.27612 13.9901 2.41817L26.3876 12.5249C26.5438 12.6522 26.6568 12.8247 26.711 13.0188C26.7653 13.2128 26.7581 13.4189 26.6905 13.6088C26.6229 13.7986 26.4982 13.9629 26.3336 14.079C26.1689 14.1951 25.9723 14.2575 25.7708 14.2574ZM3.71753 12.3055H23.0291L13.3733 4.43373L3.71753 12.3055Z" fill="#0B2952"/>
<path d="M4.96327 7.2804C4.70443 7.2804 4.45619 7.17757 4.27316 6.99454C4.09013 6.81152 3.9873 6.56327 3.9873 6.30443V1.02174C3.9873 0.762899 4.09013 0.514656 4.27316 0.331627C4.45619 0.148598 4.70443 0.0457764 4.96327 0.0457764H9.16967C9.42851 0.0457764 9.67675 0.148598 9.85978 0.331627C10.0428 0.514656 10.1456 0.762899 10.1456 1.02174V2.61802C10.1456 2.87686 10.0428 3.12511 9.85978 3.30814C9.67675 3.49117 9.42851 3.59399 9.16967 3.59399C8.91083 3.59399 8.66259 3.49117 8.47956 3.30814C8.29653 3.12511 8.19371 2.87686 8.19371 2.61802V1.99926H5.93923V6.30599C5.93882 6.56457 5.83581 6.81241 5.65283 6.9951C5.46984 7.17779 5.22184 7.2804 4.96327 7.2804Z" fill="#0B2952"/>
<path d="M10.1957 26.4706H5.74066C5.50253 26.4706 5.27415 26.376 5.10576 26.2076C4.93737 26.0392 4.84277 25.8109 4.84277 25.5727V19.2817C4.84277 19.0435 4.93737 18.8152 5.10576 18.6468C5.27415 18.4784 5.50253 18.3838 5.74066 18.3838H10.1957C10.4339 18.3838 10.6623 18.4784 10.8306 18.6468C10.999 18.8152 11.0936 19.0435 11.0936 19.2817V25.5727C11.0936 25.8109 10.999 26.0392 10.8306 26.2076C10.6623 26.376 10.4339 26.4706 10.1957 26.4706ZM6.63855 24.6748H9.29786V20.1796H6.63855V24.6748Z" fill="#0B2952"/>
<path d="M20.4823 26.4706H16.0268C15.7887 26.4706 15.5603 26.376 15.3919 26.2076C15.2235 26.0392 15.1289 25.8109 15.1289 25.5727V19.2817C15.1289 19.0435 15.2235 18.8152 15.3919 18.6468C15.5603 18.4784 15.7887 18.3838 16.0268 18.3838H20.4823C20.7204 18.3838 20.9488 18.4784 21.1172 18.6468C21.2856 18.8152 21.3802 19.0435 21.3802 19.2817V25.5727C21.3802 25.8109 21.2856 26.0392 21.1172 26.2076C20.9488 26.376 20.7204 26.4706 20.4823 26.4706ZM16.9247 24.6748H19.5844V20.1796H16.9247V24.6748Z" fill="#0B2952"/>
<path d="M10.1957 38.993H5.74066C5.50253 38.993 5.27415 38.8984 5.10576 38.73C4.93737 38.5616 4.84277 38.3332 4.84277 38.0951V31.8056C4.84277 31.5675 4.93737 31.3391 5.10576 31.1707C5.27415 31.0023 5.50253 30.9077 5.74066 30.9077H10.1957C10.4339 30.9077 10.6623 31.0023 10.8306 31.1707C10.999 31.3391 11.0936 31.5675 11.0936 31.8056V38.0951C11.0936 38.3332 10.999 38.5616 10.8306 38.73C10.6623 38.8984 10.4339 38.993 10.1957 38.993ZM6.63855 37.1972H9.29786V32.7035H6.63855V37.1972Z" fill="#0B2952"/>
<path d="M20.4823 38.993H16.0268C15.7887 38.993 15.5603 38.8984 15.3919 38.73C15.2235 38.5616 15.1289 38.3332 15.1289 38.0951V31.8056C15.1289 31.5675 15.2235 31.3391 15.3919 31.1707C15.5603 31.0023 15.7887 30.9077 16.0268 30.9077H20.4823C20.7204 30.9077 20.9488 31.0023 21.1172 31.1707C21.2856 31.3391 21.3802 31.5675 21.3802 31.8056V38.0951C21.3802 38.3332 21.2856 38.5616 21.1172 38.73C20.9488 38.8984 20.7204 38.993 20.4823 38.993ZM16.9247 37.1972H19.5844V32.7035H16.9247V37.1972Z" fill="#0B2952"/>
<path d="M10.1957 51.6711H5.74066C5.50253 51.6711 5.27415 51.5765 5.10576 51.4081C4.93737 51.2398 4.84277 51.0114 4.84277 50.7732V44.4841C4.84277 44.246 4.93737 44.0176 5.10576 43.8492C5.27415 43.6808 5.50253 43.5862 5.74066 43.5862H10.1957C10.4339 43.5862 10.6623 43.6808 10.8306 43.8492C10.999 44.0176 11.0936 44.246 11.0936 44.4841V50.7732C11.0936 51.0114 10.999 51.2398 10.8306 51.4081C10.6623 51.5765 10.4339 51.6711 10.1957 51.6711ZM6.63855 49.8754H9.29786V45.382H6.63855V49.8754Z" fill="#0B2952"/>
<path d="M25.8348 55.8623H20.4823C20.2441 55.8623 20.0157 55.7677 19.8474 55.5993C19.679 55.431 19.5844 55.2026 19.5844 54.9644V45.382H16.9247V54.9644C16.9247 55.2026 16.8301 55.431 16.6617 55.5993C16.4933 55.7677 16.2649 55.8623 16.0268 55.8623C15.7887 55.8623 15.5603 55.7677 15.3919 55.5993C15.2235 55.431 15.1289 55.2026 15.1289 54.9644V44.4841C15.1289 44.246 15.2235 44.0176 15.3919 43.8492C15.5603 43.6809 15.7887 43.5863 16.0268 43.5863H20.4823C20.7204 43.5863 20.9488 43.6809 21.1172 43.8492C21.2855 44.0176 21.3801 44.246 21.3801 44.4841V54.0665H24.937V16.3315C24.937 16.0933 25.0315 15.865 25.1999 15.6966C25.3683 15.5282 25.5967 15.4336 25.8348 15.4336C26.073 15.4336 26.3014 15.5282 26.4697 15.6966C26.6381 15.865 26.7327 16.0933 26.7327 16.3315V54.9644C26.7327 55.2026 26.6381 55.431 26.4697 55.5993C26.3014 55.7677 26.073 55.8623 25.8348 55.8623Z" fill="#0B2952"/>
<path d="M12.8367 55.8623H1.2348C0.996666 55.8623 0.768284 55.7677 0.599898 55.5993C0.431511 55.431 0.336914 55.2026 0.336914 54.9644V16.3315C0.336914 16.0933 0.431511 15.865 0.599898 15.6966C0.768284 15.5282 0.996666 15.4336 1.2348 15.4336C1.47294 15.4336 1.70132 15.5282 1.8697 15.6966C2.03809 15.865 2.13269 16.0933 2.13269 16.3315V54.0665H12.8367C13.0748 54.0665 13.3032 54.1611 13.4716 54.3295C13.64 54.4979 13.7346 54.7263 13.7346 54.9644C13.7346 55.2026 13.64 55.431 13.4716 55.5993C13.3032 55.7677 13.0748 55.8623 12.8367 55.8623Z" fill="#0B2952"/>
<path d="M35.327 5.06343H32.6438V4.24011C32.6438 3.85545 32.6096 3.61068 32.5412 3.50579C32.4727 3.40091 32.3583 3.34886 32.198 3.34964C32.1191 3.34604 32.0408 3.36394 31.9712 3.40141C31.9017 3.43888 31.8437 3.49452 31.8033 3.5624C31.7141 3.7045 31.6694 3.9196 31.6694 4.2077C31.6694 4.57857 31.7197 4.85782 31.8201 5.04547C31.9156 5.23311 32.1877 5.45954 32.6364 5.72475C33.9223 6.48834 34.7323 7.11477 35.0662 7.60406C35.4001 8.09334 35.5672 8.88244 35.5674 9.97136C35.5674 10.7631 35.4748 11.3464 35.2895 11.7215C35.1042 12.0965 34.7458 12.4105 34.2144 12.6635C33.6834 12.9172 33.0658 13.0441 32.3616 13.0441C31.5884 13.0441 30.9284 12.8977 30.3816 12.6049C29.8348 12.3121 29.4768 11.9393 29.3076 11.4864C29.1387 11.0336 29.0541 10.3909 29.0539 9.55833V8.83065H31.737V10.1826C31.737 10.599 31.7747 10.8666 31.8502 10.9856C31.9257 11.1045 32.0594 11.164 32.2515 11.164C32.4436 11.164 32.5867 11.0885 32.6809 10.9376C32.7751 10.7866 32.822 10.5624 32.8215 10.2649C32.8215 9.61116 32.7323 9.18343 32.554 8.98173C32.3719 8.78055 31.9212 8.44429 31.2021 7.97297C30.4838 7.49748 30.0081 7.15212 29.7749 6.93688C29.5417 6.72165 29.3483 6.42431 29.1948 6.04486C29.0415 5.66515 28.9648 5.18016 28.9648 4.58989C28.9648 3.73885 29.0735 3.11671 29.2908 2.72346C29.5081 2.33021 29.8595 2.02259 30.3449 1.80059C30.8297 1.57833 31.4153 1.46733 32.1016 1.46759C32.8514 1.46759 33.4907 1.58887 34.0196 1.83143C34.5484 2.07399 34.8983 2.37927 35.0693 2.74728C35.2411 3.1158 35.3268 3.74145 35.3266 4.62424L35.327 5.06343Z" fill="#0B2952"/>
<path d="M41.4668 1.70099L43.119 12.811H40.1665L40.0103 10.8141H38.977L38.8032 12.811H35.8164L37.2901 1.70099H41.4668ZM39.9358 8.84504C39.7898 7.58644 39.6431 6.03088 39.4958 4.17837C39.2014 6.30597 39.0167 7.86153 38.9414 8.84504H39.9358Z" fill="#0B2952"/>
<path d="M50.1704 1.70099L48.7002 12.811H44.3115L42.6426 1.70099H45.6876C46.0418 4.76135 46.2946 7.35091 46.4461 9.46966C46.5952 7.32879 46.7536 5.42813 46.9212 3.76769L47.1219 1.70177L50.1704 1.70099Z" fill="#0B2952"/>
<path d="M50.6572 1.70099H55.4746V3.92423H53.5461V6.03232H55.3508V8.14587H53.5461V10.5885H55.6667V12.8137H50.6572V1.70099Z" fill="#0B2952"/>
<path d="M38.1201 15.872V26.982H35.5947L35.5912 19.4815L34.586 26.982H32.7949L31.7346 19.6529L31.7311 26.982H29.2061V15.872H32.944C33.0549 16.5398 33.1693 17.3271 33.2871 18.2338L33.6971 21.0598L34.3607 15.872H38.1201Z" fill="#0B2952"/>
<path d="M45.4353 15.872L43.3272 22.9606V26.9816H40.6511V22.9606L38.6211 15.872H41.2757C41.6908 18.0405 41.9251 19.4999 41.9784 20.2502C42.139 19.0647 42.4073 17.6053 42.7834 15.872H45.4353Z" fill="#0B2952"/>
<path d="M35.327 33.4054H32.6438V32.5821C32.6438 32.1974 32.6096 31.9527 32.5412 31.8478C32.4727 31.7429 32.3583 31.6908 32.198 31.6916C32.1191 31.688 32.0408 31.7059 31.9712 31.7434C31.9017 31.7809 31.8437 31.8365 31.8033 31.9044C31.7141 32.0465 31.6694 32.2616 31.6694 32.5497C31.6694 32.9206 31.7197 33.1998 31.8201 33.3874C31.9156 33.5751 32.1877 33.8015 32.6364 34.0667C33.9223 34.8303 34.7323 35.4568 35.0662 35.946C35.4001 36.4353 35.5672 37.2244 35.5674 38.3133C35.5674 39.105 35.4748 39.6884 35.2895 40.0634C35.1042 40.4385 34.7458 40.7525 34.2144 41.0054C33.6834 41.2592 33.0658 41.3861 32.3616 41.3861C31.5884 41.3861 30.9284 41.2397 30.3816 40.9469C29.8348 40.6541 29.4768 40.2813 29.3076 39.8284C29.1387 39.3756 29.0541 38.7329 29.0539 37.9003V37.1726H31.737V38.5245C31.737 38.9409 31.7747 39.2086 31.8502 39.3276C31.9257 39.4465 32.0594 39.506 32.2515 39.506C32.4436 39.506 32.5867 39.4305 32.6809 39.2795C32.7751 39.1286 32.822 38.9044 32.8215 38.6069C32.8215 37.9531 32.7323 37.5254 32.554 37.3237C32.3719 37.1225 31.9212 36.7863 31.2021 36.3149C30.4838 35.8395 30.0081 35.4941 29.7749 35.2789C29.5417 35.0636 29.3483 34.7663 29.1948 34.3868C29.0415 34.0071 28.9648 33.5221 28.9648 32.9319C28.9648 32.0808 29.0735 31.4587 29.2908 31.0654C29.5081 30.6722 29.8595 30.3646 30.3449 30.1426C30.8297 29.9203 31.4153 29.8093 32.1016 29.8096C32.8514 29.8096 33.4907 29.9309 34.0196 30.1734C34.5484 30.416 34.8983 30.7213 35.0693 31.0893C35.2411 31.4578 35.3268 32.0834 35.3266 32.9662L35.327 33.4054Z" fill="#0B2952"/>
<path d="M36.2207 30.043H41.0381V32.2663H39.1096V34.3744H40.9143V36.4879H39.1096V38.9305H41.2301V41.1557H36.2207V30.043Z" fill="#0B2952"/>
<path d="M41.8076 30.043H43.8525C45.2157 30.043 46.1387 30.0951 46.6215 30.1992C47.1042 30.3033 47.4976 30.5721 47.8016 31.0057C48.1061 31.438 48.2582 32.1277 48.258 33.0748C48.258 33.9396 48.1505 34.5206 47.9355 34.8178C47.7205 35.1151 47.2973 35.2935 46.666 35.3531C47.2385 35.4952 47.6228 35.685 47.8188 35.9226C48.0148 36.1602 48.1372 36.3787 48.1861 36.5781C48.2343 36.7772 48.2582 37.325 48.258 38.2216V41.1518H45.5752V37.46C45.5752 36.865 45.5284 36.4968 45.4347 36.3552C45.341 36.2136 45.0951 36.1427 44.6969 36.1424V41.153H41.808L41.8076 30.043ZM44.6965 31.9438V34.4142C45.0213 34.4142 45.2489 34.3695 45.3793 34.2803C45.5096 34.191 45.5747 33.9017 45.5744 33.4124V32.8015C45.5744 32.4494 45.5116 32.2184 45.3859 32.1086C45.2602 31.9987 45.0304 31.9438 44.6965 31.9438Z" fill="#0B2952"/>
<path d="M55.9925 30.043L54.5223 41.153H50.1339L48.4639 30.043H51.5108C51.8648 33.1034 52.1175 35.6929 52.269 37.8117C52.4181 35.6708 52.5766 33.7702 52.7444 32.1097L52.9447 30.0438L55.9925 30.043Z" fill="#0B2952"/>
<path d="M59.1154 30.043V41.153H56.2266V30.043H59.1154Z" fill="#0B2952"/>
<path d="M66.7685 34.8807H63.8796V32.951C63.8796 32.3896 63.8488 32.0393 63.7871 31.9001C63.7254 31.7608 63.5886 31.6908 63.3768 31.69C63.1389 31.69 62.988 31.7746 62.9239 31.9438C62.8599 32.113 62.8279 32.4789 62.8279 33.0416V38.2021C62.8279 38.7418 62.8599 39.0941 62.9239 39.2588C62.988 39.4236 63.132 39.5059 63.3561 39.5059C63.5711 39.5059 63.7118 39.4235 63.7781 39.2584C63.8445 39.0934 63.8777 38.7059 63.8777 38.0959V36.6987H66.7665V37.1316C66.7665 38.2812 66.6853 39.0967 66.5229 39.5782C66.3605 40.0596 66.0014 40.4811 65.4455 40.8426C64.8895 41.2044 64.2044 41.3853 63.3901 41.3853C62.5437 41.3853 61.8461 41.2321 61.2972 40.9258C60.7483 40.6195 60.384 40.1951 60.2041 39.6527C60.029 39.1111 59.9414 38.2956 59.9414 37.2062V33.9605C59.9414 33.1597 59.9689 32.5593 60.0238 32.1593C60.0787 31.7593 60.2423 31.3738 60.5145 31.003C60.7865 30.6321 61.1638 30.3405 61.6466 30.1281C62.1294 29.9157 62.684 29.8093 63.3104 29.8088C64.1615 29.8088 64.8642 29.9733 65.4185 30.3022C65.9729 30.6312 66.3366 31.0412 66.5096 31.5323C66.6835 32.0234 66.7704 32.7875 66.7704 33.8247L66.7685 34.8807Z" fill="#0B2952"/>
<path d="M67.5508 30.043H72.3681V32.2663H70.4396V34.3744H72.2444V36.4879H70.4396V38.9305H72.5602V41.1557H67.5508V30.043Z" fill="#0B2952"/>
<path d="M35.9519 49.0517H33.063V47.122C33.063 46.5606 33.032 46.2103 32.9701 46.0711C32.9082 45.9319 32.772 45.8622 32.5618 45.8622C32.3239 45.8622 32.1729 45.9468 32.1089 46.116C32.0449 46.2852 32.0129 46.6511 32.0129 47.2138V52.3743C32.0129 52.914 32.0449 53.2663 32.1089 53.431C32.1729 53.5958 32.3171 53.6781 32.5415 53.6781C32.7562 53.6781 32.8968 53.5956 32.9635 53.4306C33.0301 53.2656 33.0633 52.8781 33.063 52.2681V50.8697H35.9519V51.3027C35.9519 52.4522 35.8707 53.2677 35.7083 53.7492C35.5459 54.2307 35.1867 54.6522 34.6308 55.0136C34.0749 55.3754 33.3898 55.5563 32.5754 55.5563C31.7291 55.5563 31.0314 55.4031 30.4826 55.0968C29.9337 54.7905 29.5693 54.3661 29.3895 53.8238C29.2112 53.2816 29.1221 52.4661 29.1221 51.3772V48.1316C29.1221 47.3307 29.1495 46.7303 29.2044 46.3303C29.2594 45.9303 29.4228 45.5449 29.6948 45.174C29.9673 44.8031 30.3446 44.5115 30.8269 44.2991C31.3091 44.0868 31.8639 43.9803 32.4911 43.9798C33.3416 43.9798 34.0443 44.1443 34.5992 44.4732C35.154 44.8022 35.5184 45.2122 35.6923 45.7033C35.8658 46.1945 35.9528 46.9586 35.953 47.9957L35.9519 49.0517Z" fill="#0B2952"/>
<path d="M43.3774 44.214V55.324H40.4885V50.6577H39.6242V55.324H36.7354V44.214H39.6242V48.1873H40.4885V44.214H43.3774Z" fill="#0B2952"/>
<path d="M49.2784 44.214L50.9305 55.324H47.978L47.8218 53.3271H46.7885L46.6148 55.324H43.6279L45.1016 44.214H49.2784ZM47.7473 51.358C47.601 50.0994 47.4544 48.5439 47.3073 46.6914C47.013 48.819 46.828 50.3745 46.7526 51.358H47.7473Z" fill="#0B2952"/>
<path d="M51.168 44.214H53.2128C54.576 44.214 55.499 44.266 55.9818 44.3701C56.4646 44.4742 56.858 44.7431 57.162 45.1767C57.4665 45.609 57.6186 46.2986 57.6183 47.2457C57.6183 48.1106 57.5108 48.6916 57.2959 48.9888C57.0809 49.286 56.6577 49.4644 56.0263 49.524C56.5989 49.6661 56.9832 49.856 57.1791 50.0936C57.3751 50.3312 57.4975 50.5497 57.5465 50.749C57.5946 50.9481 57.6186 51.496 57.6183 52.3926V55.3228H54.9352V51.6309C54.9352 51.036 54.8883 50.6677 54.7946 50.5261C54.701 50.3846 54.455 50.3136 54.0568 50.3134V55.324H51.168V44.214ZM54.0568 46.1148V48.5851C54.3816 48.5851 54.6092 48.5405 54.7396 48.4512C54.87 48.362 54.9351 48.0727 54.9348 47.5834V46.9725C54.9348 46.6203 54.8719 46.3893 54.7462 46.2795C54.6205 46.1697 54.3907 46.1148 54.0568 46.1148Z" fill="#0B2952"/>
<path d="M65.1129 48.3037H62.224V47.2949C62.224 46.6594 62.1966 46.2615 62.1416 46.1011C62.0867 45.9408 61.9566 45.8608 61.7513 45.8611C61.5727 45.8611 61.4515 45.9296 61.3874 46.0668C61.3234 46.2039 61.2914 46.5562 61.2914 47.1236V52.4555C61.2914 52.9544 61.3234 53.2827 61.3874 53.4404C61.4515 53.5981 61.5795 53.677 61.7716 53.677C61.9821 53.677 62.1252 53.5877 62.201 53.4092C62.2767 53.2306 62.3145 52.8831 62.3142 52.3664V51.0489H61.731V49.3605H65.114V55.324H63.298L63.0309 54.528C62.8342 54.871 62.5858 55.1283 62.2857 55.2998C61.9856 55.4713 61.6321 55.5571 61.225 55.5571C60.7479 55.559 60.2784 55.437 59.8626 55.203C59.4391 54.9687 59.1175 54.6771 58.8975 54.3281C58.684 53.9972 58.5435 53.6246 58.4853 53.235C58.4306 52.8533 58.4033 52.2807 58.4033 51.5174V48.2151C58.4033 47.1537 58.4604 46.3829 58.5747 45.9024C58.6889 45.422 59.0171 44.9816 59.5592 44.5814C60.1014 44.1814 60.8025 43.9812 61.6627 43.981C62.509 43.981 63.2117 44.1548 63.7707 44.5025C64.3298 44.8502 64.6935 45.2631 64.8619 45.7412C65.031 46.2196 65.1156 46.9138 65.1156 47.8239L65.1129 48.3037Z" fill="#0B2952"/>
<path d="M65.9785 44.214H70.7959V46.4372H68.8678V48.5453H70.6725V50.6589H68.8678V53.1015H70.9887V55.3267H65.9785V44.214Z" fill="#0B2952"/>
<path d="M75.6106 55.5223C77.4823 55.5223 78.9996 54.005 78.9996 52.1334C78.9996 50.2617 77.4823 48.7444 75.6106 48.7444C73.739 48.7444 72.2217 50.2617 72.2217 52.1334C72.2217 54.005 73.739 55.5223 75.6106 55.5223Z" fill="#0B2952"/>
<path d="M73.9054 53.3881V51.5225H73.1719V51.1746H75.0489V51.5225H74.3153V53.3881H73.9054Z" fill="#0B2952"/>
<path d="M75.3027 53.3881V51.1746H75.6412L76.609 52.7908H76.4317L77.3835 51.1746H77.722L77.7282 53.3881H77.3327V51.7852H77.4108L76.6101 53.1387H76.4235L75.6014 51.7852H75.6962V53.3881H75.3027Z" fill="#0B2952"/>
</g>
<defs>
<clipPath id="clip0_107_34379">
<rect width="79" height="55.8169" fill="white" transform="translate(0 0.0457764)"/>
</clipPath>
</defs>
</svg>
