
<svg width="185" height="156" viewBox="0 0 185 156" fill="none" xmlns="http://www.w3.org/2000/svg">
<g opacity="0.3">
<path d="M152.85 145.466C152.708 145.415 152.593 145.311 152.528 145.175C152.464 145.038 152.456 144.882 152.506 144.741C152.712 144.167 152.895 143.576 153.051 142.98C153.089 142.836 153.181 142.713 153.309 142.637C153.437 142.561 153.589 142.539 153.733 142.574H153.744C153.816 142.593 153.884 142.626 153.943 142.671C154.003 142.716 154.052 142.773 154.09 142.837C154.128 142.902 154.152 142.973 154.162 143.047C154.172 143.121 154.167 143.196 154.148 143.268C153.984 143.891 153.792 144.513 153.576 145.117C153.529 145.249 153.434 145.359 153.311 145.426C153.187 145.492 153.044 145.511 152.908 145.478C152.888 145.475 152.869 145.471 152.85 145.466ZM153.616 140.049C153.692 139.442 153.738 138.824 153.76 138.216C153.763 138.142 153.78 138.068 153.811 138C153.841 137.932 153.885 137.87 153.94 137.819C153.995 137.768 154.059 137.728 154.129 137.702C154.199 137.676 154.274 137.664 154.349 137.667C154.423 137.669 154.497 137.687 154.565 137.718C154.633 137.749 154.694 137.794 154.745 137.849C154.796 137.903 154.835 137.968 154.861 138.038C154.887 138.108 154.898 138.183 154.895 138.258C154.872 138.898 154.819 139.547 154.742 140.186C154.724 140.336 154.647 140.472 154.528 140.565C154.41 140.657 154.259 140.699 154.11 140.681C154.088 140.678 154.065 140.675 154.043 140.669C153.908 140.637 153.79 140.555 153.71 140.441C153.631 140.326 153.597 140.187 153.613 140.049H153.616ZM153.661 135.231C153.597 134.624 153.508 134.013 153.393 133.413C153.377 133.339 153.375 133.262 153.389 133.187C153.403 133.113 153.432 133.042 153.473 132.978C153.515 132.915 153.569 132.861 153.632 132.819C153.695 132.777 153.766 132.748 153.841 132.733C153.915 132.719 153.992 132.72 154.066 132.736C154.14 132.751 154.21 132.782 154.273 132.825C154.335 132.869 154.388 132.924 154.428 132.988C154.469 133.053 154.496 133.124 154.508 133.199C154.629 133.831 154.724 134.475 154.79 135.113C154.805 135.262 154.76 135.412 154.666 135.529C154.571 135.646 154.433 135.721 154.284 135.736C154.219 135.743 154.154 135.739 154.091 135.723C153.976 135.697 153.873 135.635 153.795 135.547C153.717 135.458 153.669 135.348 153.656 135.231H153.661ZM152.627 130.525C152.429 129.946 152.205 129.37 151.959 128.811C151.898 128.673 151.895 128.517 151.949 128.376C152.003 128.236 152.111 128.123 152.249 128.062C152.387 128.001 152.544 127.997 152.684 128.052C152.825 128.106 152.938 128.214 152.999 128.352C153.257 128.941 153.494 129.547 153.701 130.156C153.725 130.226 153.735 130.301 153.731 130.375C153.726 130.45 153.707 130.522 153.674 130.589C153.641 130.656 153.595 130.716 153.539 130.765C153.483 130.814 153.418 130.852 153.348 130.876C153.245 130.912 153.135 130.917 153.03 130.891C152.937 130.869 152.851 130.824 152.78 130.76C152.709 130.696 152.656 130.615 152.624 130.525H152.627ZM150.57 126.166C150.25 125.647 149.903 125.134 149.539 124.643C149.493 124.583 149.459 124.515 149.439 124.441C149.42 124.368 149.415 124.292 149.426 124.217C149.436 124.142 149.461 124.07 149.5 124.005C149.538 123.94 149.59 123.883 149.65 123.838C149.711 123.794 149.781 123.761 149.854 123.743C149.928 123.725 150.004 123.722 150.079 123.734C150.153 123.747 150.225 123.773 150.289 123.813C150.353 123.853 150.409 123.906 150.452 123.968C150.835 124.484 151.2 125.024 151.537 125.57C151.578 125.634 151.607 125.705 151.621 125.78C151.634 125.855 151.633 125.931 151.616 126.005C151.6 126.08 151.569 126.15 151.525 126.212C151.48 126.273 151.424 126.326 151.36 126.366C151.295 126.405 151.223 126.432 151.148 126.443C151.073 126.455 150.996 126.451 150.923 126.433C150.849 126.414 150.78 126.381 150.719 126.335C150.659 126.289 150.608 126.232 150.57 126.166ZM147.6 122.371C147.173 121.935 146.722 121.512 146.259 121.114C146.149 121.014 146.082 120.876 146.073 120.728C146.064 120.58 146.113 120.435 146.209 120.323C146.306 120.21 146.442 120.14 146.59 120.127C146.737 120.114 146.884 120.159 146.999 120.253C147.486 120.672 147.962 121.117 148.412 121.576C148.517 121.683 148.575 121.829 148.574 121.979C148.572 122.13 148.511 122.274 148.404 122.379C148.296 122.485 148.151 122.543 148 122.542C147.85 122.54 147.706 122.479 147.6 122.371ZM127.554 115.843C127.526 115.695 127.558 115.542 127.643 115.418C127.727 115.293 127.858 115.208 128.006 115.179C128.637 115.059 129.282 114.966 129.92 114.901C129.994 114.893 130.069 114.9 130.14 114.922C130.211 114.943 130.278 114.979 130.336 115.026C130.393 115.073 130.441 115.131 130.477 115.196C130.512 115.262 130.534 115.334 130.542 115.408C130.549 115.482 130.542 115.557 130.521 115.628C130.499 115.7 130.464 115.766 130.417 115.824C130.37 115.882 130.312 115.93 130.246 115.965C130.181 116 130.109 116.022 130.034 116.03C129.426 116.092 128.814 116.183 128.214 116.295C128.135 116.31 128.053 116.308 127.975 116.289C127.869 116.263 127.773 116.207 127.698 116.128C127.623 116.049 127.572 115.95 127.552 115.843H127.554ZM143.866 119.33C143.352 119 142.818 118.689 142.279 118.405C142.211 118.371 142.151 118.324 142.102 118.267C142.053 118.209 142.016 118.143 141.993 118.071C141.97 117.999 141.961 117.923 141.968 117.848C141.974 117.773 141.996 117.7 142.031 117.633C142.066 117.566 142.114 117.507 142.172 117.459C142.231 117.411 142.298 117.375 142.37 117.353C142.443 117.332 142.518 117.325 142.593 117.333C142.669 117.341 142.741 117.363 142.807 117.4C143.376 117.699 143.939 118.028 144.479 118.375C144.592 118.448 144.675 118.558 144.714 118.686C144.754 118.815 144.746 118.953 144.693 119.076C144.641 119.199 144.546 119.3 144.426 119.36C144.306 119.42 144.169 119.436 144.038 119.404C143.976 119.39 143.917 119.365 143.864 119.33H143.866ZM132.478 115.35C132.48 115.276 132.498 115.202 132.529 115.135C132.56 115.067 132.604 115.006 132.659 114.955C132.713 114.905 132.778 114.865 132.848 114.839C132.917 114.813 132.992 114.802 133.066 114.804C133.708 114.829 134.357 114.881 134.996 114.958C135.072 114.964 135.145 114.986 135.212 115.022C135.28 115.058 135.339 115.107 135.387 115.167C135.434 115.226 135.47 115.294 135.491 115.367C135.512 115.441 135.518 115.517 135.508 115.593C135.499 115.668 135.474 115.741 135.436 115.807C135.398 115.873 135.347 115.931 135.286 115.977C135.226 116.022 135.156 116.056 135.082 116.074C135.009 116.093 134.932 116.096 134.856 116.084C134.25 116.008 133.632 115.959 133.02 115.936C132.982 115.935 132.944 115.929 132.907 115.92C132.78 115.889 132.668 115.815 132.589 115.711C132.511 115.606 132.47 115.478 132.475 115.347L132.478 115.35ZM139.546 117.204C138.972 116.997 138.382 116.813 137.791 116.656C137.645 116.619 137.52 116.525 137.443 116.396C137.366 116.267 137.344 116.112 137.381 115.966C137.418 115.82 137.511 115.695 137.641 115.618C137.77 115.541 137.925 115.519 138.07 115.556H138.083C138.704 115.721 139.326 115.915 139.93 116.132C140.067 116.182 140.179 116.282 140.244 116.411C140.309 116.541 140.322 116.691 140.28 116.829C140.238 116.968 140.145 117.086 140.019 117.158C139.894 117.231 139.745 117.252 139.604 117.219C139.584 117.213 139.564 117.206 139.544 117.198L139.546 117.204Z" fill="#35C0ED"/>
<path d="M123.709 117.437C123.822 117.464 123.94 117.457 124.048 117.414C124.321 117.309 124.6 117.208 124.879 117.113C125.01 117.056 125.115 116.952 125.173 116.821C125.231 116.691 125.237 116.543 125.191 116.408C125.145 116.273 125.049 116.16 124.924 116.092C124.798 116.024 124.651 116.006 124.513 116.041C124.22 116.142 123.926 116.248 123.638 116.359C123.525 116.403 123.43 116.481 123.365 116.583C123.299 116.685 123.269 116.805 123.277 116.926C123.285 117.046 123.331 117.161 123.409 117.254C123.487 117.347 123.592 117.412 123.709 117.44V117.437Z" fill="#35C0ED"/>
</g>
<g opacity="0.3">
<path d="M114.559 125.307C114.69 125.338 114.828 125.323 114.949 125.262C115.069 125.201 115.164 125.099 115.216 124.975C115.329 124.705 115.45 124.433 115.576 124.166C115.61 124.098 115.63 124.025 115.635 123.949C115.64 123.873 115.63 123.797 115.605 123.725C115.58 123.654 115.541 123.588 115.491 123.531C115.44 123.475 115.378 123.429 115.31 123.397C115.241 123.364 115.166 123.346 115.09 123.343C115.015 123.34 114.939 123.353 114.868 123.38C114.797 123.406 114.732 123.447 114.677 123.499C114.622 123.552 114.578 123.615 114.548 123.684C114.416 123.964 114.289 124.251 114.17 124.535C114.141 124.604 114.126 124.678 114.125 124.753C114.125 124.827 114.14 124.901 114.168 124.97C114.197 125.039 114.238 125.102 114.291 125.155C114.344 125.208 114.407 125.25 114.476 125.278C114.503 125.29 114.531 125.299 114.559 125.307Z" fill="#35C0ED"/>
<path d="M129.118 155.029C129.045 155.01 128.975 154.976 128.915 154.93C128.854 154.884 128.803 154.825 128.766 154.759C128.728 154.693 128.704 154.619 128.695 154.544C128.687 154.468 128.693 154.391 128.715 154.318C128.737 154.245 128.773 154.176 128.822 154.118C128.87 154.059 128.93 154.01 128.998 153.975C129.066 153.94 129.14 153.919 129.216 153.913C129.292 153.907 129.368 153.916 129.441 153.941C130.013 154.11 130.602 154.258 131.196 154.382C131.341 154.415 131.467 154.503 131.547 154.628C131.628 154.753 131.656 154.904 131.626 155.05C131.596 155.195 131.51 155.323 131.387 155.406C131.264 155.489 131.113 155.52 130.967 155.494C130.709 155.443 130.454 155.385 130.201 155.32C129.836 155.232 129.473 155.134 129.118 155.029ZM133.503 155.311C133.514 155.161 133.583 155.021 133.697 154.922C133.81 154.824 133.959 154.774 134.109 154.784C134.71 154.826 135.318 154.843 135.918 154.835C136.065 154.838 136.206 154.898 136.31 155.002C136.414 155.106 136.473 155.247 136.475 155.394C136.477 155.542 136.422 155.684 136.321 155.791C136.22 155.899 136.081 155.963 135.934 155.97C135.303 155.979 134.662 155.961 134.03 155.917C133.956 155.912 133.883 155.893 133.816 155.859C133.749 155.826 133.689 155.78 133.641 155.724C133.592 155.668 133.554 155.602 133.531 155.531C133.507 155.461 133.498 155.386 133.503 155.311ZM126.219 153.95C125.644 153.69 125.071 153.401 124.518 153.092C124.453 153.055 124.396 153.007 124.349 152.948C124.303 152.889 124.268 152.822 124.248 152.75C124.227 152.678 124.221 152.603 124.23 152.529C124.238 152.454 124.262 152.383 124.298 152.317C124.334 152.252 124.383 152.194 124.442 152.148C124.501 152.102 124.568 152.067 124.64 152.047C124.712 152.026 124.787 152.02 124.861 152.029C124.935 152.037 125.007 152.06 125.073 152.097C125.598 152.39 126.144 152.664 126.688 152.911C126.82 152.967 126.926 153.072 126.984 153.203C127.043 153.334 127.049 153.483 127.003 153.619C126.956 153.754 126.86 153.868 126.733 153.935C126.606 154.003 126.458 154.02 126.319 153.983C126.285 153.975 126.252 153.964 126.219 153.95ZM138.372 155.238C138.361 155.164 138.364 155.089 138.382 155.017C138.4 154.944 138.431 154.876 138.476 154.816C138.52 154.756 138.575 154.705 138.639 154.666C138.703 154.627 138.774 154.602 138.847 154.59C139.441 154.5 140.038 154.382 140.622 154.241C140.769 154.206 140.923 154.23 141.052 154.309C141.18 154.388 141.272 154.514 141.308 154.661C141.343 154.807 141.319 154.961 141.24 155.09C141.162 155.219 141.035 155.311 140.889 155.346C140.276 155.494 139.644 155.618 139.019 155.713C138.945 155.725 138.87 155.721 138.797 155.704C138.725 155.686 138.657 155.654 138.597 155.61C138.537 155.566 138.486 155.51 138.447 155.446C138.409 155.383 138.383 155.312 138.372 155.238ZM121.93 151.402C121.426 151.019 120.935 150.614 120.46 150.191C120.4 150.143 120.351 150.082 120.315 150.014C120.279 149.946 120.257 149.871 120.251 149.795C120.245 149.718 120.255 149.641 120.28 149.568C120.304 149.495 120.344 149.428 120.395 149.37C120.447 149.313 120.509 149.267 120.579 149.235C120.649 149.203 120.725 149.185 120.802 149.183C120.879 149.181 120.956 149.195 121.027 149.223C121.099 149.252 121.164 149.295 121.218 149.349C121.666 149.75 122.137 150.137 122.614 150.497C122.718 150.576 122.792 150.688 122.823 150.815C122.855 150.942 122.841 151.076 122.785 151.194C122.729 151.312 122.634 151.407 122.516 151.463C122.398 151.519 122.264 151.533 122.137 151.502C122.062 151.483 121.992 151.449 121.93 151.402ZM118.303 147.974C117.894 147.492 117.5 146.987 117.133 146.473C117.087 146.412 117.053 146.343 117.034 146.269C117.015 146.196 117.011 146.119 117.023 146.043C117.034 145.968 117.06 145.896 117.1 145.831C117.14 145.766 117.192 145.71 117.254 145.666C117.316 145.621 117.386 145.59 117.461 145.573C117.535 145.557 117.612 145.555 117.687 145.569C117.762 145.583 117.833 145.612 117.897 145.653C117.96 145.695 118.015 145.75 118.057 145.813C118.406 146.301 118.78 146.781 119.169 147.24C119.217 147.297 119.254 147.363 119.277 147.434C119.299 147.505 119.308 147.58 119.302 147.654C119.296 147.728 119.275 147.801 119.241 147.867C119.207 147.933 119.16 147.992 119.103 148.04C119.046 148.088 118.981 148.125 118.91 148.148C118.839 148.17 118.764 148.179 118.69 148.173C118.615 148.167 118.543 148.146 118.477 148.112C118.411 148.078 118.352 148.031 118.303 147.974ZM115.51 143.841C115.215 143.281 114.94 142.702 114.694 142.121C114.663 142.052 114.646 141.977 114.644 141.902C114.642 141.826 114.655 141.751 114.683 141.68C114.711 141.61 114.752 141.546 114.805 141.492C114.857 141.437 114.92 141.394 114.99 141.365C115.06 141.335 115.135 141.32 115.21 141.32C115.286 141.319 115.361 141.334 115.431 141.364C115.5 141.393 115.564 141.435 115.617 141.489C115.67 141.543 115.711 141.607 115.739 141.677C115.974 142.23 116.235 142.78 116.515 143.313C116.552 143.379 116.576 143.452 116.585 143.528C116.593 143.604 116.587 143.68 116.565 143.753C116.544 143.826 116.508 143.894 116.46 143.953C116.412 144.012 116.352 144.06 116.285 144.096C116.217 144.131 116.144 144.153 116.068 144.159C115.992 144.165 115.916 144.156 115.843 144.133C115.771 144.109 115.704 144.071 115.647 144.021C115.59 143.971 115.543 143.91 115.51 143.841ZM113.685 139.195C113.52 138.582 113.379 137.958 113.266 137.335C113.253 137.262 113.254 137.187 113.27 137.114C113.286 137.041 113.316 136.972 113.358 136.911C113.401 136.85 113.455 136.798 113.518 136.757C113.58 136.717 113.65 136.689 113.724 136.676C113.797 136.663 113.872 136.664 113.945 136.68C114.018 136.696 114.087 136.726 114.148 136.768C114.209 136.811 114.262 136.865 114.302 136.927C114.342 136.99 114.37 137.06 114.383 137.133C114.49 137.724 114.624 138.318 114.781 138.899C114.803 138.972 114.811 139.049 114.803 139.124C114.795 139.2 114.772 139.274 114.735 139.34C114.698 139.407 114.648 139.466 114.588 139.513C114.528 139.56 114.46 139.594 114.386 139.614C114.312 139.634 114.236 139.639 114.16 139.628C114.085 139.618 114.012 139.592 113.946 139.553C113.881 139.514 113.824 139.462 113.779 139.4C113.734 139.339 113.702 139.269 113.685 139.195ZM112.925 134.258C112.899 133.626 112.9 132.986 112.925 132.353C112.926 132.278 112.942 132.203 112.973 132.133C113.004 132.063 113.048 132.001 113.103 131.949C113.158 131.896 113.223 131.856 113.295 131.829C113.366 131.803 113.441 131.791 113.517 131.794C113.593 131.797 113.668 131.816 113.736 131.848C113.805 131.881 113.866 131.927 113.917 131.984C113.967 132.04 114.006 132.107 114.031 132.179C114.055 132.251 114.065 132.327 114.059 132.402C114.034 133.003 114.033 133.611 114.059 134.211C114.062 134.286 114.051 134.36 114.025 134.43C113.999 134.5 113.96 134.564 113.91 134.619C113.859 134.674 113.798 134.718 113.731 134.75C113.663 134.781 113.59 134.799 113.515 134.802C113.441 134.805 113.366 134.793 113.296 134.768C113.226 134.742 113.162 134.703 113.107 134.652C113.052 134.602 113.008 134.541 112.976 134.473C112.945 134.405 112.927 134.332 112.924 134.258H112.925ZM113.268 129.283C113.351 128.823 113.448 128.364 113.558 127.912C113.598 127.749 113.639 127.586 113.682 127.424C113.7 127.352 113.733 127.284 113.778 127.224C113.823 127.164 113.88 127.114 113.945 127.077C114.01 127.04 114.081 127.015 114.155 127.006C114.23 126.997 114.305 127.002 114.377 127.022C114.449 127.042 114.517 127.075 114.576 127.12C114.635 127.165 114.685 127.222 114.722 127.286C114.76 127.351 114.784 127.422 114.794 127.496C114.804 127.57 114.799 127.645 114.78 127.717C114.738 127.87 114.699 128.023 114.661 128.181C114.557 128.61 114.463 129.048 114.385 129.482C114.372 129.555 114.345 129.625 114.305 129.688C114.265 129.751 114.212 129.805 114.151 129.848C114.09 129.891 114.021 129.921 113.948 129.937C113.875 129.953 113.8 129.954 113.726 129.941L113.692 129.934C113.55 129.9 113.428 129.812 113.349 129.69C113.27 129.568 113.241 129.42 113.268 129.277V129.283Z" fill="#35C0ED"/>
<path d="M143.221 154.691C143.334 154.719 143.453 154.711 143.562 154.668C143.848 154.556 144.137 154.438 144.422 154.311C144.49 154.28 144.552 154.237 144.603 154.183C144.655 154.129 144.695 154.066 144.722 153.996C144.749 153.926 144.762 153.852 144.76 153.778C144.758 153.703 144.742 153.629 144.712 153.561C144.682 153.493 144.638 153.431 144.584 153.38C144.53 153.328 144.467 153.288 144.397 153.261C144.328 153.234 144.253 153.221 144.179 153.223C144.104 153.225 144.031 153.241 143.962 153.271C143.692 153.391 143.418 153.501 143.146 153.611C143.033 153.655 142.938 153.734 142.873 153.836C142.809 153.938 142.779 154.059 142.787 154.179C142.796 154.3 142.842 154.414 142.921 154.506C142.999 154.598 143.105 154.663 143.222 154.691H143.221Z" fill="#35C0ED"/>
</g>
<path d="M146.089 147.366C146.134 147.333 146.166 147.287 146.183 147.234C146.199 147.181 146.199 147.125 146.182 147.072L145.18 144.002C146.158 142.826 146.938 141.498 147.488 140.071L150.655 139.449C150.709 139.438 150.759 139.411 150.797 139.371C150.834 139.331 150.859 139.279 150.866 139.225L151.402 135.388C151.41 135.333 151.4 135.278 151.375 135.229C151.349 135.18 151.309 135.14 151.26 135.115L148.382 133.653C148.241 132.131 147.854 130.641 147.234 129.243L149.034 126.564C149.064 126.519 149.08 126.465 149.078 126.41C149.077 126.355 149.058 126.302 149.025 126.258L146.689 123.168C146.655 123.124 146.609 123.092 146.557 123.075C146.504 123.059 146.447 123.059 146.395 123.076L143.325 124.078C142.149 123.101 140.821 122.321 139.395 121.77L138.772 118.603C138.761 118.549 138.734 118.5 138.694 118.462C138.654 118.424 138.603 118.399 138.548 118.391L134.711 117.856C134.656 117.848 134.601 117.858 134.552 117.884C134.503 117.909 134.463 117.949 134.438 117.999L132.977 120.876C131.454 121.016 129.964 121.404 128.566 122.024L125.887 120.224C125.841 120.193 125.787 120.178 125.732 120.18C125.677 120.181 125.624 120.2 125.581 120.233L122.491 122.569C122.447 122.602 122.414 122.649 122.398 122.701C122.381 122.754 122.382 122.81 122.399 122.863L123.4 125.934C122.422 127.11 121.643 128.437 121.092 129.864L117.926 130.486C117.872 130.497 117.822 130.524 117.784 130.564C117.746 130.604 117.722 130.655 117.714 130.71L117.178 134.547C117.171 134.602 117.181 134.658 117.206 134.707C117.232 134.755 117.272 134.795 117.321 134.82L120.198 136.282C120.339 137.804 120.727 139.294 121.347 140.692L119.546 143.371C119.516 143.417 119.5 143.47 119.502 143.525C119.503 143.58 119.522 143.633 119.555 143.677L121.891 146.767C121.925 146.811 121.971 146.844 122.024 146.86C122.076 146.876 122.133 146.876 122.185 146.859L125.255 145.857C126.431 146.835 127.759 147.614 129.186 148.165L129.809 151.332C129.819 151.386 129.847 151.435 129.887 151.473C129.927 151.511 129.978 151.536 130.032 151.544L133.869 152.076C133.924 152.084 133.98 152.074 134.029 152.049C134.078 152.023 134.117 151.983 134.142 151.933L135.604 149.056C137.127 148.916 138.617 148.528 140.015 147.908L142.693 149.708C142.739 149.739 142.793 149.754 142.848 149.753C142.903 149.751 142.956 149.732 143 149.699L146.089 147.366Z" fill="#2762B0"/>
<path d="M133.015 138.761C132.082 138.382 131.333 137.655 130.925 136.735C130.517 135.815 130.482 134.772 130.827 133.826C131.172 132.88 131.87 132.105 132.775 131.663C133.679 131.221 134.72 131.147 135.678 131.457C136.636 131.767 137.437 132.437 137.911 133.324C138.386 134.212 138.498 135.25 138.223 136.219C137.949 137.187 137.31 138.012 136.44 138.519C135.57 139.026 134.537 139.176 133.559 138.937C133.374 138.891 133.192 138.833 133.015 138.761ZM133.315 132.403C132.665 132.679 132.134 133.178 131.818 133.81C131.502 134.442 131.422 135.166 131.591 135.852C131.76 136.538 132.168 137.141 132.742 137.554C133.315 137.966 134.017 138.161 134.721 138.103C135.426 138.046 136.086 137.739 136.585 137.238C137.083 136.738 137.387 136.076 137.442 135.371C137.498 134.667 137.3 133.966 136.885 133.394C136.47 132.822 135.865 132.416 135.179 132.25C134.557 132.099 133.904 132.153 133.315 132.403Z" fill="white"/>
<path d="M132.397 144.037C132.714 144.114 133.036 144.176 133.363 144.221C133.466 144.236 133.57 144.248 133.669 144.26C134.178 144.313 134.69 144.327 135.2 144.299H135.221H135.28L135.394 144.292C135.442 144.288 135.488 144.269 135.524 144.238C135.561 144.207 135.587 144.165 135.599 144.119C135.604 144.096 135.606 144.072 135.604 144.048C135.599 143.989 135.571 143.933 135.525 143.894C135.48 143.855 135.421 143.835 135.361 143.839C133.924 143.946 132.482 143.711 131.154 143.154C129.825 142.597 128.647 141.734 127.716 140.634C126.785 139.535 126.128 138.23 125.798 136.828C125.467 135.426 125.474 133.965 125.816 132.566C126.363 130.285 127.768 128.302 129.739 127.03C131.71 125.757 134.096 125.294 136.4 125.735C138.704 126.176 140.75 127.488 142.112 129.398C143.473 131.308 144.047 133.67 143.713 135.992C143.67 136.298 143.612 136.601 143.539 136.902C143.223 138.2 142.626 139.412 141.789 140.453C141.751 140.5 141.734 140.559 141.741 140.619C141.747 140.679 141.777 140.734 141.823 140.772C141.87 140.809 141.93 140.826 141.99 140.82C142.049 140.813 142.104 140.784 142.142 140.737C143.021 139.645 143.648 138.372 143.979 137.01C144.056 136.695 144.116 136.377 144.161 136.055C144.497 133.624 143.886 131.158 142.457 129.165C141.027 127.172 138.886 125.803 136.477 125.342C134.068 124.88 131.573 125.361 129.508 126.685C127.443 128.009 125.965 130.075 125.378 132.457C125.301 132.774 125.239 133.097 125.194 133.425C124.868 135.772 125.424 138.156 126.754 140.117C128.084 142.077 130.094 143.476 132.395 144.041L132.397 144.037Z" fill="white"/>
<path d="M92.1686 150.693C131.231 150.693 162.897 119.027 162.897 79.9651C162.897 40.903 131.231 9.23694 92.1686 9.23694C53.1065 9.23694 21.4404 40.903 21.4404 79.9651C21.4404 119.027 53.1065 150.693 92.1686 150.693Z" fill="#A1E8FF"/>
<g opacity="0.3">
<path d="M31.8755 50.4342C31.915 50.3543 31.9698 50.2829 32.037 50.2243C32.1041 50.1656 32.1821 50.1208 32.2666 50.0924C32.351 50.0639 32.4403 50.0524 32.5292 50.0586C32.6181 50.0647 32.705 50.0883 32.7848 50.128C33.4369 50.4518 34.1127 50.7518 34.7939 51.0205C34.9592 51.0855 35.0923 51.2128 35.1647 51.3749C35.2371 51.5371 35.2431 51.7212 35.1812 51.8877L35.1766 51.9007C35.1106 52.0681 34.9808 52.2025 34.8157 52.2742C34.6507 52.346 34.4639 52.3493 34.2964 52.2834C33.5792 52.0009 32.8674 51.6856 32.1809 51.3442C32.0312 51.2697 31.9144 51.1426 31.8527 50.9872C31.7909 50.8319 31.7887 50.6592 31.8464 50.5023C31.8546 50.479 31.8643 50.4562 31.8755 50.4342ZM38.1976 52.0989C38.9087 52.2719 39.6335 52.4158 40.353 52.5275C40.5308 52.555 40.6904 52.6521 40.7967 52.7972C40.903 52.9424 40.9473 53.1239 40.9198 53.3017C40.8923 53.4795 40.7952 53.6392 40.65 53.7455C40.5049 53.8518 40.3234 53.896 40.1456 53.8685C39.3886 53.7514 38.6255 53.5998 37.8769 53.4177C37.7904 53.3966 37.7088 53.3587 37.6369 53.3061C37.5651 53.2534 37.5042 53.1872 37.458 53.1111C37.4117 53.0349 37.3809 52.9504 37.3673 52.8624C37.3537 52.7743 37.3575 52.6845 37.3787 52.598C37.3848 52.572 37.3925 52.5465 37.4016 52.5214C37.4597 52.3658 37.5727 52.2369 37.7194 52.159C37.8661 52.0812 38.0362 52.0598 38.1976 52.0989ZM43.9098 52.8268C44.6392 52.8375 45.3778 52.8161 46.1057 52.7633C46.2831 52.7541 46.457 52.8148 46.5902 52.9324C46.7233 53.05 46.8051 53.2151 46.8179 53.3923C46.8307 53.5695 46.7736 53.7446 46.6587 53.8801C46.5439 54.0157 46.3805 54.1008 46.2037 54.1173C45.4383 54.1724 44.6583 54.1938 43.8906 54.1838C43.7998 54.1853 43.7095 54.1686 43.6252 54.1345C43.5409 54.1005 43.4644 54.0498 43.4 53.9856C43.3357 53.9214 43.2849 53.845 43.2506 53.7608C43.2164 53.6766 43.1994 53.5863 43.2007 53.4955C43.202 53.4046 43.2215 53.3149 43.2581 53.2317C43.2947 53.1485 43.3476 53.0735 43.4138 53.0111C43.4799 52.9487 43.5579 52.9003 43.6431 52.8686C43.7283 52.837 43.819 52.8228 43.9098 52.8268ZM49.6411 52.2589C50.3552 52.1058 51.0708 51.9198 51.7688 51.7063C51.8543 51.6802 51.944 51.6713 52.0329 51.6799C52.1218 51.6886 52.2081 51.7146 52.2869 51.7566C52.3658 51.7986 52.4355 51.8558 52.4923 51.9247C52.549 51.9937 52.5916 52.0732 52.6177 52.1586C52.6437 52.244 52.6527 52.3338 52.644 52.4227C52.6354 52.5116 52.6093 52.5979 52.5673 52.6767C52.5253 52.7555 52.4682 52.8253 52.3992 52.882C52.3302 52.9388 52.2508 52.9814 52.1653 53.0074C51.4313 53.2317 50.6774 53.4276 49.9258 53.5891C49.7498 53.6268 49.566 53.5931 49.4149 53.4954C49.2638 53.3976 49.1576 53.2439 49.1198 53.0679C49.0823 52.8919 49.1161 52.7083 49.2139 52.5572C49.3116 52.4061 49.4652 52.2999 49.6411 52.2619V52.2589ZM55.1029 50.4281C55.7634 50.1219 56.4202 49.7813 57.0554 49.4177C57.2116 49.3284 57.3969 49.3048 57.5705 49.3521C57.7441 49.3994 57.8919 49.5137 57.9812 49.6699C58.0705 49.8261 58.0941 50.0114 58.0468 50.185C57.9995 50.3586 57.8852 50.5064 57.729 50.5957C57.0616 50.9784 56.3696 51.3358 55.6747 51.6588C55.5934 51.6999 55.5047 51.7241 55.4139 51.7302C55.3231 51.7363 55.2319 51.7241 55.1459 51.6942C55.0599 51.6644 54.9808 51.6175 54.9133 51.5565C54.8457 51.4954 54.7912 51.4214 54.7528 51.3389C54.7145 51.2563 54.6931 51.1669 54.69 51.0759C54.6869 50.9849 54.7022 50.8942 54.7348 50.8093C54.7675 50.7243 54.8169 50.6468 54.8801 50.5813C54.9434 50.5158 55.0191 50.4637 55.1029 50.4281ZM60.0229 47.4354C60.6007 46.9884 61.1656 46.5123 61.7067 46.0179C61.8393 45.8961 62.0148 45.8319 62.1947 45.8395C62.3745 45.8471 62.544 45.9259 62.6658 46.0584C62.7876 46.191 62.8517 46.3665 62.8441 46.5463C62.8365 46.7262 62.7578 46.8957 62.6252 47.0175C62.0596 47.5372 61.4649 48.0393 60.8571 48.5084C60.7871 48.5661 60.7062 48.6092 60.6192 48.635C60.5322 48.6609 60.4409 48.669 60.3507 48.6589C60.2605 48.6489 60.1733 48.6208 60.0942 48.5764C60.015 48.532 59.9456 48.4721 59.89 48.4004C59.8344 48.3287 59.7938 48.2465 59.7705 48.1588C59.7473 48.0711 59.7419 47.9796 59.7546 47.8897C59.7674 47.7999 59.798 47.7135 59.8447 47.6357C59.8915 47.5579 59.9533 47.4903 60.0267 47.4369L60.0229 47.4354ZM70.5784 24.5554C70.6673 24.5491 70.7566 24.5603 70.8412 24.5885C70.9258 24.6167 71.004 24.6613 71.0713 24.7197C71.1386 24.7781 71.1938 24.8493 71.2336 24.929C71.2734 25.0088 71.2971 25.0956 71.3033 25.1846C71.3568 25.95 71.3798 26.7291 71.3653 27.4984C71.3624 27.6782 71.2882 27.8496 71.1591 27.9747C71.0299 28.0999 70.8563 28.1686 70.6764 28.1658C70.4965 28.1629 70.3252 28.0888 70.2 27.9596C70.0748 27.8304 70.0061 27.6568 70.009 27.4769C70.0205 26.746 70.0006 26.0066 69.9493 25.2795C69.9429 25.1906 69.9542 25.1013 69.9824 25.0168C70.0106 24.9323 70.0552 24.8542 70.1136 24.7869C70.1721 24.7196 70.2432 24.6646 70.323 24.6248C70.4027 24.5851 70.4895 24.5615 70.5784 24.5554ZM64.1552 43.4277C64.6191 42.8644 65.063 42.2743 65.4763 41.6735C65.5811 41.5333 65.7359 41.4391 65.9085 41.4105C66.0811 41.3819 66.2581 41.4211 66.4025 41.5199C66.5469 41.6187 66.6474 41.7695 66.6832 41.9408C66.719 42.112 66.6873 42.2905 66.5946 42.4389C66.1598 43.0718 65.6914 43.6933 65.2031 44.2865C65.1012 44.4107 64.9586 44.4947 64.8007 44.5236C64.6427 44.5524 64.4796 44.5243 64.3404 44.4442C64.2013 44.3641 64.095 44.2372 64.0406 44.0861C63.9863 43.935 63.9873 43.7695 64.0435 43.6191C64.0699 43.5496 64.1076 43.4849 64.1552 43.4277ZM70.4782 30.4681C70.6558 30.4961 70.8151 30.5936 70.921 30.7389C71.0269 30.8843 71.0708 31.0657 71.043 31.2434C70.9244 32.0019 70.7705 32.765 70.5838 33.5121C70.541 33.6868 70.4304 33.8374 70.2766 33.9307C70.1227 34.024 69.9381 34.0524 69.7633 34.0096C69.5885 33.9667 69.4379 33.8562 69.3446 33.7024C69.2513 33.5485 69.2229 33.3638 69.2658 33.1891C69.4395 32.4788 69.5857 31.754 69.6982 31.0329C69.727 30.8555 69.8247 30.6966 69.9701 30.5908C70.1154 30.4851 70.2966 30.4409 70.4743 30.4681H70.4782ZM67.288 38.5989C67.6133 37.946 67.9149 37.2709 68.1835 36.592C68.2507 36.4277 68.3795 36.2963 68.5424 36.2258C68.7053 36.1554 68.8893 36.1515 69.055 36.215C69.2207 36.2786 69.3549 36.4045 69.429 36.5658C69.503 36.7271 69.5109 36.911 69.451 37.078C69.4489 37.0825 69.4471 37.0871 69.4456 37.0918C69.1624 37.8067 68.8448 38.5177 68.5027 39.2043C68.4236 39.3565 68.2898 39.4732 68.1282 39.5308C67.9666 39.5884 67.7892 39.5827 67.6316 39.5148C67.4741 39.447 67.348 39.322 67.2789 39.165C67.2097 39.008 67.2026 38.8306 67.2589 38.6685C67.2673 38.6433 67.2773 38.6195 67.288 38.5989Z" fill="#0B2952"/>
<path d="M69.6539 20.727C69.606 20.8567 69.5988 20.998 69.6333 21.1319C69.7205 21.471 69.8016 21.8169 69.8751 22.1613C69.9171 22.3329 70.0243 22.4814 70.1739 22.5752C70.3236 22.669 70.5039 22.7008 70.6766 22.6639C70.8493 22.6269 71.0008 22.5241 71.099 22.3773C71.1972 22.2304 71.2342 22.0511 71.2023 21.8774C71.1258 21.5154 71.0393 21.151 70.9474 20.7943C70.9113 20.6545 70.8315 20.5298 70.7197 20.4383C70.6078 20.3469 70.4697 20.2936 70.3254 20.2861C70.1811 20.2786 70.0382 20.3173 69.9175 20.3966C69.7967 20.4759 69.7044 20.5916 69.6539 20.727Z" fill="url(#paint0_linear_59_2093)"/>
</g>
<g opacity="0.3">
<path d="M56.8495 4.26574C56.794 4.41733 56.7943 4.58371 56.8504 4.73506C56.9065 4.88641 57.0147 5.01282 57.1556 5.09161C57.4618 5.26382 57.7679 5.44599 58.0649 5.63198C58.2176 5.7205 58.3987 5.7461 58.5699 5.70337C58.7411 5.66063 58.8889 5.55292 58.9821 5.40305C59.0752 5.25317 59.1064 5.07292 59.0689 4.90048C59.0314 4.72805 58.9283 4.57698 58.7813 4.47929C58.4667 4.28335 58.1445 4.092 57.8238 3.9106C57.6672 3.82211 57.4818 3.79942 57.3085 3.84749C57.1351 3.89557 56.9879 4.01049 56.8992 4.16701C56.8801 4.1986 56.8635 4.23161 56.8495 4.26574Z" fill="url(#paint1_linear_59_2093)"/>
<path d="M19.3705 16.5081C19.4052 16.4255 19.456 16.3506 19.5198 16.2877C19.5836 16.2248 19.6592 16.1752 19.7423 16.1417C19.8253 16.1082 19.9142 16.0914 20.0038 16.0924C20.0934 16.0934 20.1819 16.1121 20.2642 16.1475C20.3465 16.1828 20.421 16.2341 20.4834 16.2984C20.5458 16.3627 20.5949 16.4386 20.6278 16.522C20.6607 16.6053 20.6767 16.6943 20.6751 16.7839C20.6734 16.8734 20.654 16.9618 20.6181 17.0438C20.3364 17.699 20.0823 18.3771 19.8527 19.066C19.7932 19.2338 19.6703 19.3714 19.5103 19.4494C19.3503 19.5274 19.1661 19.5395 18.9973 19.483C18.8285 19.4265 18.6887 19.306 18.6079 19.1474C18.5271 18.9888 18.5118 18.8048 18.5653 18.6351C18.6673 18.3366 18.7717 18.0411 18.8783 17.7488C19.0299 17.3309 19.1967 16.9137 19.3705 16.5081ZM18.4252 21.6729C18.6013 21.7076 18.7565 21.8105 18.8569 21.9592C18.9573 22.108 18.9947 22.2904 18.961 22.4667C18.8271 23.1739 18.7222 23.8941 18.648 24.6098C18.6295 24.7887 18.5407 24.953 18.4011 25.0664C18.2615 25.1799 18.0826 25.2333 17.9036 25.2148C17.7247 25.1963 17.5604 25.1075 17.4469 24.9679C17.3335 24.8283 17.2801 24.6494 17.2986 24.4705C17.3751 23.7188 17.4869 22.9611 17.6277 22.2171C17.635 22.1792 17.6452 22.1418 17.6583 22.1054C17.714 21.954 17.8218 21.8274 17.9623 21.7482C18.1028 21.669 18.2669 21.6423 18.4252 21.6729ZM21.0582 13.2184C21.4478 12.5716 21.8703 11.9325 22.315 11.3194C22.4221 11.1777 22.5806 11.0837 22.7563 11.0575C22.9321 11.0313 23.111 11.0751 23.2549 11.1793C23.3987 11.2836 23.496 11.4401 23.5257 11.6153C23.5555 11.7904 23.5154 11.9703 23.4141 12.1162C22.9916 12.6979 22.5905 13.3049 22.2208 13.9187C22.1762 13.9978 22.1162 14.067 22.0443 14.1225C21.9724 14.1779 21.8902 14.2184 21.8024 14.2415C21.7146 14.2646 21.6231 14.2698 21.5333 14.2569C21.4434 14.2441 21.3571 14.2133 21.2793 14.1665C21.2016 14.1196 21.134 14.0577 21.0806 13.9843C21.0272 13.9109 20.9891 13.8275 20.9685 13.7391C20.9479 13.6508 20.9452 13.5591 20.9606 13.4697C20.976 13.3802 21.0092 13.2948 21.0582 13.2184ZM17.8275 27.4624C17.9165 27.4592 18.0053 27.4736 18.0887 27.5048C18.1722 27.536 18.2486 27.5834 18.3138 27.6442C18.3789 27.7049 18.4314 27.778 18.4682 27.8591C18.5051 27.9402 18.5256 28.0278 18.5286 28.1168C18.5538 28.8347 18.6051 29.5603 18.6946 30.2729C18.7073 30.3624 18.702 30.4535 18.679 30.5409C18.656 30.6283 18.6157 30.7102 18.5606 30.7819C18.5056 30.8535 18.4367 30.9134 18.3582 30.9581C18.2796 31.0028 18.1929 31.0314 18.1032 31.0421C18.0135 31.0529 17.9225 31.0456 17.8356 31.0207C17.7487 30.9959 17.6677 30.9539 17.5972 30.8973C17.5268 30.8407 17.4683 30.7706 17.4253 30.6911C17.3823 30.6116 17.3556 30.5244 17.3468 30.4344C17.2572 29.6836 17.1983 28.9197 17.1723 28.1635C17.1692 28.0744 17.1837 27.9856 17.215 27.9022C17.2463 27.8187 17.2937 27.7423 17.3545 27.6771C17.4154 27.612 17.4885 27.5595 17.5696 27.5227C17.6508 27.4858 17.7384 27.4654 17.8275 27.4624ZM24.6831 8.4806C25.2051 7.9364 25.7546 7.40904 26.3264 6.90541C26.4615 6.78595 26.6385 6.72505 26.8185 6.7361C26.9985 6.74715 27.1667 6.82926 27.2862 6.96435C27.4057 7.09944 27.4666 7.27646 27.4555 7.45646C27.4445 7.63645 27.3624 7.80469 27.2273 7.92415C26.6877 8.40023 26.1626 8.90309 25.6666 9.4205C25.6058 9.48812 25.532 9.54283 25.4496 9.58138C25.3672 9.61992 25.2779 9.64151 25.187 9.64487C25.0961 9.64823 25.0055 9.63329 24.9204 9.60093C24.8354 9.56858 24.7578 9.51947 24.6921 9.45653C24.6264 9.39358 24.5741 9.31808 24.5382 9.23451C24.5023 9.15094 24.4835 9.06101 24.483 8.97005C24.4825 8.87908 24.5003 8.78895 24.5354 8.705C24.5704 8.62105 24.6219 8.545 24.6869 8.48136L24.6831 8.4806ZM29.2586 4.65362C29.8885 4.23572 30.5437 3.83848 31.2058 3.47491C31.2838 3.43199 31.3696 3.40487 31.4581 3.39508C31.5466 3.3853 31.6362 3.39305 31.7218 3.41789C31.8073 3.44273 31.8871 3.48417 31.9566 3.53986C32.0262 3.59554 32.084 3.66437 32.1269 3.74242C32.1699 3.82047 32.197 3.9062 32.2068 3.99474C32.2166 4.08327 32.2088 4.17286 32.184 4.2584C32.1591 4.34393 32.1177 4.42374 32.062 4.49326C32.0063 4.56278 31.9375 4.62065 31.8594 4.66357C31.2303 5.00953 30.608 5.38687 30.0095 5.78411C29.8596 5.87694 29.6794 5.90781 29.5072 5.87019C29.3349 5.83257 29.1841 5.7294 29.0865 5.58253C28.989 5.43566 28.9524 5.2566 28.9845 5.08323C29.0166 4.90987 29.1149 4.7558 29.2586 4.65362ZM34.559 1.91733C35.2654 1.64562 35.9918 1.40146 36.7166 1.19021C36.8032 1.16121 36.8948 1.15001 36.9858 1.15726C37.0769 1.16452 37.1655 1.19009 37.2464 1.23244C37.3273 1.27479 37.3988 1.33304 37.4567 1.40371C37.5145 1.47437 37.5575 1.55599 37.583 1.64368C37.6086 1.73136 37.6161 1.82329 37.6053 1.91397C37.5944 2.00464 37.5653 2.09219 37.5198 2.17135C37.4743 2.25052 37.4132 2.31967 37.3403 2.37466C37.2674 2.42966 37.1841 2.46935 37.0955 2.49138C36.4066 2.69191 35.7178 2.92459 35.0458 3.18024C34.8778 3.24479 34.6911 3.23997 34.5266 3.16684C34.3622 3.0937 34.2336 2.95825 34.169 2.79027C34.1045 2.62229 34.1093 2.43555 34.1824 2.27112C34.2556 2.1067 34.391 1.97806 34.559 1.91351V1.91733ZM40.3301 0.401853C41.0794 0.291636 41.841 0.212036 42.5956 0.165346C42.6845 0.159869 42.7736 0.171955 42.8579 0.200916C42.9421 0.229877 43.0198 0.275145 43.0866 0.334136C43.1533 0.393127 43.2078 0.464685 43.2468 0.544725C43.2859 0.624765 43.3089 0.711719 43.3143 0.800623C43.3198 0.889527 43.3077 0.97864 43.2788 1.06287C43.2498 1.14711 43.2045 1.22481 43.1455 1.29155C43.0866 1.35829 43.015 1.41275 42.935 1.45183C42.8549 1.49092 42.768 1.51385 42.6791 1.51933C41.9627 1.56372 41.2394 1.6395 40.5283 1.74436C40.4387 1.76065 40.3468 1.75874 40.2579 1.73877C40.1691 1.7188 40.0852 1.68116 40.0112 1.62809C39.9372 1.57503 39.8746 1.50762 39.8272 1.42988C39.7798 1.35214 39.7485 1.26565 39.7352 1.17558C39.7219 1.0855 39.7269 0.993662 39.7498 0.905538C39.7727 0.817414 39.8131 0.7348 39.8686 0.662612C39.9241 0.590425 39.9936 0.530139 40.0728 0.485342C40.1521 0.440544 40.2396 0.412152 40.3301 0.401853ZM46.3001 0.19137C47.0533 0.248774 47.8133 0.339092 48.5604 0.460024C48.6483 0.474247 48.7326 0.505653 48.8084 0.552449C48.8842 0.599246 48.9501 0.660515 49.0022 0.732761C49.0543 0.805007 49.0917 0.886815 49.1122 0.973512C49.1328 1.06021 49.136 1.1501 49.1218 1.23805C49.1076 1.32599 49.0761 1.41028 49.0293 1.48609C48.9825 1.56191 48.9213 1.62776 48.849 1.67989C48.7768 1.73202 48.695 1.76941 48.6083 1.78993C48.5216 1.81045 48.4317 1.81369 48.3437 1.79946C47.6342 1.68466 46.9125 1.59893 46.2006 1.54459C46.0212 1.53089 45.8546 1.44654 45.7373 1.31006C45.6201 1.17357 45.5618 0.996124 45.5753 0.816698C45.5804 0.753404 45.594 0.691092 45.6159 0.631472C45.6674 0.495212 45.7613 0.379112 45.8839 0.300288C46.0064 0.221464 46.151 0.184085 46.2963 0.193666L46.3001 0.19137ZM52.1608 1.29507C52.6965 1.45733 53.227 1.63797 53.7474 1.83085C53.9365 1.9005 54.1232 1.97244 54.3092 2.04669C54.3929 2.07843 54.4694 2.12662 54.5342 2.18841C54.599 2.2502 54.6507 2.32434 54.6864 2.40645C54.7221 2.48855 54.7409 2.57698 54.7419 2.66649C54.7428 2.75601 54.7259 2.84481 54.6919 2.92766C54.6593 3.01072 54.6107 3.08652 54.5487 3.15074C54.4867 3.21495 54.4127 3.2663 54.3309 3.30186C54.249 3.33741 54.161 3.35646 54.0718 3.35792C53.9825 3.35938 53.8939 3.34321 53.811 3.31035C53.6344 3.23994 53.4558 3.17131 53.2752 3.10446C52.78 2.92077 52.2733 2.74932 51.7666 2.59547C51.5945 2.54299 51.4503 2.42436 51.3657 2.26564C51.281 2.10692 51.2628 1.92109 51.315 1.74895L51.3288 1.70838C51.39 1.5485 51.5093 1.41763 51.6629 1.34198C51.8164 1.26633 51.9929 1.25149 52.1569 1.30043L52.1608 1.29507Z" fill="#35C0ED"/>
<path d="M18.4335 33.5338C18.3852 33.6645 18.378 33.8069 18.4128 33.9418C18.5062 34.2977 18.6088 34.6574 18.719 35.0133C18.7718 35.1854 18.8907 35.3294 19.0497 35.4137C19.2087 35.498 19.3946 35.5158 19.5667 35.463C19.7387 35.4102 19.8827 35.2912 19.9671 35.1323C20.0514 34.9733 20.0691 34.7874 20.0163 34.6153C19.913 34.2785 19.8158 33.9364 19.7278 33.5989C19.6911 33.4594 19.611 33.3353 19.499 33.2444C19.387 33.1535 19.249 33.1007 19.105 33.0935C18.9609 33.0864 18.8184 33.1252 18.6979 33.2045C18.5775 33.2838 18.4854 33.3994 18.435 33.5346L18.4335 33.5338Z" fill="#35C0ED"/>
</g>
<path d="M28.3907 39.4121C28.4239 39.4693 28.4741 39.5148 28.5343 39.5422C28.5945 39.5696 28.6617 39.5776 28.7267 39.5652L32.5116 38.8059C33.7704 40.1318 35.237 41.2434 36.8536 42.0971L37.1491 45.9432C37.1541 46.009 37.1795 46.0715 37.2218 46.1222C37.264 46.1728 37.321 46.209 37.3848 46.2257L41.8647 47.3952C41.9286 47.4119 41.9961 47.4082 42.0578 47.3848C42.1195 47.3613 42.1724 47.3192 42.2091 47.2643L44.3469 44.0535C46.1742 44.0991 47.9968 43.8465 49.7429 43.3057L52.6728 45.8177C52.7228 45.8608 52.7851 45.8871 52.8508 45.893C52.9166 45.8989 52.9826 45.8841 53.0395 45.8506L57.034 43.51C57.0916 43.4771 57.1373 43.427 57.1647 43.3667C57.1922 43.3064 57.2 43.239 57.1871 43.174L56.4256 39.3884C57.7514 38.1296 58.8631 36.663 59.7168 35.0463L63.5629 34.7509C63.6288 34.7457 63.6915 34.7202 63.7422 34.6778C63.793 34.6354 63.8292 34.5783 63.8461 34.5144L65.0156 30.0345C65.032 29.9706 65.0282 29.9032 65.0046 29.8417C64.981 29.7801 64.9388 29.7274 64.8839 29.6908L61.6693 27.5531C61.7152 25.7258 61.4629 23.9032 60.9223 22.157L63.4343 19.2264C63.4771 19.1762 63.5034 19.114 63.5093 19.0483C63.5152 18.9826 63.5005 18.9167 63.4672 18.8597L61.1266 14.8651C61.0936 14.8077 61.0435 14.7621 60.9832 14.7346C60.9229 14.7071 60.8556 14.6993 60.7906 14.7121L57.0057 15.4713C55.7469 14.1455 54.2803 13.0338 52.6636 12.1801L52.3682 8.33402C52.3633 8.26823 52.3379 8.20562 52.2956 8.15498C52.2534 8.10433 52.1963 8.06818 52.1325 8.05159L47.6526 6.88206C47.5887 6.86537 47.5212 6.869 47.4595 6.89246C47.3977 6.91592 47.3449 6.95803 47.3082 7.01295L45.1704 10.2276C43.3431 10.182 41.5205 10.4345 39.7744 10.9754L36.8445 8.46337C36.7944 8.42029 36.7322 8.39395 36.6664 8.38805C36.6007 8.38214 36.5347 8.39698 36.4778 8.43046L32.4825 10.771C32.425 10.804 32.3794 10.8542 32.3519 10.9144C32.3245 10.9747 32.3166 11.0421 32.3294 11.107L33.0887 14.8912C31.7629 16.15 30.6512 17.6166 29.7975 19.2332L25.9514 19.5287C25.8856 19.534 25.8231 19.5596 25.7725 19.6019C25.7219 19.6443 25.6857 19.7014 25.6689 19.7652L24.4994 24.245C24.4828 24.3089 24.4866 24.3763 24.5102 24.4379C24.5338 24.4996 24.5761 24.5523 24.6311 24.5887L27.8419 26.7265C27.7975 28.5522 28.0509 30.3729 28.592 32.1171L26.0799 35.0478C26.0371 35.098 26.0109 35.1602 26.005 35.2259C25.9991 35.2916 26.0138 35.3575 26.047 35.4145L28.3907 39.4121Z" fill="#1F4E8D"/>
<path d="M40.3103 25.1348C40.8909 24.08 41.8578 23.2914 43.0078 22.9349C44.1578 22.5784 45.4012 22.6816 46.4766 23.223C47.552 23.7644 48.3756 24.7017 48.7742 25.8378C49.1728 26.9739 49.1153 28.2203 48.6139 29.3149C48.1124 30.4094 47.206 31.2669 46.0853 31.707C44.9647 32.1471 43.717 32.1355 42.6047 31.6746C41.4924 31.2137 40.6022 30.3395 40.1212 29.2358C39.6402 28.132 39.6059 26.8848 40.0256 25.7563C40.1055 25.5426 40.2007 25.3349 40.3103 25.1348ZM47.8112 26.3809C47.5807 25.5884 47.0826 24.9003 46.4017 24.4339C45.7208 23.9675 44.8992 23.7516 44.077 23.823C43.2548 23.8944 42.4827 24.2487 41.8924 24.8255C41.3021 25.4023 40.93 26.1659 40.8396 26.9863C40.7492 27.8066 40.946 28.633 41.3965 29.3245C41.847 30.016 42.5233 30.5299 43.3102 30.7787C44.0972 31.0275 44.946 30.9958 45.7122 30.6889C46.4783 30.382 47.1143 29.819 47.5119 29.0957C47.597 28.9408 47.6707 28.7799 47.7324 28.6143C47.9989 27.8978 48.0266 27.1143 47.8112 26.3809Z" fill="white"/>
<path d="M34.3483 23.4514C34.2116 23.8189 34.0936 24.1932 33.9947 24.5727C33.9626 24.6928 33.9335 24.8138 33.9059 24.9347C33.7706 25.5315 33.6828 26.138 33.6434 26.7487C33.6434 26.7571 33.6434 26.7648 33.6434 26.7732C33.6434 26.7969 33.6434 26.8206 33.6434 26.8444C33.6434 26.8895 33.6388 26.9354 33.6365 26.9814C33.634 27.0386 33.6496 27.0953 33.6813 27.1431C33.7129 27.191 33.7588 27.2276 33.8125 27.2477C33.8394 27.2573 33.8675 27.2629 33.896 27.2646C33.9316 27.2661 33.9671 27.2606 34.0006 27.2484C34.034 27.2362 34.0648 27.2175 34.091 27.1934C34.1172 27.1693 34.1384 27.1402 34.1534 27.1079C34.1684 27.0756 34.1769 27.0407 34.1784 27.0051C34.2751 24.7772 35.0518 22.6325 36.404 20.8593C37.7563 19.0862 39.6191 17.7697 41.742 17.0871C43.6009 16.49 45.586 16.4033 47.4898 16.836C49.3937 17.2687 51.1463 18.2049 52.5645 19.5467C53.9827 20.8886 55.0143 22.5868 55.5516 24.4638C56.0889 26.3408 56.112 28.3277 55.6186 30.2167C54.0993 36.0337 48.1338 39.5277 42.3184 38.0099C40.4112 37.5123 38.6744 36.5072 37.2928 35.1014C37.2652 35.0728 37.2314 35.0508 37.194 35.0371C37.1362 35.0152 37.0726 35.0138 37.0139 35.033C36.9551 35.0523 36.9047 35.091 36.871 35.1429C36.8373 35.1947 36.8223 35.2565 36.8286 35.3181C36.8349 35.3796 36.862 35.4371 36.9055 35.4811C38.3553 36.9577 40.1788 38.0132 42.1814 38.535C48.2869 40.1293 54.5501 36.4569 56.1437 30.3537C56.859 27.6141 56.5333 24.7067 55.2296 22.1933C53.9258 19.6798 51.7367 17.739 49.0852 16.7457C48.7172 16.6085 48.3424 16.49 47.9624 16.3906C45.2217 15.6743 42.3127 15.9997 39.798 17.3039C37.2834 18.6081 35.3416 20.7985 34.3483 23.4514Z" fill="white"/>
<g opacity="0.3">
<path d="M7.4421 66.2958C7.41068 66.3808 7.40756 66.4736 7.43321 66.5605C7.45887 66.6474 7.51192 66.7237 7.58447 66.778C7.86919 66.9908 8.16464 67.1982 8.46238 67.3903C8.50826 67.4228 8.56021 67.4456 8.61513 67.4576C8.67005 67.4695 8.72681 67.4703 8.78203 67.4599C8.83725 67.4494 8.88981 67.4279 8.93655 67.3967C8.9833 67.3655 9.02329 67.3252 9.05413 67.2783C9.08498 67.2313 9.10604 67.1786 9.11608 67.1233C9.12611 67.068 9.12491 67.0112 9.11255 66.9564C9.10018 66.9016 9.0769 66.8498 9.0441 66.8041C9.0113 66.7585 8.96964 66.7199 8.92161 66.6907C8.63765 66.504 8.35675 66.308 8.08427 66.1029C8.04021 66.07 7.99008 66.046 7.93676 66.0325C7.88344 66.0189 7.82797 66.016 7.77352 66.0239C7.71907 66.0318 7.6667 66.0503 7.61942 66.0785C7.57215 66.1066 7.53088 66.1438 7.49798 66.1879C7.47429 66.221 7.45548 66.2573 7.4421 66.2958Z" fill="#35C0ED"/>
<path d="M9.90002 67.967C9.92431 67.9176 9.9581 67.8735 9.99946 67.8372C10.0408 67.8009 10.0889 67.7731 10.141 67.7554C10.1931 67.7377 10.2482 67.7304 10.3031 67.734C10.358 67.7376 10.4117 67.752 10.4611 67.7764C10.9854 68.0343 11.528 68.2686 12.076 68.4729C12.1908 68.5158 12.3057 68.5571 12.4243 68.5984C12.4766 68.6164 12.5248 68.6446 12.5662 68.6813C12.6075 68.718 12.6412 68.7626 12.6652 68.8124C12.6892 68.8623 12.703 68.9164 12.706 68.9716C12.7089 69.0269 12.7008 69.0821 12.6822 69.1342C12.6424 69.2372 12.5648 69.3212 12.4653 69.3691C12.3658 69.417 12.2518 69.4253 12.1465 69.3922C12.024 69.3493 11.9025 69.3054 11.7821 69.2605C11.2058 69.0459 10.6407 68.8022 10.0891 68.5303C9.99605 68.4844 9.92331 68.4056 9.88488 68.3092C9.84644 68.2129 9.84502 68.1057 9.88089 68.0083C9.88778 67.993 9.89466 67.98 9.90002 67.967ZM14.4733 69.1748C15.1671 69.3252 15.8695 69.4328 16.5766 69.497C16.685 69.51 16.7841 69.5648 16.8528 69.6497C16.9214 69.7346 16.9543 69.843 16.9443 69.9518C16.9344 70.0605 16.8824 70.1611 16.7994 70.2321C16.7164 70.3031 16.609 70.339 16.5 70.3321C15.7587 70.2647 15.0223 70.1517 14.2949 69.9938C14.1864 69.9701 14.0916 69.9044 14.0315 69.8109C13.9714 69.7175 13.9508 69.6041 13.9742 69.4955C13.9787 69.4758 13.9843 69.4563 13.9911 69.4373C14.0265 69.3429 14.0947 69.2644 14.1832 69.2162C14.2718 69.168 14.3747 69.1533 14.4733 69.1748ZM18.7044 69.5575C19.4141 69.5334 20.1217 69.4651 20.823 69.3531C20.8773 69.3445 20.9328 69.3466 20.9863 69.3594C21.0398 69.3722 21.0903 69.3954 21.1348 69.4277C21.1793 69.46 21.217 69.5008 21.2458 69.5477C21.2746 69.5946 21.2938 69.6467 21.3025 69.701C21.3111 69.7553 21.309 69.8108 21.2962 69.8643C21.2834 69.9178 21.2602 69.9683 21.2279 70.0128C21.1956 70.0573 21.1548 70.0951 21.1079 70.1238C21.061 70.1526 21.0089 70.1719 20.9546 70.1805C20.2198 70.2976 19.4786 70.3694 18.735 70.3956C18.6238 70.3993 18.5156 70.3588 18.4343 70.2829C18.3529 70.207 18.305 70.1019 18.301 69.9907C18.2994 69.9362 18.3082 69.8819 18.327 69.8307C18.3559 69.753 18.4071 69.6854 18.4743 69.6367C18.5414 69.5879 18.6215 69.5601 18.7044 69.5567V69.5575ZM22.9003 68.8885C23.582 68.6906 24.2509 68.4511 24.9033 68.1714C25.005 68.1303 25.1188 68.1306 25.2202 68.1724C25.3216 68.2142 25.4026 68.2941 25.4459 68.3949C25.4891 68.4957 25.4912 68.6094 25.4515 68.7117C25.4119 68.814 25.3338 68.8967 25.2339 68.9421C24.5506 69.2349 23.85 69.4857 23.136 69.693C23.082 69.712 23.0247 69.7198 22.9676 69.7159C22.9105 69.7119 22.8548 69.6963 22.8039 69.67C22.7531 69.6438 22.7081 69.6073 22.6719 69.563C22.6356 69.5187 22.6088 69.4675 22.5931 69.4124C22.5774 69.3574 22.5731 69.2997 22.5806 69.2429C22.588 69.1862 22.607 69.1315 22.6363 69.0824C22.6657 69.0332 22.7048 68.9906 22.7512 68.9571C22.7977 68.9237 22.8505 68.9001 22.9064 68.8878L22.9003 68.8885ZM26.8038 67.2146C27.4172 66.8574 28.0081 66.463 28.5734 66.0336C28.617 65.9981 28.6673 65.9718 28.7213 65.9562C28.7753 65.9405 28.8319 65.9359 28.8878 65.9426C28.9436 65.9493 28.9975 65.9671 29.0463 65.9951C29.0951 66.023 29.1378 66.0605 29.1718 66.1052C29.2058 66.15 29.2305 66.2011 29.2444 66.2556C29.2583 66.3101 29.261 66.3668 29.2525 66.4224C29.2441 66.478 29.2245 66.5313 29.195 66.5792C29.1655 66.627 29.1267 66.6685 29.0808 66.701C28.4883 67.151 27.8689 67.5645 27.2263 67.9394C27.1515 67.9829 27.0652 68.0022 26.9791 67.9947C26.8929 67.9872 26.8112 67.9533 26.7451 67.8976C26.679 67.8418 26.6317 67.7671 26.6098 67.6834C26.5878 67.5998 26.5922 67.5115 26.6224 67.4305C26.6565 67.3395 26.7208 67.2631 26.8045 67.2138L26.8038 67.2146ZM30.1845 64.6444C30.692 64.1489 31.1684 63.6226 31.6112 63.0685C31.6446 63.0229 31.6869 62.9845 31.7355 62.9557C31.7842 62.9269 31.8381 62.9082 31.8941 62.9007C31.9501 62.8933 32.0071 62.8972 32.0616 62.9123C32.116 62.9274 32.1669 62.9534 32.211 62.9886C32.2552 63.0239 32.2918 63.0677 32.3186 63.1175C32.3455 63.1672 32.362 63.2219 32.3671 63.2781C32.3723 63.3344 32.366 63.3912 32.3487 63.445C32.3314 63.4988 32.3034 63.5485 32.2664 63.5912C31.8021 64.1725 31.3023 64.7247 30.77 65.2445C30.7311 65.2851 30.6844 65.3175 30.6327 65.3396C30.581 65.3618 30.5254 65.3734 30.4691 65.3736C30.4129 65.3739 30.3571 65.3628 30.3052 65.3411C30.2533 65.3194 30.2064 65.2874 30.1671 65.2471C30.1278 65.2069 30.097 65.1591 30.0765 65.1067C30.0561 65.0543 30.0464 64.9983 30.048 64.9421C30.0496 64.8858 30.0626 64.8305 30.086 64.7794C30.1095 64.7282 30.143 64.6823 30.1845 64.6444ZM32.8335 61.3272C33.2037 60.7217 33.536 60.0939 33.8286 59.4474C33.8745 59.3459 33.959 59.2668 34.0632 59.2276C34.1675 59.1883 34.2831 59.1921 34.3846 59.238C34.4861 59.284 34.5652 59.3684 34.6045 59.4727C34.6437 59.577 34.6399 59.6926 34.594 59.7941C34.2848 60.4713 33.9347 61.129 33.5454 61.7635C33.4908 61.8519 33.4053 61.9169 33.3056 61.9459C33.2058 61.9749 33.0988 61.9659 33.0053 61.9205C32.9119 61.8752 32.8386 61.7967 32.7996 61.7004C32.7607 61.6041 32.7588 61.4967 32.7945 61.3991C32.8054 61.3741 32.8185 61.35 32.8335 61.3272ZM35.5851 55.051C35.6394 55.0607 35.6911 55.0811 35.7374 55.1109C35.7838 55.1407 35.8237 55.1794 35.8551 55.2247C35.8865 55.27 35.9086 55.321 35.9202 55.3749C35.9318 55.4287 35.9326 55.4843 35.9227 55.5385C35.8058 56.1743 35.6555 56.8036 35.4726 57.4237C35.4451 57.5178 35.4168 57.6112 35.3877 57.7046C35.3514 57.8069 35.2768 57.8912 35.1797 57.9397C35.0825 57.9882 34.9703 57.9971 34.8667 57.9646C34.7631 57.9321 34.6762 57.8607 34.6242 57.7653C34.5722 57.67 34.5591 57.5583 34.5878 57.4535C34.6154 57.3663 34.6422 57.2775 34.6644 57.1879C34.8393 56.5959 34.9826 55.995 35.0938 55.3877C35.0983 55.3635 35.105 55.3396 35.1137 55.3165C35.148 55.2235 35.2142 55.1458 35.3006 55.0971C35.387 55.0485 35.4878 55.0321 35.5851 55.051Z" fill="#1F4E8D"/>
</g>
<g opacity="0.3">
<path d="M1.33103 45.7603C1.59556 45.0792 1.90074 44.4147 2.24491 43.7702C2.26956 43.7195 2.30421 43.6742 2.34677 43.6371C2.38934 43.6 2.43895 43.5719 2.49264 43.5545C2.54632 43.537 2.60298 43.5306 2.65921 43.5356C2.71544 43.5405 2.77009 43.5568 2.81988 43.5834C2.86967 43.61 2.91358 43.6464 2.94898 43.6904C2.98438 43.7343 3.01054 43.785 3.02589 43.8393C3.04124 43.8936 3.04547 43.9505 3.03832 44.0065C3.03117 44.0625 3.01279 44.1165 2.98429 44.1652C2.65586 44.7812 2.36474 45.4163 2.1125 46.0672C2.0705 46.1676 1.99112 46.2478 1.89112 46.2907C1.79113 46.3337 1.67834 46.3361 1.5766 46.2974C1.47486 46.2588 1.39213 46.1821 1.34588 46.0836C1.29963 45.9851 1.29348 45.8724 1.32874 45.7695L1.33103 45.7603ZM1.1726 47.549C1.22619 47.5623 1.27662 47.5861 1.32102 47.619C1.36542 47.6518 1.40291 47.6931 1.43134 47.7404C1.45978 47.7878 1.4786 47.8402 1.48674 47.8949C1.49487 47.9495 1.49216 48.0052 1.47875 48.0588C1.30613 48.7357 1.1745 49.4225 1.08458 50.1154C1.06652 50.2224 1.00767 50.3183 0.920397 50.3828C0.833127 50.4474 0.724234 50.4756 0.616605 50.4615C0.508976 50.4474 0.410994 50.3922 0.343254 50.3073C0.275513 50.2225 0.243289 50.1148 0.253356 50.0067C0.347918 49.2809 0.485679 48.5615 0.665905 47.8521C0.669576 47.8373 0.674177 47.8227 0.679681 47.8085C0.715712 47.7123 0.785842 47.6327 0.876727 47.5849C0.967612 47.537 1.07291 47.5243 1.1726 47.549ZM3.39224 41.8966C3.81393 41.2979 4.27118 40.7251 4.76153 40.1813C4.83603 40.0987 4.9403 40.0491 5.0514 40.0433C5.1625 40.0376 5.27133 40.0762 5.35395 40.1507C5.43656 40.2252 5.48621 40.3295 5.49195 40.4406C5.49769 40.5517 5.45906 40.6605 5.38456 40.7431C4.91614 41.2614 4.47958 41.8076 4.07727 42.3788C4.01875 42.4621 3.93184 42.5213 3.83283 42.5452C3.73382 42.5691 3.62949 42.5561 3.53939 42.5086C3.44929 42.4611 3.37958 42.3824 3.34334 42.2872C3.30709 42.192 3.30679 42.0869 3.34249 41.9915C3.35604 41.9577 3.37378 41.9259 3.3953 41.8966H3.39224ZM0.52048 51.7816C0.631526 51.7826 0.737655 51.8276 0.815676 51.9066C0.893697 51.9856 0.937264 52.0923 0.936855 52.2034C0.932335 52.9018 0.970419 53.5999 1.0509 54.2937C1.05989 54.4021 1.02639 54.5098 0.957473 54.594C0.888553 54.6782 0.789606 54.7323 0.681526 54.7449C0.573447 54.7576 0.464696 54.7277 0.378235 54.6616C0.291773 54.5955 0.234371 54.4985 0.218148 54.3909C0.133723 53.663 0.0935932 52.9307 0.0979806 52.198C0.0991921 52.0869 0.14429 51.9808 0.223436 51.9028C0.302583 51.8248 0.409359 51.7812 0.52048 51.7816ZM6.32906 38.6467C6.88307 38.167 7.46558 37.7212 8.0734 37.3118C8.11903 37.2811 8.17027 37.2596 8.2242 37.2487C8.27813 37.2377 8.33369 37.2375 8.38771 37.248C8.44172 37.2585 8.49314 37.2796 8.53901 37.31C8.58489 37.3404 8.62434 37.3795 8.65509 37.4251C8.68585 37.4708 8.70732 37.522 8.71827 37.5759C8.72923 37.6299 8.72945 37.6854 8.71893 37.7394C8.70841 37.7935 8.68736 37.8449 8.65697 37.8907C8.62658 37.9366 8.58745 37.9761 8.54182 38.0068C7.96323 38.3972 7.40884 38.8222 6.88168 39.2797C6.81143 39.3395 6.72341 39.3745 6.63124 39.3793C6.53907 39.3841 6.44791 39.3583 6.37188 39.306C6.29585 39.2536 6.2392 39.1777 6.2107 39.0899C6.1822 39.0022 6.18345 38.9074 6.21425 38.8204C6.23796 38.7534 6.27856 38.6935 6.33212 38.6467H6.32906ZM9.95933 36.1974C10.6136 35.8629 11.2873 35.568 11.9769 35.3142C12.0813 35.2759 12.1965 35.2806 12.2974 35.3274C12.3982 35.3741 12.4763 35.459 12.5146 35.5633C12.5529 35.6676 12.5481 35.7829 12.5014 35.8837C12.4547 35.9846 12.3698 36.0627 12.2655 36.101C11.6101 36.343 10.9698 36.6241 10.3481 36.9429C10.299 36.9695 10.2451 36.986 10.1895 36.9915C10.1339 36.9969 10.0777 36.9912 10.0244 36.9747C9.97103 36.9582 9.9215 36.9311 9.87873 36.8952C9.83596 36.8593 9.80079 36.8151 9.7753 36.7654C9.74981 36.7157 9.73451 36.6614 9.73029 36.6057C9.72607 36.55 9.73302 36.494 9.75073 36.441C9.76844 36.3881 9.79656 36.3392 9.83343 36.2972C9.8703 36.2552 9.91519 36.2211 9.96545 36.1967L9.95933 36.1974ZM14.0726 34.6865C14.7856 34.5185 15.5082 34.3943 16.2363 34.3146C16.291 34.3085 16.3463 34.3133 16.3992 34.3287C16.452 34.344 16.5013 34.3696 16.5442 34.404C16.5871 34.4384 16.6229 34.481 16.6494 34.5292C16.6759 34.5774 16.6926 34.6303 16.6986 34.685C16.7047 34.7397 16.6999 34.795 16.6845 34.8478C16.6692 34.9007 16.6436 34.95 16.6092 34.9929C16.5748 35.0358 16.5322 35.0715 16.484 35.098C16.4358 35.1245 16.3829 35.1413 16.3282 35.1473C15.6327 35.2236 14.9426 35.3422 14.2616 35.5025C14.2072 35.5175 14.1503 35.5215 14.0943 35.5141C14.0383 35.5066 13.9844 35.488 13.9358 35.4592C13.8872 35.4305 13.845 35.3922 13.8115 35.3467C13.7781 35.3012 13.7542 35.2494 13.7412 35.1944C13.7283 35.1394 13.7266 35.0824 13.7362 35.0268C13.7458 34.9711 13.7666 34.918 13.7972 34.8706C13.8279 34.8232 13.8678 34.7824 13.9146 34.7508C13.9614 34.7192 14.0141 34.6973 14.0695 34.6865H14.0726Z" fill="#35C0ED"/>
<path d="M0.733546 55.9279C0.704415 56.0063 0.699614 56.0917 0.71977 56.1728C0.803963 56.5211 0.899636 56.8686 1.00296 57.2061C1.01733 57.2608 1.04259 57.312 1.07723 57.3566C1.11187 57.4013 1.15518 57.4384 1.20455 57.4659C1.25392 57.4934 1.30833 57.5107 1.36453 57.5166C1.42072 57.5226 1.47754 57.5171 1.53157 57.5005C1.5856 57.484 1.63572 57.4566 1.67893 57.4202C1.72214 57.3838 1.75755 57.339 1.78302 57.2886C1.8085 57.2381 1.82351 57.1831 1.82718 57.1267C1.83084 57.0703 1.82307 57.0137 1.80433 56.9604C1.7056 56.639 1.61452 56.3076 1.53415 55.9746C1.51286 55.8874 1.46416 55.8094 1.39521 55.7519C1.32627 55.6944 1.2407 55.6606 1.1511 55.6554C1.0615 55.6501 0.972588 55.6738 0.897428 55.7229C0.822269 55.7719 0.764827 55.8438 0.733546 55.9279Z" fill="#35C0ED"/>
</g>
<path d="M7.57979 60.3538C7.60202 60.3919 7.63557 60.4221 7.67577 60.4402C7.71596 60.4583 7.7608 60.4634 7.80405 60.4549L10.3367 59.9466C11.1802 60.8335 12.1626 61.577 13.2452 62.1479L13.4427 64.7219C13.4461 64.766 13.4632 64.808 13.4916 64.8419C13.52 64.8758 13.5583 64.8999 13.6011 64.911L16.5984 65.6932C16.641 65.7043 16.686 65.7019 16.7272 65.6862C16.7683 65.6706 16.8036 65.6425 16.8281 65.606L18.2586 63.4575C19.4815 63.4877 20.7011 63.3187 21.8697 62.9569L23.8299 64.6408C23.8635 64.6696 23.9052 64.6872 23.9492 64.6911C23.9932 64.6951 24.0374 64.6853 24.0756 64.663L26.7483 63.097C26.7865 63.0747 26.8168 63.041 26.8349 63.0007C26.8531 62.9603 26.8581 62.9153 26.8494 62.872L26.3411 60.3393C27.2287 59.4962 27.9725 58.5137 28.5432 57.4308L31.1164 57.2333C31.161 57.2301 31.2034 57.213 31.2377 57.1842C31.2719 57.1555 31.2962 57.1167 31.307 57.0733L32.09 54.0761C32.1007 54.0334 32.098 53.9884 32.0822 53.9474C32.0665 53.9063 32.0385 53.871 32.002 53.8464L29.8528 52.4167C29.8834 51.194 29.7144 49.9745 29.3522 48.8063L31.0361 46.8454C31.0646 46.8117 31.082 46.7699 31.0858 46.7259C31.0897 46.6819 31.0798 46.6378 31.0575 46.5997L29.4915 43.9269C29.4691 43.8888 29.4355 43.8586 29.3951 43.8405C29.3548 43.8224 29.3098 43.8173 29.2665 43.8259L26.7338 44.3341C25.8907 43.4468 24.9083 42.7032 23.8253 42.1328L23.6271 39.5588C23.6237 39.5148 23.6067 39.4729 23.5785 39.4391C23.5502 39.4052 23.5121 39.3809 23.4694 39.3698L20.4713 38.5875C20.4287 38.5765 20.3838 38.579 20.3427 38.5947C20.3015 38.6103 20.2663 38.6383 20.2417 38.6748L18.8112 40.8232C17.5885 40.7926 16.369 40.9616 15.2008 41.3238L13.2399 39.6399C13.2064 39.6111 13.1647 39.5934 13.1206 39.5894C13.0765 39.5855 13.0323 39.5954 12.9942 39.6177L10.3214 41.1837C10.2833 41.2061 10.2531 41.2398 10.235 41.2801C10.2169 41.3205 10.2118 41.3654 10.2204 41.4088L10.7286 43.9415C9.84155 44.7848 9.09802 45.7672 8.52734 46.85L5.95409 47.0467C5.91012 47.0501 5.86831 47.0671 5.83444 47.0954C5.80058 47.1236 5.77632 47.1617 5.76503 47.2043L4.9828 50.2024C4.97179 50.2451 4.97435 50.2901 4.99012 50.3313C5.0059 50.3724 5.0341 50.4076 5.07082 50.432L7.21928 51.8625C7.18873 53.0851 7.35755 54.3046 7.71909 55.4729L6.03522 57.4338C6.00656 57.4675 5.98903 57.5092 5.98506 57.5532C5.98108 57.5972 5.99085 57.6413 6.01302 57.6795L7.57979 60.3538Z" fill="#1F4E8D"/>
<path d="M15.7356 50.5767C16.1303 49.8621 16.7867 49.3283 17.5668 49.0875C18.3469 48.8468 19.1899 48.9178 19.9188 49.2856C20.6476 49.6534 21.2055 50.2895 21.4751 51.0601C21.7448 51.8306 21.7052 52.6757 21.3648 53.4178C21.0244 54.1598 20.4096 54.741 19.6496 55.0392C18.8896 55.3373 18.0436 55.3293 17.2894 55.0168C16.5352 54.7042 15.9315 54.1115 15.6052 53.3631C15.2789 52.6148 15.2554 51.7691 15.5397 51.0038C15.5944 50.8568 15.6599 50.7141 15.7356 50.5767ZM19.6391 50.06C19.0973 49.7619 18.4593 49.6912 17.8653 49.8635C17.2714 50.0357 16.7702 50.4368 16.4719 50.9785C16.2494 51.3826 16.1518 51.8436 16.1913 52.3032C16.2308 52.7628 16.4058 53.2003 16.694 53.5605C16.9822 53.9207 17.3707 54.1873 17.8105 54.3266C18.2502 54.4659 18.7214 54.4717 19.1644 54.3432C19.6075 54.2147 20.0025 53.9578 20.2994 53.6048C20.5964 53.2518 20.782 52.8187 20.8329 52.3602C20.8837 51.9018 20.7974 51.4385 20.5849 51.0291C20.3724 50.6196 20.0433 50.2824 19.6391 50.06Z" fill="white"/>
<path d="M10.9545 49.1922C10.673 49.9479 10.5081 50.742 10.4654 51.5473C10.4654 51.571 10.4654 51.5955 10.4654 51.6192C10.4606 51.6756 10.4672 51.7323 10.4848 51.786C10.5025 51.8397 10.5309 51.8893 10.5682 51.9318C10.6055 51.9743 10.651 52.0088 10.702 52.0333C10.753 52.0577 10.8084 52.0716 10.8649 52.0741C10.9214 52.0765 10.9778 52.0676 11.0308 52.0477C11.0837 52.0278 11.1321 51.9974 11.173 51.9584C11.2139 51.9193 11.2464 51.8724 11.2687 51.8204C11.291 51.7685 11.3026 51.7125 11.3027 51.656C11.3243 51.154 11.3992 50.6557 11.5262 50.1696C11.5331 50.1428 11.54 50.116 11.5477 50.093C11.852 48.9632 12.4355 47.9281 13.2445 47.0827C13.6847 46.6235 14.1847 46.2255 14.7309 45.8994L14.7447 45.891L14.7861 45.8665C15.5847 45.3957 16.4687 45.0879 17.387 44.961C18.3054 44.8341 19.2398 44.8905 20.1362 45.1272C20.3719 45.1889 20.6015 45.2619 20.825 45.3461C21.8131 45.7174 22.7054 46.3058 23.436 47.0677C24.1666 47.8297 24.7169 48.7458 25.0465 49.7487C25.376 50.7516 25.4764 51.8156 25.3402 52.8624C25.204 53.9092 24.8347 54.9121 24.2594 55.7972C23.6842 56.6824 22.9177 57.4272 22.0165 57.9768C21.1152 58.5264 20.1022 58.8668 19.0519 58.973C18.0016 59.0791 16.9409 58.9483 15.9479 58.5902C14.9549 58.232 14.0549 57.6556 13.3142 56.9035C13.2709 56.8599 13.2187 56.8262 13.1611 56.8048C13.0713 56.7697 12.972 56.7667 12.8802 56.7964C12.7884 56.826 12.7097 56.8864 12.6573 56.9674C12.6049 57.0484 12.5821 57.1451 12.5928 57.2409C12.6034 57.3368 12.6468 57.4261 12.7157 57.4936C13.5252 58.3191 14.5067 58.956 15.5905 59.3589C15.8414 59.4523 16.0968 59.533 16.3559 59.6008C18.3132 60.1097 20.3911 59.8482 22.1613 58.8701C23.9314 57.8921 25.2588 56.2721 25.8697 54.3442C26.4806 52.4163 26.3285 50.3275 25.4447 48.5085C24.5609 46.6895 23.0129 45.2789 21.1197 44.5676C20.8646 44.4743 20.6064 44.3929 20.3451 44.3235C18.4549 43.8319 16.4496 44.0573 14.7157 44.9562C12.9818 45.8552 11.642 47.3641 10.9545 49.1922Z" fill="white"/>
<g opacity="0.3">
<path d="M178.866 129.331C178.718 129.235 178.615 129.084 178.579 128.912C178.542 128.74 178.575 128.56 178.67 128.412C179.061 127.813 179.43 127.188 179.77 126.554C179.853 126.4 179.992 126.285 180.159 126.233C180.325 126.18 180.506 126.196 180.661 126.275L180.673 126.281C180.828 126.364 180.945 126.506 180.996 126.676C181.047 126.845 181.029 127.027 180.945 127.183C180.588 127.851 180.198 128.509 179.787 129.14C179.697 129.277 179.56 129.377 179.401 129.419C179.242 129.462 179.073 129.444 178.926 129.369C178.905 129.358 178.885 129.345 178.866 129.331ZM181.212 123.352C181.461 122.677 181.685 121.987 181.875 121.297C181.922 121.127 182.035 120.982 182.189 120.895C182.343 120.808 182.525 120.786 182.696 120.833C182.866 120.88 183.011 120.993 183.098 121.147C183.185 121.301 183.207 121.483 183.16 121.653C182.96 122.379 182.725 123.108 182.461 123.815C182.4 123.98 182.275 124.115 182.115 124.189C181.954 124.263 181.771 124.27 181.605 124.208C181.58 124.199 181.556 124.189 181.532 124.177C181.387 124.102 181.274 123.977 181.215 123.825C181.156 123.673 181.155 123.505 181.212 123.352ZM182.574 117.861C182.667 117.15 182.731 116.427 182.762 115.712C182.764 115.623 182.784 115.536 182.821 115.455C182.857 115.374 182.909 115.301 182.974 115.241C183.039 115.181 183.115 115.134 183.198 115.103C183.281 115.073 183.37 115.059 183.458 115.063C183.547 115.067 183.633 115.088 183.714 115.126C183.794 115.164 183.865 115.217 183.925 115.283C183.984 115.349 184.029 115.426 184.058 115.51C184.087 115.593 184.1 115.682 184.094 115.77C184.061 116.525 183.994 117.287 183.896 118.035C183.873 118.21 183.781 118.369 183.641 118.477C183.5 118.584 183.323 118.632 183.148 118.609C183.072 118.599 182.999 118.576 182.931 118.542C182.808 118.479 182.708 118.38 182.644 118.258C182.581 118.136 182.556 117.998 182.574 117.861ZM182.673 112.204C182.606 111.49 182.506 110.77 182.377 110.065C182.345 109.891 182.384 109.712 182.485 109.566C182.585 109.421 182.739 109.321 182.913 109.289C183.087 109.258 183.267 109.296 183.412 109.397C183.558 109.497 183.657 109.652 183.689 109.826C183.825 110.568 183.929 111.326 184.001 112.077C184.018 112.254 183.964 112.429 183.852 112.566C183.739 112.702 183.577 112.788 183.401 112.805C183.225 112.822 183.049 112.768 182.913 112.655C182.776 112.543 182.69 112.381 182.673 112.204ZM181.511 106.666C181.287 105.986 181.03 105.306 180.745 104.645C180.687 104.485 180.691 104.308 180.759 104.151C180.827 103.994 180.952 103.87 181.109 103.803C181.267 103.735 181.444 103.731 181.604 103.791C181.764 103.85 181.895 103.969 181.97 104.123C182.266 104.818 182.536 105.533 182.772 106.248C182.824 106.415 182.809 106.596 182.729 106.752C182.649 106.907 182.511 107.025 182.345 107.08C182.179 107.135 181.998 107.123 181.841 107.045C181.684 106.967 181.564 106.831 181.506 106.666H181.511ZM179.152 101.523C178.782 100.91 178.382 100.303 177.961 99.7216C177.907 99.6509 177.869 99.5701 177.847 99.4842C177.825 99.3983 177.821 99.3088 177.834 99.2212C177.847 99.1335 177.878 99.0493 177.924 98.9736C177.97 98.8978 178.03 98.832 178.102 98.7801C178.174 98.7281 178.256 98.691 178.342 98.6709C178.428 98.6508 178.518 98.6481 178.605 98.663C178.693 98.6779 178.776 98.7101 178.851 98.7577C178.926 98.8053 178.99 98.8673 179.041 98.9402C179.484 99.5525 179.906 100.189 180.295 100.835C180.369 100.96 180.402 101.105 180.386 101.249C180.371 101.393 180.309 101.528 180.21 101.634C180.111 101.74 179.981 101.811 179.838 101.836C179.695 101.861 179.548 101.838 179.419 101.772C179.308 101.716 179.215 101.629 179.152 101.523ZM158.032 88.6112C158.036 88.5237 158.057 88.4379 158.094 88.3586C158.131 88.2793 158.184 88.2082 158.249 88.1493C158.313 88.0903 158.389 88.0448 158.471 88.0151C158.554 87.9855 158.641 87.9724 158.729 87.9767C159.482 88.0111 160.244 88.08 160.994 88.1795C161.169 88.2028 161.328 88.2949 161.435 88.4353C161.543 88.5758 161.59 88.7531 161.567 88.9284C161.543 89.1037 161.451 89.2625 161.311 89.37C161.17 89.4774 160.993 89.5247 160.818 89.5013C160.106 89.4064 159.382 89.3414 158.667 89.3084C158.579 89.3045 158.493 89.2833 158.414 89.2462C158.335 89.209 158.263 89.1565 158.204 89.0917C158.145 89.0269 158.1 88.9511 158.07 88.8687C158.04 88.7862 158.027 88.6987 158.032 88.6112ZM175.712 97.0305C175.215 96.5139 174.69 96.0125 174.151 95.5411C174.019 95.4241 173.94 95.2601 173.929 95.0847C173.918 94.9092 173.977 94.7365 174.092 94.6042C174.208 94.4719 174.371 94.3907 174.547 94.3782C174.722 94.3657 174.895 94.423 175.029 94.5376C175.597 95.0344 176.15 95.5625 176.673 96.1067C176.736 96.1691 176.787 96.2437 176.821 96.326C176.856 96.4084 176.873 96.4968 176.873 96.586C176.872 96.6752 176.854 96.7634 176.819 96.8454C176.784 96.9274 176.733 97.0016 176.668 97.0634C176.604 97.1252 176.528 97.1736 176.445 97.2055C176.361 97.2374 176.272 97.2522 176.183 97.2492C176.094 97.2461 176.006 97.2252 175.926 97.1876C175.845 97.15 175.772 97.0966 175.712 97.0305ZM163.792 89.385C163.84 89.2155 163.954 89.0721 164.108 88.986C164.262 88.9 164.443 88.8783 164.613 88.9257C165.34 89.1286 166.067 89.3651 166.775 89.6291C166.858 89.6583 166.936 89.7039 167.002 89.7633C167.068 89.8227 167.121 89.8947 167.159 89.975C167.197 90.0553 167.218 90.1424 167.222 90.2311C167.226 90.3198 167.211 90.4084 167.18 90.4916C167.149 90.5748 167.102 90.6509 167.041 90.7156C166.98 90.7803 166.907 90.8321 166.826 90.8682C166.745 90.9042 166.658 90.9236 166.569 90.9254C166.48 90.9271 166.392 90.9111 166.309 90.8783C165.634 90.6272 164.94 90.3976 164.251 90.2063C164.081 90.1586 163.937 90.0453 163.85 89.8914C163.763 89.7374 163.741 89.5553 163.788 89.385H163.792ZM171.362 93.4255C170.762 93.0336 170.137 92.6601 169.506 92.3226C169.349 92.2405 169.231 92.0995 169.179 91.9307C169.126 91.7619 169.143 91.5791 169.225 91.4225C169.307 91.2659 169.448 91.1483 169.617 91.0956C169.785 91.0429 169.968 91.0595 170.125 91.1416L170.138 91.1485C170.803 91.5067 171.46 91.897 172.091 92.3096C172.227 92.4058 172.322 92.5493 172.357 92.712C172.393 92.8747 172.366 93.0448 172.282 93.1887C172.199 93.3327 172.064 93.4401 171.905 93.4899C171.746 93.5396 171.574 93.5281 171.424 93.4576C171.402 93.4482 171.38 93.4374 171.359 93.4255H171.362Z" fill="#35C0ED"/>
<path d="M153.516 89.3593C153.637 89.4211 153.774 89.4444 153.909 89.4259C154.249 89.3792 154.598 89.3401 154.941 89.3072C155.029 89.3004 155.115 89.2761 155.194 89.2357C155.273 89.1953 155.343 89.1396 155.4 89.0719C155.457 89.0042 155.5 88.9258 155.526 88.8413C155.553 88.7568 155.562 88.6679 155.554 88.5798C155.545 88.4916 155.52 88.4061 155.478 88.328C155.436 88.25 155.379 88.181 155.31 88.1252C155.242 88.0694 155.163 88.0278 155.078 88.0029C154.993 87.9779 154.904 87.9702 154.816 87.98C154.453 88.0137 154.088 88.0566 153.73 88.1048C153.589 88.1238 153.458 88.1874 153.356 88.2861C153.254 88.3848 153.186 88.5135 153.162 88.6536C153.138 88.7936 153.159 88.9376 153.223 89.0645C153.287 89.1915 153.39 89.2947 153.516 89.3593Z" fill="#35C0ED"/>
</g>
<g opacity="0.3">
<path d="M136.441 99.8359C136.583 99.9083 136.745 99.928 136.899 99.8914C137.054 99.8548 137.19 99.7643 137.283 99.6361C137.486 99.3583 137.699 99.0805 137.914 98.8103C138.023 98.6719 138.073 98.4961 138.052 98.3212C138.032 98.1463 137.943 97.9865 137.806 97.8767C137.668 97.767 137.493 97.7161 137.318 97.7353C137.143 97.7545 136.982 97.8421 136.872 97.979C136.642 98.2638 136.422 98.5569 136.208 98.8485C136.151 98.9263 136.111 99.0157 136.092 99.1103C136.073 99.205 136.074 99.3027 136.097 99.3967C136.119 99.4906 136.162 99.5786 136.221 99.6544C136.281 99.7303 136.357 99.7922 136.443 99.8359H136.441Z" fill="#35C0ED"/>
<path d="M143.922 137.479C143.768 137.391 143.656 137.245 143.61 137.074C143.564 136.904 143.588 136.722 143.676 136.568C143.764 136.415 143.91 136.303 144.081 136.257C144.251 136.211 144.433 136.235 144.587 136.323C145.194 136.672 145.826 137.001 146.472 137.304C146.632 137.379 146.755 137.515 146.815 137.682C146.875 137.848 146.867 138.031 146.792 138.191C146.717 138.351 146.581 138.475 146.414 138.535C146.248 138.595 146.065 138.586 145.905 138.511C145.625 138.38 145.348 138.244 145.076 138.105C144.686 137.905 144.297 137.695 143.922 137.479ZM148.853 138.993C148.906 138.825 149.024 138.684 149.181 138.602C149.337 138.521 149.52 138.504 149.689 138.557C150.363 138.768 151.053 138.953 151.742 139.107C151.911 139.148 152.058 139.254 152.151 139.402C152.243 139.551 152.274 139.729 152.236 139.9C152.198 140.07 152.094 140.219 151.948 140.314C151.801 140.409 151.623 140.443 151.451 140.408C150.727 140.246 149.997 140.051 149.29 139.829C149.206 139.803 149.129 139.761 149.062 139.705C148.994 139.648 148.939 139.58 148.898 139.502C148.858 139.424 148.833 139.339 148.825 139.252C148.817 139.165 148.827 139.077 148.853 138.993ZM140.904 135.457C140.317 135.003 139.742 134.517 139.195 134.014C139.065 133.894 138.988 133.728 138.98 133.551C138.973 133.374 139.036 133.202 139.155 133.072C139.275 132.941 139.442 132.864 139.618 132.857C139.795 132.849 139.967 132.912 140.098 133.032C140.617 133.51 141.163 133.971 141.72 134.402C141.852 134.503 141.941 134.65 141.97 134.814C141.999 134.978 141.965 135.146 141.876 135.287C141.787 135.427 141.649 135.529 141.489 135.573C141.328 135.617 141.157 135.599 141.009 135.523C140.972 135.504 140.937 135.482 140.904 135.457ZM154.434 140.235C154.441 140.147 154.465 140.062 154.505 139.984C154.545 139.906 154.6 139.836 154.666 139.78C154.733 139.723 154.811 139.68 154.894 139.653C154.978 139.626 155.065 139.615 155.153 139.623C155.856 139.681 156.57 139.709 157.275 139.708C157.452 139.707 157.622 139.777 157.747 139.901C157.873 140.026 157.943 140.195 157.944 140.372C157.944 140.549 157.875 140.719 157.75 140.844C157.625 140.97 157.456 141.04 157.279 141.041C156.537 141.041 155.784 141.013 155.043 140.951C154.957 140.945 154.872 140.921 154.795 140.881C154.677 140.821 154.581 140.728 154.516 140.613C154.452 140.498 154.424 140.366 154.434 140.235ZM136.698 131.379C136.226 130.808 135.772 130.207 135.349 129.596C135.296 129.524 135.258 129.442 135.237 129.356C135.216 129.269 135.213 129.179 135.228 129.091C135.242 129.003 135.274 128.919 135.322 128.843C135.37 128.768 135.432 128.703 135.505 128.652C135.579 128.601 135.662 128.566 135.749 128.547C135.836 128.529 135.926 128.528 136.014 128.546C136.102 128.563 136.185 128.598 136.259 128.648C136.333 128.698 136.396 128.762 136.444 128.837C136.847 129.418 137.278 129.985 137.726 130.53C137.824 130.648 137.878 130.796 137.879 130.95C137.88 131.103 137.829 131.253 137.732 131.372C137.636 131.492 137.502 131.575 137.351 131.607C137.201 131.639 137.045 131.618 136.908 131.548C136.827 131.506 136.756 131.449 136.698 131.379ZM133.488 126.48C133.152 125.817 132.84 125.133 132.561 124.446C132.525 124.364 132.506 124.276 132.504 124.187C132.503 124.098 132.52 124.009 132.553 123.927C132.586 123.844 132.636 123.769 132.699 123.706C132.762 123.643 132.837 123.593 132.92 123.559C133.002 123.526 133.091 123.509 133.18 123.51C133.269 123.512 133.357 123.531 133.439 123.566C133.52 123.602 133.594 123.654 133.655 123.719C133.716 123.784 133.764 123.86 133.795 123.943C134.061 124.596 134.358 125.245 134.677 125.876C134.718 125.954 134.742 126.04 134.75 126.127C134.757 126.215 134.747 126.303 134.72 126.387C134.693 126.471 134.65 126.549 134.593 126.616C134.536 126.683 134.466 126.738 134.387 126.778C134.309 126.818 134.223 126.841 134.135 126.848C134.048 126.855 133.959 126.844 133.876 126.816C133.792 126.788 133.715 126.745 133.649 126.687C133.582 126.629 133.528 126.559 133.488 126.48ZM131.422 120.995C131.237 120.275 131.082 119.541 130.959 118.808C130.944 118.721 130.947 118.633 130.966 118.548C130.986 118.462 131.022 118.382 131.073 118.31C131.124 118.239 131.188 118.178 131.262 118.132C131.337 118.086 131.419 118.054 131.506 118.04C131.592 118.025 131.68 118.028 131.766 118.047C131.851 118.067 131.932 118.103 132.003 118.154C132.074 118.205 132.135 118.269 132.181 118.343C132.228 118.418 132.259 118.5 132.274 118.586C132.39 119.281 132.539 119.98 132.714 120.665C132.735 120.75 132.74 120.838 132.728 120.925C132.715 121.012 132.686 121.095 132.641 121.17C132.597 121.246 132.538 121.311 132.467 121.364C132.397 121.416 132.318 121.455 132.233 121.476C132.061 121.52 131.88 121.494 131.728 121.404C131.576 121.313 131.466 121.167 131.422 120.995ZM130.602 115.191C130.58 114.448 130.589 113.696 130.63 112.954C130.634 112.866 130.655 112.779 130.693 112.7C130.73 112.62 130.784 112.548 130.849 112.489C130.915 112.43 130.991 112.385 131.074 112.355C131.158 112.326 131.246 112.314 131.334 112.319C131.422 112.324 131.508 112.346 131.587 112.385C131.667 112.423 131.738 112.477 131.796 112.544C131.854 112.61 131.899 112.687 131.927 112.771C131.955 112.854 131.967 112.942 131.961 113.03C131.922 113.735 131.913 114.45 131.935 115.155C131.939 115.244 131.925 115.332 131.895 115.415C131.864 115.498 131.818 115.574 131.758 115.639C131.697 115.704 131.625 115.756 131.545 115.793C131.464 115.829 131.377 115.85 131.289 115.852C131.2 115.855 131.112 115.84 131.03 115.808C130.947 115.776 130.872 115.729 130.808 115.667C130.744 115.606 130.693 115.533 130.657 115.452C130.622 115.371 130.603 115.283 130.602 115.195V115.191ZM131.078 109.346C131.22 108.617 131.395 107.886 131.598 107.171C131.646 107.001 131.76 106.857 131.915 106.77C132.069 106.684 132.251 106.663 132.421 106.711C132.592 106.76 132.736 106.874 132.822 107.028C132.908 107.183 132.929 107.365 132.881 107.535C132.687 108.215 132.522 108.909 132.386 109.602C132.37 109.687 132.336 109.769 132.288 109.842C132.239 109.915 132.177 109.978 132.105 110.027C132.032 110.076 131.951 110.11 131.865 110.127C131.779 110.145 131.691 110.145 131.605 110.128C131.544 110.116 131.484 110.096 131.429 110.068C131.3 110.001 131.196 109.895 131.133 109.764C131.07 109.633 131.051 109.486 131.08 109.344L131.078 109.346ZM132.824 103.753C133.043 103.252 133.283 102.752 133.528 102.266C133.619 102.09 133.71 101.916 133.803 101.743C133.844 101.665 133.9 101.596 133.967 101.541C134.035 101.485 134.113 101.443 134.198 101.418C134.282 101.392 134.37 101.384 134.457 101.394C134.545 101.403 134.629 101.43 134.706 101.473C134.783 101.515 134.851 101.571 134.907 101.639C134.962 101.707 135.003 101.785 135.029 101.869C135.054 101.952 135.062 102.04 135.053 102.128C135.044 102.215 135.018 102.299 134.976 102.376C134.888 102.54 134.801 102.706 134.715 102.873C134.479 103.332 134.256 103.811 134.046 104.287C134.011 104.367 133.96 104.439 133.897 104.5C133.834 104.561 133.76 104.609 133.678 104.641C133.597 104.672 133.51 104.688 133.422 104.686C133.335 104.684 133.249 104.665 133.168 104.63C133.156 104.625 133.143 104.619 133.131 104.613C132.98 104.535 132.864 104.403 132.807 104.242C132.75 104.082 132.757 103.906 132.826 103.751L132.824 103.753Z" fill="#35C0ED"/>
<path d="M160.833 141.237C160.955 141.3 161.093 141.323 161.229 141.304C161.587 141.254 161.95 141.195 162.308 141.13C162.394 141.114 162.477 141.081 162.55 141.034C162.624 140.986 162.687 140.925 162.737 140.853C162.787 140.781 162.822 140.7 162.84 140.614C162.859 140.528 162.86 140.44 162.844 140.354C162.829 140.268 162.796 140.185 162.749 140.112C162.701 140.038 162.64 139.975 162.568 139.925C162.496 139.875 162.414 139.84 162.329 139.822C162.243 139.803 162.155 139.802 162.069 139.818C161.727 139.88 161.38 139.936 161.044 139.984C160.904 140.004 160.773 140.067 160.672 140.166C160.57 140.265 160.503 140.394 160.479 140.533C160.456 140.673 160.478 140.817 160.541 140.943C160.605 141.07 160.707 141.173 160.833 141.237Z" fill="#35C0ED"/>
</g>
<path d="M167.466 132.12C167.526 132.094 167.576 132.05 167.609 131.994C167.642 131.939 167.657 131.874 167.652 131.809L167.345 128.03C168.782 126.953 170.034 125.649 171.051 124.169L174.838 124.322C174.903 124.324 174.966 124.307 175.021 124.271C175.075 124.236 175.116 124.184 175.14 124.124L176.793 119.886C176.817 119.826 176.821 119.759 176.805 119.696C176.789 119.634 176.754 119.577 176.705 119.535L173.815 117.086C174.069 115.308 174.031 113.501 173.702 111.735L176.488 109.163C176.536 109.119 176.569 109.061 176.583 108.998C176.597 108.934 176.59 108.868 176.565 108.808L174.737 104.644C174.711 104.584 174.667 104.535 174.611 104.502C174.555 104.468 174.491 104.453 174.426 104.459L170.647 104.765C169.57 103.328 168.266 102.076 166.786 101.059L166.939 97.2723C166.942 97.2069 166.925 97.1421 166.889 97.0872C166.854 97.0322 166.802 96.9899 166.741 96.9661L162.503 95.3136C162.442 95.29 162.376 95.2859 162.313 95.3018C162.25 95.3177 162.194 95.3529 162.152 95.4024L159.703 98.291C157.925 98.0379 156.118 98.0762 154.352 98.4043L151.78 95.619C151.736 95.5708 151.678 95.5375 151.615 95.5237C151.551 95.51 151.485 95.5166 151.425 95.5425L147.261 97.3703C147.201 97.3964 147.152 97.4404 147.119 97.4961C147.085 97.5518 147.07 97.6164 147.075 97.681L147.382 101.461C145.945 102.537 144.693 103.842 143.676 105.322L139.889 105.169C139.824 105.165 139.759 105.183 139.704 105.218C139.649 105.254 139.607 105.305 139.583 105.366L137.931 109.604C137.907 109.665 137.903 109.731 137.919 109.794C137.935 109.857 137.97 109.913 138.019 109.955L140.903 112.416C140.65 114.193 140.688 116 141.017 117.766L138.231 120.338C138.183 120.382 138.15 120.44 138.136 120.503C138.122 120.567 138.129 120.633 138.155 120.693L139.983 124.857C140.009 124.917 140.052 124.966 140.108 125C140.164 125.033 140.229 125.048 140.293 125.042L144.073 124.736C145.15 126.173 146.454 127.425 147.934 128.442L147.781 132.229C147.778 132.294 147.795 132.359 147.831 132.414C147.866 132.469 147.918 132.511 147.979 132.535L152.217 134.187C152.277 134.211 152.343 134.215 152.406 134.199C152.469 134.184 152.525 134.149 152.567 134.099L155.016 131.21C156.794 131.463 158.601 131.425 160.367 131.097L162.939 133.883C162.983 133.931 163.04 133.964 163.104 133.978C163.168 133.991 163.234 133.985 163.293 133.959L167.466 132.12Z" fill="#2762B0"/>
<path d="M155.068 118.215C154.106 117.528 153.447 116.494 153.231 115.331C153.015 114.169 153.258 112.968 153.909 111.98C154.56 110.993 155.568 110.297 156.722 110.038C157.876 109.779 159.085 109.978 160.096 110.592C161.106 111.207 161.839 112.189 162.14 113.332C162.442 114.476 162.288 115.692 161.711 116.724C161.134 117.757 160.179 118.525 159.048 118.868C157.916 119.211 156.695 119.102 155.642 118.564C155.443 118.461 155.251 118.345 155.068 118.215ZM157.142 111.034C156.325 111.173 155.585 111.598 155.053 112.233C154.521 112.868 154.233 113.672 154.24 114.5C154.247 115.328 154.548 116.127 155.09 116.753C155.632 117.38 156.38 117.792 157.198 117.918C158.017 118.043 158.854 117.873 159.558 117.437C160.263 117.002 160.79 116.33 161.044 115.542C161.298 114.753 161.264 113.9 160.946 113.135C160.629 112.37 160.049 111.743 159.312 111.367C158.643 111.025 157.882 110.908 157.142 111.034Z" fill="white"/>
<path d="M152.552 124.461C152.896 124.636 153.247 124.794 153.606 124.934C153.72 124.979 153.836 125.022 153.95 125.062C154.517 125.263 155.099 125.417 155.69 125.525L155.714 125.53L155.782 125.541L155.916 125.564C155.971 125.573 156.028 125.564 156.079 125.539C156.129 125.513 156.17 125.473 156.196 125.423C156.208 125.399 156.216 125.373 156.221 125.346C156.227 125.312 156.225 125.276 156.217 125.242C156.209 125.208 156.195 125.176 156.174 125.147C156.154 125.119 156.128 125.095 156.098 125.076C156.068 125.058 156.035 125.046 156.001 125.04C154.422 124.787 152.921 124.183 151.606 123.274C150.291 122.365 149.197 121.173 148.402 119.786C147.608 118.399 147.134 116.852 147.015 115.258C146.896 113.664 147.135 112.064 147.714 110.574C148.746 107.928 150.787 105.801 153.388 104.659C155.988 103.518 158.936 103.456 161.582 104.488C167.086 106.634 169.813 112.85 167.667 118.351C166.965 120.156 165.785 121.737 164.254 122.923C164.222 122.947 164.196 122.978 164.177 123.013C164.15 123.067 164.142 123.128 164.154 123.187C164.167 123.247 164.199 123.3 164.245 123.338C164.292 123.377 164.35 123.399 164.411 123.4C164.471 123.401 164.53 123.382 164.578 123.345C165.88 122.336 166.943 121.053 167.692 119.587C167.865 119.248 168.022 118.9 168.16 118.546C170.412 112.77 167.548 106.239 161.771 103.987C159.179 102.977 156.306 102.963 153.705 103.949C151.103 104.934 148.96 106.848 147.688 109.321C147.512 109.665 147.354 110.017 147.214 110.376C146.203 112.967 146.19 115.842 147.175 118.443C148.16 121.044 150.075 123.187 152.549 124.459L152.552 124.461Z" fill="white"/>
<defs>
<linearGradient id="paint0_linear_59_2093" x1="69.1803" y1="20.6404" x2="69.9714" y2="18.5158" gradientUnits="userSpaceOnUse">
<stop stop-color="#4F52FF"/>
<stop offset="1" stop-color="#4042E2"/>
</linearGradient>
<linearGradient id="paint1_linear_59_2093" x1="56.8076" y1="3.54203" x2="57.3506" y2="2.08366" gradientUnits="userSpaceOnUse">
<stop stop-color="#4F52FF"/>
<stop offset="1" stop-color="#4042E2"/>
</linearGradient>
</defs>
</svg>
