
<svg width="185" height="156" viewBox="0 0 185 156" fill="none" xmlns="http://www.w3.org/2000/svg">
<g opacity="0.3">
<path d="M152.85 145.466C152.708 145.415 152.593 145.31 152.528 145.174C152.464 145.038 152.456 144.882 152.506 144.74C152.712 144.166 152.895 143.576 153.051 142.98C153.089 142.836 153.181 142.713 153.309 142.637C153.437 142.561 153.589 142.538 153.733 142.574H153.744C153.816 142.593 153.884 142.626 153.943 142.671C154.003 142.716 154.052 142.773 154.09 142.837C154.128 142.902 154.152 142.973 154.162 143.047C154.172 143.121 154.167 143.196 154.148 143.268C153.984 143.891 153.792 144.513 153.576 145.117C153.529 145.249 153.434 145.359 153.311 145.426C153.187 145.492 153.044 145.511 152.908 145.478C152.888 145.475 152.869 145.471 152.85 145.466ZM153.616 140.049C153.692 139.442 153.738 138.824 153.76 138.216C153.763 138.142 153.78 138.068 153.811 138C153.841 137.932 153.885 137.87 153.94 137.819C153.995 137.768 154.059 137.728 154.129 137.702C154.199 137.676 154.274 137.664 154.349 137.667C154.423 137.669 154.497 137.687 154.565 137.718C154.633 137.749 154.694 137.794 154.745 137.849C154.796 137.903 154.835 137.968 154.861 138.038C154.887 138.108 154.898 138.183 154.895 138.258C154.872 138.897 154.819 139.547 154.742 140.186C154.724 140.336 154.647 140.472 154.528 140.564C154.41 140.657 154.259 140.699 154.11 140.681C154.088 140.678 154.065 140.674 154.043 140.669C153.908 140.636 153.79 140.555 153.71 140.441C153.631 140.326 153.597 140.187 153.613 140.049H153.616ZM153.661 135.231C153.597 134.624 153.508 134.013 153.393 133.413C153.377 133.339 153.375 133.262 153.389 133.187C153.403 133.113 153.432 133.042 153.473 132.978C153.515 132.915 153.569 132.861 153.632 132.819C153.695 132.777 153.766 132.747 153.841 132.733C153.915 132.719 153.992 132.72 154.066 132.736C154.14 132.751 154.21 132.782 154.273 132.825C154.335 132.869 154.388 132.924 154.428 132.988C154.469 133.053 154.496 133.124 154.508 133.199C154.629 133.831 154.724 134.475 154.79 135.113C154.805 135.262 154.76 135.412 154.666 135.529C154.571 135.646 154.433 135.721 154.284 135.736C154.219 135.743 154.154 135.739 154.091 135.723C153.976 135.696 153.873 135.635 153.795 135.547C153.717 135.458 153.669 135.348 153.656 135.231H153.661ZM152.627 130.525C152.429 129.946 152.205 129.37 151.959 128.811C151.898 128.673 151.895 128.517 151.949 128.376C152.003 128.236 152.111 128.123 152.249 128.062C152.387 128.001 152.544 127.997 152.684 128.052C152.825 128.106 152.938 128.214 152.999 128.352C153.257 128.94 153.494 129.547 153.701 130.156C153.725 130.226 153.735 130.301 153.731 130.375C153.726 130.45 153.707 130.522 153.674 130.589C153.641 130.656 153.595 130.716 153.539 130.765C153.483 130.814 153.418 130.852 153.348 130.876C153.245 130.912 153.135 130.917 153.03 130.891C152.937 130.869 152.851 130.824 152.78 130.76C152.709 130.696 152.656 130.615 152.624 130.525H152.627ZM150.57 126.166C150.25 125.647 149.903 125.134 149.539 124.643C149.493 124.583 149.459 124.514 149.439 124.441C149.42 124.368 149.415 124.292 149.426 124.217C149.436 124.142 149.461 124.07 149.5 124.005C149.538 123.94 149.59 123.883 149.65 123.838C149.711 123.793 149.781 123.761 149.854 123.743C149.928 123.725 150.004 123.722 150.079 123.734C150.153 123.746 150.225 123.773 150.289 123.813C150.353 123.853 150.409 123.906 150.452 123.968C150.835 124.484 151.2 125.024 151.537 125.57C151.578 125.634 151.607 125.705 151.621 125.78C151.634 125.855 151.633 125.931 151.616 126.005C151.6 126.08 151.569 126.15 151.525 126.211C151.48 126.273 151.424 126.326 151.36 126.366C151.295 126.405 151.223 126.432 151.148 126.443C151.073 126.455 150.996 126.451 150.923 126.433C150.849 126.414 150.78 126.381 150.719 126.335C150.659 126.289 150.608 126.232 150.57 126.166ZM147.6 122.371C147.173 121.935 146.722 121.512 146.259 121.114C146.149 121.014 146.082 120.876 146.073 120.728C146.064 120.58 146.113 120.435 146.209 120.323C146.306 120.21 146.442 120.14 146.59 120.127C146.737 120.114 146.884 120.159 146.999 120.252C147.486 120.672 147.962 121.117 148.412 121.576C148.517 121.683 148.575 121.828 148.574 121.979C148.572 122.13 148.511 122.274 148.404 122.379C148.296 122.485 148.151 122.543 148 122.541C147.85 122.54 147.706 122.479 147.6 122.371ZM127.554 115.843C127.526 115.695 127.558 115.542 127.643 115.418C127.727 115.293 127.858 115.207 128.006 115.179C128.637 115.059 129.282 114.966 129.92 114.901C129.994 114.893 130.069 114.9 130.14 114.922C130.211 114.943 130.278 114.978 130.336 115.026C130.393 115.073 130.441 115.131 130.477 115.196C130.512 115.262 130.534 115.334 130.542 115.408C130.549 115.482 130.542 115.557 130.521 115.628C130.499 115.7 130.464 115.766 130.417 115.824C130.37 115.882 130.312 115.93 130.246 115.965C130.181 116 130.109 116.022 130.034 116.03C129.426 116.092 128.814 116.183 128.214 116.295C128.135 116.31 128.053 116.308 127.975 116.289C127.869 116.263 127.773 116.207 127.698 116.128C127.623 116.049 127.572 115.95 127.552 115.843H127.554ZM143.866 119.33C143.352 119 142.818 118.689 142.279 118.405C142.211 118.371 142.151 118.324 142.102 118.267C142.053 118.209 142.016 118.143 141.993 118.071C141.97 117.999 141.961 117.923 141.968 117.848C141.974 117.773 141.996 117.7 142.031 117.633C142.066 117.566 142.114 117.507 142.172 117.459C142.231 117.411 142.298 117.375 142.37 117.353C142.443 117.332 142.518 117.325 142.593 117.333C142.669 117.341 142.741 117.363 142.807 117.4C143.376 117.699 143.939 118.027 144.479 118.375C144.592 118.448 144.675 118.558 144.714 118.686C144.754 118.814 144.746 118.953 144.693 119.076C144.641 119.199 144.546 119.3 144.426 119.36C144.306 119.42 144.169 119.436 144.038 119.404C143.976 119.39 143.917 119.365 143.864 119.33H143.866ZM132.478 115.35C132.48 115.276 132.498 115.202 132.529 115.135C132.56 115.067 132.604 115.006 132.659 114.955C132.713 114.905 132.778 114.865 132.848 114.839C132.917 114.813 132.992 114.802 133.066 114.804C133.708 114.829 134.357 114.881 134.996 114.957C135.072 114.964 135.145 114.986 135.212 115.022C135.28 115.058 135.339 115.107 135.387 115.167C135.434 115.226 135.47 115.294 135.491 115.367C135.512 115.441 135.518 115.517 135.508 115.593C135.499 115.668 135.474 115.741 135.436 115.807C135.398 115.873 135.347 115.931 135.286 115.977C135.226 116.022 135.156 116.056 135.082 116.074C135.009 116.092 134.932 116.096 134.856 116.084C134.25 116.008 133.632 115.959 133.02 115.936C132.982 115.935 132.944 115.929 132.907 115.92C132.78 115.889 132.668 115.815 132.589 115.711C132.511 115.606 132.47 115.478 132.475 115.347L132.478 115.35ZM139.546 117.204C138.972 116.997 138.382 116.813 137.791 116.656C137.645 116.619 137.52 116.525 137.443 116.396C137.366 116.267 137.344 116.112 137.381 115.966C137.418 115.82 137.511 115.695 137.641 115.618C137.77 115.541 137.925 115.519 138.07 115.556H138.083C138.704 115.721 139.326 115.915 139.93 116.132C140.067 116.182 140.179 116.282 140.244 116.411C140.309 116.541 140.322 116.69 140.28 116.829C140.238 116.968 140.145 117.086 140.019 117.158C139.894 117.231 139.745 117.252 139.604 117.218C139.584 117.213 139.564 117.206 139.544 117.198L139.546 117.204Z" fill="#35C0ED"/>
<path d="M123.709 117.436C123.822 117.464 123.94 117.456 124.048 117.414C124.321 117.309 124.6 117.208 124.879 117.113C125.01 117.056 125.115 116.952 125.173 116.821C125.231 116.691 125.237 116.543 125.191 116.408C125.145 116.273 125.049 116.16 124.924 116.092C124.798 116.024 124.651 116.006 124.513 116.041C124.22 116.141 123.926 116.248 123.638 116.359C123.525 116.402 123.43 116.481 123.365 116.583C123.299 116.685 123.269 116.805 123.277 116.926C123.285 117.046 123.331 117.161 123.409 117.254C123.487 117.346 123.592 117.412 123.709 117.44V117.436Z" fill="#35C0ED"/>
</g>
<g opacity="0.3">
<path d="M114.558 125.307C114.689 125.339 114.827 125.323 114.947 125.262C115.068 125.201 115.162 125.099 115.214 124.975C115.328 124.705 115.449 124.433 115.574 124.166C115.608 124.099 115.628 124.025 115.634 123.949C115.639 123.873 115.628 123.797 115.604 123.725C115.579 123.654 115.54 123.588 115.489 123.531C115.438 123.475 115.377 123.429 115.308 123.397C115.239 123.365 115.165 123.346 115.089 123.343C115.013 123.34 114.937 123.353 114.866 123.38C114.795 123.406 114.73 123.447 114.675 123.499C114.62 123.552 114.577 123.615 114.546 123.684C114.415 123.964 114.287 124.251 114.168 124.535C114.139 124.604 114.124 124.678 114.124 124.753C114.124 124.827 114.138 124.901 114.167 124.97C114.195 125.04 114.237 125.102 114.29 125.155C114.343 125.208 114.405 125.25 114.474 125.278C114.501 125.29 114.529 125.299 114.558 125.307Z" fill="#35C0ED"/>
<path d="M129.117 155.029C129.043 155.01 128.974 154.976 128.913 154.93C128.852 154.884 128.802 154.825 128.764 154.759C128.727 154.693 128.703 154.619 128.694 154.544C128.685 154.468 128.692 154.391 128.714 154.318C128.735 154.245 128.772 154.176 128.82 154.118C128.869 154.059 128.929 154.01 128.996 153.975C129.064 153.94 129.138 153.919 129.214 153.913C129.29 153.907 129.367 153.916 129.439 153.941C130.012 154.11 130.6 154.258 131.195 154.382C131.34 154.415 131.466 154.503 131.546 154.628C131.626 154.753 131.654 154.905 131.624 155.05C131.594 155.195 131.508 155.323 131.385 155.406C131.262 155.489 131.111 155.52 130.965 155.494C130.708 155.443 130.453 155.385 130.2 155.32C129.834 155.232 129.471 155.134 129.117 155.029ZM133.502 155.311C133.512 155.161 133.582 155.021 133.695 154.922C133.809 154.824 133.957 154.774 134.107 154.784C134.708 154.826 135.317 154.843 135.917 154.835C136.064 154.838 136.204 154.898 136.308 155.002C136.412 155.106 136.471 155.247 136.473 155.394C136.476 155.542 136.42 155.684 136.319 155.791C136.219 155.899 136.08 155.963 135.933 155.97C135.301 155.979 134.661 155.961 134.029 155.917C133.954 155.912 133.881 155.893 133.814 155.859C133.748 155.826 133.688 155.78 133.639 155.724C133.59 155.668 133.553 155.602 133.529 155.531C133.506 155.461 133.496 155.386 133.502 155.311ZM126.218 153.95C125.642 153.69 125.07 153.401 124.517 153.092C124.452 153.055 124.394 153.007 124.348 152.948C124.301 152.889 124.267 152.822 124.246 152.75C124.226 152.678 124.22 152.603 124.228 152.529C124.237 152.454 124.26 152.383 124.297 152.317C124.333 152.252 124.382 152.194 124.44 152.148C124.499 152.102 124.566 152.067 124.638 152.047C124.71 152.026 124.785 152.02 124.86 152.029C124.934 152.037 125.006 152.06 125.071 152.097C125.596 152.39 126.143 152.664 126.686 152.911C126.818 152.967 126.924 153.072 126.983 153.203C127.041 153.334 127.048 153.483 127.001 153.619C126.955 153.754 126.858 153.868 126.731 153.935C126.605 154.003 126.457 154.02 126.318 153.983C126.284 153.975 126.25 153.964 126.218 153.95ZM138.371 155.238C138.359 155.164 138.363 155.089 138.38 155.017C138.398 154.944 138.43 154.876 138.474 154.816C138.518 154.756 138.574 154.705 138.638 154.666C138.701 154.627 138.772 154.602 138.846 154.59C139.44 154.5 140.037 154.382 140.621 154.241C140.767 154.206 140.922 154.23 141.05 154.309C141.179 154.388 141.271 154.514 141.306 154.661C141.342 154.807 141.317 154.961 141.239 155.09C141.16 155.219 141.034 155.311 140.887 155.346C140.275 155.494 139.643 155.618 139.017 155.713C138.944 155.725 138.868 155.721 138.796 155.704C138.724 155.686 138.655 155.654 138.595 155.61C138.535 155.566 138.484 155.51 138.446 155.446C138.407 155.383 138.382 155.312 138.371 155.238ZM121.928 151.402C121.425 151.019 120.933 150.614 120.459 150.191C120.399 150.143 120.35 150.082 120.314 150.014C120.278 149.946 120.256 149.871 120.25 149.795C120.244 149.718 120.253 149.641 120.278 149.568C120.303 149.495 120.342 149.428 120.394 149.37C120.445 149.313 120.508 149.267 120.578 149.235C120.648 149.203 120.724 149.185 120.801 149.183C120.878 149.181 120.954 149.195 121.026 149.223C121.097 149.252 121.162 149.295 121.217 149.349C121.664 149.75 122.135 150.137 122.613 150.497C122.717 150.576 122.791 150.688 122.822 150.815C122.853 150.942 122.84 151.076 122.784 151.194C122.728 151.312 122.632 151.407 122.515 151.463C122.397 151.519 122.263 151.533 122.136 151.502C122.061 151.483 121.99 151.449 121.928 151.402ZM118.302 147.974C117.892 147.492 117.498 146.987 117.132 146.473C117.085 146.412 117.052 146.343 117.033 146.269C117.014 146.196 117.01 146.119 117.021 146.043C117.032 145.968 117.059 145.896 117.099 145.831C117.138 145.766 117.191 145.71 117.253 145.666C117.315 145.621 117.385 145.59 117.459 145.573C117.534 145.557 117.61 145.555 117.685 145.569C117.76 145.583 117.832 145.612 117.895 145.653C117.959 145.695 118.013 145.75 118.056 145.813C118.405 146.301 118.779 146.781 119.168 147.24C119.216 147.297 119.252 147.363 119.275 147.434C119.298 147.505 119.306 147.58 119.3 147.654C119.294 147.728 119.274 147.801 119.239 147.867C119.205 147.933 119.159 147.992 119.102 148.04C119.045 148.088 118.979 148.125 118.908 148.148C118.837 148.171 118.763 148.179 118.688 148.173C118.614 148.167 118.542 148.146 118.475 148.112C118.409 148.078 118.35 148.031 118.302 147.974ZM115.508 143.841C115.214 143.281 114.939 142.702 114.692 142.121C114.661 142.052 114.644 141.977 114.643 141.902C114.641 141.826 114.654 141.751 114.682 141.68C114.709 141.61 114.75 141.546 114.803 141.492C114.856 141.437 114.919 141.394 114.989 141.365C115.058 141.335 115.133 141.32 115.209 141.32C115.284 141.319 115.359 141.334 115.429 141.364C115.499 141.393 115.562 141.435 115.615 141.489C115.668 141.543 115.71 141.607 115.738 141.678C115.972 142.23 116.233 142.78 116.513 143.313C116.551 143.379 116.575 143.452 116.583 143.528C116.592 143.604 116.585 143.68 116.564 143.753C116.543 143.826 116.507 143.894 116.458 143.953C116.41 144.012 116.351 144.06 116.283 144.096C116.216 144.131 116.142 144.153 116.066 144.159C115.99 144.165 115.914 144.156 115.842 144.133C115.77 144.109 115.703 144.071 115.646 144.021C115.588 143.971 115.542 143.91 115.508 143.841ZM113.684 139.195C113.518 138.582 113.377 137.958 113.265 137.335C113.252 137.262 113.253 137.187 113.269 137.114C113.285 137.041 113.315 136.972 113.357 136.911C113.399 136.85 113.454 136.798 113.516 136.757C113.579 136.717 113.649 136.689 113.722 136.676C113.796 136.663 113.871 136.664 113.944 136.68C114.016 136.696 114.085 136.726 114.147 136.768C114.208 136.811 114.26 136.865 114.3 136.927C114.341 136.99 114.368 137.06 114.382 137.133C114.489 137.724 114.623 138.318 114.78 138.899C114.802 138.972 114.809 139.049 114.802 139.124C114.794 139.2 114.771 139.274 114.734 139.34C114.697 139.407 114.647 139.466 114.587 139.513C114.527 139.56 114.458 139.594 114.385 139.614C114.311 139.634 114.234 139.639 114.159 139.628C114.083 139.618 114.01 139.592 113.945 139.553C113.88 139.514 113.823 139.462 113.778 139.4C113.733 139.339 113.701 139.269 113.684 139.195ZM112.924 134.258C112.898 133.626 112.898 132.986 112.924 132.353C112.925 132.278 112.941 132.203 112.971 132.133C113.002 132.063 113.046 132.001 113.102 131.949C113.157 131.896 113.222 131.856 113.293 131.829C113.364 131.803 113.44 131.791 113.516 131.794C113.592 131.797 113.666 131.816 113.735 131.848C113.803 131.881 113.865 131.927 113.915 131.984C113.966 132.04 114.005 132.107 114.029 132.179C114.054 132.251 114.063 132.327 114.058 132.402C114.033 133.003 114.032 133.611 114.058 134.211C114.061 134.286 114.049 134.36 114.024 134.43C113.998 134.5 113.959 134.564 113.908 134.619C113.858 134.674 113.797 134.718 113.729 134.75C113.661 134.781 113.588 134.799 113.514 134.802C113.439 134.805 113.365 134.793 113.295 134.768C113.225 134.742 113.16 134.703 113.105 134.652C113.051 134.602 113.006 134.541 112.975 134.473C112.944 134.405 112.926 134.332 112.923 134.258H112.924ZM113.266 129.283C113.349 128.823 113.446 128.364 113.557 127.912C113.596 127.749 113.638 127.586 113.681 127.424C113.699 127.352 113.732 127.284 113.777 127.224C113.822 127.164 113.879 127.114 113.943 127.077C114.008 127.04 114.08 127.015 114.154 127.006C114.228 126.997 114.303 127.002 114.375 127.022C114.448 127.042 114.515 127.075 114.574 127.12C114.634 127.165 114.683 127.222 114.721 127.286C114.758 127.351 114.782 127.422 114.792 127.496C114.802 127.57 114.797 127.645 114.778 127.717C114.737 127.87 114.698 128.023 114.659 128.181C114.555 128.61 114.462 129.048 114.384 129.482C114.371 129.555 114.344 129.625 114.303 129.688C114.263 129.751 114.211 129.805 114.15 129.848C114.088 129.891 114.019 129.921 113.947 129.937C113.874 129.953 113.798 129.954 113.725 129.941L113.69 129.934C113.549 129.9 113.426 129.812 113.347 129.69C113.268 129.568 113.239 129.42 113.266 129.277V129.283Z" fill="#35C0ED"/>
<path d="M143.219 154.691C143.333 154.719 143.452 154.711 143.561 154.668C143.847 154.556 144.136 154.438 144.42 154.311C144.488 154.28 144.55 154.237 144.602 154.183C144.653 154.129 144.694 154.066 144.72 153.996C144.747 153.926 144.76 153.852 144.759 153.778C144.757 153.703 144.74 153.629 144.71 153.561C144.68 153.493 144.637 153.431 144.583 153.38C144.529 153.328 144.465 153.288 144.396 153.261C144.326 153.234 144.252 153.221 144.177 153.223C144.103 153.225 144.029 153.241 143.961 153.271C143.691 153.391 143.416 153.501 143.144 153.611C143.032 153.655 142.936 153.734 142.872 153.836C142.807 153.938 142.777 154.059 142.786 154.179C142.794 154.3 142.841 154.414 142.919 154.506C142.998 154.598 143.103 154.663 143.221 154.691H143.219Z" fill="#35C0ED"/>
</g>
<path d="M146.088 147.366C146.133 147.333 146.165 147.287 146.182 147.234C146.198 147.182 146.198 147.125 146.181 147.072L145.179 144.002C146.157 142.826 146.937 141.498 147.487 140.071L150.654 139.449C150.708 139.438 150.758 139.411 150.796 139.371C150.834 139.331 150.858 139.28 150.865 139.225L151.401 135.388C151.409 135.333 151.399 135.278 151.374 135.229C151.348 135.18 151.308 135.14 151.259 135.115L148.381 133.654C148.24 132.131 147.853 130.641 147.233 129.243L149.033 126.564C149.063 126.519 149.079 126.465 149.077 126.41C149.076 126.355 149.057 126.302 149.025 126.258L146.688 123.168C146.654 123.124 146.608 123.092 146.556 123.075C146.503 123.059 146.446 123.059 146.394 123.077L143.324 124.078C142.148 123.101 140.82 122.321 139.394 121.77L138.771 118.604C138.76 118.549 138.733 118.5 138.693 118.462C138.653 118.424 138.602 118.399 138.547 118.392L134.71 117.856C134.655 117.848 134.6 117.858 134.551 117.884C134.502 117.909 134.462 117.95 134.437 117.999L132.976 120.876C131.453 121.017 129.963 121.404 128.565 122.024L125.886 120.224C125.84 120.194 125.786 120.178 125.731 120.18C125.676 120.181 125.623 120.2 125.58 120.233L122.49 122.569C122.446 122.602 122.413 122.649 122.397 122.701C122.38 122.754 122.381 122.811 122.398 122.863L123.399 125.934C122.421 127.11 121.642 128.437 121.091 129.864L117.925 130.486C117.871 130.497 117.821 130.524 117.783 130.564C117.745 130.604 117.721 130.655 117.713 130.71L117.177 134.548C117.17 134.602 117.18 134.658 117.205 134.707C117.231 134.755 117.271 134.795 117.32 134.82L120.197 136.282C120.338 137.805 120.726 139.294 121.346 140.692L119.545 143.371C119.515 143.417 119.499 143.471 119.501 143.525C119.502 143.58 119.521 143.633 119.554 143.677L121.891 146.767C121.924 146.811 121.97 146.844 122.023 146.86C122.075 146.877 122.132 146.876 122.184 146.859L125.254 145.857C126.43 146.835 127.758 147.614 129.185 148.165L129.808 151.332C129.818 151.386 129.846 151.435 129.886 151.473C129.926 151.511 129.977 151.536 130.031 151.544L133.868 152.076C133.923 152.084 133.979 152.074 134.028 152.049C134.077 152.023 134.117 151.983 134.141 151.933L135.603 149.056C137.126 148.916 138.616 148.528 140.014 147.908L142.692 149.708C142.738 149.739 142.792 149.754 142.847 149.753C142.902 149.751 142.955 149.732 142.999 149.699L146.088 147.366Z" fill="#2762B0"/>
<path d="M133.014 138.761C132.082 138.382 131.333 137.655 130.925 136.735C130.517 135.815 130.481 134.772 130.826 133.826C131.171 132.88 131.869 132.105 132.774 131.663C133.679 131.221 134.72 131.147 135.678 131.457C136.636 131.767 137.436 132.437 137.911 133.324C138.386 134.212 138.497 135.25 138.223 136.219C137.949 137.187 137.309 138.012 136.439 138.519C135.569 139.026 134.537 139.176 133.559 138.937C133.373 138.891 133.192 138.833 133.014 138.761ZM133.315 132.403C132.664 132.679 132.134 133.178 131.818 133.81C131.502 134.442 131.421 135.166 131.59 135.852C131.76 136.538 132.168 137.141 132.741 137.554C133.315 137.966 134.017 138.161 134.721 138.103C135.425 138.046 136.086 137.739 136.584 137.238C137.083 136.738 137.387 136.076 137.442 135.371C137.497 134.667 137.299 133.966 136.885 133.394C136.47 132.822 135.865 132.416 135.178 132.25C134.557 132.099 133.903 132.153 133.315 132.403Z" fill="white"/>
<path d="M132.397 144.037C132.714 144.114 133.036 144.176 133.363 144.221C133.466 144.236 133.569 144.248 133.669 144.26C134.177 144.313 134.689 144.327 135.2 144.299H135.22H135.279L135.394 144.292C135.442 144.288 135.487 144.269 135.524 144.238C135.561 144.207 135.587 144.165 135.598 144.119C135.604 144.096 135.606 144.072 135.604 144.048C135.599 143.988 135.57 143.933 135.525 143.894C135.479 143.855 135.42 143.835 135.36 143.839C133.924 143.946 132.482 143.711 131.153 143.154C129.825 142.597 128.647 141.734 127.716 140.634C126.785 139.535 126.127 138.23 125.797 136.828C125.467 135.426 125.473 133.965 125.816 132.566C126.363 130.285 127.768 128.302 129.739 127.03C131.71 125.757 134.095 125.294 136.4 125.735C138.704 126.176 140.749 127.488 142.111 129.398C143.473 131.308 144.046 133.67 143.712 135.992C143.669 136.298 143.611 136.601 143.538 136.902C143.223 138.2 142.625 139.412 141.788 140.453C141.751 140.5 141.734 140.559 141.74 140.619C141.747 140.679 141.776 140.734 141.822 140.772C141.87 140.809 141.929 140.826 141.989 140.82C142.049 140.813 142.103 140.784 142.142 140.737C143.02 139.645 143.648 138.372 143.979 137.01C144.055 136.695 144.116 136.377 144.161 136.055C144.496 133.624 143.886 131.158 142.456 129.165C141.026 127.172 138.886 125.803 136.477 125.342C134.067 124.88 131.573 125.361 129.508 126.685C127.443 128.009 125.964 130.075 125.378 132.457C125.3 132.774 125.239 133.097 125.194 133.425C124.868 135.771 125.424 138.156 126.754 140.117C128.084 142.077 130.093 143.476 132.394 144.041L132.397 144.037Z" fill="white"/>
<path d="M92.1686 150.693C131.231 150.693 162.897 119.027 162.897 79.9652C162.897 40.9031 131.231 9.23706 92.1686 9.23706C53.1065 9.23706 21.4404 40.9031 21.4404 79.9652C21.4404 119.027 53.1065 150.693 92.1686 150.693Z" fill="#A1E8FF"/>
<g opacity="0.3">
<path d="M31.8755 50.4342C31.915 50.3543 31.9698 50.283 32.037 50.2243C32.1041 50.1657 32.1821 50.1208 32.2666 50.0924C32.351 50.0639 32.4403 50.0525 32.5292 50.0586C32.6181 50.0647 32.705 50.0883 32.7848 50.128C33.4369 50.4518 34.1127 50.7518 34.7939 51.0205C34.9592 51.0855 35.0923 51.2128 35.1647 51.375C35.2371 51.5371 35.2431 51.7212 35.1812 51.8877L35.1766 51.9007C35.1106 52.0681 34.9808 52.2025 34.8157 52.2743C34.6507 52.346 34.4639 52.3493 34.2964 52.2834C33.5792 52.001 32.8674 51.6856 32.1809 51.3443C32.0312 51.2697 31.9144 51.1426 31.8527 50.9872C31.7909 50.8319 31.7887 50.6592 31.8464 50.5023C31.8546 50.479 31.8643 50.4562 31.8755 50.4342ZM38.1976 52.0989C38.9087 52.2719 39.6335 52.4158 40.353 52.5276C40.5308 52.5551 40.6904 52.6521 40.7967 52.7973C40.903 52.9425 40.9473 53.1239 40.9198 53.3018C40.8923 53.4796 40.7952 53.6392 40.65 53.7455C40.5049 53.8518 40.3234 53.896 40.1456 53.8685C39.3886 53.7514 38.6255 53.5999 37.8769 53.4177C37.7904 53.3966 37.7088 53.3587 37.6369 53.3061C37.5651 53.2535 37.5042 53.1872 37.458 53.1111C37.4117 53.035 37.3809 52.9505 37.3673 52.8624C37.3537 52.7744 37.3575 52.6845 37.3787 52.598C37.3848 52.572 37.3925 52.5465 37.4016 52.5214C37.4597 52.3658 37.5727 52.2369 37.7194 52.1591C37.8661 52.0812 38.0362 52.0598 38.1976 52.0989ZM43.9098 52.8268C44.6392 52.8375 45.3778 52.8161 46.1057 52.7633C46.2831 52.7541 46.457 52.8148 46.5902 52.9324C46.7233 53.05 46.8051 53.2151 46.8179 53.3923C46.8307 53.5695 46.7736 53.7446 46.6587 53.8802C46.5439 54.0157 46.3805 54.1008 46.2037 54.1173C45.4383 54.1724 44.6583 54.1938 43.8906 54.1839C43.7998 54.1854 43.7095 54.1686 43.6252 54.1345C43.5409 54.1005 43.4644 54.0499 43.4 53.9857C43.3357 53.9215 43.2849 53.845 43.2506 53.7608C43.2164 53.6766 43.1994 53.5864 43.2007 53.4955C43.202 53.4046 43.2215 53.3149 43.2581 53.2317C43.2947 53.1485 43.3476 53.0735 43.4138 53.0111C43.4799 52.9488 43.5579 52.9003 43.6431 52.8687C43.7283 52.837 43.819 52.8228 43.9098 52.8268ZM49.6411 52.2589C50.3552 52.1058 51.0708 51.9198 51.7688 51.7063C51.8543 51.6803 51.944 51.6713 52.0329 51.6799C52.1218 51.6886 52.2081 51.7147 52.2869 51.7567C52.3658 51.7987 52.4355 51.8558 52.4923 51.9248C52.549 51.9937 52.5916 52.0732 52.6177 52.1586C52.6437 52.2441 52.6527 52.3338 52.644 52.4227C52.6354 52.5116 52.6093 52.5979 52.5673 52.6767C52.5253 52.7556 52.4682 52.8253 52.3992 52.8821C52.3302 52.9388 52.2508 52.9814 52.1653 53.0075C51.4313 53.2317 50.6774 53.4277 49.9258 53.5892C49.7498 53.6269 49.566 53.5931 49.4149 53.4954C49.2638 53.3976 49.1576 53.2439 49.1198 53.0679C49.0823 52.892 49.1161 52.7083 49.2139 52.5572C49.3116 52.4061 49.4652 52.3 49.6411 52.262V52.2589ZM55.1029 50.4281C55.7634 50.1219 56.4202 49.7813 57.0554 49.4178C57.2116 49.3284 57.3969 49.3048 57.5705 49.3521C57.7441 49.3994 57.8919 49.5138 57.9812 49.67C58.0705 49.8262 58.0941 50.0114 58.0468 50.1851C57.9995 50.3587 57.8852 50.5064 57.729 50.5957C57.0616 50.9784 56.3696 51.3358 55.6747 51.6588C55.5934 51.6999 55.5047 51.7242 55.4139 51.7303C55.3231 51.7363 55.2319 51.7241 55.1459 51.6942C55.0599 51.6644 54.9808 51.6176 54.9133 51.5565C54.8457 51.4955 54.7912 51.4215 54.7528 51.3389C54.7145 51.2563 54.6931 51.1669 54.69 51.0759C54.6869 50.9849 54.7022 50.8943 54.7348 50.8093C54.7675 50.7243 54.8169 50.6468 54.8801 50.5813C54.9434 50.5158 55.0191 50.4637 55.1029 50.4281ZM60.0229 47.4354C60.6007 46.9884 61.1656 46.5123 61.7067 46.0179C61.8393 45.8961 62.0148 45.8319 62.1947 45.8395C62.3745 45.8471 62.544 45.9259 62.6658 46.0584C62.7876 46.191 62.8517 46.3665 62.8441 46.5464C62.8365 46.7262 62.7578 46.8957 62.6252 47.0175C62.0596 47.5372 61.4649 48.0393 60.8571 48.5085C60.7871 48.5662 60.7062 48.6092 60.6192 48.6351C60.5322 48.6609 60.4409 48.669 60.3507 48.659C60.2605 48.6489 60.1733 48.6208 60.0942 48.5764C60.015 48.532 59.9456 48.4721 59.89 48.4004C59.8344 48.3287 59.7938 48.2465 59.7705 48.1588C59.7473 48.0711 59.7419 47.9796 59.7546 47.8898C59.7674 47.7999 59.798 47.7135 59.8447 47.6358C59.8915 47.558 59.9533 47.4904 60.0267 47.4369L60.0229 47.4354ZM70.5784 24.5554C70.6673 24.5491 70.7566 24.5603 70.8412 24.5885C70.9258 24.6167 71.004 24.6613 71.0713 24.7197C71.1386 24.7782 71.1938 24.8493 71.2336 24.9291C71.2734 25.0088 71.2971 25.0957 71.3033 25.1846C71.3568 25.95 71.3798 26.7292 71.3653 27.4984C71.3624 27.6782 71.2882 27.8496 71.1591 27.9748C71.0299 28.0999 70.8563 28.1686 70.6764 28.1658C70.4965 28.163 70.3252 28.0888 70.2 27.9596C70.0748 27.8304 70.0061 27.6568 70.009 27.4769C70.0205 26.746 70.0006 26.0066 69.9493 25.2795C69.9429 25.1906 69.9542 25.1014 69.9824 25.0168C70.0106 24.9323 70.0552 24.8542 70.1136 24.7869C70.1721 24.7197 70.2432 24.6646 70.323 24.6249C70.4027 24.5851 70.4895 24.5616 70.5784 24.5554ZM64.1552 43.4278C64.6191 42.8644 65.063 42.2743 65.4763 41.6735C65.5811 41.5334 65.7359 41.4391 65.9085 41.4105C66.0811 41.3819 66.2581 41.4211 66.4025 41.5199C66.5469 41.6187 66.6474 41.7695 66.6832 41.9408C66.719 42.112 66.6873 42.2905 66.5946 42.4389C66.1598 43.0719 65.6914 43.6934 65.2031 44.2866C65.1012 44.4107 64.9586 44.4947 64.8007 44.5236C64.6427 44.5525 64.4796 44.5243 64.3404 44.4442C64.2013 44.3641 64.095 44.2372 64.0406 44.0861C63.9863 43.935 63.9873 43.7695 64.0435 43.6191C64.0699 43.5496 64.1076 43.4849 64.1552 43.4278ZM70.4782 30.4681C70.6558 30.4962 70.8151 30.5936 70.921 30.7389C71.0269 30.8843 71.0708 31.0658 71.043 31.2435C70.9244 32.002 70.7705 32.7651 70.5838 33.5121C70.541 33.6869 70.4304 33.8375 70.2766 33.9308C70.1227 34.0241 69.9381 34.0524 69.7633 34.0096C69.5885 33.9668 69.4379 33.8563 69.3446 33.7024C69.2513 33.5485 69.2229 33.3639 69.2658 33.1891C69.4395 32.4788 69.5857 31.754 69.6982 31.033C69.727 30.8555 69.8247 30.6967 69.9701 30.5909C70.1154 30.4851 70.2966 30.441 70.4743 30.4681H70.4782ZM67.288 38.5989C67.6133 37.946 67.9149 37.2709 68.1835 36.592C68.2507 36.4278 68.3795 36.2963 68.5424 36.2258C68.7053 36.1554 68.8893 36.1515 69.055 36.2151C69.2207 36.2786 69.3549 36.4045 69.429 36.5658C69.503 36.7271 69.5109 36.911 69.451 37.0781C69.4489 37.0825 69.4471 37.0871 69.4456 37.0918C69.1624 37.8067 68.8448 38.5178 68.5027 39.2043C68.4236 39.3566 68.2898 39.4732 68.1282 39.5308C67.9666 39.5885 67.7892 39.5827 67.6316 39.5149C67.4741 39.447 67.348 39.322 67.2789 39.165C67.2097 39.008 67.2026 38.8306 67.2589 38.6686C67.2673 38.6433 67.2773 38.6196 67.288 38.5989Z" fill="#0B2952"/>
<path d="M69.6534 20.727C69.6055 20.8567 69.5983 20.998 69.6328 21.1319C69.72 21.471 69.8012 21.8169 69.8746 22.1613C69.9166 22.3329 70.0238 22.4814 70.1734 22.5752C70.3231 22.669 70.5034 22.7008 70.6761 22.6639C70.8488 22.6269 71.0004 22.5241 71.0985 22.3773C71.1967 22.2304 71.2337 22.0511 71.2018 21.8774C71.1253 21.5153 71.0388 21.151 70.9469 20.7943C70.9108 20.6545 70.831 20.5297 70.7192 20.4383C70.6073 20.3469 70.4692 20.2936 70.3249 20.2861C70.1806 20.2786 70.0377 20.3173 69.917 20.3966C69.7962 20.4759 69.7039 20.5916 69.6534 20.727Z" fill="url(#paint0_linear_16_251056)"/>
</g>
<g opacity="0.3">
<path d="M56.849 4.2657C56.7935 4.41728 56.7938 4.58367 56.8499 4.73502C56.9061 4.88637 57.0143 5.01277 57.1551 5.09156C57.4613 5.26378 57.7675 5.44594 58.0644 5.63193C58.2171 5.72045 58.3982 5.74606 58.5694 5.70332C58.7406 5.66059 58.8885 5.55287 58.9816 5.403C59.0747 5.25313 59.1059 5.07287 59.0684 4.90044C59.0309 4.728 58.9278 4.57694 58.7808 4.47925C58.4663 4.28331 58.144 4.09196 57.8233 3.91056C57.6667 3.82207 57.4813 3.79937 57.308 3.84745C57.1346 3.89552 56.9874 4.01044 56.8987 4.16696C56.8796 4.19855 56.863 4.23156 56.849 4.2657Z" fill="url(#paint1_linear_16_251056)"/>
<path d="M19.3705 16.5081C19.4052 16.4255 19.456 16.3506 19.5198 16.2877C19.5836 16.2248 19.6592 16.1752 19.7423 16.1417C19.8253 16.1082 19.9142 16.0914 20.0038 16.0924C20.0934 16.0934 20.1819 16.1121 20.2642 16.1475C20.3465 16.1828 20.421 16.2341 20.4834 16.2984C20.5458 16.3627 20.5949 16.4386 20.6278 16.522C20.6607 16.6053 20.6767 16.6943 20.6751 16.7839C20.6734 16.8734 20.654 16.9618 20.6181 17.0438C20.3364 17.699 20.0823 18.3771 19.8527 19.066C19.7932 19.2338 19.6703 19.3714 19.5103 19.4494C19.3503 19.5274 19.1661 19.5395 18.9973 19.483C18.8285 19.4265 18.6887 19.306 18.6079 19.1474C18.5271 18.9888 18.5118 18.8048 18.5653 18.6351C18.6673 18.3366 18.7717 18.0411 18.8783 17.7488C19.0299 17.3309 19.1967 16.9137 19.3705 16.5081ZM18.4252 21.6729C18.6013 21.7076 18.7565 21.8105 18.8569 21.9592C18.9573 22.108 18.9947 22.2904 18.961 22.4667C18.8271 23.1739 18.7222 23.8941 18.648 24.6098C18.6295 24.7887 18.5407 24.953 18.4011 25.0664C18.2615 25.1799 18.0826 25.2333 17.9036 25.2148C17.7247 25.1963 17.5604 25.1075 17.4469 24.9679C17.3335 24.8283 17.2801 24.6494 17.2986 24.4705C17.3751 23.7188 17.4869 22.9611 17.6277 22.2171C17.635 22.1792 17.6452 22.1418 17.6583 22.1054C17.714 21.954 17.8218 21.8274 17.9623 21.7482C18.1028 21.669 18.2669 21.6423 18.4252 21.6729ZM21.0582 13.2184C21.4478 12.5716 21.8703 11.9325 22.315 11.3194C22.4221 11.1777 22.5806 11.0837 22.7563 11.0575C22.9321 11.0313 23.111 11.0751 23.2549 11.1793C23.3987 11.2836 23.496 11.4401 23.5257 11.6153C23.5555 11.7904 23.5154 11.9703 23.4141 12.1162C22.9916 12.6979 22.5905 13.3049 22.2208 13.9187C22.1762 13.9978 22.1162 14.067 22.0443 14.1225C21.9724 14.1779 21.8902 14.2184 21.8024 14.2415C21.7146 14.2646 21.6231 14.2698 21.5333 14.2569C21.4434 14.2441 21.3571 14.2133 21.2793 14.1665C21.2016 14.1196 21.134 14.0577 21.0806 13.9843C21.0272 13.9109 20.9891 13.8275 20.9685 13.7391C20.9479 13.6508 20.9452 13.5591 20.9606 13.4697C20.976 13.3802 21.0092 13.2948 21.0582 13.2184ZM17.8275 27.4624C17.9165 27.4592 18.0053 27.4736 18.0887 27.5048C18.1722 27.536 18.2486 27.5834 18.3138 27.6442C18.3789 27.7049 18.4314 27.778 18.4682 27.8591C18.5051 27.9402 18.5256 28.0278 18.5286 28.1168C18.5538 28.8347 18.6051 29.5603 18.6946 30.2729C18.7073 30.3624 18.702 30.4535 18.679 30.5409C18.656 30.6283 18.6157 30.7102 18.5606 30.7819C18.5056 30.8535 18.4367 30.9134 18.3582 30.9581C18.2796 31.0028 18.1929 31.0314 18.1032 31.0421C18.0135 31.0529 17.9225 31.0456 17.8356 31.0207C17.7487 30.9959 17.6677 30.9539 17.5972 30.8973C17.5268 30.8407 17.4683 30.7706 17.4253 30.6911C17.3823 30.6116 17.3556 30.5244 17.3468 30.4344C17.2572 29.6836 17.1983 28.9197 17.1723 28.1635C17.1692 28.0744 17.1837 27.9856 17.215 27.9022C17.2463 27.8187 17.2937 27.7423 17.3545 27.6771C17.4154 27.612 17.4885 27.5595 17.5696 27.5227C17.6508 27.4858 17.7384 27.4654 17.8275 27.4624ZM24.6831 8.4806C25.2051 7.9364 25.7546 7.40904 26.3264 6.90541C26.4615 6.78595 26.6385 6.72505 26.8185 6.7361C26.9985 6.74715 27.1667 6.82926 27.2862 6.96435C27.4057 7.09944 27.4666 7.27646 27.4555 7.45646C27.4445 7.63645 27.3624 7.80469 27.2273 7.92415C26.6877 8.40023 26.1626 8.90309 25.6666 9.4205C25.6058 9.48812 25.532 9.54283 25.4496 9.58138C25.3672 9.61992 25.2779 9.64151 25.187 9.64487C25.0961 9.64823 25.0055 9.63329 24.9204 9.60093C24.8354 9.56858 24.7578 9.51947 24.6921 9.45653C24.6264 9.39358 24.5741 9.31808 24.5382 9.23451C24.5023 9.15094 24.4835 9.06101 24.483 8.97005C24.4825 8.87908 24.5003 8.78895 24.5354 8.705C24.5704 8.62105 24.6219 8.545 24.6869 8.48136L24.6831 8.4806ZM29.2586 4.65362C29.8885 4.23572 30.5437 3.83848 31.2058 3.47491C31.2838 3.43199 31.3696 3.40487 31.4581 3.39508C31.5466 3.3853 31.6362 3.39305 31.7218 3.41789C31.8073 3.44273 31.8871 3.48417 31.9566 3.53986C32.0262 3.59554 32.084 3.66437 32.1269 3.74242C32.1699 3.82047 32.197 3.9062 32.2068 3.99474C32.2166 4.08327 32.2088 4.17286 32.184 4.2584C32.1591 4.34393 32.1177 4.42374 32.062 4.49326C32.0063 4.56278 31.9375 4.62065 31.8594 4.66357C31.2303 5.00953 30.608 5.38687 30.0095 5.78411C29.8596 5.87694 29.6794 5.90781 29.5072 5.87019C29.3349 5.83257 29.1841 5.7294 29.0865 5.58253C28.989 5.43566 28.9524 5.2566 28.9845 5.08323C29.0166 4.90987 29.1149 4.7558 29.2586 4.65362ZM34.559 1.91733C35.2654 1.64562 35.9918 1.40146 36.7166 1.19021C36.8032 1.16121 36.8948 1.15001 36.9858 1.15726C37.0769 1.16452 37.1655 1.19009 37.2464 1.23244C37.3273 1.27479 37.3988 1.33304 37.4567 1.40371C37.5145 1.47437 37.5575 1.55599 37.583 1.64368C37.6086 1.73136 37.6161 1.82329 37.6053 1.91397C37.5944 2.00464 37.5653 2.09219 37.5198 2.17135C37.4743 2.25052 37.4132 2.31967 37.3403 2.37466C37.2674 2.42966 37.1841 2.46935 37.0955 2.49138C36.4066 2.69191 35.7178 2.92459 35.0458 3.18024C34.8778 3.24479 34.6911 3.23997 34.5266 3.16684C34.3622 3.0937 34.2336 2.95825 34.169 2.79027C34.1045 2.62229 34.1093 2.43555 34.1824 2.27112C34.2556 2.1067 34.391 1.97806 34.559 1.91351V1.91733ZM40.3301 0.401853C41.0794 0.291636 41.841 0.212036 42.5956 0.165346C42.6845 0.159869 42.7736 0.171955 42.8579 0.200916C42.9421 0.229877 43.0198 0.275145 43.0866 0.334136C43.1533 0.393127 43.2078 0.464685 43.2468 0.544725C43.2859 0.624765 43.3089 0.711719 43.3143 0.800623C43.3198 0.889527 43.3077 0.97864 43.2788 1.06287C43.2498 1.14711 43.2045 1.22481 43.1455 1.29155C43.0866 1.35829 43.015 1.41275 42.935 1.45183C42.8549 1.49092 42.768 1.51385 42.6791 1.51933C41.9627 1.56372 41.2394 1.6395 40.5283 1.74436C40.4387 1.76065 40.3468 1.75874 40.2579 1.73877C40.1691 1.7188 40.0852 1.68116 40.0112 1.62809C39.9372 1.57503 39.8746 1.50762 39.8272 1.42988C39.7798 1.35214 39.7485 1.26565 39.7352 1.17558C39.7219 1.0855 39.7269 0.993662 39.7498 0.905538C39.7727 0.817414 39.8131 0.7348 39.8686 0.662612C39.9241 0.590425 39.9936 0.530139 40.0728 0.485342C40.1521 0.440544 40.2396 0.412152 40.3301 0.401853ZM46.3001 0.19137C47.0533 0.248774 47.8133 0.339092 48.5604 0.460024C48.6483 0.474247 48.7326 0.505653 48.8084 0.552449C48.8842 0.599246 48.9501 0.660515 49.0022 0.732761C49.0543 0.805007 49.0917 0.886815 49.1122 0.973512C49.1328 1.06021 49.136 1.1501 49.1218 1.23805C49.1076 1.32599 49.0761 1.41028 49.0293 1.48609C48.9825 1.56191 48.9213 1.62776 48.849 1.67989C48.7768 1.73202 48.695 1.76941 48.6083 1.78993C48.5216 1.81045 48.4317 1.81369 48.3437 1.79946C47.6342 1.68466 46.9125 1.59893 46.2006 1.54459C46.0212 1.53089 45.8546 1.44654 45.7373 1.31006C45.6201 1.17357 45.5618 0.996124 45.5753 0.816698C45.5804 0.753404 45.594 0.691092 45.6159 0.631472C45.6674 0.495212 45.7613 0.379112 45.8839 0.300288C46.0064 0.221464 46.151 0.184085 46.2963 0.193666L46.3001 0.19137ZM52.1608 1.29507C52.6965 1.45733 53.227 1.63797 53.7474 1.83085C53.9365 1.9005 54.1232 1.97244 54.3092 2.04669C54.3929 2.07843 54.4694 2.12662 54.5342 2.18841C54.599 2.2502 54.6507 2.32434 54.6864 2.40645C54.7221 2.48855 54.7409 2.57698 54.7419 2.66649C54.7428 2.75601 54.7259 2.84481 54.6919 2.92766C54.6593 3.01072 54.6107 3.08652 54.5487 3.15074C54.4867 3.21495 54.4127 3.2663 54.3309 3.30186C54.249 3.33741 54.161 3.35646 54.0718 3.35792C53.9825 3.35938 53.8939 3.34321 53.811 3.31035C53.6344 3.23994 53.4558 3.17131 53.2752 3.10446C52.78 2.92077 52.2733 2.74932 51.7666 2.59547C51.5945 2.54299 51.4503 2.42436 51.3657 2.26564C51.281 2.10692 51.2628 1.92109 51.315 1.74895L51.3288 1.70838C51.39 1.5485 51.5093 1.41763 51.6629 1.34198C51.8164 1.26633 51.9929 1.25149 52.1569 1.30043L52.1608 1.29507Z" fill="#35C0ED"/>
<path d="M18.434 33.5339C18.3857 33.6646 18.3785 33.8069 18.4133 33.9418C18.5067 34.2978 18.6093 34.6575 18.7195 35.0134C18.7723 35.1854 18.8912 35.3295 19.0502 35.4138C19.2092 35.4981 19.3951 35.5158 19.5672 35.4631C19.7392 35.4103 19.8832 35.2913 19.9676 35.1324C20.0519 34.9734 20.0696 34.7874 20.0168 34.6154C19.9135 34.2786 19.8163 33.9365 19.7283 33.599C19.6916 33.4595 19.6114 33.3353 19.4995 33.2445C19.3875 33.1536 19.2495 33.1008 19.1054 33.0936C18.9614 33.0864 18.8188 33.1253 18.6984 33.2046C18.5779 33.2839 18.4859 33.3995 18.4355 33.5347L18.434 33.5339Z" fill="#35C0ED"/>
</g>
<path d="M28.3907 39.4122C28.4239 39.4694 28.4741 39.5148 28.5343 39.5423C28.5945 39.5697 28.6617 39.5777 28.7267 39.5653L32.5116 38.806C33.7704 40.1318 35.237 41.2435 36.8536 42.0972L37.1491 45.9433C37.1541 46.0091 37.1795 46.0716 37.2218 46.1222C37.264 46.1729 37.321 46.209 37.3848 46.2257L41.8647 47.3953C41.9286 47.4119 41.9961 47.4083 42.0578 47.3849C42.1195 47.3614 42.1724 47.3193 42.2091 47.2644L44.3469 44.0535C46.1742 44.0992 47.9968 43.8466 49.7429 43.3058L52.6728 45.8178C52.7228 45.8609 52.7851 45.8872 52.8508 45.8931C52.9166 45.899 52.9826 45.8842 53.0395 45.8507L57.034 43.5101C57.0916 43.4772 57.1373 43.4271 57.1647 43.3668C57.1922 43.3065 57.2 43.2391 57.1871 43.1741L56.4256 39.3885C57.7514 38.1297 58.8631 36.6631 59.7168 35.0464L63.5629 34.7509C63.6288 34.7458 63.6915 34.7203 63.7422 34.6779C63.793 34.6355 63.8292 34.5784 63.8461 34.5144L65.0156 30.0346C65.032 29.9707 65.0282 29.9033 65.0046 29.8417C64.981 29.7802 64.9388 29.7274 64.8839 29.6909L61.6693 27.5532C61.7152 25.7258 61.4629 23.9033 60.9223 22.1571L63.4343 19.2264C63.4771 19.1763 63.5034 19.1141 63.5093 19.0484C63.5152 18.9827 63.5005 18.9168 63.4672 18.8598L61.1266 14.8652C61.0936 14.8078 61.0435 14.7621 60.9832 14.7347C60.9229 14.7072 60.8556 14.6993 60.7906 14.7121L57.0057 15.4714C55.7469 14.1456 54.2803 13.0339 52.6636 12.1802L52.3682 8.3341C52.3633 8.26831 52.3379 8.2057 52.2956 8.15506C52.2534 8.10441 52.1963 8.06826 52.1325 8.05167L47.6526 6.88214C47.5887 6.86545 47.5212 6.86908 47.4595 6.89254C47.3977 6.916 47.3449 6.95811 47.3082 7.01303L45.1704 10.2277C43.3431 10.182 41.5205 10.4346 39.7744 10.9755L36.8445 8.46345C36.7944 8.42037 36.7322 8.39403 36.6664 8.38813C36.6007 8.38222 36.5347 8.39706 36.4778 8.43054L32.4825 10.7711C32.425 10.8041 32.3794 10.8543 32.3519 10.9145C32.3245 10.9748 32.3166 11.0421 32.3294 11.1071L33.0887 14.8912C31.7629 16.1501 30.6512 17.6167 29.7975 19.2333L25.9514 19.5288C25.8856 19.5341 25.8231 19.5597 25.7725 19.602C25.7219 19.6444 25.6857 19.7014 25.6689 19.7653L24.4994 24.2451C24.4828 24.309 24.4866 24.3764 24.5102 24.438C24.5338 24.4996 24.5761 24.5523 24.6311 24.5888L27.8419 26.7265C27.7975 28.5522 28.0509 30.373 28.592 32.1172L26.0799 35.0479C26.0371 35.098 26.0109 35.1603 26.005 35.226C25.9991 35.2917 26.0138 35.3576 26.047 35.4145L28.3907 39.4122Z" fill="#1F4E8D"/>
<path d="M40.3108 25.1348C40.8914 24.0801 41.8583 23.2915 43.0083 22.9349C44.1583 22.5784 45.4017 22.6817 46.4771 23.2231C47.5525 23.7644 48.3761 24.7017 48.7747 25.8378C49.1733 26.9739 49.1158 28.2203 48.6143 29.3149C48.1129 30.4095 47.2065 31.267 46.0858 31.7071C44.9652 32.1472 43.7175 32.1355 42.6052 31.6747C41.4929 31.2138 40.6027 30.3396 40.1217 29.2358C39.6407 28.1321 39.6064 26.8848 40.0261 25.7563C40.106 25.5426 40.2011 25.3349 40.3108 25.1348ZM47.8117 26.3809C47.5812 25.5884 47.0831 24.9004 46.4022 24.434C45.7213 23.9676 44.8997 23.7517 44.0775 23.8231C43.2552 23.8945 42.4832 24.2488 41.8929 24.8256C41.3026 25.4024 40.9305 26.166 40.8401 26.9863C40.7497 27.8067 40.9465 28.633 41.397 29.3245C41.8475 30.0161 42.5238 30.53 43.3107 30.7788C44.0977 31.0276 44.9465 30.9958 45.7126 30.6889C46.4788 30.382 47.1148 29.819 47.5124 29.0958C47.5975 28.9409 47.6712 28.78 47.7328 28.6143C47.9994 27.8979 48.0271 27.1144 47.8117 26.3809Z" fill="white"/>
<path d="M34.3478 23.4513C34.2111 23.8189 34.0931 24.1931 33.9942 24.5726C33.9621 24.6928 33.933 24.8137 33.9054 24.9347C33.7701 25.5314 33.6823 26.138 33.6429 26.7486C33.6429 26.7571 33.6429 26.7647 33.6429 26.7731C33.6429 26.7969 33.6429 26.8206 33.6429 26.8443C33.6429 26.8895 33.6383 26.9354 33.636 26.9813C33.6335 27.0386 33.6492 27.0952 33.6808 27.1431C33.7124 27.1909 33.7583 27.2275 33.812 27.2477C33.8389 27.2572 33.867 27.2629 33.8955 27.2645C33.9311 27.2661 33.9666 27.2606 34.0001 27.2484C34.0335 27.2361 34.0643 27.2175 34.0905 27.1934C34.1167 27.1693 34.138 27.1402 34.153 27.1079C34.1679 27.0756 34.1764 27.0406 34.1779 27.005C34.2746 24.7772 35.0513 22.6324 36.4035 20.8593C37.7558 19.0861 39.6187 17.7697 41.7415 17.0871C43.6004 16.49 45.5855 16.4033 47.4893 16.836C49.3932 17.2687 51.1458 18.2049 52.564 19.5467C53.9822 20.8886 55.0138 22.5868 55.5511 24.4638C56.0884 26.3408 56.1115 28.3276 55.6181 30.2166C54.0988 36.0336 48.1333 39.5277 42.3179 38.0099C40.4107 37.5123 38.6739 36.5072 37.2923 35.1014C37.2647 35.0728 37.2309 35.0508 37.1936 35.0371C37.1357 35.0152 37.0721 35.0138 37.0134 35.033C36.9546 35.0522 36.9042 35.091 36.8705 35.1428C36.8368 35.1947 36.8218 35.2565 36.8281 35.318C36.8344 35.3795 36.8615 35.4371 36.905 35.481C38.3548 36.9577 40.1783 38.0132 42.1809 38.535C48.2864 40.1293 54.5497 36.4569 56.1432 30.3537C56.8585 27.6141 56.5328 24.7066 55.2291 22.1932C53.9254 19.6798 51.7362 17.7389 49.0847 16.7457C48.7167 16.6085 48.3419 16.49 47.9619 16.3906C45.2212 15.6743 42.3122 15.9997 39.7976 17.3039C37.2829 18.6081 35.3411 20.7984 34.3478 23.4513Z" fill="white"/>
<g opacity="0.3">
<path d="M7.4421 66.2958C7.41068 66.3808 7.40756 66.4736 7.43321 66.5605C7.45887 66.6474 7.51192 66.7237 7.58447 66.778C7.86919 66.9908 8.16464 67.1982 8.46238 67.3903C8.50826 67.4228 8.56021 67.4456 8.61513 67.4576C8.67005 67.4695 8.72681 67.4703 8.78203 67.4598C8.83725 67.4494 8.88981 67.4279 8.93655 67.3967C8.9833 67.3655 9.02329 67.3252 9.05413 67.2782C9.08498 67.2313 9.10604 67.1785 9.11608 67.1232C9.12611 67.0679 9.12491 67.0112 9.11255 66.9564C9.10018 66.9015 9.0769 66.8498 9.0441 66.8041C9.0113 66.7585 8.96964 66.7199 8.92161 66.6907C8.63765 66.504 8.35675 66.308 8.08427 66.1029C8.04021 66.07 7.99008 66.046 7.93676 66.0325C7.88344 66.0189 7.82797 66.016 7.77352 66.0239C7.71907 66.0317 7.6667 66.0503 7.61942 66.0784C7.57215 66.1066 7.53088 66.1438 7.49798 66.1879C7.47429 66.221 7.45548 66.2573 7.4421 66.2958Z" fill="#35C0ED"/>
<path d="M9.90051 67.9671C9.9248 67.9177 9.95859 67.8736 9.99994 67.8373C10.0413 67.801 10.0894 67.7732 10.1415 67.7555C10.1936 67.7378 10.2487 67.7306 10.3036 67.7342C10.3585 67.7378 10.4122 67.7522 10.4615 67.7765C10.9858 68.0345 11.5285 68.2687 12.0765 68.473C12.1913 68.5159 12.3061 68.5572 12.4248 68.5986C12.4771 68.6165 12.5253 68.6447 12.5667 68.6814C12.608 68.7181 12.6417 68.7627 12.6657 68.8126C12.6897 68.8624 12.7035 68.9165 12.7065 68.9717C12.7094 69.027 12.7013 69.0822 12.6827 69.1343C12.6429 69.2373 12.5653 69.3213 12.4658 69.3692C12.3663 69.4171 12.2523 69.4254 12.1469 69.3923C12.0245 69.3494 11.903 69.3055 11.7826 69.2606C11.2063 69.046 10.6412 68.8023 10.0896 68.5304C9.99653 68.4845 9.9238 68.4057 9.88536 68.3094C9.84693 68.213 9.84551 68.1058 9.88138 68.0084C9.88826 67.9931 9.89515 67.9801 9.90051 67.9671ZM14.4737 69.1749C15.1676 69.3253 15.87 69.4329 16.577 69.4971C16.6855 69.5101 16.7846 69.5649 16.8533 69.6498C16.9219 69.7348 16.9548 69.8431 16.9448 69.9519C16.9348 70.0606 16.8828 70.1612 16.7999 70.2322C16.7169 70.3033 16.6095 70.3391 16.5005 70.3322C15.7592 70.2648 15.0228 70.1518 14.2954 69.9939C14.1869 69.9702 14.0921 69.9045 14.032 69.8111C13.9719 69.7177 13.9513 69.6042 13.9747 69.4956C13.9792 69.4759 13.9848 69.4565 13.9915 69.4374C14.0269 69.343 14.0952 69.2645 14.1837 69.2163C14.2723 69.1681 14.3752 69.1534 14.4737 69.1749ZM18.7048 69.5576C19.4146 69.5335 20.1222 69.4652 20.8235 69.3532C20.8778 69.3446 20.9333 69.3467 20.9868 69.3596C21.0403 69.3724 21.0907 69.3956 21.1353 69.4279C21.1798 69.4602 21.2175 69.5009 21.2463 69.5478C21.2751 69.5947 21.2943 69.6468 21.303 69.7011C21.3116 69.7554 21.3095 69.8109 21.2967 69.8644C21.2839 69.9179 21.2607 69.9684 21.2284 70.0129C21.1961 70.0574 21.1553 70.0952 21.1084 70.124C21.0615 70.1527 21.0094 70.172 20.9551 70.1806C20.2203 70.2977 19.4791 70.3695 18.7355 70.3957C18.6243 70.3994 18.5161 70.3589 18.4348 70.283C18.3534 70.2071 18.3055 70.102 18.3015 69.9908C18.2999 69.9363 18.3087 69.882 18.3275 69.8308C18.3564 69.7531 18.4076 69.6856 18.4748 69.6368C18.5419 69.5881 18.6219 69.5602 18.7048 69.5568V69.5576ZM22.9007 68.8887C23.5824 68.6908 24.2514 68.4512 24.9038 68.1715C25.0055 68.1304 25.1192 68.1308 25.2207 68.1726C25.3221 68.2143 25.4031 68.2942 25.4464 68.395C25.4896 68.4958 25.4917 68.6096 25.452 68.7119C25.4124 68.8141 25.3343 68.8968 25.2344 68.9422C24.5511 69.235 23.8504 69.4858 23.1365 69.6931C23.0825 69.7121 23.0252 69.7199 22.9681 69.716C22.911 69.712 22.8553 69.6964 22.8044 69.6702C22.7535 69.6439 22.7086 69.6075 22.6724 69.5632C22.6361 69.5189 22.6093 69.4676 22.5936 69.4126C22.5779 69.3575 22.5736 69.2998 22.5811 69.2431C22.5885 69.1863 22.6075 69.1317 22.6368 69.0825C22.6662 69.0334 22.7053 68.9907 22.7517 68.9573C22.7982 68.9238 22.851 68.9002 22.9069 68.8879L22.9007 68.8887ZM26.8043 67.2147C27.4177 66.8575 28.0086 66.4631 28.5738 66.0337C28.6175 65.9983 28.6678 65.9719 28.7218 65.9563C28.7758 65.9407 28.8324 65.9361 28.8882 65.9427C28.9441 65.9494 28.998 65.9673 29.0468 65.9952C29.0956 66.0231 29.1383 66.0606 29.1723 66.1053C29.2063 66.1501 29.231 66.2013 29.2449 66.2557C29.2587 66.3102 29.2615 66.3669 29.253 66.4225C29.2445 66.4781 29.225 66.5314 29.1955 66.5793C29.166 66.6271 29.1271 66.6686 29.0813 66.7011C28.4887 67.1511 27.8694 67.5647 27.2268 67.9396C27.152 67.983 27.0657 68.0023 26.9795 67.9948C26.8934 67.9873 26.8117 67.9534 26.7456 67.8977C26.6795 67.842 26.6322 67.7672 26.6103 67.6836C26.5883 67.6 26.5927 67.5116 26.6229 67.4306C26.657 67.3397 26.7213 67.2632 26.805 67.214L26.8043 67.2147ZM30.185 64.6445C30.6925 64.149 31.1689 63.6227 31.6117 63.0686C31.6451 63.023 31.6874 62.9847 31.736 62.9558C31.7846 62.927 31.8386 62.9083 31.8946 62.9008C31.9506 62.8934 32.0076 62.8973 32.062 62.9124C32.1165 62.9276 32.1674 62.9535 32.2115 62.9888C32.2557 63.024 32.2923 63.0678 32.3191 63.1176C32.346 63.1673 32.3625 63.222 32.3676 63.2783C32.3728 63.3345 32.3665 63.3913 32.3492 63.4451C32.3319 63.4989 32.3039 63.5486 32.2669 63.5913C31.8025 64.1727 31.3028 64.7248 30.7705 65.2446C30.7316 65.2852 30.6849 65.3176 30.6332 65.3398C30.5815 65.362 30.5259 65.3735 30.4696 65.3738C30.4134 65.374 30.3576 65.3629 30.3057 65.3412C30.2538 65.3195 30.2068 65.2875 30.1676 65.2473C30.1283 65.207 30.0975 65.1592 30.077 65.1068C30.0566 65.0544 30.0469 64.9984 30.0485 64.9422C30.0501 64.886 30.063 64.8306 30.0865 64.7795C30.11 64.7284 30.1435 64.6825 30.185 64.6445ZM32.834 61.3273C33.2042 60.7218 33.5365 60.094 33.8291 59.4475C33.875 59.346 33.9594 59.2669 34.0637 59.2277C34.168 59.1884 34.2836 59.1922 34.3851 59.2382C34.4866 59.2841 34.5657 59.3686 34.6049 59.4728C34.6442 59.5771 34.6404 59.6927 34.5944 59.7942C34.2853 60.4714 33.9352 61.1291 33.5459 61.7636C33.4913 61.852 33.4058 61.917 33.3061 61.946C33.2063 61.975 33.0993 61.966 33.0058 61.9206C32.9124 61.8753 32.839 61.7968 32.8001 61.7005C32.7611 61.6042 32.7593 61.4968 32.795 61.3993C32.8059 61.3742 32.8189 61.3501 32.834 61.3273ZM35.5856 55.0511C35.6398 55.0608 35.6916 55.0812 35.7379 55.111C35.7843 55.1408 35.8242 55.1795 35.8556 55.2248C35.887 55.2701 35.9091 55.3211 35.9207 55.375C35.9323 55.4288 35.9331 55.4844 35.9232 55.5386C35.8062 56.1745 35.656 56.8037 35.4731 57.4238C35.4456 57.5179 35.4172 57.6113 35.3882 57.7047C35.3519 57.807 35.2773 57.8913 35.1802 57.9398C35.083 57.9883 34.9708 57.9972 34.8672 57.9647C34.7636 57.9322 34.6767 57.8608 34.6247 57.7655C34.5726 57.6701 34.5596 57.5584 34.5883 57.4537C34.6159 57.3664 34.6427 57.2776 34.6649 57.1881C34.8398 56.596 34.9831 55.9951 35.0942 55.3879C35.0988 55.3636 35.1055 55.3398 35.1141 55.3167C35.1485 55.2237 35.2147 55.1459 35.3011 55.0973C35.3875 55.0486 35.4883 55.0322 35.5856 55.0511Z" fill="#1F4E8D"/>
</g>
<g opacity="0.3">
<path d="M1.33103 45.7603C1.59556 45.0792 1.90074 44.4147 2.24491 43.7702C2.26956 43.7194 2.30421 43.6741 2.34677 43.6371C2.38934 43.6 2.43895 43.5719 2.49264 43.5545C2.54632 43.537 2.60298 43.5306 2.65921 43.5355C2.71544 43.5405 2.77009 43.5568 2.81988 43.5834C2.86967 43.61 2.91358 43.6464 2.94898 43.6903C2.98438 43.7343 3.01054 43.785 3.02589 43.8393C3.04124 43.8936 3.04547 43.9505 3.03832 44.0065C3.03117 44.0625 3.01279 44.1164 2.98429 44.1652C2.65586 44.7811 2.36474 45.4163 2.1125 46.0672C2.0705 46.1676 1.99112 46.2477 1.89112 46.2907C1.79113 46.3337 1.67834 46.3361 1.5766 46.2974C1.47486 46.2588 1.39213 46.1821 1.34588 46.0836C1.29963 45.985 1.29348 45.8724 1.32874 45.7694L1.33103 45.7603ZM1.1726 47.549C1.22619 47.5623 1.27662 47.5861 1.32102 47.6189C1.36542 47.6518 1.40291 47.693 1.43134 47.7404C1.45978 47.7877 1.4786 47.8402 1.48674 47.8948C1.49487 47.9495 1.49216 48.0052 1.47875 48.0587C1.30613 48.7357 1.1745 49.4225 1.08458 50.1153C1.06652 50.2224 1.00767 50.3182 0.920397 50.3828C0.833127 50.4473 0.724234 50.4755 0.616605 50.4615C0.508976 50.4474 0.410994 50.3921 0.343254 50.3073C0.275513 50.2225 0.243289 50.1147 0.253356 50.0067C0.347918 49.2809 0.485679 48.5614 0.665905 47.8521C0.669576 47.8373 0.674177 47.8227 0.679681 47.8084C0.715712 47.7123 0.785842 47.6327 0.876727 47.5848C0.967612 47.537 1.07291 47.5242 1.1726 47.549ZM3.39224 41.8965C3.81393 41.2979 4.27118 40.7251 4.76153 40.1813C4.83603 40.0987 4.9403 40.049 5.0514 40.0433C5.1625 40.0375 5.27133 40.0762 5.35395 40.1507C5.43656 40.2252 5.48621 40.3294 5.49195 40.4405C5.49769 40.5516 5.45906 40.6605 5.38456 40.7431C4.91614 41.2614 4.47958 41.8076 4.07727 42.3787C4.01875 42.4621 3.93184 42.5213 3.83283 42.5452C3.73382 42.5691 3.62949 42.556 3.53939 42.5086C3.44929 42.4611 3.37958 42.3823 3.34334 42.2872C3.30709 42.192 3.30679 42.0868 3.34249 41.9914C3.35604 41.9577 3.37378 41.9258 3.3953 41.8965H3.39224ZM0.52048 51.7816C0.631526 51.7826 0.737655 51.8275 0.815676 51.9066C0.893697 51.9856 0.937264 52.0923 0.936855 52.2033C0.932335 52.9018 0.970419 53.5998 1.0509 54.2936C1.05989 54.4021 1.02639 54.5098 0.957473 54.594C0.888553 54.6782 0.789606 54.7323 0.681526 54.7449C0.573447 54.7575 0.464696 54.7277 0.378235 54.6616C0.291773 54.5955 0.234371 54.4984 0.218148 54.3908C0.133723 53.663 0.0935932 52.9307 0.0979806 52.198C0.0991921 52.0869 0.14429 51.9807 0.223436 51.9027C0.302583 51.8247 0.409359 51.7812 0.52048 51.7816ZM6.32906 38.6467C6.88307 38.167 7.46558 37.7212 8.0734 37.3118C8.11903 37.2811 8.17027 37.2596 8.2242 37.2486C8.27813 37.2377 8.33369 37.2375 8.38771 37.248C8.44172 37.2585 8.49314 37.2796 8.53901 37.31C8.58489 37.3403 8.62434 37.3795 8.65509 37.4251C8.68585 37.4707 8.70732 37.522 8.71827 37.5759C8.72923 37.6298 8.72945 37.6854 8.71893 37.7394C8.70841 37.7934 8.68736 37.8448 8.65697 37.8907C8.62658 37.9366 8.58745 37.976 8.54182 38.0068C7.96323 38.3972 7.40884 38.8222 6.88168 39.2797C6.81143 39.3395 6.72341 39.3745 6.63124 39.3793C6.53907 39.384 6.44791 39.3583 6.37188 39.3059C6.29585 39.2536 6.2392 39.1777 6.2107 39.0899C6.1822 39.0021 6.18345 38.9074 6.21425 38.8204C6.23796 38.7533 6.27856 38.6935 6.33212 38.6467H6.32906ZM9.95933 36.1974C10.6136 35.8629 11.2873 35.5679 11.9769 35.3141C12.0813 35.2759 12.1965 35.2806 12.2974 35.3273C12.3982 35.3741 12.4763 35.4589 12.5146 35.5633C12.5529 35.6676 12.5481 35.7829 12.5014 35.8837C12.4547 35.9846 12.3698 36.0627 12.2655 36.101C11.6101 36.343 10.9698 36.6241 10.3481 36.9429C10.299 36.9695 10.2451 36.986 10.1895 36.9915C10.1339 36.9969 10.0777 36.9912 10.0244 36.9747C9.97103 36.9581 9.9215 36.9311 9.87873 36.8952C9.83596 36.8592 9.80079 36.8151 9.7753 36.7654C9.74981 36.7157 9.73451 36.6614 9.73029 36.6057C9.72607 36.55 9.73302 36.494 9.75073 36.441C9.76844 36.388 9.79656 36.3391 9.83343 36.2972C9.8703 36.2552 9.91519 36.221 9.96545 36.1966L9.95933 36.1974ZM14.0726 34.6865C14.7856 34.5185 15.5082 34.3943 16.2363 34.3145C16.291 34.3085 16.3463 34.3133 16.3992 34.3287C16.452 34.344 16.5013 34.3696 16.5442 34.404C16.5871 34.4384 16.6229 34.4809 16.6494 34.5291C16.6759 34.5774 16.6926 34.6303 16.6986 34.685C16.7047 34.7397 16.6999 34.795 16.6845 34.8478C16.6692 34.9006 16.6436 34.9499 16.6092 34.9929C16.5748 35.0358 16.5322 35.0715 16.484 35.098C16.4358 35.1245 16.3829 35.1413 16.3282 35.1473C15.6327 35.2236 14.9426 35.3422 14.2616 35.5024C14.2072 35.5175 14.1503 35.5215 14.0943 35.514C14.0383 35.5066 13.9844 35.488 13.9358 35.4592C13.8872 35.4304 13.845 35.3922 13.8115 35.3466C13.7781 35.3011 13.7542 35.2494 13.7412 35.1944C13.7283 35.1394 13.7266 35.0824 13.7362 35.0268C13.7458 34.9711 13.7666 34.918 13.7972 34.8706C13.8279 34.8231 13.8678 34.7824 13.9146 34.7508C13.9614 34.7191 14.0141 34.6973 14.0695 34.6865H14.0726Z" fill="#35C0ED"/>
<path d="M0.733058 55.9278C0.703927 56.0062 0.699126 56.0915 0.719282 56.1727C0.803475 56.521 0.899148 56.8685 1.00248 57.206C1.01684 57.2607 1.0421 57.3118 1.07674 57.3565C1.11138 57.4011 1.15469 57.4383 1.20406 57.4658C1.25343 57.4933 1.30784 57.5106 1.36404 57.5165C1.42024 57.5224 1.47705 57.517 1.53108 57.5004C1.58511 57.4838 1.63523 57.4565 1.67844 57.4201C1.72165 57.3837 1.75706 57.3389 1.78253 57.2885C1.80801 57.238 1.82303 57.183 1.82669 57.1266C1.83035 57.0702 1.82258 57.0136 1.80384 56.9603C1.70511 56.6388 1.61403 56.3074 1.53366 55.9745C1.51237 55.8873 1.46367 55.8092 1.39472 55.7518C1.32578 55.6943 1.24022 55.6605 1.15061 55.6553C1.06101 55.65 0.9721 55.6737 0.89694 55.7227C0.82178 55.7718 0.764339 55.8437 0.733058 55.9278Z" fill="#35C0ED"/>
</g>
<path d="M7.5793 60.3538C7.60153 60.3919 7.63509 60.4221 7.67528 60.4402C7.71547 60.4583 7.76031 60.4634 7.80356 60.4549L10.3363 59.9467C11.1797 60.8335 12.1621 61.577 13.2448 62.1479L13.4422 64.722C13.4456 64.7661 13.4627 64.808 13.4911 64.8419C13.5195 64.8758 13.5578 64.9 13.6007 64.911L16.5979 65.6932C16.6405 65.7043 16.6855 65.7019 16.7267 65.6862C16.7678 65.6706 16.8031 65.6426 16.8276 65.606L18.2581 63.4575C19.481 63.4878 20.7007 63.3187 21.8692 62.9569L23.8294 64.6408C23.863 64.6696 23.9047 64.6872 23.9487 64.6912C23.9927 64.6951 24.0369 64.6853 24.0751 64.663L26.7478 63.097C26.7861 63.0747 26.8163 63.0411 26.8345 63.0007C26.8526 62.9604 26.8576 62.9153 26.8489 62.872L26.3407 60.3393C27.2282 59.4962 27.972 58.5138 28.5427 57.4308L31.116 57.2333C31.1605 57.2301 31.203 57.213 31.2372 57.1842C31.2714 57.1555 31.2957 57.1167 31.3065 57.0734L32.0895 54.0761C32.1002 54.0334 32.0975 53.9885 32.0817 53.9474C32.066 53.9063 32.038 53.8711 32.0015 53.8465L29.8523 52.4167C29.883 51.194 29.7139 49.9745 29.3517 48.8063L31.0356 46.8454C31.0641 46.8117 31.0815 46.7699 31.0854 46.7259C31.0892 46.6819 31.0793 46.6378 31.057 46.5997L29.491 43.9269C29.4687 43.8888 29.435 43.8586 29.3946 43.8405C29.3543 43.8224 29.3094 43.8173 29.266 43.8259L26.7333 44.3341C25.8902 43.4468 24.9078 42.7032 23.8248 42.1328L23.6266 39.5588C23.6232 39.5148 23.6062 39.473 23.578 39.4391C23.5497 39.4052 23.5116 39.381 23.4689 39.3698L20.4708 38.5875C20.4282 38.5766 20.3833 38.5791 20.3422 38.5947C20.3011 38.6103 20.2658 38.6383 20.2412 38.6748L18.8107 40.8233C17.588 40.7926 16.3685 40.9617 15.2003 41.3238L13.2394 39.64C13.2059 39.6111 13.1642 39.5934 13.1201 39.5894C13.0761 39.5855 13.0318 39.5954 12.9937 39.6178L10.3209 41.1838C10.2828 41.2061 10.2526 41.2398 10.2345 41.2801C10.2164 41.3205 10.2113 41.3654 10.2199 41.4088L10.7281 43.9415C9.84106 44.7848 9.09753 45.7672 8.52686 46.85L5.9536 47.0467C5.90963 47.0501 5.86782 47.0672 5.83396 47.0954C5.80009 47.1237 5.77583 47.1617 5.76454 47.2044L4.98231 50.2024C4.9713 50.2451 4.97386 50.2901 4.98963 50.3313C5.00541 50.3724 5.03361 50.4076 5.07033 50.432L7.21879 51.8626C7.18824 53.0852 7.35706 54.3046 7.7186 55.4729L6.03473 57.4339C6.00607 57.4675 5.98854 57.5092 5.98457 57.5532C5.98059 57.5972 5.99036 57.6413 6.01254 57.6796L7.5793 60.3538Z" fill="#1F4E8D"/>
<path d="M15.7361 50.5767C16.1308 49.8621 16.7872 49.3284 17.5673 49.0876C18.3474 48.8468 19.1904 48.9178 19.9193 49.2857C20.6481 49.6535 21.2059 50.2895 21.4756 51.0601C21.7453 51.8307 21.7057 52.6758 21.3653 53.4178C21.0249 54.1598 20.4101 54.741 19.6501 55.0392C18.8901 55.3374 18.0441 55.3294 17.2899 55.0168C16.5357 54.7043 15.932 54.1116 15.6057 53.3632C15.2794 52.6149 15.2559 51.7692 15.5401 51.0038C15.5949 50.8569 15.6604 50.7141 15.7361 50.5767ZM19.6396 50.0601C19.0978 49.762 18.4598 49.6913 17.8658 49.8635C17.2719 50.0358 16.7707 50.4368 16.4724 50.9786C16.2499 51.3827 16.1523 51.8437 16.1918 52.3032C16.2313 52.7628 16.4062 53.2004 16.6945 53.5605C16.9827 53.9207 17.3712 54.1873 17.811 54.3266C18.2507 54.466 18.7219 54.4718 19.1649 54.3433C19.608 54.2148 20.0029 53.9578 20.2999 53.6049C20.5969 53.2519 20.7825 52.8188 20.8333 52.3603C20.8842 51.9018 20.7979 51.4386 20.5854 51.0291C20.3729 50.6197 20.0438 50.2825 19.6396 50.0601Z" fill="white"/>
<path d="M10.9545 49.1921C10.673 49.9478 10.5081 50.7419 10.4654 51.5472C10.4654 51.571 10.4654 51.5954 10.4654 51.6192C10.4606 51.6755 10.4672 51.7323 10.4848 51.786C10.5025 51.8397 10.5309 51.8893 10.5682 51.9318C10.6055 51.9743 10.651 52.0088 10.702 52.0332C10.753 52.0576 10.8084 52.0715 10.8649 52.074C10.9214 52.0765 10.9778 52.0675 11.0308 52.0476C11.0837 52.0277 11.1321 51.9974 11.173 51.9583C11.2139 51.9193 11.2464 51.8723 11.2687 51.8204C11.291 51.7684 11.3026 51.7125 11.3027 51.6559C11.3243 51.1539 11.3992 50.6557 11.5262 50.1695C11.5331 50.1427 11.54 50.1159 11.5477 50.093C11.852 48.9632 12.4355 47.928 13.2445 47.0827C13.6847 46.6234 14.1847 46.2254 14.7309 45.8994L14.7447 45.891L14.7861 45.8665C15.5847 45.3956 16.4687 45.0878 17.387 44.9609C18.3054 44.834 19.2398 44.8905 20.1362 45.1271C20.3719 45.1888 20.6015 45.2618 20.825 45.346C21.8131 45.7174 22.7054 46.3057 23.436 47.0677C24.1666 47.8296 24.7169 48.7458 25.0465 49.7487C25.376 50.7515 25.4764 51.8155 25.3402 52.8623C25.204 53.9091 24.8347 54.912 24.2594 55.7972C23.6842 56.6823 22.9177 57.4271 22.0165 57.9767C21.1152 58.5264 20.1022 58.8668 19.0519 58.9729C18.0016 59.0791 16.9409 58.9483 15.9479 58.5901C14.9549 58.232 14.0549 57.6556 13.3142 56.9035C13.2709 56.8599 13.2187 56.8262 13.1611 56.8047C13.0713 56.7696 12.972 56.7667 12.8802 56.7963C12.7884 56.826 12.7097 56.8864 12.6573 56.9674C12.6049 57.0484 12.5821 57.145 12.5928 57.2409C12.6034 57.3368 12.6468 57.426 12.7157 57.4936C13.5252 58.3191 14.5067 58.956 15.5905 59.3588C15.8414 59.4522 16.0968 59.533 16.3559 59.6007C18.3132 60.1096 20.3911 59.8481 22.1613 58.8701C23.9314 57.892 25.2588 56.2721 25.8697 54.3442C26.4806 52.4163 26.3285 50.3275 25.4447 48.5085C24.5609 46.6894 23.0129 45.2788 21.1197 44.5676C20.8646 44.4742 20.6064 44.3928 20.3451 44.3234C18.4549 43.8318 16.4496 44.0572 14.7157 44.9562C12.9818 45.8551 11.642 47.364 10.9545 49.1921Z" fill="white"/>
<g opacity="0.3">
<path d="M178.866 129.331C178.719 129.235 178.616 129.084 178.579 128.912C178.542 128.74 178.575 128.56 178.671 128.412C179.061 127.813 179.431 127.188 179.771 126.554C179.853 126.4 179.993 126.285 180.159 126.232C180.326 126.18 180.506 126.196 180.662 126.275L180.673 126.281C180.829 126.364 180.945 126.506 180.996 126.676C181.047 126.845 181.029 127.027 180.946 127.183C180.588 127.851 180.199 128.509 179.788 129.14C179.698 129.277 179.56 129.377 179.401 129.419C179.242 129.462 179.073 129.444 178.927 129.369C178.906 129.358 178.885 129.345 178.866 129.331ZM181.212 123.352C181.462 122.677 181.685 121.987 181.876 121.297C181.923 121.127 182.036 120.982 182.19 120.895C182.344 120.808 182.526 120.786 182.696 120.833C182.867 120.88 183.011 120.993 183.098 121.147C183.185 121.301 183.208 121.483 183.161 121.653C182.96 122.379 182.725 123.107 182.462 123.815C182.4 123.98 182.276 124.115 182.115 124.189C181.954 124.262 181.771 124.269 181.605 124.208C181.581 124.199 181.556 124.189 181.533 124.177C181.388 124.102 181.275 123.977 181.216 123.825C181.157 123.673 181.155 123.505 181.212 123.352ZM182.574 117.861C182.668 117.15 182.731 116.427 182.763 115.711C182.765 115.623 182.785 115.536 182.821 115.455C182.858 115.374 182.91 115.301 182.975 115.241C183.039 115.181 183.115 115.134 183.199 115.103C183.282 115.072 183.37 115.059 183.459 115.063C183.547 115.067 183.634 115.088 183.714 115.126C183.794 115.164 183.866 115.217 183.925 115.283C183.984 115.349 184.03 115.426 184.059 115.51C184.088 115.593 184.1 115.682 184.094 115.77C184.062 116.525 183.994 117.287 183.896 118.035C183.873 118.21 183.781 118.369 183.641 118.477C183.501 118.584 183.324 118.632 183.148 118.609C183.073 118.599 182.999 118.576 182.931 118.542C182.809 118.479 182.709 118.38 182.645 118.258C182.581 118.136 182.556 117.998 182.574 117.861ZM182.674 112.204C182.607 111.49 182.506 110.77 182.378 110.065C182.346 109.891 182.385 109.712 182.485 109.566C182.586 109.421 182.74 109.321 182.914 109.289C183.088 109.258 183.267 109.296 183.413 109.397C183.558 109.497 183.658 109.652 183.69 109.826C183.825 110.568 183.93 111.326 184.002 112.077C184.019 112.253 183.965 112.429 183.852 112.565C183.74 112.702 183.578 112.788 183.401 112.805C183.225 112.822 183.05 112.768 182.913 112.655C182.777 112.543 182.691 112.381 182.674 112.204ZM181.511 106.666C181.287 105.986 181.031 105.306 180.746 104.645C180.687 104.485 180.692 104.308 180.76 104.151C180.827 103.994 180.953 103.87 181.11 103.802C181.267 103.735 181.444 103.731 181.604 103.791C181.764 103.85 181.895 103.969 181.971 104.123C182.267 104.818 182.537 105.533 182.773 106.248C182.825 106.415 182.809 106.596 182.729 106.752C182.65 106.907 182.512 107.025 182.345 107.08C182.179 107.135 181.998 107.122 181.841 107.045C181.684 106.967 181.564 106.831 181.507 106.666H181.511ZM179.152 101.523C178.783 100.91 178.382 100.303 177.961 99.7216C177.908 99.6508 177.869 99.5701 177.847 99.4841C177.826 99.3982 177.821 99.3088 177.834 99.2211C177.847 99.1334 177.878 99.0492 177.924 98.9735C177.97 98.8978 178.031 98.832 178.103 98.78C178.175 98.728 178.256 98.6909 178.342 98.6708C178.429 98.6507 178.518 98.648 178.606 98.6629C178.693 98.6778 178.777 98.71 178.851 98.7576C178.926 98.8052 178.991 98.8673 179.041 98.9401C179.485 99.5524 179.906 100.189 180.295 100.835C180.37 100.959 180.402 101.105 180.387 101.249C180.372 101.393 180.31 101.528 180.211 101.634C180.112 101.74 179.981 101.811 179.838 101.836C179.695 101.861 179.548 101.838 179.419 101.772C179.309 101.716 179.216 101.629 179.152 101.523ZM158.032 88.6111C158.036 88.5236 158.057 88.4378 158.095 88.3586C158.132 88.2793 158.184 88.2082 158.249 88.1492C158.314 88.0903 158.39 88.0447 158.472 88.0151C158.554 87.9855 158.642 87.9724 158.729 87.9766C159.482 88.011 160.245 88.0799 160.994 88.1794C161.169 88.2028 161.328 88.2948 161.436 88.4353C161.543 88.5757 161.59 88.7531 161.567 88.9284C161.544 89.1037 161.452 89.2625 161.311 89.3699C161.171 89.4774 160.993 89.5246 160.818 89.5013C160.106 89.4064 159.383 89.3413 158.667 89.3084C158.58 89.3045 158.494 89.2833 158.414 89.2461C158.335 89.2089 158.264 89.1564 158.205 89.0916C158.146 89.0269 158.1 88.9511 158.071 88.8686C158.041 88.7861 158.028 88.6986 158.032 88.6111ZM175.713 97.0305C175.216 96.5138 174.691 96.0125 174.151 95.541C174.02 95.4241 173.94 95.2601 173.929 95.0846C173.918 94.9091 173.977 94.7365 174.093 94.6042C174.209 94.4719 174.372 94.3906 174.547 94.3782C174.723 94.3657 174.896 94.423 175.029 94.5376C175.597 95.0343 176.15 95.5624 176.673 96.1066C176.737 96.1691 176.787 96.2437 176.822 96.326C176.856 96.4083 176.874 96.4967 176.873 96.5859C176.873 96.6751 176.855 96.7634 176.819 96.8454C176.784 96.9274 176.733 97.0015 176.669 97.0634C176.605 97.1252 176.528 97.1735 176.445 97.2054C176.362 97.2373 176.273 97.2522 176.184 97.2491C176.095 97.246 176.007 97.2251 175.926 97.1876C175.845 97.15 175.773 97.0966 175.713 97.0305ZM163.792 89.3849C163.841 89.2154 163.954 89.072 164.108 88.986C164.262 88.8999 164.444 88.8783 164.614 88.9257C165.34 89.1285 166.068 89.365 166.775 89.6291C166.859 89.6582 166.936 89.7039 167.002 89.7632C167.068 89.8226 167.122 89.8946 167.159 89.9749C167.197 90.0553 167.219 90.1424 167.222 90.2311C167.226 90.3198 167.212 90.4083 167.181 90.4915C167.15 90.5747 167.103 90.6509 167.042 90.7156C166.981 90.7802 166.908 90.8321 166.827 90.8681C166.746 90.9041 166.658 90.9236 166.569 90.9253C166.48 90.9271 166.392 90.911 166.31 90.8782C165.635 90.6272 164.94 90.3975 164.252 90.2062C164.081 90.1585 163.937 90.0453 163.85 89.8913C163.763 89.7374 163.741 89.5552 163.789 89.3849H163.792ZM171.362 93.4254C170.762 93.0336 170.137 92.6601 169.506 92.3225C169.349 92.2404 169.232 92.0994 169.179 91.9306C169.127 91.7618 169.143 91.579 169.225 91.4224C169.307 91.2658 169.448 91.1482 169.617 91.0955C169.786 91.0429 169.969 91.0594 170.125 91.1415L170.138 91.1484C170.803 91.5066 171.461 91.897 172.092 92.3095C172.227 92.4057 172.322 92.5493 172.358 92.712C172.393 92.8747 172.366 93.0447 172.283 93.1887C172.199 93.3326 172.065 93.4401 171.906 93.4898C171.747 93.5396 171.575 93.5281 171.424 93.4576C171.402 93.4481 171.381 93.4374 171.36 93.4254H171.362Z" fill="#35C0ED"/>
<path d="M153.517 89.3592C153.638 89.4211 153.775 89.4443 153.91 89.4258C154.25 89.3791 154.599 89.3401 154.942 89.3072C155.03 89.3004 155.116 89.2761 155.195 89.2356C155.274 89.1952 155.344 89.1396 155.401 89.0718C155.458 89.0041 155.501 88.9257 155.527 88.8412C155.554 88.7567 155.563 88.6678 155.555 88.5797C155.546 88.4916 155.52 88.406 155.479 88.328C155.437 88.2499 155.38 88.181 155.311 88.1251C155.243 88.0693 155.164 88.0277 155.079 88.0028C154.994 87.9779 154.905 87.9701 154.817 87.98C154.454 88.0137 154.089 88.0565 153.731 88.1047C153.59 88.1238 153.459 88.1873 153.357 88.286C153.255 88.3847 153.187 88.5135 153.163 88.6535C153.139 88.7935 153.16 88.9375 153.224 89.0645C153.288 89.1914 153.39 89.2947 153.517 89.3592Z" fill="#35C0ED"/>
</g>
<g opacity="0.3">
<path d="M136.442 99.8358C136.583 99.9082 136.745 99.9279 136.9 99.8913C137.054 99.8547 137.19 99.7641 137.284 99.636C137.487 99.3582 137.699 99.0803 137.915 98.8101C138.023 98.6718 138.073 98.496 138.053 98.3211C138.033 98.1462 137.944 97.9864 137.806 97.8766C137.669 97.7668 137.493 97.716 137.318 97.7352C137.143 97.7543 136.983 97.842 136.872 97.9789C136.642 98.2636 136.422 98.5568 136.208 98.8484C136.151 98.9262 136.112 99.0155 136.092 99.1102C136.073 99.2049 136.075 99.3026 136.097 99.3965C136.12 99.4905 136.162 99.5785 136.222 99.6543C136.282 99.7302 136.357 99.7921 136.443 99.8358H136.442Z" fill="#35C0ED"/>
<path d="M143.922 137.479C143.769 137.39 143.657 137.245 143.611 137.074C143.565 136.903 143.588 136.721 143.677 136.568C143.765 136.415 143.91 136.303 144.081 136.257C144.252 136.211 144.434 136.235 144.587 136.323C145.194 136.672 145.826 137.001 146.472 137.304C146.632 137.379 146.756 137.515 146.816 137.681C146.876 137.848 146.867 138.031 146.792 138.191C146.717 138.351 146.581 138.475 146.415 138.535C146.249 138.595 146.065 138.586 145.905 138.511C145.626 138.379 145.349 138.244 145.076 138.105C144.687 137.905 144.298 137.694 143.922 137.479ZM148.853 138.993C148.907 138.825 149.024 138.684 149.181 138.602C149.338 138.521 149.521 138.504 149.689 138.557C150.364 138.767 151.054 138.953 151.742 139.107C151.912 139.148 152.059 139.254 152.151 139.402C152.244 139.55 152.274 139.729 152.236 139.9C152.198 140.07 152.095 140.219 151.948 140.314C151.801 140.409 151.623 140.443 151.452 140.408C150.728 140.246 149.998 140.051 149.29 139.829C149.207 139.803 149.129 139.761 149.062 139.704C148.995 139.648 148.939 139.579 148.899 139.502C148.858 139.424 148.833 139.339 148.825 139.252C148.818 139.165 148.827 139.077 148.853 138.993ZM140.905 135.456C140.318 135.003 139.743 134.516 139.196 134.014C139.065 133.894 138.988 133.727 138.981 133.551C138.973 133.374 139.036 133.202 139.156 133.071C139.276 132.941 139.442 132.864 139.619 132.856C139.795 132.849 139.968 132.912 140.098 133.032C140.618 133.51 141.164 133.971 141.721 134.402C141.852 134.503 141.941 134.65 141.97 134.814C141.999 134.978 141.966 135.146 141.877 135.287C141.788 135.427 141.649 135.529 141.489 135.573C141.329 135.617 141.158 135.599 141.01 135.523C140.973 135.504 140.937 135.482 140.905 135.456ZM154.435 140.235C154.442 140.147 154.466 140.062 154.505 139.984C154.545 139.906 154.6 139.836 154.667 139.779C154.734 139.723 154.811 139.679 154.895 139.652C154.978 139.626 155.066 139.615 155.153 139.622C155.857 139.681 156.571 139.709 157.276 139.707C157.453 139.707 157.622 139.777 157.748 139.901C157.873 140.026 157.944 140.195 157.944 140.372C157.945 140.549 157.875 140.719 157.75 140.844C157.626 140.969 157.456 141.04 157.28 141.041C156.537 141.041 155.785 141.012 155.044 140.951C154.957 140.945 154.873 140.921 154.795 140.881C154.678 140.821 154.581 140.727 154.517 140.612C154.453 140.497 154.424 140.366 154.435 140.235ZM136.699 131.378C136.227 130.807 135.773 130.207 135.35 129.596C135.297 129.524 135.258 129.442 135.238 129.356C135.217 129.269 135.214 129.179 135.228 129.091C135.243 129.003 135.275 128.918 135.323 128.843C135.37 128.768 135.433 128.703 135.506 128.652C135.579 128.601 135.662 128.565 135.749 128.547C135.837 128.529 135.927 128.528 136.014 128.546C136.102 128.563 136.185 128.597 136.259 128.647C136.333 128.697 136.396 128.762 136.445 128.836C136.847 129.417 137.278 129.985 137.727 130.53C137.825 130.648 137.879 130.796 137.88 130.95C137.881 131.103 137.829 131.252 137.733 131.372C137.637 131.492 137.502 131.575 137.352 131.607C137.202 131.638 137.045 131.618 136.909 131.548C136.828 131.506 136.756 131.449 136.699 131.378ZM133.489 126.48C133.153 125.817 132.841 125.133 132.561 124.445C132.525 124.364 132.506 124.276 132.505 124.187C132.503 124.098 132.52 124.009 132.553 123.926C132.587 123.844 132.637 123.769 132.7 123.706C132.763 123.643 132.838 123.593 132.92 123.559C133.003 123.526 133.091 123.509 133.18 123.51C133.27 123.511 133.358 123.53 133.439 123.566C133.521 123.602 133.594 123.654 133.656 123.719C133.717 123.783 133.765 123.86 133.796 123.943C134.061 124.596 134.358 125.244 134.678 125.876C134.718 125.954 134.743 126.039 134.75 126.127C134.758 126.215 134.747 126.303 134.721 126.387C134.694 126.471 134.65 126.549 134.593 126.616C134.536 126.683 134.466 126.738 134.388 126.777C134.309 126.817 134.224 126.841 134.136 126.848C134.048 126.854 133.96 126.844 133.876 126.816C133.793 126.788 133.716 126.744 133.649 126.687C133.583 126.629 133.528 126.559 133.489 126.48ZM131.422 120.995C131.238 120.275 131.082 119.541 130.959 118.808C130.945 118.721 130.947 118.633 130.967 118.547C130.987 118.462 131.023 118.382 131.074 118.31C131.124 118.239 131.189 118.178 131.263 118.132C131.337 118.085 131.42 118.054 131.506 118.039C131.592 118.025 131.681 118.028 131.766 118.047C131.851 118.067 131.932 118.103 132.003 118.154C132.075 118.205 132.135 118.269 132.182 118.343C132.228 118.417 132.26 118.5 132.274 118.586C132.391 119.281 132.539 119.98 132.714 120.665C132.736 120.75 132.741 120.838 132.728 120.925C132.716 121.012 132.686 121.095 132.642 121.17C132.597 121.246 132.538 121.311 132.468 121.364C132.398 121.416 132.318 121.454 132.233 121.476C132.062 121.52 131.88 121.494 131.728 121.403C131.576 121.313 131.466 121.166 131.422 120.995ZM130.603 115.191C130.58 114.448 130.59 113.695 130.63 112.954C130.634 112.866 130.656 112.779 130.693 112.699C130.731 112.62 130.784 112.548 130.85 112.489C130.915 112.43 130.992 112.384 131.075 112.355C131.158 112.326 131.246 112.313 131.334 112.318C131.422 112.324 131.509 112.346 131.588 112.385C131.667 112.423 131.738 112.477 131.796 112.543C131.855 112.61 131.899 112.687 131.928 112.77C131.956 112.854 131.967 112.942 131.961 113.03C131.923 113.734 131.914 114.449 131.935 115.155C131.939 115.243 131.926 115.332 131.895 115.415C131.865 115.498 131.818 115.574 131.758 115.639C131.698 115.704 131.626 115.756 131.545 115.793C131.464 115.829 131.377 115.849 131.289 115.852C131.201 115.855 131.113 115.84 131.03 115.808C130.948 115.776 130.872 115.728 130.808 115.667C130.744 115.606 130.693 115.533 130.658 115.452C130.623 115.371 130.604 115.283 130.603 115.195V115.191ZM131.079 109.346C131.22 108.617 131.396 107.886 131.598 107.17C131.647 107 131.761 106.856 131.915 106.77C132.069 106.684 132.252 106.663 132.422 106.711C132.592 106.76 132.736 106.873 132.822 107.028C132.908 107.182 132.929 107.365 132.881 107.535C132.688 108.214 132.522 108.909 132.387 109.601C132.37 109.687 132.337 109.769 132.288 109.842C132.24 109.915 132.178 109.978 132.105 110.027C132.033 110.076 131.951 110.11 131.865 110.127C131.78 110.144 131.691 110.145 131.605 110.128C131.544 110.116 131.485 110.096 131.429 110.067C131.3 110.001 131.196 109.895 131.133 109.764C131.07 109.633 131.052 109.486 131.08 109.343L131.079 109.346ZM132.825 103.753C133.043 103.252 133.284 102.752 133.529 102.266C133.619 102.09 133.71 101.916 133.803 101.743C133.844 101.665 133.9 101.596 133.968 101.54C134.036 101.484 134.114 101.443 134.198 101.418C134.282 101.392 134.371 101.384 134.458 101.394C134.545 101.403 134.63 101.43 134.707 101.473C134.784 101.514 134.852 101.571 134.907 101.639C134.963 101.706 135.004 101.785 135.029 101.868C135.054 101.952 135.062 102.04 135.053 102.127C135.045 102.215 135.018 102.299 134.977 102.376C134.889 102.54 134.802 102.706 134.716 102.873C134.479 103.332 134.257 103.81 134.046 104.286C134.011 104.367 133.961 104.439 133.898 104.5C133.835 104.561 133.76 104.608 133.679 104.64C133.597 104.672 133.51 104.688 133.423 104.686C133.335 104.684 133.249 104.665 133.169 104.63C133.156 104.625 133.144 104.619 133.131 104.613C132.98 104.535 132.864 104.403 132.807 104.242C132.751 104.082 132.757 103.906 132.826 103.751L132.825 103.753Z" fill="#35C0ED"/>
<path d="M160.834 141.237C160.956 141.3 161.094 141.323 161.23 141.304C161.587 141.253 161.951 141.194 162.309 141.129C162.395 141.114 162.477 141.081 162.551 141.034C162.624 140.986 162.688 140.925 162.738 140.853C162.787 140.781 162.822 140.699 162.841 140.614C162.859 140.528 162.861 140.44 162.845 140.354C162.829 140.268 162.797 140.185 162.749 140.112C162.702 140.038 162.64 139.975 162.568 139.925C162.496 139.875 162.415 139.84 162.329 139.822C162.244 139.803 162.155 139.802 162.069 139.817C161.728 139.88 161.38 139.936 161.044 139.984C160.904 140.003 160.774 140.067 160.672 140.166C160.571 140.265 160.503 140.394 160.48 140.533C160.456 140.673 160.478 140.817 160.542 140.943C160.605 141.07 160.708 141.173 160.834 141.237Z" fill="#35C0ED"/>
</g>
<path d="M167.466 132.12C167.526 132.094 167.576 132.05 167.609 131.994C167.642 131.939 167.657 131.874 167.652 131.809L167.345 128.03C168.782 126.953 170.034 125.649 171.051 124.169L174.838 124.322C174.903 124.324 174.966 124.307 175.021 124.271C175.075 124.235 175.116 124.184 175.14 124.124L176.793 119.886C176.817 119.826 176.821 119.759 176.805 119.696C176.789 119.634 176.754 119.577 176.705 119.535L173.815 117.086C174.069 115.308 174.031 113.501 173.702 111.735L176.488 109.163C176.536 109.119 176.569 109.061 176.583 108.998C176.597 108.934 176.59 108.868 176.565 108.808L174.737 104.644C174.711 104.584 174.667 104.535 174.611 104.502C174.555 104.468 174.491 104.453 174.426 104.459L170.647 104.765C169.57 103.328 168.266 102.076 166.786 101.059L166.939 97.2722C166.942 97.2069 166.925 97.1421 166.889 97.0871C166.854 97.0322 166.802 96.9898 166.741 96.9661L162.503 95.3136C162.442 95.29 162.376 95.2858 162.313 95.3017C162.25 95.3177 162.194 95.3529 162.152 95.4024L159.703 98.291C157.925 98.0379 156.118 98.0761 154.352 98.4043L151.78 95.619C151.736 95.5707 151.678 95.5374 151.615 95.5237C151.551 95.51 151.485 95.5165 151.425 95.5424L147.261 97.3702C147.201 97.3964 147.152 97.4403 147.119 97.496C147.085 97.5517 147.07 97.6163 147.075 97.681L147.382 101.46C145.945 102.537 144.693 103.842 143.676 105.322L139.889 105.169C139.824 105.165 139.759 105.183 139.704 105.218C139.649 105.254 139.607 105.305 139.583 105.366L137.931 109.604C137.907 109.665 137.903 109.731 137.919 109.794C137.935 109.857 137.97 109.913 138.019 109.955L140.903 112.416C140.65 114.193 140.688 116 141.017 117.766L138.231 120.338C138.183 120.382 138.15 120.44 138.136 120.503C138.122 120.567 138.129 120.633 138.155 120.693L139.983 124.857C140.009 124.917 140.052 124.966 140.108 125C140.164 125.033 140.229 125.048 140.293 125.042L144.073 124.736C145.15 126.173 146.454 127.425 147.934 128.442L147.781 132.229C147.778 132.294 147.795 132.359 147.831 132.414C147.866 132.469 147.918 132.511 147.979 132.535L152.217 134.187C152.277 134.211 152.343 134.215 152.406 134.199C152.469 134.183 152.525 134.149 152.567 134.099L155.016 131.21C156.794 131.463 158.601 131.425 160.367 131.097L162.939 133.883C162.983 133.931 163.04 133.964 163.104 133.978C163.168 133.991 163.234 133.985 163.293 133.959L167.466 132.12Z" fill="#2762B0"/>
<path d="M155.069 118.215C154.106 117.528 153.448 116.494 153.231 115.331C153.015 114.169 153.258 112.968 153.909 111.98C154.56 110.993 155.569 110.297 156.723 110.038C157.877 109.779 159.086 109.978 160.096 110.592C161.107 111.207 161.84 112.189 162.141 113.332C162.442 114.476 162.288 115.692 161.711 116.724C161.135 117.757 160.18 118.525 159.048 118.868C157.916 119.211 156.696 119.102 155.643 118.564C155.443 118.461 155.251 118.345 155.069 118.215ZM157.142 111.034C156.326 111.173 155.585 111.598 155.054 112.233C154.522 112.868 154.233 113.672 154.24 114.5C154.247 115.328 154.549 116.127 155.091 116.753C155.633 117.38 156.38 117.792 157.199 117.918C158.018 118.043 158.854 117.873 159.559 117.437C160.264 117.002 160.79 116.33 161.045 115.542C161.299 114.754 161.264 113.9 160.947 113.135C160.629 112.37 160.05 111.743 159.312 111.367C158.644 111.025 157.883 110.908 157.142 111.034Z" fill="white"/>
<path d="M152.553 124.461C152.896 124.636 153.248 124.794 153.607 124.934C153.721 124.979 153.837 125.022 153.951 125.062C154.517 125.263 155.099 125.417 155.69 125.525L155.714 125.53L155.783 125.541L155.916 125.564C155.972 125.573 156.029 125.564 156.079 125.539C156.129 125.513 156.17 125.473 156.196 125.423C156.208 125.399 156.217 125.373 156.221 125.346C156.227 125.312 156.226 125.276 156.218 125.242C156.21 125.208 156.195 125.176 156.175 125.147C156.154 125.119 156.128 125.095 156.099 125.076C156.069 125.058 156.036 125.046 156.001 125.04C154.423 124.786 152.921 124.183 151.607 123.274C150.292 122.365 149.197 121.173 148.403 119.786C147.608 118.399 147.134 116.852 147.015 115.258C146.896 113.664 147.135 112.064 147.715 110.574C148.747 107.928 150.788 105.8 153.388 104.659C155.989 103.518 158.936 103.456 161.582 104.488C167.086 106.634 169.813 112.85 167.668 118.351C166.966 120.156 165.786 121.737 164.254 122.923C164.223 122.947 164.197 122.977 164.178 123.012C164.151 123.066 164.142 123.128 164.155 123.187C164.167 123.247 164.199 123.3 164.246 123.338C164.293 123.377 164.351 123.399 164.411 123.4C164.472 123.401 164.531 123.381 164.579 123.345C165.88 122.336 166.943 121.053 167.692 119.587C167.866 119.248 168.022 118.9 168.161 118.546C170.413 112.77 167.549 106.239 161.771 103.987C159.18 102.977 156.306 102.963 153.705 103.948C151.104 104.934 148.96 106.848 147.688 109.321C147.513 109.664 147.354 110.017 147.214 110.376C146.204 112.967 146.19 115.841 147.175 118.443C148.161 121.044 150.075 123.187 152.549 124.459L152.553 124.461Z" fill="white"/>
<path d="M68.833 65.6667C68.833 55.0867 77.4197 46.5 87.9997 46.5C98.5797 46.5 107.166 55.0867 107.166 65.6667C107.166 71.9533 104.138 77.5117 99.4997 81C96.2797 83.415 87.9997 88.6667 87.9997 100.167" stroke="#0B2952" stroke-width="6" stroke-linecap="round" stroke-linejoin="round"/>
<path d="M88 115.5V115.539" stroke="#0B2952" stroke-width="6" stroke-linecap="round" stroke-linejoin="round"/>
<defs>
<linearGradient id="paint0_linear_16_251056" x1="69.1798" y1="20.6404" x2="69.9709" y2="18.5158" gradientUnits="userSpaceOnUse">
<stop stop-color="#4F52FF"/>
<stop offset="1" stop-color="#4042E2"/>
</linearGradient>
<linearGradient id="paint1_linear_16_251056" x1="56.8071" y1="3.54198" x2="57.3501" y2="2.08361" gradientUnits="userSpaceOnUse">
<stop stop-color="#4F52FF"/>
<stop offset="1" stop-color="#4042E2"/>
</linearGradient>
</defs>
</svg>
