
<svg width="114" height="187" viewBox="0 0 114 187" fill="none" xmlns="http://www.w3.org/2000/svg">
<path d="M108 4.73418H5V187H108V4.73418Z" fill="url(#paint0_linear_59_1280)"/>
<path d="M108 4.73418H5V17.7532H108V4.73418Z" fill="#1F4E8D"/>
<path d="M27.4054 114.744H14.7441V138.405H27.4054V114.744Z" fill="#0B2952"/>
<path d="M26.6558 115.872H15.498V137.473H26.6558V115.872Z" fill="#A8E8FD"/>
<path d="M21.4012 115.201H20.6035V138.091H21.4012V115.201Z" fill="#0B2952"/>
<path d="M26.8221 126.08H15.313V126.809H26.8221V126.08Z" fill="#0B2952"/>
<path d="M26.8221 120.648H15.313V121.062H26.8221V120.648Z" fill="#0B2952"/>
<path d="M26.8221 132.247H15.313V132.661H26.8221V132.247Z" fill="#0B2952"/>
<path d="M27.4048 138.479H14.9849V139.161H27.4048V138.479Z" fill="#A8E8FD"/>
<path d="M26.9616 158.882H14.3003V182.543H26.9616V158.882Z" fill="#0B2952"/>
<path d="M26.2071 160.014H15.0493V181.616H26.2071V160.014Z" fill="#A8E8FD"/>
<path d="M20.9573 159.339H20.1597V182.229H20.9573V159.339Z" fill="#0B2952"/>
<path d="M26.3783 170.218H14.8691V170.947H26.3783V170.218Z" fill="#0B2952"/>
<path d="M26.3783 164.785H14.8691V165.2H26.3783V164.785Z" fill="#0B2952"/>
<path d="M26.3783 176.385H14.8691V176.799H26.3783V176.385Z" fill="#0B2952"/>
<path d="M26.9609 182.617H14.541V183.299H26.9609V182.617Z" fill="#A8E8FD"/>
<path d="M99.3507 158.595H86.6895V182.256H99.3507V158.595Z" fill="#0B2952"/>
<path d="M98.5962 159.728H87.4385V181.329H98.5962V159.728Z" fill="#A8E8FD"/>
<path d="M93.3465 159.053H92.5488V181.942H93.3465V159.053Z" fill="#0B2952"/>
<path d="M98.7674 169.931H87.2583V170.66H98.7674V169.931Z" fill="#0B2952"/>
<path d="M98.7674 164.499H87.2583V164.913H98.7674V164.499Z" fill="#0B2952"/>
<path d="M98.7674 176.098H87.2583V176.513H98.7674V176.098Z" fill="#0B2952"/>
<path d="M99.3496 182.331H86.9297V183.012H99.3496V182.331Z" fill="#A8E8FD"/>
<path d="M63.8337 113.62H51.1724V137.282H63.8337V113.62Z" fill="#0B2952"/>
<path d="M63.084 114.748H51.9263V136.35H63.084V114.748Z" fill="#A8E8FD"/>
<path d="M57.8294 114.078H57.0317V136.967H57.8294V114.078Z" fill="#0B2952"/>
<path d="M63.2503 124.956H51.7412V125.686H63.2503V124.956Z" fill="#0B2952"/>
<path d="M63.2503 119.524H51.7412V119.938H63.2503V119.524Z" fill="#0B2952"/>
<path d="M63.2503 131.124H51.7412V131.538H63.2503V131.124Z" fill="#0B2952"/>
<path d="M63.833 137.356H51.4131V138.038H63.833V137.356Z" fill="#A8E8FD"/>
<path d="M100.535 114.804H87.8735V138.465H100.535V114.804Z" fill="#0B2952"/>
<path d="M99.7852 115.932H88.6274V137.534H99.7852V115.932Z" fill="#A8E8FD"/>
<path d="M94.5306 115.261H93.7329V138.151H94.5306V115.261Z" fill="#0B2952"/>
<path d="M99.9515 126.14H88.4424V126.869H99.9515V126.14Z" fill="#0B2952"/>
<path d="M99.9515 120.708H88.4424V121.122H99.9515V120.708Z" fill="#0B2952"/>
<path d="M99.9515 132.307H88.4424V132.722H99.9515V132.307Z" fill="#0B2952"/>
<path d="M100.534 138.539H88.1143V139.221H100.534V138.539Z" fill="#A8E8FD"/>
<path d="M28.5716 47.3628H15.5806V24.9411C19.9688 21.2239 24.625 21.2322 28.5716 24.9411V47.3628Z" fill="#0B2952"/>
<path d="M27.7976 46.4826H16.3501V26.0127C19.9203 22.4937 24.3161 22.6164 27.7976 26.0127V46.4826Z" fill="#A8E8FD"/>
<path d="M22.4064 23.1188H21.5884V47.0674H22.4064V23.1188Z" fill="#0B2952"/>
<path d="M27.9742 35.3054H16.1655V35.9965H27.9742V35.3054Z" fill="#0B2952"/>
<path d="M27.9742 29.7826H16.1655V30.1756H27.9742V29.7826Z" fill="#0B2952"/>
<path d="M27.9742 41.3399H16.1655V41.7329H27.9742V41.3399Z" fill="#0B2952"/>
<path d="M28.5693 47.4312H15.8267V48.0771H28.5693V47.4312Z" fill="#A8E8FD"/>
<path d="M62.9051 47.3628H49.9141V24.9411C54.3023 21.2239 58.9585 21.2322 62.9051 24.9411V47.3628Z" fill="#0B2952"/>
<path d="M62.131 46.4826H50.6836V26.0127C54.2538 22.4937 58.6496 22.6164 62.131 26.0127V46.4826Z" fill="#A8E8FD"/>
<path d="M56.7399 23.1188H55.9219V47.0674H56.7399V23.1188Z" fill="#0B2952"/>
<path d="M62.3077 35.3054H50.499V35.9965H62.3077V35.3054Z" fill="#0B2952"/>
<path d="M62.3077 29.7826H50.499V30.1756H62.3077V29.7826Z" fill="#0B2952"/>
<path d="M62.3077 41.3399H50.499V41.7329H62.3077V41.3399Z" fill="#0B2952"/>
<path d="M62.9028 47.4312H50.1602V48.0771H62.9028V47.4312Z" fill="#A8E8FD"/>
<path d="M100.95 47.3628H87.959V24.9411C92.3473 21.2239 97.0035 21.2322 100.95 24.9411V47.3628Z" fill="#0B2952"/>
<path d="M100.176 46.4826H88.7285V26.0127C92.2987 22.4937 96.6945 22.6164 100.176 26.0127V46.4826Z" fill="#A8E8FD"/>
<path d="M94.7848 23.1188H93.9668V47.0674H94.7848V23.1188Z" fill="#0B2952"/>
<path d="M100.353 35.3054H88.5439V35.9965H100.353V35.3054Z" fill="#0B2952"/>
<path d="M100.353 29.7826H88.5439V30.1756H100.353V29.7826Z" fill="#0B2952"/>
<path d="M100.353 41.3399H88.5439V41.7329H100.353V41.3399Z" fill="#0B2952"/>
<path d="M100.948 47.4312H88.2051V48.0771H100.948V47.4312Z" fill="#A8E8FD"/>
<path d="M65.6812 148.058H47.1299V185.653H65.6812V148.058Z" fill="#0B2952"/>
<path d="M55.7819 149.383H47.958V155.551H55.7819V149.383Z" fill="#CEF3FF"/>
<path d="M64.466 149.383H57.2393V155.551H64.466V149.383Z" fill="#CEF3FF"/>
<path d="M64.467 156.348H47.958V184.992H64.467V156.348Z" fill="#1F4E8D"/>
<path d="M60.8515 159.751H51.6021V173.389H60.8515V159.751Z" fill="#0B2952"/>
<path d="M60.2582 160.295H52.2021V172.976H60.2582V160.295Z" fill="#CEF3FF"/>
<path d="M56.6772 159.993H56.1138V173.254H56.6772V159.993Z" fill="#0B2952"/>
<path d="M60.6548 163.708H51.8696V164.272H60.6548V163.708Z" fill="#0B2952"/>
<path d="M60.6202 168.551H51.835V169.114H60.6202V168.551Z" fill="#0B2952"/>
<path d="M63.5793 70.1111H50.918V93.7724H63.5793V70.1111Z" fill="#0B2952"/>
<path d="M62.8296 71.2392H51.6719V92.8409H62.8296V71.2392Z" fill="#A8E8FD"/>
<path d="M57.575 70.5688H56.7773V93.4584H57.575V70.5688Z" fill="#0B2952"/>
<path d="M62.9959 81.4473H51.4868V82.1764H62.9959V81.4473Z" fill="#0B2952"/>
<path d="M62.9959 76.015H51.4868V76.4293H62.9959V76.015Z" fill="#0B2952"/>
<path d="M62.9959 87.6146H51.4868V88.0289H62.9959V87.6146Z" fill="#0B2952"/>
<path d="M63.5786 93.8467H51.1587V94.5285H63.5786V93.8467Z" fill="#A8E8FD"/>
<path d="M100.535 68.6456H87.8735V92.3068H100.535V68.6456Z" fill="#0B2952"/>
<path d="M99.7852 69.7736H88.6274V91.3754H99.7852V69.7736Z" fill="#A8E8FD"/>
<path d="M94.5306 69.1033H93.7329V91.9928H94.5306V69.1033Z" fill="#0B2952"/>
<path d="M99.9515 79.9817H88.4424V80.7108H99.9515V79.9817Z" fill="#0B2952"/>
<path d="M99.9515 74.5494H88.4424V74.9637H99.9515V74.5494Z" fill="#0B2952"/>
<path d="M99.9515 86.1491H88.4424V86.5634H99.9515V86.1491Z" fill="#0B2952"/>
<path d="M100.534 92.3812H88.1143V93.063H100.534V92.3812Z" fill="#A8E8FD"/>
<path d="M27.4054 70.1111H14.7441V93.7724H27.4054V70.1111Z" fill="#0B2952"/>
<path d="M26.6558 71.2392H15.498V92.8409H26.6558V71.2392Z" fill="#A8E8FD"/>
<path d="M21.4012 70.5688H20.6035V93.4584H21.4012V70.5688Z" fill="#0B2952"/>
<path d="M26.8221 81.4473H15.313V82.1764H26.8221V81.4473Z" fill="#0B2952"/>
<path d="M26.8221 76.015H15.313V76.4293H26.8221V76.015Z" fill="#0B2952"/>
<path d="M26.8221 87.6146H15.313V88.0289H26.8221V87.6146Z" fill="#0B2952"/>
<path d="M27.4048 93.8467H14.9849V94.5285H27.4048V93.8467Z" fill="#A8E8FD"/>
<path d="M112.402 51.7801H0.402344V54.5573H112.402V51.7801Z" fill="#0B2952"/>
<path d="M112.402 11.0474H0.402344V13.8247H112.402V11.0474Z" fill="#285EA8"/>
<path d="M113.402 5.49298H1.40234V8.27021H113.402V5.49298Z" fill="#285EA8"/>
<path d="M112.402 103.622H0.402344V106.399H112.402V103.622Z" fill="#0B2952"/>
<defs>
<linearGradient id="paint0_linear_59_1280" x1="292.305" y1="98.6739" x2="-74.3535" y2="92.9097" gradientUnits="userSpaceOnUse">
<stop stop-color="#3ACFFF"/>
<stop offset="0.956731" stop-color="#7EE0FF"/>
</linearGradient>
</defs>
</svg>
