
<svg width="205" height="205" viewBox="0 0 205 205" fill="none" xmlns="http://www.w3.org/2000/svg">
<mask id="mask0_3238_32554" style="mask-type:luminance" maskUnits="userSpaceOnUse" x="0" y="0" width="205" height="205">
<path d="M205 0H0V205H205V0Z" fill="white"/>
</mask>
<g mask="url(#mask0_3238_32554)">
<g style="mix-blend-mode:multiply" opacity="0.2">
<path d="M133.949 94.8371L136.992 93.0799C138.068 92.4584 138.853 91.435 139.174 90.2349C139.496 89.0347 139.328 87.756 138.706 86.68C138.085 85.6043 137.062 84.8193 135.862 84.4977C134.662 84.176 133.384 84.3441 132.307 84.9648L129.264 86.722C128.188 87.3435 127.403 88.3668 127.081 89.567C126.76 90.7671 126.928 92.0458 127.549 93.1219C128.171 94.1979 129.194 94.983 130.394 95.3047C131.594 95.6263 132.873 95.4581 133.949 94.8371Z" fill="#212529"/>
<path d="M138.706 100.106C138.085 99.0301 137.062 98.2451 135.862 97.9234C134.662 97.6018 133.383 97.7699 132.307 98.3906L129.263 100.148C128.188 100.769 127.403 101.792 127.081 102.992C126.76 104.192 126.928 105.471 127.549 106.547C128.17 107.623 129.194 108.408 130.394 108.73C131.594 109.051 132.873 108.883 133.949 108.262L136.992 106.505C138.067 105.883 138.852 104.86 139.174 103.66C139.495 102.46 139.327 101.182 138.706 100.106Z" fill="#212529"/>
<path d="M138.707 111.783C138.086 110.707 137.063 109.923 135.863 109.601C134.663 109.28 133.384 109.448 132.308 110.069L129.265 111.826C128.819 112.084 128.419 112.414 128.081 112.802L120.142 117.282L108.099 97.8449L137.256 75.0147C138.169 74.3001 138.772 73.262 138.941 72.115C139.111 70.9681 138.833 69.7999 138.165 68.8519C137.498 67.904 136.492 67.2488 135.355 67.0217C134.218 66.7946 133.037 67.013 132.056 67.6318L79.1011 101.041L77.1809 87.2415L77.1584 87.0755L81.9349 75.4384C82.3094 74.5366 82.5177 73.5745 82.5499 72.5986C82.5558 72.3956 82.5548 72.1925 82.5499 71.9914C82.5441 71.8567 82.5343 71.722 82.5216 71.5892C82.4708 71.0571 82.3675 70.5313 82.2132 70.0195C82.1751 69.8917 82.1331 69.7657 82.0892 69.6408C82.0004 69.3902 81.899 69.1442 81.7856 68.9038C81.5884 68.4818 81.3548 68.0777 81.0876 67.6962C81.0115 67.5869 80.9324 67.4785 80.8504 67.3731C80.1592 66.4809 79.2886 65.7437 78.2947 65.2089L78.1171 65.1161C78.0556 65.0849 77.9941 65.0546 77.9316 65.0253L77.8584 64.9902C77.6665 64.8717 77.4569 64.7847 77.2375 64.7325C76.3404 64.5099 74.2191 68.1111 72.747 71.067L66.9768 79.2035L65.2655 81.6157L65.244 81.646L59.9023 98.7137L56.799 125.461L53.2847 128.745L50.0008 125.461L43.6556 131.807L41.7862 129.936L22.4062 148.868L51.4479 181.473L44.8585 152.24L70.9333 175.987L79.39 167.531L77.5196 165.661L81.9925 161.188L83.86 159.319L79.0766 154.536L79.0503 154.509L80.8514 152.24L105.097 141.193L133.04 120.345C133.359 120.244 133.666 120.108 133.955 119.941L136.998 118.184C138.074 117.562 138.859 116.539 139.18 115.339C139.502 114.139 139.333 112.86 138.712 111.784L138.707 111.783Z" fill="#212529"/>
</g>
<path d="M54.843 123.511L57.9463 96.7634L63.2802 79.6947L75.2757 62.7812C76.3005 63.1582 77.2388 63.7378 78.0345 64.4856C78.8302 65.2334 79.4669 66.134 79.9066 67.1335C80.3463 68.133 80.5799 69.2109 80.5935 70.3027C80.6071 71.3946 80.4004 72.478 79.9858 73.4881L75.2093 85.1233L77.149 99.0887L130.104 65.6796C131.111 65.0449 132.326 64.8324 133.488 65.0882C134.65 65.3441 135.664 66.0476 136.311 67.0462C136.925 67.9938 137.161 69.1366 136.975 70.2499C136.788 71.3632 136.192 72.3665 135.304 73.0625L106.147 95.8887L118.19 115.326L128.625 109.437L133.19 116.82L103.14 139.239L78.8944 150.287L67.6448 164.458L40.1016 137.304L54.843 123.511Z" fill="#EFCFB3"/>
<path d="M75.0179 70.4854C75.0179 70.4854 78.8065 63.6521 75.2756 62.7794C74.3785 62.5568 72.2573 66.158 70.7852 69.1139L75.0179 70.4854Z" fill="#F5E0CD"/>
<path d="M81.9033 157.368L48.0469 123.512L41.6619 129.897L75.5183 163.753L81.9033 157.368Z" fill="white"/>
<path d="M77.4329 165.579L39.8359 127.982L16.9591 150.859L54.5561 188.456L77.4329 165.579Z" fill="#0B2952"/>
<path d="M81.9039 157.367L75.5636 163.709L75.5187 163.753L72.6038 160.838L70.7344 158.967L70.7783 158.923L77.1187 152.582L81.9039 157.367Z" fill="#E5E5E5"/>
<path d="M72.65 160.795L77.4343 165.58L54.8163 188.698L49.3984 183.28L72.6051 160.839" fill="#1F4E8D"/>
<path d="M70.7786 158.925L70.7344 158.969L72.6043 160.839L72.6485 160.795L70.7786 158.925Z" fill="black"/>
<path d="M80.5 123.511L120.645 126.179L133.189 116.82L128.625 109.438L118.189 115.326L80.5 123.511Z" fill="#DFB28B"/>
<path d="M77.1484 99.089L80.4997 123.511V96.9863L77.1484 99.089Z" fill="#DFB28B"/>
<g style="mix-blend-mode:multiply" opacity="0.2">
<path d="M121.969 31.1445H86.6257C81.9309 31.1445 78.125 34.9504 78.125 39.6452V118.347C78.125 123.041 81.9309 126.847 86.6257 126.847H121.969C126.663 126.847 130.469 123.041 130.469 118.347V39.6452C130.469 34.9504 126.663 31.1445 121.969 31.1445Z" fill="#212529"/>
</g>
<path d="M120.992 30.1699H85.6491C80.9543 30.1699 77.1484 33.9758 77.1484 38.6706V117.372C77.1484 122.067 80.9543 125.873 85.6491 125.873H120.992C125.687 125.873 129.493 122.067 129.493 117.372V38.6706C129.493 33.9758 125.687 30.1699 120.992 30.1699Z" fill="#1F4E8D"/>
<path d="M126.957 117.656V38.3865C126.957 35.2487 124.413 32.7051 121.276 32.7051H85.3635C82.2257 32.7051 79.6821 35.2487 79.6821 38.3865V117.656C79.6821 120.794 82.2257 123.338 85.3635 123.338H121.276C124.413 123.338 126.957 120.794 126.957 117.656Z" fill="white"/>
<path d="M136.755 84.7299C137.376 85.806 137.545 87.0847 137.223 88.2848C136.902 89.485 136.117 90.5083 135.041 91.1298L131.998 92.887C130.922 93.5074 129.644 93.6753 128.444 93.3537C127.245 93.0321 126.222 92.2473 125.6 91.1718C124.979 90.0958 124.811 88.8171 125.132 87.6169C125.454 86.4168 126.239 85.3934 127.314 84.7719L130.358 83.0148C131.434 82.3946 132.712 82.2269 133.912 82.5485C135.111 82.8701 136.134 83.6547 136.755 84.7299Z" fill="#EFCFB3"/>
<path d="M128.26 85.4785C129.541 86.4859 131.391 89.6976 131.676 91.404C131.152 91.9302 127.996 93.8445 126.171 90.6865C124.123 87.138 128.26 85.4785 128.26 85.4785Z" fill="#F5E0CD"/>
<path d="M136.753 98.1546C137.374 99.2306 137.542 100.509 137.22 101.709C136.899 102.909 136.114 103.932 135.039 104.554L131.996 106.311C130.92 106.932 129.641 107.1 128.441 106.778C127.241 106.457 126.217 105.672 125.596 104.596C124.975 103.52 124.807 102.241 125.128 101.041C125.45 99.8413 126.235 98.8181 127.31 98.1966L130.354 96.4394C131.43 95.8187 132.709 95.6506 133.908 95.9723C135.108 96.2939 136.131 97.0789 136.753 98.1546Z" fill="#EFCFB3"/>
<path d="M128.651 98.832C129.933 99.8404 131.784 103.052 132.068 104.758C131.543 105.285 128.386 107.198 126.561 104.04C124.514 100.492 128.651 98.832 128.651 98.832Z" fill="#F5E0CD"/>
<path d="M136.753 109.83C137.374 110.906 137.543 112.185 137.221 113.385C136.9 114.585 136.115 115.609 135.039 116.23L131.996 117.987C130.92 118.609 129.641 118.777 128.441 118.455C127.241 118.133 126.218 117.348 125.596 116.272C124.975 115.196 124.807 113.918 125.128 112.717C125.45 111.517 126.235 110.494 127.311 109.872L130.354 108.115C131.43 107.494 132.709 107.326 133.909 107.648C135.109 107.97 136.132 108.755 136.753 109.83Z" fill="#EFCFB3"/>
<path d="M128.651 110.551C129.933 111.558 131.784 114.77 132.068 116.476C131.543 117.002 128.386 118.917 126.561 115.759C124.514 112.21 128.651 110.551 128.651 110.551Z" fill="#F5E0CD"/>
<path d="M75.2083 85.1233L79.9848 73.4862C80.3995 72.476 80.6062 71.3926 80.5926 70.3008C80.5789 69.2089 80.3453 68.131 79.9056 67.1315C79.4659 66.1321 78.8292 65.2315 78.0335 64.4837C77.2379 63.7359 76.2995 63.1562 75.2747 62.7793L63.3008 79.6674L75.2435 85.3791L75.2083 85.1233Z" fill="#EFCFB3"/>
<path d="M75.0179 70.4854C75.0179 70.4854 78.8065 63.6521 75.2756 62.7794C74.3785 62.5568 72.2573 66.158 70.7852 69.1139L75.0179 70.4854Z" fill="#F5E0CD"/>
<g style="mix-blend-mode:multiply" opacity="0.2">
<path d="M205.6 177.879L203.231 179.114L196.073 168.837C194.308 169.725 192.56 170.644 190.83 171.594L186.11 164.817L179.367 143.101L162.11 119.998C161.418 119.082 160.404 118.463 159.273 118.266C158.142 118.068 156.978 118.307 156.016 118.934C155.055 119.562 154.367 120.53 154.091 121.645C153.816 122.759 153.973 123.937 154.532 124.94L155.996 127.575L151.018 121.868C150.106 121.001 148.918 120.482 147.663 120.404C146.407 120.326 145.164 120.693 144.153 121.441C143.141 122.189 142.425 123.269 142.131 124.492C141.837 125.715 141.983 127.003 142.544 128.129L144.959 132.968L140.006 127.553C139.165 126.636 138.02 126.053 136.784 125.914C135.547 125.775 134.301 126.089 133.277 126.796L133.266 126.805C132.264 127.503 131.543 128.534 131.231 129.714C130.919 130.894 131.036 132.147 131.562 133.248L134.542 139.485L109.782 109.831C109 108.9 107.89 108.306 106.681 108.172C105.473 108.037 104.259 108.373 103.291 109.108C102.323 109.844 101.676 110.924 101.482 112.125C101.289 113.325 101.564 114.554 102.252 115.557C109.988 126.783 133.1 160.289 134.136 161.789C132.52 161.661 128.683 161.187 126.438 160.383H126.433C126.019 160.248 125.623 160.063 125.254 159.831C123.715 158.801 118.561 155.547 114.344 152.9C112.678 151.856 110.694 151.441 108.75 151.729C106.805 152.017 105.026 152.989 103.734 154.47C103.589 154.637 103.466 154.821 103.367 155.019C103.16 155.197 102.985 155.408 102.85 155.645C102.079 156.97 104.673 159 108.14 161.71L125.483 176.646C129.553 180.043 134.439 182.32 139.658 183.252L157.544 186.683L161.321 192.106C159.76 193.461 158.219 194.846 156.699 196.259L163.861 206.534L161.882 208.328L216.673 286.993L260.392 256.541L205.6 177.879Z" fill="#212529"/>
</g>
<path d="M178.193 148.129L183.375 164.822L190.823 175.516L161.342 196.054L154.817 186.688L136.922 183.252C131.702 182.32 126.816 180.042 122.745 176.643L101.261 158.144C101.002 157.921 100.789 157.648 100.635 157.343C100.481 157.037 100.389 156.704 100.365 156.362C100.34 156.021 100.383 155.678 100.492 155.353C100.6 155.029 100.772 154.729 100.997 154.47C102.289 152.987 104.069 152.014 106.015 151.726C107.962 151.438 109.947 151.854 111.614 152.9C115.831 155.549 120.985 158.803 122.524 159.831C122.892 160.063 123.289 160.248 123.703 160.383H123.708C125.953 161.187 129.789 161.661 131.405 161.789C130.368 160.289 107.258 126.779 99.5217 115.557C98.834 114.554 98.5583 113.325 98.7517 112.125C98.9452 110.924 99.5929 109.844 100.561 109.108C101.529 108.373 102.743 108.037 103.951 108.172C105.159 108.306 106.27 108.9 107.052 109.831L131.811 139.485L128.832 133.248C128.306 132.147 128.188 130.894 128.5 129.714C128.812 128.534 129.534 127.503 130.535 126.805L130.547 126.796C131.571 126.089 132.816 125.775 134.053 125.914C135.29 126.053 136.435 126.636 137.276 127.553L142.228 132.968L139.814 128.129C139.253 127.003 139.106 125.715 139.4 124.492C139.694 123.269 140.41 122.189 141.422 121.441C142.434 120.693 143.677 120.326 144.932 120.404C146.188 120.482 147.376 121.001 148.287 121.868L153.266 127.575L151.802 124.94C151.243 123.937 151.085 122.759 151.361 121.645C151.636 120.53 152.324 119.562 153.286 118.934C154.248 118.307 155.411 118.068 156.542 118.266C157.673 118.463 158.687 119.082 159.38 119.998L173.481 138.884C175.566 141.675 177.16 144.802 178.193 148.129Z" fill="#EFCFB3"/>
<path d="M131.408 161.79L133.854 165.305L123.711 160.389C125.955 161.188 129.796 161.663 131.408 161.79Z" fill="#DFB28B"/>
<path d="M107.394 112.94C106.777 114.451 104.034 116.526 102.335 116.775C101.597 116.098 98.4768 112.103 101.17 110.056C104.198 107.755 107.394 112.94 107.394 112.94Z" fill="#F5E0CD"/>
<path d="M100.121 155.644C99.3488 156.971 101.948 159.003 105.42 161.716C106.245 160.935 108.19 157.567 108.221 156.388C108.223 156.388 101.943 152.489 100.121 155.644Z" fill="#F5E0CD"/>
<path d="M200.588 179.243L161.217 206.665L153.969 196.258C165.727 185.298 178.982 176.065 193.339 168.836L200.588 179.243Z" fill="white"/>
<path d="M257.659 256.543L213.94 286.996L159.148 208.33L162.88 204.948C173.615 195.218 185.552 186.903 198.4 180.207L202.867 177.879L257.659 256.543Z" fill="#0B2952"/>
<path d="M95.3242 73.172L97.2454 71.2499L100.634 74.6383L109.395 65.877L111.316 67.7981L100.634 78.4815L95.3242 73.172Z" fill="white"/>
<path d="M104.727 67.8438C99.5613 67.8438 95.375 70.9817 95.375 74.8575C95.375 77.5972 97.4755 79.9643 100.529 81.1186L98.491 86.5469L104.354 81.8565C104.478 81.8602 104.599 81.8712 104.727 81.8712C109.892 81.8712 114.078 78.7332 114.078 74.8575C114.078 70.9817 109.892 67.8438 104.727 67.8438Z" fill="#35C0ED"/>
<path d="M90.0391 90.0039H91.1929L93.1629 95.3837L95.1328 90.0039H96.2867L93.7954 96.5785H92.5508L90.0391 90.0039Z" fill="#35C0ED"/>
<path d="M96.7888 96.0276C96.3332 95.6059 96.1055 94.973 96.1055 94.1289C96.1055 93.3324 96.3062 92.7141 96.7078 92.2742C97.1093 91.8342 97.7048 91.6146 98.4942 91.6152C99.2101 91.6152 99.758 91.8023 100.138 92.1765C100.518 92.5508 100.708 93.0535 100.708 93.6848V94.5829H97.1666C97.2206 95.0456 97.3872 95.3671 97.6664 95.5473C97.9456 95.7276 98.3845 95.8177 98.9833 95.8177C99.2352 95.8172 99.4865 95.7934 99.734 95.7465C99.9652 95.7059 100.192 95.6445 100.412 95.563V96.38C99.9842 96.5701 99.433 96.6654 98.7587 96.6661C97.9017 96.6647 97.245 96.4519 96.7888 96.0276ZM99.7281 93.8536V93.5159C99.7281 93.1697 99.6331 92.9061 99.4431 92.7252C99.2478 92.5446 98.9462 92.4548 98.5235 92.4548C98.0198 92.4548 97.6677 92.5638 97.4672 92.7818C97.2668 92.9998 97.1666 93.3577 97.1666 93.8556L99.7281 93.8536Z" fill="#35C0ED"/>
<path d="M101.789 91.7236H102.81L102.871 92.2849C103.131 92.1207 103.409 91.984 103.697 91.8769C104.004 91.7577 104.322 91.6719 104.647 91.6211V92.4684C104.326 92.5309 104.008 92.6147 103.697 92.7193C103.419 92.8039 103.152 92.9219 102.902 93.0707V96.5626H101.789V91.7236Z" fill="#35C0ED"/>
<path d="M106.27 92.5702H105.535L105.633 91.7229H107.379V96.5619H106.27V92.5702ZM106.178 89.793H107.393V90.7125H106.178V89.793Z" fill="#35C0ED"/>
<path d="M108.974 92.5907H108.27V91.7228H108.974V91.1303C108.974 90.6402 109.112 90.2498 109.388 89.9589C109.664 89.668 110.061 89.5215 110.577 89.5196C110.915 89.5178 111.25 89.5766 111.567 89.6933V90.4889C111.361 90.4151 111.143 90.3772 110.924 90.3767C110.605 90.3767 110.383 90.4333 110.261 90.5455C110.139 90.6578 110.076 90.854 110.076 91.141V91.7267H111.346L111.295 92.5946H110.076V96.5657H108.974V92.5907Z" fill="#35C0ED"/>
<path d="M111.744 98.2163V97.3894C111.944 97.4577 112.155 97.4907 112.367 97.4871C112.539 97.4934 112.71 97.46 112.867 97.3894C113.003 97.3192 113.119 97.2158 113.204 97.0888C113.33 96.899 113.442 96.701 113.541 96.4962L111.387 91.7188H112.541L114.092 95.3121L115.664 91.7188H116.808L114.838 96.2824C114.545 96.9762 114.24 97.4949 113.924 97.8385C113.766 98.0088 113.574 98.1431 113.36 98.232C113.146 98.321 112.915 98.3626 112.683 98.3539C112.364 98.3634 112.047 98.3168 111.744 98.2163Z" fill="#35C0ED"/>
</g>
</svg>
