
<svg width="167" height="207" viewBox="0 0 167 207" fill="none" xmlns="http://www.w3.org/2000/svg">
<path d="M134.5 5.11392H23.5V202H134.5V5.11392Z" fill="url(#paint0_linear_59_2292)"/>
<path d="M134.5 5.11392H23.5V19.1772H134.5V5.11392Z" fill="#1F4E8D"/>
<path d="M47.6457 123.948H34.001V149.507H47.6457V123.948Z" fill="#0B2952"/>
<path d="M46.8379 125.166H34.8135V148.501H46.8379V125.166Z" fill="#A8E8FD"/>
<path d="M41.175 124.442H40.3154V149.168H41.175V124.442Z" fill="#0B2952"/>
<path d="M47.0173 136.193H34.6143V136.981H47.0173V136.193Z" fill="#0B2952"/>
<path d="M47.0173 130.325H34.6143V130.773H47.0173V130.325Z" fill="#0B2952"/>
<path d="M47.0173 142.855H34.6143V143.303H47.0173V142.855Z" fill="#0B2952"/>
<path d="M47.6443 149.587H34.2598V150.324H47.6443V149.587Z" fill="#A8E8FD"/>
<path d="M47.1672 171.626H33.5225V197.185H47.1672V171.626Z" fill="#0B2952"/>
<path d="M46.3545 172.85H34.3301V196.184H46.3545V172.85Z" fill="#A8E8FD"/>
<path d="M40.6965 172.12H39.8369V196.846H40.6965V172.12Z" fill="#0B2952"/>
<path d="M46.5388 183.872H34.1357V184.659H46.5388V183.872Z" fill="#0B2952"/>
<path d="M46.5388 178.004H34.1357V178.451H46.5388V178.004Z" fill="#0B2952"/>
<path d="M46.5388 190.534H34.1357V190.981H46.5388V190.534Z" fill="#0B2952"/>
<path d="M47.1658 197.266H33.7812V198.002H47.1658V197.266Z" fill="#A8E8FD"/>
<path d="M125.18 171.316H111.535V196.876H125.18V171.316Z" fill="#0B2952"/>
<path d="M124.367 172.54H112.343V195.874H124.367V172.54Z" fill="#A8E8FD"/>
<path d="M118.709 171.811H117.85V196.536H118.709V171.811Z" fill="#0B2952"/>
<path d="M124.551 183.562H112.148V184.35H124.551V183.562Z" fill="#0B2952"/>
<path d="M124.551 177.694H112.148V178.141H124.551V177.694Z" fill="#0B2952"/>
<path d="M124.551 190.224H112.148V190.672H124.551V190.224Z" fill="#0B2952"/>
<path d="M125.179 196.956H111.794V197.692H125.179V196.956Z" fill="#A8E8FD"/>
<path d="M86.9035 122.734H73.2588V148.293H86.9035V122.734Z" fill="#0B2952"/>
<path d="M86.0957 123.953H74.0713V147.287H86.0957V123.953Z" fill="#A8E8FD"/>
<path d="M80.4329 123.229H79.5732V147.954H80.4329V123.229Z" fill="#0B2952"/>
<path d="M86.2751 134.98H73.8721V135.767H86.2751V134.98Z" fill="#0B2952"/>
<path d="M86.2751 129.112H73.8721V129.559H86.2751V129.112Z" fill="#0B2952"/>
<path d="M86.2751 141.642H73.8721V142.089H86.2751V141.642Z" fill="#0B2952"/>
<path d="M86.9022 148.374H73.5176V149.11H86.9022V148.374Z" fill="#A8E8FD"/>
<path d="M126.455 124.013H112.811V149.572H126.455V124.013Z" fill="#0B2952"/>
<path d="M125.647 125.231H113.623V148.566H125.647V125.231Z" fill="#A8E8FD"/>
<path d="M119.985 124.507H119.125V149.233H119.985V124.507Z" fill="#0B2952"/>
<path d="M125.827 136.258H113.424V137.046H125.827V136.258Z" fill="#0B2952"/>
<path d="M125.827 130.39H113.424V130.838H125.827V130.39Z" fill="#0B2952"/>
<path d="M125.827 142.92H113.424V143.368H125.827V142.92Z" fill="#0B2952"/>
<path d="M126.454 149.652H113.069V150.389H126.454V149.652Z" fill="#A8E8FD"/>
<path d="M48 52.2284H34V28.0082C38.7291 23.9928 43.747 24.0018 48 28.0082V52.2284Z" fill="#0B2952"/>
<path d="M47.1657 51.2775H34.8291V29.1657C38.6766 25.3644 43.4139 25.497 47.1657 29.1657V51.2775Z" fill="#A8E8FD"/>
<path d="M41.3562 26.0396H40.4746V51.9093H41.3562V26.0396Z" fill="#0B2952"/>
<path d="M47.3567 39.2038H34.6309V39.9503H47.3567V39.2038Z" fill="#0B2952"/>
<path d="M47.3567 33.238H34.6309V33.6626H47.3567V33.238Z" fill="#0B2952"/>
<path d="M47.3567 45.7223H34.6309V46.1468H47.3567V45.7223Z" fill="#0B2952"/>
<path d="M47.998 52.3022H34.2656V53H47.998V52.3022Z" fill="#A8E8FD"/>
<path d="M87 52.2284H73V28.0082C77.7291 23.9928 82.747 24.0018 87 28.0082V52.2284Z" fill="#0B2952"/>
<path d="M86.1657 51.2775H73.8291V29.1657C77.6766 25.3644 82.4139 25.497 86.1657 29.1657V51.2775Z" fill="#A8E8FD"/>
<path d="M80.3562 26.0396H79.4746V51.9093H80.3562V26.0396Z" fill="#0B2952"/>
<path d="M86.3567 39.2038H73.6309V39.9503H86.3567V39.2038Z" fill="#0B2952"/>
<path d="M86.3567 33.238H73.6309V33.6626H86.3567V33.238Z" fill="#0B2952"/>
<path d="M86.3567 45.7223H73.6309V46.1468H86.3567V45.7223Z" fill="#0B2952"/>
<path d="M86.998 52.3022H73.2656V53H86.998V52.3022Z" fill="#A8E8FD"/>
<path d="M126 52.2284H112V28.0082C116.729 23.9928 121.747 24.0018 126 28.0082V52.2284Z" fill="#0B2952"/>
<path d="M125.166 51.2775H112.829V29.1657C116.677 25.3644 121.414 25.497 125.166 29.1657V51.2775Z" fill="#A8E8FD"/>
<path d="M119.356 26.0396H118.475V51.9093H119.356V26.0396Z" fill="#0B2952"/>
<path d="M125.357 39.2038H112.631V39.9503H125.357V39.2038Z" fill="#0B2952"/>
<path d="M125.357 33.238H112.631V33.6626H125.357V33.238Z" fill="#0B2952"/>
<path d="M125.357 45.7223H112.631V46.1468H125.357V45.7223Z" fill="#0B2952"/>
<path d="M125.998 52.3022H112.266V53H125.998V52.3022Z" fill="#A8E8FD"/>
<path d="M88.4482 167.481H71.9824V200.833H88.4482V167.481Z" fill="#1F4E8D"/>
<path d="M87.3742 168.7H72.7207V200.244H87.3742V168.7Z" fill="#0B2952"/>
<path d="M86.6291 75.735H72.9844V101.294H86.6291V75.735Z" fill="#0B2952"/>
<path d="M85.8213 76.9536H73.7969V100.288H85.8213V76.9536Z" fill="#A8E8FD"/>
<path d="M80.1584 76.2294H79.2988V100.955H80.1584V76.2294Z" fill="#0B2952"/>
<path d="M86.0007 87.9805H73.5977V88.7681H86.0007V87.9805Z" fill="#0B2952"/>
<path d="M86.0007 82.1124H73.5977V82.56H86.0007V82.1124Z" fill="#0B2952"/>
<path d="M86.0007 94.6426H73.5977V95.0901H86.0007V94.6426Z" fill="#0B2952"/>
<path d="M86.6277 101.375H73.2432V102.111H86.6277V101.375Z" fill="#A8E8FD"/>
<path d="M126.455 74.1519H112.811V99.7111H126.455V74.1519Z" fill="#0B2952"/>
<path d="M125.647 75.3705H113.623V98.7049H125.647V75.3705Z" fill="#A8E8FD"/>
<path d="M119.985 74.6463H119.125V99.3719H119.985V74.6463Z" fill="#0B2952"/>
<path d="M125.827 86.3974H113.424V87.185H125.827V86.3974Z" fill="#0B2952"/>
<path d="M125.827 80.5293H113.424V80.9768H125.827V80.5293Z" fill="#0B2952"/>
<path d="M125.827 93.0594H113.424V93.5069H125.827V93.0594Z" fill="#0B2952"/>
<path d="M126.454 99.7914H113.069V100.528H126.454V99.7914Z" fill="#A8E8FD"/>
<path d="M47.6457 75.735H34.001V101.294H47.6457V75.735Z" fill="#0B2952"/>
<path d="M46.8379 76.9536H34.8135V100.288H46.8379V76.9536Z" fill="#A8E8FD"/>
<path d="M41.175 76.2294H40.3154V100.955H41.175V76.2294Z" fill="#0B2952"/>
<path d="M47.0173 87.9805H34.6143V88.7681H47.0173V87.9805Z" fill="#0B2952"/>
<path d="M47.0173 82.1124H34.6143V82.56H47.0173V82.1124Z" fill="#0B2952"/>
<path d="M47.0173 94.6426H34.6143V95.0901H47.0173V94.6426Z" fill="#0B2952"/>
<path d="M47.6443 101.375H34.2598V102.111H47.6443V101.375Z" fill="#A8E8FD"/>
<g opacity="0.9">
<path d="M139.091 203.94C139.091 203.94 139.403 172.56 129.378 152.812C128.704 151.486 126.901 151.465 126.201 152.781C121.521 161.585 110.063 188.996 139.091 203.94Z" fill="#39AFD3"/>
<path opacity="0.5" d="M136.734 201.305C136.787 201.393 136.668 201.482 136.605 201.402C134.283 198.44 125.855 184.657 126.931 161.795C126.931 161.781 126.937 161.767 126.947 161.756C126.958 161.746 126.972 161.74 126.986 161.74C127.001 161.74 127.015 161.746 127.025 161.756C127.036 161.767 127.042 161.781 127.042 161.795C127.233 167.207 128.489 187.308 136.734 201.305Z" fill="white"/>
</g>
<g opacity="0.92">
<path d="M141.553 191.491C141.553 191.491 148.085 163.236 142.51 143.29C142.136 141.949 140.431 141.549 139.506 142.589C133.32 149.544 117.015 171.855 141.553 191.491Z" fill="#66B8D0"/>
<path opacity="0.5" d="M139.84 188.612C139.847 188.63 139.847 188.651 139.839 188.669C139.831 188.687 139.817 188.702 139.799 188.709C139.781 188.717 139.76 188.718 139.742 188.711C139.723 188.704 139.708 188.69 139.699 188.672C138.089 185.507 132.842 171.284 138.406 150.879C138.407 150.872 138.41 150.865 138.414 150.859C138.418 150.853 138.423 150.848 138.429 150.844C138.435 150.84 138.442 150.838 138.448 150.836C138.455 150.835 138.463 150.835 138.47 150.836C138.477 150.838 138.483 150.841 138.489 150.845C138.495 150.849 138.5 150.854 138.504 150.86C138.508 150.866 138.51 150.872 138.512 150.879C138.513 150.886 138.513 150.894 138.512 150.901C137.615 155.826 134.81 174.234 139.84 188.612Z" fill="white"/>
</g>
<g opacity="0.92">
<path d="M136.907 205.094C136.907 205.094 157.853 185.036 164.118 165.296C164.539 163.969 163.332 162.701 161.988 163.064C153.003 165.493 127.138 175.223 136.907 205.094Z" fill="#66B8D0"/>
<path opacity="0.5" d="M137.053 201.748C137.049 201.767 137.037 201.784 137.021 201.795C137.004 201.806 136.984 201.81 136.965 201.807C136.945 201.804 136.928 201.793 136.916 201.777C136.905 201.761 136.9 201.741 136.902 201.721C137.288 198.191 140.692 183.418 156.527 169.397C156.532 169.392 156.538 169.388 156.544 169.385C156.551 169.382 156.558 169.381 156.565 169.381C156.572 169.381 156.579 169.382 156.586 169.385C156.592 169.387 156.598 169.391 156.603 169.396C156.608 169.401 156.612 169.407 156.615 169.414C156.618 169.421 156.619 169.428 156.619 169.435C156.619 169.442 156.618 169.449 156.615 169.455C156.612 169.462 156.608 169.468 156.603 169.473C153.155 173.102 140.723 186.964 137.053 201.748Z" fill="white"/>
</g>
<g opacity="0.9">
<path d="M19.091 202.94C19.091 202.94 19.4025 171.56 9.3777 151.812C8.70385 150.486 6.90072 150.465 6.20089 151.781C1.5213 160.585 -9.93658 187.996 19.091 202.94Z" fill="#39AFD3"/>
<path opacity="0.5" d="M16.7337 200.305C16.7868 200.393 16.6683 200.482 16.6054 200.402C14.2833 197.44 5.85534 183.657 6.93133 160.795C6.93133 160.781 6.93714 160.767 6.94748 160.756C6.95782 160.746 6.97184 160.74 6.98647 160.74C7.00109 160.74 7.01511 160.746 7.02545 160.756C7.03579 160.767 7.0416 160.781 7.0416 160.795C7.23273 166.207 8.48872 186.308 16.7337 200.305Z" fill="white"/>
</g>
<g opacity="0.92">
<path d="M21.5526 190.491C21.5526 190.491 28.0855 162.236 22.5104 142.29C22.1356 140.949 20.4308 140.549 19.5056 141.589C13.3201 148.544 -2.98544 170.855 21.5526 190.491Z" fill="#66B8D0"/>
<path opacity="0.5" d="M19.8403 187.612C19.8473 187.63 19.8468 187.651 19.8391 187.669C19.8314 187.687 19.8169 187.702 19.7987 187.709C19.7806 187.717 19.7601 187.718 19.7416 187.711C19.7231 187.704 19.708 187.69 19.6995 187.672C18.0886 184.507 12.8419 170.284 18.4056 149.879C18.4071 149.872 18.4099 149.865 18.4139 149.859C18.4179 149.853 18.423 149.848 18.4289 149.844C18.4349 149.84 18.4415 149.838 18.4485 149.836C18.4555 149.835 18.4627 149.835 18.4696 149.836C18.4766 149.838 18.4832 149.841 18.4891 149.845C18.495 149.849 18.5 149.854 18.5039 149.86C18.5078 149.866 18.5105 149.872 18.5118 149.879C18.5131 149.886 18.5131 149.894 18.5116 149.901C17.6151 154.826 14.81 173.234 19.8403 187.612Z" fill="white"/>
</g>
<g opacity="0.92">
<path d="M16.9073 204.094C16.9073 204.094 37.8533 184.036 44.1176 164.296C44.5387 162.969 43.3317 161.701 41.9879 162.064C33.0031 164.493 7.13836 174.223 16.9073 204.094Z" fill="#66B8D0"/>
<path opacity="0.5" d="M17.0529 200.748C17.0487 200.767 17.0371 200.784 17.0206 200.795C17.0042 200.806 16.9842 200.81 16.9647 200.807C16.9452 200.804 16.9279 200.793 16.9162 200.777C16.9046 200.761 16.8995 200.741 16.9022 200.721C17.2884 197.191 20.6924 182.418 36.5268 168.397C36.5318 168.392 36.5378 168.388 36.5444 168.385C36.5509 168.382 36.558 168.381 36.5651 168.381C36.5722 168.381 36.5792 168.382 36.5858 168.385C36.5924 168.387 36.5983 168.391 36.6034 168.396C36.6084 168.401 36.6124 168.407 36.6151 168.414C36.6179 168.421 36.6193 168.428 36.6193 168.435C36.6193 168.442 36.6179 168.449 36.6152 168.455C36.6124 168.462 36.6085 168.468 36.6034 168.473C33.1549 172.102 20.7226 185.964 17.0529 200.748Z" fill="white"/>
</g>
<defs>
<linearGradient id="paint0_linear_59_2292" x1="333.12" y1="106.589" x2="-62.0174" y2="100.392" gradientUnits="userSpaceOnUse">
<stop stop-color="#3ACFFF"/>
<stop offset="0.956731" stop-color="#7EE0FF"/>
</linearGradient>
</defs>
</svg>
