
<svg width="214" height="176" viewBox="0 0 214 176" fill="none" xmlns="http://www.w3.org/2000/svg">
<path d="M150 4.12658H60V163H150V4.12658Z" fill="url(#paint0_linear_59_250)"/>
<path d="M150 4.12658H60V15.4747H150V4.12658Z" fill="#1F4E8D"/>
<path d="M79.5779 100.017H68.5146V120.642H79.5779V100.017Z" fill="#0B2952"/>
<path d="M78.9224 101.001H69.1729V119.83H78.9224V101.001Z" fill="#A8E8FD"/>
<path d="M74.3318 100.416H73.6348V120.368H74.3318V100.416Z" fill="#0B2952"/>
<path d="M79.0682 109.898H69.0117V110.534H79.0682V109.898Z" fill="#0B2952"/>
<path d="M79.0682 105.163H69.0117V105.524H79.0682V105.163Z" fill="#0B2952"/>
<path d="M79.0682 115.274H69.0117V115.635H79.0682V115.274Z" fill="#0B2952"/>
<path d="M79.577 120.707H68.7246V121.301H79.577V120.707Z" fill="#A8E8FD"/>
<path d="M79.1902 138.49H68.127V159.115H79.1902V138.49Z" fill="#0B2952"/>
<path d="M78.5308 139.478H68.7812V158.307H78.5308V139.478Z" fill="#A8E8FD"/>
<path d="M73.9441 138.889H73.2471V158.841H73.9441V138.889Z" fill="#0B2952"/>
<path d="M78.6805 148.372H68.624V149.007H78.6805V148.372Z" fill="#0B2952"/>
<path d="M78.6805 143.636H68.624V143.998H78.6805V143.636Z" fill="#0B2952"/>
<path d="M78.6805 153.747H68.624V154.109H78.6805V153.747Z" fill="#0B2952"/>
<path d="M79.1893 159.18H68.3369V159.774H79.1893V159.18Z" fill="#A8E8FD"/>
<path d="M142.442 138.241H131.379V158.865H142.442V138.241Z" fill="#0B2952"/>
<path d="M141.783 139.228H132.033V158.057H141.783V139.228Z" fill="#A8E8FD"/>
<path d="M137.196 138.639H136.499V158.591H137.196V138.639Z" fill="#0B2952"/>
<path d="M141.932 148.122H131.876V148.757H141.932V148.122Z" fill="#0B2952"/>
<path d="M141.932 143.387H131.876V143.748H141.932V143.387Z" fill="#0B2952"/>
<path d="M141.932 153.498H131.876V153.859H141.932V153.498Z" fill="#0B2952"/>
<path d="M142.441 158.93H131.589V159.524H142.441V158.93Z" fill="#A8E8FD"/>
<path d="M111.408 99.038H100.345V119.662H111.408V99.038Z" fill="#0B2952"/>
<path d="M110.752 100.021H101.003V118.851H110.752V100.021Z" fill="#A8E8FD"/>
<path d="M106.162 99.4369H105.465V119.389H106.162V99.4369Z" fill="#0B2952"/>
<path d="M110.898 108.919H100.842V109.555H110.898V108.919Z" fill="#0B2952"/>
<path d="M110.898 104.184H100.842V104.545H110.898V104.184Z" fill="#0B2952"/>
<path d="M110.898 114.295H100.842V114.656H110.898V114.295Z" fill="#0B2952"/>
<path d="M111.407 119.727H100.555V120.322H111.407V119.727Z" fill="#A8E8FD"/>
<path d="M143.477 100.07H132.414V120.694H143.477V100.07Z" fill="#0B2952"/>
<path d="M142.822 101.053H133.072V119.882H142.822V101.053Z" fill="#A8E8FD"/>
<path d="M138.231 100.469H137.534V120.42H138.231V100.469Z" fill="#0B2952"/>
<path d="M142.968 109.951H132.911V110.586H142.968V109.951Z" fill="#0B2952"/>
<path d="M142.968 105.216H132.911V105.577H142.968V105.216Z" fill="#0B2952"/>
<path d="M142.968 115.327H132.911V115.688H142.968V115.327Z" fill="#0B2952"/>
<path d="M143.476 120.759H132.624V121.353H143.476V120.759Z" fill="#A8E8FD"/>
<path d="M79.865 42.1447H68.5137V22.6006C72.3481 19.3605 76.4166 19.3678 79.865 22.6006V42.1447Z" fill="#0B2952"/>
<path d="M79.1892 41.3774H69.1865V23.5347C72.3061 20.4674 76.1471 20.5743 79.1892 23.5347V41.3774Z" fill="#A8E8FD"/>
<path d="M74.4775 21.0122H73.7627V41.8872H74.4775V21.0122Z" fill="#0B2952"/>
<path d="M79.3427 31.6348H69.0244V32.2371H79.3427V31.6348Z" fill="#0B2952"/>
<path d="M79.3427 26.8208H69.0244V27.1633H79.3427V26.8208Z" fill="#0B2952"/>
<path d="M79.3427 36.8947H69.0244V37.2373H79.3427V36.8947Z" fill="#0B2952"/>
<path d="M79.8629 42.2042H68.7285V42.7673H79.8629V42.2042Z" fill="#A8E8FD"/>
<path d="M111.486 42.1447H100.135V22.6006C103.969 19.3605 108.038 19.3678 111.486 22.6006V42.1447Z" fill="#0B2952"/>
<path d="M110.81 41.3774H100.808V23.5347C103.927 20.4674 107.768 20.5743 110.81 23.5347V41.3774Z" fill="#A8E8FD"/>
<path d="M106.1 21.0122H105.385V41.8872H106.1V21.0122Z" fill="#0B2952"/>
<path d="M110.964 31.6348H100.646V32.2371H110.964V31.6348Z" fill="#0B2952"/>
<path d="M110.964 26.8208H100.646V27.1633H110.964V26.8208Z" fill="#0B2952"/>
<path d="M110.964 36.8947H100.646V37.2373H110.964V36.8947Z" fill="#0B2952"/>
<path d="M111.484 42.2042H100.35V42.7673H111.484V42.2042Z" fill="#A8E8FD"/>
<path d="M143.108 42.1447H131.757V22.6006C135.591 19.3605 139.66 19.3678 143.108 22.6006V42.1447Z" fill="#0B2952"/>
<path d="M142.432 41.3774H132.43V23.5347C135.549 20.4674 139.39 20.5743 142.432 23.5347V41.3774Z" fill="#A8E8FD"/>
<path d="M137.722 21.0122H137.007V41.8872H137.722V21.0122Z" fill="#0B2952"/>
<path d="M142.586 31.6348H132.268V32.2371H142.586V31.6348Z" fill="#0B2952"/>
<path d="M142.586 26.8208H132.268V27.1633H142.586V26.8208Z" fill="#0B2952"/>
<path d="M142.586 36.8947H132.268V37.2373H142.586V36.8947Z" fill="#0B2952"/>
<path d="M143.106 42.2042H131.972V42.7673H143.106V42.2042Z" fill="#A8E8FD"/>
<path d="M112.661 135.146H99.3105V162.058H112.661V135.146Z" fill="#1F4E8D"/>
<path d="M111.789 136.129H99.9082V161.583H111.789V136.129Z" fill="#0B2952"/>
<path d="M111.186 61.1129H100.123V81.7374H111.186V61.1129Z" fill="#0B2952"/>
<path d="M110.531 62.0962H100.781V80.9255H110.531V62.0962Z" fill="#A8E8FD"/>
<path d="M105.94 61.5119H105.243V81.4637H105.94V61.5119Z" fill="#0B2952"/>
<path d="M110.677 70.9941H100.62V71.6297H110.677V70.9941Z" fill="#0B2952"/>
<path d="M110.677 66.259H100.62V66.6202H110.677V66.259Z" fill="#0B2952"/>
<path d="M110.677 76.37H100.62V76.7311H110.677V76.37Z" fill="#0B2952"/>
<path d="M111.185 81.8022H100.333V82.3965H111.185V81.8022Z" fill="#A8E8FD"/>
<path d="M143.477 59.8354H132.414V80.46H143.477V59.8354Z" fill="#0B2952"/>
<path d="M142.822 60.8187H133.072V79.648H142.822V60.8187Z" fill="#A8E8FD"/>
<path d="M138.231 60.2344H137.534V80.1862H138.231V60.2344Z" fill="#0B2952"/>
<path d="M142.968 69.7167H132.911V70.3522H142.968V69.7167Z" fill="#0B2952"/>
<path d="M142.968 64.9816H132.911V65.3427H142.968V64.9816Z" fill="#0B2952"/>
<path d="M142.968 75.0925H132.911V75.4536H142.968V75.0925Z" fill="#0B2952"/>
<path d="M143.476 80.5248H132.624V81.119H143.476V80.5248Z" fill="#A8E8FD"/>
<path d="M79.5779 61.1129H68.5146V81.7374H79.5779V61.1129Z" fill="#0B2952"/>
<path d="M78.9224 62.0962H69.1729V80.9255H78.9224V62.0962Z" fill="#A8E8FD"/>
<path d="M74.3318 61.5119H73.6348V81.4637H74.3318V61.5119Z" fill="#0B2952"/>
<path d="M79.0682 70.9941H69.0117V71.6297H79.0682V70.9941Z" fill="#0B2952"/>
<path d="M79.0682 66.259H69.0117V66.6202H79.0682V66.259Z" fill="#0B2952"/>
<path d="M79.0682 76.37H69.0117V76.7311H79.0682V76.37Z" fill="#0B2952"/>
<path d="M79.577 81.8022H68.7246V82.3965H79.577V81.8022Z" fill="#A8E8FD"/>
<g opacity="0.9">
<path d="M161.091 163.94C161.091 163.94 161.403 132.56 151.378 112.812C150.704 111.486 148.901 111.465 148.201 112.781C143.521 121.585 132.063 148.996 161.091 163.94Z" fill="#39AFD3"/>
<path opacity="0.5" d="M158.734 161.305C158.787 161.393 158.668 161.482 158.605 161.402C156.283 158.44 147.855 144.657 148.931 121.795C148.931 121.781 148.937 121.767 148.947 121.756C148.958 121.746 148.972 121.74 148.986 121.74C149.001 121.74 149.015 121.746 149.025 121.756C149.036 121.767 149.042 121.781 149.042 121.795C149.233 127.207 150.489 147.308 158.734 161.305Z" fill="white"/>
</g>
<g opacity="0.9">
<path d="M161.555 163.692C161.555 163.692 143.8 137.816 124.256 127.398C122.943 126.699 121.454 127.716 121.637 129.196C122.858 139.091 129.206 168.114 161.555 163.692Z" fill="#39AFD3"/>
<path opacity="0.5" d="M158.112 162.887C158.206 162.929 158.16 163.07 158.062 163.04C154.461 161.948 139.649 155.498 127.409 136.159C127.4 136.147 127.397 136.132 127.4 136.117C127.402 136.103 127.41 136.09 127.422 136.082C127.434 136.073 127.449 136.07 127.463 136.073C127.478 136.075 127.491 136.083 127.499 136.095C130.761 140.417 143.327 156.157 158.112 162.887Z" fill="white"/>
</g>
<g opacity="0.9">
<path d="M157.002 163.693C157.002 163.693 174.757 137.817 194.3 127.398C195.613 126.699 197.102 127.717 196.92 129.196C195.699 139.092 189.35 168.114 157.002 163.693Z" fill="#39AFD3"/>
<path opacity="0.5" d="M160.445 162.888C160.351 162.93 160.397 163.07 160.495 163.04C164.096 161.948 178.908 155.498 191.148 136.159C191.156 136.147 191.16 136.132 191.157 136.118C191.154 136.103 191.146 136.091 191.134 136.082C191.122 136.074 191.108 136.07 191.093 136.073C191.079 136.076 191.066 136.084 191.058 136.096C187.795 140.418 175.23 156.158 160.445 162.888Z" fill="white"/>
</g>
<g opacity="0.92">
<path d="M163.553 151.491C163.553 151.491 170.085 123.236 164.51 103.29C164.136 101.949 162.431 101.549 161.506 102.589C155.32 109.544 139.015 131.855 163.553 151.491Z" fill="#66B8D0"/>
<path opacity="0.5" d="M161.84 148.612C161.847 148.63 161.847 148.651 161.839 148.669C161.831 148.687 161.817 148.702 161.799 148.709C161.781 148.717 161.76 148.718 161.742 148.711C161.723 148.704 161.708 148.69 161.699 148.672C160.089 145.507 154.842 131.284 160.406 110.879C160.407 110.872 160.41 110.865 160.414 110.859C160.418 110.853 160.423 110.848 160.429 110.844C160.435 110.84 160.442 110.838 160.448 110.836C160.455 110.835 160.463 110.835 160.47 110.836C160.477 110.838 160.483 110.841 160.489 110.845C160.495 110.849 160.5 110.854 160.504 110.86C160.508 110.866 160.51 110.872 160.512 110.879C160.513 110.886 160.513 110.894 160.512 110.901C159.615 115.826 156.81 134.234 161.84 148.612Z" fill="white"/>
</g>
<g opacity="0.92">
<path d="M158.907 165.094C158.907 165.094 179.853 145.036 186.118 125.296C186.539 123.969 185.332 122.701 183.988 123.064C175.003 125.493 149.138 135.223 158.907 165.094Z" fill="#66B8D0"/>
<path opacity="0.5" d="M159.053 161.748C159.049 161.767 159.037 161.784 159.021 161.795C159.004 161.806 158.984 161.81 158.965 161.807C158.945 161.804 158.928 161.793 158.916 161.777C158.905 161.761 158.9 161.741 158.902 161.721C159.288 158.191 162.692 143.418 178.527 129.397C178.532 129.392 178.538 129.388 178.544 129.385C178.551 129.382 178.558 129.381 178.565 129.381C178.572 129.381 178.579 129.382 178.586 129.385C178.592 129.387 178.598 129.391 178.603 129.396C178.608 129.401 178.612 129.407 178.615 129.414C178.618 129.421 178.619 129.428 178.619 129.435C178.619 129.442 178.618 129.449 178.615 129.455C178.612 129.462 178.608 129.468 178.603 129.473C175.155 133.102 162.723 146.964 159.053 161.748Z" fill="white"/>
</g>
<g opacity="0.9">
<path d="M54.091 164.94C54.091 164.94 54.4025 133.56 44.3777 113.812C43.7038 112.486 41.9007 112.465 41.2009 113.781C36.5213 122.585 25.0634 149.996 54.091 164.94Z" fill="#39AFD3"/>
<path opacity="0.5" d="M51.7337 162.305C51.7868 162.393 51.6683 162.482 51.6054 162.402C49.2833 159.44 40.8553 145.657 41.9313 122.795C41.9313 122.781 41.9371 122.767 41.9475 122.756C41.9578 122.746 41.9718 122.74 41.9865 122.74C42.0011 122.74 42.0151 122.746 42.0255 122.756C42.0358 122.767 42.0416 122.781 42.0416 122.795C42.2327 128.207 43.4887 148.308 51.7337 162.305Z" fill="white"/>
</g>
<g opacity="0.9">
<path d="M54.5545 164.692C54.5545 164.692 36.7997 138.816 17.2562 128.398C15.9432 127.699 14.4544 128.716 14.6369 130.196C15.8577 140.091 22.2065 169.114 54.5545 164.692Z" fill="#39AFD3"/>
<path opacity="0.5" d="M51.1118 163.887C51.2059 163.929 51.1597 164.07 51.0621 164.04C47.4609 162.948 32.6487 156.498 20.4088 137.159C20.4004 137.147 20.3971 137.132 20.3996 137.117C20.4021 137.103 20.4103 137.09 20.4223 137.082C20.4342 137.073 20.4491 137.07 20.4635 137.073C20.4779 137.075 20.4907 137.083 20.4991 137.095C23.7614 141.417 36.3268 157.157 51.1118 163.887Z" fill="white"/>
</g>
<g opacity="0.9">
<path d="M50.0021 164.693C50.0021 164.693 67.757 138.817 87.3004 128.398C88.6134 127.699 90.1022 128.717 89.9197 130.196C88.6989 140.092 82.3501 169.114 50.0021 164.693Z" fill="#39AFD3"/>
<path opacity="0.5" d="M53.4449 163.888C53.3507 163.93 53.3969 164.07 53.4945 164.04C57.0957 162.948 71.9079 156.498 84.1479 137.159C84.1563 137.147 84.1595 137.132 84.157 137.118C84.1545 137.103 84.1463 137.091 84.1344 137.082C84.1224 137.074 84.1076 137.07 84.0932 137.073C84.0788 137.076 84.0659 137.084 84.0575 137.096C80.7952 141.418 68.2298 157.158 53.4449 163.888Z" fill="white"/>
</g>
<g opacity="0.92">
<path d="M56.5526 152.491C56.5526 152.491 63.0855 124.236 57.5104 104.29C57.1356 102.949 55.4308 102.549 54.5056 103.589C48.3201 110.544 32.0146 132.855 56.5526 152.491Z" fill="#66B8D0"/>
<path opacity="0.5" d="M54.8403 149.612C54.8473 149.63 54.8468 149.651 54.8391 149.669C54.8314 149.687 54.8169 149.702 54.7987 149.709C54.7806 149.717 54.7601 149.718 54.7416 149.711C54.7231 149.704 54.708 149.69 54.6995 149.672C53.0886 146.507 47.8419 132.284 53.4056 111.879C53.4071 111.872 53.4099 111.865 53.4139 111.859C53.4179 111.853 53.423 111.848 53.4289 111.844C53.4349 111.84 53.4415 111.838 53.4485 111.836C53.4555 111.835 53.4627 111.835 53.4696 111.836C53.4766 111.838 53.4832 111.841 53.4891 111.845C53.495 111.849 53.5 111.854 53.5039 111.86C53.5078 111.866 53.5105 111.872 53.5118 111.879C53.5131 111.886 53.5131 111.894 53.5116 111.901C52.6151 116.826 49.81 135.234 54.8403 149.612Z" fill="white"/>
</g>
<g opacity="0.92">
<path d="M51.9073 166.094C51.9073 166.094 72.8533 146.036 79.1176 126.296C79.5387 124.969 78.3317 123.701 76.9879 124.064C68.0031 126.493 42.1384 136.223 51.9073 166.094Z" fill="#66B8D0"/>
<path opacity="0.5" d="M52.0529 162.748C52.0487 162.767 52.0371 162.784 52.0206 162.795C52.0042 162.806 51.9842 162.81 51.9647 162.807C51.9452 162.804 51.9279 162.793 51.9162 162.777C51.9046 162.761 51.8995 162.741 51.9022 162.721C52.2884 159.191 55.6924 144.418 71.5268 130.397C71.5318 130.392 71.5378 130.388 71.5444 130.385C71.5509 130.382 71.558 130.381 71.5651 130.381C71.5722 130.381 71.5792 130.382 71.5858 130.385C71.5924 130.387 71.5983 130.391 71.6034 130.396C71.6084 130.401 71.6124 130.407 71.6151 130.414C71.6179 130.421 71.6193 130.428 71.6193 130.435C71.6193 130.442 71.6179 130.449 71.6152 130.455C71.6124 130.462 71.6085 130.468 71.6034 130.473C68.1549 134.102 55.7226 147.964 52.0529 162.748Z" fill="white"/>
</g>
<g opacity="0.9">
<path d="M53.091 150.94C53.091 150.94 53.4025 119.56 43.3777 99.8122C42.7038 98.4859 40.9007 98.4647 40.2009 99.7812C35.5213 108.585 24.0634 135.996 53.091 150.94Z" fill="#39AFD3"/>
<path opacity="0.5" d="M50.7337 148.305C50.7868 148.393 50.6683 148.482 50.6054 148.402C48.2833 145.44 39.8553 131.657 40.9313 108.795C40.9313 108.781 40.9371 108.767 40.9475 108.756C40.9578 108.746 40.9718 108.74 40.9865 108.74C41.0011 108.74 41.0151 108.746 41.0255 108.756C41.0358 108.767 41.0416 108.781 41.0416 108.795C41.2327 114.207 42.4887 134.308 50.7337 148.305Z" fill="white"/>
</g>
<g opacity="0.9">
<path d="M53.5545 150.692C53.5545 150.692 35.7997 124.816 16.2562 114.398C14.9432 113.699 13.4544 114.716 13.6369 116.196C14.8577 126.091 21.2065 155.114 53.5545 150.692Z" fill="#39AFD3"/>
<path opacity="0.5" d="M50.1118 149.887C50.2059 149.929 50.1597 150.07 50.0621 150.04C46.4609 148.948 31.6487 142.498 19.4088 123.159C19.4004 123.147 19.3971 123.132 19.3996 123.117C19.4021 123.103 19.4103 123.09 19.4223 123.082C19.4342 123.073 19.4491 123.07 19.4635 123.073C19.4779 123.075 19.4907 123.083 19.4991 123.095C22.7614 127.417 35.3268 143.157 50.1118 149.887Z" fill="white"/>
</g>
<g opacity="0.9">
<path d="M49.0021 150.693C49.0021 150.693 66.757 124.817 86.3004 114.399C87.6134 113.699 89.1022 114.717 88.9197 116.196C87.6989 126.092 81.3501 155.114 49.0021 150.693Z" fill="#39AFD3"/>
<path opacity="0.5" d="M52.4449 149.888C52.3507 149.93 52.3969 150.07 52.4945 150.04C56.0957 148.948 70.9079 142.498 83.1479 123.159C83.1563 123.147 83.1595 123.132 83.157 123.118C83.1545 123.103 83.1463 123.091 83.1344 123.082C83.1224 123.074 83.1076 123.07 83.0932 123.073C83.0788 123.076 83.0659 123.084 83.0575 123.096C79.7952 127.418 67.2298 143.158 52.4449 149.888Z" fill="white"/>
</g>
<g opacity="0.92">
<path d="M55.5526 138.491C55.5526 138.491 62.0855 110.236 56.5104 90.2902C56.1356 88.9494 54.4308 88.5493 53.5056 89.5894C47.3201 96.544 31.0146 118.855 55.5526 138.491Z" fill="#66B8D0"/>
<path opacity="0.5" d="M53.8403 135.612C53.8473 135.63 53.8468 135.651 53.8391 135.669C53.8314 135.687 53.8169 135.702 53.7987 135.709C53.7806 135.717 53.7601 135.718 53.7416 135.711C53.7231 135.704 53.708 135.69 53.6995 135.672C52.0886 132.507 46.8419 118.284 52.4056 97.8785C52.4071 97.8716 52.4099 97.8649 52.4139 97.8591C52.4179 97.8532 52.423 97.8481 52.4289 97.8442C52.4349 97.8403 52.4415 97.8376 52.4485 97.8363C52.4555 97.835 52.4627 97.835 52.4696 97.8365C52.4766 97.8379 52.4832 97.8407 52.4891 97.8447C52.495 97.8487 52.5 97.8539 52.5039 97.8598C52.5078 97.8658 52.5105 97.8724 52.5118 97.8794C52.5131 97.8864 52.5131 97.8936 52.5116 97.9005C51.6151 102.826 48.81 121.234 53.8403 135.612Z" fill="white"/>
</g>
<g opacity="0.92">
<path d="M50.9073 152.094C50.9073 152.094 71.8533 132.036 78.1176 112.296C78.5387 110.969 77.3317 109.701 75.9879 110.064C67.0031 112.493 41.1384 122.223 50.9073 152.094Z" fill="#66B8D0"/>
<path opacity="0.5" d="M51.0529 148.748C51.0487 148.767 51.0371 148.784 51.0206 148.795C51.0042 148.806 50.9842 148.81 50.9647 148.807C50.9452 148.804 50.9279 148.793 50.9162 148.777C50.9046 148.761 50.8995 148.741 50.9022 148.721C51.2884 145.191 54.6924 130.418 70.5268 116.397C70.5318 116.392 70.5378 116.388 70.5444 116.385C70.5509 116.382 70.558 116.381 70.5651 116.381C70.5722 116.381 70.5792 116.382 70.5858 116.385C70.5924 116.387 70.5983 116.391 70.6034 116.396C70.6084 116.401 70.6124 116.407 70.6151 116.414C70.6179 116.421 70.6193 116.428 70.6193 116.435C70.6193 116.442 70.6179 116.449 70.6152 116.455C70.6124 116.462 70.6085 116.468 70.6034 116.473C67.1549 120.102 54.7226 133.964 51.0529 148.748Z" fill="white"/>
</g>
<g opacity="0.9">
<path d="M45.091 132.94C45.091 132.94 45.4025 101.56 35.3777 81.8122C34.7038 80.4859 32.9007 80.4647 32.2009 81.7812C27.5213 90.5854 16.0634 117.996 45.091 132.94Z" fill="#39AFD3"/>
<path opacity="0.5" d="M42.7337 130.305C42.7868 130.393 42.6683 130.482 42.6054 130.402C40.2833 127.44 31.8553 113.657 32.9313 90.7954C32.9313 90.7808 32.9371 90.7668 32.9475 90.7564C32.9578 90.7461 32.9718 90.7403 32.9865 90.7403C33.0011 90.7403 33.0151 90.7461 33.0255 90.7564C33.0358 90.7668 33.0416 90.7808 33.0416 90.7954C33.2327 96.207 34.4887 116.308 42.7337 130.305Z" fill="white"/>
</g>
<g opacity="0.9">
<path d="M45.5545 132.692C45.5545 132.692 27.7997 106.816 8.25621 96.398C6.9432 95.6987 5.45443 96.7161 5.6369 98.1959C6.85774 108.091 13.2065 137.114 45.5545 132.692Z" fill="#39AFD3"/>
<path opacity="0.5" d="M42.1118 131.887C42.2059 131.929 42.1597 132.07 42.0621 132.04C38.4609 130.948 23.6487 124.498 11.4088 105.159C11.4004 105.147 11.3971 105.132 11.3996 105.117C11.4021 105.103 11.4103 105.09 11.4223 105.082C11.4342 105.073 11.4491 105.07 11.4635 105.073C11.4779 105.075 11.4907 105.083 11.4991 105.095C14.7614 109.417 27.3268 125.157 42.1118 131.887Z" fill="white"/>
</g>
<g opacity="0.9">
<path d="M41.0021 132.693C41.0021 132.693 58.757 106.817 78.3004 96.3985C79.6134 95.6991 81.1022 96.7166 80.9197 98.1964C79.6989 108.092 73.3501 137.114 41.0021 132.693Z" fill="#39AFD3"/>
<path opacity="0.5" d="M44.4449 131.888C44.3507 131.93 44.3969 132.07 44.4945 132.04C48.0957 130.948 62.9079 124.498 75.1479 105.159C75.1563 105.147 75.1595 105.132 75.157 105.118C75.1545 105.103 75.1463 105.091 75.1344 105.082C75.1224 105.074 75.1076 105.07 75.0932 105.073C75.0788 105.076 75.0659 105.084 75.0575 105.096C71.7952 109.418 59.2298 125.158 44.4449 131.888Z" fill="white"/>
</g>
<g opacity="0.92">
<path d="M47.5526 120.491C47.5526 120.491 54.0855 92.2355 48.5104 72.2902C48.1356 70.9494 46.4308 70.5493 45.5056 71.5894C39.3201 78.544 23.0146 100.855 47.5526 120.491Z" fill="#66B8D0"/>
<path opacity="0.5" d="M45.8403 117.612C45.8473 117.63 45.8468 117.651 45.8391 117.669C45.8314 117.687 45.8169 117.702 45.7987 117.709C45.7806 117.717 45.7601 117.718 45.7416 117.711C45.7231 117.704 45.708 117.69 45.6995 117.672C44.0886 114.507 38.8419 100.284 44.4056 79.8785C44.4071 79.8716 44.4099 79.8649 44.4139 79.8591C44.4179 79.8532 44.423 79.8481 44.4289 79.8442C44.4349 79.8403 44.4415 79.8376 44.4485 79.8363C44.4555 79.835 44.4627 79.835 44.4696 79.8365C44.4766 79.8379 44.4832 79.8407 44.4891 79.8447C44.495 79.8487 44.5 79.8539 44.5039 79.8598C44.5078 79.8658 44.5105 79.8724 44.5118 79.8794C44.5131 79.8864 44.5131 79.8936 44.5116 79.9005C43.6151 84.8259 40.81 103.234 45.8403 117.612Z" fill="white"/>
</g>
<g opacity="0.92">
<path d="M42.9073 134.094C42.9073 134.094 63.8533 114.036 70.1176 94.2964C70.5387 92.9693 69.3317 91.7007 67.9879 92.0639C59.0031 94.4926 33.1384 104.223 42.9073 134.094Z" fill="#66B8D0"/>
<path opacity="0.5" d="M43.0529 130.748C43.0487 130.767 43.0371 130.784 43.0206 130.795C43.0042 130.806 42.9842 130.81 42.9647 130.807C42.9452 130.804 42.9279 130.793 42.9162 130.777C42.9046 130.761 42.8995 130.741 42.9022 130.721C43.2884 127.191 46.6924 112.418 62.5268 98.3965C62.5318 98.3915 62.5378 98.3875 62.5444 98.3848C62.5509 98.382 62.558 98.3806 62.5651 98.3806C62.5722 98.3806 62.5792 98.382 62.5858 98.3847C62.5924 98.3874 62.5983 98.3914 62.6034 98.3964C62.6084 98.4015 62.6124 98.4074 62.6151 98.414C62.6179 98.4206 62.6193 98.4276 62.6193 98.4347C62.6193 98.4418 62.6179 98.4489 62.6152 98.4555C62.6124 98.462 62.6085 98.468 62.6034 98.4731C59.1549 102.102 46.7226 115.964 43.0529 130.748Z" fill="white"/>
</g>
<g opacity="0.9">
<path d="M172.091 141.94C172.091 141.94 172.403 110.56 162.378 90.8122C161.704 89.4859 159.901 89.4647 159.201 90.7812C154.521 99.5854 143.063 126.996 172.091 141.94Z" fill="#39AFD3"/>
<path opacity="0.5" d="M169.734 139.305C169.787 139.393 169.668 139.482 169.605 139.402C167.283 136.44 158.855 122.657 159.931 99.7954C159.931 99.7808 159.937 99.7668 159.947 99.7564C159.958 99.7461 159.972 99.7403 159.986 99.7403C160.001 99.7403 160.015 99.7461 160.025 99.7564C160.036 99.7668 160.042 99.7808 160.042 99.7954C160.233 105.207 161.489 125.308 169.734 139.305Z" fill="white"/>
</g>
<g opacity="0.9">
<path d="M172.555 141.692C172.555 141.692 154.8 115.816 135.256 105.398C133.943 104.699 132.454 105.716 132.637 107.196C133.858 117.091 140.206 146.114 172.555 141.692Z" fill="#39AFD3"/>
<path opacity="0.5" d="M169.112 140.887C169.206 140.929 169.16 141.07 169.062 141.04C165.461 139.948 150.649 133.498 138.409 114.159C138.4 114.147 138.397 114.132 138.4 114.117C138.402 114.103 138.41 114.09 138.422 114.082C138.434 114.073 138.449 114.07 138.463 114.073C138.478 114.075 138.491 114.083 138.499 114.095C141.761 118.417 154.327 134.157 169.112 140.887Z" fill="white"/>
</g>
<g opacity="0.9">
<path d="M168.002 141.693C168.002 141.693 185.757 115.817 205.3 105.399C206.613 104.699 208.102 105.717 207.92 107.196C206.699 117.092 200.35 146.114 168.002 141.693Z" fill="#39AFD3"/>
<path opacity="0.5" d="M171.445 140.888C171.351 140.93 171.397 141.07 171.495 141.04C175.096 139.948 189.908 133.498 202.148 114.159C202.156 114.147 202.16 114.132 202.157 114.118C202.154 114.103 202.146 114.091 202.134 114.082C202.122 114.074 202.108 114.07 202.093 114.073C202.079 114.076 202.066 114.084 202.058 114.096C198.795 118.418 186.23 134.158 171.445 140.888Z" fill="white"/>
</g>
<g opacity="0.92">
<path d="M174.553 129.491C174.553 129.491 181.085 101.236 175.51 81.2902C175.136 79.9494 173.431 79.5493 172.506 80.5894C166.32 87.544 150.015 109.855 174.553 129.491Z" fill="#66B8D0"/>
<path opacity="0.5" d="M172.84 126.612C172.847 126.63 172.847 126.651 172.839 126.669C172.831 126.687 172.817 126.702 172.799 126.709C172.781 126.717 172.76 126.718 172.742 126.711C172.723 126.704 172.708 126.69 172.699 126.672C171.089 123.507 165.842 109.284 171.406 88.8785C171.407 88.8716 171.41 88.8649 171.414 88.8591C171.418 88.8532 171.423 88.8481 171.429 88.8442C171.435 88.8403 171.442 88.8376 171.448 88.8363C171.455 88.835 171.463 88.835 171.47 88.8365C171.477 88.8379 171.483 88.8407 171.489 88.8447C171.495 88.8487 171.5 88.8539 171.504 88.8598C171.508 88.8658 171.51 88.8724 171.512 88.8794C171.513 88.8864 171.513 88.8936 171.512 88.9005C170.615 93.8259 167.81 112.234 172.84 126.612Z" fill="white"/>
</g>
<g opacity="0.92">
<path d="M169.907 143.094C169.907 143.094 190.853 123.036 197.118 103.296C197.539 101.969 196.332 100.701 194.988 101.064C186.003 103.493 160.138 113.223 169.907 143.094Z" fill="#66B8D0"/>
<path opacity="0.5" d="M170.053 139.748C170.049 139.767 170.037 139.784 170.021 139.795C170.004 139.806 169.984 139.81 169.965 139.807C169.945 139.804 169.928 139.793 169.916 139.777C169.905 139.761 169.9 139.741 169.902 139.721C170.288 136.191 173.692 121.418 189.527 107.397C189.532 107.392 189.538 107.388 189.544 107.385C189.551 107.382 189.558 107.381 189.565 107.381C189.572 107.381 189.579 107.382 189.586 107.385C189.592 107.387 189.598 107.391 189.603 107.396C189.608 107.401 189.612 107.407 189.615 107.414C189.618 107.421 189.619 107.428 189.619 107.435C189.619 107.442 189.618 107.449 189.615 107.455C189.612 107.462 189.608 107.468 189.603 107.473C186.155 111.102 173.723 124.964 170.053 139.748Z" fill="white"/>
</g>
<defs>
<linearGradient id="paint0_linear_59_250" x1="311.043" y1="86.0099" x2="-9.33765" y2="80.9609" gradientUnits="userSpaceOnUse">
<stop stop-color="#3ACFFF"/>
<stop offset="0.956731" stop-color="#7EE0FF"/>
</linearGradient>
</defs>
</svg>
