
<svg width="168" height="168" viewBox="0 0 168 168" fill="none" xmlns="http://www.w3.org/2000/svg">
<g clip-path="url(#clip0_16_248173)">
<path d="M156.413 121.655H153.517C158.325 121.655 162.207 126.84 162.207 133.241C162.207 139.641 158.325 144.827 153.517 144.827H147.726C152.535 144.827 156.416 150.012 156.416 156.413C156.416 162.814 152.535 167.999 147.726 167.999H90.7215C86.2774 168 81.8693 167.201 77.708 165.641L54.7588 159.307V89.793C66.3448 64.1008 82.317 49.617 89.8226 42.0286C95.3792 36.3943 98.4909 28.7967 98.4829 20.8834V8.68953C98.4868 6.38611 99.4035 4.17814 101.032 2.54937C102.661 0.920607 104.869 0.00386481 107.172 0C111.013 0.00193482 114.696 1.52807 117.412 4.24325C120.129 6.95843 121.656 10.6407 121.66 14.4813V25.2464C121.66 44.7278 117.706 58.5161 114.411 66.6246C112.726 70.766 115.76 75.3093 120.237 75.3093H159.316C164.123 75.3093 168.005 80.4933 168.005 86.8953C168.005 93.2973 164.123 98.4813 159.316 98.4813H156.418C161.227 98.4813 165.109 103.665 165.109 110.067C165.109 116.469 161.222 121.655 156.413 121.655Z" fill="#35C0ED"/>
<path d="M37.6546 81.1035H8.68953C3.89043 81.1035 0 84.994 0 89.793V159.311C0 164.11 3.89043 168 8.68953 168H37.6546C42.4537 168 46.3442 164.11 46.3442 159.311V89.793C46.3442 84.994 42.4537 81.1035 37.6546 81.1035Z" fill="#0B2952"/>
</g>
<defs>
<clipPath id="clip0_16_248173">
<rect width="168" height="168" fill="white"/>
</clipPath>
</defs>
</svg>
