
<svg width="168" height="168" viewBox="0 0 168 168" fill="none" xmlns="http://www.w3.org/2000/svg">
<g clip-path="url(#clip0_59_3012)">
<path d="M156.414 46.3454H153.518C158.325 46.3454 162.207 41.1602 162.207 34.7593C162.207 28.3585 158.325 23.1733 153.518 23.1733H147.725C152.532 23.1733 156.414 17.9881 156.414 11.5873C156.414 5.18643 152.532 0 147.725 0H90.7203C86.277 0.000566772 81.8699 0.79972 77.7092 2.35935L54.7588 8.69318V78.2106C66.3448 103.903 82.3207 118.385 89.8226 125.975C95.3796 131.609 98.4913 139.206 98.4829 147.119V159.314C98.4868 161.618 99.4035 163.826 101.032 165.454C102.661 167.083 104.869 168 107.172 168.004C111.013 168.001 114.695 166.474 117.41 163.759C120.126 161.043 121.653 157.361 121.656 153.521V142.756C121.656 123.275 117.701 109.486 114.406 101.378C112.721 97.2304 115.755 92.6932 120.232 92.6932H159.311C164.118 92.6932 168 87.5092 168 81.1071C168 74.7051 164.118 69.5211 159.311 69.5211H156.414C161.222 69.5211 165.104 64.3359 165.104 57.9351C165.104 51.5342 161.222 46.3454 156.414 46.3454Z" fill="#FF000D" fill-opacity="0.4"/>
<path d="M37.6546 0H8.68953C3.89043 0 0 3.89043 0 8.68953V78.207C0 83.0061 3.89043 86.8965 8.68953 86.8965H37.6546C42.4537 86.8965 46.3442 83.0061 46.3442 78.207V8.68953C46.3442 3.89043 42.4537 0 37.6546 0Z" fill="#0B2952"/>
</g>
<defs>
<clipPath id="clip0_59_3012">
<rect width="168" height="168" fill="white"/>
</clipPath>
</defs>
</svg>
