
<svg width="46" height="44" viewBox="0 0 46 44" fill="none" xmlns="http://www.w3.org/2000/svg">
<g filter="url(#filter0_d_8153_3296)">
<g clip-path="url(#clip0_8153_3296)">
<path d="M6 10C6 6.68629 8.68629 4 12 4H34C37.3137 4 40 6.68629 40 10V30C40 33.3137 37.3137 36 34 36H12C8.68629 36 6 33.3137 6 30V10Z" fill="#35C0ED"/>
<g filter="url(#filter1_d_8153_3296)">
<path d="M20.5663 19.4166H27.6666V20.5833H20.5663L23.6953 23.7123L22.8705 24.5371L18.3333 20L22.8705 15.4628L23.6953 16.2876L20.5663 19.4166Z" fill="white"/>
</g>
</g>
</g>
<defs>
<filter id="filter0_d_8153_3296" x="0" y="0" width="46" height="44" filterUnits="userSpaceOnUse" color-interpolation-filters="sRGB">
<feFlood flood-opacity="0" result="BackgroundImageFix"/>
<feColorMatrix in="SourceAlpha" type="matrix" values="0 0 0 0 0 0 0 0 0 0 0 0 0 0 0 0 0 0 127 0" result="hardAlpha"/>
<feOffset dy="2"/>
<feGaussianBlur stdDeviation="3"/>
<feColorMatrix type="matrix" values="0 0 0 0 0.14902 0 0 0 0 0.168627 0 0 0 0 0.262745 0 0 0 0.14 0"/>
<feBlend mode="normal" in2="BackgroundImageFix" result="effect1_dropShadow_8153_3296"/>
<feBlend mode="normal" in="SourceGraphic" in2="effect1_dropShadow_8153_3296" result="shape"/>
</filter>
<filter id="filter1_d_8153_3296" x="2" y="4" width="42" height="40" filterUnits="userSpaceOnUse" color-interpolation-filters="sRGB">
<feFlood flood-opacity="0" result="BackgroundImageFix"/>
<feColorMatrix in="SourceAlpha" type="matrix" values="0 0 0 0 0 0 0 0 0 0 0 0 0 0 0 0 0 0 127 0" result="hardAlpha"/>
<feOffset dy="4"/>
<feGaussianBlur stdDeviation="2"/>
<feComposite in2="hardAlpha" operator="out"/>
<feColorMatrix type="matrix" values="0 0 0 0 0 0 0 0 0 0 0 0 0 0 0 0 0 0 0.25 0"/>
<feBlend mode="normal" in2="BackgroundImageFix" result="effect1_dropShadow_8153_3296"/>
<feBlend mode="normal" in="SourceGraphic" in2="effect1_dropShadow_8153_3296" result="shape"/>
</filter>
<clipPath id="clip0_8153_3296">
<path d="M6 10C6 6.68629 8.68629 4 12 4H34C37.3137 4 40 6.68629 40 10V30C40 33.3137 37.3137 36 34 36H12C8.68629 36 6 33.3137 6 30V10Z" fill="white"/>
</clipPath>
</defs>
</svg>
