
<svg width="13" height="15" viewBox="0 0 13 15" fill="none" xmlns="http://www.w3.org/2000/svg">
<path d="M6.75012 6.80566C7.54578 6.80566 8.30885 6.48959 8.87147 5.92698C9.43409 5.36438 9.75017 4.60131 9.75017 3.80566C9.75017 3.01001 9.43409 2.24695 8.87147 1.68434C8.30885 1.12173 7.54578 0.805664 6.75012 0.805664C5.95445 0.805664 5.19138 1.12173 4.62876 1.68434C4.06614 2.24695 3.75006 3.01001 3.75006 3.80566C3.75006 4.60131 4.06614 5.36438 4.62876 5.92698C5.19138 6.48959 5.95445 6.80566 6.75012 6.80566ZM1.50003 11.1384C1.50003 9.99091 2.42704 9.06091 3.57306 9.05566L3.64806 9.09316C4.58538 9.56177 5.61893 9.80571 6.66686 9.80566H6.83412C7.18412 9.80566 7.53113 9.77866 7.87513 9.72466V8.93041C7.87513 8.65966 7.93814 8.39791 8.05139 8.16241C7.65262 8.25753 7.24408 8.3056 6.83412 8.30566H6.66686C5.85194 8.30561 5.04822 8.11585 4.31932 7.75141L4.23532 7.70941C4.03275 7.60807 3.80932 7.55543 3.58281 7.55566C2.63259 7.55566 1.72129 7.93313 1.04938 8.60503C0.377474 9.27692 0 10.1882 0 11.1384V14.3057H7.98989C7.9149 14.1059 7.87605 13.8943 7.87513 13.6809V12.8057H1.50003V11.1384ZM12.0602 10.4627C12.135 10.397 12.1807 10.3044 12.1871 10.2051C12.1936 10.1058 12.1603 10.008 12.0947 9.93316C12.0291 9.85837 11.9364 9.81272 11.8371 9.80625C11.7378 9.79978 11.64 9.83302 11.5652 9.89866L11.0169 10.3787L10.9434 10.3104C10.8703 10.2452 10.7745 10.2112 10.6767 10.2157C10.5788 10.2202 10.4865 10.2629 10.4197 10.3345C10.3529 10.4062 10.3167 10.5011 10.319 10.5991C10.3213 10.697 10.3618 10.7902 10.4319 10.8587L10.7514 11.1564C10.8939 11.2884 11.1122 11.2914 11.2577 11.1639L12.0602 10.4627ZM12.0602 11.9627C12.135 11.897 12.1807 11.8044 12.1871 11.7051C12.1936 11.6058 12.1603 11.508 12.0947 11.4332C12.0291 11.3584 11.9364 11.3127 11.8371 11.3063C11.7378 11.2998 11.64 11.333 11.5652 11.3987L11.0169 11.8787L10.9434 11.8104C10.8706 11.7426 10.7739 11.7065 10.6744 11.71C10.575 11.7135 10.481 11.7564 10.4132 11.8292C10.3453 11.902 10.3092 11.9987 10.3127 12.0982C10.3162 12.1976 10.3591 12.2916 10.4319 12.3594L10.7514 12.6564C10.8939 12.7884 11.1122 12.7914 11.2577 12.6639L12.0602 11.9627Z" fill="white"/>
</svg>
