
<svg width="19" height="25" viewBox="0 0 19 25" fill="none" xmlns="http://www.w3.org/2000/svg">
<path d="M8.44433 14.3709V16.4578C6.76465 16.4578 5.15376 17.1175 3.96605 18.2916C2.77833 19.4657 2.11108 21.0582 2.11108 22.7187H0C0 20.5047 0.889668 18.3814 2.47329 16.8159C4.0569 15.2504 6.20475 14.3709 8.44433 14.3709ZM8.44433 13.3274C4.94521 13.3274 2.11108 10.5257 2.11108 7.06653C2.11108 3.6074 4.94521 0.805664 8.44433 0.805664C11.9434 0.805664 14.7776 3.6074 14.7776 7.06653C14.7776 10.5257 11.9434 13.3274 8.44433 13.3274ZM8.44433 11.2404C10.7771 11.2404 12.6665 9.37262 12.6665 7.06653C12.6665 4.76045 10.7771 2.89262 8.44433 2.89262C6.11158 2.89262 4.22216 4.76045 4.22216 7.06653C4.22216 9.37262 6.11158 11.2404 8.44433 11.2404ZM17.7626 21.7493L14.7776 24.8057L11.7925 21.7493C10.1427 20.061 10.1427 17.325 11.7925 15.6366C12.1774 15.2368 12.6405 14.9185 13.1536 14.701C13.6668 14.4835 14.2193 14.3713 14.7776 14.3713C15.3359 14.3713 15.8884 14.4835 16.4015 14.701C16.9147 14.9185 17.3777 15.2368 17.7626 15.6366C19.4125 17.325 19.4125 20.061 17.7626 21.7493ZM16.2448 20.2989C17.1029 19.4203 17.1029 17.9657 16.2448 17.0871C16.0568 16.8885 15.8296 16.7303 15.5772 16.6221C15.3248 16.5139 15.0527 16.458 14.7776 16.458C14.5025 16.458 14.2303 16.5139 13.978 16.6221C13.7256 16.7303 13.4984 16.8885 13.3104 17.0871C12.4522 17.9657 12.4522 19.4203 13.3104 20.2999L14.7776 21.8004L16.2448 20.2978V20.2989Z" fill="#35C0ED"/>
</svg>
