
<svg width="34" height="45" viewBox="0 0 34 45" fill="none" xmlns="http://www.w3.org/2000/svg">
<path d="M15.1109 25.3636V29.2656C12.1052 29.2656 9.22252 30.499 7.09714 32.6943C4.97175 34.8897 3.77773 37.8672 3.77773 40.9719H0C0 36.8323 1.59204 32.8623 4.42588 29.9351C7.25972 27.008 11.1032 25.3636 15.1109 25.3636ZM15.1109 23.4125C8.84932 23.4125 3.77773 18.174 3.77773 11.7063C3.77773 5.23855 8.84932 0 15.1109 0C21.3725 0 26.4441 5.23855 26.4441 11.7063C26.4441 18.174 21.3725 23.4125 15.1109 23.4125ZM15.1109 19.5104C19.2853 19.5104 22.6664 16.0181 22.6664 11.7063C22.6664 7.39445 19.2853 3.90209 15.1109 3.90209C10.9365 3.90209 7.55545 7.39445 7.55545 11.7063C7.55545 16.0181 10.9365 19.5104 15.1109 19.5104ZM31.7858 39.1594L26.4441 44.874L21.1024 39.1594C18.1501 36.0026 18.1501 30.887 21.1024 27.7302C21.7911 26.9826 22.6198 26.3874 23.5381 25.9807C24.4563 25.574 25.445 25.3643 26.4441 25.3643C27.4432 25.3643 28.4319 25.574 29.3501 25.9807C30.2683 26.3874 31.097 26.9826 31.7858 27.7302C34.7381 30.887 34.7381 36.0026 31.7858 39.1594ZM29.0696 36.4474C30.6052 34.8047 30.6052 32.0849 29.0696 30.4421C28.7332 30.0709 28.3266 29.775 27.875 29.5727C27.4233 29.3704 26.9363 29.266 26.4441 29.266C25.9518 29.266 25.4648 29.3704 25.0132 29.5727C24.5616 29.775 24.155 30.0709 23.8186 30.4421C22.2829 32.0849 22.2829 34.8047 23.8186 36.4494L26.4441 39.255L29.0696 36.4455V36.4474Z" fill="white"/>
</svg>
