
<svg width="34" height="35" viewBox="0 0 34 35" fill="none" xmlns="http://www.w3.org/2000/svg">
<path d="M20.582 7.84781C21.9848 8.12641 23.2741 8.82477 24.2847 9.85351C25.2953 10.8823 25.9814 12.1946 26.2551 13.6225M20.582 2C23.4965 2.32958 26.2143 3.65811 28.2891 5.76746C30.364 7.87681 31.6726 10.6416 32 13.6079M30.5638 25.2743V29.6601C30.5654 30.0673 30.4835 30.4703 30.3232 30.8434C30.163 31.2164 29.928 31.5513 29.6332 31.8265C29.3385 32.1018 28.9905 32.3114 28.6116 32.4418C28.2327 32.5722 27.8312 32.6207 27.4328 32.584C23.0133 32.0952 18.7681 30.558 15.0382 28.0958C11.568 25.8513 8.62595 22.8565 6.42086 19.3241C3.99361 15.5102 2.48309 11.1679 2.01166 6.64901C1.97577 6.24473 2.02297 5.83727 2.15025 5.45258C2.27754 5.06789 2.48212 4.71439 2.75098 4.41459C3.01983 4.11479 3.34706 3.87526 3.71185 3.71125C4.07663 3.54723 4.47096 3.46233 4.86974 3.46195H9.17841C9.87542 3.45497 10.5511 3.70621 11.0796 4.16885C11.6081 4.63149 11.9533 5.27396 12.0509 5.97651C12.2327 7.38008 12.57 8.7582 13.0562 10.0846C13.2494 10.6079 13.2913 11.1765 13.1767 11.7233C13.0622 12.27 12.7961 12.7718 12.4099 13.1693L10.5859 15.026C12.6305 18.6861 15.6076 21.7165 19.2033 23.7977L21.0273 21.941C21.4177 21.548 21.9108 21.2771 22.4478 21.1605C22.9849 21.0439 23.5436 21.0865 24.0577 21.2831C25.3607 21.7781 26.7146 22.1214 28.0935 22.3065C28.7911 22.4067 29.4283 22.7644 29.8838 23.3116C30.3392 23.8588 30.5813 24.5573 30.5638 25.2743Z" stroke="white" stroke-width="3" stroke-linecap="round" stroke-linejoin="round"/>
</svg>
