<svg width="24" height="24" viewBox="0 0 24 24" fill="none" xmlns="http://www.w3.org/2000/svg">
<path d="M14.6268 5.20389C15.6555 5.40422 16.601 5.90638 17.3421 6.64609C18.0833 7.38581 18.5864 8.32944 18.7871 9.3562M14.6268 0.999023C16.7641 1.23601 18.7572 2.19129 20.2787 3.70802C21.8003 5.22475 22.7599 7.21278 23 9.34569M21.9468 17.7344V20.8881C21.948 21.1808 21.8879 21.4706 21.7704 21.7389C21.6529 22.0071 21.4805 22.2479 21.2644 22.4458C21.0482 22.6437 20.793 22.7944 20.5152 22.8882C20.2373 22.982 19.9429 23.0168 19.6507 22.9905C16.4098 22.639 13.2966 21.5337 10.5613 19.7633C8.01656 18.1493 5.85903 15.9959 4.24197 13.4559C2.46198 10.7135 1.35426 7.5912 1.00855 4.34189C0.982229 4.0512 1.01684 3.75822 1.11019 3.4816C1.20353 3.20499 1.35356 2.95081 1.55072 2.73524C1.74788 2.51967 1.98785 2.34743 2.25535 2.2295C2.52286 2.11156 2.81204 2.05052 3.10448 2.05024H6.26417C6.77531 2.04522 7.27084 2.22588 7.65839 2.55854C8.04595 2.8912 8.29909 3.35317 8.37063 3.85833C8.50399 4.86757 8.75132 5.85851 9.10789 6.81226C9.2496 7.18851 9.28026 7.59742 9.19626 7.99054C9.11226 8.38366 8.91711 8.74451 8.63394 9.03032L7.29633 10.3654C8.79567 12.9971 10.9789 15.1762 13.6157 16.6727L14.9533 15.3376C15.2397 15.055 15.6012 14.8602 15.9951 14.7764C16.389 14.6925 16.7987 14.7231 17.1756 14.8646C18.1312 15.2205 19.124 15.4673 20.1352 15.6004C20.6468 15.6725 21.1141 15.9297 21.4481 16.3231C21.7821 16.7166 21.9596 17.2189 21.9468 17.7344Z" stroke="white" stroke-width="2" stroke-linecap="round" stroke-linejoin="round"/>
</svg>
