
<svg width="26" height="27" viewBox="0 0 26 27" fill="none" xmlns="http://www.w3.org/2000/svg">
<path d="M15.8656 6.39279C16.9879 6.61133 18.0193 7.15914 18.8278 7.96611C19.6363 8.77307 20.1851 9.80248 20.4041 10.9226M15.8656 1.80566C18.1972 2.06419 20.3714 3.10632 22.0313 4.76093C23.6912 6.41555 24.738 8.58431 25 10.9111M23.851 20.0624V23.5028C23.8523 23.8222 23.7868 24.1383 23.6586 24.4309C23.5304 24.7236 23.3424 24.9863 23.1066 25.2022C22.8708 25.4181 22.5924 25.5825 22.2893 25.6848C21.9861 25.7871 21.6649 25.8251 21.3462 25.7964C17.8106 25.4129 14.4145 24.2071 11.4306 22.2757C8.65443 20.515 6.30076 18.1659 4.53669 15.395C2.59489 12.4033 1.38647 8.99713 1.00933 5.45243C0.980614 5.13531 1.01837 4.81569 1.1202 4.51393C1.22203 4.21217 1.3857 3.93488 1.60078 3.69971C1.81586 3.46455 2.07765 3.27665 2.36948 3.148C2.6613 3.01934 2.97677 2.95275 3.29579 2.95245H6.74273C7.30034 2.94697 7.84091 3.14405 8.2637 3.50695C8.68649 3.86986 8.96264 4.37382 9.04069 4.92491C9.18617 6.0259 9.45598 7.10693 9.84497 8.14737C9.99956 8.55783 10.033 9.00392 9.94138 9.43278C9.84974 9.86163 9.63685 10.2553 9.32793 10.5671L7.86873 12.0235C9.50436 14.8945 11.8861 17.2717 14.7626 18.9042L16.2218 17.4478C16.5342 17.1395 16.9286 16.927 17.3583 16.8355C17.788 16.744 18.2349 16.7774 18.6461 16.9317C19.6886 17.32 20.7717 17.5893 21.8748 17.7345C22.4329 17.8131 22.9426 18.0937 23.307 18.5229C23.6714 18.9521 23.865 19.5 23.851 20.0624Z" stroke="#35C0ED" stroke-width="2" stroke-linecap="round" stroke-linejoin="round"/>
</svg>
