
<svg width="40" height="41" viewBox="0 0 40 41" fill="none" xmlns="http://www.w3.org/2000/svg">
<path d="M12 32.6356L20 26.4145L28 32.6356L25 22.539L33 16.7258H23.2L20 6.11918L16.8 16.7258H7L15 22.539L12 32.6356ZM20 40.7945C17.2333 40.7945 14.6333 40.2591 12.2 39.1882C9.76667 38.1174 7.65 36.6641 5.85 34.8283C4.05 32.9926 2.625 30.8339 1.575 28.3522C0.525 25.8705 0 23.2189 0 20.3973C0 17.5756 0.525 14.924 1.575 12.4423C2.625 9.96067 4.05 7.80195 5.85 5.9662C7.65 4.13045 9.76667 2.67714 12.2 1.60628C14.6333 0.535428 17.2333 0 20 0C22.7667 0 25.3667 0.535428 27.8 1.60628C30.2333 2.67714 32.35 4.13045 34.15 5.9662C35.95 7.80195 37.375 9.96067 38.425 12.4423C39.475 14.924 40 17.5756 40 20.3973C40 23.2189 39.475 25.8705 38.425 28.3522C37.375 30.8339 35.95 32.9926 34.15 34.8283C32.35 36.6641 30.2333 38.1174 27.8 39.1882C25.3667 40.2591 22.7667 40.7945 20 40.7945ZM20 36.7151C24.4667 36.7151 28.25 35.1343 31.35 31.9727C34.45 28.8111 36 24.9527 36 20.3973C36 15.8419 34.45 11.9834 31.35 8.82182C28.25 5.66024 24.4667 4.07945 20 4.07945C15.5333 4.07945 11.75 5.66024 8.65 8.82182C5.55 11.9834 4 15.8419 4 20.3973C4 24.9527 5.55 28.8111 8.65 31.9727C11.75 35.1343 15.5333 36.7151 20 36.7151Z" fill="white"/>
</svg>
