
<svg width="26" height="34" viewBox="0 0 26 34" fill="none" xmlns="http://www.w3.org/2000/svg">
<path d="M18.9375 31.4379C19.4898 31.4379 19.9375 31.8857 19.9375 32.4379C19.9373 32.9901 19.4897 33.4379 18.9375 33.4379H7.0625C6.51045 33.4378 6.0627 32.99 6.0625 32.4379C6.0625 31.8857 6.51033 31.4381 7.0625 31.4379H18.9375ZM12.6943 0.562944C15.3975 0.498864 18.0524 1.2874 20.2822 2.81685C22.5119 4.34623 24.2035 6.53877 25.1172 9.08345C26.0308 11.6283 26.1199 14.3971 25.3721 16.9956C24.6241 19.5939 23.0768 21.8912 20.9502 23.561L20.9443 23.5649C20.6318 23.8065 20.3786 24.1168 20.2041 24.4711C20.0297 24.8256 19.9384 25.2158 19.9375 25.6108V26.4995C19.9375 27.0795 19.707 27.6361 19.2969 28.0463C18.8866 28.4566 18.3302 28.687 17.75 28.687H8.25C7.66989 28.6869 7.11333 28.4565 6.70312 28.0463C6.29312 27.6361 6.0625 27.0795 6.0625 26.4995V25.6157C6.05972 25.2224 5.9688 24.8342 5.7959 24.4809C5.62295 24.1277 5.37236 23.818 5.06348 23.5747V23.5737C3.53246 22.3819 2.29196 20.8581 1.43652 19.1167C0.580161 17.3732 0.131393 15.4575 0.125 13.5151L0.125977 13.5141C0.0950142 6.53155 5.70483 0.724393 12.6943 0.562944ZM12.7422 2.56197H12.7412C7.0318 2.69353 2.39641 7.30421 2.13672 12.9565L2.125 13.5073V13.5083C2.13037 15.1472 2.50887 16.7637 3.23145 18.2348C3.95405 19.7059 5.00204 20.9934 6.2959 21.9995L5.72852 22.7299L6.30078 22.0034C6.84557 22.4326 7.28685 22.9791 7.5918 23.602C7.89666 24.2249 8.05767 24.9086 8.0625 25.602V26.4995C8.0625 26.549 8.08225 26.5972 8.11719 26.6323C8.15232 26.6674 8.20032 26.6869 8.25 26.687H17.75C17.7997 26.687 17.8477 26.6674 17.8828 26.6323C17.9178 26.5971 17.9375 26.5491 17.9375 26.4995V25.6069C17.9389 24.907 18.1001 24.2163 18.4092 23.5883C18.7183 22.9602 19.1678 22.411 19.7217 21.9829C21.5148 20.5728 22.8192 18.6341 23.4502 16.4419C24.0818 14.2471 24.007 11.9087 23.2354 9.75923C22.4637 7.60993 21.0345 5.75808 19.1514 4.46626C17.268 3.17448 15.0253 2.50793 12.7422 2.56197ZM13.2158 6.26412C13.3082 5.7199 13.8249 5.35289 14.3691 5.44478C16.0245 5.72539 17.5524 6.51404 18.7412 7.69966C19.9298 8.88528 20.7219 10.4105 21.0068 12.0649C21.1005 12.6092 20.7347 13.1265 20.1904 13.2202C19.6463 13.3136 19.1288 12.9489 19.0352 12.4047C18.8205 11.1583 18.2245 10.0089 17.3291 9.11568C16.4335 8.22253 15.2822 7.62887 14.0352 7.41744C13.491 7.32493 13.1237 6.8084 13.2158 6.26412Z" fill="#26C6F9"/>
</svg>
