
<svg width="34" height="25" viewBox="0 0 34 25" fill="none" xmlns="http://www.w3.org/2000/svg">
<path d="M3.9375 19.125V3.6875C3.9375 3.05761 4.18772 2.45352 4.63312 2.00812C5.07852 1.56272 5.68261 1.3125 6.3125 1.3125H27.6875C28.3174 1.3125 28.9215 1.56272 29.3669 2.00812C29.8123 2.45352 30.0625 3.05761 30.0625 3.6875V19.125M19.375 6.0625H14.625M1.5625 19.125H32.4375V21.5C32.4375 22.1299 32.1873 22.734 31.7419 23.1794C31.2965 23.6248 30.6924 23.875 30.0625 23.875H3.9375C3.30761 23.875 2.70352 23.6248 2.25812 23.1794C1.81272 22.734 1.5625 22.1299 1.5625 21.5V19.125Z" stroke="#666CFF" stroke-width="2" stroke-linecap="round" stroke-linejoin="round"/>
</svg>

