
<svg width="34" height="34" viewBox="0 0 34 34" fill="none" xmlns="http://www.w3.org/2000/svg">
<path d="M23.5312 13.4375L14.818 21.75L10.4687 17.5937M6.08984 27.9102C4.72422 26.5445 5.62969 23.6797 4.93203 22.0023C4.23437 20.325 1.5625 18.8555 1.5625 17C1.5625 15.1445 4.20469 13.7344 4.93203 11.9977C5.65937 10.2609 4.72422 7.45547 6.08984 6.08984C7.45547 4.72422 10.3203 5.62969 11.9977 4.93203C13.675 4.23437 15.1445 1.5625 17 1.5625C18.8555 1.5625 20.2656 4.20469 22.0023 4.93203C23.7391 5.65937 26.5445 4.72422 27.9102 6.08984C29.2758 7.45547 28.3703 10.3203 29.068 11.9977C29.7656 13.675 32.4375 15.1445 32.4375 17C32.4375 18.8555 29.7953 20.2656 29.068 22.0023C28.3406 23.7391 29.2758 26.5445 27.9102 27.9102C26.5445 29.2758 23.6797 28.3703 22.0023 29.068C20.325 29.7656 18.8555 32.4375 17 32.4375C15.1445 32.4375 13.7344 29.7953 11.9977 29.068C10.2609 28.3406 7.45547 29.2758 6.08984 27.9102Z" stroke="#FDB528" stroke-width="2" stroke-linecap="round" stroke-linejoin="round"/>
</svg>
