
<svg width="32" height="32" viewBox="0 0 32 32" fill="none" xmlns="http://www.w3.org/2000/svg">
<path d="M8.5 14.5L14.5 1C15.6935 1 16.8381 1.47411 17.682 2.31802C18.5259 3.16193 19 4.30653 19 5.5V11.5H27.49C27.9249 11.4951 28.3556 11.5848 28.7524 11.7628C29.1491 11.9409 29.5024 12.2031 29.7878 12.5313C30.0732 12.8594 30.2838 13.2457 30.405 13.6634C30.5263 14.081 30.5553 14.52 30.49 14.95L28.42 28.45C28.3115 29.1654 27.9482 29.8174 27.3969 30.286C26.8456 30.7546 26.1435 31.0082 25.42 31H8.5M8.5 14.5V31M8.5 14.5H4C3.20435 14.5 2.44129 14.8161 1.87868 15.3787C1.31607 15.9413 1 16.7044 1 17.5V28C1 28.7956 1.31607 29.5587 1.87868 30.1213C2.44129 30.6839 3.20435 31 4 31H8.5" stroke="#35C0ED" stroke-width="2" stroke-linecap="round" stroke-linejoin="round"/>
</svg>
